<?xml version="1.0" encoding="UTF-8" standalone="no"?>
<!-- Created with Inkscape (http://www.inkscape.org/) -->

<svg
 xmlns:svg="http://www.w3.org/2000/svg"
 xmlns="http://www.w3.org/2000/svg"
 xmlns:inkscape="http://www.inkscape.org/namespaces/inkscape"
 version="1.1"
 width="720"
 height="720"
 id="svg2">
<defs
 id="defs4">
<inkscape:path-effect
 effect="spiro"
 id="path-effect2902" />
<inkscape:path-effect
 effect="spiro"
 id="path-effect2898" />
<inkscape:path-effect
 effect="spiro"
 id="path-effect2894" />
<inkscape:path-effect
 effect="spiro"
 id="path-effect3069" />
<inkscape:path-effect
 effect="spiro"
 id="path-effect3065" />
<inkscape:path-effect
 effect="spiro"
 id="path-effect3061" />
<inkscape:path-effect
 effect="spiro"
 id="path-effect3057" />
<inkscape:path-effect
 effect="spiro"
 id="path-effect3053" />
<linearGradient
 id="linearGradient3785">
<stop
 id="stop3787"
 style="stop-color:#000000;stop-opacity:1"
 offset="0" />
<stop
 id="stop3789"
 style="stop-color:#000000;stop-opacity:0"
 offset="1" />
</linearGradient>
<linearGradient
 id="linearGradient3785-5">
<stop
 id="stop3787-6"
 style="stop-color:#000000;stop-opacity:1"
 offset="0" />
<stop
 id="stop3789-6"
 style="stop-color:#000000;stop-opacity:0"
 offset="1" />
</linearGradient>
<linearGradient
 id="linearGradient3785-5-7">
<stop
 id="stop3787-6-2"
 style="stop-color:#000000;stop-opacity:1"
 offset="0" />
<stop
 id="stop3789-6-4"
 style="stop-color:#000000;stop-opacity:0"
 offset="1" />
</linearGradient>
<linearGradient
 id="linearGradient3785-2">
<stop
 id="stop3787-8"
 style="stop-color:#000000;stop-opacity:1"
 offset="0" />
<stop
 id="stop3789-4"
 style="stop-color:#000000;stop-opacity:0"
 offset="1" />
</linearGradient>
<linearGradient
 id="linearGradient3785-2-7">
<stop
 id="stop3787-8-4"
 style="stop-color:#000000;stop-opacity:1"
 offset="0" />
<stop
 id="stop3789-4-3"
 style="stop-color:#000000;stop-opacity:0"
 offset="1" />
</linearGradient>
<linearGradient
 id="linearGradient3785-5-7-1">
<stop
 id="stop3787-6-2-6"
 style="stop-color:#000000;stop-opacity:1"
 offset="0" />
<stop
 id="stop3789-6-4-2"
 style="stop-color:#000000;stop-opacity:0"
 offset="1" />
</linearGradient>
<linearGradient
 id="linearGradient3785-5-6">
<stop
 id="stop3787-6-3"
 style="stop-color:#000000;stop-opacity:1"
 offset="0" />
<stop
 id="stop3789-6-6"
 style="stop-color:#000000;stop-opacity:0"
 offset="1" />
</linearGradient>
<linearGradient
 id="linearGradient3785-1">
<stop
 id="stop3787-4"
 style="stop-color:#000000;stop-opacity:1"
 offset="0" />
<stop
 id="stop3789-7"
 style="stop-color:#000000;stop-opacity:0"
 offset="1" />
</linearGradient>
<linearGradient
 id="linearGradient3785-2-3">
<stop
 id="stop3787-8-6"
 style="stop-color:#000000;stop-opacity:1"
 offset="0" />
<stop
 id="stop3789-4-8"
 style="stop-color:#000000;stop-opacity:0"
 offset="1" />
</linearGradient>
<linearGradient
 id="linearGradient3785-5-7-2">
<stop
 id="stop3787-6-2-8"
 style="stop-color:#000000;stop-opacity:1"
 offset="0" />
<stop
 id="stop3789-6-4-9"
 style="stop-color:#000000;stop-opacity:0"
 offset="1" />
</linearGradient>
<linearGradient
 id="linearGradient3785-5-4">
<stop
 id="stop3787-6-8"
 style="stop-color:#000000;stop-opacity:1"
 offset="0" />
<stop
 id="stop3789-6-1"
 style="stop-color:#000000;stop-opacity:0"
 offset="1" />
</linearGradient>
<linearGradient
 id="linearGradient3785-4">
<stop
 id="stop3787-7"
 style="stop-color:#000000;stop-opacity:1"
 offset="0" />
<stop
 id="stop3789-75"
 style="stop-color:#000000;stop-opacity:0"
 offset="1" />
</linearGradient>
</defs>
<g
 transform="translate(0,-332.36218)"
 id="layer1">
<path
 d="m 348.7292785644531,255.9116058349609 a 66.29833984375,66.29833984375 0 0 1 -66.29833984375,66.29833984375 l 0,-66.29833984375 z"
 transform="matrix(2.375625096664431,0,0,2.375625096664431,-468.4500260993967,-73.08785334922959)"
 id="path2955"
 style="fill:#ff00ff;fill-opacity:1;stroke:none" />
<path
 d="m 348.7292785644531,255.9116058349609 a 66.29833984375,66.29833984375 0 0 1 -66.29833984375,66.29833984375 l 0,-66.29833984375 z"
 transform="matrix(-1.509157088646527e-16,-2.375625096664431,-2.375625096664431,1.509157088646527e-16,810.4500333492286,1363.312206099396)"
 id="path2957"
 style="fill:#8000ff;fill-opacity:1;stroke:none" />
<path
 d="m 348.7292785644531,255.9116058349609 a 66.29833984375,66.29833984375 0 0 1 -66.29833984375,66.29833984375 l 0,-66.29833984375 z"
 transform="matrix(-1.509157088646527e-16,-2.375625096664431,-2.375625096664431,1.509157088646527e-16,967.9500333492286,1205.812206099396)"
 id="path2959"
 style="fill:#ff0080;fill-opacity:1;stroke:none" />
<path
 d="m 348.7292785644531,255.9116058349609 a 66.29833984375,66.29833984375 0 0 1 -66.29833984375,66.29833984375 l 0,-66.29833984375 z"
 transform="matrix(1.509157088646527e-16,-2.375625096664431,2.375625096664431,1.509157088646527e-16,-247.950033349229,1205.812206099396)"
 id="path2961"
 style="fill:#ff0000;fill-opacity:1;stroke:none" />
<path
 d="m 348.7292785644531,255.9116058349609 a 66.29833984375,66.29833984375 0 0 1 -66.29833984375,66.29833984375 l 0,-66.29833984375 z"
 transform="matrix(-1.509157088646527e-16,2.375625096664431,-2.375625096664431,-1.509157088646527e-16,1125.450033349229,-136.0878460993968)"
 id="path2963"
 style="fill:#ff8000;fill-opacity:1;stroke:none" />
<path
 d="m 348.7292785644531,255.9116058349609 a 66.29833984375,66.29833984375 0 0 1 -66.29833984375,66.29833984375 l 0,-66.29833984375 z"
 transform="matrix(1.509157088646527e-16,-2.375625096664431,2.375625096664431,1.509157088646527e-16,-90.4500333492287,1363.312206099396)"
 id="path2965"
 style="fill:#ffff00;fill-opacity:1;stroke:none" />
<path
 d="m 348.7292785644531,255.9116058349609 a 66.29833984375,66.29833984375 0 0 1 -66.29833984375,66.29833984375 l 0,-66.29833984375 z"
 transform="matrix(2.375625096664431,0,0,2.375625096664431,-153.4500260993965,84.41214665077109)"
 id="path2967"
 style="fill:#80ff00;fill-opacity:1;stroke:none" />
<path
 d="m 348.7292785644531,255.9116058349609 a 66.29833984375,66.29833984375 0 0 1 -66.29833984375,66.29833984375 l 0,-66.29833984375 z"
 transform="matrix(-1.509157088646527e-16,-2.375625096664431,-2.375625096664431,1.509157088646527e-16,1125.450033349229,1520.812206099396)"
 id="path2969"
 style="fill:#00ff00;fill-opacity:1;stroke:none" />
<path
 d="m 348.7292785644531,255.9116058349609 a 66.29833984375,66.29833984375 0 0 1 -66.29833984375,66.29833984375 l 0,-66.29833984375 z"
 transform="matrix(2.375625096664431,0,0,2.375625096664431,-310.9500260993965,241.9121466507713)"
 id="path2971"
 style="fill:#00ff80;fill-opacity:1;stroke:none" />
<path
 d="m 348.7292785644531,255.9116058349609 a 66.29833984375,66.29833984375 0 0 1 -66.29833984375,66.29833984375 l 0,-66.29833984375 z"
 transform="matrix(-1.509157088646527e-16,2.375625096664431,-2.375625096664431,-1.509157088646527e-16,967.9500333492286,178.9121539006038)"
 id="path2973"
 style="fill:#00ffff;fill-opacity:1;stroke:none" />
<path
 d="m 348.7292785644531,255.9116058349609 a 66.29833984375,66.29833984375 0 0 1 -66.29833984375,66.29833984375 l 0,-66.29833984375 z"
 transform="matrix(1.509157088646527e-16,-2.375625096664431,2.375625096664431,1.509157088646527e-16,-405.450033349229,1520.812206099396)"
 id="path2975"
 style="fill:#0080ff;fill-opacity:1;stroke:none" />
<path
 d="m 348.7292785644531,255.9116058349609 a 66.29833984375,66.29833984375 0 0 1 -66.29833984375,66.29833984375 l 0,-66.29833984375 z"
 transform="matrix(-1.509157088646527e-16,2.375625096664431,-2.375625096664431,-1.509157088646527e-16,810.4500333492286,21.41215390060301)"
 id="path2977"
 style="fill:#0000ff;fill-opacity:1;stroke:none" />
</g>
</svg>
