<svg width="160" xmlns="http://www.w3.org/2000/svg" height="160" viewBox="0 0 128 128">
<g fill="#003b72">
<path d="m40.89,25.28c11.2-3 23.38-5.68 34.68-1.66 6.73,2.2 12.41,8.08 13.08,15.31 1.09,7.25-2.79,14.02-7.58,19.13-5.25,5.82-11.8,12.02-11.33,20.57-4.57,.03-9.14-.08-13.71,.07-.09-5.69 1.23-11.48 4.35-16.3 2.63-4.25 6.37-7.63 9.42-11.55 3.34-4.21 3.78-11.38-.89-14.81-8.34-5.34-18.52-1.67-26.86,1.7-.32-4.16-.8-8.31-1.16-12.46Z"/>
<path d="m54.98,85.85c5.25-.01 10.51-.02 15.77,.01 0,5.26 .01,10.53-.01,15.8-5.25,0-10.5,0-15.76,0-.02-5.27-.01-10.54 0-15.81Z"/>
</g>
</svg>
