<svg width="210" xmlns="http://www.w3.org/2000/svg" height="210" viewBox="0 0 168 168">
<g stroke="#000">
<g stroke-opacity=".992" stroke-linejoin="round" stroke-width="2">
<path fill="none" fill-opacity=".992" d="m155.6364,80a71.2727,34.9091 0 1,1 -142.5455,0 71.2727,34.9091 0 1,1 142.5455,0z"/>
<path d="m111.6364,80.7273a21.8182,25.0909 0 1,1 -43.6364,0 21.8182,25.0909 0 1,1 43.6364,0z" transform="translate(-6.54545)"/>
</g>
<g fill="none" fill-rule="evenodd">
<path d="m24.3636,51.2727l-8.7273-12.3636 8.7273,12.3636z"/>
<path d="m38.5455,45.8182l-6.1818-13.4545 6.1818,13.4545z"/>
<path d="m51.6364,41.4545l-4.3636-13.0909 4.3636,13.0909z"/>
<path d="m63.2727,39.2727l-2.5455-12.7273 2.5455,12.7273z"/>
<path d="m74.1818,37.8182l-.7273-12 .7273,12z"/>
<path d="m83.6364,37.8182l-.3636-11.2727 .3636,11.2727z"/>
<path d="m142,51.2727l8.7273-12.3636-8.7273,12.3636z"/>
<path d="m127.8182,45.8182l6.1818-13.4545-6.1818,13.4545z"/>
<path d="m114.7273,41.4545l4.3636-13.0909-4.3636,13.0909z"/>
<path d="m103.0909,39.2727l2.5455-12.7273-2.5455,12.7273z"/>
<path d="m92.1818,37.8182l.7273-12-.7273,12z"/>
<path d="m25.5455,107.6364l-8.7273,12.3636 8.7273-12.3636z"/>
<path d="m39.7273,113.0909l-6.1818,13.4545 6.1818-13.4545z"/>
<path d="m52.8182,117.4545l-4.3636,13.0909 4.3636-13.0909z"/>
<path d="m64.4545,119.6364l-2.5455,12.7273 2.5455-12.7273z"/>
<path d="m75.3636,121.0909l-.7273,12 .7273-12z"/>
<path d="m84.8182,121.0909l-.3636,11.2727 .3636-11.2727z"/>
<path d="m143.1818,107.6364l8.7273,12.3636-8.7273-12.3636z"/>
<path d="m129,113.0909l6.1818,13.4545-6.1818-13.4545z"/>
<path d="m115.9091,117.4545l4.3636,13.0909-4.3636-13.0909z"/>
<path d="m104.2727,119.6364l2.5455,12.7273-2.5455-12.7273z"/>
<path d="m93.3636,121.0909l.7273,12-.7273-12z"/>
</g>
</g>
<g stroke-opacity=".992" fill="#00006f" stroke="#00006f" stroke-linejoin="round">
<path stroke-width="1.964" d="m128.982,7.3818h9.236v58.8364h-9.236z"/>
<path stroke-width="1.987" d="m31.9392-163.006h9.4671v58.812h-9.4671z" transform="rotate(90)"/>
</g>
</svg>
