<svg width="32" xmlns="http://www.w3.org/2000/svg" height="32" viewBox="0 0 32 32" xmlns:xlink="http://www.w3.org/1999/xlink" enable-background="new 0 0 32 32">
<g fill="#797999">
<path d="m9.962,2.2h.975c-.12,2.734 .009,5.512-.551,8.203-2.691,.534-5.46,.448-8.186,.56v-1.001c2.587,0 5.175,0 7.762,0 0-2.587 0-5.175 0-7.762z"/>
<path d="m21.098,2.2h.939c0,2.587 0,5.175 0,7.762 2.588,0 5.176,0 7.764,0v.958c-2.744,.009-5.494-.061-8.203-.526-.475-2.7-.526-5.452-.5-8.194z"/>
<path d="m2.2,21.045c2.725,.121 5.485-.017 8.176,.537 .509,2.707 .518,5.476 .578,8.219h-.992c0-2.587 0-5.175 0-7.764-2.587,0-5.175,0-7.762,0v-.992z"/>
</g>
<path fill="#3d3d6c" d="m10.937,2.2h10.161c-.025,2.743 .025,5.494 .5,8.194 2.709,.466 5.459,.535 8.203,.526v10.472c-2.641-.086-5.615-.838-8.057,.361-.977,2.536-.525,5.382-.672,8.048h-10.118c-.061-2.743-.069-5.512-.578-8.219-2.691-.554-5.451-.416-8.176-.537v-10.082c2.725-.112 5.494-.026 8.186-.56 .559-2.692 .43-5.469 .551-8.203m1.078,1.518c.017,2.622 .189,5.27-.328,7.857-2.88,.06-5.77,.078-8.607,.613l.949,.319c-.086,1.923-.13,3.847-.13,5.778-.172,.501-.518,1.519-.69,2.019 3.071-.025 6.15,.164 9.169,.716l-.509,1.122c-.009,1.861 .008,3.724 .026,5.589l-.199,.673c2.881-.009 5.753-.009 8.625,0l-.137-.604c.104-2.001 .232-4.002 .336-6.002l-.742-.829c2.984-.517 6.014-.612 9.031-.664-.18-.526-.561-1.56-.742-2.079 .078-1.923 .096-3.846 .086-5.77l.828-.302c-2.838-.509-5.727-.5-8.6-.526-.508-2.458-.336-4.977-.215-7.469l-.053,.017c-2.639-.414-5.312-.431-7.977-.319l-.121-.139z"/>
<path fill="#0071d6" d="m12.015,3.718l.121,.138c.414,.492 1.242,1.475 1.656,1.967 2.113-.535 4.218-1.078 6.321-1.647l.053-.017c-.121,2.492-.293,5.011 .215,7.469 .088,.388 .27,1.173 .355,1.561 2.502,.405 5.08,.328 7.416-.733 .01,1.923-.008,3.847-.086,5.77-3.25-.412-6.469,.328-9.531,1.355 .311,.345 .932,1.041 1.242,1.388l.742,.829c-.104,2-.232,4.001-.336,6.002-.086-.371-.25-1.121-.336-1.5-.26-1.165-.52-2.338-.76-3.503-1.916-.077-3.821-.146-5.727-.224-.345,1.234-.69,2.476-1.044,3.71-.104,.361-.319,1.085-.422,1.448-.018-1.865-.035-3.728-.026-5.589l.509-1.122c.172-.38 .509-1.155 .681-1.535-2.872-1.311-6.046-1.646-9.16-1.199 0-1.932 .043-3.855 .13-5.778 2.303,.975 4.821,1.078 7.28,.699 .094-.405 .284-1.225 .379-1.63 .518-2.59 .345-5.237 .328-7.859z"/>
<path fill="#76b1e3" d="m12.136,3.855c2.665-.112 5.338-.095 7.977,.319-2.104,.569-4.208,1.113-6.321,1.647-.414-.49-1.242-1.474-1.656-1.966z"/>
<path fill="#80b9e6" d="m3.08,12.188c2.837-.535 5.727-.553 8.607-.613-.095,.405-.285,1.225-.379,1.63-2.458,.379-4.977,.276-7.28-.699l-.948-.318z"/>
<path fill="#7fb7e5" d="m20.381,11.627c2.873,.026 5.762,.017 8.6,.526l-.828,.302c-2.336,1.061-4.914,1.138-7.416,.733-.087-.388-.268-1.173-.356-1.561z"/>
<path fill="#57a8e5" d="m3.898,18.285c3.114-.447 6.288-.111 9.16,1.199-.172,.38-.509,1.155-.681,1.535-3.019-.552-6.098-.741-9.169-.716 .173-.499 .518-1.517 .69-2.018z"/>
<path fill="#57a5e2" d="m18.535,19.58c3.063-1.027 6.281-1.768 9.531-1.355 .182,.52 .563,1.553 .742,2.079-3.018,.052-6.047,.147-9.031,.664-.31-.347-.931-1.043-1.242-1.388z"/>
<path opacity=".95" fill="#767693" d="m21.744,21.753c2.441-1.199 5.416-.447 8.057-.361v.646c-2.588,0-5.176,0-7.764,0 0,2.589 0,5.177 0,7.764h-.965c.147-2.667-.304-5.513 .672-8.049z"/>
<path fill="#209af3" d="m12.317,26.282c.354-1.234 .699-2.476 1.044-3.71 1.906,.077 3.811,.146 5.727,.224 .24,1.165 .5,2.338 .76,3.503-2.512,.009-5.021-.01-7.531-.017z"/>
<path fill="#5bb1f3" d="m12.317,26.282c2.51,.007 5.019,.025 7.531,.017 .086,.379 .25,1.129 .336,1.5l.137,.604c-2.871-.009-5.744-.009-8.625,0l.199-.673c.103-.363 .318-1.086 .422-1.448z"/>
</svg>
