<?xml version="1.0" encoding="utf-8"?>
<!-- Generator: Adobe Illustrator 15.1.0, SVG Export Plug-In . SVG Version: 6.00 Build 0)  -->
<!DOCTYPE svg PUBLIC "-//W3C//DTD SVG 1.1//EN" "http://www.w3.org/Graphics/SVG/1.1/DTD/svg11.dtd">
<svg version="1.1" id="svg2" xmlns:svg="http://www.w3.org/2000/svg"
	 xmlns="http://www.w3.org/2000/svg" xmlns:xlink="http://www.w3.org/1999/xlink" x="0px" y="0px" width="32px" height="32px"
	 viewBox="0 0 32 32" enable-background="new 0 0 32 32" xml:space="preserve">
<g id="_x23_797999ff">
	<path id="path5" fill="#797999" d="M9.962,2.2h0.975c-0.12,2.734,0.009,5.512-0.551,8.203c-2.691,0.534-5.46,0.448-8.186,0.56
		V9.962c2.587,0,5.175,0,7.762,0C9.962,7.375,9.962,4.787,9.962,2.2z"/>
	<path id="path7" fill="#797999" d="M21.098,2.2h0.939c0,2.587,0,5.175,0,7.762c2.588,0,5.176,0,7.764,0v0.958
		c-2.744,0.009-5.494-0.061-8.203-0.526C21.123,7.694,21.072,4.942,21.098,2.2z"/>
	<path id="path9" fill="#797999" d="M2.2,21.045c2.725,0.121,5.485-0.017,8.176,0.537c0.509,2.707,0.518,5.476,0.578,8.219H9.962
		c0-2.587,0-5.175,0-7.764c-2.587,0-5.175,0-7.762,0V21.045z"/>
</g>
<g id="_x23_3d3d6cff">
	<path id="path12" fill="#3D3D6C" d="M10.937,2.2h10.161c-0.025,2.743,0.025,5.494,0.5,8.194c2.709,0.466,5.459,0.535,8.203,0.526
		v10.472c-2.641-0.086-5.615-0.838-8.057,0.361c-0.977,2.536-0.525,5.382-0.672,8.048H10.954c-0.061-2.743-0.069-5.512-0.578-8.219
		c-2.691-0.554-5.451-0.416-8.176-0.537V10.963c2.725-0.112,5.494-0.026,8.186-0.56C10.945,7.711,10.816,4.934,10.937,2.2
		 M12.015,3.718c0.017,2.622,0.189,5.27-0.328,7.857c-2.88,0.06-5.77,0.078-8.607,0.613l0.949,0.319
		c-0.086,1.923-0.13,3.847-0.13,5.778c-0.172,0.501-0.518,1.519-0.69,2.019c3.071-0.025,6.15,0.164,9.169,0.716l-0.509,1.122
		c-0.009,1.861,0.008,3.724,0.026,5.589l-0.199,0.673c2.881-0.009,5.753-0.009,8.625,0l-0.137-0.604
		c0.104-2.001,0.232-4.002,0.336-6.002l-0.742-0.829c2.984-0.517,6.014-0.612,9.031-0.664c-0.18-0.526-0.561-1.56-0.742-2.079
		c0.078-1.923,0.096-3.846,0.086-5.77l0.828-0.302c-2.838-0.509-5.727-0.5-8.6-0.526c-0.508-2.458-0.336-4.977-0.215-7.469
		l-0.053,0.017c-2.639-0.414-5.312-0.431-7.977-0.319L12.015,3.718z"/>
</g>
<g id="_x23_0071d6ff">
	<path id="path15" fill="#0071D6" d="M12.015,3.718l0.121,0.138c0.414,0.492,1.242,1.475,1.656,1.967
		c2.113-0.535,4.218-1.078,6.321-1.647l0.053-0.017c-0.121,2.492-0.293,5.011,0.215,7.469c0.088,0.388,0.27,1.173,0.355,1.561
		c2.502,0.405,5.08,0.328,7.416-0.733c0.01,1.923-0.008,3.847-0.086,5.77c-3.25-0.412-6.469,0.328-9.531,1.355
		c0.311,0.345,0.932,1.041,1.242,1.388l0.742,0.829c-0.104,2-0.232,4.001-0.336,6.002c-0.086-0.371-0.25-1.121-0.336-1.5
		c-0.26-1.165-0.52-2.338-0.76-3.503c-1.916-0.077-3.821-0.146-5.727-0.224c-0.345,1.234-0.69,2.476-1.044,3.71
		c-0.104,0.361-0.319,1.085-0.422,1.448c-0.018-1.865-0.035-3.728-0.026-5.589l0.509-1.122c0.172-0.38,0.509-1.155,0.681-1.535
		c-2.872-1.311-6.046-1.646-9.16-1.199c0-1.932,0.043-3.855,0.13-5.778c2.303,0.975,4.821,1.078,7.28,0.699
		c0.094-0.405,0.284-1.225,0.379-1.63C12.205,8.987,12.032,6.34,12.015,3.718z"/>
</g>
<g id="_x23_76b1e3ff">
	<path id="path18" fill="#76B1E3" d="M12.136,3.855c2.665-0.112,5.338-0.095,7.977,0.319c-2.104,0.569-4.208,1.113-6.321,1.647
		C13.378,5.331,12.55,4.347,12.136,3.855z"/>
</g>
<g id="_x23_80b9e6ff">
	<path id="path21" fill="#80B9E6" d="M3.08,12.188c2.837-0.535,5.727-0.553,8.607-0.613c-0.095,0.405-0.285,1.225-0.379,1.63
		c-2.458,0.379-4.977,0.276-7.28-0.699L3.08,12.188z"/>
</g>
<g id="_x23_7fb7e5ff">
	<path id="path24" fill="#7FB7E5" d="M20.381,11.627c2.873,0.026,5.762,0.017,8.6,0.526l-0.828,0.302
		c-2.336,1.061-4.914,1.138-7.416,0.733C20.65,12.8,20.469,12.015,20.381,11.627z"/>
</g>
<g id="_x23_57a8e5ff">
	<path id="path27" fill="#57A8E5" d="M3.898,18.285c3.114-0.447,6.288-0.111,9.16,1.199c-0.172,0.38-0.509,1.155-0.681,1.535
		c-3.019-0.552-6.098-0.741-9.169-0.716C3.381,19.804,3.726,18.786,3.898,18.285z"/>
</g>
<g id="_x23_57a5e2ff">
	<path id="path30" fill="#57A5E2" d="M18.535,19.58c3.063-1.027,6.281-1.768,9.531-1.355c0.182,0.52,0.563,1.553,0.742,2.079
		c-3.018,0.052-6.047,0.147-9.031,0.664C19.467,20.621,18.846,19.925,18.535,19.58z"/>
</g>
<g id="_x23_767693f2">
	<path id="path33" opacity="0.95" fill="#767693" enable-background="new    " d="M21.744,21.753
		c2.441-1.199,5.416-0.447,8.057-0.361v0.646c-2.588,0-5.176,0-7.764,0c0,2.589,0,5.177,0,7.764h-0.965
		C21.219,27.135,20.768,24.289,21.744,21.753z"/>
</g>
<g id="_x23_209af3ff">
	<path id="path36" fill="#209AF3" d="M12.317,26.282c0.354-1.234,0.699-2.476,1.044-3.71c1.906,0.077,3.811,0.146,5.727,0.224
		c0.24,1.165,0.5,2.338,0.76,3.503C17.336,26.308,14.827,26.289,12.317,26.282z"/>
</g>
<g id="_x23_5bb1f3ff">
	<path id="path39" fill="#5BB1F3" d="M12.317,26.282c2.51,0.007,5.019,0.025,7.531,0.017c0.086,0.379,0.25,1.129,0.336,1.5
		l0.137,0.604c-2.871-0.009-5.744-0.009-8.625,0l0.199-0.673C11.998,27.367,12.213,26.644,12.317,26.282z"/>
</g>
</svg>
