<?xml version="1.0" encoding="UTF-8" standalone="no"?>
<!-- Created with Inkscape (http://www.inkscape.org/) -->
<svg
   xmlns:svg="http://www.w3.org/2000/svg"
   xmlns="http://www.w3.org/2000/svg"
   version="1.0"
   width="32pt"
   height="32pt"
   viewBox="0 0 32 32"
   id="svg2">
  <defs
     id="defs42" />
  <g
     id="#797999ff">
    <path
       d="M 9,0 L 10.13,0 C 9.99,3.17 10.14,6.39 9.49,9.51 C 6.37,10.13 3.16,10.03 0,10.16 L 0,9 C 3,9 6,9 9,9 C 9,6 9,3 9,0 z"
       id="path5"
       style="opacity:1;fill:#797999" />
    <path
       d="M 21.91,0 L 23,0 C 23,3 23,6 23,9 C 26,9 29,9 32,9 L 32,10.11 C 28.82,10.12 25.63,10.04 22.49,9.5 C 21.94,6.37 21.88,3.18 21.91,0 z"
       id="path7"
       style="opacity:1;fill:#797999" />
    <path
       d="M 0,21.85 C 3.16,21.99 6.36,21.83 9.48,22.47 C 10.07,25.61 10.08,28.82 10.15,32 L 9,32 C 9,29 9,26 9,23 C 6,23 3,23 0,23 L 0,21.85 z"
       id="path9"
       style="opacity:1;fill:#797999" />
  </g>
  <g
     id="#3d3d6cff">
    <path
       d="M 10.13,0 L 21.91,0 C 21.88,3.18 21.94,6.37 22.49,9.5 C 25.63,10.04 28.82,10.12 32,10.11 L 32,22.25 C 28.94,22.15 25.49,21.28 22.66,22.67 C 21.53,25.61 22.05,28.91 21.88,32 L 10.15,32 C 10.08,28.82 10.07,25.61 9.48,22.47 C 6.36,21.83 3.16,21.99 0,21.85 L 0,10.16 C 3.16,10.03 6.37,10.13 9.49,9.51 C 10.14,6.39 9.99,3.17 10.13,0 M 11.38,1.76 C 11.4,4.8 11.6,7.87 11,10.87 C 7.66,10.94 4.31,10.96 1.02,11.58 L 2.12,11.95 C 2.02,14.18 1.97,16.41 1.97,18.65 C 1.77,19.23 1.37,20.41 1.17,20.99 C 4.73,20.96 8.3,21.18 11.8,21.82 L 11.21,23.12 C 11.2,25.28 11.22,27.44 11.24,29.6 L 11.01,30.38 C 14.35,30.37 17.68,30.37 21.01,30.38 L 20.85,29.68 C 20.97,27.36 21.12,25.04 21.24,22.72 L 20.38,21.76 C 23.84,21.16 27.35,21.05 30.85,20.99 C 30.64,20.38 30.2,19.18 29.99,18.58 C 30.08,16.35 30.1,14.12 30.09,11.89 L 31.05,11.54 C 27.76,10.95 24.41,10.96 21.08,10.93 C 20.49,8.08 20.69,5.16 20.83,2.27 L 20.77,2.29 C 17.71,1.81 14.61,1.79 11.52,1.92 L 11.38,1.76 z"
       id="path12"
       style="opacity:1;fill:#3d3d6c" />
  </g>
  <g
     id="#0071d6ff">
    <path
       d="M 11.38,1.76 L 11.52,1.92 C 12,2.49 12.96,3.63 13.44,4.2 C 15.89,3.58 18.33,2.95 20.77,2.29 L 20.83,2.27 C 20.69,5.16 20.49,8.08 21.08,10.93 C 21.18,11.38 21.39,12.29 21.49,12.74 C 24.39,13.21 27.38,13.12 30.09,11.89 C 30.1,14.12 30.08,16.35 29.99,18.58 C 26.22,18.1 22.49,18.96 18.94,20.15 C 19.3,20.55 20.02,21.36 20.38,21.76 L 21.24,22.72 C 21.12,25.04 20.97,27.36 20.85,29.68 C 20.75,29.25 20.56,28.38 20.46,27.94 C 20.16,26.59 19.86,25.23 19.58,23.88 C 17.36,23.79 15.15,23.71 12.94,23.62 C 12.54,25.05 12.14,26.49 11.73,27.92 C 11.61,28.34 11.36,29.18 11.24,29.6 C 11.22,27.44 11.2,25.28 11.21,23.12 L 11.8,21.82 C 12,21.38 12.39,20.48 12.59,20.04 C 9.26,18.52 5.58,18.13 1.97,18.65 C 1.97,16.41 2.02,14.18 2.12,11.95 C 4.79,13.08 7.71,13.2 10.56,12.76 C 10.67,12.29 10.89,11.34 11,10.87 C 11.6,7.87 11.4,4.8 11.38,1.76 z"
       id="path15"
       style="opacity:1;fill:#0071d6" />
  </g>
  <g
     id="#76b1e3ff">
    <path
       d="M 11.52,1.92 C 14.61,1.79 17.71,1.81 20.77,2.29 C 18.33,2.95 15.89,3.58 13.44,4.2 C 12.96,3.63 12,2.49 11.52,1.92 z"
       id="path18"
       style="opacity:1;fill:#76b1e3" />
  </g>
  <g
     id="#80b9e6ff">
    <path
       d="M 1.02,11.58 C 4.31,10.96 7.66,10.94 11,10.87 C 10.89,11.34 10.67,12.29 10.56,12.76 C 7.71,13.2 4.79,13.08 2.12,11.95 L 1.02,11.58 z"
       id="path21"
       style="opacity:1;fill:#80b9e6" />
  </g>
  <g
     id="#7fb7e5ff">
    <path
       d="M 21.08,10.93 C 24.41,10.96 27.76,10.95 31.05,11.54 L 30.09,11.89 C 27.38,13.12 24.39,13.21 21.49,12.74 C 21.39,12.29 21.18,11.38 21.08,10.93 z"
       id="path24"
       style="opacity:1;fill:#7fb7e5" />
  </g>
  <g
     id="#57a8e5ff">
    <path
       d="M 1.97,18.65 C 5.58,18.13 9.26,18.52 12.59,20.04 C 12.39,20.48 12,21.38 11.8,21.82 C 8.3,21.18 4.73,20.96 1.17,20.99 C 1.37,20.41 1.77,19.23 1.97,18.65 z"
       id="path27"
       style="opacity:1;fill:#57a8e5" />
  </g>
  <g
     id="#57a5e2ff">
    <path
       d="M 18.94,20.15 C 22.49,18.96 26.22,18.1 29.99,18.58 C 30.2,19.18 30.64,20.38 30.85,20.99 C 27.35,21.05 23.84,21.16 20.38,21.76 C 20.02,21.36 19.3,20.55 18.94,20.15 z"
       id="path30"
       style="opacity:1;fill:#57a5e2" />
  </g>
  <g
     id="#767693f2">
    <path
       d="M 22.66,22.67 C 25.49,21.28 28.94,22.15 32,22.25 L 32,23 C 29,23 26,23 23,23 C 23,26 23,29 23,32 L 21.88,32 C 22.05,28.91 21.53,25.61 22.66,22.67 z"
       id="path33"
       style="opacity:0.95;fill:#767693" />
  </g>
  <g
     id="#209af3ff">
    <path
       d="M 11.73,27.92 C 12.14,26.49 12.54,25.05 12.94,23.62 C 15.15,23.71 17.36,23.79 19.58,23.88 C 19.86,25.23 20.16,26.59 20.46,27.94 C 17.55,27.95 14.64,27.93 11.73,27.92 z"
       id="path36"
       style="opacity:1;fill:#209af3" />
  </g>
  <g
     id="#5bb1f3ff">
    <path
       d="M 11.73,27.92 C 14.64,27.93 17.55,27.95 20.46,27.94 C 20.56,28.38 20.75,29.25 20.85,29.68 L 21.01,30.38 C 17.68,30.37 14.35,30.37 11.01,30.38 L 11.24,29.6 C 11.36,29.18 11.61,28.34 11.73,27.92 z"
       id="path39"
       style="opacity:1;fill:#5bb1f3" />
  </g>
</svg>
