<svg width="40" xmlns="http://www.w3.org/2000/svg" height="40" viewBox="0 0 32 32" xmlns:xlink="http://www.w3.org/1999/xlink">
<defs>
<filter id="filter3236">
<feGaussianBlur stdDeviation=".28694"/>
</filter>
</defs>
<g fill="#000080" stroke="#000080">
<path stroke-width="1.143" d="m20.3025,23.8586h9.9941v1.6785h-9.9941z"/>
<path stroke-width="1.079" d="m24.2945,20.6705h2.1114v8.3318h-2.1114z"/>
</g>
<g transform="matrix(.855 0 0 .855 .03563 -.5099)">
<g filter="url(#filter3236)" stroke="#8c8c8c">
<g fill-rule="evenodd">
<path fill="none" stroke-linejoin="bevel" stroke-width="2.327" d="m8.5148,9.0358h13.1501a3.3674,3.3674 0 0,1 3.3674,3.3674v6.1576a3.3674,3.3674 0 0,1 -3.3674,3.3674h-13.1501a3.3674,3.3674 0 0,1 -3.3674-3.3674v-6.1576a3.3674,3.3674 0 0,1 3.3674-3.3674"/>
<path fill="#8c8c8c" stroke-linejoin="round" stroke-width="1.045" d="m24.6451,14.0643c6.9497-5.5211 7.0005-5.5727 7.0005-5.5727l.1015,14.2414-7.0512-5.3663-.0507-3.3024z"/>
</g>
<path fill="none" stroke-width="1.664" d="m18.7734,.8945h.2858a2.7018,2.7018 0 0,1 2.7017,2.7018 2.7018,2.7018 0 0,1 -2.7017,2.7018h-.2858a2.7018,2.7018 0 0,1 -2.7018-2.7018 2.7018,2.7018 0 0,1 2.7018-2.7018" transform="matrix(.71388 .70027 -.76182 .64779 0 0)"/>
<g fill-rule="evenodd" stroke-linejoin="round">
<path fill="none" stroke-linecap="round" stroke-width="2.262" d="m8.7305,27.8453l6.4938-5.908 6.7959,6.3457-.1007-.0875"/>
<path fill="#8c8c8c" stroke-width="1.045" d="m7.2454,8.2852l-5.6815-.6192 5.6308-5.7275 .1522,3.1476 2.6886,2.8896-3.0944,.3096-.1015,.2064"/>
</g>
<path fill="none" stroke-width="1.664" d="m24.2491-5.0979h.2858a2.7018,2.7018 0 0,1 2.7017,2.7018 2.7018,2.7018 0 0,1 -2.7017,2.7018h-.2858a2.7018,2.7018 0 0,1 -2.7018-2.7018 2.7018,2.7018 0 0,1 2.7018-2.7018" transform="matrix(.71388 .70027 -.76182 .64779 0 0)"/>
</g>
</g>
<g stroke="#000">
<g fill-rule="evenodd" transform="matrix(.855 0 0 .855 .03563 -.5099)">
<path fill="none" stroke-linejoin="bevel" stroke-width="2.327" d="m7.8994,8.5624h13.15a3.3674,3.3674 0 0,1 3.3675,3.3674v6.1576a3.3674,3.3674 0 0,1 -3.3675,3.3674h-13.15a3.3674,3.3674 0 0,1 -3.3674-3.3674v-6.1576a3.3674,3.3674 0 0,1 3.3674-3.3674"/>
<path stroke-linejoin="round" stroke-width="1.045" d="m24.0296,13.5909c6.9497-5.5211 7.0005-5.5727 7.0005-5.5727l.1015,14.2414-7.0512-5.3663-.0507-3.3024z"/>
</g>
<g transform="matrix(.855 0 0 .855 .03563 -.5099)">
<path fill="none" stroke-width="1.664" d="m18.0109,.9879h.2858a2.7018,2.7018 0 0,1 2.7018,2.7018 2.7018,2.7018 0 0,1 -2.7018,2.7018h-.2858a2.7018,2.7018 0 0,1 -2.7018-2.7018 2.7018,2.7018 0 0,1 2.7018-2.7018" transform="matrix(.71388 .70027 -.76182 .64779 0 0)"/>
</g>
<g fill-rule="evenodd" stroke-linejoin="round" transform="matrix(.855 0 0 .855 .03563 -.5099)">
<path fill="none" stroke-linecap="round" stroke-width="2.262" d="m8.1151,27.3719l6.4938-5.908 6.7959,6.3457-.1007-.0875"/>
<path stroke-width="1.045" d="m6.63,7.8118l-5.6815-.6192 5.6308-5.7275 .1522,3.1476 2.6886,2.8896-3.0944,.3096-.1015,.2064"/>
</g>
<g transform="matrix(.855 0 0 .855 .03563 -.5099)">
<path fill="none" stroke-width="1.664" d="m23.4866-5.0045h.2858a2.7018,2.7018 0 0,1 2.7018,2.7018 2.7018,2.7018 0 0,1 -2.7018,2.7018h-.2858a2.7018,2.7018 0 0,1 -2.7017-2.7018 2.7018,2.7018 0 0,1 2.7017-2.7018" transform="matrix(.71388 .70027 -.76182 .64779 0 0)"/>
</g>
</g>
</svg>
