<svg width="160" xmlns="http://www.w3.org/2000/svg" height="160" viewBox="0 0 128 128">
<path fill="#69db0e" d="m121.41,12.46c1.66-1.56 3.42,.69 2.69,2.41-1.09,11.19-6.64,21.36-12.37,30.81-.98,.61-1.97,1.18-2.99,1.71-.19-.23-.57-.7-.76-.94 4.81-7.85 9.61-16.04 11.59-25.12-7.7,9.25-15.57,18.35-24.26,26.71-.9-.34-1.8-.68-2.7-1.02 10.39-10.79 20.94-21.73 28.8-34.56z"/>
<path fill="#479409" d="m95.31,48.04c8.69-8.36 16.56-17.46 24.26-26.71-1.98,9.08-6.78,17.27-11.59,25.12-3.06,3.92-8.59,3.49-12.67,1.59z"/>
<path fill="#51aa0a" d="m95.31,48.04c4.08,1.9 9.61,2.33 12.67-1.59 .19,.24 .57,.71 .76,.94 1.02-.53 2.01-1.1 2.99-1.71-4.78,8.79-10.57,17.03-16.51,25.05-1.74,.68-3.52,1.3-5.24,2.05 .22-.88 .43-1.76 .63-2.65-6.54-.08-13.09,.22-19.62-.21 .52-.77 1.02-1.55 1.51-2.33-.39-.47-1.16-1.39-1.55-1.86 7.68-5.7 14.77-12.09 21.66-18.71 .9,.34 1.8,.68 2.7,1.02z"/>
<path fill="#4b9c09" d="m12.48,63.89c-.44-1.8-.56-5.84 2.45-4.52 3.16,2.39 5.3,5.9 8.49,8.28 7.86,6.29 18.46,10.04 28.52,7.89 6.97-1.8 13.22-5.64 19.01-9.81 .39,.47 1.16,1.39 1.55,1.86-.49,.78-.99,1.56-1.51,2.33-8.03,5.13-17.01,10.27-26.9,9.42-10.9-.55-20.79-6.4-28.1-14.25 .47,5.74 3.32,10.91 6.78,15.38 1.86,2.42 3.71,4.86 5.75,7.12 .91,.99 1.82,1.96 2.75,2.93-.89,.07-2.67,.2-3.57,.26l-.26,.02c-7.04-7.54-14.39-16.07-14.96-26.91z"/>
<path fill="#5bbc0b" d="m15.99,65.09c7.31,7.85 17.2,13.7 28.1,14.25 9.89,.85 18.87-4.29 26.9-9.42 6.53,.43 13.08,.13 19.62,.21-.2,.89-.41,1.77-.63,2.65-3.19,4.2-6.11,8.65-9.87,12.38 .57-1.46 1.06-2.95 1.54-4.44-4.75-.77-8.64,2.36-11.81,5.44-1.51,1.19-3.19,2.38-5.18,2.45-7.83,.59-15.85,.5-23.42-1.82-6.23-1.89-11.75-6.47-18.47-6.32-3.46-4.47-6.31-9.64-6.78-15.38z"/>
<path fill="#469108" d="m89.98,72.78c1.72-.75 3.5-1.37 5.24-2.05-4.74,6.82-9.87,13.37-14.99,19.92-.96-.24-2.89-.72-3.85-.96 .67-.96 1.38-1.9 2.11-2.82 .53-.58 1.07-1.15 1.62-1.71 3.76-3.73 6.68-8.18 9.87-12.38z"/>
<path fill="#75cb2f" d="m22.77,80.47c6.72-.15 12.24,4.43 18.47,6.32-4.23,.36-8.47,.73-12.72,.8-2.04-2.26-3.89-4.7-5.75-7.12z"/>
<path fill="#70c82a" d="m69.84,86.16c3.17-3.08 7.06-6.21 11.81-5.44-.48,1.49-.97,2.98-1.54,4.44-.55,.56-1.09,1.13-1.62,1.71-2.88-.33-5.77-.52-8.65-.71z"/>
<path fill="#8bd74e" d="m64.66,88.61c1.99-.07 3.67-1.26 5.18-2.45 2.88,.19 5.77,.38 8.65,.71-.73,.92-1.44,1.86-2.11,2.82-1.23,1.77-2.47,3.52-3.81,5.2-1.5-2.84-4.99-2.01-7.62-2.16-9.48,.32-18.98-.27-28.45,.28-.04,.56-.14,1.68-.18,2.23-1.79-1.45-3.46-3.05-5.05-4.72-.93-.97-1.84-1.94-2.75-2.93 4.25-.07 8.49-.44 12.72-.8 7.57,2.32 15.59,2.41 23.42,1.82z"/>
<path fill="#397707" d="m72.57,94.89c1.34-1.68 2.58-3.43 3.81-5.2 .96,.24 2.89,.72 3.85,.96-5.19,6.72-10.61,13.27-15.84,19.97-2.18,3.34-6.23,.76-8.96-.41-10.13-5.04-19.64-11.5-27.73-19.43 .9-.06 2.68-.19 3.57-.26 1.59,1.67 3.26,3.27 5.05,4.72 1.31,1.02 2.66,2 4.04,2.93 1.93,1.29 3.91,2.53 5.93,3.68 4.91,2.73 9.86,5.4 14.98,7.71 2.1-2.68 4.07-5.46 6.15-8.16 1.03-1.32 2.04-2.66 3.09-3.97 .68-.85 1.37-1.69 2.06-2.54z"/>
<path fill="#99de62" d="m36.5,93.01c9.47-.55 18.97,.04 28.45-.28 2.63,.15 6.12-.68 7.62,2.16-.69,.85-1.38,1.69-2.06,2.54-9.93-1.51-20.01,.07-29.96-1.31-.05,.51-.14,1.54-.19,2.05-1.38-.93-2.73-1.91-4.04-2.93 .04-.55 .14-1.67 .18-2.23z"/>
<path fill="#a7e576" d="m40.55,96.12c9.95,1.38 20.03-.2 29.96,1.31-1.05,1.31-2.06,2.65-3.09,3.97-7-.68-14.25-1.44-21.13,.45-2.02-1.15-4-2.39-5.93-3.68 .05-.51 .14-1.54 .19-2.05z"/>
<path fill="#b8ec8f" d="m46.29,101.85c6.88-1.89 14.13-1.13 21.13-.45-2.08,2.7-4.05,5.48-6.15,8.16-5.12-2.31-10.07-4.98-14.98-7.71z"/>
<path opacity=".15" d="m55.43,110.21c2.73,1.17 6.78,3.75 8.96,.41 8.56-.08 17.09,.59 25.62,1.1 6.15,.74 12.45,.92 18.37,2.9 1.28,.35 2.12,1.4 2.86,2.45-2.23,2.08-5.39,2.29-8.24,2.86-17.16,2.85-34.64,2.5-51.98,2.34-5.69,.17-11.34-.75-17-1.19-5.53-.94-11.61-.86-16.45-4.02 1.63-2.27 4.43-3.07 7.05-3.51 7.06-1.16 14.17-2.1 21.34-2.21 3.19,.01 6.36-.4 9.47-1.13m-8.26,5.91c.08,1.95 2.35,1.76 3.75,2.12 10.67,1.15 21.95,2.09 32.24-1.54-3.36-2.11-7.43-2.01-11.23-2.21-3.33-.12-6.65-.85-9.98-.29-4.91,.75-10.14-.24-14.78,1.92z"/>
<path opacity=".27" d="m47.17,116.12c4.64-2.16 9.87-1.17 14.78-1.92 3.33-.56 6.65,.17 9.98,.29 3.8,.2 7.87,.1 11.23,2.21-10.29,3.63-21.57,2.69-32.24,1.54-1.4-.36-3.67-.17-3.75-2.12z"/>
</svg>
