<?xml version="1.0" encoding="UTF-8" standalone="no"?>
<!-- Created with Inkscape (http://www.inkscape.org/) -->
<svg
   xmlns:svg="http://www.w3.org/2000/svg"
   xmlns="http://www.w3.org/2000/svg"
   version="1.0"
   width="128pt"
   height="128pt"
   viewBox="0 0 128 128"
   id="svg2">
  <defs
     id="defs50" />
  <g
     id="#69db0eff">
    <path
       d="M 121.41,12.46 C 123.07,10.9 124.83,13.15 124.1,14.87 C 123.01,26.06 117.46,36.23 111.73,45.68 C 110.75,46.29 109.76,46.86 108.74,47.39 C 108.55,47.16 108.17,46.69 107.98,46.45 C 112.79,38.6 117.59,30.41 119.57,21.33 C 111.87,30.58 104,39.68 95.31,48.04 C 94.41,47.7 93.51,47.36 92.61,47.02 C 103,36.23 113.55,25.29 121.41,12.46 z"
       id="path5"
       style="opacity:1;fill:#69db0e" />
  </g>
  <g
     id="#479409ff">
    <path
       d="M 95.31,48.04 C 104,39.68 111.87,30.58 119.57,21.33 C 117.59,30.41 112.79,38.6 107.98,46.45 C 104.92,50.37 99.39,49.94 95.31,48.04 z"
       id="path8"
       style="opacity:1;fill:#479409" />
  </g>
  <g
     id="#51aa0aff">
    <path
       d="M 95.31,48.04 C 99.39,49.94 104.92,50.37 107.98,46.45 C 108.17,46.69 108.55,47.16 108.74,47.39 C 109.76,46.86 110.75,46.29 111.73,45.68 C 106.95,54.47 101.16,62.71 95.22,70.73 C 93.48,71.41 91.7,72.03 89.98,72.78 C 90.2,71.9 90.41,71.02 90.61,70.13 C 84.07,70.05 77.52,70.35 70.99,69.92 C 71.51,69.15 72.01,68.37 72.5,67.59 C 72.11,67.12 71.34,66.2 70.95,65.73 C 78.63,60.03 85.72,53.64 92.61,47.02 C 93.51,47.36 94.41,47.7 95.31,48.04 z"
       id="path11"
       style="opacity:1;fill:#51aa0a" />
  </g>
  <g
     id="#4b9c09ff">
    <path
       d="M 12.48,63.89 C 12.04,62.09 11.92,58.05 14.93,59.37 C 18.09,61.76 20.23,65.27 23.42,67.65 C 31.28,73.94 41.88,77.69 51.94,75.54 C 58.91,73.74 65.16,69.9 70.95,65.73 C 71.34,66.2 72.11,67.12 72.5,67.59 C 72.01,68.37 71.51,69.15 70.99,69.92 C 62.96,75.05 53.98,80.19 44.09,79.34 C 33.19,78.79 23.3,72.94 15.99,65.09 C 16.46,70.83 19.31,76 22.77,80.47 C 24.63,82.89 26.48,85.33 28.52,87.59 C 29.43,88.58 30.34,89.55 31.27,90.52 C 30.38,90.59 28.6,90.72 27.7,90.78 L 27.44,90.8 C 20.4,83.26 13.05,74.73 12.48,63.89 z"
       id="path14"
       style="opacity:1;fill:#4b9c09" />
  </g>
  <g
     id="#5bbc0bff">
    <path
       d="M 15.99,65.09 C 23.3,72.94 33.19,78.79 44.09,79.34 C 53.98,80.19 62.96,75.05 70.99,69.92 C 77.52,70.35 84.07,70.05 90.61,70.13 C 90.41,71.02 90.2,71.9 89.98,72.78 C 86.79,76.98 83.87,81.43 80.11,85.16 C 80.68,83.7 81.17,82.21 81.65,80.72 C 76.9,79.95 73.01,83.08 69.84,86.16 C 68.33,87.35 66.65,88.54 64.66,88.61 C 56.83,89.2 48.81,89.11 41.24,86.79 C 35.01,84.9 29.49,80.32 22.77,80.47 C 19.31,76 16.46,70.83 15.99,65.09 z"
       id="path17"
       style="opacity:1;fill:#5bbc0b" />
  </g>
  <g
     id="#469108ff">
    <path
       d="M 89.98,72.78 C 91.7,72.03 93.48,71.41 95.22,70.73 C 90.48,77.55 85.35,84.1 80.23,90.65 C 79.27,90.41 77.34,89.93 76.38,89.69 C 77.05,88.73 77.76,87.79 78.49,86.87 C 79.02,86.29 79.56,85.72 80.11,85.16 C 83.87,81.43 86.79,76.98 89.98,72.78 z"
       id="path20"
       style="opacity:1;fill:#469108" />
  </g>
  <g
     id="#75cb2fff">
    <path
       d="M 22.77,80.47 C 29.49,80.32 35.01,84.9 41.24,86.79 C 37.01,87.15 32.77,87.52 28.52,87.59 C 26.48,85.33 24.63,82.89 22.77,80.47 z"
       id="path23"
       style="opacity:1;fill:#75cb2f" />
  </g>
  <g
     id="#70c82aff">
    <path
       d="M 69.84,86.16 C 73.01,83.08 76.9,79.95 81.65,80.72 C 81.17,82.21 80.68,83.7 80.11,85.16 C 79.56,85.72 79.02,86.29 78.49,86.87 C 75.61,86.54 72.72,86.35 69.84,86.16 z"
       id="path26"
       style="opacity:1;fill:#70c82a" />
  </g>
  <g
     id="#8bd74eff">
    <path
       d="M 64.66,88.61 C 66.65,88.54 68.33,87.35 69.84,86.16 C 72.72,86.35 75.61,86.54 78.49,86.87 C 77.76,87.79 77.05,88.73 76.38,89.69 C 75.15,91.46 73.91,93.21 72.57,94.89 C 71.07,92.05 67.58,92.88 64.95,92.73 C 55.47,93.05 45.97,92.46 36.5,93.01 C 36.46,93.57 36.36,94.69 36.32,95.24 C 34.53,93.79 32.86,92.19 31.27,90.52 C 30.34,89.55 29.43,88.58 28.52,87.59 C 32.77,87.52 37.01,87.15 41.24,86.79 C 48.81,89.11 56.83,89.2 64.66,88.61 z"
       id="path29"
       style="opacity:1;fill:#8bd74e" />
  </g>
  <g
     id="#397707ff">
    <path
       d="M 72.57,94.89 C 73.91,93.21 75.15,91.46 76.38,89.69 C 77.34,89.93 79.27,90.41 80.23,90.65 C 75.04,97.37 69.62,103.92 64.39,110.62 C 62.21,113.96 58.16,111.38 55.43,110.21 C 45.3,105.17 35.79,98.71 27.7,90.78 C 28.6,90.72 30.38,90.59 31.27,90.52 C 32.86,92.19 34.53,93.79 36.32,95.24 C 37.63,96.26 38.98,97.24 40.36,98.17 C 42.29,99.46 44.27,100.7 46.29,101.85 C 51.2,104.58 56.15,107.25 61.27,109.56 C 63.37,106.88 65.34,104.1 67.42,101.4 C 68.45,100.08 69.46,98.74 70.51,97.43 C 71.19,96.58 71.88,95.74 72.57,94.89 z"
       id="path32"
       style="opacity:1;fill:#397707" />
  </g>
  <g
     id="#99de62ff">
    <path
       d="M 36.5,93.01 C 45.97,92.46 55.47,93.05 64.95,92.73 C 67.58,92.88 71.07,92.05 72.57,94.89 C 71.88,95.74 71.19,96.58 70.51,97.43 C 60.58,95.92 50.5,97.5 40.55,96.12 C 40.5,96.63 40.41,97.66 40.36,98.17 C 38.98,97.24 37.63,96.26 36.32,95.24 C 36.36,94.69 36.46,93.57 36.5,93.01 z"
       id="path35"
       style="opacity:1;fill:#99de62" />
  </g>
  <g
     id="#a7e576ff">
    <path
       d="M 40.55,96.12 C 50.5,97.5 60.58,95.92 70.51,97.43 C 69.46,98.74 68.45,100.08 67.42,101.4 C 60.42,100.72 53.17,99.96 46.29,101.85 C 44.27,100.7 42.29,99.46 40.36,98.17 C 40.41,97.66 40.5,96.63 40.55,96.12 z"
       id="path38"
       style="opacity:1;fill:#a7e576" />
  </g>
  <g
     id="#b8ec8fff">
    <path
       d="M 46.29,101.85 C 53.17,99.96 60.42,100.72 67.42,101.4 C 65.34,104.1 63.37,106.88 61.27,109.56 C 56.15,107.25 51.2,104.58 46.29,101.85 z"
       id="path41"
       style="opacity:1;fill:#b8ec8f" />
  </g>
  <g
     id="#00000025">
    <path
       d="M 55.43,110.21 C 58.16,111.38 62.21,113.96 64.39,110.62 C 72.95,110.54 81.48,111.21 90.01,111.72 C 96.16,112.46 102.46,112.64 108.38,114.62 C 109.66,114.97 110.5,116.02 111.24,117.07 C 109.01,119.15 105.85,119.36 103,119.93 C 85.84,122.78 68.36,122.43 51.02,122.27 C 45.33,122.44 39.68,121.52 34.02,121.08 C 28.49,120.14 22.41,120.22 17.57,117.06 C 19.2,114.79 22,113.99 24.62,113.55 C 31.68,112.39 38.79,111.45 45.96,111.34 C 49.15,111.35 52.32,110.94 55.43,110.21 M 47.17,116.12 C 47.25,118.07 49.52,117.88 50.92,118.24 C 61.59,119.39 72.87,120.33 83.16,116.7 C 79.8,114.59 75.73,114.69 71.93,114.49 C 68.6,114.37 65.28,113.64 61.95,114.2 C 57.04,114.95 51.81,113.96 47.17,116.12 z"
       id="path44"
       style="opacity:0.15;fill:#000000" />
  </g>
  <g
     id="#00000045">
    <path
       d="M 47.17,116.12 C 51.81,113.96 57.04,114.95 61.95,114.2 C 65.28,113.64 68.6,114.37 71.93,114.49 C 75.73,114.69 79.8,114.59 83.16,116.7 C 72.87,120.33 61.59,119.39 50.92,118.24 C 49.52,117.88 47.25,118.07 47.17,116.12 z"
       id="path47"
       style="opacity:0.27000002;fill:#000000" />
  </g>
</svg>
