<?xml version="1.0" encoding="utf-8"?>
<!-- Generator: Adobe Illustrator 15.1.0, SVG Export Plug-In . SVG Version: 6.00 Build 0)  -->
<!DOCTYPE svg PUBLIC "-//W3C//DTD SVG 1.1//EN" "http://www.w3.org/Graphics/SVG/1.1/DTD/svg11.dtd">
<svg version="1.1" id="svg2" xmlns:svg="http://www.w3.org/2000/svg"
	 xmlns="http://www.w3.org/2000/svg" xmlns:xlink="http://www.w3.org/1999/xlink" x="0px" y="0px" width="32px" height="32px"
	 viewBox="0 0 32 32" enable-background="new 0 0 32 32" xml:space="preserve">
<g id="_x23_6e7fa1ff">
	<path id="path5" fill="#0077CF" d="M8.271,1.939c0.641,0,1.922,0,2.577,0c-0.076,2.727-0.14,4.844-0.252,7.571
		c0.805-0.201,2.375-0.006,3.167-0.208c-1.433,1.433-2.878,2.865-4.323,4.297c-1.433-1.356-2.865-2.701-4.285-4.071
		c0.779-0.025,2.337-0.075,3.116-0.113C8.271,6.929,8.271,4.427,8.271,1.939z"/>
</g>
<g id="_x23_363636ff">
	<radialGradient id="path8_1_" cx="15.9766" cy="15.7021" r="11.9526" gradientUnits="userSpaceOnUse">
		<stop  offset="0" style="stop-color:#585858"/>
		<stop  offset="1" style="stop-color:#000000"/>
	</radialGradient>
	<path id="path8" fill="url(#path8_1_)" d="M12.405,17.4c2.785-3.866,6.087-9.338,11.461-8.788c3.604,3.37,8.882,6.805,7.069,12.642
		c-3.776-1.541-5.451-6.629-9.432-7.269c-3.682,2.026-6.152,5.991-9.293,8.844c-1.467,0-2.946,0-4.413,0
		c-3.335-3.502-8.126-7.06-6.972-12.654c3.14,1.443,4.986,4.515,7.069,7.159C9.395,17.356,10.905,17.378,12.405,17.4z"/>
</g>
<g id="_x23_512525ff">
	<path id="path11" fill="#359A46" d="M17.495,22.077c1.468-1.481,2.948-2.948,4.44-4.402c1.442,1.454,2.886,2.921,4.329,4.391
		c-0.759,0.025-2.278,0.101-3.025,0.126c-0.519,2.747,1.557,7.593-2.519,7.998c-0.037-2.67-0.05-5.327-0.037-7.998
		C19.886,22.166,18.291,22.104,17.495,22.077z"/>
</g>
</svg>
