<svg width="32" xmlns="http://www.w3.org/2000/svg" height="32" viewBox="0 0 32 32" xmlns:xlink="http://www.w3.org/1999/xlink" enable-background="new 0 0 32 32">
<defs>
<radialGradient cx="15.977" cy="15.702" id="path8_1_" r="11.953" gradientUnits="userSpaceOnUse">
<stop offset="0" stop-color="#585858"/>
<stop offset="1"/>
</radialGradient>
</defs>
<path fill="#0077cf" d="m8.271,1.939c.641,0 1.922,0 2.577,0-.076,2.727-.14,4.844-.252,7.571 .805-.201 2.375-.006 3.167-.208-1.433,1.433-2.878,2.865-4.323,4.297-1.433-1.356-2.865-2.701-4.285-4.071 .779-.025 2.337-.075 3.116-.113 0-2.486 0-4.988 0-7.476z"/>
<path fill="url(#path8_1_)" d="m12.405,17.4c2.785-3.866 6.087-9.338 11.461-8.788 3.604,3.37 8.882,6.805 7.069,12.642-3.776-1.541-5.451-6.629-9.432-7.269-3.682,2.026-6.152,5.991-9.293,8.844-1.467,0-2.946,0-4.413,0-3.335-3.502-8.126-7.06-6.972-12.654 3.14,1.443 4.986,4.515 7.069,7.159 1.501,.022 3.011,.044 4.511,.066z"/>
<path fill="#359a46" d="m17.495,22.077c1.468-1.481 2.948-2.948 4.44-4.402 1.442,1.454 2.886,2.921 4.329,4.391-.759,.025-2.278,.101-3.025,.126-.519,2.747 1.557,7.593-2.519,7.998-.037-2.67-.05-5.327-.037-7.998-.797-.026-2.392-.088-3.188-.115z"/>
</svg>
