<?xml version="1.0" encoding="UTF-8" standalone="no"?>
<!-- Created with Inkscape (http://www.inkscape.org/) -->
<svg
   xmlns:svg="http://www.w3.org/2000/svg"
   xmlns="http://www.w3.org/2000/svg"
   version="1.0"
   width="32pt"
   height="32pt"
   viewBox="0 0 32 32"
   id="svg2">
  <defs
     id="defs14" />
  <g
     id="#6e7fa1ff">
    <path
       d="M 9,3 C 9.51,3 10.53,3 11.05,3 C 10.99,5.17 10.92,7.33 10.83,9.5 C 11.47,9.34 12.74,9.02 13.37,8.86 C 12.23,10 11.08,11.14 9.93,12.28 C 8.79,11.2 7.65,10.13 6.52,9.04 C 7.14,9.02 8.38,8.98 9,8.95 C 9,6.97 9,4.98 9,3 z"
       id="path5"
       style="opacity:1;fill:#6e7fa1" />
  </g>
  <g
     id="#363636ff">
    <path
       d="M 12.73,17.04 C 15.31,13.53 18.37,8.56 23.35,9.06 C 26.69,12.12 31.58,15.24 29.9,20.54 C 26.4,19.14 24.85,14.52 21.16,13.94 C 17.75,15.78 15.46,19.38 12.55,21.97 C 11.19,21.97 9.82,21.97 8.46,21.97 C 5.37,18.79 0.93,15.56 2,10.48 C 4.91,11.79 6.62,14.58 8.55,16.98 C 9.94,17 11.34,17.02 12.73,17.04 z"
       id="path8"
       style="opacity:1;fill:#363636" />
  </g>
  <g
     id="#512525ff">
    <path
       d="M 18.48,21.96 C 19.64,20.79 20.81,19.63 21.99,18.48 C 23.13,19.63 24.27,20.79 25.41,21.95 C 24.81,21.97 23.61,22.03 23.02,22.05 C 22.61,24.22 24.25,28.05 21.03,28.37 C 21,26.26 20.99,24.16 21,22.05 C 20.37,22.03 19.11,21.98 18.48,21.96 z"
       id="path11"
       style="opacity:1;fill:#512525" />
  </g>
</svg>
