<svg xmlns="http://www.w3.org/2000/svg" viewBox="0 0 160 160" xmlns:xlink="http://www.w3.org/1999/xlink">
<defs>
<linearGradient gradientTransform="translate(-2.65767 -.20124)" xlink:href="#linearGradient67" id="linearGradient89" y1="1.147" x1="2.696" y2=".623" x2="3.851" gradientUnits="objectBoundingBox"/>
<linearGradient id="linearGradient67">
<stop offset="0" stop-color="#d7ffff" stop-opacity=".898"/>
<stop offset="1" stop-color="#2ea6b9" stop-opacity=".953"/>
</linearGradient>
<linearGradient id="2" y1="119.147" x1="255.848" y2="34.101" x2="375.686" gradientUnits="userSpaceOnUse">
<stop offset="0" stop-color="#fff"/>
<stop offset="1"/>
</linearGradient>
<radialGradient cx="0" cy="0" gradientTransform="matrix(1.6481 -1.64928 .29523 .31132 .00344 .80911)" id="radialGradient1860" r=".694" gradientUnits="objectBoundingBox">
<stop offset="0" stop-color="#fbddc7" stop-opacity=".992"/>
<stop offset="1" stop-color="#efa81a" stop-opacity=".953"/>
</radialGradient>
<radialGradient cx="0" cy="0" gradientTransform="matrix(.94588 0 0 1.05722 .26437 .25)" r=".773" id="radialGradient88" gradientUnits="objectBoundingBox">
<stop offset="0" stop-color="#cdffff"/>
<stop offset="1" stop-color="#0c5d7d" stop-opacity=".906"/>
</radialGradient>
</defs>
<path opacity=".7" stroke-opacity=".992" fill="url(#radialGradient1860)" stroke="#cf5d07" stroke-width="2.423" d="m299.557,233.836c2.432-2.419 .239-9.536-4.215-14.759-3.948-4.704-13.591-6.492-16.344-3.8l-76.016,73.793c-4.53,4.534-.638,13.624 3.201,17.095 4.345,3.991 12.108,6.945 16.005,3.073l77.369-75.402z" transform="matrix(.78705 2.70474 -.76672 2.77648 87.5517 -1327.74)"/>
<g transform="matrix(.76737 0 0 .76737 32.2151 32.9655)">
<path stroke-opacity=".99" fill="url(#radialGradient88)" stroke="#0c5d7d" stroke-width="4.036" d="m35.399,39.1321h241.82l100,98.8519v410.214h-341.82v-509.0659z" transform="matrix(.27875 0 0 .28489 29.8322 1.63322)"/>
<path stroke-opacity=".82" fill="#fff" stroke="#2ea6b9" fill-opacity=".699" stroke-width="8.969" d="m23.9471,20.1241h241.8199l100,99.9999v414.979h-341.8199v-514.9789z" transform="matrix(.27875 0 0 .27875 29.8322 3.74844)"/>
<path fill="url(#2)" d="m276.767,133.124l89-13-100-99.9999" transform="matrix(.27875 0 0 .27875 29.8322 3.74844)"/>
<path stroke-opacity=".91" fill="url(#linearGradient89)" stroke="#2ea6b9" stroke-width="6.726" d="m265.767,120.124h100l-100-99.9999v99.9999" transform="matrix(.27875 0 0 .27875 29.8322 3.74844)"/>
</g>
<path opacity=".7" stroke-opacity=".992" fill="url(#radialGradient1860)" stroke="#cf5d07" stroke-width="3.719" d="m299.557,233.836c2.432-2.419 .239-9.536-4.215-14.759-3.948-4.704-13.591-6.492-16.344-3.8l-76.016,73.793c-4.53,4.534-.638,13.624 3.201,17.095 4.345,3.991 12.108,6.945 16.005,3.073l77.369-75.402z" transform="matrix(.43951 .28915 -.42816 .29681 86.8465 -129.707)"/>
</svg>
