<svg width="40" xmlns="http://www.w3.org/2000/svg" height="40" viewBox="0 0 32 32">
<path fill="#575975" d="m13.7,2.67c1.45-1.86 3.89-1.36 5.91-1.09-1.29,1.38-5.59,3.16-2.7,4.98 2.08,.19 4.17,.02 6.25-.08-.28-1.13-.56-2.26-.83-3.39 2.1,2.17 .85,5.04 1.29,7.67-3.12-.32-6.32-.49-9.29,.73-.32,1.86-.64,3.72-.97,5.58 3.76-.42 7.54-.73 11.22-1.64-.88,.6-1.77,1.18-2.66,1.76 1.71,2.09 3.33,4.26 4.77,6.54-.37-.11-1.13-.32-1.5-.42-1.51-2.4-4.21,.24-2.24,2.04l.39,.57c-2.6,1.99-5-.75-6.42-2.74-2.32,3.32-5.39,6.23-9.27,7.6-3.84,.22-4.2-4.3-5.56-6.87 3.13-1.28 7.08-3.13 7.38-6.98 .25-2.86 1.45-5.46 3.34-7.6-.63-2.21-1.04-4.94 .89-6.66m-7.7,22.43c-.12,1.82 .55,3.36 2.05,4.43 .21-1.29 .39-2.58 .58-3.87-.66-.14-1.98-.42-2.63-.56z"/>
<g fill="#77778a">
<path d="m16.91,6.56c-2.89-1.82 1.41-3.6 2.7-4.98 .68,.37 2.04,1.13 2.72,1.51 .27,1.13 .55,2.26 .83,3.39-2.08,.1-4.17,.27-6.25,.08z"/>
<path d="m14.33,11.49c2.97-1.22 6.17-1.05 9.29-.73l.9,.05c.36,1.06 1.08,3.18 1.44,4.24-.34,.1-1.03,.28-1.38,.38-3.68,.91-7.46,1.22-11.22,1.64 .33-1.86 .65-3.72 .97-5.58z"/>
<path d="m22.95,25.35c-1.97-1.8 .73-4.44 2.24-2.04-.56,.51-1.68,1.53-2.24,2.04z"/>
<path d="m6,25.1c.65,.14 1.97,.42 2.63,.56-.19,1.29-.37,2.58-.58,3.87-1.5-1.07-2.17-2.61-2.05-4.43z"/>
</g>
</svg>
