<svg width="160" xmlns="http://www.w3.org/2000/svg" height="160" viewBox="0 0 128 128">
<path opacity=".59" fill="#661313" d="m40.07,6c13.5-2.3 31.63-.44 46.91-.95l-.01,.96c-15.63-.03-31.26-.01-46.9-.01z"/>
<path opacity=".95" fill="#bd2828" d="m8.12,37.07c11.07-9.85 20.72-21.61 31.95-31.07 15.64,0 31.27-.02 46.9,.01 10.8,10.16 22.21,20.89 32.02,32.07 .06,15.36-.06,30.72 .05,46.08l-.99-.23c-.13-14.07 .05-28.13-.13-42.19-.27-6.75-7.73-10.22-11.85-14.92-6.54-6.05-11.81-13.84-19.43-18.54-15.2-.06-30.93-1.35-45.84,.54-2.31,1.87-3.92,4.43-6.1,6.43-4.17,3.08-6.92,7.51-10.69,10.98-3.05,3.06-5.88,6.35-9.25,9.07-2.11,1.84-4.8,4.28-4.52,7.38-.25,6.61-.25,13.24-.27,19.86-1.24,7.45-1.11,15.02-1.07,22.55-2.1-15.63-.22-31.52-1.07-47.25l.29-.77z"/>
<path fill="#fe7676" d="m40.8,8.82c14.91-1.89 30.64-.6 45.84-.54 7.62,4.7 12.89,12.49 19.43,18.54 4.8,7.15-1.66,14.06-8.29,16.96-4.81,1.75-11.01,9.22-15.8,4.17-.03-4.29-.03-8.57 .01-12.85 6.96,2.69 13.86-5.07 17.63-9.86 .16-4.22-4.86-6.31-7.27-9.34-2.23-2.23-4.27-4.66-6.73-6.64-14.93-.75-29.89,.14-44.82-.44z"/>
<path fill="#fda8a8" d="m34.7,15.25c2.18-2 3.79-4.56 6.1-6.43 14.93,.58 29.89-.31 44.82,.44 2.46,1.98 4.5,4.41 6.73,6.64-3.95,2.95-7.9,6-12.39,8.12-2.5-1.16-5.03-.92-7.13,.91l-.86,.44c-.44-1.4-1.33-4.18-1.77-5.57-.27-.49-.81-1.47-1.08-1.96-2.22-1.2-4.89-.66-7.22-.06l-.88,.26c-.92,.32-1.47,.9-1.64,1.74-.33,2.46-.66,4.92-.98,7.38-.35-.54-1.04-1.62-1.39-2.16-2.01-2.63-5.06-2.09-7.17,.08l-.88-.44c-4.65-3.29-9.65-6.23-14.26-9.39z"/>
<path fill="#fe8888" d="m24.01,26.23c3.77-3.47 6.52-7.9 10.69-10.98 4.61,3.16 9.61,6.1 14.26,9.39-.27,.55-.82,1.65-1.09,2.19-1.16,4.34-.78,8.93-.92,13.39l-.69-.55c-1.66-2.54-4.37-2.91-7.07-1.85-5.52-3.28-9.51-8.56-15.18-11.59z"/>
<path fill="#ff8e8e" d="m92.35,15.9c2.41,3.03 7.43,5.12 7.27,9.34-3.77,4.79-10.67,12.55-17.63,9.86-.27-3.03 .84-6.46-.89-9.17-.19-.31-.56-.92-.75-1.23l-.39-.68c4.49-2.12 8.44-5.17 12.39-8.12z"/>
<path fill="#fdfafa" d="m61.9,17.78c2.33-.6 5-1.14 7.22,.06 .59,12.7-1.55,25.98 .66,38.4 .55,.2 1.65,.59 2.2,.79 2.44-8.83 .44-21.72 .85-32.1 2.1-1.83 4.63-2.07 7.13-.91l.39,.68c-.54,11.03-.25,22.08-.46,33.13-4.36,11.25-20.35,5.08-29.62,5.31-.52-12.68-.06-25.37-.43-38.06 2.11-2.17 5.16-2.71 7.17-.08 .34,10.39-.86,20.89 .74,31.19 .62,1 1.32,2.46 2.52,1.17l.74-.41c2.22-12.21 .58-26.22 .89-39.17z"/>
<path fill="#b1aaaa" d="m59.38,19.78c.17-.84 .72-1.42 1.64-1.74-.07,12.97 .02,25.94-.01,38.91l-.74,.41c-.65-12.52 .36-25.09-.89-37.58z"/>
<path fill="#e8dfdf" d="m61.02,18.04l.88-.26c-.31,12.95 1.33,26.96-.89,39.17 .03-12.97-.06-25.94 .01-38.91z"/>
<path fill="#c1b8b8" d="m69.12,17.84c.27,.49 .81,1.47 1.08,1.96-.39,12.15 .08,24.3-.42,36.44-2.21-12.42-.07-25.7-.66-38.4z"/>
<path fill="#a37777" d="m59.38,19.78c1.25,12.49 .24,25.06 .89,37.58-1.2,1.29-1.9-.17-2.52-1.17 .35-9.67-.06-19.37 .65-29.03 .32-2.46 .65-4.92 .98-7.38z"/>
<path fill="#a77878" d="m70.2,19.8c.44,1.39 1.33,4.17 1.77,5.57 .04,10.55 .05,21.1 .01,31.66-.55-.2-1.65-.59-2.2-.79 .5-12.14 .03-24.29 .42-36.44z"/>
<path fill="#9e9797" d="m47.87,26.83c.27-.54 .82-1.64 1.09-2.19-.84,12.67 1.7,26.21-.89,38.46-.08-12.09 .02-24.18-.2-36.27z"/>
<path fill="#d9cfcf" d="m48.96,24.64l.88,.44c.37,12.69-.09,25.38 .43,38.06-.87,.38-2.82,3.2-3.17,1.35 .25-.35 .73-1.04 .97-1.39 2.59-12.25 .05-25.79 .89-38.46z"/>
<path fill="#dbd5d5" d="m57.01,25c.35,.54 1.04,1.62 1.39,2.16-.71,9.66-.3,19.36-.65,29.03-1.6-10.3-.4-20.8-.74-31.19z"/>
<path fill="#cfc7c7" d="m71.97,25.37l.86-.44c-.41,10.38 1.59,23.27-.85,32.1 .04-10.56 .03-21.11-.01-31.66z"/>
<path fill="#d1cece" d="m80.35,24.7c.19,.31 .56,.92 .75,1.23-.17,14.1 .08,28.2-.39,42.3-.57-3.44-.83-6.92-.82-10.4 .21-11.05-.08-22.1 .46-33.13z"/>
<path fill="#ff6c6c" d="m14.76,35.3c3.37-2.72 6.2-6.01 9.25-9.07 5.67,3.03 9.66,8.31 15.18,11.59l-.44,.75c-.21,.35-.63,1.03-.83,1.37-.58,.86-.96,1.8-1.15,2.81-.58,3.42-.83,6.9-.84,10.37-8.23-4.46-14.81-11.1-21.17-17.82z"/>
<path fill="#a58181" d="m81.1,25.93c1.73,2.71 .62,6.14 .89,9.17-.04,4.28-.04,8.56-.01,12.85 .03,6.75-.14,13.5 .1,20.25 1.09-2.22 2-4.6 3.87-6.3-1.34,2.56-1.42,11.27-5.24,6.33 .47-14.1 .22-28.2 .39-42.3z"/>
<path fill="#965d5d" d="m46.95,40.22c.14-4.46-.24-9.05 .92-13.39 .22,12.09 .12,24.18 .2,36.27-.24,.35-.72,1.04-.97,1.39l-.32-1c.14-7.76 .34-15.52 .17-23.27z"/>
<path fill="#fe6363" d="m106.07,26.82c4.12,4.7 11.58,8.17 11.85,14.92-2.99,6.17-8.68,16.41-16.81,14.5l-.84-.23c-5.82-2.69-11.05,1.54-14.32,5.89-1.87,1.7-2.78,4.08-3.87,6.3-.24-6.75-.07-13.5-.1-20.25 4.79,5.05 10.99-2.42 15.8-4.17 6.63-2.9 13.09-9.81 8.29-16.96z"/>
<path fill="#fe5454" d="m10.24,42.68c-.28-3.1 2.41-5.54 4.52-7.38 6.36,6.72 12.94,13.36 21.17,17.82 .03,6.34 .34,12.7-.03,19.05-10.19-7.91-27.1-13.72-25.66-29.49z"/>
<path opacity=".09" d="m4.32,39.31c.91-1.3 2.03-2.67 3.8-2.24l-.29,.77c-.39,.95-.77,1.9-1.12,2.87-3.85,10.56 1.1,22.31-1.53,33.33-4.68,17.37 11.88,26.3 21.57,37.21 5.04,4.19 8.66,11.19 15.67,12.33 13.8,.8 27.67,.51 41.47,.3 9.54-3.06 15.11-12.3 22.35-18.64 6.03-6.76 15.7-12.26 15.37-22.62 .01-12.86 2.17-26.32-1.36-38.89-.15-1.93-.23-3.88-.31-5.82 2.57-.3 2.74,2.76 3.69,4.46 .86,13.19 .13,26.43 .41,39.64 1.79,9.64-6.77,16.22-12.79,22.24-10.81,9.62-20.21,26.09-37.24,22.77-14.97-1.46-34.16,5.24-44.8-9.23-9.38-12.13-27.71-20.41-27.16-37.79 .79-13.51-2.34-27.63 2.27-40.69z"/>
<path fill="#f6ebeb" d="m39.19,37.82c2.7-1.06 5.41-.69 7.07,1.85 .25,7.87-1.5,16.11 .52,23.82l.32,1c.35,1.85 2.3-.97 3.17-1.35 9.27-.23 25.26,5.94 29.62-5.31-.01,3.48 .25,6.96 .82,10.4 3.82,4.94 3.9-3.77 5.24-6.33 3.27-4.35 8.5-8.58 14.32-5.89-.19,4.25-3.14,7.52-5.12,11.08-3.47,14.34-20.02,11.67-31.15,12.95-8.45-.11-17.17-.47-25.02-3.98-.04-12.5 .19-24.99-.23-37.49l.44-.75z"/>
<path opacity=".77" fill="#471a1a" d="m6.71,40.71c.35-.97 .73-1.92 1.12-2.87 .85,15.73-1.03,31.62 1.07,47.25 .17,.54 .5,1.63 .67,2.17l-.98,.07c-3.93-14.8-.2-31.21-1.88-46.62z"/>
<path opacity=".67" fill="#3f0c0c" d="m118.99,38.08l.95-.17c.08,1.94 .16,3.89 .31,5.82-.97,13.76 1,27.75-1.2,41.37l-.01-.94c-.11-15.36 .01-30.72-.05-46.08z"/>
<path fill="#c7c0c0" d="m37.92,39.94c.2-.34 .62-1.02 .83-1.37 .42,12.5 .19,24.99 .23,37.49 0,3.73-.05,7.47-.21,11.2-1.74-15.7-.29-31.56-.85-47.32z"/>
<path fill="#7e7676" d="m36.77,42.75c.19-1.01 .57-1.95 1.15-2.81 .56,15.76-.89,31.62 .85,47.32 .84,3.91 3.06,7.36 5.01,10.81l-1.08,.21c-2.16-3.27-4.02-6.73-5.42-10.38-.66-15.04 .09-30.11-.51-45.15z"/>
<path fill="#b9a9a9" d="m46.26,39.67l.69,.55c.17,7.75-.03,15.51-.17,23.27-2.02-7.71-.27-15.95-.52-23.82z"/>
<path opacity=".19" fill="#010000" d="m5.18,74.04c2.63-11.02-2.32-22.77 1.53-33.33 1.68,15.41-2.05,31.82 1.88,46.62 4.83,10.93 16.19,17.35 23.63,26.45 9.65,13.38 28.05,6.62 41.78,8.29 11.09,2.16 19.46-6.41 26.26-13.81 5.88-7.1 15.09-12.05 17.92-21.26 .22-.47 .66-1.42 .87-1.9 2.2-13.62 .23-27.61 1.2-41.37 3.53,12.57 1.37,26.03 1.36,38.89 .33,10.36-9.34,15.86-15.37,22.62-7.24,6.34-12.81,15.58-22.35,18.64-13.8,.21-27.67,.5-41.47-.3-7.01-1.14-10.63-8.14-15.67-12.33-9.69-10.91-26.25-19.84-21.57-37.21z"/>
<path fill="#f94e4e" d="m101.11,56.24c8.13,1.91 13.82-8.33 16.81-14.5 .18,14.06 0,28.12 .13,42.19l-.94-.19c-.46-3.68-1.21-7.33-2.2-10.9-7.16,1.51-13.57,8.26-21.31,6.28-.18-8.59 7.32-14.63 7.51-22.88z"/>
<path fill="#ed4343" d="m10.24,42.68c-1.44,15.77 15.47,21.58 25.66,29.49 .37-6.35 .06-12.71 .03-19.05 .01-3.47 .26-6.95 .84-10.37 .6,15.04-.15,30.11 .51,45.15-.78,.89-1.49,2.68-2.97,1.74-7.61-3.59-14.38-8.79-20.83-14.15-1.79-4.05-2.31-8.65-3.51-12.95 .02-6.62 .02-13.25 .27-19.86z"/>
<path fill="#937878" d="m100.27,56.01l.84,.23c-.19,8.25-7.69,14.29-7.51,22.88-.53,.95-1.07,1.91-1.6,2.86 .57-5.05 2.05-9.94 3.15-14.89 1.98-3.56 4.93-6.83 5.12-11.08z"/>
<path fill="#dd3737" d="m8.9,85.09c-.04-7.53-.17-15.1 1.07-22.55 1.2,4.3 1.72,8.9 3.51,12.95 6.45,5.36 13.22,10.56 20.83,14.15 1.48,.94 2.19-.85 2.97-1.74 1.4,3.65 3.26,7.11 5.42,10.38 8.4,11.77 25.14,4.25 36.94,5.11 7.82-.04 16.27,.26 22.49-5.31-5.28,5.79-11.08,11.08-16.35,16.88-15.19,.89-30.67-1.51-45.72,.95-10.14-8.84-18.86-19.23-29.24-27.75-.32-.23-.94-.68-1.25-.9-.17-.54-.5-1.63-.67-2.17z"/>
<path fill="#e6dada" d="m64,80.04c11.13-1.28 27.68,1.39 31.15-12.95-1.1,4.95-2.58,9.84-3.15,14.89-2.63,4.22-5.11,8.59-6.73,13.31-2.59,2.41-4.91,5.23-8.07,6.92-8.81-.17-17.63-.43-26.43,.02-2.65-.75-4.7-2.73-6.99-4.16-1.95-3.45-4.17-6.9-5.01-10.81 .16-3.73 .21-7.47 .21-11.2 7.85,3.51 16.57,3.87 25.02,3.98z"/>
<path fill="#ea3f3f" d="m93.6,79.12c7.74,1.98 14.15-4.77 21.31-6.28 .99,3.57 1.74,7.22 2.2,10.9-5.13,4.63-9.89,9.66-14.98,14.34-6.22,5.57-14.67,5.27-22.49,5.31 2.22-2.69 4.95-5.04 6.63-8.15 2.25-4.24 5-8.42 5.73-13.26 .53-.95 1.07-1.91 1.6-2.86z"/>
<path fill="#877" d="m85.27,95.29c1.62-4.72 4.1-9.09 6.73-13.31-.73,4.84-3.48,9.02-5.73,13.26l-1,.05z"/>
<path fill="#860b0b" d="m102.13,98.08c5.09-4.68 9.85-9.71 14.98-14.34l.94,.19 .99,.23 .01,.94c-.21,.48-.65,1.43-.87,1.9-1,.7-1.99,1.41-2.95,2.17-10.21,8.41-19.13,18.32-28.35,27.79l-.93-.01c-.04-.5-.12-1.49-.17-1.99 5.27-5.8 11.07-11.09 16.35-16.88z"/>
<path opacity=".32" fill="#010000" d="m8.59,87.33l.98-.07c.31,.22 .93,.67 1.25,.9 8.46,10.78 18.95,19.85 28.57,29.57 15.82,.53 31.69,.34 47.52,.19 9.95-8.95 19.87-18.33 28.32-28.75 .96-.76 1.95-1.47 2.95-2.17-2.83,9.21-12.04,14.16-17.92,21.26-6.8,7.4-15.17,15.97-26.26,13.81-13.73-1.67-32.13,5.09-41.78-8.29-7.44-9.1-18.8-15.52-23.63-26.45z"/>
<path opacity=".8" fill="#362121" d="m10.82,88.16c10.38,8.52 19.1,18.91 29.24,27.75 14.82,2.52 30.67,.45 45.89,1.04l.93,.01 .03,.96c-15.83,.15-31.7,.34-47.52-.19-9.62-9.72-20.11-18.79-28.57-29.57z"/>
<path opacity=".7" fill="#230d0d" d="m86.88,116.96c9.22-9.47 18.14-19.38 28.35-27.79-8.45,10.42-18.37,19.8-28.32,28.75l-.03-.96z"/>
<path fill="#614141" d="m85.27,95.29l1-.05c-1.68,3.11-4.41,5.46-6.63,8.15-11.8-.86-28.54,6.66-36.94-5.11l1.08-.21c2.29,1.43 4.34,3.41 6.99,4.16 8.66,.93 17.92,1.74 26.43-.02 3.16-1.69 5.48-4.51 8.07-6.92z"/>
<path fill="#9b9a9a" d="m50.77,102.23c8.8-.45 17.62-.19 26.43-.02-8.51,1.76-17.77,.95-26.43,.02z"/>
<path fill="#922424" d="m40.06,115.91c15.05-2.46 30.53-.06 45.72-.95 .05,.5 .13,1.49 .17,1.99-15.22-.59-31.07,1.48-45.89-1.04z"/>
</svg>
