<svg width="210" xmlns="http://www.w3.org/2000/svg" height="210" viewBox="0 0 168 168">
<path opacity=".26" fill="#161311" d="m72.44,0h.95c-.23,1.2-.53,2.39-.87,3.57-13.04,12.55-22.18,28.27-34.51,41.43-6.07,15.78 26.04,12.17 18.22,27.98-13.41,5.62-26.53,12.19-40.12,17.18-7.57,11.34-5.83,30.27 4.68,40.08 14,9.38 28.05,18.69 42.33,27.6 4.14,3.1 10.88,4.69 12.34,10.16h-3.02c-.38-1.6-.84-3.29-2.5-3.98-17.24-10.24-33.9-21.32-50.67-32.3-7.41-5.11-11.14-13.74-9.37-22.71 1-6.53-2.6-17.37 5.21-20.85 10.56-2.93 19.78-9.26 30.46-11.75 3.98-2.47 13.72-3.8 9.77-10.69-7.28-4.35-18.05-6.01-20.25-15.83 .17-10.92 13.05-15.35 17.12-24.73 4.92-9.79 15.03-15.91 20.23-25.16z"/>
<path opacity=".54" fill="#533826" d="m73.39,0h1.94c.33,4.61-4.22,6.56-6.71,9.65-8.81,8.75-14.49,20-23.11,28.92-3.03,3.61-9.79,9.83-4.02,13.94 4.41,5.99 14.65,4.06 17.22,11.86 .62,3.65 1.03,7.84-1.82,10.66l-1.01-.28c.09-.44 .26-1.33 .35-1.77 7.82-15.81-24.29-12.2-18.22-27.98 12.33-13.16 21.47-28.88 34.51-41.43 .34-1.18 .64-2.37 .87-3.57z"/>
<path opacity=".8" fill="#975e38" d="m75.33,0h2.98c-.42,1.61-.09,3.67-1.64,4.74-13.17,11.09-21.38,26.52-32.82,39.18-6.64,9.39 7.66,11.29 13.83,14.44 4.47,4.53 3.73,12.09 1.37,17.67-.55,.19-1.64,.58-2.19,.77 .01-.44 .02-1.33 .03-1.77 2.85-2.82 2.44-7.01 1.82-10.66-2.57-7.8-12.81-5.87-17.22-11.86-5.77-4.11 .99-10.33 4.02-13.94 8.62-8.92 14.3-20.17 23.11-28.92 2.49-3.09 7.04-5.04 6.71-9.65z"/>
<path fill="#ef8d4f" d="m78.31,0h8.7c-.04,1.24-.09,2.48-.14,3.72-.87,2.21 .04,4.38 .86,6.43 8.5,20.21 15.37,41.19 27.16,59.84-4.23,11.52-17.91-8.63-21.61,2.39-.79,7.68 3.95,20.55-6.26,23.49-9.57-4.51-23.57-8.51-24.31-21.09-.18-5.74 1.84-12.55-1.88-17.61-6.09-3.31-19.42-3.54-16.98-13.25 11.44-12.66 19.65-28.09 32.82-39.18 1.55-1.07 1.22-3.13 1.64-4.74m-5.08,12.16c-3.74,3.38-7.22,7.59-10.05,11.84-6.19,5.57-9.17,14.29-15.6,19.64-1.6,9.69 14.98,5.97 16.49,14.34 1.43,7.56 3.38,15.04 4.3,22.7 4.46,6.14 11.85,8.82 17.7,13.32 7.44-1.44 6.59-14.19 4.69-18.36-.77-5.64 2.56-11.58 9.28-8.71 2.39,2.42 6.76,3.64 9.86,1.85 1.65-4.77-2.97-7.29-4.55-11.03-7.43-13.75-14.2-27.86-19.77-42.41 .18-6.01-10.78-9.65-12.35-3.18z"/>
<path opacity=".8" fill="#825436" d="m87.01,0h1.71c-.42,3.58 2.49,5.37 4.74,7.5 11.55,20.87 23.48,41.55 36.75,61.37-.06,1.29-.15,2.57-.27,3.86l-.54,.53c-3.51-9.53-10.71-17.26-15.38-26.26-3.2-5.48-5.7-11.43-9.87-16.29-1.95-3.39-4.11-6.67-6.02-10.08-3.28-5.91-6.45-12.07-11.26-16.91 .05-1.24 .1-2.48 .14-3.72z"/>
<path opacity=".51" fill="#39312c" d="m88.72,0h1.9c.06,3.88 3.49,6 5.3,9.03 10.81,17.59 20.76,35.69 32.05,52.98 5.48,5.2 5.24,12.95 5.04,19.97 4.38,6.54 17.77,7.5 19.59,17.43-.28,11.19 4.72,26.89-7.57,33.61-11.27,7.55-22.84,14.82-34.85,21.12 12.58-10.97 30.26-15.74 40.45-29.47 1.78-10.58 4.66-24.7-4.82-32.48-3.8-2.9-8.74-3.68-12.59-6.41-4.38-4.48-.49-11.64-3.01-16.91-13.27-19.82-25.2-40.5-36.75-61.37-2.25-2.13-5.16-3.92-4.74-7.5z"/>
<path opacity=".26" fill="#141414" d="m90.62,0h1.9c11.89,19.83 24.39,39.57 35.6,59.87-.04,.54-.12,1.61-.15,2.14-11.29-17.29-21.24-35.39-32.05-52.98-1.81-3.03-5.24-5.15-5.3-9.03z"/>
<path fill="#e57933" d="m86.87,3.72c4.81,4.84 7.98,11 11.26,16.91-.14,.55-.42,1.65-.56,2.2 7.35,13.77 7.87,30.63 19.05,42.49 4.87,4.57-1.9,7.8-2.52,11.87-.05,.42-.17,1.26-.23,1.68-2.4-.86-5.26-2.69-7.56-.6-4.24,3.96-1.71,10.66-2.03,15.83-1.84,1.23-3.59,2.57-5.32,3.95l.22-.88c5.65-5.74 2.54-14.24 5.72-21.08-1.87-2.29-7.39-8.53-9.65-3.73-.54,9.06 2,20.14-5.65,27.06-10.42-5.91-33.07-7.2-26.89-24.64 .74,12.58 14.74,16.58 24.31,21.09 10.21-2.94 5.47-15.81 6.26-23.49 3.7-11.02 17.38,9.13 21.61-2.39-11.79-18.65-18.66-39.63-27.16-59.84-.82-2.05-1.73-4.22-.86-6.43z"/>
<path fill="#feb383" d="m73.23,12.16c1.57-6.47 12.53-2.83 12.35,3.18 5.57,14.55 12.34,28.66 19.77,42.41 1.58,3.74 6.2,6.26 4.55,11.03-3.1,1.79-7.47,.57-9.86-1.85-9.98-8.55-19.81-17.88-31.71-24.29-5.36-4.39-11.52,8.23-15.44,1.39 6.37-8.27 9.67-18.61 17.07-26.14-1.64,4.64-5.18,8.87-5,14 4.69-.11 9.52-.8 13.92,1.28 8.09,4.4 10.68,17.27 19.2,19.89-4-13.18-11.11-25.52-15.54-38.66-1.5-3.93-6.82-4.53-9.37-1.29l.06-.95z"/>
<path fill="#fdc099" d="m73.17,13.11c2.55-3.24 7.87-2.64 9.37,1.29 4.43,13.14 11.54,25.48 15.54,38.66-8.52-2.62-11.11-15.49-19.2-19.89-4.4-2.08-9.23-1.39-13.92-1.28-.18-5.13 3.36-9.36 5-14 1.18-1.51 2.34-3.05 3.21-4.78z"/>
<path fill="#fdab76" d="m63.18,24c2.83-4.25 6.31-8.46 10.05-11.84l-.06,.95c-.87,1.73-2.03,3.27-3.21,4.78-7.4,7.53-10.7,17.87-17.07,26.14 3.92,6.84 10.08-5.78 15.44-1.39 11.9,6.41 21.73,15.74 31.71,24.29-6.72-2.87-10.05,3.07-9.28,8.71-.65,5.15-1.2,10.4-2.95,15.33-3.06,.76-5.14-2.47-5.6-5.07 .13-6.54 1.02-13.7-2.58-19.54-9.18-7.68-17.27-16.82-29.41-19.7 .76-8.38 10.31-14.27 12.96-22.66z"/>
<path fill="#d9661d" d="m98.13,20.63c1.91,3.41 4.07,6.69 6.02,10.08 3.56,13.53 13.73,24.64 20.41,36.81 3.32,7.19-5.52,9.05-10.46,9.67 .62-4.07 7.39-7.3 2.52-11.87-11.18-11.86-11.7-28.72-19.05-42.49 .14-.55 .42-1.65 .56-2.2z"/>
<path fill="#fd9e61" d="m47.58,43.64c6.43-5.35 9.41-14.07 15.6-19.64-2.65,8.39-12.2,14.28-12.96,22.66 12.14,2.88 20.23,12.02 29.41,19.7 3.6,5.84 2.71,13 2.58,19.54 .46,2.6 2.54,5.83 5.6,5.07 1.75-4.93 2.3-10.18 2.95-15.33 1.9,4.17 2.75,16.92-4.69,18.36-5.85-4.5-13.24-7.18-17.7-13.32-.92-7.66-2.87-15.14-4.3-22.7-1.51-8.37-18.09-4.65-16.49-14.34z"/>
<path opacity=".97" fill="#b0612c" d="m104.15,30.71c4.17,4.86 6.67,10.81 9.87,16.29 4.67,9 11.87,16.73 15.38,26.26-3.62,3.81-7.59,8.17-13.57,7.03-.49-.36-1.47-1.07-1.96-1.42 .06-.42 .18-1.26 .23-1.68 4.94-.62 13.78-2.48 10.46-9.67-6.68-12.17-16.85-23.28-20.41-36.81z"/>
<path opacity=".98" fill="#c37139" d="m57.68,58.36c-6.17-3.15-20.47-5.05-13.83-14.44-2.44,9.71 10.89,9.94 16.98,13.25 3.72,5.06 1.7,11.87 1.88,17.61-6.18,17.44 16.47,18.73 26.89,24.64 3.39,1.46 6.65-.75 9.58-2.25l-.22,.88c-1.89,2.17-3.85,4.29-5.83,6.38-9.46-2.75-17.91-8.04-27.07-11.56-7-2.87-7.68-10.34-7.01-16.84 2.36-5.58 3.1-13.14-1.37-17.67z"/>
<path opacity=".15" fill="#070707" d="m128.12,59.87c5.15,4.95 10.67,11.73 8.4,19.37 .33,5.19 7.63,4.5 10.43,7.82 11.12,5.22 11.01,19.64 9.99,29.93 .58,9.76-6.59,19.19-16.12,21.01 6.25-4.32 14.61-8.93 13.11-18.01-.95-9.36 3.71-22.07-4.94-28.99-4.65-4.06-10.65-6.06-15.98-9.02 .2-7.02 .44-14.77-5.04-19.97 .03-.53 .11-1.6 .15-2.14z"/>
<path opacity=".72" fill="#4f4d4c" d="m130.21,68.87c2.52,5.27-1.37,12.43 3.01,16.91 3.85,2.73 8.79,3.51 12.59,6.41 9.48,7.78 6.6,21.9 4.82,32.48-10.19,13.73-27.87,18.5-40.45,29.47-6.9,4.43-16.61,6.43-20.66,13.86h-1.94c.95-1.78 1.52-3.95 3.19-5.21 18.02-8.97 34.05-21.55 51.61-31.34 10.74-6.3 7.47-19.95 7.6-30.44 .09-2.44-2.41-3.64-3.81-5.26-1.88-1.84-3.7-3.82-6.25-4.71-3.43-1.8-7.6-2.69-10.03-5.93-.85-4.09-.5-8.27 .05-12.38 .12-1.29 .21-2.57 .27-3.86z"/>
<path fill="#d96115" d="m95.25,72.36c2.26-4.8 7.78,1.44 9.65,3.73-3.18,6.84-.07,15.34-5.72,21.08-2.93,1.5-6.19,3.71-9.58,2.25 7.65-6.92 5.11-18 5.65-27.06z"/>
<path opacity=".49" fill="#30302f" d="m16.11,90.16c13.59-4.99 26.71-11.56 40.12-17.18-.09,.44-.26,1.33-.35,1.77-6.85,4.96-15.85,5.41-22.75,10.41-5.72,4.68-15.7,2.53-18.77,10.28-.61,11.43-2.16,25.27 7.4,33.83 17.55,11.51 35.25,22.73 53.02,33.9 1.92,1.01 3.41,2.58 3.68,4.83h-3c-1.46-5.47-8.2-7.06-12.34-10.16-14.28-8.91-28.33-18.22-42.33-27.6-10.51-9.81-12.25-28.74-4.68-40.08z"/>
<path opacity=".98" fill="#8a6e59" d="m129.4,73.26l.54-.53c-.55,4.11-.9,8.29-.05,12.38-2.38-3.41-7.34-1.6-10.89-2.59-1.09-.71-2.14-1.45-3.17-2.23 5.98,1.14 9.95-3.22 13.57-7.03z"/>
<path opacity=".7" fill="#575655" d="m33.13,85.16c6.9-5 15.9-5.45 22.75-10.41l1.01,.28c-.01,.44-.02,1.33-.03,1.77-13.27,5.56-27.36,10.17-39.66,17.38-3.12,11.45-3.16,28.68 8.79,35.84 17.52,9.89 33.49,22.51 51.05,32.14l.75,.27c.34,.13 1.01,.37 1.35,.5 .9,1.63 1.66,3.33 2.33,5.07h-3.01c-.27-2.25-1.76-3.82-3.68-4.83-17.77-11.17-35.47-22.39-53.02-33.9-9.56-8.56-8.01-22.4-7.4-33.83 3.07-7.75 13.05-5.6 18.77-10.28z"/>
<path fill="#9e7455" d="m56.86,76.8c.55-.19 1.64-.58 2.19-.77-.67,6.5 .01,13.97 7.01,16.84 9.16,3.52 17.61,8.81 27.07,11.56l-.07,.93c-6.02,1.3-11.42-2.87-16.93-4.7-6.36-3.65-16.17-4.59-18.75-12.53 .27-3.19 1.01-6.46-.08-9.57-.11-.44-.33-1.32-.44-1.76z"/>
<path opacity=".87" fill="#848483" d="m17.2,94.18c12.3-7.21 26.39-11.82 39.66-17.38 .11,.44 .33,1.32 .44,1.76-8.62,4.23-18.34,5.56-26.4,11.25-4.47,2.35-10.22,2.54-13.74,6.48 .75,10.46-1.2,23.27 7.96,30.57 16.03,9.1 30.41,20.84 46.73,29.42 .7,.95 1.42,1.88 2.24,2.74 .86,.82 1.8,1.57 2.72,2.34l.23,.8c-17.56-9.63-33.53-22.25-51.05-32.14-11.95-7.16-11.91-24.39-8.79-35.84z"/>
<path fill="#c8906b" d="m106.31,78.27c2.3-2.09 5.16-.26 7.56,.6 .49,.35 1.47,1.06 1.96,1.42 1.03,.78 2.08,1.52 3.17,2.23-.34,.18-1.01,.54-1.34,.72-1.78-.45-3.56-.95-5.33-1.43-8.23-6.18-7.82,6.94-8.05,12.29 .32-5.17-2.21-11.87 2.03-15.83z"/>
<path opacity=".98" fill="#b2b2b2" d="m30.9,89.81c8.06-5.69 17.78-7.02 26.4-11.25 2.88,13.78-16.83,7.14-19.3,17.45 .78,3.79 5.29,3.32 7.92,5.12 10.68,6.53 22.15,12.14 34.09,15.86 6.11-2.06 10.51-8.46 15.89-12.06 .28-.23 .82-.7 1.1-.94 1.31-.37 2.63-.73 3.95-1.09 1.52,8.59-9.9,10.37-14.94,15.1-2.61,2.25-6.46,2.64-9.66,1.62-13.02-6.97-26.2-13.68-39.1-20.85-2.51-2.25 1.07-6.75-2.45-8.63-4.41,1.22-8.51,3.59-13,4.72-2.31,.4-4.26,2.93-2.8,5.11 3.71,7.06-.23,16.03 4.37,22.67 8.94,5.73 17.49,12.07 26.58,17.56 6.79,5.76 17.15,8.58 21.9,16.08-16.32-8.58-30.7-20.32-46.73-29.42-9.16-7.3-7.21-20.11-7.96-30.57 3.52-3.94 9.27-4.13 13.74-6.48z"/>
<path fill="#959494" d="m57.3,78.56c1.09,3.11 .35,6.38 .08,9.57-3.98,3.58-16.58,1.86-15.36,9.68 9.01,2.89 16.43,11.15 26.69,9.06 1.32-3.34 3.5-6.14 7.42-6.21 5.51,1.83 10.91,6 16.93,4.7 .71-.1 2.13-.32 2.84-.43-5.38,3.6-9.78,10-15.89,12.06-11.94-3.72-23.41-9.33-34.09-15.86-2.63-1.8-7.14-1.33-7.92-5.12 2.47-10.31 22.18-3.67 19.3-17.45z"/>
<path fill="#d8b39e" d="m104.28,94.1c.23-5.35-.18-18.47 8.05-12.29l-.46,1.04c-.5,.05-1.48,.16-1.98,.21-.56-1.92-3.54-1.51-3.17,.61-.3,6.75 .08,14.6-5.77,19.23-1.32,.36-2.64,.72-3.95,1.09 2.46-3.22 6.59-5.62 7.28-9.89z"/>
<path fill="#d5c2bb" d="m106.72,83.67c-.37-2.12 2.61-2.53 3.17-.61-1.04,.3-2.09,.5-3.17,.61z"/>
<path fill="#aeadac" d="m112.33,81.81c1.77,.48 3.55,.98 5.33,1.43 6.77,1.63 12.68,5.36 18.96,8.18 2.28,1.56 5.07,3.75 3.17,7.19-17.38,9.49-34.16,20.11-51.45,29.8-13.43,5.79 4.18,31.94-14.25,30.61-.82-.86-1.54-1.79-2.24-2.74 2.39,1.33 6.37,2.56 7.54-.92 1.27-6.88 .07-14.12 .89-21.09 2.77-6.3 9.87-8.02 14.65-12.32 1.61,.23 3.14-.52 4.03-1.85 13.43-7.28 27.15-15.11 39.29-24.13-6.6-7.58-17.4-9.3-26.38-13.12l.46-1.04z"/>
<path fill="#908f8e" d="m119,82.52c3.55,.99 8.51-.82 10.89,2.59 2.43,3.24 6.6,4.13 10.03,5.93 .79,.91 1.58,1.82 2.37,2.74 2.69,6.84-5.88,8.63-10.24,11.33-14.94,10.52-32.07,17.52-46.92,28.13-1.74,8.47 5.24,26.88-8.32,28.12-.92-.77-1.86-1.52-2.72-2.34 18.43,1.33 .82-24.82 14.25-30.61 17.29-9.69 34.07-20.31 51.45-29.8 1.9-3.44-.89-5.63-3.17-7.19-6.28-2.82-12.19-6.55-18.96-8.18 .33-.18 1-.54 1.34-.72z"/>
<path opacity=".29" fill="#181717" d="m133.01,81.98c5.33,2.96 11.33,4.96 15.98,9.02 8.65,6.92 3.99,19.63 4.94,28.99 1.5,9.08-6.86,13.69-13.11,18.01-14.75,9.2-29.45,18.56-44.48,27.29-.19,.68-.56,2.03-.75,2.71h-3.04c2.3-7.74 13.75-7.37 17.63-13.86 12.01-6.3 23.58-13.57 34.85-21.12 12.29-6.72 7.29-22.42 7.57-33.61-1.82-9.93-15.21-10.89-19.59-17.43z"/>
<path fill="#d8d8d8" d="m106.72,83.67c1.08-.11 2.13-.31 3.17-.61 7.79,5.46 20.21,4.86 25.08,13.84-11.97,7.68-25.35,13.68-36.01,23.2-1.7-.69-3.56,0-4.03,1.85-4.78,4.3-11.88,6.02-14.65,12.32-.82,6.97 .38,14.21-.89,21.09-1.17,3.48-5.15,2.25-7.54,.92-4.75-7.5-15.11-10.32-21.9-16.08-7.52-8.85-20.01-13.01-26.96-22.26-.7-5.08 3.67-6.74 7.79-5.12 4.24-7.19-13.88-9.33-8.98-17.96 4.49-1.13 8.59-3.5 13-4.72 3.52,1.88-.06,6.38 2.45,8.63 12.9,7.17 26.08,13.88 39.1,20.85 3.2,1.02 7.05,.63 9.66-1.62 5.04-4.73 16.46-6.51 14.94-15.1 5.85-4.63 5.47-12.48 5.77-19.23m.36,1.3c-.21,6.27-.16,12.55-.52,18.81 .33,1.82 .28,6.13 3.15,4.94 5.64-3.48 10.94-7.67 17.41-9.53 2.16-.47 5.57-3.03 2.69-5-6.39-4.94-15.29-6.72-22.73-9.22m-79.7,9.43c-3,.16-5.52,2.14-4.25,5.35 4.02,1.36 8.05,2.98 11.1,6.03 7.61,7.92 19.78,10.82 25.69,20.23-2.19,6.47-14.77-1.31-15.61,4.73 8.24,10.63 21.93,16.95 31.7,25.29 6.66-2.6 1.52-14.67 2.35-20.35 .64-8.57 9.12-10.56 13.79-15.66-5.33-.9-9.38,4.61-14.79,2.66-12.92-7.5-26.37-14.36-39.36-21.67-6.4,.76-3.28-10.6-10.62-6.61z"/>
<path fill="#c4c4c3" d="m109.89,83.06c.5-.05 1.48-.16 1.98-.21 8.98,3.82 19.78,5.54 26.38,13.12-12.14,9.02-25.86,16.85-39.29,24.13 10.66-9.52 24.04-15.52 36.01-23.2-4.87-8.98-17.29-8.38-25.08-13.84z"/>
<path fill="#e7e8e9" d="m107.08,84.97c7.44,2.5 16.34,4.28 22.73,9.22 2.88,1.97-.53,4.53-2.69,5-6.47,1.86-11.77,6.05-17.41,9.53-2.87,1.19-2.82-3.12-3.15-4.94 .36-6.26 .31-12.54 .52-18.81z"/>
<path fill="#787777" d="m57.38,88.13c2.58,7.94 12.39,8.88 18.75,12.53-3.92,.07-6.1,2.87-7.42,6.21-10.26,2.09-17.68-6.17-26.69-9.06-1.22-7.82 11.38-6.1 15.36-9.68z"/>
<path fill="#6b6b6a" d="m139.92,91.04c2.55,.89 4.37,2.87 6.25,4.71 2.18,6.09 1.62,12.62 1.2,18.93 2.55,8.99-5.74,17.18-13.99,18.85-15,9.92-29.86,22.07-47.1,28.78-1.9,2.16-4.75,.85-7.14,.62-.34-.13-1.01-.37-1.35-.5 4.93,.66 7.26-3.31 9.56-7.03 17.52-8.35 33.2-20.53 48.27-32.78 5.4-3.67 5.79-10.39 4.68-16.33 2.47-3.74 7.68-8.93 1.99-12.51-.79-.92-1.58-1.83-2.37-2.74z"/>
<path fill="#efeeee" d="m27.38,94.4c7.34-3.99 4.22,7.37 10.62,6.61 12.99,7.31 26.44,14.17 39.36,21.67 5.41,1.95 9.46-3.56 14.79-2.66-4.67,5.1-13.15,7.09-13.79,15.66-.83,5.68 4.31,17.75-2.35,20.35-9.77-8.34-23.46-14.66-31.7-25.29 .84-6.04 13.42,1.74 15.61-4.73-5.91-9.41-18.08-12.31-25.69-20.23-3.05-3.05-7.08-4.67-11.1-6.03-1.27-3.21 1.25-5.19 4.25-5.35z"/>
<path fill="#cf926a" d="m98.96,98.05c1.73-1.38 3.48-2.72 5.32-3.95-.69,4.27-4.82,6.67-7.28,9.89-.28,.24-.82,.71-1.1,.94-.71,.11-2.13,.33-2.84,.43l.07-.93c1.98-2.09 3.94-4.21 5.83-6.38z"/>
<path fill="#797878" d="m142.29,93.78c5.69,3.58 .48,8.77-1.99,12.51 1.11,5.94 .72,12.66-4.68,16.33-15.07,12.25-30.75,24.43-48.27,32.78-2.3,3.72-4.63,7.69-9.56,7.03l-.75-.27-.23-.8c13.56-1.24 6.58-19.65 8.32-28.12 14.85-10.61 31.98-17.61 46.92-28.13 4.36-2.7 12.93-4.49 10.24-11.33z"/>
<path fill="#cacaca" d="m19,99.97c-1.46-2.18 .49-4.71 2.8-5.11-4.9,8.63 13.22,10.77 8.98,17.96-4.12-1.62-8.49,.04-7.79,5.12 6.95,9.25 19.44,13.41 26.96,22.26-9.09-5.49-17.64-11.83-26.58-17.56-4.6-6.64-.66-15.61-4.37-22.67z"/>
<path opacity=".91" fill="#61605e" d="m146.17,95.75c1.4,1.62 3.9,2.82 3.81,5.26-.13,10.49 3.14,24.14-7.6,30.44-17.56,9.79-33.59,22.37-51.61,31.34-1.67,1.26-2.24,3.43-3.19,5.21h-6.11c-.67-1.74-1.43-3.44-2.33-5.07 2.39,.23 5.24,1.54 7.14-.62 17.24-6.71 32.1-18.86 47.1-28.78 8.25-1.67 16.54-9.86 13.99-18.85 .42-6.31 .98-12.84-1.2-18.93z"/>
<path fill="#c6c6c6" d="m94.93,121.95c.47-1.85 2.33-2.54 4.03-1.85-.89,1.33-2.42,2.08-4.03,1.85z"/>
<path opacity=".53" fill="#323130" d="m89.52,168c4.05-7.43 13.76-9.43 20.66-13.86-3.88,6.49-15.33,6.12-17.63,13.86h-3.03z"/>
</svg>
