<svg xmlns="http://www.w3.org/2000/svg" viewBox="0 0 160 160" xmlns:xlink="http://www.w3.org/1999/xlink">
<defs>
<linearGradient id="XMLID_7_" y1="-21.483" y2="115.516" x1="78.37" gradientUnits="userSpaceOnUse" x2="-3.129">
<stop offset="0" stop-color="#bdcdd4"/>
<stop offset=".406" stop-color="#70838b"/>
<stop offset=".812" stop-color="#2a3e48"/>
<stop offset="1" stop-color="#0e232e"/>
</linearGradient>
<linearGradient gradientTransform="matrix(1 -.2981 0 1 0 12.9769)" id="XMLID_10_" y1="-24.556" y2="31.401" x1="143.545" gradientUnits="userSpaceOnUse" x2="22.305">
<stop offset=".107" stop-color="#858585"/>
<stop offset=".143" stop-color="#898989"/>
<stop offset=".548" stop-color="#b6b6b6"/>
<stop offset=".753" stop-color="#c7c7c7"/>
<stop offset="1" stop-color="#cfcfcf"/>
</linearGradient>
<linearGradient gradientTransform="matrix(1 -.2981 0 1 0 12.9769)" id="XMLID_12_" y1="80.015" y2="59.37" x1="37.527" gradientUnits="userSpaceOnUse" x2="44.235">
<stop offset="0" stop-color="#9e9e9e"/>
<stop offset=".271" stop-color="#afafaf"/>
<stop offset=".806" stop-color="#dbdbdb"/>
<stop offset="1" stop-color="#ededed"/>
</linearGradient>
<radialGradient cx="40.616" cy="41.531" gradientTransform="matrix(1 -.2981 0 1 0 12.9769)" id="XMLID_8_" r="45.555" gradientUnits="userSpaceOnUse">
<stop offset=".022" stop-color="#fff"/>
<stop offset=".106" stop-color="#f9f9f9"/>
<stop offset=".219" stop-color="#e8e8e8"/>
<stop offset=".349" stop-color="#cbcbcb"/>
<stop offset=".491" stop-color="#a4a4a4"/>
<stop offset=".573" stop-color="#8a8a8a"/>
<stop offset=".779" stop-color="#676767"/>
<stop offset="1" stop-color="#3c3c3c"/>
</radialGradient>
<radialGradient cx="73.704" cy="-1.774" gradientTransform="matrix(1 -.2981 0 1 0 12.9769)" id="XMLID_9_" r="90.824" gradientUnits="userSpaceOnUse">
<stop offset=".022" stop-color="#f3f3f3"/>
<stop offset=".103" stop-color="#ededed"/>
<stop offset=".213" stop-color="#dcdcdc"/>
<stop offset=".338" stop-color="#c0c0c0"/>
<stop offset=".475" stop-color="#999"/>
<stop offset=".573" stop-color="#787878"/>
<stop offset=".776" stop-color="#545454"/>
<stop offset="1" stop-color="#292929"/>
</radialGradient>
</defs>
<g transform="matrix(1.77156 0 0 1.77156 8.01793 4.15839)">
<path fill="url(#XMLID_7_)" d="m81.264,81.508c-2.062,2.053-4.703,4.115-4.815,4.113-1.851-.031-44.602-.027-64.979-.027-2.628-3.674-7.536-9.073-11.47-14.066 .006-20.251 .017-56.344 .017-69.154 3.176-1.011 6.371-2.372 6.472-2.372 3.181,0 72.211-.004 74.716,0 0,3.641 .059,62.964 .059,81.506z"/>
<path fill="url(#XMLID_8_)" d="m79.44,80.528-3.021,2.611-66.511-5.318-8.116-74.957 4.658-1.692 72.945-.078 .045,79.434z"/>
<path fill="url(#XMLID_9_)" d="m76.301,83.194-63.796,.078-10.633-13.012-.07-67.397 74.518-.101-.019,80.432z"/>
</g>
<g transform="matrix(1.77156 0 0 1.77156 8.01793 4.15839)">
<path fill="url(#XMLID_10_)" d="m64.155,2.841c0,0-.042,38.629-.042,40.919-.352,.712-1.083,1.34-1.083,1.34l-45.269-42.226 5.196-1.76 46.49-.012-5.292,1.739z"/>
</g>
<g transform="matrix(1.77156 0 0 1.77156 8.01793 4.15839)">
<path fill="#fff" d="m63.402,44.696c0,2.553-45.588,2.796-45.588-.193 0-2.946-.002-41.651-.002-41.651l45.59,.033c0-.001 0,38.229 0,41.811z"/>
</g>
<g fill="none" stroke="#ccc" stroke-linecap="round" stroke-width="2" transform="matrix(1.77156 0 0 1.77156 8.01793 4.15839)">
<path d="m21.276,22.05 38.454-.179"/>
<path d="m21.276,30.334 38.454,.037"/>
<path d="m21.276,38.001 38.454,.042"/>
</g>
<g transform="matrix(1.77156 0 0 1.77156 8.01793 4.15839)">
<path fill="#00f" d="m60.771,12.947-40.172,.005-.04-10.114 5.311-1.807 39.925,.009-5.024,1.727 0,10.18z"/>
</g>
<g transform="matrix(1.77156 0 0 1.77156 8.01793 4.15839)">
<path fill="#fff" d="m61.789,83.278l-.461,.629-40.835-.613-.958-23.287 .941-.545 41.322-.02-.009,23.836zm-23.632-21.219c-3.707-.025-9.041,.111-12.005,.182 0,2.398 0,19.141 0,19.141l12.005,.004c0-.001 0-17.034 0-19.327z"/>
<path fill="url(#XMLID_12_)" d="m61.336,84.008l-41.809,.08-.014-24.053 41.822-.016v23.989h.001zm-23.929-21.009c-3.707-.026-8.79,.037-11.79,.037 0,2.398 0,18.996 0,18.996l11.79,.004c0,0 0-16.744 0-19.037z"/>
</g>
<g transform="matrix(.1936 0 0 .1936 62.60525 60.50778)">
<path d="m150.5534,492.4204c-7.845-.8054-19.0012-2.7641-25.5-4.4769-6.3543-1.6748-15.6161-3.8915-20.5816-4.926-8.2322-1.7151-10.8034-2.9106-29.1591-13.5583-19.7236-11.4411-20.3718-11.923-32.0411-23.8183l-11.9102-12.1409-4.3101-15.7481c-4.5492-16.622-4.501-15.9581-2.3933-32.9318l.5811-4.6799-8.8695-4.4588-8.8695-4.4588-3.3841-9.6578-3.3841-9.6578 2.1922-19.7035c2.3588-21.2012 1.6924-18.8658 13.175-46.1673 3.6535-8.6866 5.505-11.6417 10.901-17.3988 3.575-3.8142 7.9636-7.5495 9.7525-8.3006 4.996-2.0978 30.5062-4.6285 40.4464-4.0124l8.6989,.5391 1.5638-5.6817c4.3426-15.7777 13.221-33.6122 29.5065-59.2706l6.774-10.6727-3.1702-4.0061c-1.7436-2.2034-4.0092-6.4746-5.0347-9.4915-3.344-9.8377 .3731-20.8309 9.0657-26.8115 2.4323-1.6735 6.1042-3.6257 8.1598-4.3383l3.7374-1.2956v-9.3977c0-6.9468 .4384-10.1801 1.681-12.3977 .9246-1.65 2.3368-4.3972 3.1383-6.1049 .8015-1.7077 3.2686-4.4069 5.4824-5.9981 2.4291-1.746 5.0124-4.9065 6.5152-7.9706 2.0034-4.0848 4.9119-7.0444 14.8788-15.1398 25.3636-20.6012 40.3211-27.5802 66.8647-31.1981l12.5604-1.712 18.9396,3.7142c25.2778,4.9572 48.5713,13.7374 64.4047,24.2767 5.7558,3.8313 10.9308,6.9547 11.5,6.9411 .5692-.0137 5.3099-1.9541 10.5349-4.3122 11.5411-5.2085 32.4377-17.3312 52.5499-30.4857 18.6586-12.2037 39.8662-22.8178 62.1486-31.1044 18.3263-6.8153 21.3554-7.1323 22.602-2.3652 .3759,1.4376-2.8063,10.8626-9.2264,27.3267-5.3902,13.8227-10.6303,27.3822-11.6448,30.1322-1.0145,2.75-10.0552,20.975-20.0905,40.5-16.2155,31.5493-19.0278,37.7628-25.2711,55.8331l-7.0251,20.3331-1.0484,22.6669c-1.0884,23.5317-2.0428,30.9705-4.4062,34.3448-1.2341,1.7619-.8942,3.4737 2.988,15.0485 5.0391,15.0241 5.955,24.9988 2.9741,32.3897-1.5959,3.9568-1.5564,4.6537 1.0202,18 2.6289,13.6179 2.6691,14.4216 2.0983,41.9548-.3201,15.439-1.0184,29.2189-1.5519,30.6221-.5335,1.4031-7.4155,12.5801-15.2933,24.8377-10.4182,16.2103-15.414,23.0727-18.3234,25.1698-2.2,1.5858-12.7011,11.0769-23.3358,21.0913-10.6347,10.0145-20.3097,18.7208-21.5,19.3473-1.1903,.6265-12.0641,4.0768-24.1642,7.6673l-22,6.5282-8.7194-1.2198c-7.7373-1.0824-10.891-.9623-28,1.0664-29.5023,3.4981-72.1296,7.5238-83.2806,7.865-5.5,.1683-16.276-.3384-23.9466-1.1259z"/>
<path fill="#323e32" d="m182,480.3304c-1.925-.1834-12.275-.7564-23-1.2733-18.6378-.8984-20.3843-1.1649-39.5-6.0266l-20-5.0866-13.9322-9.222c-7.6627-5.0721-14.7829-10.122-15.8226-11.222-3.734-3.9504-11.7227-18.3027-14.735-26.4724-2.8673-7.7766-3.0524-9.0956-2.7906-19.8849 .2735-11.2714 .3395-11.5697 2.6795-12.1205 2.3884-.5622 2.384-.5769-1-3.3121-1.8695-1.5111-10.26-7.2951-18.6456-12.8534-10.6673-7.0707-16.2472-11.457-18.5784-14.6042l-3.3319-4.4982 1.8263-10.6271c1.0045-5.8449 2.0969-14.4521 2.4276-19.1271 .5723-8.0902 1.0338-9.417 9.5712-27.5199l8.9699-19.0199 6.1221-3.9801c12.1218-7.8806 15.3912-8.7616 31.7397-8.553 28.4566,.3632 31.2275,.9346 76.3286,15.7398 10.9057,3.58 20.0155,6.3222 20.2439,6.0938 1.7276-1.7276-58.1144-20.6543-70.7441-22.3748-4.2902-.5844-4.5982-.8098-3.7732-2.7612 .4941-1.1687 2.0532-6.3322 3.4648-11.4745 1.5156-5.5216 5.4148-15.0355 9.5232-23.2367 5.9612-11.8996 6.9575-14.6403 6.9623-19.1503 .0051-4.8113 .6018-6.1846 6.9472-15.9903l6.9417-10.727-3.9362-4.9797c-3.4547-4.3706-4.0153-5.831-4.5831-11.9393l-.6468-6.9596 5.0606-5.3337c4.8909-5.1549 9.5884-8.1849 17.4696-11.2683l3.7585-1.4705-.1313-8.2975c-.2472-15.6171 .3197-17.2666 8.9716-26.1053 5.9986-6.1281 9.8604-9.002 17.9507-13.3588 5.6694-3.053 10.0987-5.7602 9.8429-6.0159-.2557-.2557-1.7443,.1885-3.3079,.9872-2.3572,1.204-11.8359,3.6953-14.0595,3.6953-1.9913,0 22.6151-17.4555 31.5493-22.3806 12.122-6.6825 13.306-7.1007 25.6673-9.0651 18.3151-2.9106 33.2535-3.9427 37.7917-2.611 12.5805,3.6916 53.0351,22.1092 58.2083,26.5003l3,2.5464-2.7852,.005c-2.4733,.0044-2.6655,.2286-1.7166,2.0017 1.4727,2.7517 8.1981,6.0033 12.4171,6.0033 5.6154,0 31.6079-12.2787 35.1725-16.6153 .5983-.7279 7.1385-4.8675 14.5337-9.1991 7.3952-4.3316 20.1807-12.2806 28.4122-17.6644 18.2259-11.9208 39.6719-22.7229 60.8474-30.6484 8.7346-3.2691 16.0408-5.7843 16.2359-5.5892 .1951,.1951-2.8293,8.4236-6.721,18.2855-3.8916,9.8619-9.0225,23.1058-11.402,29.4308-2.3794,6.325-12.4437,27.25-22.3649,46.5-16.4333,31.8851-18.7079,36.9398-25.5579,56.796l-7.5192,21.796-1.0353,22.204c-1.2071,25.8862-1.5787,28.8473-4.1721,33.2428l-1.9361,3.2815 3.5853,10.3003c2.8691,8.2428 3.6096,11.9063 3.707,18.3399 .2089,13.8026-.7998,17.7295-5.8195,22.656l-1.6138,4.091 1.7257,8.6463c1.3618,6.8228 1.6938,13.3678 1.5743,31.0344l-.1514,22.3881-5.9034,10.6119c-3.319,5.9662-8.8186,18.4919-12.5624,28.6119l-6.659,18-20.1456,20.3431c-14.4536,14.5953-21.4171,20.9133-24.6456,22.3614-2.475,1.1101-11.1851,4.2182-19.3559,6.9069-11.3037,3.7197-16.3323,4.8886-21.0305,4.8886-8.7792,0-45.1013-3.8493-48.3738-5.1265-5.1037-1.9919-31.6464-9.8003-32.0254-9.4212-.2071,.2071 .0865,1.2416 .6523,2.2989 .5926,1.1074 4.6524,3.3233 9.5756,5.2266 8.7736,3.3919 11.9878,5.5946 9.4203,6.4556-15.2371,5.1097-40.4073,8.274-54.8626,6.8971zm-2.7445-39.0723c-8.3845-4.1814-15.5082-7.3388-15.8304-7.0166-.9397,.9397 16.4547,10.7923 22.5297,12.7614 10.2969,3.3374 8.6077,1.8889-6.6993-5.7448zm147.1436-80.8965c6.4081-1.4081 8.0326-2.2258 11.5587-5.8187 3.9501-4.0248 4.1406-4.5194 5.1197-13.2895 .6559-5.8749 .6772-10.2887 .0599-12.4313-.8118-2.8177-.9708-2.0747-1.0473,4.8931-.0804,7.3274-.4144,8.7265-3.0902,12.9458l-3,4.7305v-16.2301c0-11.478-.6123-20.1988-2.0912-29.7848-1.875-12.1536-5.6488-26.5042-5.8358-22.1918-.0402,.9267 .4006,2.9307 .9795,4.4534 2.6173,6.8839 4.9264,28.1598 4.9368,45.4867 .0148,24.585 .5611,23.0928-9.3278,25.4744-7.518,1.8106-8.9778,1.8626-18.5119,.6592-10.1285-1.2784-10.6641-1.4798-25-9.4014-15.0308-8.3056-24.1498-14.3255-24.1498-15.9424 0-.5032-.3375-.8034-.75-.6671-1.2598,.4161-9.2059-5.6599-9.2286-7.0567-.0117-.72-.4086-1.0697-.8819-.7772-.4733,.2925-4.1524-1.9309-8.1757-4.941-4.0233-3.0101-7.7761-5.4728-8.3394-5.4728-1.371,0-1.5797-.1905 16.8757,15.404 11.8085,9.9779 18.4887,14.8164 25.5,18.4695 14.2872,7.4441 21.669,10.2577 30.5,11.6251 11.3069,1.7509 15.4149,1.7274 23.8991-.1369zm74.6009-79.8146c0-.2491-.5222-1.5991-1.1605-3-1.0703-2.349-2.076-2.9948-4.13-2.652-2.4154,.4031-4.5295-2.2092-5.1531-6.3673-.3734-2.4903-1.1317-4.5278-1.6851-4.5278-.5906,0-.708,.9293-.2843,2.25 1.2754,3.9758 2.3142,9.1822 1.9122,9.5841-1.0617,1.0617-13.6141-9.1783-18.8031-15.3392-6.9451-8.246-9.9873-13.8825-11.7352-21.7428-1.1558-5.1976-1.0977-6.0831 .6078-9.25 1.0373-1.9262 2.614-3.5022 3.5037-3.5022 2.3247,0 5.0912-3.41 4.3447-5.3554-.8687-2.2638-1.9631-2.0768-6.2338,1.0649-2.0258,1.4903-3.8036,2.773-3.9506,2.8506-.147,.0776-.6147,2.7958-1.0392,6.0404-.9413,7.1932 .3134,12.0149 5.3734,20.6496 7.3788,12.5919 15.638,21.0345 25.8105,26.3837 5.1866,2.7274 12.6227,4.4435 12.6227,2.9131zm-55.5539-64.2906c5.9564-5.243 12.202-8.2888 18.8592-9.197l5.1947-.7087-4.8967-.8109c-4.3396-.7186-5.5215-.4826-10.3882,2.0746-7.0044,3.6806-16.9216,13.6701-18.2236,18.3566-1.7828,6.4173-1.0303,6.6142 1.8677,.4886 1.7771-3.7565 4.6457-7.6144 7.5869-10.2032zm-266.4461,245.7309c-3.025-1.6567-8.624-4.6309-12.4423-6.6092-4.6286-2.3982-10.5299-6.9635-17.707-13.6985-9.4314-8.8505-11.0408-10.8495-12.9944-16.1406-1.2263-3.3215-2.56-6.2685-2.9637-6.549-.4037-.2805-1.0482-1.8555-1.4323-3.5-.384-1.6445-1.3601-4.0482-2.1689-5.3416-.98-1.567-1.3084-3.9026-.9842-7 .4497-4.2964 4.5387-22.1944 5.2555-23.0037 .1731-.1955 3.0957,.7045 6.4947,2 8.1394,3.1022 8.6531,4.3046 7.1217,16.6689-1.1743,9.481-1.1374,9.9039 1.7373,19.928 2.3516,8.2 4.3484,12.4858 10.0172,21.5 6.8053,10.8214 7.4488,11.508 16.5733,17.6859 8.3645,5.6633 10.2073,7.0733 9.2431,7.0724-.1375-.0001-2.725-1.3557-5.75-3.0125z"/>
<path fill="#5d6d5d" d="m61.0268,421.7625c-3.8033-1.9168-6.9938-4.2936-7.7353-5.7625-1.4481-2.8686-1.8206-26-.4186-26 .4801,0 2.8426,.8703 5.25,1.9341 2.4074,1.0638 10.3233,3.5018 17.5909,5.4179 19.8599,5.2361 19.5421,4.3852 6.2646,16.7751-6.1138,5.7051-11.8725,10.4909-12.7971,10.6353-.9247,.1444-4.5942-1.2056-8.1544-3zm-31.524-16.7459c-.7435-4.4009 2.26-22.0184 3.4308-20.124 .3319,.537 3.2715,2.7872 6.5324,5.0004 4.3194,2.9316 6.2691,3.7417 7.1818,2.9843 .972-.8067 1.1587-.2932 .8331,2.2915-.2308,1.8322-.686,5.4687-1.0116,8.0812-.5716,4.5872-.7049,4.75-3.891,4.75-1.8145,0-5.3382,.2795-7.8304,.6211l-4.5312,.6211-.7139-4.2256zm102.0804-30.5444c-6.0042-2.9394-12.3042-6.7838-14-8.5431l-3.0832-3.1988 4.5,2.9558c2.475,1.6257 9.225,4.5806 15,6.5665 8.7479,3.0082 11.5012,3.5383 16.5,3.1764l6-.4343-5,1.8563c-2.75,1.021-5.9,2.1059-7,2.4109-1.2566,.3484-6.0579-1.432-12.9168-4.7898zm177.9168-11.9507l-4-1.3781 6.1213,.5573c4.0181,.3658 8.8283-.0346 14-1.1653 6.7409-1.4739 8.4913-2.3157 12.1208-5.8295 3.4743-3.3635 4.3587-4.9856 4.8861-8.9611 .5272-3.9744 .9365-4.7253 2.2579-4.1428 .8876,.3913 3.5264,1.1932 5.8639,1.7821 5.8688,1.4785 5.4948,3.5412-1.6373,9.0293-3.238,2.4916-6.9924,5.8435-8.3431,7.4487-2.4124,2.8669-2.6749,2.9284-14.8627,3.4781-9.1742,.4138-13.4491,.2005-16.4069-.8186zm-295.1422-7.5637c-.7229-.7229-.4785-4.3225 .7979-11.75 1.012-5.8893 2.1131-14.5328 2.4469-19.2078 .566-7.9277 1.1187-9.5915 8.2081-24.7107 4.1807-8.9159 7.7504-16.0616 7.9327-15.8792 .1823,.1823-.1992,1.4962-.8478,2.9198-.9514,2.0882-.8895,3.0309 .3203,4.8792 .8248,1.26 1.825,5.3341 2.2228,9.0535l.7232,6.7625 8.9094,7.7375c4.9002,4.2556 8.9137,8.2625 8.9191,8.9041 .0053,.6417 .4421,1.3167 .9706,1.5 .5285,.1833 7.9651,5.7333 16.5257,12.3333 8.5607,6.6 17.0157,12.5689 18.7891,13.2641 2.1422,.8399 2.3852,1.0866 .7243,.735-1.375-.291-10.6136-1.2873-20.5302-2.214l-18.0302-1.6848-15.0755,4.1998c-15.2514,4.2488-21.1109,5.053-23.0064,3.1576zm220.4944-12.7319c-.1937-.488-4.4022-3.603-9.3522-6.9223-6.9565-4.6648-11.9686-9.3011-22.0745-20.4193l-13.0745-14.3843-23.9255-9.7497c-15.6625-6.3825-32.2142-12.2086-47.9255-16.8696-13.2-3.9159-24.225-7.3539-24.5-7.6399-.275-.286 2.5744-.2457 6.332,.0896 7.4742,.6669 16.312,3.2528 57.668,16.8731 34.6897,11.4248 39.5576,13.3623 51.0986,20.3376 9.7331,5.8826 12.9608,8.9971 26.4655,25.5374 6.9702,8.5369 7.4033,9.3389 6.1057,11.3051-1.4261,2.161-6.1811,3.4458-6.8176,1.8422zm108.7274-5.7259c.3072-2.2119-.1386-6.9056-.9972-10.5-.8775-3.6732-1.5042-10.414-1.441-15.5l.1118-9 1.3398,10c.7369,5.5 1.831,12.7 2.4314,16 .9023,4.9595 .8235,6.6069-.4544,9.5l-1.5459,3.5 .5556-4zm1.733-44.2921c-3.3725-10.8246-5.4767-18.7871-4.676-17.6945 2.3223,3.1692 12.2582,35.9252 11.214,36.9694-.2234,.2234-3.1655-8.4503-6.5379-19.2749zm-189.3126-12.7828c-3.025-.6561-15.85-4.1667-28.5-7.8015-12.65-3.6348-25.1035-6.8905-27.6744-7.235-4.2992-.576-4.6021-.7974-3.7732-2.7575 .4957-1.1721 2.0612-6.3563 3.4788-11.5204 1.4177-5.1641 3.9155-11.9141 5.5507-15 1.6352-3.0859 2.7433-4.7108 2.4625-3.6108-2.7764,10.8746-3.2048,19.0326-1.0429,19.8622 .8258,.3169 2.2815,2.2119 3.2349,4.2112 1.3072,2.7412 3.2124,4.3819 7.7485,6.6729 8.3202,4.2021 39.627,13.8379 47.4825,14.6144l6.4673,.6393-4.9673,1.559c-4.1489,1.3021-5.8736,1.3625-10.4673,.3662zm-73.25-14.1486c1.7875-.2218 4.7125-.2218 6.5,0 1.7875,.2218 .325,.4033-3.25,.4033-3.575,0-5.0375-.1815-3.25-.4033zm287.25-34.8361l-5.3143-3.2835 6.5291,1.0787c5.0271,.2325 5.7627-1.4014 6.1138-3.1608 .2195-1.1 .4604,1.3376 .5353,3.6751 .164,5.1178-1.116,5.393-7.8638,1.6905zm-151.0973-5.6905c1.0074-2.3375 2.8252-6.3539 4.0395-8.9255 2.5601-5.4212 2.5546-5.4378-4.9248-14.8245-7.3555-9.2312-12.2553-11.521-26.5174-12.3922-6.05-.3695-14.0586-.9491-17.797-1.2878l-6.7969-.6159 .6523-3.102c.3588-1.7061 1.0333-3.5079 1.4989-4.004 1.0505-1.1192 15.9692-.9063 22.5426,.3217 3.9036,.7293 7.0327,.4309 15.7858-1.5051 6.0044-1.3281 12.8502-2.4147 15.2127-2.4147 4.8495,0 16.6891-5.2517 22.3187-9.9l3.4173-2.8215-2.3497-3.2998-2.3497-3.2998 7.0473,.655c4.8995,.4554 8.2314,.239 10.9324-.7099 3.482-1.2233 4.2725-1.1696 7.6191,.5177 2.5241,1.2726 3.9298,2.7698 4.3383,4.6205 .3324,1.5058 1.4908,5.519 2.5744,8.9182 2.6504,8.3146 1.8412,11.8452-4.6912,20.4676-5.8953,7.7815-15.4649,15.0154-26.9555,20.3763-3.85,1.7962-11.275,6.4574-16.5,10.3582-5.225,3.9008-9.8215,7.098-10.2145,7.1049-.393,.0069 .1098-1.9 1.1172-4.2375zm158.8265-23.3542c-.401-.401-.7292-1.7134-.7292-2.9165 0-1.203-1.1255-3.4018-2.5012-4.8861-2.2715-2.451-3.0943-2.6796-8.9592-2.4898-3.9686,.1285-7.0351-.2698-7.955-1.0333-.8233-.6833-1.9667-.9521-2.5408-.5973-.5741,.3548-1.0438,.1737-1.0438-.4025 0-.6436 2.4022-.9556 6.2289-.809 4.3834,.1679 6.2722-.1317 6.375-1.0114 .2963-2.5349 .4428-2.7247 1.1924-1.5453 .5885,.926 1.9955,.8442 6.0812-.3535 3.3585-.9845 5.6654-1.2083 6.2658-.6078 .5994,.5994 2.7166,.6011 5.733,.0047l4.7826-.9456 10.1208-16.6802c5.5664-9.1741 10.6343-18.7083 12.1327-20.0673l3.437-1.5549-3.0389,4.5c-1.6714,2.475-6.7741,11.5274-11.3393,20.1165l-8.3004,15.6165-6.2881,3.1008c-5.7506,2.8357-6.3822,3.4669-7.3893,7.3835-.6057,2.3555-1.1988,4.6483-1.3182,5.0952-.1193,.4469-.5451,.4844-.9461,.0833zm-10.6502-18.8125c-.0434-1.0542 .1929-1.6448 .5252-1.3125 .3323,.3323 .3678,1.1948 .0789,1.9167-.3192,.7977-.5562,.5608-.6042-.6042zm-240.7909-7.9035c-2.9029-3.4387-4.4071-6.291-4.8401-9.178-1.0715-7.1454-.4136-8.8997 3.5795-9.5448 3.5692-.5766 10.6621,.6866 9.6332,1.7156-.3072,.3072-1.8754,.0996-3.4848-.4615-2.0877-.7278-3.6067-.6823-5.3011,.1587-1.9862,.9859-2.4251,2.0561-2.6818,6.5403-.2693,4.7043 .0294,5.7126 2.4371,8.2257 1.5092,1.5753 3.2862,2.8642 3.9488,2.8642 .6626,0 3.5034-2.0667 6.3129-4.5927 2.8095-2.526 5.1081-4.1166 5.1081-3.5348 0,.5818 1.3966,2.6485 3.1036,4.5927 1.707,1.9441 2.8688,3.5348 2.5818,3.5348-.287,0-1.2336,.2731-2.1036,.607-1.0316,.3959-1.5818,.0567-1.5818-.975 0-1.2493-.6835-1.4475-3.25-.9427-6.729,1.3237-8.2045,1.9936-8.72,3.9591-.4624,1.763-1.0669,1.3846-4.7419-2.9686zm244.7119,1.8201c1.2917-1.375 2.5736-2.5 2.8486-2.5 .275,0-.5569,1.125-1.8486,2.5-1.2917,1.375-2.5736,2.5-2.8486,2.5-.275,0 .5569-1.125 1.8486-2.5zm-193.788-9.4602c-8.9103-2.407-8.4932-2.1501-15.1304-9.3188-4.5612-4.9264-11.2765-9.721-13.615-9.721-.3372,0-.4537,.7875-.2587,1.75 .2227,1.0996-1.1253,2.9339-3.627,4.9352-3.9162,3.133-5.5808,3.415-5.5808,.9456 0-2.2892-6.2422-7.8007-8.2425-7.2777-5.3579,1.4011 4.1527-4.5211 12.5181-7.7949l3.7756-1.4776-.1605-7.7903c-.0883-4.2847 .1698-10.3196 .5734-13.4109 .7092-5.4311 1.0255-5.9031 9.3849-14l8.6509-8.3794-8.25,8.5209c-6.8709,7.0965-8.25,9.0607-8.25,11.75 0,1.776 .2745,3.2291 .61,3.2291 .3355,0 3.148-1.3286 6.25-2.9524 3.102-1.6238 8.565-3.6854 12.14-4.5813 3.575-.8959 9.7625-3.4238 13.75-5.6176 3.9875-2.1938 7.25-3.7983 7.25-3.5654 0,.2328-3.2625,2.5858-7.25,5.2288-3.9875,2.643-11.3378,7.9913-16.334,11.8852-8.301,6.4695-9.258,7.5764-11.1024,12.8413-2.3633,6.746-1.9477,7.4387 5.0373,8.3961 2.557,.3505 4.6491,1.0037 4.6491,1.4516 0,3.0344-9.5366,2.574-14.5361-.7018-1.8827-1.2336-2.8628-1.3855-3.6781-.5702-1.1579,1.1579-1.0195,1.2358 7.6359,4.2982 3.2055,1.1341 4.3013,2.2508 6,6.114 2.1021,4.7806 3.8298,6.4514 2.868,2.7736-.5564-2.1276 2.0248-2.918 3.2191-.9857 1.5195,2.4586 8.5807,4.8561 16.2806,5.5277 8.0248,.7 11.415,2.4118 4.9606,2.5047-3.1193,.0449-3.0528,.1238 1.654,1.9618 2.6972,1.0533 6.9722,2.2132 9.5,2.5776 6.8188,.983 8.5311,2.3468 2.9926,2.3834-2.5318,.0167-7.2568,.2573-10.5,.5347-4.0945,.3502-8.1241-.0974-13.1847-1.4645zm15.538-7.7455c1.2375-.2384 3.2625-.2384 4.5,0 1.2375,.2383 .225,.4334-2.25,.4334-2.475,0-3.4875-.195-2.25-.4334zm136.0116-8.0443c-1.9545-2.2091-6.2341-19.1953-5.1035-20.2564 .463-.4345 3.3168-1.055 6.3418-1.379l5.5-.589-4.1337,1.5317c-4.0898,1.5155-4.125,1.571-3.3134,5.2372 .8493,3.8364 2.7384,17.2054 2.4312,17.2054-.0958,0-.8709-.7875-1.7225-1.75zm57.3173-.6667c-.0434-1.0542 .1929-1.6448 .5252-1.3125 .3323,.3323 .3678,1.1948 .0789,1.9167-.3192,.7977-.5562,.5608-.6042-.6042zm16.61-13.6091c-.3639-1.3608-.6678-3.3581-.6753-4.4385-.0126-1.8087 .1143-1.8363 1.6024-.3482 1.2489,1.2489 1.4023,2.2574 .6753,4.4385l-.9408,2.8224-.6616-2.4742zm-7.531-9.9742c0-1.375 .227-1.9375 .5044-1.25 .2774,.6875 .2774,1.8125 0,2.5-.2774,.6875-.5044,.125-.5044-1.25zm8.2945-7.5c.1741-5.5 .8204-11.125 1.4361-12.5 .9139-2.0409 1.03-1.2146 .6325,4.5-.2678,3.85-.9141,9.475-1.4361,12.5-.8465,4.905-.9149,4.4182-.6325-4.5zm-62.9045,7.0887c1.0616-.7762 2.3552-1.1486 2.8748-.8275 .5196,.3211 1.0924,2.7568 .029,3.1733-3.1316,1.2263-4.9755-.8309-2.9037-2.3458zm50.4522-15.1383c0-1.4433 2.6949-7.4503 3.3424-7.4503 .1601,0-.1788,2.025-.753,4.5-1.0066,4.3384-2.5893,6.1419-2.5893,2.9503zm-64.5-4.6364c-3.85-1.1149-7.1439-2.1606-7.3198-2.3236-.751-.6964 3.9853-8.4928 6.0289-9.9242 1.2297-.8613 3.6906-1.5661 5.4685-1.5661 7.2333,0 35.341-15.3547 79.2764-43.3071 12.0377-7.6586 44.4162-25.2194 50.546-27.4142 1.65-.5908 3.8613-1.4216 4.914-1.8464 5.058-2.0407-1.2774,2.6771-22.6971,16.9018-22.0786,14.6622-35.2043,24.0148-45.2111,32.2146-2.4782,2.0307-4.5059,3.4513-4.5059,3.1568 0-.2945 2.1912-2.28 4.8692-4.4123 2.6781-2.1323 8.6379-7.3781 13.2441-11.6574l8.3749-7.7804-16.9941,10.4127c-9.3468,5.727-23.0742,13.8067-30.5054,17.9549-7.4312,4.1482-17.7812,10.2184-23,13.4895-5.2188,3.271-11.8814,7.2368-14.8058,8.8129l-5.3171,2.8655 4.3171,2.2594c2.3744,1.2426 5.4421,2.3113 6.8171,2.3748 2.3003,.1063 2.3402,.1841 .5,.9749-3.0507,1.3109-6.3397,1.0323-14-1.1861zm76-7.667c1.65-1.0134 3.1673-1.409 3.3719-.8791 .4853,1.2573-1.839,2.6989-4.3719,2.7116-1.6334,.0082-1.4501-.3277 1-1.8325zm-226.1673-17.3162c10.5694-8.1283 29.1583-19.2122 35.1673-20.9691 3.7701-1.1023 18.8588-3.4977 27.75-4.4055l6.75-.6892v5.1165c0,3.4128-.4162,5.1251-1.25,5.1423-6.5584,.1354-21.1009,3.784-26.7548,5.3367-8.1824,2.247-33.8965,15.7006-34.8187,15.7642-.9221,.0636-10.3249,18.3505-24.0415,16.7238-3.8314,.6769 6.8214-14.0401 17.1975-22.0197zm239.6673-1.3307c4.0975-4.125 7.6749-7.5 7.9499-7.5 .275,0-2.8525,3.375-6.9499,7.5-4.0975,4.125-7.6749,7.5-7.9499,7.5-.275,0 2.8525-3.375 6.9499-7.5zm-222.5154-1.3078c5.5-2.7303 16.1107-5.4858 21.116-7.179 10.4305-3.5285 28.6967-8.0104 30.3889-5.9715 1.4182,1.7088-4.1661,9.2358-8.0281,11.9858-2.7334,1.9463-3.2542,2.0237-4.7651,.7073-.9329-.8128-4.1053-2.2623-7.0496-3.2211-4.6913-1.5276-6.1136-1.587-11.5-.4802-3.3806,.6947-10.4216,3.0376-15.6466,5.2066-13.4002,5.5626-16.0046,4.6554-4.5154-1.048zm241.701-6.325l-3.6857-5.7376-3.5,3.1852-3.5,3.1852 3.5-3.9368c4.1543-4.6728 7.225-7.484 8.225-7.5299 .3987-.0183 .4556,1.3138 .1263,2.9602-.4595,2.2977 .0229,3.8084 2.0759,6.5 1.471,1.9286 2.5392,3.4931 2.3737,3.4767-.1655-.0164-3.1402,.045-5.6152-2.1029z"/>
<path fill="#939f93" d="m163.028,373.6387c.2674-.2674 7.311-2.5223 15.6524-5.0109 14.3701-4.2871 15.997-5.0441 30.9929-14.4203 12.7464-7.9697 16.7681-10.0013 20.6638-10.4385 4.5653-.5124 4.8049-.4228 4.2637,1.5941-.3154,1.1753-.5796,2.4725-.5871,2.8826-.0075,.4101-9.9816,5.7335-22.1646,11.8299-16.1237,8.0682-23.6744,11.3101-27.75,11.9142-7.7631,1.1508-21.6605,2.2384-21.0711,1.6489zm-55.1967-15.6946c-1.4678-1.0959-4.3928-2.6613-6.5-3.4788l-3.8312-1.4862 4,.5778c2.538,.3666 5.0894,1.6496 6.9808,3.5104 3.442,3.3864 3.1819,3.7374-.6495,.8768zm248.3266-18.9441c0-1.375 .227-1.9375 .5044-1.25 .2774,.6875 .2774,1.8125 0,2.5-.2774,.6875-.5044,.125-.5044-1.25zm-21-62c0-1.375 .227-1.9375 .5044-1.25 .2774,.6875 .2774,1.8125 0,2.5-.2774,.6875-.5044,.125-.5044-1.25zm-153.1579-3.159c7.0041-2.5089 9.5559-4.0539 14.5-8.7787 3.3-3.1537 7.0125-6.2736 8.25-6.9333 1.6904-.9011 2.2662-2.1232 2.315-4.9141 .0771-4.402 5.9418-21.4215 7.5598-21.9386 .7322-.234 .293,3.7347-1.258,11.3691-1.3106,6.4507-2.1521,12.4555-1.8701,13.3441 .282,.8885-.3378,3.3919-1.3773,5.5631-1.0395,2.1712-2.6988,6.535-3.6873,9.6975l-1.7972,5.75-15.5674-.0571-15.5674-.0571 8.5-3.0448zm152.1999-6.841c-.1248-5.0374-.0128-5.3367 1.3319-3.5589 .8075,1.0676 1.4613,2.4176 1.4529,3-.0084,.5824-.4261,.4096-.9282-.3839-.6617-1.0458-1.0239-.3579-1.3166,2.5-.3336,3.2582-.4274,2.9878-.5401-1.5573zm42.6993-50.2315c-.2196-3.7023-.1535-7.7523 .1468-9 .4916-2.0425 .6162-2.086 1.25-.4367 .8883,2.3115 .7429,10.3749-.2465,13.6682-.5563,1.8517-.8546,.7544-1.1503-4.2315zm-21.6672-12.7685c0-1.925 .2058-2.7125 .4573-1.75 .2515,.9625 .2515,2.5375 0,3.5-.2515,.9625-.4573,.175-.4573-1.75zm-2.232-39.0945c0-.6864 .7162-2.0393 1.5915-3.0065 1.4151-1.5637 1.4553-3.0128 .3627-13.0787-1.0483-9.6579-1.6217-11.8342-3.9052-14.8202-3.7572-4.9132-5.9488-5.3892-4.7367-5.3892 .5825,0 2.6908-.0483 2.6945,.6392 .0038,.6875 1.5788,2.3205 3.5,3.6289 3.4504,2.3498 4.174,4.4296 3.695,10.6211-.0851,1.1 .3443,5.2391 .9543,9.1981 1.0879,7.0609 1.0588,7.2577-1.5236,10.3267-1.4479,1.7208-2.6326,2.567-2.6326,1.8807zm-141.5-10.0182c4.95-2.2365 10.35-5.2871 12-6.779 1.65-1.492 3.8713-3.3642 4.9363-4.1605 1.9143-1.4314 1.9144-1.4104 .0086,1.8458-2.271,3.8802-5.2165,5.747-15.8306,10.0326-11.1199,4.4898-11.8214,3.8988-1.1143-.9389zm176.1235-16.426c-.965-2.5147-.6803-3.1636 .4985-1.1363 .5837,1.0038 .8506,2.0357 .5931,2.2931-.2575,.2575-.7487-.2631-1.0917-1.1568zm-2.3137-10.9613c-.0056-3.3 .1765-4.7706 .4047-3.2679 .2282,1.5027 .2328,4.2027 .0102,6-.2226,1.7973-.4093,.5679-.4149-2.7321zm3.1901-10.5c.9955-1.1 2.035-2 2.31-2 .275,0-.3145,.9-1.31,2-.9955,1.1-2.035,2-2.31,2-.275,0 .3145-.9 1.31-2zm-26.3381-20c.4852-1.5401 13.0005-12.6877 21.0237-18.2632 6.8133-4.7347 4.8085,.053-3.8589,6.7077-4.2048,3.2284-10.6823,6.8555-13.1502,9.0555-2.4679,2.2-4.2745,3.325-4.0146,2.5zm-148.1619-1.8823c9.826-5.3 9.7942-8.709 12.6858-6.1177-2.1846-4.6066 .1923-2.9978 .9951-4.5503 3.6426-7.0439 9.0271-4.6567 7.9027,2.8415l-.6661,4.4416-6.254,.502c-3.4397,.2761-7.5836,1.1731-9.2088,1.9933-1.6251,.8202-4.3048,1.7807-5.9548,2.1344-2.9775,.6383-2.9737,.629 .5-1.2447zm227-4.4909c0-.3886 .9499-2.5684 2.1108-4.8441 2.044-4.0066 .2226-3.4205-1.4886-6.3958l.0651-3.887 2.6079,2.3788 2.6079,2.3788-2.5719,5.1212c-2.7293,5.4347-3.3313,6.383-3.3313,5.248z"/>
<path fill="#adc2ad" d="m133.4527,372.1754c-11.2319-4.1087-18.0731-8.1424-23.8429-14.0583-2.8271-2.8986-5.0134-4.1649-8-4.6335-10.3748-1.6278-14.1721-3.6356-29.7224-15.7157-8.463-6.5744-15.9498-12.1848-16.6373-12.4676-.6875-.2828-1.2544-1.0286-1.2597-1.6572-.0053-.6286-4.0189-4.6249-8.9191-8.8805l-8.9094-7.7375-.7232-6.7625c-.3977-3.7194-1.3682-7.748-2.1566-8.9524-1.2716-1.9427-1.1929-2.8458 .6969-8 1.8949-5.168 2.815-6.2593 8.3256-9.8746 3.4074-2.2355 9.1203-5.2237 12.6953-6.6406l6.5-2.5761 17,1.2869c16.5471,1.2526 17.6261,1.4761 40.5,8.392 14.2926,4.3213 32.8741,10.9247 47.4255,16.8537l23.9255,9.7486 13.0745,14.3843c10.1509,11.1678 15.087,15.7288 22.0745,20.3974 4.95,3.3072 9.212,6.1963 9.471,6.4201 .9766,.8438-2.5967,2.2682-5.7268,2.2829-2.376,.0112-7.5845,2.7227-19.2758,10.035-15.4273,9.649-16.6295,10.2036-32.4952,14.9883-9.0614,2.7327-18.1623,5.182-20.2242,5.4427-12.5085,1.5818-13.5153,1.4855-23.7964-2.2754zm213.3412-29.794l-3.7061-1.5603 1.5592-3.8967c1.254-3.1341 1.3523-4.8291 .5023-8.6606-.5813-2.6201-1.5907-9.5803-2.243-15.4672-.6524-5.8868-1.6176-10.6118-2.1449-10.5-.5273,.1118-1.5479-2.0467-2.2679-4.7967-1.3199-5.0414-3.5311-24.2243-3.4492-29.9237l.0442-3.0763 1.9054,3.6052c1.9662,3.7203 14.1952,42.1062 18.0212,56.5672 1.7225,6.5106 1.9908,9.2558 1.3192,13.5-.743,4.6957-1.139,5.3538-3.3386,5.5484-1.3726,.1215-4.1634-.4813-6.2018-1.3394zm-204.7939-71.3217c-22.9039-7.146-29.8841-10.4964-32.2636-15.4863-.9534-1.9992-2.4091-3.8943-3.2349-4.2112-3.4546-1.3257-.2319-18.9649 5.575-30.5143 2.5988-5.1688 3.9236-9.1462 3.9236-11.7804 0-3.1661 1.4586-6.3817 7.1541-15.7722 3.9348-6.4874 7.4348-13.1163 7.7778-14.7308 .6324-2.9767 1.4417-3.4241 8.8181-4.8752 2.5017-.4921 3.25-.2954 3.25,.8547 0,1.6453 1.6573,1.4488 10.5-1.2444 6.0944-1.8562 11.5043-4.8607 13.2565-7.3623 1.0828-1.5459 1.7699-1.6875 4.0246-.8294 1.4954,.5691 5.5546,1.6929 9.0204,2.4972 11.6955,2.7142 44.455-1.5276 57.5087-7.4464l6.6544-3.0172 2.185,3.0685 2.185,3.0685-3.4173,2.8215c-5.6296,4.6482-17.4693,9.9-22.3187,9.9-2.3625,0-9.2083,1.0866-15.2127,2.4147-8.7532,1.936-11.8822,2.2344-15.7858,1.5051-6.5735-1.228-21.4921-1.441-22.5426-.3217-.4656,.4961-1.1402,2.2979-1.4989,4.004l-.6523,3.102 6.7969,.6159c3.7383,.3388 11.747,.9183 17.797,1.2878 14.2621,.8712 19.1619,3.1609 26.5174,12.3922 7.1943,9.029 7.418,9.5628 5.6061,13.381-.8417,1.7738-2.8525,6.1718-4.4684,9.7734-1.6159,3.6016-3.6139,6.8077-4.44,7.1247-1.8017,.6914-7.715,17.8895-7.715,22.4382 0,2.3093-.6325,3.5495-2.25,4.4117-1.2375,.6596-4.95,3.7789-8.25,6.9316-5.0411,4.8161-7.4111,6.2283-14.8297,8.8358-12.8647,4.5219-17.0426,4.2231-39.6703-2.8367zm227.8309-43.0597c-6.1072-.4579-10.7487-1.9637-6.2476-2.0269 1.0542-.0148 3.4379-1.2886 5.2972-2.8308 2.806-2.3273 3.4596-3.6399 3.8459-7.7231 .4107-4.3409 .1551-5.2091-2.1746-7.3849-2.1657-2.0228-3.683-2.4719-8.4463-2.5l-5.8064-.0343-1.1496-5.5602c-1.9138-9.2564-1.0491-12.7611 2.435-9.8696 .9199,.7635 3.9864,1.1618 7.955,1.0333 5.7965-.1876 6.7031,.0553 8.8499,2.3718 2.6612,2.8715 4.0343,9.5053 2.8541,13.7893-.4189,1.5205-.5048,6.0205-.191,10 .8757,11.1056 .724,11.3312-7.2217,10.7355zm-2.0341-42.1925c-.886-2.511 .737-5.7726 5.2428-10.5361 9.486-10.0286 11.8354-14.8624 14.47-29.7714 1.0231-5.7894 .9995-7.467-.1363-9.7003-.7553-1.4852-1.3733-5.3882-1.3733-8.6733 0-4.9122 .444-6.5006 2.5-8.944 1.375-1.6341 2.5-3.4686 2.5-4.0767 0-.6081 .3911-1.1056 .8692-1.1056 .478,0 1.1188-1.5387 1.424-3.4192 .8876-5.4696 3.4451-8.5784 7.0718-8.5961 4.4483-.0217 5.2803-.886 5.8499-6.0772 .4628-4.2174 1.1892-5.2453 8.8945-12.5856 4.6148-4.3962 10.253-9.6491 12.5292-11.6732l4.1386-3.6802 7.4257,5.3695c3.6363,3.5131 5.797,7.9114 5.797,8.5298 0,.6184-2.6578,6.8637-5.9062,13.8783-3.2484,7.0146-9.8484,21.3039-14.6666,31.7539-4.8182,10.45-10.1479,20.585-11.8438,22.5222-1.6959,1.9372-7.319,10.5545-12.4957,19.1496l-9.4122,15.6274-4.7909,.9473c-2.9149,.5763-5.151,.5872-5.7106,.0276-.809-.809-6.0956,.1074-10.6076,1.8388-.7196,.2761-1.516-.0863-1.7697-.8054zm-28.0765-23.6337c-8.3788-8.5282-9.7254-10.3615-9.757-13.2837-.0202-1.8646-.6223-6.4149-1.338-10.1119l-1.3012-6.7218 7.5914-2.5282c4.1753-1.3905 8.3226-2.5282 9.2164-2.5282 .8937,0 3.4119,2.3625 5.5959,5.25 3.794,5.0161 4.0263,5.7543 5.2131,16.5702 1.1057,10.0768 1.0673,11.5134-.3493,13.0787-.8753,.9672-1.6015,2.6231-1.6137,3.6798-.0122,1.0567-.8131,2.9489-1.7797,4.2049l-1.7575,2.2837-9.7203-9.8936zm-158.2203-3.7102c-8.377-.9753-14.5215-3.0713-15.9956-5.4565-1.1909-1.9269-3.7699-1.1304-3.2147,.9929 .9618,3.6779-.7659,2.0071-2.868-2.7736-1.6987-3.8632-2.7945-4.9799-6-6.114-8.6554-3.0624-8.7938-3.1403-7.6359-4.2982 .8153-.8153 1.7954-.6634 3.6781,.5702 1.4116,.9249 4.5303,2.0486 6.9304,2.497 3.6959,.6905 4.9563,.4566 8.2347-1.5279 3.8217-2.3134 7.3709-3.0776 7.3709-1.5871 0,.4215 2.4328,2.2215 5.4063,4 6.2466,3.7363 11.2105,4.1349 22.2783,1.7891 16.5366-3.5049 25.5598-8.7681 33.5975-19.5973 3.1448-4.2371 5.7179-8.211 5.7179-8.831 0-2.1863 6.5441-.7578 7.4597,1.6284 1.1435,2.98-9.7862,17.1508-19.7428,25.5972-13.4787,11.4343-26.6965,15.2668-45.217,13.1107zm-46.9306-1.1326c-1.6748-.9053-5.103-1.5441-8-1.4907l-5.0694,.0935 4.2113-3.9669c2.3162-2.1818 4.8503-3.9669 5.6313-3.9669 1.7689,0 7.6574,5.9134 7.6574,7.6898 0,.7206 0,1.6477 0,2.0602 0,1.3352-1.4368,1.1994-4.4306-.419zm14.4306-41.6031c0-2.7687 1.2692-4.5342 8.25-11.4765 9.2128-9.1619 18.5988-14.7737 38.75-23.1681 15.9239-6.6335 22.1976-7.8323 29.1466-5.5695 2.9444,.9587 6.1479,2.4364 7.1189,3.2837 1.6845,1.4699 1.6788,1.636-.125,3.6215-1.0398,1.1445-2.3849,3.0417-2.9891,4.2159-.6042,1.1742-2.3479,2.4391-3.875,2.8109-1.527,.3717-4.3514,1.6917-6.2764,2.9332-5.5153,3.5571-15.949,7.3023-22.5,8.0763-4.2495,.5021-8.334,1.972-14,5.0383-4.4,2.3812-10.925,5.0656-14.5,5.9654-3.575,.8998-9.038,2.9646-12.14,4.5884-3.102,1.6238-5.9145,2.9524-6.25,2.9524-.3355,0-.61-1.4724-.61-3.2721zm184.1829-11.0777l-4.3171-2.2594 5.3171-2.8655c2.9244-1.576 9.587-5.5419 14.8058-8.8129 5.2188-3.271 15.5688-9.3413 23-13.4895 7.4312-4.1482 21.1586-12.2279 30.5054-17.9549l16.9941-10.4127-7.9941,7.3981c-10.5199,9.7356-19.9499,17.5726-25.4414,21.1439-7.982,5.1909-19.4478,14.6216-24.5527,20.1948-4.454,4.8626-5.7903,5.6743-12.2373,7.4333-9.0455,2.4679-10.7221,2.4288-16.0798-.3751z"/>
<path fill="#424a43" d="m125.6301,172.1358c-2.4077-2.5131-2.7064-3.5214-2.4371-8.2257 .4026-7.0317 2.3848-8.2187 10.3404-6.1925l5.5238,1.4069 4.7502-3.8123c3.0669-2.4613 4.6254-4.4324 4.398-5.5623-.1937-.9625-.0763-1.75 .261-1.75 2.397,0 9.1202,4.8664 13.9897,10.1261l5.7932,6.2573-3.5364,3.2409c-2.1792,1.9971-6.1314,4.0424-10.298,5.3293l-6.7616,2.0885-2.8151-2.6971c-1.5483-1.4834-3.0792-3.5291-3.4019-4.546-.5111-1.6103-1.2364-1.2649-5.6197,2.6761-2.7681,2.4887-5.575,4.525-6.2376,4.525-.6626,0-2.4396-1.2889-3.9488-2.8642z"/>
<path fill="#c28e8e" d="m177.5,144.8407c-2.75-1.7167-5.225-3.4407-5.5-3.8311-.275-.3904-1.1072-.9047-1.8494-1.1429-.7422-.2382 3.5328-3.4018 9.5-7.0301 10.6539-6.4782 13.4006-7.7667 17.699-8.3029 1.1827-.1475 5.0755-1.4152 8.6505-2.817 5.9106-2.3176 31.6135-6.4367 32.7946-5.2556 .2319,.2319 .2814,2.9531-1.6495,3.7599-1.9308,.8068-5.1953,3.1956-7.9582,5.3086-4.0858,3.1247-4.1227,2.1237-6.4711,7.8108-2.7458,6.6498-6.5812,8.2326-11.2243,9.9565-6.9502,2.5806-17.754,4.7062-23.807,4.684-4.05-.0148-6.2789-.7021-10.1846-3.1403z"/>
<path fill="#f7f4f4" d="m184.8526,146.3304c-.9061-.2407-1.8675-1.201-2.1365-2.134-.269-.933-.795-2.436-1.1687-3.3399-.9256-2.2385 12.3087-9.5766 17.9805-9.9699 4.8645-.3373 6.0862,.314 6.7099,3.5771 .3479,1.82-.1394,2.897-1.8048,3.9881-1.2548,.8221-2.5627,2.3813-2.9066,3.4649-.9578,3.0176-11.4617,5.7981-16.6738,4.4137z"/>
<path fill="#965555" d="m217,140.6087c0-.3232 1.1554-3.4049 2.5676-6.8482 2.0225-4.9313 3.6355-7.0762 7.5975-10.1023 5.8813-4.492 11.8349-7.2812 11.8349-5.5444 0,1.7956-11.2764,16.6318-13.5,17.7618-1.1,.559-3.4625,1.9849-5.25,3.1686-1.7875,1.1837-3.25,1.8877-3.25,1.5645z"/>
<path fill="#616155" d="m376.7182,297.7618c-8.9151-4.8042-19.1416-13.4908-25.4568-21.6235l-4.3492-5.601-6.0545-12.7581c.0292-5.7853-4.4927-14.5552-5.321-19.7375-1.3851-8.6664 3.7209-10.0736 5.2932-15.2036 2.0364-6.6439 13.9012-13.2002 18.3732-14.7591 4.952-1.7263 10.2513-1.3392 12.2746,.8965 2.1428,2.3677 1.6666,10.3086-.7638,12.7391-1.3446,1.3446-1.5812,1.2791-2.1786-.6031-.8768-2.7627-1.9167-2.6648-6.3521,.598-2.0258,1.4903-3.8036,2.773-3.9506,2.8506-1.1938,.6301-1.6154,12.6103-.5697,16.1901 3.9393,13.486 18.1472,30.4073 31.1016,37.0415 6.8482,3.5071 12.8856,4.3451 11.8495,1.6449-.33-.8598 .0719-2.8625 .893-4.4503 1.9225-3.7177-1.0166-7.0422-3.172-16.3003-1.7212-7.393 .7246-9.0867 2.8487-11.3787 1.1761-1.269 2.7874-2.3074 3.0829-2.3074 .2955,0 2.224,5.2177 4.2854,11.595 3.9293,12.1556 4.6183,19.1029 2.9815,30.063-1.0578,7.0831-7.1549,13.2695-14.2236,14.4319-9.4902,1.5606-12.3893,1.092-20.5916-3.3281z"/>
<path fill="#a9a98a" d="m398.19,275.44c-.7205-.8162-1.7237-1.2282-2.2293-.9157-.5057,.3125-1.7398,.1291-2.7426-.4075-2.3458-1.2554-4.4888-12.676-2.9908-15.3527 .8529-1.5241-.7704,.7787 3.3163-4.9011 6.4573-5.6744 5.6948-5.8215 7.786,3.91 1.9688,9.162 2.0924,13.2066 .5098,16.6801-1.3283,2.9154-1.8279,3.0505-3.6494,.9871zm-56.1425-13.3454c-4.0886-8.1318-7.0483-19.0141-7.0468-25.91 .0018-8.3737 8.1358-19.8629 18.1376-25.6193l3.7688-1.5275-4.9444,5.0275c-2.79,3.3419-5.1955,7.5825-6.2467,11.0123-1.5731,5.1323-1.589,6.3298-.2002,15 1.3352,8.3355 2.0169,28.7231 .9946,29.7454-.2112,.2112-2.2195-3.2666-4.4628-7.7283z"/>
<path fill="#e5e5dc" d="m393.8639,264.9837c-.8998-.5255-1.9432-2.5925-2.3185-4.5933-.584-3.1131-.285-4.0527 2.0732-6.5141 1.5156-1.5819 3.0673-2.8762 3.4483-2.8762 .8195,0 1.8413,11.9368 1.1771,13.75-.5404,1.475-2.111,1.5588-4.38,.2337z"/>
<path fill="#fff" d="m260.2045,337.168l-3.2955-2.6908 3.1691-6.9886c7.4517-16.4327 11.8272-36.7885 11.8902-55.3156 .0174-5.1298-.6864-17.2612-1.5641-26.9587-1.959-21.6449-1.369-25.2144 4.1673-25.2144 3.6553,0 5.8465,2.5056 3.4737,3.972-.9679,.5982-.6477,3.4226 1.4341,12.6491 4.2033,18.6292 5.724,34.8389 4.4447,47.3789-1.1891,11.6569-9.381,40.368-12.4527,43.6447-.9565,1.0204-3.1414,4.186-4.8553,7.0347l-3.1161,5.1794-3.2955-2.6908z"/>
<path fill="#797975" d="m306.1498,359.2587c-10.1177-1.277-10.6794-1.4878-25-9.3791-8.0574-4.44-15.2464-8.642-15.9757-9.3378-1.0943-1.0441-.7614-2.2062 1.9059-6.6534 1.7775-2.9636 3.8536-5.9004 4.6135-6.5261 2.6386-2.1727 11.0827-32.1106 12.2306-43.3623 1.2809-12.5564-.2421-28.7525-4.463-47.4604-1.8583-8.2363-2.3502-12.0765-1.5798-12.3333 .6153-.2051 1.1187-1.0104 1.1187-1.7896 0-1.7855-.0255-1.7878 5.1671,.4537 16.3412,7.0539 34.2141,30.8345 42.318,56.3059 5.2396,16.4685 7.4916,32.6581 7.5044,53.9488 .0148,24.585 .5611,23.0928-9.3278,25.4744-7.518,1.8106-8.9778,1.8626-18.5119,.6592z"/>
</g>
</svg>
