<svg xmlns="http://www.w3.org/2000/svg" viewBox="0 0 160 160" xmlns:xlink="http://www.w3.org/1999/xlink">
<defs>
<linearGradient gradientTransform="translate(-2.65767 -.20124)" xlink:href="#linearGradient67" id="linearGradient89" y1="1.147" x1="2.696" y2=".623" x2="3.851" gradientUnits="objectBoundingBox"/>
<linearGradient id="linearGradient67">
<stop offset="0" stop-color="#d7ffff" stop-opacity=".898"/>
<stop offset="1" stop-color="#2ea6b9" stop-opacity=".953"/>
</linearGradient>
<linearGradient id="2" y1="119.147" x1="255.848" y2="34.101" x2="375.686" gradientUnits="userSpaceOnUse">
<stop offset="0" stop-color="#fff"/>
<stop offset="1"/>
</linearGradient>
<radialGradient cx="0" cy="0" gradientTransform="matrix(.94588 0 0 1.05722 .26437 .25)" r=".773" id="radialGradient88" gradientUnits="objectBoundingBox">
<stop offset="0" stop-color="#cdffff"/>
<stop offset="1" stop-color="#0c5d7d" stop-opacity=".906"/>
</radialGradient>
</defs>
<g transform="matrix(.73251 .24219 -.24219 .73251 77.0658 -8.92159)">
<path stroke-opacity=".99" fill="url(#radialGradient88)" stroke="#0c5d7d" stroke-width="4.036" d="m35.399,39.1321h241.82l100,98.8519v410.214h-341.82v-509.0659z" transform="matrix(.26888 0 0 .2748 19.4694 1.40208)"/>
<path stroke-opacity=".82" fill="#fff" stroke="#2ea6b9" fill-opacity=".699" stroke-width="16.271" d="m23.9471,20.1241h241.8199l100,99.9999v414.979h-341.8199v-514.9789z" transform="matrix(.26888 0 0 .26888 19.4694 3.44236)"/>
<path fill="url(#2)" d="m276.767,133.124l89-13-100-99.9999" transform="matrix(.26888 0 0 .26888 19.4694 3.44236)"/>
<path stroke-opacity=".91" fill="url(#linearGradient89)" stroke="#2ea6b9" stroke-linejoin="round" stroke-linecap="round" stroke-width="11.623" d="m265.767,120.124h100l-100-99.9999v99.9999" transform="matrix(.26888 0 0 .26888 19.9741 3.94709)"/>
</g>
<g transform="matrix(.73251 .24219 -.24219 .73251 53.8482 4.20139)">
<path stroke-opacity=".99" fill="url(#radialGradient88)" stroke="#0c5d7d" stroke-width="4.036" d="m35.399,39.1321h241.82l100,98.8519v410.214h-341.82v-509.0659z" transform="matrix(.26888 0 0 .2748 19.4694 1.40208)"/>
<path stroke-opacity=".82" fill="#fff" stroke="#2ea6b9" fill-opacity=".699" stroke-width="16.271" d="m23.9471,20.1241h241.8199l100,99.9999v414.979h-341.8199v-514.9789z" transform="matrix(.26888 0 0 .26888 19.4694 3.44236)"/>
<path fill="url(#2)" d="m276.767,133.124l89-13-100-99.9999" transform="matrix(.26888 0 0 .26888 19.4694 3.44236)"/>
<path stroke-opacity=".91" fill="url(#linearGradient89)" stroke="#2ea6b9" stroke-linejoin="round" stroke-linecap="round" stroke-width="11.623" d="m265.767,120.124h100l-100-99.9999v99.9999" transform="matrix(.26888 0 0 .26888 19.9741 3.94709)"/>
</g>
<g transform="matrix(.73251 .24219 -.24219 .73251 28.1069 16.8197)">
<path stroke-opacity=".99" fill="url(#radialGradient88)" stroke="#0c5d7d" stroke-width="4.036" d="m35.399,39.1321h241.82l100,98.8519v410.214h-341.82v-509.0659z" transform="matrix(.26888 0 0 .2748 19.4694 1.40208)"/>
<path stroke-opacity=".82" fill="#fff" stroke="#2ea6b9" fill-opacity=".699" stroke-width="16.271" d="m23.9471,20.1241h241.8199l100,99.9999v414.979h-341.8199v-514.9789z" transform="matrix(.26888 0 0 .26888 19.4694 3.44236)"/>
<path fill="url(#2)" d="m276.767,133.124l89-13-100-99.9999" transform="matrix(.26888 0 0 .26888 19.4694 3.44236)"/>
<path stroke-opacity=".91" fill="url(#linearGradient89)" stroke="#2ea6b9" stroke-linejoin="round" stroke-linecap="round" stroke-width="11.623" d="m265.767,120.124h100l-100-99.9999v99.9999" transform="matrix(.26888 0 0 .26888 19.9741 3.94709)"/>
</g>
</svg>
