<svg width="160" xmlns="http://www.w3.org/2000/svg" height="160" viewBox="0 0 507.946 507.946" xmlns:xlink="http://www.w3.org/1999/xlink">
<defs>
<radialGradient stroke-opacity=".986" cx="218.94" cy="219.772" stroke="#000" id="aigrd1" r="150.706" stroke-width=".982" gradientUnits="userSpaceOnUse">
<stop offset="0" stop-color="#73ffff"/>
<stop offset=".281" stop-color="#2ea6b9"/>
<stop offset="1" stop-color="#006b8b"/>
</radialGradient>
<radialGradient cx="0" cy="0" gradientTransform="matrix(1.06784 0 0 .93647 .34222 .34471)" xlink:href="#aigrd1" id="radialGradient92" r=".789" gradientUnits="objectBoundingBox"/>
</defs>
<path fill="#a4c9ee" fill-opacity=".7" d="m134.757,263.776c0,66.739 54.298,121.04 121.039,121.04 66.739,0 121.039-54.301 121.039-121.04 0-66.741-54.3-121.039-121.039-121.039-66.741,0-121.039,54.298-121.039,121.039z" transform="matrix(1.89511 0 0 1.91236 -231.458 -247.971)"/>
<g stroke-opacity=".988">
<path fill="url(#radialGradient92)" stroke="#1c6671" fill-rule="evenodd" stroke-width="7.725" d="m356.643,263.366c0,57.027-46.23,103.257-103.256,103.257-57.027,0-103.256-46.229-103.256-103.257 0-57.027 46.229-103.256 103.256-103.256 57.025,0 103.256,46.229 103.256,103.256z" transform="matrix(2.04451 0 0 2.04451 -264.353 -281.723)"/>
<path opacity=".7" fill="#fff" stroke="#1c6772" stroke-width="3.87" d="m246.07,280.233l-81.34,.544c-13.608,.086-19.587-15.237-19.309-25.519-.646-8.205 3.431-23.116 19.008-24.264l79.787-1.983-2.263-75.59c-.157-15.132 15.722-24.711 25.451-23.814 10.881-.951 23.304,8.318 24.284,20.626 0,5.274 1.343,59.359 1.521,80.527l75.98-2.972c13.162-1.04 25.843,11.427 25.871,22.037 .028,10.881-1.556,25.017-20.965,25.384l-76.89,1.807 2.211,83.505c.086,10.837-14.312,18.663-22.746,18.385-8.205,.646-25.426-2.045-26.574-17.622l-4.026-81.051z" transform="matrix(.9084 -.86476 .86476 .9084 -204.249 267.198)"/>
</g>
</svg>
