<?xml version="1.0" encoding="UTF-8" standalone="no"?>
<!-- Created with Inkscape (http://www.inkscape.org/) -->
<svg
   xmlns:svg="http://www.w3.org/2000/svg"
   xmlns="http://www.w3.org/2000/svg"
   version="1.0"
   width="128pt"
   height="128pt"
   viewBox="0 0 128 128"
   id="svg2">
  <defs
     id="defs196" />
  <g
     id="#9d9b9cf3">
    <path
       d="M 35.64,33.86 C 37.88,31.76 41.52,31.12 44.3,32.66 C 44.19,33.49 43.97,35.16 43.86,35.99 C 41.25,35.97 38.63,35.93 36.02,35.87 C 35.93,35.36 35.74,34.36 35.64,33.86 z"
       id="path5"
       style="opacity:0.95;fill:#9d9b9c" />
  </g>
  <g
     id="#6b6a6a9e">
    <path
       d="M 83.77,32.52 C 85.74,31.07 87.84,31.1 90.06,32.62 C 88.04,33.5 85.76,33.45 83.77,32.52 z"
       id="path8"
       style="opacity:0.62000002;fill:#6b6a6a" />
  </g>
  <g
     id="#464445ef">
    <path
       d="M 44.3,32.66 C 47.76,33.88 49.49,37.68 48.92,41.17 C 47.62,39.1 45.82,37.43 43.86,35.99 C 43.97,35.16 44.19,33.49 44.3,32.66 z"
       id="path11"
       style="opacity:0.93999999;fill:#464445" />
  </g>
  <g
     id="#454344f8">
    <path
       d="M 78.39,37.99 C 79.48,35.97 80.97,34.13 83,33.01 C 83.66,34.07 84.33,35.14 85.04,36.17 C 82.98,37.14 81.07,38.37 79.31,39.81 C 79.08,39.36 78.62,38.45 78.39,37.99 z"
       id="path14"
       style="opacity:0.97000002;fill:#454344" />
  </g>
  <g
     id="#a6a4a5fd">
    <path
       d="M 83,33.01 L 83.77,32.52 C 85.76,33.45 88.04,33.5 90.06,32.62 C 91.15,33.64 92.19,34.73 93.14,35.88 C 92.68,35.96 91.77,36.12 91.31,36.2 C 89.22,36.18 87.13,36.14 85.04,36.17 C 84.33,35.14 83.66,34.07 83,33.01 z"
       id="path17"
       style="opacity:1;fill:#a6a4a5" />
    <path
       d="M 63.17,62.98 C 56.83,62.26 57.61,52.64 64,52.96 C 70.42,52.62 71.13,62.07 64.87,62.98 C 64.44,62.98 63.59,62.98 63.17,62.98 z"
       id="path19"
       style="opacity:1;fill:#a6a4a5" />
  </g>
  <g
     id="#676565fd">
    <path
       d="M 33.68,36.67 C 34.28,35.7 34.9,34.73 35.64,33.86 C 35.74,34.36 35.93,35.36 36.02,35.87 C 36.39,37.84 39.55,36.63 41.06,37.3 C 36.48,37.74 37.03,43.44 36.01,46.79 C 39.21,48.07 45.36,47.21 44,52.14 C 40.75,50.62 38.03,48.1 34.03,48.76 C 33.97,44.62 38.27,39.49 33.68,36.67 z"
       id="path22"
       style="opacity:1;fill:#676565" />
  </g>
  <g
     id="#0d0d0dff">
    <path
       d="M 36.02,35.87 C 38.63,35.93 41.25,35.97 43.86,35.99 C 45.82,37.43 47.62,39.1 48.92,41.17 C 48.91,41.69 48.88,42.73 48.87,43.24 C 46.21,41.36 44.01,38.61 41.06,37.3 C 39.55,36.63 36.39,37.84 36.02,35.87 z"
       id="path25"
       style="opacity:1;fill:#0d0d0d" />
  </g>
  <g
     id="#0a0a0aff">
    <path
       d="M 85.04,36.17 C 87.13,36.14 89.22,36.18 91.31,36.2 C 89.86,36.56 88.4,36.89 86.95,37.25 C 83.75,38.22 81.67,41.16 79.07,43.11 C 79.13,42.29 79.25,40.64 79.31,39.81 C 81.07,38.37 82.98,37.14 85.04,36.17 z"
       id="path28"
       style="opacity:1;fill:#0a0a0a" />
  </g>
  <g
     id="#696868ff">
    <path
       d="M 91.31,36.2 C 91.77,36.12 92.68,35.96 93.14,35.88 C 91.55,40.16 92.94,44.55 93.98,48.76 C 88.7,47.89 85.07,51.68 80.95,54.06 C 83.28,49.78 87.42,47.72 91.95,46.76 C 91.33,43.29 91.05,38.22 86.95,37.25 C 88.4,36.89 89.86,36.56 91.31,36.2 z"
       id="path31"
       style="opacity:1;fill:#696868" />
  </g>
  <g
     id="#949293fb">
    <path
       d="M 93.14,35.88 C 95.18,38.31 97.24,40.85 98.01,44 C 98.41,49.15 102.53,52.09 104.4,45.75 C 105.78,46.1 107.09,46.66 108.28,47.46 C 103.96,47.43 103.16,52.02 101.87,55.16 C 100.24,51.88 98.05,48.79 93.98,48.76 C 92.94,44.55 91.55,40.16 93.14,35.88 z"
       id="path34"
       style="opacity:1;fill:#949293" />
  </g>
  <g
     id="#949192fb">
    <path
       d="M 29.21,44.19 C 30.42,41.52 32.08,39.11 33.68,36.67 C 38.27,39.49 33.97,44.62 34.03,48.76 C 31.31,49.13 28.87,50.46 26.84,52.25 C 27.7,49.59 28.51,46.91 29.21,44.19 z"
       id="path37"
       style="opacity:1;fill:#949192" />
  </g>
  <g
     id="#393839fd">
    <path
       d="M 41.06,37.3 C 44.01,38.61 46.21,41.36 48.87,43.24 C 53.32,52.1 61.14,42.11 67.89,45.58 C 68.43,49.47 67.4,50.8 64.01,48.19 C 61,52.55 53.49,52.84 53.22,58.92 C 55.34,61.82 58.56,63.57 62.17,63 C 61.61,69.52 63.15,81.43 54.31,83.39 C 51.48,83.27 48.66,83.16 45.83,83.09 C 44.74,81.49 45.5,80.13 46.78,78.98 C 50.57,83.51 57.24,79.27 56.17,73.95 C 54.73,71.39 51.66,70.9 48.99,71.11 C 44,62.66 35.86,56.68 26.24,55.31 C 26.44,54.29 26.64,53.27 26.84,52.25 C 28.87,50.46 31.31,49.13 34.03,48.76 C 38.03,48.1 40.75,50.62 44,52.14 C 45.36,47.21 39.21,48.07 36.01,46.79 C 37.03,43.44 36.48,37.74 41.06,37.3 z"
       id="path40"
       style="opacity:1;fill:#393839" />
  </g>
  <g
     id="#3b3a3bfe">
    <path
       d="M 79.07,43.11 C 81.67,41.16 83.75,38.22 86.95,37.25 C 91.05,38.22 91.33,43.29 91.95,46.76 C 87.42,47.72 83.28,49.78 80.95,54.06 C 85.07,51.68 88.7,47.89 93.98,48.76 C 98.05,48.79 100.24,51.88 101.87,55.16 C 102.84,57.16 105.23,56.96 107.07,57.38 C 103.47,58.35 99.25,58.05 96.03,60.19 C 96.43,63.2 95.74,68.8 100.18,68.25 C 95.67,69.48 91.46,71.64 88.18,75.01 C 87.99,72.91 87.55,70.84 86.82,68.86 C 83.41,71.75 83.68,77.13 84.58,81.2 C 84.47,81.71 84.25,82.72 84.14,83.23 C 81,83.2 77.87,83.2 74.74,83.24 C 64.51,82.52 65.83,70.29 65.88,63 C 71.97,64.59 75.85,55.8 69.97,52.93 C 71.17,51.25 72.58,49.73 73.85,48.09 C 75.11,46.61 76.52,45.28 77.98,44 C 78.26,43.78 78.8,43.33 79.07,43.11 M 73.72,71.71 C 72.05,72.46 69.63,76.87 71.57,76.7 C 71.9,82.1 81.05,82.17 81.35,76.75 C 83.46,75.95 77.34,66.72 73.72,71.71 z"
       id="path43"
       style="opacity:1;fill:#3b3a3b" />
  </g>
  <g
     id="#23222367">
    <path
       d="M 77.98,44 C 78.09,42.5 78.29,39.5 78.39,37.99 C 78.62,38.45 79.08,39.36 79.31,39.81 C 79.25,40.64 79.13,42.29 79.07,43.11 C 78.8,43.33 78.26,43.78 77.98,44 z"
       id="path46"
       style="opacity:0.4;fill:#232223" />
  </g>
  <g
     id="#4e4d4ef4">
    <path
       d="M 22.69,45.79 C 24.86,45.23 27.03,44.69 29.21,44.19 C 28.51,46.91 27.7,49.59 26.84,52.25 C 24.87,50.51 23.71,48.16 22.69,45.79 z"
       id="path49"
       style="opacity:0.95999995;fill:#4e4d4e" />
  </g>
  <g
     id="#656464f8">
    <path
       d="M 98.01,44 C 100.13,44.6 102.26,45.18 104.4,45.75 C 102.53,52.09 98.41,49.15 98.01,44 z"
       id="path52"
       style="opacity:0.97000002;fill:#656464" />
  </g>
  <g
     id="#7c7a7bfa">
    <path
       d="M 18.93,47.62 C 20.09,46.85 21.36,46.21 22.69,45.79 C 23.71,48.16 24.87,50.51 26.84,52.25 C 26.64,53.27 26.44,54.29 26.24,55.31 C 25.27,56.1 24.24,56.83 22.95,56.96 C 21.36,54.28 22.97,48.31 18.93,47.62 z"
       id="path55"
       style="opacity:0.98000004;fill:#7c7a7b" />
  </g>
  <g
     id="#5a5a5cfd">
    <path
       d="M 64.01,48.19 C 67.4,50.8 68.43,49.47 67.89,45.58 C 69.9,46.36 71.84,47.31 73.85,48.09 C 72.58,49.73 71.17,51.25 69.97,52.93 C 75.85,55.8 71.97,64.59 65.88,63 L 64.87,62.98 C 71.13,62.07 70.42,52.62 64,52.96 C 57.61,52.64 56.83,62.26 63.17,62.98 L 62.17,63 C 58.56,63.57 55.34,61.82 53.22,58.92 C 53.49,52.84 61,52.55 64.01,48.19 z"
       id="path58"
       style="opacity:1;fill:#5a5a5c" />
  </g>
  <g
     id="#b0aeaffb">
    <path
       d="M 10.72,59.73 C 12.12,54.91 14.74,50.57 18.93,47.62 C 22.97,48.31 21.36,54.28 22.95,56.96 L 21.96,57.19 C 20.63,57.44 19.32,57.8 18.03,58.22 C 15.7,59.17 13.25,59.75 10.72,59.73 z"
       id="path61"
       style="opacity:1;fill:#b0aeaf" />
  </g>
  <g
     id="#b9b7b8fc">
    <path
       d="M 101.87,55.16 C 103.16,52.02 103.96,47.43 108.28,47.46 C 114.11,50.52 115.9,57.11 118.25,62.78 C 111.41,58.19 116.8,65.07 116.99,69.1 C 115.1,68.53 113.19,68.01 111.24,67.76 C 104.13,69.75 102.98,64.1 102.96,59 C 106.41,58.85 109.81,59.49 113.23,59.88 C 111.43,58.51 109.3,57.69 107.07,57.38 C 105.23,56.96 102.84,57.16 101.87,55.16 z"
       id="path64"
       style="opacity:1;fill:#b9b7b8" />
  </g>
  <g
     id="#2a292aff">
    <path
       d="M 26.24,55.31 C 35.86,56.68 44,62.66 48.99,71.11 C 47.19,73.09 44.99,75.36 46.58,78.18 L 46.78,78.98 C 45.5,80.13 44.74,81.49 45.83,83.09 C 45.35,83.14 44.38,83.23 43.9,83.28 C 43.81,82.96 43.62,82.32 43.53,82 C 45.37,79.34 43.29,69.03 39.62,75.05 C 35.89,72.49 40.47,70.28 41.76,67.83 C 41.43,64.25 37.42,62.86 34.96,60.95 C 28.52,61.9 38.12,71.98 31.12,69.05 C 30.67,63.58 29.26,56.48 21.96,57.19 L 22.95,56.96 C 24.24,56.83 25.27,56.1 26.24,55.31 z"
       id="path67"
       style="opacity:1;fill:#2a292a" />
  </g>
  <g
     id="#4f4d4eff">
    <path
       d="M 18.03,58.22 C 19.32,57.8 20.63,57.44 21.96,57.19 C 29.26,56.48 30.67,63.58 31.12,69.05 C 30.02,68.82 28.92,68.59 27.82,68.36 C 28.39,68.23 29.54,67.98 30.11,67.86 C 26.59,64.11 22.22,61.18 18.03,58.22 z"
       id="path70"
       style="opacity:1;fill:#4f4d4e" />
  </g>
  <g
     id="#8d8b8cff">
    <path
       d="M 107.07,57.38 C 109.3,57.69 111.43,58.51 113.23,59.88 C 109.81,59.49 106.41,58.85 102.96,59 C 102.98,64.1 104.13,69.75 111.24,67.76 C 107.54,67.84 103.86,67.94 100.18,68.25 C 95.74,68.8 96.43,63.2 96.03,60.19 C 99.25,58.05 103.47,58.35 107.07,57.38 z"
       id="path73"
       style="opacity:1;fill:#8d8b8c" />
  </g>
  <g
     id="#807f7ffb">
    <path
       d="M 10.72,59.73 C 13.25,59.75 15.7,59.17 18.03,58.22 C 22.22,61.18 26.59,64.11 30.11,67.86 C 29.54,67.98 28.39,68.23 27.82,68.36 C 23.8,68.09 19.79,67.88 15.77,67.74 C 18.86,67.28 21.99,67.08 25.11,66.87 C 22.26,65.44 19.83,63.26 16.89,62.02 C 12.67,61.02 11.62,66.07 11.07,69.13 C 10.16,69.52 9.24,69.91 8.32,70.29 C 8.35,68.43 8.42,66.57 8.28,64.72 C 9.03,63.03 9.85,61.37 10.72,59.73 z"
       id="path76"
       style="opacity:1;fill:#807f7f" />
  </g>
  <g
     id="#151415fa">
    <path
       d="M 31.12,69.05 C 38.12,71.98 28.52,61.9 34.96,60.95 C 37.42,62.86 41.43,64.25 41.76,67.83 C 40.47,70.28 35.89,72.49 39.62,75.05 C 41.54,76.97 42.85,79.37 43.53,82 C 43.62,82.32 43.81,82.96 43.9,83.28 L 44.11,84.13 C 44.45,90.09 41.6,96.5 36.26,99.42 C 37.65,97 39.24,94.68 40.22,92.05 C 41.99,86.81 41.22,80.49 37.11,76.57 C 31.51,69.3 20.95,67.31 12.81,71.3 C 11.88,71.61 10.95,71.97 10.17,72.57 C 8.39,73.84 6.92,75.48 5.62,77.21 C 5.09,77.98 4.37,78.78 4.4,79.78 C 4.17,82.92 4.01,86.09 4.13,89.25 C 3.89,93.68 7.54,96.86 9.84,100.23 C 5.2,97.71 1.64,93.6 0,88.59 L 0,81.41 C 1.12,78.85 2.31,76.33 3.72,73.91 C 5.35,72.83 6.88,71.61 8.32,70.29 C 9.24,69.91 10.16,69.52 11.07,69.13 C 12.62,68.61 14.16,68.04 15.77,67.74 C 19.79,67.88 23.8,68.09 27.82,68.36 C 28.92,68.59 30.02,68.82 31.12,69.05 z"
       id="path79"
       style="opacity:0.98000004;fill:#151415" />
  </g>
  <g
     id="#7c7b7bfb">
    <path
       d="M 116.99,69.1 C 116.8,65.07 111.41,58.19 118.25,62.78 C 118.49,63.27 118.96,64.25 119.2,64.73 C 119.63,66.96 120.12,69.18 120.66,71.38 C 119.43,70.63 118.19,69.89 116.99,69.1 z"
       id="path82"
       style="opacity:1;fill:#7c7b7b" />
  </g>
  <g
     id="#b7b5b6ff">
    <path
       d="M 11.07,69.13 C 11.62,66.07 12.67,61.02 16.89,62.02 C 19.83,63.26 22.26,65.44 25.11,66.87 C 21.99,67.08 18.86,67.28 15.77,67.74 C 14.16,68.04 12.62,68.61 11.07,69.13 z"
       id="path85"
       style="opacity:1;fill:#b7b5b6" />
  </g>
  <g
     id="#a7a5a5e8">
    <path
       d="M 8.28,64.72 C 8.42,66.57 8.35,68.43 8.32,70.29 C 6.88,71.61 5.35,72.83 3.72,73.91 C 4.78,70.64 6.37,67.58 8.28,64.72 z"
       id="path88"
       style="opacity:0.91000001;fill:#a7a5a5" />
  </g>
  <g
     id="#aaa8a9e7">
    <path
       d="M 119.2,64.73 C 121.76,67.24 123.23,70.49 124.29,73.87 C 123.06,73.07 121.85,72.24 120.66,71.38 C 120.12,69.18 119.63,66.96 119.2,64.73 z"
       id="path91"
       style="opacity:0.91000001;fill:#aaa8a9" />
  </g>
  <g
     id="#151414f9">
    <path
       d="M 100.18,68.25 C 103.86,67.94 107.54,67.84 111.24,67.76 C 113.19,68.01 115.1,68.53 116.99,69.1 C 118.19,69.89 119.43,70.63 120.66,71.38 C 121.85,72.24 123.06,73.07 124.29,73.87 C 125.67,76.31 126.87,78.85 128,81.41 L 128,88.59 C 126.35,93.59 122.81,97.75 118.17,100.25 C 118.41,99.7 118.89,98.6 119.13,98.04 C 125.56,93.36 126.32,82.08 121.11,76.12 C 115.69,70.19 107.63,68.51 99.85,70.33 C 98.75,70.63 97.76,71.22 96.75,71.71 C 95.63,71.9 94.64,72.36 93.78,73.1 C 92.45,73.99 91.49,75.29 90.69,76.65 C 89.4,78.53 87.91,80.41 87.64,82.75 C 85.01,88.99 88.71,94.34 91.73,99.43 C 86.43,96.46 83.5,90.12 83.95,84.14 L 84.14,83.23 C 84.25,82.72 84.47,81.71 84.58,81.2 C 85.44,78.95 86.66,76.87 88.18,75.01 C 91.46,71.64 95.67,69.48 100.18,68.25 z"
       id="path94"
       style="opacity:0.98000004;fill:#151414" />
  </g>
  <g
     id="#7e6b60ff">
    <path
       d="M 12.81,71.3 C 20.95,67.31 31.51,69.3 37.11,76.57 C 35.03,77.66 33.04,78.93 31.07,80.22 C 23.34,84.56 22.74,68.15 15.74,71.84 C 14.76,71.68 13.78,71.49 12.81,71.3 z"
       id="path97"
       style="opacity:1;fill:#7e6b60" />
  </g>
  <g
     id="#7a7778ff">
    <path
       d="M 84.58,81.2 C 83.68,77.13 83.41,71.75 86.82,68.86 C 87.55,70.84 87.99,72.91 88.18,75.01 C 86.66,76.87 85.44,78.95 84.58,81.2 z"
       id="path100"
       style="opacity:1;fill:#7a7778" />
  </g>
  <g
     id="#462d20ff">
    <path
       d="M 96.75,71.71 C 97.76,71.22 98.75,70.63 99.85,70.33 C 100.93,70.58 102.02,70.81 103.11,71.04 C 102.93,75.47 100.55,79.32 98.63,83.18 C 95.59,81.91 93.99,81.73 97.19,84.46 C 91.5,86.64 91.99,95.55 97.83,97.29 C 103.58,100.86 110.6,100.17 115.92,96.01 C 121.91,94.32 122.48,80.34 114.93,83.88 C 115.62,82.96 116.35,82.07 117.1,81.19 C 117.34,80.96 117.83,80.49 118.07,80.25 C 119.36,79.1 120.23,77.59 121.11,76.12 C 126.32,82.08 125.56,93.36 119.13,98.04 C 111.6,101.16 102.78,102.67 95.28,98.78 C 90.28,96.63 96.44,100.95 97.86,102.34 C 95.66,101.73 93.54,100.84 91.73,99.43 C 88.71,94.34 85.01,88.99 87.64,82.75 C 88.37,97.38 88.86,80.94 90.69,76.65 C 91.49,75.29 92.45,73.99 93.78,73.1 C 94.89,74.97 97,73.52 96.75,71.71 z"
       id="path103"
       style="opacity:1;fill:#462d20" />
  </g>
  <g
     id="#8a796fff">
    <path
       d="M 99.85,70.33 C 107.63,68.51 115.69,70.19 121.11,76.12 C 120.23,77.59 119.36,79.1 118.07,80.25 C 113.05,80.55 113.13,74.55 111.59,71.21 C 109.06,71.09 106.53,71.05 104,71.07 L 103.11,71.04 C 102.02,70.81 100.93,70.58 99.85,70.33 z"
       id="path106"
       style="opacity:1;fill:#8a796f" />
  </g>
  <g
     id="#432b1eff">
    <path
       d="M 10.17,72.57 C 10.95,71.97 11.88,71.61 12.81,71.3 C 13.78,71.49 14.76,71.68 15.74,71.84 C 21.03,78.35 9.17,79.06 12.56,83.66 C 5.51,84.59 6.67,94.8 12.83,96.34 C 17.94,100 24.79,100.73 30.2,97.28 C 36.07,95.56 36.22,87 35.28,83 C 34,82.52 32.67,82.2 31.34,81.94 C 31.27,81.51 31.14,80.65 31.07,80.22 C 33.04,78.93 35.03,77.66 37.11,76.57 C 41.22,80.49 41.99,86.81 40.22,92.05 C 38.22,93.92 36.35,95.91 34.3,97.74 C 31.5,99.39 28.54,100.92 25.26,101.31 C 21.65,101.32 17.62,100.05 14.38,102.22 C 12.8,101.73 11.22,101.15 9.84,100.23 C 7.54,96.86 3.89,93.68 4.13,89.25 C 4.81,86.11 5.33,82.9 4.4,79.78 C 4.37,78.78 5.09,77.98 5.62,77.21 C 7.53,76.73 11.44,75.06 10.17,72.57 z"
       id="path109"
       style="opacity:1;fill:#432b1e" />
  </g>
  <g
     id="#774022ff">
    <path
       d="M 15.74,71.84 C 22.74,68.15 23.34,84.56 31.07,80.22 C 31.14,80.65 31.27,81.51 31.34,81.94 C 27.03,85.56 20.91,83.33 15.74,84.2 C 19.93,87.54 25.66,85.87 30.32,84.58 C 32.14,84.15 35.26,85.97 35.28,83 C 36.22,87 36.07,95.56 30.2,97.28 C 30.18,95.44 30.18,93.6 30.26,91.77 C 33.6,90.19 29.17,89.48 27.75,88.27 C 22.49,85.82 15.68,86.13 11.03,89.85 C 12.28,91.82 13.24,93.94 12.83,96.34 C 6.67,94.8 5.51,84.59 12.56,83.66 C 9.17,79.06 21.03,78.35 15.74,71.84 z"
       id="path112"
       style="opacity:1;fill:#774022" />
  </g>
  <g
     id="#676666ff">
    <path
       d="M 48.99,71.11 C 51.66,70.9 54.73,71.39 56.17,73.95 C 51.98,72.66 46.61,72.52 46.58,78.18 C 44.99,75.36 47.19,73.09 48.99,71.11 z"
       id="path115"
       style="opacity:1;fill:#676666" />
  </g>
  <g
     id="#797878ff">
    <path
       d="M 73.72,71.71 C 77.34,66.72 83.46,75.95 81.35,76.75 C 80.77,76.49 79.61,75.97 79.03,75.71 C 78.81,75.52 78.36,75.13 78.13,74.94 C 80.78,70.09 71.86,73.39 71.57,76.7 C 69.63,76.87 72.05,72.46 73.72,71.71 z"
       id="path118"
       style="opacity:1;fill:#797878" />
  </g>
  <g
     id="#7c4222ff">
    <path
       d="M 103.11,71.04 L 104,71.07 C 105.16,74.73 105.12,79.24 108.29,81.88 C 111.23,81.88 114.18,81.54 117.1,81.19 C 116.35,82.07 115.62,82.96 114.93,83.88 C 122.48,80.34 121.91,94.32 115.92,96.01 C 120.27,86.75 108.28,84.64 101.62,87.59 C 100.3,89.3 98.4,90.02 96.3,90.23 C 97.79,92.32 98.19,94.77 97.83,97.29 C 91.99,95.55 91.5,86.64 97.19,84.46 C 102.12,85.67 107.78,87.45 112.34,84.36 C 107.76,84.91 103.01,84.78 98.63,83.18 C 100.55,79.32 102.93,75.47 103.11,71.04 z"
       id="path121"
       style="opacity:1;fill:#7c4222" />
  </g>
  <g
     id="#7f5d4bff">
    <path
       d="M 104,71.07 C 106.53,71.05 109.06,71.09 111.59,71.21 C 113.13,74.55 113.05,80.55 118.07,80.25 C 117.83,80.49 117.34,80.96 117.1,81.19 C 114.18,81.54 111.23,81.88 108.29,81.88 C 105.12,79.24 105.16,74.73 104,71.07 z"
       id="path124"
       style="opacity:1;fill:#7f5d4b" />
  </g>
  <g
     id="#817f7dff">
    <path
       d="M 93.78,73.1 C 94.64,72.36 95.63,71.9 96.75,71.71 C 97,73.52 94.89,74.97 93.78,73.1 z"
       id="path127"
       style="opacity:1;fill:#817f7d" />
  </g>
  <g
     id="#817e7cff">
    <path
       d="M 5.62,77.21 C 6.92,75.48 8.39,73.84 10.17,72.57 C 11.44,75.06 7.53,76.73 5.62,77.21 z"
       id="path130"
       style="opacity:1;fill:#817e7c" />
  </g>
  <g
     id="#514f50ff">
    <path
       d="M 39.62,75.05 C 43.29,69.03 45.37,79.34 43.53,82 C 42.85,79.37 41.54,76.97 39.62,75.05 z"
       id="path133"
       style="opacity:1;fill:#514f50" />
  </g>
  <g
     id="#9d9b9cff">
    <path
       d="M 46.58,78.18 C 46.61,72.52 51.98,72.66 56.17,73.95 C 57.24,79.27 50.57,83.51 46.78,78.98 L 46.58,78.18 M 50.22,76.07 C 46.57,79.84 55.05,76.3 50.22,76.07 z"
       id="path136"
       style="opacity:1;fill:#9d9b9c" />
  </g>
  <g
     id="#aeacadff">
    <path
       d="M 71.57,76.7 C 71.86,73.39 80.78,70.09 78.13,74.94 C 76.85,75.65 74.16,75.92 74.31,77.8 C 76.11,78.44 77.63,76.57 79.03,75.71 C 79.61,75.97 80.77,76.49 81.35,76.75 C 81.05,82.17 71.9,82.1 71.57,76.7 z"
       id="path139"
       style="opacity:1;fill:#aeacad" />
  </g>
  <g
     id="#232323ff">
    <path
       d="M 74.31,77.8 C 74.16,75.92 76.85,75.65 78.13,74.94 C 78.36,75.13 78.81,75.52 79.03,75.71 C 77.63,76.57 76.11,78.44 74.31,77.8 z"
       id="path142"
       style="opacity:1;fill:#232323" />
  </g>
  <g
     id="#1e1e1eff">
    <path
       d="M 50.22,76.07 C 55.05,76.3 46.57,79.84 50.22,76.07 z"
       id="path145"
       style="opacity:1;fill:#1e1e1e" />
  </g>
  <g
     id="#676463ff">
    <path
       d="M 87.64,82.75 C 87.91,80.41 89.4,78.53 90.69,76.65 C 88.86,80.94 88.37,97.38 87.64,82.75 z"
       id="path148"
       style="opacity:1;fill:#676463" />
  </g>
  <g
     id="#747271ff">
    <path
       d="M 4.4,79.78 C 5.33,82.9 4.81,86.11 4.13,89.25 C 4.01,86.09 4.17,82.92 4.4,79.78 z"
       id="path151"
       style="opacity:1;fill:#747271" />
  </g>
  <g
     id="#b87852ff">
    <path
       d="M 31.34,81.94 C 32.67,82.2 34,82.52 35.28,83 C 35.26,85.97 32.14,84.15 30.32,84.58 C 25.66,85.87 19.93,87.54 15.74,84.2 C 20.91,83.33 27.03,85.56 31.34,81.94 z"
       id="path154"
       style="opacity:1;fill:#b87852" />
  </g>
  <g
     id="#b7744fff">
    <path
       d="M 97.19,84.46 C 93.99,81.73 95.59,81.91 98.63,83.18 C 103.01,84.78 107.76,84.91 112.34,84.36 C 107.78,87.45 102.12,85.67 97.19,84.46 z"
       id="path157"
       style="opacity:1;fill:#b7744f" />
  </g>
  <g
     id="#1c1b1c79">
    <path
       d="M 43.9,83.28 C 44.38,83.23 45.35,83.14 45.83,83.09 C 48.66,83.16 51.48,83.27 54.31,83.39 C 51,84.34 47.5,84 44.11,84.13 L 43.9,83.28 z"
       id="path160"
       style="opacity:0.47000002;fill:#1c1b1c" />
  </g>
  <g
     id="#19181964">
    <path
       d="M 74.74,83.24 C 77.87,83.2 81,83.2 84.14,83.23 L 83.95,84.14 C 80.87,83.98 77.79,83.65 74.74,83.24 z"
       id="path163"
       style="opacity:0.38999999;fill:#191819" />
  </g>
  <g
     id="#a75324ff">
    <path
       d="M 11.03,89.85 C 15.68,86.13 22.49,85.82 27.75,88.27 C 29.17,89.48 33.6,90.19 30.26,91.77 C 24.81,90.94 19.24,92.47 13.79,90.99 C 17.74,95.69 25.3,94.34 30.26,91.77 C 30.18,93.6 30.18,95.44 30.2,97.28 C 24.79,100.73 17.94,100 12.83,96.34 C 13.24,93.94 12.28,91.82 11.03,89.85 z"
       id="path166"
       style="opacity:1;fill:#a75324" />
  </g>
  <g
     id="#a75224ff">
    <path
       d="M 101.62,87.59 C 108.28,84.64 120.27,86.75 115.92,96.01 C 110.6,100.17 103.58,100.86 97.83,97.29 C 98.19,94.77 97.79,92.32 96.3,90.23 C 98.4,90.02 100.3,89.3 101.62,87.59 M 98.96,91.09 C 100.91,95.61 111.04,95.17 114.14,91.02 C 109.07,91.73 104.01,92.2 98.96,91.09 z"
       id="path169"
       style="opacity:1;fill:#a75224" />
  </g>
  <g
     id="#d18257ff">
    <path
       d="M 13.79,90.99 C 19.24,92.47 24.81,90.94 30.26,91.77 C 25.3,94.34 17.74,95.69 13.79,90.99 z"
       id="path172"
       style="opacity:1;fill:#d18257" />
  </g>
  <g
     id="#d18358ff">
    <path
       d="M 98.96,91.09 C 104.01,92.2 109.07,91.73 114.14,91.02 C 111.04,95.17 100.91,95.61 98.96,91.09 z"
       id="path175"
       style="opacity:1;fill:#d18358" />
  </g>
  <g
     id="#525151f6">
    <path
       d="M 34.3,97.74 C 36.35,95.91 38.22,93.92 40.22,92.05 C 39.24,94.68 37.65,97 36.26,99.42 C 34.67,100.56 32.98,101.59 31.11,102.21 L 29.97,102.04 C 31.26,100.58 35.02,100.09 34.3,97.74 z"
       id="path178"
       style="opacity:0.95999995;fill:#525151" />
  </g>
  <g
     id="#a0a0a0ff">
    <path
       d="M 25.26,101.31 C 28.54,100.92 31.5,99.39 34.3,97.74 C 35.02,100.09 31.26,100.58 29.97,102.04 C 26.55,102.2 23.15,102.57 19.74,102.9 C 21.12,102.5 23.88,101.71 25.26,101.31 z"
       id="path181"
       style="opacity:1;fill:#a0a0a0" />
  </g>
  <g
     id="#727170fc">
    <path
       d="M 97.86,102.34 C 96.44,100.95 90.28,96.63 95.28,98.78 C 102.78,102.67 111.6,101.16 119.13,98.04 C 118.89,98.6 118.41,99.7 118.17,100.25 C 116.02,101.59 113.65,102.54 111.21,103.19 C 107.72,103.18 104.25,103.14 100.76,103.18 C 99.78,102.97 98.81,102.68 97.86,102.34 z"
       id="path184"
       style="opacity:1;fill:#727170" />
  </g>
  <g
     id="#575655fc">
    <path
       d="M 14.38,102.22 C 17.62,100.05 21.65,101.32 25.26,101.31 C 23.88,101.71 21.12,102.5 19.74,102.9 C 19.25,102.99 18.27,103.16 17.77,103.25 C 16.62,102.97 15.49,102.63 14.38,102.22 z"
       id="path187"
       style="opacity:1;fill:#575655" />
  </g>
  <g
     id="#232222a6">
    <path
       d="M 19.74,102.9 C 23.15,102.57 26.55,102.2 29.97,102.04 L 31.11,102.21 C 26.92,104.03 22.24,104.73 17.77,103.25 C 18.27,103.16 19.25,102.99 19.74,102.9 z"
       id="path190"
       style="opacity:0.65;fill:#232222" />
  </g>
  <g
     id="#1e1e1e99">
    <path
       d="M 100.76,103.18 C 104.25,103.14 107.72,103.18 111.21,103.19 C 107.72,104.21 104.24,104.2 100.76,103.18 z"
       id="path193"
       style="opacity:0.6;fill:#1e1e1e" />
  </g>
</svg>
