<?xml version="1.0" encoding="UTF-8" standalone="no"?>
<!-- Created with Inkscape (http://www.inkscape.org/) -->
<svg
   xmlns:svg="http://www.w3.org/2000/svg"
   xmlns="http://www.w3.org/2000/svg"
   version="1.0"
   width="168pt"
   height="168pt"
   viewBox="0 0 168 168"
   id="svg2">
  <defs
     id="defs134" />
  <g
     id="#132b0b48">
    <path
       d="M 67.01,0 L 68.01,0 C 67.11,8.19 69.65,17.59 67.28,25.29 C 60.11,25.56 52.45,25.46 46.71,30.97 C 48.84,21.66 61.33,26.8 66.93,23.8 C 66.7,15.87 65.71,7.91 67.01,0 z"
       id="path5"
       style="opacity:0.27999998;fill:#132b0b" />
  </g>
  <g
     id="#275c1690">
    <path
       d="M 68.01,0 L 70.08,0 C 68.79,8.52 69.23,17.17 68.82,25.74 C 63.25,31.07 51.42,24.08 47.92,33.97 C 52.17,41.12 58.03,48.35 57.99,57.05 C 54.59,48.23 47.92,40.46 46.71,30.97 C 52.45,25.46 60.11,25.56 67.28,25.29 C 69.65,17.59 67.11,8.19 68.01,0 z"
       id="path8"
       style="opacity:0.56000001;fill:#275c16" />
  </g>
  <g
     id="#408e24d1">
    <path
       d="M 70.08,0 L 93.78,0 C 93.4,8.17 106.26,4.53 109.99,10.84 L 110.42,11.66 L 110.31,12.82 C 109.75,12.67 108.62,12.37 108.06,12.22 C 102.31,5.74 92.95,6.42 85.16,4.72 C 80.45,4.5 74.82,2.37 70.8,5.75 C 69.25,6.76 70.42,9.19 70.16,10.78 C 69.35,16.61 71.45,23.28 68.71,28.71 C 63.65,32.66 55.77,25.94 51.65,31.66 C 47.53,34.27 52.23,37.6 53.91,39.95 C 54.59,45.72 60.73,49.18 59.36,55.67 C 65.76,58.64 71.47,65.67 68.35,73.06 C 68.05,72.74 67.47,72.09 67.18,71.77 L 67.1,70.91 C 67.7,64.72 63.02,59.82 57.99,57.05 C 58.03,48.35 52.17,41.12 47.92,33.97 C 51.42,24.08 63.25,31.07 68.82,25.74 C 69.23,17.17 68.79,8.52 70.08,0 z"
       id="path11"
       style="opacity:0.81999996;fill:#408e24" />
  </g>
  <g
     id="#11400a8a">
    <path
       d="M 93.78,0 L 96.79,0 C 96.89,0.93 95.22,2.93 96.87,3.04 C 105.81,5.31 119.55,9.35 115.03,21.98 C 116.57,28.39 109.9,46.8 122.95,43.43 C 127.93,48.45 140.35,44.28 138.08,55.03 C 138.38,64.86 123.52,66.16 123.9,74.94 C 122.87,74.31 121.86,73.63 120.85,72.97 C 119.81,67.16 127.38,67.77 130.07,64.05 C 132.64,60.7 137.49,58.08 136.06,52.99 C 135.95,48.02 129.59,49.4 126.14,48.07 C 123.85,43.34 117.76,47.66 115.16,43.77 C 106.9,34.73 120.03,17.66 109.99,10.84 C 106.26,4.53 93.4,8.17 93.78,0 z"
       id="path14"
       style="opacity:0.54000005;fill:#11400a" />
  </g>
  <g
     id="#08160746">
    <path
       d="M 96.79,0 L 103.77,0 C 101.54,6.72 114.48,4.62 115.97,11.08 C 117.59,20.5 114.89,30.27 116.12,39.8 C 118.93,43.34 123.85,39.8 126.7,43.32 C 130.56,47.15 138.31,44.62 140.42,50.65 C 144.25,60.55 130.68,65.3 128.23,72.7 C 130.34,81.25 140.64,75.65 144.18,81.94 C 143.62,81.98 142.5,82.06 141.94,82.1 C 135.93,79.81 129.26,79.19 123.9,74.94 C 123.52,66.16 138.38,64.86 138.08,55.03 C 140.35,44.28 127.93,48.45 122.95,43.43 C 109.9,46.8 116.57,28.39 115.03,21.98 C 119.55,9.35 105.81,5.31 96.87,3.04 C 95.22,2.93 96.89,0.93 96.79,0 z"
       id="path17"
       style="opacity:0.27000002;fill:#081607" />
  </g>
  <g
     id="#6aca47fa">
    <path
       d="M 70.8,5.75 C 74.82,2.37 80.45,4.5 85.16,4.72 C 92.95,6.42 102.31,5.74 108.06,12.22 C 108.25,16.5 102.3,16.57 101.26,20.35 C 100.81,26.27 101.11,32.22 101,38.15 C 100.94,38.58 100.82,39.42 100.76,39.85 C 96.13,51.59 109.72,45.3 114.97,49.08 C 119.36,52.64 131.16,49.47 130.83,56.73 C 122.37,65.07 112.5,71.88 103.09,79.12 L 102.08,78.95 L 102,77.93 C 107.6,73.95 112.91,69.6 118.16,65.19 C 121.48,62.23 126.41,59.94 127.1,55.12 C 117.74,53.89 108.45,50.24 99.67,47.29 C 98.6,35.98 98.34,23.34 102,12.22 C 94.02,7.02 84.26,5.51 74.88,5.86 C 74.36,5.85 73.31,5.83 72.78,5.81 C 72.29,5.8 71.3,5.77 70.8,5.75 z"
       id="path20"
       style="opacity:0.98000004;fill:#6aca47" />
  </g>
  <g
     id="#7ae046ff">
    <path
       d="M 70.16,10.78 C 70.42,9.19 69.25,6.76 70.8,5.75 C 71.3,5.77 72.29,5.8 72.78,5.81 C 73.03,14.86 73.3,24.58 75.33,33.64 C 79.25,35.12 81.98,38.05 84.2,41.8 C 88.83,41.22 86.93,32.08 90.76,31.13 C 92.45,37.89 92.8,44.85 93.24,51.77 C 97.29,55.97 102.76,58.42 107.71,61.37 C 109.29,64.14 106.37,66.04 104.52,67.54 C 100.23,71.64 95.5,75.65 92.93,81.12 C 96.48,81.7 98.63,78.2 102,77.93 L 102.08,78.95 C 97.39,82.68 92.78,86.55 87.9,89.99 C 81.06,88.67 80.64,79.36 77.61,74.39 C 70.51,68.9 70.64,58.5 62.76,53.84 C 63.17,47.93 58.08,43.47 53.91,39.95 C 50.67,33.97 56.53,26.47 62.93,31.98 C 60.25,32.14 57.51,32.13 55,33.18 C 55.79,40.84 66.94,45.87 73.13,42.12 C 76.67,35.69 66.16,35.07 62.93,31.98 C 77.81,36.53 69.65,17.66 70.16,10.78 z"
       id="path23"
       style="opacity:1;fill:#7ae046" />
  </g>
  <g
     id="#87eb53ff">
    <path
       d="M 72.78,5.81 C 73.31,5.83 74.36,5.85 74.88,5.86 C 71.65,11.13 77.27,14.3 81.84,12.16 C 85.27,15.45 91.01,13.38 93.84,17.32 C 94.43,27.44 93.47,37.62 94.29,47.71 C 96.08,52.56 101.98,53.29 105.72,56.17 C 109.45,55.53 116.73,57.67 113.79,62.69 C 111.31,66.87 115.24,65.93 118.16,65.19 C 112.91,69.6 107.6,73.95 102,77.93 C 98.63,78.2 96.48,81.7 92.93,81.12 C 95.5,75.65 100.23,71.64 104.52,67.54 C 106.37,66.04 109.29,64.14 107.71,61.37 C 102.76,58.42 97.29,55.97 93.24,51.77 C 92.8,44.85 92.45,37.89 90.76,31.13 C 86.93,32.08 88.83,41.22 84.2,41.8 C 81.98,38.05 79.25,35.12 75.33,33.64 C 73.3,24.58 73.03,14.86 72.78,5.81 z"
       id="path26"
       style="opacity:1;fill:#87eb53" />
  </g>
  <g
     id="#98ed6aff">
    <path
       d="M 74.88,5.86 C 84.26,5.51 94.02,7.02 102,12.22 C 98.34,23.34 98.6,35.98 99.67,47.29 C 108.45,50.24 117.74,53.89 127.1,55.12 C 126.41,59.94 121.48,62.23 118.16,65.19 C 115.24,65.93 111.31,66.87 113.79,62.69 C 116.73,57.67 109.45,55.53 105.72,56.17 C 101.98,53.29 96.08,52.56 94.29,47.71 C 93.47,37.62 94.43,27.44 93.84,17.32 C 91.01,13.38 85.27,15.45 81.84,12.16 C 77.27,14.3 71.65,11.13 74.88,5.86 z"
       id="path29"
       style="opacity:1;fill:#98ed6a" />
  </g>
  <g
     id="#5bbd34f2">
    <path
       d="M 70.16,10.78 C 69.65,17.66 77.81,36.53 62.93,31.98 C 56.53,26.47 50.67,33.97 53.91,39.95 C 52.23,37.6 47.53,34.27 51.65,31.66 C 55.77,25.94 63.65,32.66 68.71,28.71 C 71.45,23.28 69.35,16.61 70.16,10.78 z"
       id="path32"
       style="opacity:0.95;fill:#5bbd34" />
  </g>
  <g
     id="#195c0cb9">
    <path
       d="M 109.99,10.84 C 120.03,17.66 106.9,34.73 115.16,43.77 C 117.76,47.66 123.85,43.34 126.14,48.07 C 121.27,47.12 114.61,48.24 112.12,42.87 C 107.59,33.12 114.79,21.08 110.42,11.66 L 109.99,10.84 z"
       id="path35"
       style="opacity:0.73000004;fill:#195c0c" />
  </g>
  <g
     id="#3eb220fc">
    <path
       d="M 108.06,12.22 C 108.62,12.37 109.75,12.67 110.31,12.82 C 109.91,17.81 110.14,22.91 108.86,27.8 C 108.3,32.95 101.59,32.72 101,38.15 C 101.11,32.22 100.81,26.27 101.26,20.35 C 102.3,16.57 108.25,16.5 108.06,12.22 z"
       id="path38"
       style="opacity:1;fill:#3eb220" />
  </g>
  <g
     id="#228213d9">
    <path
       d="M 110.42,11.66 C 114.79,21.08 107.59,33.12 112.12,42.87 C 114.61,48.24 121.27,47.12 126.14,48.07 C 129.59,49.4 135.95,48.02 136.06,52.99 C 137.49,58.08 132.64,60.7 130.07,64.05 C 127.38,67.77 119.81,67.16 120.85,72.97 C 120.8,73.52 120.7,74.63 120.66,75.19 L 119.88,74.75 C 118.8,72.84 116.87,70.08 119.78,68.77 C 124.78,63.77 135.03,60.23 134.97,52.14 C 126.81,50.97 118.73,49.17 111.08,46 C 108.8,40.22 108.93,33.92 108.86,27.8 C 110.14,22.91 109.91,17.81 110.31,12.82 L 110.42,11.66 z"
       id="path41"
       style="opacity:0.85;fill:#228213" />
  </g>
  <g
     id="#1ba00cfc">
    <path
       d="M 101,38.15 C 101.59,32.72 108.3,32.95 108.86,27.8 C 108.93,33.92 108.8,40.22 111.08,46 C 105.88,47.36 99.2,46.5 100.76,39.85 C 100.82,39.42 100.94,38.58 101,38.15 z"
       id="path44"
       style="opacity:1;fill:#1ba00c" />
  </g>
  <g
     id="#1418134f">
    <path
       d="M 47.2,39.83 C 45.5,37.15 45.86,33.92 46.71,30.97 C 47.92,40.46 54.59,48.23 57.99,57.05 C 60.55,61.15 64.69,64.67 64.38,69.95 C 56.4,77.68 43.17,76.06 34.73,83.5 C 28.13,83.14 20.16,88.96 21.03,96.01 C 22.28,105.18 16.74,117.64 26.22,123.78 C 39.27,132.48 51.65,142.61 66.03,149.02 C 70.67,153.06 76.03,156.69 82.16,157.9 C 84.08,160.93 84.73,164.51 85.26,168 L 83.2,168 C 82.7,165.1 83.56,160.1 79.64,159.42 C 73.48,158.06 68.75,153.84 63.67,150.4 C 50.9,143.28 39.37,134.81 27.06,126.92 C 14.7,120.5 21.62,104.82 20.04,94 C 18.43,86.67 26.1,81.75 32.57,82.42 C 39.32,77.95 46.66,74.26 54.66,72.63 C 58.41,71.59 65.21,71.99 61.58,65.5 C 54.83,58.14 52.31,48.21 47.2,39.83 z"
       id="path47"
       style="opacity:0.31000001;fill:#141813" />
  </g>
  <g
     id="#92ed61ff">
    <path
       d="M 55,33.18 C 57.51,32.13 60.25,32.14 62.93,31.98 C 66.16,35.07 76.67,35.69 73.13,42.12 C 66.94,45.87 55.79,40.84 55,33.18 z"
       id="path50"
       style="opacity:1;fill:#92ed61" />
  </g>
  <g
     id="#59c834fc">
    <path
       d="M 53.91,39.95 C 58.08,43.47 63.17,47.93 62.76,53.84 C 70.64,58.5 70.51,68.9 77.61,74.39 C 80.64,79.36 81.06,88.67 87.9,89.99 C 92.78,86.55 97.39,82.68 102.08,78.95 L 103.09,79.12 C 98.57,84.35 92.86,88.3 87.79,92.94 C 81.69,92.65 79.57,84.35 77.52,79.37 C 77.25,76.95 74.98,78.57 73.55,78.86 C 72.68,78.25 71.82,77.65 70.96,77.03 C 70.02,75.93 69.08,74.83 68.13,73.74 L 68.35,73.06 C 71.47,65.67 65.76,58.64 59.36,55.67 C 60.73,49.18 54.59,45.72 53.91,39.95 z"
       id="path53"
       style="opacity:1;fill:#59c834" />
  </g>
  <g
     id="#3aac2bfc">
    <path
       d="M 114.97,49.08 C 109.72,45.3 96.13,51.59 100.76,39.85 C 99.2,46.5 105.88,47.36 111.08,46 C 118.73,49.17 126.81,50.97 134.97,52.14 C 135.03,60.23 124.78,63.77 119.78,68.77 C 116.87,70.08 118.8,72.84 119.88,74.75 L 119.06,74.97 C 111.62,79.7 105.14,86.38 98.08,91.92 C 93.96,93.59 90.52,96.43 86.76,98.73 C 79.5,95.11 75.68,86.41 73.55,78.86 C 74.98,78.57 77.25,76.95 77.52,79.37 C 79.57,84.35 81.69,92.65 87.79,92.94 C 92.86,88.3 98.57,84.35 103.09,79.12 C 112.5,71.88 122.37,65.07 130.83,56.73 C 131.16,49.47 119.36,52.64 114.97,49.08 z"
       id="path56"
       style="opacity:1;fill:#3aac2b" />
  </g>
  <g
     id="#1f51189d">
    <path
       d="M 57.99,57.05 C 63.02,59.82 67.7,64.72 67.1,70.91 C 66.19,70.58 65.29,70.26 64.38,69.95 C 64.69,64.67 60.55,61.15 57.99,57.05 z"
       id="path59"
       style="opacity:0.62000002;fill:#1f5118" />
  </g>
  <g
     id="#3c3c3c96">
    <path
       d="M 64.38,69.95 C 65.29,70.26 66.19,70.58 67.1,70.91 L 67.18,71.77 C 56.89,77.12 45.38,79.45 35.25,85.11 C 30.49,85.51 24.91,87.34 23.3,92.37 C 24.52,101.58 19.19,113.67 25.69,121.3 C 43.71,134.67 63.36,145.75 82.16,157.9 C 76.03,156.69 70.67,153.06 66.03,149.02 C 51.65,142.61 39.27,132.48 26.22,123.78 C 16.74,117.64 22.28,105.18 21.03,96.01 C 20.16,88.96 28.13,83.14 34.73,83.5 C 43.17,76.06 56.4,77.68 64.38,69.95 z"
       id="path62"
       style="opacity:0.58999999;fill:#3c3c3c" />
  </g>
  <g
     id="#6c6c6cce">
    <path
       d="M 35.25,85.11 C 45.38,79.45 56.89,77.12 67.18,71.77 C 67.47,72.09 68.05,72.74 68.35,73.06 L 68.13,73.74 C 58.3,78.36 47.15,80.41 37.85,85.9 C 37.11,86.57 36.4,87.26 35.71,87.99 C 19.09,85.99 25.48,108.49 26.03,118.01 C 38.18,129.27 52.93,138.54 67.8,146.09 C 71.7,151.82 79.86,151.14 83.74,157.24 L 83.94,158.1 C 83.5,158.05 82.61,157.95 82.16,157.9 C 63.36,145.75 43.71,134.67 25.69,121.3 C 19.19,113.67 24.52,101.58 23.3,92.37 C 24.91,87.34 30.49,85.51 35.25,85.11 z"
       id="path65"
       style="opacity:0.81000001;fill:#6c6c6c" />
  </g>
  <g
     id="#3939399c">
    <path
       d="M 120.85,72.97 C 121.86,73.63 122.87,74.31 123.9,74.94 C 129.26,79.19 135.93,79.81 141.94,82.1 C 146.32,86.09 152.77,87.03 156.84,91.32 C 157.05,102.14 157.32,113 156.88,123.81 C 154.29,126.04 150.04,125.03 147.91,127.88 C 144.34,132.82 137.47,133.17 132.84,136.91 C 124.69,144.19 114.21,146.71 106.31,154.29 C 103.29,156.85 99.13,157.01 95.81,158.82 C 94.1,161.52 93.92,164.97 92.9,168 L 85.26,168 C 84.73,164.51 84.08,160.93 82.16,157.9 C 82.61,157.95 83.5,158.05 83.94,158.1 C 85.27,161.36 90.99,165.89 92.83,160.86 C 95.49,154.31 104.16,154.44 108.89,150.03 C 111.95,145.55 118.31,146.78 121.43,142.45 C 127.56,138.72 133.47,134.53 139.52,130.68 C 144.88,130.96 146.26,125.07 150.78,123.86 C 154.18,124.52 158.44,123.08 156.01,118 C 154.54,109.47 159.04,98.44 153.99,91.08 C 153.48,90.81 152.46,90.26 151.95,89.99 C 148.02,88.03 144.16,85.96 140.44,83.65 C 132.62,84.27 127.27,78.07 120.66,75.19 C 120.7,74.63 120.8,73.52 120.85,72.97 z"
       id="path68"
       style="opacity:0.61000001;fill:#393939" />
  </g>
  <g
     id="#919291fb">
    <path
       d="M 37.85,85.9 C 47.15,80.41 58.3,78.36 68.13,73.74 C 69.08,74.83 70.02,75.93 70.96,77.03 C 71.43,78.33 71.89,79.62 72.27,80.94 C 67.61,89.75 53.73,85.98 47.76,92.99 C 55.5,99.85 65.54,106.56 76.45,105.93 C 75.56,100.45 79.17,99.42 83.13,99.96 C 88.59,101.82 92.39,98.05 96.11,95.03 L 97.1,95 C 94.87,99.17 90.36,101.04 87.15,104.28 C 84.6,109.24 95.57,106.89 92.3,111.28 C 86.29,118.06 78.7,109.6 71.78,109.1 C 63.36,105.48 55.35,100.95 47.25,96.71 C 43.24,91.8 48.97,87.58 54.08,88.01 C 59.14,85.32 71.89,83.36 66.95,75.17 C 57.41,79.15 48.03,83.9 37.85,85.9 z"
       id="path71"
       style="opacity:1;fill:#919291" />
  </g>
  <g
     id="#b9b8b9fd">
    <path
       d="M 37.85,85.9 C 48.03,83.9 57.41,79.15 66.95,75.17 C 71.89,83.36 59.14,85.32 54.08,88.01 C 48.97,87.58 43.24,91.8 47.25,96.71 C 55.35,100.95 63.36,105.48 71.78,109.1 C 78.48,111.52 85.74,120.37 93.05,115.07 C 97.6,112.2 102.53,109.6 107.06,106.99 C 111.84,98.95 92.64,102.47 98.81,94.89 C 99.02,94.63 99.46,94.09 99.68,93.82 C 98.37,101.4 108.14,97.22 110.89,102.33 C 114.15,110.17 104.1,109.84 100.24,113.23 C 95.37,115.51 89.09,122.03 83.68,117.32 C 76.57,113.25 69.05,109.81 61.61,106.31 C 57.84,105.05 54.57,102.84 51.19,100.82 C 47.3,99.04 41,98.43 42.96,91.99 C 43.07,88.86 39.75,87.02 37.2,88.93 L 36.23,89.02 L 35.71,87.99 C 36.4,87.26 37.11,86.57 37.85,85.9 z"
       id="path74"
       style="opacity:1;fill:#b9b8b9" />
  </g>
  <g
     id="#7ab97bfe">
    <path
       d="M 98.08,91.92 C 105.14,86.38 111.62,79.7 119.06,74.97 C 119.03,75.39 118.98,76.23 118.96,76.65 C 117.99,77.39 117.01,78.11 116.1,78.91 C 111.55,84.94 104.57,88.26 99.68,93.82 C 99.46,94.09 99.02,94.63 98.81,94.89 C 98.38,94.92 97.52,94.97 97.1,95 L 96.11,95.03 C 96.8,94.01 97.45,92.98 98.08,91.92 z"
       id="path77"
       style="opacity:1;fill:#7ab97b" />
  </g>
  <g
     id="#69686ac4">
    <path
       d="M 119.06,74.97 L 119.88,74.75 L 120.66,75.19 C 127.27,78.07 132.62,84.27 140.44,83.65 C 144.16,85.96 148.02,88.03 151.95,89.99 C 151.98,90.5 152.05,91.53 152.08,92.04 L 151.24,91.7 C 141.24,84.94 129.13,83.16 118.96,76.65 C 118.98,76.23 119.03,75.39 119.06,74.97 z"
       id="path80"
       style="opacity:0.76999996;fill:#69686a" />
  </g>
  <g
     id="#559254ff">
    <path
       d="M 70.96,77.03 C 71.82,77.65 72.68,78.25 73.55,78.86 C 75.68,86.41 79.5,95.11 86.76,98.73 C 90.52,96.43 93.96,93.59 98.08,91.92 C 97.45,92.98 96.8,94.01 96.11,95.03 C 92.39,98.05 88.59,101.82 83.13,99.96 C 78.67,94.22 73.74,88.24 72.27,80.94 C 71.89,79.62 71.43,78.33 70.96,77.03 z"
       id="path83"
       style="opacity:1;fill:#559254" />
  </g>
  <g
     id="#959595f7">
    <path
       d="M 116.1,78.91 C 117.01,78.11 117.99,77.39 118.96,76.65 C 129.13,83.16 141.24,84.94 151.24,91.7 C 151.77,95.05 152.48,100.27 147.03,100.06 C 129.36,107.73 113.87,120.04 95.88,126.97 C 112.09,116.94 128.7,107.28 145.63,98.56 C 150.05,98.26 150.13,92.14 146.27,90.91 C 145.74,90.66 144.69,90.16 144.16,89.91 C 137.17,84.99 128.29,84.18 120.87,79.98 C 119.38,79.26 117.73,79.05 116.1,78.91 z"
       id="path86"
       style="opacity:0.97000002;fill:#959595" />
  </g>
  <g
     id="#d1d3d1ff">
    <path
       d="M 116.1,78.91 C 117.73,79.05 119.38,79.26 120.87,79.98 C 126.88,85.91 135.91,88.79 144.16,89.91 C 144.69,90.16 145.74,90.66 146.27,90.91 C 146.6,98.98 136.15,99.21 131.61,103.52 C 121.59,108.14 113.55,117.3 102.79,119.93 C 105.61,116.14 111.76,115.66 113.24,111.01 C 102.93,109.77 95.96,120.8 86.24,120.82 C 79.09,114.24 67.85,113.41 61.61,106.31 C 69.05,109.81 76.57,113.25 83.68,117.32 C 89.09,122.03 95.37,115.51 100.24,113.23 C 104.1,109.84 114.15,110.17 110.89,102.33 C 108.14,97.22 98.37,101.4 99.68,93.82 C 104.57,88.26 111.55,84.94 116.1,78.91 M 118.19,80.28 C 112.74,83.73 109.19,89.48 103.54,92.58 C 98.39,99.96 112.21,94.59 114.08,99.95 C 116.89,103.21 111.41,112.67 119.61,108.65 C 124.65,105.31 129.29,101.23 135.05,99.13 C 137.98,97.97 142.75,96.16 141.93,92.17 C 133.91,88.47 125.01,86.16 118.19,80.28 z"
       id="path89"
       style="opacity:1;fill:#d1d3d1" />
  </g>
  <g
     id="#e7e6e7ff">
    <path
       d="M 118.19,80.28 C 125.01,86.16 133.91,88.47 141.93,92.17 C 142.75,96.16 137.98,97.97 135.05,99.13 C 129.29,101.23 124.65,105.31 119.61,108.65 C 111.41,112.67 116.89,103.21 114.08,99.95 C 112.21,94.59 98.39,99.96 103.54,92.58 C 109.19,89.48 112.74,83.73 118.19,80.28 z"
       id="path92"
       style="opacity:1;fill:#e7e6e7" />
  </g>
  <g
     id="#b8b6b8fa">
    <path
       d="M 120.87,79.98 C 128.29,84.18 137.17,84.99 144.16,89.91 C 135.91,88.79 126.88,85.91 120.87,79.98 z"
       id="path95"
       style="opacity:0.98000004;fill:#b8b6b8" />
  </g>
  <g
     id="#747375ff">
    <path
       d="M 72.27,80.94 C 73.74,88.24 78.67,94.22 83.13,99.96 C 79.17,99.42 75.56,100.45 76.45,105.93 C 65.54,106.56 55.5,99.85 47.76,92.99 C 53.73,85.98 67.61,89.75 72.27,80.94 z"
       id="path98"
       style="opacity:1;fill:#747375" />
  </g>
  <g
     id="#1818184f">
    <path
       d="M 141.94,82.1 C 142.5,82.06 143.62,81.98 144.18,81.94 C 149.04,84.57 157.75,84.36 158.68,91.31 C 159.58,102.02 159.03,112.88 158.69,123.62 C 156.61,129.09 147.99,126.26 145.43,132.27 C 134.71,137.46 125.75,144.85 114.89,149.96 C 109.83,153.86 105.28,158.96 98.47,159.58 C 95.09,160.53 95.95,165.19 94.83,168 L 92.9,168 C 93.92,164.97 94.1,161.52 95.81,158.82 C 99.13,157.01 103.29,156.85 106.31,154.29 C 114.21,146.71 124.69,144.19 132.84,136.91 C 137.47,133.17 144.34,132.82 147.91,127.88 C 150.04,125.03 154.29,126.04 156.88,123.81 C 157.32,113 157.05,102.14 156.84,91.32 C 152.77,87.03 146.32,86.09 141.94,82.1 z"
       id="path101"
       style="opacity:0.31000001;fill:#181818" />
  </g>
  <g
     id="#9d9d9df2">
    <path
       d="M 26.03,118.01 C 25.48,108.49 19.09,85.99 35.71,87.99 L 36.23,89.02 C 24.07,86.99 27.11,100.71 26.88,108 C 24.84,115.69 30.86,121.73 36.97,125.07 C 45.75,130.15 53.34,137.74 62.97,141.15 C 64.79,142.29 66.65,143.45 68.08,145.08 L 67.8,146.09 C 52.93,138.54 38.18,129.27 26.03,118.01 z"
       id="path104"
       style="opacity:0.95;fill:#9d9d9d" />
  </g>
  <g
     id="#e1e1e1ff">
    <path
       d="M 37.2,88.93 C 39.75,87.02 43.07,88.86 42.96,91.99 C 41,98.43 47.3,99.04 51.19,100.82 C 48.51,101.02 41.77,99.09 43.15,103.74 C 53.45,110.51 64.09,116.8 73.83,124.38 C 75.91,130.71 67.14,135.15 62.34,131.64 C 60.09,130.14 54.75,128.45 54.97,132.83 C 62.07,134.92 66.81,141.27 71.99,146.17 C 70.68,145.82 69.37,145.48 68.08,145.08 C 66.65,143.45 64.79,142.29 62.97,141.15 C 54.82,134.07 45.6,128.45 37.1,121.85 C 33.81,120.63 31.1,116.32 33.19,113.06 C 38.59,113.22 42.67,119.04 48.43,117.63 C 53.8,120.59 54.6,112.95 50.89,112.07 C 44.05,107.39 38.38,99.59 29.28,99.65 C 25.06,93.91 32.97,90.39 37.2,88.93 z"
       id="path107"
       style="opacity:1;fill:#e1e1e1" />
  </g>
  <g
     id="#cececefe">
    <path
       d="M 26.88,108 C 27.11,100.71 24.07,86.99 36.23,89.02 L 37.2,88.93 C 32.97,90.39 25.06,93.91 29.28,99.65 C 38.38,99.59 44.05,107.39 50.89,112.07 C 54.6,112.95 53.8,120.59 48.43,117.63 C 42.67,119.04 38.59,113.22 33.19,113.06 C 31.1,116.32 33.81,120.63 37.1,121.85 C 45.6,128.45 54.82,134.07 62.97,141.15 C 53.34,137.74 45.75,130.15 36.97,125.07 C 30.86,121.73 24.84,115.69 26.88,108 z"
       id="path110"
       style="opacity:1;fill:#cecece" />
  </g>
  <g
     id="#5c5c5ce2">
    <path
       d="M 151.95,89.99 C 152.46,90.26 153.48,90.81 153.99,91.08 C 155.41,100.88 155.33,110.88 154.82,120.75 C 153.65,121.99 152.21,122.94 150.78,123.86 C 146.26,125.07 144.88,130.96 139.52,130.68 C 133.47,134.53 127.56,138.72 121.43,142.45 C 118.31,146.78 111.95,145.55 108.89,150.03 C 108.42,143.66 116.34,146.14 119.06,142.06 C 128.47,131.92 142.8,128.95 151.78,118.6 C 154.22,112 148.71,104.32 153.5,98.53 C 154.95,96.35 152.82,94.08 152.08,92.04 C 152.05,91.53 151.98,90.5 151.95,89.99 z"
       id="path113"
       style="opacity:0.88999999;fill:#5c5c5c" />
  </g>
  <g
     id="#b7b7b7fd">
    <path
       d="M 146.27,90.91 C 150.13,92.14 150.05,98.26 145.63,98.56 C 128.7,107.28 112.09,116.94 95.88,126.97 C 93.78,128.1 92.07,129.83 90.82,131.85 C 87.76,140.24 93.26,150.56 87.99,158.17 C 86.54,157.99 85.13,157.62 83.74,157.24 C 79.86,151.14 71.7,151.82 67.8,146.09 L 68.08,145.08 C 69.37,145.48 70.68,145.82 71.99,146.17 C 77.74,148.81 82.02,154.31 87.9,156.17 C 89.02,147.33 86.05,137.84 89.34,129.34 C 92.91,125.17 98.57,123.42 102.79,119.93 C 113.55,117.3 121.59,108.14 131.61,103.52 C 136.15,99.21 146.6,98.98 146.27,90.91 z"
       id="path116"
       style="opacity:1;fill:#b7b7b7" />
  </g>
  <g
     id="#484848c2">
    <path
       d="M 153.99,91.08 C 159.04,98.44 154.54,109.47 156.01,118 C 158.44,123.08 154.18,124.52 150.78,123.86 C 152.21,122.94 153.65,121.99 154.82,120.75 C 155.33,110.88 155.41,100.88 153.99,91.08 z"
       id="path119"
       style="opacity:0.76000001;fill:#484848" />
  </g>
  <g
     id="#767676fd">
    <path
       d="M 151.24,91.7 L 152.08,92.04 C 152.82,94.08 154.95,96.35 153.5,98.53 C 148.71,104.32 154.22,112 151.78,118.6 C 142.8,128.95 128.47,131.92 119.06,142.06 C 116.34,146.14 108.42,143.66 108.89,150.03 C 104.16,154.44 95.49,154.31 92.83,160.86 C 90.99,165.89 85.27,161.36 83.94,158.1 L 83.74,157.24 C 85.13,157.62 86.54,157.99 87.99,158.17 C 90.86,158.11 92.67,154.97 91,151.99 C 91.1,145.27 91.09,138.56 90.82,131.85 C 92.07,129.83 93.78,128.1 95.88,126.97 C 113.87,120.04 129.36,107.73 147.03,100.06 C 152.48,100.27 151.77,95.05 151.24,91.7 z"
       id="path122"
       style="opacity:1;fill:#767676" />
  </g>
  <g
     id="#a19ea1ff">
    <path
       d="M 97.1,95 C 97.52,94.97 98.38,94.92 98.81,94.89 C 92.64,102.47 111.84,98.95 107.06,106.99 C 102.53,109.6 97.6,112.2 93.05,115.07 C 85.74,120.37 78.48,111.52 71.78,109.1 C 78.7,109.6 86.29,118.06 92.3,111.28 C 95.57,106.89 84.6,109.24 87.15,104.28 C 90.36,101.04 94.87,99.17 97.1,95 z"
       id="path125"
       style="opacity:1;fill:#a19ea1" />
  </g>
  <g
     id="#efefefff">
    <path
       d="M 43.15,103.74 C 41.77,99.09 48.51,101.02 51.19,100.82 C 54.57,102.84 57.84,105.05 61.61,106.31 C 67.85,113.41 79.09,114.24 86.24,120.82 C 95.96,120.8 102.93,109.77 113.24,111.01 C 111.76,115.66 105.61,116.14 102.79,119.93 C 98.57,123.42 92.91,125.17 89.34,129.34 C 86.05,137.84 89.02,147.33 87.9,156.17 C 82.02,154.31 77.74,148.81 71.99,146.17 C 66.81,141.27 62.07,134.92 54.97,132.83 C 54.75,128.45 60.09,130.14 62.34,131.64 C 67.14,135.15 75.91,130.71 73.83,124.38 C 64.09,116.8 53.45,110.51 43.15,103.74 z"
       id="path128"
       style="opacity:1;fill:#efefef" />
  </g>
  <g
     id="#959595ff">
    <path
       d="M 87.99,158.17 C 93.26,150.56 87.76,140.24 90.82,131.85 C 91.09,138.56 91.1,145.27 91,151.99 C 92.67,154.97 90.86,158.11 87.99,158.17 z"
       id="path131"
       style="opacity:1;fill:#959595" />
  </g>
</svg>
