<?xml version="1.0" encoding="UTF-8" standalone="no"?>
<!-- Created with Inkscape (http://www.inkscape.org/) -->
<svg
   xmlns:svg="http://www.w3.org/2000/svg"
   xmlns="http://www.w3.org/2000/svg"
   version="1.0"
   width="128pt"
   height="128pt"
   viewBox="0 0 128 128"
   id="svg2">
  <defs
     id="defs125" />
  <g
     id="#2222225a">
    <path
       d="M 19.8,24.73 C 29.85,8.39 49.78,5.74 67,3.02 C 74.93,2.79 85.06,2.11 91,8.13 C 78.22,3.08 64.7,3.4 51.73,7.74 C 39.67,10.06 26.33,14.89 20.84,26.88 C 17.13,34.95 20.52,43.6 24.46,50.81 C 24.35,51.3 24.13,52.27 24.03,52.76 L 23.22,53.06 C 19.35,44.42 15.38,34.22 19.8,24.73 z"
       id="path5"
       style="opacity:0.35;fill:#222222" />
  </g>
  <g
     id="#41414197">
    <path
       d="M 51.73,7.74 C 64.7,3.4 78.22,3.08 91,8.13 C 92.41,8.41 93.31,9.77 94.1,10.86 C 95.25,12.8 96.31,14.78 97.27,16.82 C 96.72,16.61 95.63,16.19 95.08,15.97 C 93.17,12.91 91.14,8.9 87.01,8.86 C 76.34,2.22 64.25,7.04 52.79,8 L 51.73,7.74 z"
       id="path8"
       style="opacity:0.58999999;fill:#414141" />
  </g>
  <g
     id="#737473da">
    <path
       d="M 52.79,8 C 64.25,7.04 76.34,2.22 87.01,8.86 C 75.75,6.58 64.45,7.23 53.16,9.05 L 52.79,8 z"
       id="path11"
       style="opacity:0.85;fill:#737473" />
  </g>
  <g
     id="#b6b3bbfb">
    <path
       d="M 53.16,9.05 C 64.45,7.23 75.75,6.58 87.01,8.86 C 89.3,11.64 92.3,13.72 95.08,15.97 C 97.86,25.97 96.89,36.23 93.95,46.09 C 92.96,46.47 91.95,46.81 90.93,47.1 C 92.62,42.79 95.11,38.55 94.93,33.78 C 100.98,16.97 82.71,5.22 68.07,9 C 55.14,11.66 36.82,10.69 31.96,25.97 C 31.16,33.44 25.98,44.91 33.01,50.24 C 39.52,46.74 32.74,37.08 38.84,32.88 C 38.67,37.54 37.75,42.19 38.26,46.85 C 36.5,50.02 33.42,51.62 29.81,51.35 C 22.93,43.45 20.12,28.77 29.58,21.63 C 31.02,20.3 32.35,18.82 33.19,17.03 C 38.58,11.74 46.5,11.82 53.16,9.05 z"
       id="path14"
       style="opacity:1;fill:#b6b3bb" />
  </g>
  <g
     id="#595859bb">
    <path
       d="M 20.84,26.88 C 26.33,14.89 39.67,10.06 51.73,7.74 L 52.79,8 L 53.16,9.05 C 46.5,11.82 38.58,11.74 33.19,17.03 C 17.42,22.62 19.02,42.11 28.02,53.06 C 27.58,53.13 26.69,53.28 26.24,53.36 C 25.63,52.52 25.03,51.67 24.46,50.81 C 20.52,43.6 17.13,34.95 20.84,26.88 z"
       id="path17"
       style="opacity:0.73000004;fill:#595859" />
  </g>
  <g
     id="#e0dce4ff">
    <path
       d="M 31.96,25.97 C 36.82,10.69 55.14,11.66 68.07,9 C 66.94,10.87 62.86,14.07 69.98,12.96 C 75.48,14.95 83.3,14.74 86.28,20.74 C 89.23,25.73 89.08,32.02 87.55,37.43 C 86.63,39.44 86.52,46.41 90.63,44.83 C 91.82,41.06 93.12,37.31 94.93,33.78 C 95.11,38.55 92.62,42.79 90.93,47.1 C 89.02,47.29 87.53,45.97 85.99,45.07 C 80.94,41.25 86.61,35.3 84.69,30.3 C 79.27,13.99 54.94,17.54 44.98,26.99 C 41.68,27.36 39.53,29.72 38.84,32.88 C 32.74,37.08 39.52,46.74 33.01,50.24 C 25.98,44.91 31.16,33.44 31.96,25.97 z"
       id="path20"
       style="opacity:1;fill:#e0dce4" />
  </g>
  <g
     id="#f2f1f3ff">
    <path
       d="M 68.07,9 C 82.71,5.22 100.98,16.97 94.93,33.78 C 93.12,37.31 91.82,41.06 90.63,44.83 C 86.52,46.41 86.63,39.44 87.55,37.43 C 89.08,32.02 89.23,25.73 86.28,20.74 C 83.3,14.74 75.48,14.95 69.98,12.96 C 62.86,14.07 66.94,10.87 68.07,9 z"
       id="path23"
       style="opacity:1;fill:#f2f1f3" />
  </g>
  <g
     id="#777777dc">
    <path
       d="M 87.01,8.86 C 91.14,8.9 93.17,12.91 95.08,15.97 C 92.3,13.72 89.3,11.64 87.01,8.86 z"
       id="path26"
       style="opacity:0.86000001;fill:#777777" />
  </g>
  <g
     id="#2c1b0a4d">
    <path
       d="M 94.1,10.86 C 104.14,17.11 102.18,32.72 98.61,42.66 C 95.43,49.4 106.4,47.83 108.91,52.22 C 110.45,61.56 104.88,69.78 105.07,79 C 105.43,90.31 103.94,101.82 105.67,113.04 C 105.48,113.99 105.44,116.17 104.01,115.86 C 102.58,95.85 101.89,75.29 107.9,55.88 C 108.75,49.42 99.37,51.31 96.63,46.97 C 98.06,37.11 102.77,26.19 97.27,16.82 C 96.31,14.78 95.25,12.8 94.1,10.86 z"
       id="path29"
       style="opacity:0.3;fill:#2c1b0a" />
  </g>
  <g
     id="#7b7874d3">
    <path
       d="M 95.08,15.97 C 95.63,16.19 96.72,16.61 97.27,16.82 C 98.81,27.45 97.61,37.84 95.04,48.18 C 95,48.63 94.9,49.55 94.86,50.01 C 93.38,49.45 94.31,47.31 93.95,46.09 C 96.89,36.23 97.86,25.97 95.08,15.97 z"
       id="path32"
       style="opacity:0.82999998;fill:#7b7874" />
  </g>
  <g
     id="#8a868ff6">
    <path
       d="M 28.02,53.06 C 19.02,42.11 17.42,22.62 33.19,17.03 C 32.35,18.82 31.02,20.3 29.58,21.63 C 20.12,28.77 22.93,43.45 29.81,51.35 C 29.84,51.76 29.9,52.59 29.92,53 C 29.45,53.02 28.5,53.05 28.02,53.06 z"
       id="path35"
       style="opacity:0.95999995;fill:#8a868f" />
  </g>
  <g
     id="#4443439a">
    <path
       d="M 97.27,16.82 C 102.77,26.19 98.06,37.11 96.63,46.97 C 96.23,47.27 95.44,47.88 95.04,48.18 C 97.61,37.84 98.81,27.45 97.27,16.82 z"
       id="path38"
       style="opacity:0.6;fill:#444343" />
  </g>
  <g
     id="#bab5c1fe">
    <path
       d="M 44.98,26.99 C 54.94,17.54 79.27,13.99 84.69,30.3 C 86.61,35.3 80.94,41.25 85.99,45.07 C 84.58,44.83 83.18,44.59 81.77,44.37 C 80.09,38.25 84,30.99 79.24,25.76 C 73.47,20.8 64.75,21.63 57.76,22.76 C 53.38,23.77 49.33,25.85 44.98,26.99 z"
       id="path41"
       style="opacity:1;fill:#bab5c1" />
  </g>
  <g
     id="#96919df9">
    <path
       d="M 57.76,22.76 C 64.75,21.63 73.47,20.8 79.24,25.76 C 84,30.99 80.09,38.25 81.77,44.37 C 81.42,44.63 80.73,45.15 80.38,45.41 C 77.72,40.49 83.18,34.97 79.83,30.14 C 75.88,21.5 65.59,23.05 57.76,22.76 z"
       id="path44"
       style="opacity:0.98000004;fill:#96919d" />
  </g>
  <g
     id="#787372db">
    <path
       d="M 44.98,26.99 C 49.33,25.85 53.38,23.77 57.76,22.76 C 65.59,23.05 75.88,21.5 79.83,30.14 C 83.18,34.97 77.72,40.49 80.38,45.41 C 79.15,47.09 77.22,47.96 75.23,48.38 C 75.74,47.17 76.26,45.96 76.74,44.75 C 81.53,38.74 80.82,27.34 72.15,25.77 C 65.23,21.78 55.55,24.01 48.78,27.92 C 40.25,30.6 38.41,38.88 39.97,46.9 C 39.99,48.31 40.02,49.72 40.06,51.13 C 38.62,50.29 38.88,48.24 38.26,46.85 C 37.75,42.19 38.67,37.54 38.84,32.88 C 41.06,31.1 43.16,29.18 44.98,26.99 z"
       id="path47"
       style="opacity:0.86000001;fill:#787372" />
  </g>
  <g
     id="#4d4c4ea8">
    <path
       d="M 48.78,27.92 C 55.55,24.01 65.23,21.78 72.15,25.77 C 64.13,23.62 56.64,27.05 48.78,27.92 z"
       id="path50"
       style="opacity:0.66000001;fill:#4d4c4e" />
  </g>
  <g
     id="#32271d67">
    <path
       d="M 48.78,27.92 C 56.64,27.05 64.13,23.62 72.15,25.77 C 79.52,29.97 77.69,38.23 75.91,45.08 C 67.77,48.62 58.5,46.03 49.97,48 C 46.63,47.96 41.84,50.8 39.97,46.9 C 38.41,38.88 40.25,30.6 48.78,27.92 M 62.42,27.57 C 56.6,28.58 50.08,28.28 45.21,32.19 C 41.1,35.8 40.53,41.97 42.22,46.94 C 51.57,48.24 60.68,42.92 69.93,44.82 C 75.93,44.73 76.4,36.7 75.74,32.34 C 74,27.14 66.83,27.03 62.42,27.57 z"
       id="path53"
       style="opacity:0.4;fill:#32271d" />
  </g>
  <g
     id="#4a494bb2">
    <path
       d="M 72.15,25.77 C 80.82,27.34 81.53,38.74 76.74,44.75 L 75.91,45.08 C 77.69,38.23 79.52,29.97 72.15,25.77 z"
       id="path56"
       style="opacity:0.7;fill:#4a494b" />
  </g>
  <g
     id="#b5b5b5f8">
    <path
       d="M 38.84,32.88 C 39.53,29.72 41.68,27.36 44.98,26.99 C 43.16,29.18 41.06,31.1 38.84,32.88 z"
       id="path59"
       style="opacity:0.97000002;fill:#b5b5b5" />
  </g>
  <g
     id="#cdaa77f8">
    <path
       d="M 81.77,44.37 C 83.18,44.59 84.58,44.83 85.99,45.07 C 87.53,45.97 89.02,47.29 90.93,47.1 C 91.95,46.81 92.96,46.47 93.95,46.09 C 94.31,47.31 93.38,49.45 94.86,50.01 C 96.77,50.92 98.83,51.46 100.87,52 C 105.31,53.82 103.85,58.86 103.85,62.75 C 100.28,78.49 98.57,94.92 101,110.96 L 100.24,111.28 C 100.04,110.71 99.63,109.57 99.42,109 C 99.18,107.11 99,105.22 98.81,103.33 C 99.24,89.05 98.44,74.45 102.39,60.55 C 105.79,51.69 94.3,52.67 89.23,51.77 C 73.67,48.69 58.06,50.03 42.7,53.13 C 40.91,53.13 38.7,52.85 38.43,55.21 C 35.99,55.12 33.56,55.04 31.13,54.98 C 30.83,54.49 30.23,53.5 29.92,53 C 29.9,52.59 29.84,51.76 29.81,51.35 C 33.42,51.62 36.5,50.02 38.26,46.85 C 38.88,48.24 38.62,50.29 40.06,51.13 C 45.54,51.97 50.45,49.35 55.7,48.57 C 62.16,48.52 68.88,50.05 75.23,48.38 C 77.22,47.96 79.15,47.09 80.38,45.41 C 80.73,45.15 81.42,44.63 81.77,44.37 z"
       id="path62"
       style="opacity:0.97000002;fill:#cdaa77" />
  </g>
  <g
     id="#825b2cb5">
    <path
       d="M 49.97,48 C 58.5,46.03 67.77,48.62 75.91,45.08 L 76.74,44.75 C 76.26,45.96 75.74,47.17 75.23,48.38 C 68.75,48.29 62.12,47.26 55.7,48.57 C 50.45,49.35 45.54,51.97 40.06,51.13 C 40.02,49.72 39.99,48.31 39.97,46.9 C 41.84,50.8 46.63,47.96 49.97,48 z"
       id="path65"
       style="opacity:0.70999995;fill:#825b2c" />
  </g>
  <g
     id="#7042089c">
    <path
       d="M 95.04,48.18 C 95.44,47.88 96.23,47.27 96.63,46.97 C 99.37,51.31 108.75,49.42 107.9,55.88 C 101.89,75.29 102.58,95.85 104.01,115.86 C 103.7,116.08 103.07,116.51 102.76,116.73 C 80.46,123.82 55.29,127.99 32.66,120.21 C 53.75,123.71 75.63,124.15 96.14,117.23 C 98.9,116.04 104.18,116.26 103.04,111.88 C 99.25,95.62 101.74,78.99 104.72,62.81 C 105.59,58.33 108.29,50.43 100.87,52 C 98.83,51.46 96.77,50.92 94.86,50.01 C 94.9,49.55 95,48.63 95.04,48.18 z"
       id="path68"
       style="opacity:0.61000001;fill:#704208" />
  </g>
  <g
     id="#ac8c63d0">
    <path
       d="M 55.7,48.57 C 62.12,47.26 68.75,48.29 75.23,48.38 C 68.88,50.05 62.16,48.52 55.7,48.57 z"
       id="path71"
       style="opacity:0.81999996;fill:#ac8c63" />
  </g>
  <g
     id="#f2e0a3ff">
    <path
       d="M 42.7,53.13 C 58.06,50.03 73.67,48.69 89.23,51.77 C 83.83,53.92 70.57,47.4 68.82,54.92 C 60.53,53.3 49.92,58.34 42.7,53.13 z"
       id="path74"
       style="opacity:1;fill:#f2e0a3" />
  </g>
  <g
     id="#7041029b">
    <path
       d="M 24.46,50.81 C 25.03,51.67 25.63,52.52 26.24,53.36 C 24.94,56.7 20.83,56.37 18.18,58.04 C 24.82,76.47 28.42,96 28.35,115.62 C 28.73,118.03 30.79,119.36 33.15,119.25 L 32.66,120.21 C 30.23,120.28 27.68,119.36 27.37,116.62 C 26.95,97.33 24.23,77.9 17.23,59.83 C 15.34,55.04 23.11,56.63 24.03,52.76 C 24.13,52.27 24.35,51.3 24.46,50.81 z"
       id="path77"
       style="opacity:0.61000001;fill:#704102" />
  </g>
  <g
     id="#f8f0cffe">
    <path
       d="M 68.82,54.92 C 70.57,47.4 83.83,53.92 89.23,51.77 C 94.3,52.67 105.79,51.69 102.39,60.55 C 98.44,74.45 99.24,89.05 98.81,103.33 C 93.55,91.14 94.91,75.49 96.67,61.98 C 96.37,60.17 96.14,57.43 93.91,57.06 C 85.64,55.61 77.18,55.44 68.82,54.92 z"
       id="path80"
       style="opacity:1;fill:#f8f0cf" />
  </g>
  <g
     id="#a97939da">
    <path
       d="M 100.87,52 C 108.29,50.43 105.59,58.33 104.72,62.81 L 103.85,62.75 C 103.85,58.86 105.31,53.82 100.87,52 z"
       id="path83"
       style="opacity:0.85;fill:#a97939" />
  </g>
  <g
     id="#371e0052">
    <path
       d="M 14.96,58.99 C 14.98,54.87 20.38,54.65 23.22,53.06 L 24.03,52.76 C 23.11,56.63 15.34,55.04 17.23,59.83 C 24.23,77.9 26.95,97.33 27.37,116.62 C 27.68,119.36 30.23,120.28 32.66,120.21 C 55.29,127.99 80.46,123.82 102.76,116.73 C 101.16,121.63 93.92,120.33 89.65,121.6 C 76.86,127.43 62.56,124.18 49,125.04 C 41.09,126.43 34.23,121.96 26.91,120.03 C 26,109.89 25.03,99.75 23.41,89.69 C 22.84,78.99 18.57,68.89 14.96,58.99 z"
       id="path86"
       style="opacity:0.31999996;fill:#371e00" />
  </g>
  <g
     id="#ac6a05db">
    <path
       d="M 26.24,53.36 C 26.69,53.28 27.58,53.13 28.02,53.06 C 28.5,53.05 29.45,53.02 29.92,53 C 30.23,53.5 30.83,54.49 31.13,54.98 C 30.72,55.2 29.9,55.64 29.49,55.85 C 28.59,56.11 27.7,56.37 26.8,56.64 C 23.14,57.28 18.05,58.03 21.41,63.65 C 25.19,74.04 27.66,85.02 28.88,96.01 C 29.99,103.52 25.57,114.61 34.15,119.02 L 33.15,119.25 C 30.79,119.36 28.73,118.03 28.35,115.62 C 28.42,96 24.82,76.47 18.18,58.04 C 20.83,56.37 24.94,56.7 26.24,53.36 z"
       id="path89"
       style="opacity:0.86000001;fill:#ac6a05" />
  </g>
  <g
     id="#fde07aff">
    <path
       d="M 38.43,55.21 C 38.7,52.85 40.91,53.13 42.7,53.13 C 49.92,58.34 60.53,53.3 68.82,54.92 C 77.18,55.44 85.64,55.61 93.91,57.06 C 96.14,57.43 96.37,60.17 96.67,61.98 C 94.91,75.49 93.55,91.14 98.81,103.33 C 99,105.22 99.18,107.11 99.42,109 C 94.82,111.81 96.82,103.07 95.17,99.98 C 92.7,87.93 92.87,75.83 94.98,63.72 C 94.98,63.28 95,62.39 95.01,61.94 C 93,56.1 83.92,57.71 78.84,57.02 C 78.43,56.97 77.6,56.86 77.19,56.81 C 64.39,54.45 51.13,57.68 38.43,55.21 z"
       id="path92"
       style="opacity:1;fill:#fde07a" />
  </g>
  <g
     id="#f8c638ff">
    <path
       d="M 29.49,55.85 C 29.9,55.64 30.72,55.2 31.13,54.98 C 33.56,55.04 35.99,55.12 38.43,55.21 C 51.13,57.68 64.39,54.45 77.19,56.81 C 62.48,57.41 47.67,56.13 33.03,57.98 C 31.42,58.33 30.52,56.74 29.49,55.85 z"
       id="path95"
       style="opacity:1;fill:#f8c638" />
  </g>
  <g
     id="#feb902ff">
    <path
       d="M 26.8,56.64 C 27.7,56.37 28.59,56.11 29.49,55.85 C 30.52,56.74 31.42,58.33 33.03,57.98 C 47.67,56.13 62.48,57.41 77.19,56.81 C 77.6,56.86 78.43,56.97 78.84,57.02 C 83.94,59.57 90.3,58.62 95.01,61.94 C 95,62.39 94.98,63.28 94.98,63.72 C 90.03,74.41 88.79,89.61 95.17,99.98 C 95.7,103.72 93.04,110.61 98.1,112.48 C 94.25,115.52 85.25,116.53 83.11,114.08 C 87.73,110.21 92.86,100.45 84.97,97 C 79.14,91.64 69.31,96.25 64.15,90.69 C 65.12,84.57 65.57,76.34 58.99,73.01 C 50.05,66.69 38.59,70.76 29.26,73.77 C 24.05,69.92 22.59,61.73 26.8,56.64 z"
       id="path98"
       style="opacity:1;fill:#feb902" />
  </g>
  <g
     id="#ef9b00fe">
    <path
       d="M 21.41,63.65 C 18.05,58.03 23.14,57.28 26.8,56.64 C 22.59,61.73 24.05,69.92 29.26,73.77 C 38.59,70.76 50.05,66.69 58.99,73.01 C 65.57,76.34 65.12,84.57 64.15,90.69 C 69.31,96.25 79.14,91.64 84.97,97 C 92.86,100.45 87.73,110.21 83.11,114.08 C 85.25,116.53 94.25,115.52 98.1,112.48 C 98.64,112.18 99.7,111.58 100.24,111.28 L 101,110.96 C 101.08,111.52 101.24,112.64 101.32,113.2 C 91.05,119.34 78.42,118.47 67.02,121.01 C 55.98,124.09 45.25,118.38 34.15,119.02 C 25.57,114.61 29.99,103.52 28.88,96.01 C 27.66,85.02 25.19,74.04 21.41,63.65 M 35.29,75.14 C 34.25,76.19 32.53,77.22 33.05,78.98 C 34.83,87.56 36.94,96.14 36.06,105 C 34.85,109.07 37.49,112.43 40.29,114.81 C 53.56,115.37 67.75,116.16 79.84,109.73 C 78.41,105.11 69.06,105.65 67.69,99.35 C 54.61,94.86 50.67,73.94 35.29,75.14 z"
       id="path101"
       style="opacity:1;fill:#ef9b00" />
  </g>
  <g
     id="#ffd235ff">
    <path
       d="M 78.84,57.02 C 83.92,57.71 93,56.1 95.01,61.94 C 90.3,58.62 83.94,59.57 78.84,57.02 z"
       id="path104"
       style="opacity:1;fill:#ffd235" />
  </g>
  <g
     id="#a77a3dd5">
    <path
       d="M 101,110.96 C 98.57,94.92 100.28,78.49 103.85,62.75 L 104.72,62.81 C 101.74,78.99 99.25,95.62 103.04,111.88 C 102.61,112.21 101.75,112.87 101.32,113.2 C 101.24,112.64 101.08,111.52 101,110.96 z"
       id="path107"
       style="opacity:0.83999999;fill:#a77a3d" />
  </g>
  <g
     id="#ffce39ff">
    <path
       d="M 95.17,99.98 C 88.79,89.61 90.03,74.41 94.98,63.72 C 92.87,75.83 92.7,87.93 95.17,99.98 z"
       id="path110"
       style="opacity:1;fill:#ffce39" />
  </g>
  <g
     id="#ec8e00ff">
    <path
       d="M 35.29,75.14 C 50.67,73.94 54.61,94.86 67.69,99.35 C 69.06,105.65 78.41,105.11 79.84,109.73 C 67.75,116.16 53.56,115.37 40.29,114.81 C 37.49,112.43 34.85,109.07 36.06,105 C 36.94,96.14 34.83,87.56 33.05,78.98 C 32.53,77.22 34.25,76.19 35.29,75.14 z"
       id="path113"
       style="opacity:1;fill:#ec8e00" />
  </g>
  <g
     id="#150a0022">
    <path
       d="M 23.41,89.69 C 25.03,99.75 26,109.89 26.91,120.03 C 24.69,118.52 22.08,116.48 23.95,113 C 23.7,105.23 22.13,97.44 23.41,89.69 z"
       id="path116"
       style="opacity:0.12999998;fill:#150a00" />
  </g>
  <g
     id="#fac843ff">
    <path
       d="M 95.17,99.98 C 96.82,103.07 94.82,111.81 99.42,109 C 99.63,109.57 100.04,110.71 100.24,111.28 C 99.7,111.58 98.64,112.18 98.1,112.48 C 93.04,110.61 95.7,103.72 95.17,99.98 z"
       id="path119"
       style="opacity:1;fill:#fac843" />
  </g>
  <g
     id="#ad6902da">
    <path
       d="M 101.32,113.2 C 101.75,112.87 102.61,112.21 103.04,111.88 C 104.18,116.26 98.9,116.04 96.14,117.23 C 75.63,124.15 53.75,123.71 32.66,120.21 L 33.15,119.25 L 34.15,119.02 C 45.25,118.38 55.98,124.09 67.02,121.01 C 78.42,118.47 91.05,119.34 101.32,113.2 z"
       id="path122"
       style="opacity:0.85;fill:#ad6902" />
  </g>
</svg>
