<svg width="20" xmlns="http://www.w3.org/2000/svg" height="20" viewBox="0 0 16 16">
<g fill="#06c">
<path d="m1.28,0h.36c-.09,.03-.28,.08-.37,.11l.01-.11z"/>
<path d="m5.63,0h.31v.35l-.05-.27-.26-.08z"/>
<path d="m1.09,4.65c.08,.03 .25,.09 .34,.12l-.35-.03 .01-.09z"/>
<path d="m5.75,4.75c.01-.06 .03-.19 .03-.26l-.01,.26h-.02z"/>
<path d="m9.24,5.09h.09c-.03,.08-.08,.25-.11,.33l.02-.33z"/>
<path d="m13.57,5.22h.32v.06c-.08-.01-.24-.04-.32-.06z"/>
<path d="m9.22,9.56c.02,.08 .08,.25 .1,.34l-.08-.01-.02-.33z"/>
<path d="m13.7,9.88c.03-.09 .08-.26 .1-.34v.34h-.1z"/>
<path d="m9.29,11.12h.04c-.02,.07-.07,.2-.09,.27l.05-.27z"/>
<path d="m13.66,11.09l.18,.01v.4c-.05-.1-.13-.31-.18-.41z"/>
<path d="m9.17,15.77l.06,.21 .19,.02h-.21l-.04-.23z"/>
<path d="m13.37,16c.09-.03 .28-.09 .38-.12l-.01,.12h-.37z"/>
</g>
<g fill="#00082e">
<path opacity=".63" d="m1.64,0h3.99l.26,.08 .05,.27c-.04,1.03-.12,3.11-.16,4.14 0,.07-.02,.2-.03,.26l-1.34,.32-1.43-.11-1.55-.19c-.09-.03-.26-.09-.34-.12 .04-1.14 .13-3.41 .18-4.54 .09-.03 .28-.08 .37-.11m.94,1.59c0,.46 0,1.37 0,1.83 .46,0 1.38,0 1.84,0 0-.46 0-1.38 0-1.84-.46,0-1.38,.01-1.84,.01z"/>
<path opacity=".63" d="m9.33,5.09c1.06,.03 3.18,.1 4.24,.13 .08,.02 .24,.05 .32,.06-.02,1.07-.06,3.19-.09,4.26-.02,.08-.07,.25-.1,.34-1.1,0-3.28,.01-4.38,.02-.02-.09-.08-.26-.1-.34l-.15-1.59-.01-.9 .16-1.65c.03-.08 .08-.25 .11-.33m1.25,1.5c0,.45 .01,1.37 .01,1.83 .45,0 1.37,0 1.83-.01 0-.45 0-1.37 0-1.83-.46,0-1.38,0-1.84,.01z"/>
<path opacity=".63" d="m9.33,11.12c1.08-.01 3.25-.02 4.33-.03 .05,.1 .13,.31 .18,.41-.02,1.09-.07,3.28-.09,4.38-.1,.03-.29,.09-.38,.12h-3.95l-.19-.02-.06-.21-.38-1.69 .15-1.09 .3-1.6c.02-.07 .07-.2 .09-.27m1.25,1.46c0,.46 0,1.37 0,1.83 .46,0 1.38,0 1.84,0 0-.46 0-1.37-.01-1.83-.45,0-1.37,0-1.83,0z"/>
</g>
<g fill="#002020">
<path opacity=".13" d="m2.58,1.59c.46,0 1.38-.01 1.84-.01 0,.46 0,1.38 0,1.84-.46,0-1.38,0-1.84,0 0-.46 0-1.37 0-1.83z"/>
<path opacity=".13" d="m10.58,6.59c.46-.01 1.38-.01 1.84-.01 0,.46 0,1.38 0,1.83-.46,.01-1.38,.01-1.83,.01 0-.46-.01-1.38-.01-1.83z"/>
<path opacity=".13" d="m10.58,12.58c.46,0 1.38,0 1.83,0 .01,.46 .01,1.37 .01,1.83-.46,0-1.38,0-1.84,0 0-.46 0-1.37 0-1.83z"/>
</g>
<path opacity=".85" fill="#d97d00" d="m2.98,4.96l1.43,.11c-.25,.47-.74,1.4-.98,1.86 1.88,.1 3.75,.06 5.63,.14l.01,.9c-1.71,.03-3.42-.01-5.12-.03l-.95-.01c-.01-.74-.02-2.23-.02-2.97z"/>
<path opacity=".84" fill="#d67500" d="m3,7.93l.95,.01c.05,1.7 .05,3.4 .01,5.11 1.66-.06 3.32-.03 4.98-.06l-.15,1.09c-1.94-.07-3.88-.08-5.82-.07 .06-2.03-.02-4.06 .03-6.08z"/>
</svg>
