<?xml version="1.0" encoding="UTF-8" standalone="no"?>
<!-- Created with Inkscape (http://www.inkscape.org/) -->
<svg
   xmlns:svg="http://www.w3.org/2000/svg"
   xmlns="http://www.w3.org/2000/svg"
   version="1.0"
   width="32pt"
   height="32pt"
   viewBox="0 0 32 32"
   id="svg2">
  <defs
     id="defs50" />
  <g
     id="#22231d83">
    <path
       d="M 17.09,2.27 C 22.06,2.12 27.04,1.86 32,2.22 L 32,29.42 C 21.53,29.77 11.01,29.99 0.55,29.3 C 1.74,29.18 2.93,29.08 4.12,28.99 C 5.82,28.93 7.53,28.92 9.23,28.94 C 11.68,29.06 14.15,29.21 16.6,28.92 L 16.63,28.57 C 16.73,27.23 16.81,25.89 16.87,24.55 C 16.92,23.14 16.95,21.72 16.95,20.3 C 16.3,17.9 15.23,15.65 14.08,13.46 C 15.01,14.91 16.01,16.32 16.99,17.73 C 17.03,12.58 16.99,7.42 17.09,2.27 M 17.54,2.86 C 17.69,7.97 17.53,13.08 17.64,18.18 C 16.68,21.71 16.98,25.4 16.9,29.01 L 17.85,28.94 C 19.29,28.98 20.73,29.02 22.16,29.06 C 25.1,28.97 28.03,29.01 30.96,29.06 C 30.95,28.32 30.95,26.83 30.94,26.09 C 30.8,18.49 31.43,10.8 30.64,3.26 L 30.24,3.18 C 28.65,3.06 27.04,2.97 25.43,2.91 C 22.8,2.93 20.17,2.87 17.54,2.86 z"
       id="path5"
       style="opacity:0.51000001;fill:#22231d" />
  </g>
  <g
     id="#ff9000ff">
    <path
       d="M 17.54,2.86 C 20.17,2.87 22.8,2.93 25.43,2.91 C 25.42,4.89 25.4,6.87 25.38,8.85 C 25.36,10.14 25.36,11.44 25.38,12.74 C 25.37,16.17 25.26,19.6 25.17,23.03 C 22.51,23.8 20.06,25.15 17.99,26.99 C 18.07,24.05 17.84,21.11 17.64,18.18 C 17.53,13.08 17.69,7.97 17.54,2.86 z"
       id="path8"
       style="opacity:1;fill:#ff9000" />
  </g>
  <g
     id="#fff8efff">
    <path
       d="M 25.43,2.91 C 27.04,2.97 28.65,3.06 30.24,3.18 C 30.2,4.55 30.16,5.93 30.14,7.3 C 28.55,7.82 26.97,8.34 25.38,8.85 C 25.4,6.87 25.42,4.89 25.43,2.91 z"
       id="path11"
       style="opacity:1;fill:#fff8ef" />
  </g>
  <g
     id="#f8a539ff">
    <path
       d="M 30.24,3.18 L 30.64,3.26 C 31.43,10.8 30.8,18.49 30.94,26.09 C 30.66,25.96 30.1,25.7 29.82,25.58 C 29.8,24.02 29.8,22.47 29.83,20.92 C 29.87,19.46 29.9,17.99 29.93,16.52 C 30.03,13.45 30.08,10.38 30.14,7.3 C 30.16,5.93 30.2,4.55 30.24,3.18 z"
       id="path14"
       style="opacity:1;fill:#f8a539" />
  </g>
  <g
     id="#ffd8a5ff">
    <path
       d="M 25.38,8.85 C 26.97,8.34 28.55,7.82 30.14,7.3 C 30.08,10.38 30.03,13.45 29.93,16.52 C 28.51,16.53 27.08,16.54 25.65,16.56 C 25.54,15.29 25.45,14.02 25.38,12.74 C 25.36,11.44 25.36,10.14 25.38,8.85 z"
       id="path17"
       style="opacity:1;fill:#ffd8a5" />
  </g>
  <g
     id="#0076ffff">
    <path
       d="M 0.55,29.3 C 4.44,22.75 7.78,15.89 11.82,9.43 C 12.57,10.77 13.32,12.12 14.08,13.46 C 15.23,15.65 16.3,17.9 16.95,20.3 C 14.61,20.14 12.27,19.97 9.93,19.78 C 10.88,16.63 11.53,13.4 11.85,10.13 C 8.98,14.56 7.38,19.63 5.35,24.48 C 4.87,25.96 4.51,27.48 4.12,28.99 C 2.93,29.08 1.74,29.18 0.55,29.3 z"
       id="path20"
       style="opacity:1;fill:#0076ff" />
  </g>
  <g
     id="#6fbcfeff">
    <path
       d="M 5.35,24.48 C 7.38,19.63 8.98,14.56 11.85,10.13 C 11.53,13.4 10.88,16.63 9.93,19.78 C 9.73,20.48 9.32,21.87 9.12,22.57 C 8.92,23.27 8.71,23.96 8.51,24.66 C 7.46,24.6 6.4,24.54 5.35,24.48 z"
       id="path23"
       style="opacity:1;fill:#6fbcfe" />
  </g>
  <g
     id="#ffbc48ff">
    <path
       d="M 25.17,23.03 C 25.26,19.6 25.37,16.17 25.38,12.74 C 25.45,14.02 25.54,15.29 25.65,16.56 C 25.79,17.85 25.93,19.14 26.08,20.43 C 27.33,20.59 28.58,20.76 29.83,20.92 C 29.8,22.47 29.8,24.02 29.82,25.58 C 28.19,24.88 26.64,24.02 25.17,23.03 z"
       id="path26"
       style="opacity:1;fill:#ffbc48" />
  </g>
  <g
     id="#ffc170ff">
    <path
       d="M 25.65,16.56 C 27.08,16.54 28.51,16.53 29.93,16.52 C 29.9,17.99 29.87,19.46 29.83,20.92 C 28.58,20.76 27.33,20.59 26.08,20.43 C 25.93,19.14 25.79,17.85 25.65,16.56 z"
       id="path29"
       style="opacity:1;fill:#ffc170" />
  </g>
  <g
     id="#a47c36ff">
    <path
       d="M 16.9,29.01 C 16.98,25.4 16.68,21.71 17.64,18.18 C 17.84,21.11 18.07,24.05 17.99,26.99 C 17.96,27.48 17.89,28.45 17.85,28.94 L 16.9,29.01 z"
       id="path32"
       style="opacity:1;fill:#a47c36" />
  </g>
  <g
     id="#00a0ffff">
    <path
       d="M 9.93,19.78 C 12.27,19.97 14.61,20.14 16.95,20.3 C 16.95,21.72 16.92,23.14 16.87,24.55 C 14.21,24.23 11.5,23.9 9.12,22.57 C 9.32,21.87 9.73,20.48 9.93,19.78 z"
       id="path35"
       style="opacity:1;fill:#00a0ff" />
  </g>
  <g
     id="#00bdffff">
    <path
       d="M 8.51,24.66 C 8.71,23.96 8.92,23.27 9.12,22.57 C 11.5,23.9 14.21,24.23 16.87,24.55 C 16.81,25.89 16.73,27.23 16.63,28.57 C 14.27,27.48 11.39,27.33 9.23,28.94 C 7.53,28.92 5.82,28.93 4.12,28.99 C 4.51,27.48 4.87,25.96 5.35,24.48 C 6.4,24.54 7.46,24.6 8.51,24.66 z"
       id="path38"
       style="opacity:1;fill:#00bdff" />
  </g>
  <g
     id="#ffb600ff">
    <path
       d="M 17.99,26.99 C 20.06,25.15 22.51,23.8 25.17,23.03 C 25.16,25.48 24.07,27.56 22.16,29.06 C 20.73,29.02 19.29,28.98 17.85,28.94 C 17.89,28.45 17.96,27.48 17.99,26.99 z"
       id="path41"
       style="opacity:1;fill:#ffb600" />
  </g>
  <g
     id="#ffce1aff">
    <path
       d="M 25.17,23.03 C 26.64,24.02 28.19,24.88 29.82,25.58 C 30.1,25.7 30.66,25.96 30.94,26.09 C 30.95,26.83 30.95,28.32 30.96,29.06 C 28.03,29.01 25.1,28.97 22.16,29.06 C 24.07,27.56 25.16,25.48 25.17,23.03 z"
       id="path44"
       style="opacity:1;fill:#ffce1a" />
  </g>
  <g
     id="#2ad2fbff">
    <path
       d="M 9.23,28.94 C 11.39,27.33 14.27,27.48 16.63,28.57 L 16.6,28.92 C 14.15,29.21 11.68,29.06 9.23,28.94 z"
       id="path47"
       style="opacity:1;fill:#2ad2fb" />
  </g>
</svg>
