<?xml version="1.0" encoding="UTF-8" standalone="no"?>
<!-- Created with Inkscape (http://www.inkscape.org/) -->
<svg
   xmlns:dc="http://purl.org/dc/elements/1.1/"
   xmlns:cc="http://creativecommons.org/ns#"
   xmlns:rdf="http://www.w3.org/1999/02/22-rdf-syntax-ns#"
   xmlns:svg="http://www.w3.org/2000/svg"
   xmlns="http://www.w3.org/2000/svg"
   xmlns:xlink="http://www.w3.org/1999/xlink"
   xmlns:sodipodi="http://sodipodi.sourceforge.net/DTD/sodipodi-0.dtd"
   xmlns:inkscape="http://www.inkscape.org/namespaces/inkscape"
   width="40"
   height="40"
   id="svg2"
   sodipodi:version="0.32"
   inkscape:version="0.46"
   sodipodi:docname="pass.svg"
   inkscape:output_extension="org.inkscape.output.svg.inkscape"
   version="1.0"
   inkscape:export-filename="/home/pinheiro/artwork/Oxygen/Pinheiro/big.png"
   inkscape:export-xdpi="180"
   inkscape:export-ydpi="180">
  <defs
     id="defs4">
    <inkscape:perspective
       sodipodi:type="inkscape:persp3d"
       inkscape:vp_x="0 : 600 : 1"
       inkscape:vp_y="0 : 1000 : 0"
       inkscape:vp_z="1920.0001 : 600 : 1"
       inkscape:persp3d-origin="960.00006 : 400 : 1"
       id="perspective133" />
    <linearGradient
       id="linearGradient4825">
      <stop
         style="stop-color:#000024;stop-opacity:0;"
         offset="0"
         id="stop4827" />
      <stop
         style="stop-color:#000024;stop-opacity:1;"
         offset="1"
         id="stop4829" />
    </linearGradient>
    <linearGradient
       id="linearGradient4591">
      <stop
         style="stop-color:#ffffff;stop-opacity:1;"
         offset="0"
         id="stop4593" />
      <stop
         id="stop4603"
         offset="0.58270335"
         style="stop-color:#ffffff;stop-opacity:1;" />
      <stop
         style="stop-color:#ffffff;stop-opacity:0;"
         offset="1"
         id="stop4595" />
    </linearGradient>
    <linearGradient
       id="linearGradient3353">
      <stop
         style="stop-color:#ffffff;stop-opacity:1;"
         offset="0"
         id="stop3355" />
      <stop
         style="stop-color:#ececff;stop-opacity:0;"
         offset="1"
         id="stop3357" />
    </linearGradient>
    <linearGradient
       id="linearGradient3220">
      <stop
         style="stop-color:#6df4ff;stop-opacity:0;"
         offset="0"
         id="stop3222" />
      <stop
         id="stop3232"
         offset="0.91462117"
         style="stop-color:#6df4ff;stop-opacity:0;" />
      <stop
         style="stop-color:#6df4ff;stop-opacity:1;"
         offset="1"
         id="stop3224" />
    </linearGradient>
    <linearGradient
       inkscape:collect="always"
       id="linearGradient3194">
      <stop
         style="stop-color:#01000f;stop-opacity:1;"
         offset="0"
         id="stop3196" />
      <stop
         style="stop-color:#01000f;stop-opacity:0;"
         offset="1"
         id="stop3198" />
    </linearGradient>
    <linearGradient
       id="linearGradient3168">
      <stop
         style="stop-color:#010010;stop-opacity:1;"
         offset="0"
         id="stop3170" />
      <stop
         id="stop3184"
         offset="0.125"
         style="stop-color:#00001f;stop-opacity:1" />
      <stop
         id="stop3178"
         offset="0.25"
         style="stop-color:#00003b;stop-opacity:1" />
      <stop
         style="stop-color:#000065;stop-opacity:1"
         offset="0.375"
         id="stop3186" />
      <stop
         id="stop3176"
         offset="0.5"
         style="stop-color:#000090;stop-opacity:1" />
      <stop
         style="stop-color:#0000b9;stop-opacity:1"
         offset="0.60476768"
         id="stop3188" />
      <stop
         style="stop-color:#0059d7;stop-opacity:1"
         offset="0.82095355"
         id="stop3180" />
      <stop
         id="stop3190"
         offset="0.92777997"
         style="stop-color:#0092ec;stop-opacity:1;" />
      <stop
         style="stop-color:#00b9f7;stop-opacity:1;"
         offset="1"
         id="stop3172" />
    </linearGradient>
    <radialGradient
       inkscape:collect="always"
       xlink:href="#linearGradient3168"
       id="radialGradient3174"
       cx="-1683.395"
       cy="5778.4512"
       fx="-1983.5298"
       fy="6227.1265"
       r="2202.196"
       gradientTransform="matrix(0.7259687,-8.9463881e-8,1.0587326e-7,0.878312,255.57433,-6953.6971)"
       gradientUnits="userSpaceOnUse" />
    <radialGradient
       inkscape:collect="always"
       xlink:href="#linearGradient3194"
       id="radialGradient3200"
       cx="-2196.3823"
       cy="-514.74561"
       fx="-2196.3823"
       fy="-514.74561"
       r="1951.6783"
       gradientTransform="matrix(0.4920854,1.166641e-2,-1.1529316e-2,0.4971633,-249.2672,-1551.3744)"
       gradientUnits="userSpaceOnUse" />
    <radialGradient
       inkscape:collect="always"
       xlink:href="#linearGradient3220"
       id="radialGradient3230"
       cx="-2131.7202"
       cy="-1730.3864"
       fx="-3447.5928"
       fy="-678.18188"
       r="1950.1982"
       gradientTransform="matrix(1.0956093,-1.2018535e-8,2.4281359e-8,1.7350877,1035.3675,1126.3651)"
       gradientUnits="userSpaceOnUse" />
    <filter
       inkscape:collect="always"
       id="filter3311">
      <feGaussianBlur
         inkscape:collect="always"
         stdDeviation="7.5886676"
         id="feGaussianBlur3313" />
    </filter>
    <filter
       inkscape:collect="always"
       id="filter3345">
      <feGaussianBlur
         inkscape:collect="always"
         stdDeviation="5.7353561"
         id="feGaussianBlur3347" />
    </filter>
    <filter
       inkscape:collect="always"
       id="filter4475"
       x="-0.31263459"
       width="1.6252692"
       y="-0.49405906"
       height="1.9881181">
      <feGaussianBlur
         inkscape:collect="always"
         stdDeviation="225.11438"
         id="feGaussianBlur4477" />
    </filter>
    <filter
       inkscape:collect="always"
       id="filter4479"
       x="-0.21575391"
       width="1.4315078"
       y="-0.29288447"
       height="1.5857691">
      <feGaussianBlur
         inkscape:collect="always"
         stdDeviation="225.11438"
         id="feGaussianBlur4481" />
    </filter>
    <filter
       inkscape:collect="always"
       id="filter4483"
       x="-0.1965223"
       width="1.3930446"
       y="-0.36474618"
       height="1.7294924">
      <feGaussianBlur
         inkscape:collect="always"
         stdDeviation="225.11438"
         id="feGaussianBlur4485" />
    </filter>
    <filter
       inkscape:collect="always"
       id="filter4487"
       x="-0.21510512"
       width="1.4302102"
       y="-0.31118101"
       height="1.622362">
      <feGaussianBlur
         inkscape:collect="always"
         stdDeviation="225.11438"
         id="feGaussianBlur4489" />
    </filter>
    <filter
       inkscape:collect="always"
       id="filter4491"
       x="-0.21510512"
       width="1.4302102"
       y="-0.28356424"
       height="1.5671285">
      <feGaussianBlur
         inkscape:collect="always"
         stdDeviation="225.11438"
         id="feGaussianBlur4493" />
    </filter>
    <filter
       inkscape:collect="always"
       id="filter4495"
       x="-0.23121493"
       width="1.4624299"
       y="-0.30480114"
       height="1.6096023">
      <feGaussianBlur
         inkscape:collect="always"
         stdDeviation="225.11438"
         id="feGaussianBlur4497" />
    </filter>
    <filter
       inkscape:collect="always"
       id="filter4499"
       x="-0.24565794"
       width="1.4913158"
       y="-0.30480114"
       height="1.6096023">
      <feGaussianBlur
         inkscape:collect="always"
         stdDeviation="225.11438"
         id="feGaussianBlur4501" />
    </filter>
    <filter
       inkscape:collect="always"
       id="filter4503"
       x="-0.26726297"
       width="1.5345259"
       y="-0.30068853"
       height="1.6013771">
      <feGaussianBlur
         inkscape:collect="always"
         stdDeviation="225.11438"
         id="feGaussianBlur4505" />
    </filter>
    <filter
       inkscape:collect="always"
       id="filter4507"
       x="-0.17819735"
       width="1.3563946"
       y="-0.28160676"
       height="1.5632135">
      <feGaussianBlur
         inkscape:collect="always"
         stdDeviation="225.11438"
         id="feGaussianBlur4509" />
    </filter>
    <filter
       inkscape:collect="always"
       id="filter4565"
       x="-0.13298976"
       width="1.2659795"
       y="-0.21592852"
       height="1.4318571">
      <feGaussianBlur
         inkscape:collect="always"
         stdDeviation="136.86595"
         id="feGaussianBlur4567" />
    </filter>
    <radialGradient
       inkscape:collect="always"
       xlink:href="#linearGradient4591"
       id="radialGradient4635"
       gradientUnits="userSpaceOnUse"
       gradientTransform="matrix(0.9999999,-3.8810548e-7,6.3213482e-7,0.7427437,1.2946039e-3,-549.55351)"
       cx="-1105.3524"
       cy="-2100.4019"
       fx="-1105.3524"
       fy="-2100.4019"
       r="462.29541" />
    <mask
       maskUnits="userSpaceOnUse"
       id="mask4631">
      <path
         sodipodi:type="arc"
         style="opacity:1;fill:url(#radialGradient4635);fill-opacity:1;fill-rule:nonzero;stroke:none;stroke-width:3.34000015;stroke-linecap:round;stroke-linejoin:round;stroke-miterlimit:4;stroke-dasharray:none;stroke-dashoffset:0;stroke-opacity:1"
         id="path4633"
         sodipodi:cx="-1046.276"
         sodipodi:cy="-2136.2092"
         sodipodi:rx="462.29541"
         sodipodi:ry="285.71429"
         d="M -583.98059,-2136.2092 A 462.29541,285.71429 0 1 1 -1508.5714,-2136.2092 A 462.29541,285.71429 0 1 1 -583.98059,-2136.2092 z"
         transform="matrix(2.606808,0,0,3.0920314,10961.151,4429.706)" />
    </mask>
    <filter
       inkscape:collect="always"
       id="filter4676">
      <feGaussianBlur
         inkscape:collect="always"
         stdDeviation="6.8283676"
         id="feGaussianBlur4678" />
    </filter>
    <filter
       inkscape:collect="always"
       id="filter4853">
      <feGaussianBlur
         inkscape:collect="always"
         stdDeviation="4.742074"
         id="feGaussianBlur4855" />
    </filter>
    <radialGradient
       inkscape:collect="always"
       xlink:href="#linearGradient4825"
       id="radialGradient4859"
       gradientUnits="userSpaceOnUse"
       gradientTransform="matrix(1,0,0,0.9019608,0,-230.44996)"
       cx="101.6466"
       cy="-2350.5891"
       fx="101.6466"
       fy="-2350.5891"
       r="225.39029" />
    <filter
       inkscape:collect="always"
       id="filter4882">
      <feGaussianBlur
         inkscape:collect="always"
         stdDeviation="4.2703659"
         id="feGaussianBlur4884" />
    </filter>
    <filter
       inkscape:collect="always"
       id="filter5419"
       x="-0.04807191"
       width="1.0961438"
       y="-0.23207557"
       height="1.4641511">
      <feGaussianBlur
         inkscape:collect="always"
         stdDeviation="6.5539617"
         id="feGaussianBlur5421" />
    </filter>
    <filter
       inkscape:collect="always"
       id="filter5979">
      <feGaussianBlur
         inkscape:collect="always"
         stdDeviation="7.3540846"
         id="feGaussianBlur5981" />
    </filter>
    <filter
       inkscape:collect="always"
       id="filter6015"
       x="-0.070009917"
       width="1.1400198"
       y="-0.3565219"
       height="1.7130438">
      <feGaussianBlur
         inkscape:collect="always"
         stdDeviation="9.5588068"
         id="feGaussianBlur6017" />
    </filter>
    <filter
       inkscape:collect="always"
       id="filter3288">
      <feGaussianBlur
         inkscape:collect="always"
         stdDeviation="1.1310632"
         id="feGaussianBlur3290" />
    </filter>
    <filter
       inkscape:collect="always"
       id="filter3292">
      <feGaussianBlur
         inkscape:collect="always"
         stdDeviation="3.7333758"
         id="feGaussianBlur3294" />
    </filter>
  </defs>
  <sodipodi:namedview
     id="base"
     pagecolor="#ffffff"
     bordercolor="#666666"
     borderopacity="1.0"
     inkscape:pageopacity="0.0"
     inkscape:pageshadow="2"
     inkscape:zoom="6.5700346"
     inkscape:cx="-6.3051087"
     inkscape:cy="22.713745"
     inkscape:document-units="px"
     inkscape:current-layer="layer1"
     showgrid="false"
     inkscape:window-width="1264"
     inkscape:window-height="669"
     inkscape:window-x="16"
     inkscape:window-y="4"
     showguides="true"
     inkscape:guide-bbox="true" />
  <metadata
     id="metadata7">
    <rdf:RDF>
      <cc:Work
         rdf:about="">
        <dc:format>image/svg+xml</dc:format>
        <dc:type
           rdf:resource="http://purl.org/dc/dcmitype/StillImage" />
      </cc:Work>
    </rdf:RDF>
  </metadata>
  <g
     inkscape:label="Camada 1"
     inkscape:groupmode="layer"
     id="layer1"
     transform="translate(1288.3761,3079.1504)">
    <g
       id="g2536"
       style="fill:#004194;fill-opacity:1">
      <path
         transform="matrix(3.4396884e-2,0,0,3.7573265e-2,-1226.9764,-2973.0664)"
         id="path4865"
         d="M -1529.5244,-2216.6875 C -1529.6002,-2214.0346 -1529.6295,-2211.3672 -1529.6295,-2208.6977 C -1529.6295,-2042.8283 -1382.548,-1908.2187 -1201.3125,-1908.2188 C -1020.077,-1908.2188 -872.9955,-2042.8284 -872.9955,-2208.6977 C -872.9955,-2211.3672 -873.02483,-2214.0346 -873.10059,-2216.6875 C -877.73016,-2054.5038 -1022.9938,-1924.1984 -1201.3125,-1924.1984 C -1379.6312,-1924.1983 -1524.8948,-2054.5037 -1529.5244,-2216.6875 z"
         style="opacity:0.35488191000000002;fill:#004194;fill-opacity:1;fill-rule:nonzero;stroke:none;stroke-width:3.34000014999999980;stroke-linecap:round;stroke-linejoin:round;stroke-miterlimit:4;stroke-dasharray:none;stroke-dashoffset:0;stroke-opacity:1;filter:url(#filter4882)" />
      <path
         sodipodi:type="arc"
         style="opacity:0.27960396999999998;fill:#004194;fill-opacity:1;fill-rule:nonzero;stroke:#0059d7;stroke-width:12.06790161000000000;stroke-linecap:round;stroke-linejoin:round;stroke-miterlimit:4;stroke-dasharray:none;stroke-dashoffset:0;stroke-opacity:1;filter:url(#filter4853)"
         id="path4857"
         sodipodi:cx="101.6466"
         sodipodi:cy="-2350.5891"
         sodipodi:rx="225.39029"
         sodipodi:ry="203.2932"
         d="M 327.03689,-2350.5891 A 225.39029,203.2932 0 1 1 -123.74369,-2350.5891 A 225.39029,203.2932 0 1 1 327.03689,-2350.5891 z"
         transform="matrix(6.8847963e-2,0,0,5.8405416e-2,-1275.4242,-2914.857)" />
      <g
         transform="matrix(3.4396884e-2,0,0,3.7573265e-2,-1226.9764,-2973.0664)"
         id="g4709"
         style="fill:#004194;fill-opacity:1">
        <path
           style="opacity:0.89189189999999985;fill:#004194;fill-opacity:1;fill-rule:nonzero;stroke:none;stroke-width:3.34000014999999980;stroke-linecap:round;stroke-linejoin:round;stroke-miterlimit:4;stroke-dasharray:none;stroke-dashoffset:0;stroke-opacity:1;filter:url(#filter3311)"
           d="M -1668.2232,-2383.6339 C -1668.4381,-2378.3216 -1668.5669,-2372.994 -1668.5669,-2367.6339 C -1668.5669,-2132.6396 -1460.1749,-1941.9151 -1203.4107,-1941.9152 C -946.64652,-1941.9152 -738.25452,-2132.6396 -738.25452,-2367.6339 C -738.25452,-2372.994 -738.38332,-2378.3216 -738.59822,-2383.6339 C -747.80802,-2156.0491 -952.50412,-1973.9152 -1203.4107,-1973.9152 C -1454.3173,-1973.9151 -1659.0135,-2156.0491 -1668.2232,-2383.6339 z"
           id="path3286" />
        <path
           sodipodi:type="arc"
           style="opacity:0.89189189999999985;fill:#004194;fill-opacity:1;fill-rule:nonzero;stroke:none;stroke-width:3.34000014999999980;stroke-linecap:round;stroke-linejoin:round;stroke-miterlimit:4;stroke-dasharray:none;stroke-dashoffset:0;stroke-opacity:1"
           id="path3284"
           sodipodi:cx="-1046.276"
           sodipodi:cy="-2136.2092"
           sodipodi:rx="462.29541"
           sodipodi:ry="285.71429"
           d="M -583.98059,-2136.2092 A 462.29541,285.71429 0 1 1 -1508.5714,-2136.2092 A 462.29541,285.71429 0 1 1 -583.98059,-2136.2092 z"
           transform="matrix(1.0061803,0,0,1.49,-150.67652,803.88531)" />
        <path
           style="opacity:0.89189189999999985;fill:#004194;fill-opacity:1;fill-rule:nonzero;stroke:none;stroke-width:3.34000014999999980;stroke-linecap:round;stroke-linejoin:round;stroke-miterlimit:4;stroke-dasharray:none;stroke-dashoffset:0;stroke-opacity:1;filter:url(#filter3345)"
           d="M -1557.4238,-2350.7768 C -1557.4493,-2349.1744 -1557.474,-2347.5588 -1557.474,-2345.9508 C -1557.474,-2167.0871 -1398.8534,-2021.9331 -1203.4197,-2021.9331 C -1007.9859,-2021.9331 -849.36531,-2167.0871 -849.36531,-2345.9508 C -849.36531,-2347.5588 -849.39,-2349.1744 -849.41558,-2350.7768 C -852.24648,-2174.1419 -1009.752,-2031.585 -1203.4197,-2031.585 C -1397.0874,-2031.585 -1554.5929,-2174.1419 -1557.4238,-2350.7768 z"
           id="path3319" />
        <g
           id="g4689"
           style="opacity:0.58558558999999999;fill:#004194;fill-opacity:1"
           transform="matrix(0.9428937,0,0,0.9428937,-71.240556,-130.15196)">
          <path
             sodipodi:nodetypes="cscsccc"
             id="path4639"
             d="M -1199.6227,-2822.8171 C -1432.5388,-2822.8171 -1589.0424,-2673.8084 -1636.5513,-2493.9508 C -1638.3597,-2487.1048 -1636.3224,-2479.8484 -1635.8323,-2472.8702 C -1584.1321,-2646.2315 -1424.0915,-2780.6013 -1199.6227,-2780.6013 C -975.1542,-2780.6013 -810.63788,-2657.2798 -753.41308,-2472.8702 C -752.92318,-2479.8486 -752.66408,-2486.8699 -752.66428,-2493.9508 C -791.33418,-2672.7036 -966.70664,-2822.8171 -1199.6227,-2822.8171 z"
             style="opacity:0.74774779999999985;fill:#004194;fill-opacity:1;fill-rule:nonzero;stroke:none;stroke-width:3.34000014999999980;stroke-linecap:round;stroke-linejoin:round;stroke-miterlimit:4;stroke-dasharray:none;stroke-dashoffset:0;stroke-opacity:1;filter:url(#filter4676)" />
          <path
             sodipodi:nodetypes="cscsccc"
             id="path4682"
             d="M -1199.6227,-2785.8171 C -1432.5388,-2785.8171 -1589.0424,-2636.8084 -1636.5513,-2456.9508 C -1638.3597,-2450.1048 -1636.3224,-2442.8484 -1635.8323,-2435.8702 C -1584.1321,-2609.2315 -1424.0915,-2743.6013 -1199.6227,-2743.6013 C -975.1542,-2743.6013 -810.63788,-2620.2798 -753.41308,-2435.8702 C -752.92318,-2442.8486 -752.66408,-2449.8699 -752.66428,-2456.9508 C -791.33418,-2635.7036 -966.70664,-2785.8171 -1199.6227,-2785.8171 z"
             style="opacity:0.74774779999999985;fill:#004194;fill-opacity:1;fill-rule:nonzero;stroke:none;stroke-width:3.34000014999999980;stroke-linecap:round;stroke-linejoin:round;stroke-miterlimit:4;stroke-dasharray:none;stroke-dashoffset:0;stroke-opacity:1;filter:url(#filter4676)" />
          <path
             style="opacity:0.74774779999999985;fill:#004194;fill-opacity:1;fill-rule:nonzero;stroke:none;stroke-width:3.34000014999999980;stroke-linecap:round;stroke-linejoin:round;stroke-miterlimit:4;stroke-dasharray:none;stroke-dashoffset:0;stroke-opacity:1;filter:url(#filter4676)"
             d="M -1199.6227,-2805.8171 C -1432.5388,-2805.8171 -1589.0424,-2656.8084 -1636.5513,-2476.9508 C -1638.3597,-2470.1048 -1636.3224,-2462.8484 -1635.8323,-2455.8702 C -1584.1321,-2629.2315 -1424.0915,-2763.6013 -1199.6227,-2763.6013 C -975.1542,-2763.6013 -810.63788,-2640.2798 -753.41308,-2455.8702 C -752.92318,-2462.8486 -752.66408,-2469.8699 -752.66428,-2476.9508 C -791.33418,-2655.7036 -966.70664,-2805.8171 -1199.6227,-2805.8171 z"
             id="path4680"
             sodipodi:nodetypes="cscsccc" />
          <path
             id="path4684"
             d="M -1199.6307,-2790.5 C -1432.3854,-2790.5 -1588.8163,-2641.6901 -1636.4432,-2462 C -1636.204,-2460.1785 -1635.9444,-2458.3588 -1635.8182,-2456.5625 C -1584.118,-2629.9239 -1424.0995,-2764.2812 -1199.6307,-2764.2812 C -975.1622,-2764.2812 -810.63678,-2640.9721 -753.41198,-2456.5625 C -753.25528,-2458.7951 -753.14558,-2461.0394 -753.03698,-2463.2812 C -792.42918,-2641.3038 -967.43472,-2790.5 -1199.6307,-2790.5 z"
             style="opacity:0.74774779999999985;fill:#004194;fill-opacity:1;fill-rule:nonzero;stroke:none;stroke-width:3.34000014999999980;stroke-linecap:round;stroke-linejoin:round;stroke-miterlimit:4;stroke-dasharray:none;stroke-dashoffset:0;stroke-opacity:1;filter:url(#filter4676)" />
        </g>
        <g
           id="g4577"
           transform="matrix(0.3992991,0,0,0.49851,-4496.7079,-1309.517)"
           mask="url(#mask4631)"
           style="fill:#004194;fill-opacity:1">
          <path
             transform="matrix(0.468755,0,0,0.468755,4314.5538,-1076.2091)"
             sodipodi:nodetypes="csssscs"
             id="path3681"
             d="M 6721.7633,-1809.4568 C 6939.2681,-1659.2047 7059.4069,-1985.0372 7351.2758,-2184.7286 C 7626.5599,-2373.073 8065.3497,-2472.7257 8279.5706,-2557.6509 C 8595.0753,-2682.7289 8872.1981,-2330.9536 9145.019,-2524.1497 C 9866.3622,-3034.9635 9818.119,-3505.2087 8849.0914,-3663.1913 C 8020.2028,-3798.3271 7272.637,-3403.7797 6799.9328,-2741.9077 C 6661.2576,-2489.895 6485.0947,-1972.9471 6721.7633,-1809.4568 z"
             style="fill:#004194;fill-opacity:1;fill-rule:evenodd;stroke:none;stroke-width:1px;stroke-linecap:butt;stroke-linejoin:miter;stroke-opacity:1;filter:url(#filter4507)" />
          <path
             transform="matrix(0.468755,0,0,0.468755,4314.5538,-1076.2091)"
             sodipodi:nodetypes="cssssssssss"
             id="path3399"
             d="M 9099.4541,-1905.3645 C 8998.7485,-1806.33 8961.875,-1596.1115 8857.0175,-1501.3034 C 8721.8702,-1379.1084 8485.305,-1282.4516 8307.4945,-1242.7044 C 8151.3402,-1207.7982 7910.2451,-1326.8257 7774.134,-1242.7044 C 7654.2371,-1168.6041 7551.3644,-962.85866 7564.0222,-822.48094 C 7579.2627,-653.46103 7806.4589,-305.28284 7903.4335,-369.9326 C 8000.4081,-434.58236 8341.8287,-791.84803 8582.256,-870.96826 C 8697.3998,-908.85998 8875.5841,-821.65198 8986.317,-870.96826 C 9165.0881,-950.58619 9341.8907,-1258.8668 9422.7029,-1355.8415 C 9503.5151,-1452.8161 9514.1083,-1701.9752 9552.0024,-1840.7147 C 9694.9859,-2364.211 9333.2639,-2135.2945 9099.4541,-1905.3645 z"
             style="fill:#004194;fill-opacity:1;fill-rule:evenodd;stroke:none;stroke-width:1px;stroke-linecap:butt;stroke-linejoin:miter;stroke-opacity:1;filter:url(#filter4503)" />
          <path
             transform="matrix(0.468755,0,0,0.468755,4314.5538,-1076.2091)"
             style="fill:#004194;fill-opacity:1;fill-rule:evenodd;stroke:none;stroke-width:1px;stroke-linecap:butt;stroke-linejoin:miter;stroke-opacity:1;filter:url(#filter4499)"
             d="M 9056.7977,-2159.2209 C 8947.2353,-2061.5227 8907.1189,-1854.1406 8793.0394,-1760.6117 C 8646.0062,-1640.0654 8388.6357,-1544.7128 8195.1872,-1505.5019 C 8025.2995,-1471.0667 7763.0007,-1588.4882 7614.9189,-1505.5019 C 7484.4774,-1432.4014 7372.5573,-1229.4321 7386.3283,-1090.9485 C 7402.9092,-924.20907 7650.0867,-580.72876 7755.59,-644.50622 C 7861.0933,-708.28368 8232.541,-1060.7288 8494.1133,-1138.7816 C 8619.3837,-1176.162 8813.2389,-1090.1307 8933.7105,-1138.7816 C 9128.2041,-1217.3252 9320.5561,-1521.4462 9408.4755,-1617.1125 C 9496.3949,-1712.7786 9507.9198,-1958.5759 9549.1466,-2095.4434 C 9704.7051,-2611.8763 9311.1705,-2386.0485 9056.7977,-2159.2209 z"
             id="path3401"
             sodipodi:nodetypes="cssssssssss" />
          <path
             transform="matrix(0.468755,0,0,0.468755,4314.5538,-1076.2091)"
             sodipodi:nodetypes="cssssssssss"
             id="path3403"
             d="M 9023.836,-2393.5763 C 8907.4297,-2295.8781 8864.8074,-2088.496 8743.6018,-1994.9671 C 8587.384,-1874.4208 8313.9367,-1779.0682 8108.4043,-1739.8573 C 7927.9044,-1705.4221 7649.2209,-1822.8436 7491.8891,-1739.8573 C 7353.2994,-1666.7568 7234.3882,-1463.7875 7249.0194,-1325.3039 C 7266.636,-1158.5645 7529.2537,-815.08415 7641.3473,-878.86161 C 7753.4409,-942.63907 8148.0914,-1295.0842 8426.003,-1373.137 C 8559.0986,-1410.5174 8765.0631,-1324.4861 8893.06,-1373.137 C 9099.7028,-1451.6806 9304.0702,-1755.8016 9397.4816,-1851.4679 C 9490.8929,-1947.134 9503.1378,-2192.9313 9546.9398,-2329.7988 C 9712.2154,-2846.2317 9294.0984,-2620.4039 9023.836,-2393.5763 z"
             style="fill:#004194;fill-opacity:1;fill-rule:evenodd;stroke:none;stroke-width:1px;stroke-linecap:butt;stroke-linejoin:miter;stroke-opacity:1;filter:url(#filter4495)" />
          <path
             transform="matrix(0.468755,0,0,0.468755,4314.5538,-1076.2091)"
             style="fill:#004194;fill-opacity:1;fill-rule:evenodd;stroke:none;stroke-width:1px;stroke-linecap:butt;stroke-linejoin:miter;stroke-opacity:1;filter:url(#filter4491)"
             d="M 8981.8483,-2678.7259 C 8856.724,-2573.7108 8810.9096,-2350.7973 8680.6266,-2250.2638 C 8512.7092,-2120.6895 8218.7827,-2018.1957 7997.8574,-1976.0482 C 7803.8394,-1939.034 7504.2846,-2065.2495 7335.1698,-1976.0482 C 7186.2007,-1897.473 7058.3839,-1679.3027 7074.1109,-1530.4477 C 7093.0468,-1351.2208 7375.3327,-982.01631 7495.8213,-1050.5702 C 7616.3099,-1119.1241 8040.5168,-1497.9648 8339.242,-1581.8632 C 8482.3055,-1622.0431 8703.6952,-1529.5687 8841.2781,-1581.8632 C 9063.397,-1666.2891 9283.07,-1993.1866 9383.4772,-2096.0176 C 9483.8843,-2198.8484 9497.0463,-2463.0541 9544.1287,-2610.172 C 9721.7823,-3165.2819 9272.3514,-2922.5413 8981.8483,-2678.7259 z"
             id="path3405"
             sodipodi:nodetypes="cssssssssss" />
          <path
             transform="matrix(0.468755,0,0,0.468755,4314.5538,-1076.2091)"
             sodipodi:nodetypes="cssssssssss"
             id="path3407"
             d="M 8906.7182,-2725.7509 C 8781.5939,-2631.3036 8735.7795,-2412.2595 8605.4965,-2322.7295 C 8437.5791,-2207.3372 8143.6526,-2129.6679 7922.7273,-2106.1794 C 7728.7093,-2085.5517 7429.1545,-2237.0671 7260.0397,-2162.1489 C 7111.0706,-2096.1554 6983.2538,-1888.7803 6998.9808,-1738.597 C 7017.9167,-1557.7708 7300.2026,-1164.7249 7420.6912,-1223.1025 C 7541.1798,-1281.4802 7965.3867,-1624.4931 8264.1119,-1683.1616 C 8407.1754,-1711.2586 8628.5651,-1600.086 8766.148,-1640.7605 C 8988.2669,-1706.4266 9207.9399,-2014.7709 9308.3471,-2109.1217 C 9408.7542,-2203.4722 9421.9162,-2466.5663 9468.9986,-2609.7077 C 9646.6522,-3149.8133 9197.2213,-2945.0309 8906.7182,-2725.7509 z"
             style="fill:#004194;fill-opacity:1;fill-rule:evenodd;stroke:none;stroke-width:1px;stroke-linecap:butt;stroke-linejoin:miter;stroke-opacity:1;filter:url(#filter4487)" />
          <path
             transform="matrix(0.468755,0,0,0.468755,4314.5538,-1076.2091)"
             sodipodi:nodetypes="cssssssssss"
             id="path3411"
             d="M 8818.4849,-2889.5781 C 8681.529,-2811.3213 8631.3825,-2598.2054 8488.7801,-2525.5335 C 8304.9848,-2431.8689 7983.2651,-2392.2324 7741.4494,-2397.3307 C 7529.0854,-2401.8081 7201.2052,-2592.0846 7016.0992,-2539.0491 C 6853.0438,-2492.3315 6713.1409,-2301.4954 6730.355,-2149.2771 C 6751.0814,-1966.0007 7060.0598,-1536.4282 7191.9416,-1579.2151 C 7323.8234,-1622.0021 7788.1426,-1910.1245 8115.1148,-1930.1392 C 8271.7061,-1939.7244 8514.0301,-1799.905 8664.6226,-1822.7769 C 8907.7447,-1859.7017 9148.1896,-2139.6213 9258.0911,-2220.9799 C 9367.9926,-2302.3381 9382.3991,-2563.7291 9433.9336,-2700.7782 C 9628.3858,-3217.8962 9136.4575,-3071.2682 8818.4849,-2889.5781 z"
             style="fill:#004194;fill-opacity:1;fill-rule:evenodd;stroke:none;stroke-width:1px;stroke-linecap:butt;stroke-linejoin:miter;stroke-opacity:1;filter:url(#filter4483)" />
          <path
             transform="matrix(0.468755,0,0,0.468755,4314.5538,-1076.2091)"
             sodipodi:nodetypes="csssssssss"
             id="path3677"
             d="M 7013.6154,-1665.5795 C 7185.7723,-1546.6537 7280.8631,-1804.5529 7511.8798,-1962.6104 C 7729.7694,-2111.6866 8108.0112,-2141.9488 8277.5688,-2209.1678 C 8527.2935,-2308.1681 8677.7523,-2143.497 8931.6426,-2231.265 C 9026.3547,-2264.0063 9229.856,-2576.4028 9285.1959,-2659.9484 C 9414.2246,-2854.7405 9502.5108,-3285.8716 9324.9707,-3437.7659 C 9172.6347,-3568.0968 8864.8961,-3351.3278 8670.8969,-3300.7639 C 8404.7075,-3231.3844 7834.441,-3066.4755 7795.8523,-3026.7601 C 7747.2387,-3000.2436 7201.1479,-2631.9835 7075.4872,-2403.6222 C 6965.7246,-2204.1521 6826.2902,-1794.9835 7013.6154,-1665.5795 z"
             style="fill:#004194;fill-opacity:1;fill-rule:evenodd;stroke:#000000;stroke-width:1px;stroke-linecap:butt;stroke-linejoin:miter;stroke-opacity:1;filter:url(#filter4479)" />
          <path
             transform="matrix(0.468755,0,0,0.468755,4314.5538,-1076.2091)"
             style="fill:#004194;fill-opacity:1;fill-rule:evenodd;stroke:none;stroke-width:1px;stroke-linecap:butt;stroke-linejoin:miter;stroke-opacity:1;filter:url(#filter4475)"
             d="M 7323.7082,-2205.4536 C 7447.6829,-2119.812 7516.1603,-2305.532 7682.5215,-2419.3533 C 7839.4296,-2526.707 8089.5337,-2583.5076 8211.6366,-2631.9138 C 8391.4699,-2703.2065 8549.426,-2502.6995 8704.9301,-2612.8186 C 9116.0857,-2903.9753 9088.5877,-3172.0085 8536.2555,-3262.0564 C 8063.8006,-3339.0819 7637.6985,-3114.1954 7368.2637,-2736.9376 C 7289.2208,-2593.2939 7188.8104,-2298.6408 7323.7082,-2205.4536 z"
             id="path3679"
             sodipodi:nodetypes="csssscs" />
          <path
             style="fill:#004194;fill-opacity:1;fill-rule:evenodd;stroke:none;stroke-width:1px;stroke-linecap:butt;stroke-linejoin:miter;stroke-opacity:1;filter:url(#filter4565)"
             d="M 8906.7182,-2424.9541 C 8784.1913,-2327.1776 8735.7795,-2111.4627 8605.4965,-2021.9327 C 8437.5791,-1906.5404 8143.6526,-1828.8711 7922.7273,-1805.3826 C 7728.7093,-1784.7549 7440.7258,-1883.4167 7260.0397,-1861.3521 C 6769.4865,-1801.4479 7138.1805,-1171.6069 7420.6912,-1180.4363 C 7549.2778,-1184.4551 8043.2175,-1597.1126 8264.1119,-1640.4954 C 8485.0062,-1683.8781 8586.2971,-1544.924 8766.148,-1598.0943 C 8945.9989,-1651.2646 9246.4407,-1945.1885 9308.3471,-2066.4555 C 9614.9416,-2667.0367 9566.9285,-2951.802 8906.7182,-2424.9541 z"
             id="path4511"
             sodipodi:nodetypes="csssszzss"
             transform="matrix(0.468755,0,0,0.468755,4314.5538,-1076.2091)" />
        </g>
        <path
           sodipodi:type="arc"
           style="opacity:1;fill:#004194;fill-opacity:1;fill-rule:nonzero;stroke:none;stroke-width:3.34000014999999980;stroke-linecap:round;stroke-linejoin:round;stroke-miterlimit:4;stroke-dasharray:none;stroke-dashoffset:0;stroke-opacity:1;filter:url(#filter3292)"
           id="path3351"
           sodipodi:cx="-1046.276"
           sodipodi:cy="-2136.2092"
           sodipodi:rx="462.29541"
           sodipodi:ry="285.71429"
           d="M -583.98059,-2136.2092 A 462.29541,285.71429 0 1 1 -1508.5714,-2136.2092 A 462.29541,285.71429 0 1 1 -583.98059,-2136.2092 z"
           transform="matrix(0.6077599,0,0,0.58,-567.53425,-1377.2079)" />
      </g>
      <path
         style="opacity:0.39639640999999998;fill:#004194;fill-opacity:1;fill-rule:nonzero;stroke:none;stroke-width:20;stroke-linecap:round;stroke-linejoin:round;stroke-miterlimit:4;stroke-dasharray:none;stroke-dashoffset:0;stroke-opacity:1;filter:url(#filter6015)"
         d="M -1250.8924,-2284.125 C -1275.8018,-2250.5461 -1350.0146,-2232.8903 -1418.0569,-2244.6507 C -1450.5659,-2250.2695 -1474.6812,-2260.4924 -1490.9901,-2275.5408 L -1534.4477,-2264.0789 C -1512.3831,-2243.1556 -1479.4,-2228.9996 -1434.6888,-2221.2717 C -1341.3876,-2205.1456 -1239.4921,-2229.9307 -1207.2398,-2276.5813 L -1250.8924,-2284.125 z"
         id="path5983"
         transform="matrix(4.2490563e-2,-2.5627411e-3,-3.2783047e-3,-9.0731829e-2,-1217.3748,-3267.0433)"
         inkscape:export-filename="/home/pinheiro/Desktop/pppp.png"
         inkscape:export-xdpi="29.53546"
         inkscape:export-ydpi="29.53546" />
      <path
         inkscape:export-ydpi="29.53546"
         inkscape:export-xdpi="29.53546"
         inkscape:export-filename="/home/pinheiro/Desktop/pppp.png"
         transform="matrix(5.8150782e-2,0,0,9.8665558e-2,-1188.5365,-2846.4959)"
         id="path5374"
         d="M -1250.8924,-2284.125 C -1275.8018,-2250.5461 -1350.0146,-2232.8903 -1418.0569,-2244.6507 C -1450.5659,-2250.2695 -1474.6812,-2260.4924 -1490.9901,-2275.5408 L -1534.4477,-2264.0789 C -1512.3831,-2243.1556 -1479.4,-2228.9996 -1434.6888,-2221.2717 C -1341.3876,-2205.1456 -1239.4921,-2229.9307 -1207.2398,-2276.5813 L -1250.8924,-2284.125 z"
         style="fill:#004194;fill-opacity:1;fill-rule:nonzero;stroke:none;stroke-width:20;stroke-linecap:round;stroke-linejoin:round;stroke-miterlimit:4;stroke-dasharray:none;stroke-dashoffset:0;stroke-opacity:1;filter:url(#filter5419)" />
      <path
         transform="matrix(9.6432417e-2,0,0,9.8993305e-2,-1177.6076,-2835.0029)"
         id="path5924"
         d="M -940.52694,-2437.8254 C -1022.7146,-2437.8254 -1089.4174,-2371.1192 -1089.4174,-2288.9276 C -1089.4174,-2287.0012 -1089.3854,-2285.0898 -1089.3128,-2283.1811 C -1086.2689,-2362.6937 -1020.7765,-2426.2859 -940.52694,-2426.2859 C -860.27737,-2426.2859 -794.78486,-2362.6937 -791.74109,-2283.1811 C -791.66847,-2285.0898 -791.63642,-2287.0012 -791.63642,-2288.9276 C -791.63642,-2371.1192 -858.33937,-2437.8254 -940.52694,-2437.8254 z"
         style="fill:#004194;fill-opacity:1;fill-rule:nonzero;stroke:none;stroke-width:20;stroke-linecap:round;stroke-linejoin:round;stroke-miterlimit:4;stroke-dasharray:none;stroke-dashoffset:0;stroke-opacity:1;filter:url(#filter3288)" />
      <path
         sodipodi:nodetypes="cscscsc"
         transform="matrix(4.0466331e-2,0,0,3.6849733e-2,-1211.2899,-2979.9186)"
         style="fill:#004194;fill-opacity:1;fill-rule:nonzero;stroke:none;stroke-width:20;stroke-linecap:round;stroke-linejoin:round;stroke-miterlimit:4;stroke-dasharray:none;stroke-dashoffset:0;stroke-opacity:1;filter:url(#filter5979)"
         d="M -1418.75,-1838.4375 C -1600.714,-1838.4375 -1748.395,-1963.7184 -1748.395,-2118.0825 C -1748.395,-2121.7004 -1748.324,-2125.2903 -1748.1632,-2128.875 C -1741.4243,-1979.5424 -1596.4233,-1860.11 -1418.75,-1860.11 C -1207.795,-1860.11 -1102.7284,-2020.5424 -1058.5681,-2152.6875 C -1058.4073,-2149.1028 -1057.2659,-2145.3057 -1058.3363,-2141.895 C -1099.9156,-2009.4059 -1211.8198,-1838.4375 -1418.75,-1838.4375 z"
         id="path5947" />
      <path
         inkscape:export-ydpi="29.53546"
         inkscape:export-xdpi="29.53546"
         inkscape:export-filename="/home/pinheiro/Desktop/pppp.png"
         transform="matrix(4.2490563e-2,2.5149885e-3,-3.2783047e-3,8.9041191e-2,-1217.3748,-2848.5706)"
         id="path6019"
         d="M -1250.8924,-2284.125 C -1275.8018,-2250.5461 -1350.0146,-2232.8903 -1418.0569,-2244.6507 C -1450.5659,-2250.2695 -1474.6812,-2260.4924 -1490.9901,-2275.5408 L -1534.4477,-2264.0789 C -1512.3831,-2243.1556 -1479.4,-2228.9996 -1434.6888,-2221.2717 C -1341.3876,-2205.1456 -1239.4921,-2229.9307 -1207.2398,-2276.5813 L -1250.8924,-2284.125 z"
         style="opacity:0.39189190000000002;fill:#004194;fill-opacity:1;fill-rule:nonzero;stroke:none;stroke-width:20;stroke-linecap:round;stroke-linejoin:round;stroke-miterlimit:4;stroke-dasharray:none;stroke-dashoffset:0;stroke-opacity:1;filter:url(#filter6015)" />
    </g>
  </g>
</svg>
