<svg width="60" xmlns="http://www.w3.org/2000/svg" height="60" viewBox="0 0 48 48">
<g fill="#0e4062">
<path opacity=".71" d="m22.77,0h4.82c-.19,.54-.56,1.62-.75,2.16-2.36,.18-4.94,.14-6.83,1.81-1.5,1.33-3.45,1.66-5.39,1.76 2.74-.87 5.13-2.55 7.85-3.47 .08-.56 .22-1.69 .3-2.26z"/>
<path opacity=".71" d="m38.81,6.34c3.45-.57 5.71,2.91 9.19,2.27v11.75c-1.93,3.57-2.68,7.58-2.7,11.62 .29-3.03-.18-6.03-.81-8.98 .28-3.63 1.69-7.33 .68-10.98-1.47-2.51-4.44-3.56-6.36-5.68z"/>
</g>
<path opacity=".33" fill="#0e1c2d" d="m27.59,0h1.47c.28,2.78 3.2,2.29 5.19,2.98 1.82,.57 3.17,1.99 4.41,3.36-1.26-.01-2.52-.05-3.77-.13-2.32-1.99-5.2-3.07-8.05-4.05 .19-.54 .56-1.62 .75-2.16z"/>
<path opacity=".66" fill="#455f3a" d="m20.01,3.97c1.89-1.67 4.47-1.63 6.83-1.81 2.85,.98 5.73,2.06 8.05,4.05-1.91,.16-3.75-.3-5.38-1.28-2.36-1.77-5.57-1.97-7.88,.02-3.08,1.84-6.7,2.9-10.28,2.82 .82-1.13 1.91-1.81 3.27-2.04 1.94-.1 3.89-.43 5.39-1.76z"/>
<path opacity=".79" fill="#a2a813" d="m21.63,4.95c2.31-1.99 5.52-1.79 7.88-.02-1.25,2.76-4.12,4.14-6.97,2.82-.23-.7-.68-2.1-.91-2.8z"/>
<path opacity=".84" fill="#738e36" d="m11.35,7.77c3.58,.08 7.2-.98 10.28-2.82 .23,.7 .68,2.1 .91,2.8 2.85,1.32 5.72-.06 6.97-2.82 1.63,.98 3.47,1.44 5.38,1.28 1.25,.08 2.51,.12 3.77,.13h.15c1.92,2.12 4.89,3.17 6.36,5.68 1.01,3.65-.4,7.35-.68,10.98 .63,2.95 1.1,5.95 .81,8.98-.51,.42-1.53,1.28-2.05,1.71-.05-2.54 .84-5.44-1.01-7.57-3.7,1.06-4.11,5.09-2.8,8.17 .66,.15 1.98,.44 2.63,.59-4.46,2.98-8.72,6.3-13.01,9.56-.39-.23-1.17-.69-1.56-.93-1.3-3.06-.83-6.41-.26-9.57 .67-2.35-.62-4.59-.61-6.92-.05-2.51 .02-5.03-.04-7.54-2.05-.86-4.24-1.25-6.44-1.46l-.75-.79c-1.51-2.33-4.22-2.71-6.76-2.97-1.65-1.24-5.26-1.93-4.77-4.44-1.46,.12-2.99-.07-4.39,.41l.12-.6c2.48-1.03 5.45-.45 7.75-1.86m22.8-.41c-1.22,1.01-1.92,2.4-2.04,3.98 2.93,.19 6.1,.88 8.87-.41-1.85-1.87-4.35-2.82-6.83-3.57m-24.08,2.79c1.78,2.68 8.53,3.87 8.88-.18-2.43-2.31-6.09-.5-8.88,.18m12.13-.74c-1.14,.34-.98,1.81 .12,2.01 2.31,.27 4.63,.08 6.93-.13 .12-.47 .36-1.42 .48-1.89-2.51-.1-5.03-.27-7.53,.01m.02,3.89c-1.19,5.14 7.92,5.59 7.6,.42-1.97-1.9-5.28-1.39-7.6-.42m10.05,3.16c1.44,.36 2.88,.74 4.33,1.08 .81-1.41 1.56-2.85 2.22-4.34-1.6-.18-3.2-.58-4.82-.38-1.44,.67-1.7,2.23-1.73,3.64m7.03-.5c-.15,2.34 .08,4.68 .25,7.01 1.68-.74 2.8-2.24 3.99-3.57 .01-2.11 .07-4.21 .1-6.32-1.59,.69-3.27,1.48-4.34,2.88m-7.69,2.57c-1.39,.95-2.26,2.45-3.28,3.75 .01,2.19-.02,4.37-.06,6.55 2.91,.32 4.95-2.06 6.91-3.82 .25-2.13 .37-4.28 .32-6.44-1.3-.06-2.6-.21-3.89-.04m5.67,4.78c-.74,1.24-1.27,2.68-2.35,3.68-.6,.74-2.05,1.25-1.34,2.42 1.2,.32 2.45,.26 3.69,.27 .88-1.73 2.07-3.36 2.46-5.29-.82-.37-1.63-.73-2.46-1.08m-7.49,10.56c-1.07,1.9-1.16,4.14-1.39,6.26 .65,.33 1.94,1 2.59,1.34 1.46-1.4 2.92-2.78 4.32-4.23 .12-2.01 .19-4.02 .22-6.03-2.23-.02-4.06,1.35-5.74,2.66z"/>
<path opacity=".78" fill="#bab803" d="m34.15,7.36c2.48,.75 4.98,1.7 6.83,3.57-2.77,1.29-5.94,.6-8.87,.41 .12-1.58 .82-2.97 2.04-3.98z"/>
<path opacity=".73" fill="#bb0" d="m10.07,10.15c2.79-.68 6.45-2.49 8.88-.18-.35,4.05-7.1,2.86-8.88,.18z"/>
<path opacity=".89" fill="#43735c" d="m22.2,9.41c2.5-.28 5.02-.11 7.53-.01-.12,.47-.36,1.42-.48,1.89-2.3,.21-4.62,.4-6.93,.13-1.1-.2-1.26-1.67-.12-2.01z"/>
<path opacity=".84" fill="#062547" d="m3.48,10.23c1.4-.48 2.93-.29 4.39-.41-.49,2.51 3.12,3.2 4.77,4.44 2.54,.26 5.25,.64 6.76,2.97-1.75,2.25-2.19,5.11-1.6,7.87 .9,2.38 3.36,3.54 5.35,4.85 1.37-1.34 1.52-3.19 1.35-4.99 .28-3.06-2.7-4.79-4.35-6.94 2.2,.21 4.39,.6 6.44,1.46 .06,2.51-.01,5.03 .04,7.54-.01,2.33 1.28,4.57 .61,6.92-.57,3.16-1.04,6.51 .26,9.57 .39,.24 1.17,.7 1.56,.93-2.55,1.08-4.93-.51-6.98-1.85 5.51-1.94 2.17-11.9-3.6-10.21-.08,1.48-.26,2.96-.11,4.44 .69,1.64 2.18,2.95 2.2,4.84-2.03-1.05-4.16-1.93-6.4-2.39-1.37-.38-2.78-.66-4.12-1.13-.72-1.49-2.21-2.24-3.58-3.01-.06-2.38 .19-4.82-.47-7.15-1.01-3.87-.34-7.93-.91-11.86-.45-.17-1.36-.5-1.81-.67 .02-1.74 .09-3.48 .2-5.22m3.8,4.96c-.65,3.63 1.48,10.18 6.25,8.28 2.15-1.41 .4-3.87-.2-5.63-.6-2.5-3.83-4.04-6.05-2.65m1.23,12.36c-.43,2.64-.12,5.42 1.41,7.67 1.4,.74 3.09,.39 4.62,.5 1.99-3.64-1.53-10.03-6.03-8.17z"/>
<path opacity=".73" fill="#bbba00" d="m22.22,13.3c2.32-.97 5.63-1.48 7.6,.42 .32,5.17-8.79,4.72-7.6-.42z"/>
<path opacity=".88" fill="#4f7854" d="m32.27,16.46c.03-1.41 .29-2.97 1.73-3.64 1.62-.2 3.22,.2 4.82,.38-.66,1.49-1.41,2.93-2.22,4.34-1.45-.34-2.89-.72-4.33-1.08z"/>
<path opacity=".74" fill="#b7b000" d="m39.3,15.96c1.07-1.4 2.75-2.19 4.34-2.88-.03,2.11-.09,4.21-.1,6.32-1.19,1.33-2.31,2.83-3.99,3.57-.17-2.33-.4-4.67-.25-7.01z"/>
<path opacity=".75" fill="#0d0d14" d="m7.28,15.19c2.22-1.39 5.45,.15 6.05,2.65 .6,1.76 2.35,4.22 .2,5.63-4.77,1.9-6.9-4.65-6.25-8.28z"/>
<path opacity=".73" fill="#0d080b" d="m19.4,17.23l.75,.79c1.65,2.15 4.63,3.88 4.35,6.94 .17,1.8 .02,3.65-1.35,4.99-1.99-1.31-4.45-2.47-5.35-4.85-.59-2.76-.15-5.62 1.6-7.87z"/>
<path opacity=".75" fill="#a8ab06" d="m31.61,18.53c1.29-.17 2.59-.02 3.89,.04 .05,2.16-.07,4.31-.32,6.44-1.96,1.76-4,4.14-6.91,3.82 .04-2.18 .07-4.36 .06-6.55 1.02-1.3 1.89-2.8 3.28-3.75z"/>
<path opacity=".54" fill="#00244f" d="m45.3,31.98c.02-4.04 .77-8.05 2.7-11.62v12.67c-3.81,1.98-6.94,4.97-10.58,7.21-3.26,2.06-6.89,4.05-8.51,7.76h-4.18c-.97-4.05-5.89-5.22-9.32-6.59-.31-.53-.93-1.6-1.24-2.14 2.24,.46 4.37,1.34 6.4,2.39 .38,.23 1.13,.7 1.51,.93 2.05,1.34 4.43,2.93 6.98,1.85 4.29-3.26 8.55-6.58 13.01-9.56 .3-.3 .89-.89 1.18-1.19 .52-.43 1.54-1.29 2.05-1.71z"/>
<path opacity=".88" fill="#4a7553" d="m37.28,23.31c.83,.35 1.64,.71 2.46,1.08-.39,1.93-1.58,3.56-2.46,5.29-1.24-.01-2.49,.05-3.69-.27-.71-1.17 .74-1.68 1.34-2.42 1.08-1 1.61-2.44 2.35-3.68z"/>
<path opacity=".76" fill="#0f0d12" d="m8.51,27.55c4.5-1.86 8.02,4.53 6.03,8.17-1.53-.11-3.22,.24-4.62-.5-1.53-2.25-1.84-5.03-1.41-7.67z"/>
<path opacity=".75" fill="#b5b101" d="m39.44,34.29c-1.31-3.08-.9-7.11 2.8-8.17 1.85,2.13 .96,5.03 1.01,7.57-.29,.3-.88,.89-1.18,1.19-.65-.15-1.97-.44-2.63-.59z"/>
<path opacity=".75" fill="#aeac06" d="m29.79,33.87c1.68-1.31 3.51-2.68 5.74-2.66-.03,2.01-.1,4.02-.22,6.03-1.4,1.45-2.86,2.83-4.32,4.23-.65-.34-1.94-1.01-2.59-1.34 .23-2.12 .32-4.36 1.39-6.26z"/>
<path opacity=".74" fill="#0e0b0e" d="m18.48,32.38c5.77-1.69 9.11,8.27 3.6,10.21-.38-.23-1.13-.7-1.51-.93-.02-1.89-1.51-3.2-2.2-4.84-.15-1.48 .03-2.96 .11-4.44z"/>
</svg>
