<?xml version="1.0" encoding="UTF-8" standalone="no"?>
<!-- Created with Inkscape (http://www.inkscape.org/) -->
<svg
   xmlns:svg="http://www.w3.org/2000/svg"
   xmlns="http://www.w3.org/2000/svg"
   version="1.0"
   width="48pt"
   height="48pt"
   viewBox="0 0 48 48"
   id="svg2">
  <defs
     id="defs70" />
  <g
     id="#0e4062b5">
    <path
       d="M 22.77,0 L 27.59,0 C 27.4,0.54 27.03,1.62 26.84,2.16 C 24.48,2.34 21.9,2.3 20.01,3.97 C 18.51,5.3 16.56,5.63 14.62,5.73 C 17.36,4.86 19.75,3.18 22.47,2.26 C 22.55,1.7 22.69,0.57 22.77,0 z"
       id="path5"
       style="opacity:0.70999995;fill:#0e4062" />
    <path
       d="M 38.81,6.34 C 42.26,5.77 44.52,9.25 48,8.61 L 48,20.36 C 46.07,23.93 45.32,27.94 45.3,31.98 C 45.59,28.95 45.12,25.95 44.49,23 C 44.77,19.37 46.18,15.67 45.17,12.02 C 43.7,9.51 40.73,8.46 38.81,6.34 z"
       id="path7"
       style="opacity:0.70999995;fill:#0e4062" />
  </g>
  <g
     id="#0e1c2d54">
    <path
       d="M 27.59,0 L 29.06,0 C 29.34,2.78 32.26,2.29 34.25,2.98 C 36.07,3.55 37.42,4.97 38.66,6.34 C 37.4,6.33 36.14,6.29 34.89,6.21 C 32.57,4.22 29.69,3.14 26.84,2.16 C 27.03,1.62 27.4,0.54 27.59,0 z"
       id="path10"
       style="opacity:0.33000004;fill:#0e1c2d" />
  </g>
  <g
     id="#455f3aa9">
    <path
       d="M 20.01,3.97 C 21.9,2.3 24.48,2.34 26.84,2.16 C 29.69,3.14 32.57,4.22 34.89,6.21 C 32.98,6.37 31.14,5.91 29.51,4.93 C 27.15,3.16 23.94,2.96 21.63,4.95 C 18.55,6.79 14.93,7.85 11.35,7.77 C 12.17,6.64 13.26,5.96 14.62,5.73 C 16.56,5.63 18.51,5.3 20.01,3.97 z"
       id="path13"
       style="opacity:0.66000001;fill:#455f3a" />
  </g>
  <g
     id="#a2a813c9">
    <path
       d="M 21.63,4.95 C 23.94,2.96 27.15,3.16 29.51,4.93 C 28.26,7.69 25.39,9.07 22.54,7.75 C 22.31,7.05 21.86,5.65 21.63,4.95 z"
       id="path16"
       style="opacity:0.79000005;fill:#a2a813" />
  </g>
  <g
     id="#738e36d5">
    <path
       d="M 11.35,7.77 C 14.93,7.85 18.55,6.79 21.63,4.95 C 21.86,5.65 22.31,7.05 22.54,7.75 C 25.39,9.07 28.26,7.69 29.51,4.93 C 31.14,5.91 32.98,6.37 34.89,6.21 C 36.14,6.29 37.4,6.33 38.66,6.34 L 38.81,6.34 C 40.73,8.46 43.7,9.51 45.17,12.02 C 46.18,15.67 44.77,19.37 44.49,23 C 45.12,25.95 45.59,28.95 45.3,31.98 C 44.79,32.4 43.77,33.26 43.25,33.69 C 43.2,31.15 44.09,28.25 42.24,26.12 C 38.54,27.18 38.13,31.21 39.44,34.29 C 40.1,34.44 41.42,34.73 42.07,34.88 C 37.61,37.86 33.35,41.18 29.06,44.44 C 28.67,44.21 27.89,43.75 27.5,43.51 C 26.2,40.45 26.67,37.1 27.24,33.94 C 27.91,31.59 26.62,29.35 26.63,27.02 C 26.58,24.51 26.65,21.99 26.59,19.48 C 24.54,18.62 22.35,18.23 20.15,18.02 L 19.4,17.23 C 17.89,14.9 15.18,14.52 12.64,14.26 C 10.99,13.02 7.38,12.33 7.87,9.82 C 6.41,9.94 4.88,9.75 3.48,10.23 L 3.6,9.63 C 6.08,8.6 9.05,9.18 11.35,7.77 M 34.15,7.36 C 32.93,8.37 32.23,9.76 32.11,11.34 C 35.04,11.53 38.21,12.22 40.98,10.93 C 39.13,9.06 36.63,8.11 34.15,7.36 M 10.07,10.15 C 11.85,12.83 18.6,14.02 18.95,9.97 C 16.52,7.66 12.86,9.47 10.07,10.15 M 22.2,9.41 C 21.06,9.75 21.22,11.22 22.32,11.42 C 24.63,11.69 26.95,11.5 29.25,11.29 C 29.37,10.82 29.61,9.87 29.73,9.4 C 27.22,9.3 24.7,9.13 22.2,9.41 M 22.22,13.3 C 21.03,18.44 30.14,18.89 29.82,13.72 C 27.85,11.82 24.54,12.33 22.22,13.3 M 32.27,16.46 C 33.71,16.82 35.15,17.2 36.6,17.54 C 37.41,16.13 38.16,14.69 38.82,13.2 C 37.22,13.02 35.62,12.62 34,12.82 C 32.56,13.49 32.3,15.05 32.27,16.46 M 39.3,15.96 C 39.15,18.3 39.38,20.64 39.55,22.97 C 41.23,22.23 42.35,20.73 43.54,19.4 C 43.55,17.29 43.61,15.19 43.64,13.08 C 42.05,13.77 40.37,14.56 39.3,15.96 M 31.61,18.53 C 30.22,19.48 29.35,20.98 28.33,22.28 C 28.34,24.47 28.31,26.65 28.27,28.83 C 31.18,29.15 33.22,26.77 35.18,25.01 C 35.43,22.88 35.55,20.73 35.5,18.57 C 34.2,18.51 32.9,18.36 31.61,18.53 M 37.28,23.31 C 36.54,24.55 36.01,25.99 34.93,26.99 C 34.33,27.73 32.88,28.24 33.59,29.41 C 34.79,29.73 36.04,29.67 37.28,29.68 C 38.16,27.95 39.35,26.32 39.74,24.39 C 38.92,24.02 38.11,23.66 37.28,23.31 M 29.79,33.87 C 28.72,35.77 28.63,38.01 28.4,40.13 C 29.05,40.46 30.34,41.13 30.99,41.47 C 32.45,40.07 33.91,38.69 35.31,37.24 C 35.43,35.23 35.5,33.22 35.53,31.21 C 33.3,31.19 31.47,32.56 29.79,33.87 z"
       id="path19"
       style="opacity:0.83999999;fill:#738e36" />
  </g>
  <g
     id="#bab803c6">
    <path
       d="M 34.15,7.36 C 36.63,8.11 39.13,9.06 40.98,10.93 C 38.21,12.22 35.04,11.53 32.11,11.34 C 32.23,9.76 32.93,8.37 34.15,7.36 z"
       id="path22"
       style="opacity:0.77999998;fill:#bab803" />
  </g>
  <g
     id="#bbbb00bb">
    <path
       d="M 10.07,10.15 C 12.86,9.47 16.52,7.66 18.95,9.97 C 18.6,14.02 11.85,12.83 10.07,10.15 z"
       id="path25"
       style="opacity:0.73000004;fill:#bbbb00" />
  </g>
  <g
     id="#43735ce4">
    <path
       d="M 22.2,9.41 C 24.7,9.13 27.22,9.3 29.73,9.4 C 29.61,9.87 29.37,10.82 29.25,11.29 C 26.95,11.5 24.63,11.69 22.32,11.42 C 21.22,11.22 21.06,9.75 22.2,9.41 z"
       id="path28"
       style="opacity:0.88999999;fill:#43735c" />
  </g>
  <g
     id="#062547d7">
    <path
       d="M 3.48,10.23 C 4.88,9.75 6.41,9.94 7.87,9.82 C 7.38,12.33 10.99,13.02 12.64,14.26 C 15.18,14.52 17.89,14.9 19.4,17.23 C 17.65,19.48 17.21,22.34 17.8,25.1 C 18.7,27.48 21.16,28.64 23.15,29.95 C 24.52,28.61 24.67,26.76 24.5,24.96 C 24.78,21.9 21.8,20.17 20.15,18.02 C 22.35,18.23 24.54,18.62 26.59,19.48 C 26.65,21.99 26.58,24.51 26.63,27.02 C 26.62,29.35 27.91,31.59 27.24,33.94 C 26.67,37.1 26.2,40.45 27.5,43.51 C 27.89,43.75 28.67,44.21 29.06,44.44 C 26.51,45.52 24.13,43.93 22.08,42.59 C 27.59,40.65 24.25,30.69 18.48,32.38 C 18.4,33.86 18.22,35.34 18.37,36.82 C 19.06,38.46 20.55,39.77 20.57,41.66 C 18.54,40.61 16.41,39.73 14.17,39.27 C 12.8,38.89 11.39,38.61 10.05,38.14 C 9.33,36.65 7.84,35.9 6.47,35.13 C 6.41,32.75 6.66,30.31 6,27.98 C 4.99,24.11 5.66,20.05 5.09,16.12 C 4.64,15.95 3.73,15.62 3.28,15.45 C 3.3,13.71 3.37,11.97 3.48,10.23 M 7.28,15.19 C 6.63,18.82 8.76,25.37 13.53,23.47 C 15.68,22.06 13.93,19.6 13.33,17.84 C 12.73,15.34 9.5,13.8 7.28,15.19 M 8.51,27.55 C 8.08,30.19 8.39,32.97 9.92,35.22 C 11.32,35.96 13.01,35.61 14.54,35.72 C 16.53,32.08 13.01,25.69 8.51,27.55 z"
       id="path31"
       style="opacity:0.83999999;fill:#062547" />
  </g>
  <g
     id="#bbba00bb">
    <path
       d="M 22.22,13.3 C 24.54,12.33 27.85,11.82 29.82,13.72 C 30.14,18.89 21.03,18.44 22.22,13.3 z"
       id="path34"
       style="opacity:0.73000004;fill:#bbba00" />
  </g>
  <g
     id="#4f7854e1">
    <path
       d="M 32.27,16.46 C 32.3,15.05 32.56,13.49 34,12.82 C 35.62,12.62 37.22,13.02 38.82,13.2 C 38.16,14.69 37.41,16.13 36.6,17.54 C 35.15,17.2 33.71,16.82 32.27,16.46 z"
       id="path37"
       style="opacity:0.87999998;fill:#4f7854" />
  </g>
  <g
     id="#b7b000bc">
    <path
       d="M 39.3,15.96 C 40.37,14.56 42.05,13.77 43.64,13.08 C 43.61,15.19 43.55,17.29 43.54,19.4 C 42.35,20.73 41.23,22.23 39.55,22.97 C 39.38,20.64 39.15,18.3 39.3,15.96 z"
       id="path40"
       style="opacity:0.73999999;fill:#b7b000" />
  </g>
  <g
     id="#0d0d14bf">
    <path
       d="M 7.28,15.19 C 9.5,13.8 12.73,15.34 13.33,17.84 C 13.93,19.6 15.68,22.06 13.53,23.47 C 8.76,25.37 6.63,18.82 7.28,15.19 z"
       id="path43"
       style="opacity:0.75;fill:#0d0d14" />
  </g>
  <g
     id="#0d080bbb">
    <path
       d="M 19.4,17.23 L 20.15,18.02 C 21.8,20.17 24.78,21.9 24.5,24.96 C 24.67,26.76 24.52,28.61 23.15,29.95 C 21.16,28.64 18.7,27.48 17.8,25.1 C 17.21,22.34 17.65,19.48 19.4,17.23 z"
       id="path46"
       style="opacity:0.73000004;fill:#0d080b" />
  </g>
  <g
     id="#a8ab06c0">
    <path
       d="M 31.61,18.53 C 32.9,18.36 34.2,18.51 35.5,18.57 C 35.55,20.73 35.43,22.88 35.18,25.01 C 33.22,26.77 31.18,29.15 28.27,28.83 C 28.31,26.65 28.34,24.47 28.33,22.28 C 29.35,20.98 30.22,19.48 31.61,18.53 z"
       id="path49"
       style="opacity:0.75;fill:#a8ab06" />
  </g>
  <g
     id="#00244f8a">
    <path
       d="M 45.3,31.98 C 45.32,27.94 46.07,23.93 48,20.36 L 48,33.03 C 44.19,35.01 41.06,38 37.42,40.24 C 34.16,42.3 30.53,44.29 28.91,48 L 24.73,48 C 23.76,43.95 18.84,42.78 15.41,41.41 C 15.1,40.88 14.48,39.81 14.17,39.27 C 16.41,39.73 18.54,40.61 20.57,41.66 C 20.95,41.89 21.7,42.36 22.08,42.59 C 24.13,43.93 26.51,45.52 29.06,44.44 C 33.35,41.18 37.61,37.86 42.07,34.88 C 42.37,34.58 42.96,33.99 43.25,33.69 C 43.77,33.26 44.79,32.4 45.3,31.98 z"
       id="path52"
       style="opacity:0.54000005;fill:#00244f" />
  </g>
  <g
     id="#4a7553e0">
    <path
       d="M 37.28,23.31 C 38.11,23.66 38.92,24.02 39.74,24.39 C 39.35,26.32 38.16,27.95 37.28,29.68 C 36.04,29.67 34.79,29.73 33.59,29.41 C 32.88,28.24 34.33,27.73 34.93,26.99 C 36.01,25.99 36.54,24.55 37.28,23.31 z"
       id="path55"
       style="opacity:0.87999998;fill:#4a7553" />
  </g>
  <g
     id="#0f0d12c1">
    <path
       d="M 8.51,27.55 C 13.01,25.69 16.53,32.08 14.54,35.72 C 13.01,35.61 11.32,35.96 9.92,35.22 C 8.39,32.97 8.08,30.19 8.51,27.55 z"
       id="path58"
       style="opacity:0.76000001;fill:#0f0d12" />
  </g>
  <g
     id="#b5b101bf">
    <path
       d="M 39.44,34.29 C 38.13,31.21 38.54,27.18 42.24,26.12 C 44.09,28.25 43.2,31.15 43.25,33.69 C 42.96,33.99 42.37,34.58 42.07,34.88 C 41.42,34.73 40.1,34.44 39.44,34.29 z"
       id="path61"
       style="opacity:0.75;fill:#b5b101" />
  </g>
  <g
     id="#aeac06c0">
    <path
       d="M 29.79,33.87 C 31.47,32.56 33.3,31.19 35.53,31.21 C 35.5,33.22 35.43,35.23 35.31,37.24 C 33.91,38.69 32.45,40.07 30.99,41.47 C 30.34,41.13 29.05,40.46 28.4,40.13 C 28.63,38.01 28.72,35.77 29.79,33.87 z"
       id="path64"
       style="opacity:0.75;fill:#aeac06" />
  </g>
  <g
     id="#0e0b0ebc">
    <path
       d="M 18.48,32.38 C 24.25,30.69 27.59,40.65 22.08,42.59 C 21.7,42.36 20.95,41.89 20.57,41.66 C 20.55,39.77 19.06,38.46 18.37,36.82 C 18.22,35.34 18.4,33.86 18.48,32.38 z"
       id="path67"
       style="opacity:0.73999999;fill:#0e0b0e" />
  </g>
</svg>
