<svg width="60" xmlns="http://www.w3.org/2000/svg" height="60" viewBox="0 0 48 48">
<path opacity=".46" fill="#1b3248" d="m22.05,2.64c1.11-.02 2.21-.03 3.31-.02 4.57,3.66 10.42,5.02 15.96,6.49 1.48,.42 3.2,.87 3.97,2.36 .57,2.81 .25,5.7 .25,8.55-.22,4.99 .46,10.14-1.19,14.97-5.98,3.03-10.83,7.83-16.79,10.91l.52-1.97c4.09-3.21 8.53-5.93 12.67-9.05 2.64-1.7 2.6-5.13 2.7-7.9 .02-4.76 .38-9.51 1.13-14.21-3.13-1.39-6.33-2.64-9.66-3.46-4.25-.99-7.93-3.39-11.83-5.22-2.72,2.61-5.91,5.12-9.92,4.78 2.66-2.53 6.46-3.4 8.88-6.23z"/>
<path fill="#3d73a5" d="m13.17,8.87c4.01,.34 7.2-2.17 9.92-4.78 3.9,1.83 7.58,4.23 11.83,5.22 3.33,.82 6.53,2.07 9.66,3.46-.75,4.7-1.11,9.45-1.13,14.21-.1,2.77-.06,6.2-2.7,7.9-4.14,3.12-8.58,5.84-12.67,9.05l-.65,.32c-1.45-7.35-.26-14.94-1.52-22.25-5.45-4.49-12.73-5.84-18.8-9.31-.59,.07-1.77,.22-2.36,.3l-.44-.17c1.54-1.11 3.52-1.24 5.31-1.69-.06-.34-.18-1.01-.24-1.35 1.15-.19 2.29-.41 3.43-.65l.36-.26z"/>
<path fill="#0e1a25" d="m4.31,12.82l.44,.17c.16,.18 .47,.53 .63,.71 5.43,3.27 11.76,4.61 17.27,7.74 2.18,.89 1.49,3.66 1.73,5.53-.18,5.98 .64,12.01-.45,17.94-3.15-1.29-6.23-2.72-9.44-3.85 0-.28-.01-.84-.01-1.12-1.99-.72-4.11-1.24-5.82-2.54-5.03-3.13-2.06-9.79-3.73-14.52-.21-.72-.63-2.15-.84-2.86-.14-2.3-1.96-5.62 .22-7.2z"/>
<path fill="#2a4e71" d="m4.75,12.99c.59-.08 1.77-.23 2.36-.3 6.07,3.47 13.35,4.82 18.8,9.31 1.26,7.31 .07,14.9 1.52,22.25-1.21,.54-2.43,1.04-3.65,1.55l.15-.89c1.09-5.93 .27-11.96 .45-17.94-.24-1.87 .45-4.64-1.73-5.53-5.51-3.13-11.84-4.47-17.27-7.74-.16-.18-.47-.53-.63-.71z"/>
<path opacity=".6" fill="#172a3d" d="m27.43,44.25l.65-.32-.52,1.97c-.19,.7-.39,1.4-.6,2.1h-3.6c.1-.55 .31-1.65 .42-2.2 1.22-.51 2.44-1.01 3.65-1.55z"/>
</svg>
