<svg width="60" xmlns="http://www.w3.org/2000/svg" height="60" viewBox="0 0 48 48">
<path opacity=".4" fill="#031e38" d="m21.89,0h1.12c.18,.65 .54,1.96 .72,2.62 1.18,0 2.36,0 3.54,.01 .18-.66 .55-1.97 .74-2.63h1.09c5.72,3.98 12.37,5.96 18.9,8.15v.79c-1.82,.04-3.64,.07-5.46,.1 2.93,4.28 2.53,9.48 1.99,14.37-.55,3.82 1.94,6.96 3.47,10.21v.57c-5.7,3.27-11.44,6.64-16.3,11.1-.18-.84-.36-1.68-.55-2.52-1.86-.23-3.72-.44-5.57-.74-.47-2.99-.28-6.72-3.04-8.68-1.61-1.37-3.6,.07-5.23,.62-.8,.35-1.6,.7-2.4,1.05 .21-1.41 .43-2.82 .66-4.23 .8,.32 1.61,.65 2.41,.97 .26-1.53 .52-3.07 .69-4.62 1.86,.9 3.78,1.69 5.69,2.47-.12-2.42-.05-4.88-.67-7.24-1.3-2.02-3.25-3.49-5.01-5.09-.3,2.89-.59,5.78-1.01,8.65-1.94-.58-3.92-1.01-5.84-1.63 1.18-.61 2.36-1.22 3.55-1.82-1-4.03-3.61-7.24-7.37-9.01-.5,2.15-.98,4.32-1.46,6.48-.36-.28-1.08-.84-1.44-1.12 1.18-3.25 2.38-6.49 3.55-9.74-1.63,.23-3.26,.47-4.89,.73-.24,2.37-.54,4.74-.77,7.12-.06,.55-.18,1.66-.24,2.22-.29-3.03-.83-6.19 .1-9.17 3.28-2.48 7.44-3.26 11.11-5 2.87-1.27 5.33-3.25 7.92-4.99m11.58,8.35c-.87,1.17-2.04,2.08-2.97,3.19 3.12,.15 6.25,.23 9.38,.32-.05-.71-.14-2.13-.18-2.84-2.07-.31-4.14-.65-6.23-.67m-23.18,1.73c1.22,.83 2.51,1.54 3.83,2.2 2.46,.3 7,.65 6-3.12-3.31-.71-6.64,.09-9.83,.92m10.88-.87c.01,.66 .04,1.96 .05,2.62 3.28,.04 6.81,.2 9.38-2.19-3.14-.26-6.28-.36-9.43-.43m-7.1,4.67c.25,1.32 .6,2.62 1.08,3.86 .74,.08 2.21,.23 2.94,.3 .47-1.72 1.46-3.23 1.93-4.95-1.93,.46-3.96,.6-5.95,.79m7.22-1c1.46,1.63 1.8,5.21 4.69,4.6 2.85,.46 3.99-2.44 4.66-4.63-3.11-.03-6.23-.06-9.35,.03m12.06,.03c-.6,1.37-1.08,2.79-1.56,4.2 3.14-.13 6.35-.84 7.67-4.05-2.04-.07-4.07-.15-6.11-.15m5.4,5.14c.33,1.83 .64,3.65 1.11,5.45 1.39-1.22 2.82-2.41 3.97-3.85 .88-2.34 .24-4.93 .27-7.36-2.04,1.6-5.41,2.62-5.35,5.76m-8.85,1.82c-2.12,2.65-2.25,6.2-2.81,9.41 2.43-.61 4.87-1.21 7.18-2.21-.56,.99-1.09,2-1.58,3.03 2.18-.31 4.45-.62 6.25-2-.78,2.33 .58,4.61 .82,6.9 .98-.79 1.94-1.62 2.87-2.47 2.46-1.82 1.31-5.24 1.53-7.83-1.34,.8-2.62,1.67-3.91,2.54-.52-1.32-1.05-2.64-1.6-3.95-1.22,.85-2.41,1.74-3.66,2.55 .92-2.5 .73-5.22 .87-7.83-2.01,.38-4.63-.1-5.96,1.86m.09,14.15c-1.4,2.07-1.43,4.7-1.9,7.07 2.01-.52 4.5-.35 5.9-2.15 2.16-2.24 1.71-5.63 2.1-8.46-2.09,1.05-4.76,1.41-6.1,3.54z"/>
<path opacity=".72" fill="#053665" d="m23.01,0h5c-.19,.66-.56,1.97-.74,2.63-1.18-.01-2.36-.01-3.54-.01-.18-.66-.54-1.97-.72-2.62z"/>
<path opacity=".73" fill="#053766" d="m3.77,9.82c1.63-.26 3.26-.5 4.89-.73-1.17,3.25-2.37,6.49-3.55,9.74-.72-.61-1.4-1.27-2.11-1.89 .23-2.38 .53-4.75 .77-7.12z"/>
<path opacity=".07" fill="#000509" d="m10.29,10.08c3.19-.83 6.52-1.63 9.83-.92 1,3.77-3.54,3.42-6,3.12-1.32-.66-2.61-1.37-3.83-2.2z"/>
<path opacity=".63" fill="#052f58" d="m21.17,9.21c3.15,.07 6.29,.17 9.43,.43-2.57,2.39-6.1,2.23-9.38,2.19-.01-.66-.04-1.96-.05-2.62z"/>
<path opacity=".78" fill="#063b6d" d="m42.54,9.04c1.82-.03 3.64-.06 5.46-.1v24.68c-1.53-3.25-4.02-6.39-3.47-10.21 .54-4.89 .94-10.09-1.99-14.37z"/>
<path opacity=".61" fill="#052d55" d="m14.07,13.88c1.99-.19 4.02-.33 5.95-.79-.47,1.72-1.46,3.23-1.93,4.95-.73-.07-2.2-.22-2.94-.3-.48-1.24-.83-2.54-1.08-3.86z"/>
<path opacity=".6" fill="#042d54" d="m33.35,12.91c2.04,0 4.07,.08 6.11,.15-1.32,3.21-4.53,3.92-7.67,4.05 .48-1.41 .96-2.83 1.56-4.2z"/>
<path opacity=".48" fill="#032443" d="m3,16.94c.71,.62 1.39,1.28 2.11,1.89 .36,.28 1.08,.84 1.44,1.12 1.82,1.38 3.51,2.91 5.28,4.35 1.92,.62 3.9,1.05 5.84,1.63 .25,.3 .75,.91 1,1.21-.17,1.55-.43,3.09-.69,4.62-.8-.32-1.61-.65-2.41-.97-2.36-1.31-4.58-2.84-6.65-4.56 .08,2.69-.28,5.53 .72,8.09 1.1,2.2 3.47,.91 5.27,.7 .8-.35 1.6-.7 2.4-1.05 .97,2.18 1.61,4.62 3.23,6.43 1.55,.88 3.33,1.22 5.04,1.63 1.85,.3 3.71,.51 5.57,.74 .19,.84 .37,1.68 .55,2.52-.81,.89-1.6,1.79-2.37,2.71h-4.26c-3.24-2.48-6.44-5.08-10.16-6.83-3.33-1.83-7.59-3.29-8.89-7.27-1.74-4.74-2.62-9.75-3.26-14.74 .06-.56 .18-1.67 .24-2.22z"/>
<path opacity=".05" fill="#000306" d="m29.9,19.87c1.33-1.96 3.95-1.48 5.96-1.86-.14,2.61 .05,5.33-.87,7.83-.18,.31-.54,.92-.72,1.23-2.31,1-4.75,1.6-7.18,2.21 .56-3.21 .69-6.76 2.81-9.41z"/>
<path opacity=".57" fill="#042b50" d="m34.99,25.84c1.25-.81 2.44-1.7 3.66-2.55 .55,1.31 1.08,2.63 1.6,3.95-.33,.22-.98,.65-1.31,.86-1.8,1.38-4.07,1.69-6.25,2 .49-1.03 1.02-2.04 1.58-3.03 .18-.31 .54-.92 .72-1.23z"/>
<path opacity=".05" fill="#000407" d="m40.25,27.24c1.29-.87 2.57-1.74 3.91-2.54-.22,2.59 .93,6.01-1.53,7.83-.93,.85-1.89,1.68-2.87,2.47-.24-2.29-1.6-4.57-.82-6.9 .33-.21 .98-.64 1.31-.86z"/>
</svg>
