<?xml version="1.0" encoding="UTF-8" standalone="no"?>
<!-- Created with Inkscape (http://www.inkscape.org/) -->
<svg
   xmlns:svg="http://www.w3.org/2000/svg"
   xmlns="http://www.w3.org/2000/svg"
   version="1.0"
   width="128"
   height="128"
   id="svg2383">
  <defs
     id="defs2385" />
  <g
     id="layer1">
    <g
       transform="matrix(1.3836036,0,0,1.2193078,27.895361,2.1182358)"
       id="g2482">
      <g
         id="#1b324875">
        <path
           d="M 22.05,2.64 C 23.16,2.62 24.26,2.61 25.36,2.62 C 29.93,6.28 35.78,7.64 41.32,9.11 C 42.8,9.53 44.52,9.98 45.29,11.47 C 45.86,14.28 45.54,17.17 45.54,20.02 C 45.32,25.01 46,30.16 44.35,34.99 C 38.37,38.02 33.52,42.82 27.56,45.9 L 28.08,43.93 C 32.17,40.72 36.61,38 40.75,34.88 C 43.39,33.18 43.35,29.75 43.45,26.98 C 43.47,22.22 43.83,17.47 44.58,12.77 C 41.45,11.38 38.25,10.13 34.92,9.31 C 30.67,8.32 26.99,5.92 23.09,4.09 C 20.37,6.7 17.18,9.21 13.17,8.87 C 15.83,6.34 19.63,5.47 22.05,2.64 z"
           id="path2460"
           style="opacity:0.46000001;fill:#1b3248" />
      </g>
      <g
         id="#3d73a5ff">
        <path
           d="M 13.17,8.87 C 17.18,9.21 20.37,6.7 23.09,4.09 C 26.99,5.92 30.67,8.32 34.92,9.31 C 38.25,10.13 41.45,11.38 44.58,12.77 C 43.83,17.47 43.47,22.22 43.45,26.98 C 43.35,29.75 43.39,33.18 40.75,34.88 C 36.61,38 32.17,40.72 28.08,43.93 L 27.43,44.25 C 25.98,36.9 27.17,29.31 25.91,22 C 20.46,17.51 13.18,16.16 7.11,12.69 C 6.52,12.76 5.34,12.91 4.75,12.99 L 4.31,12.82 C 5.85,11.71 7.83,11.58 9.62,11.13 C 9.56,10.79 9.44,10.12 9.38,9.78 C 10.53,9.59 11.67,9.37 12.81,9.13 L 13.17,8.87 z"
           id="path2463"
           style="opacity:1;fill:#3d73a5" />
      </g>
      <g
         id="#0e1a25ff">
        <path
           d="M 4.31,12.82 L 4.75,12.99 C 4.91,13.17 5.22,13.52 5.38,13.7 C 10.81,16.97 17.14,18.31 22.65,21.44 C 24.83,22.33 24.14,25.1 24.38,26.97 C 24.2,32.95 25.02,38.98 23.93,44.91 C 20.78,43.62 17.7,42.19 14.49,41.06 C 14.49,40.78 14.48,40.22 14.48,39.94 C 12.49,39.22 10.37,38.7 8.66,37.4 C 3.63,34.27 6.6,27.61 4.93,22.88 C 4.72,22.16 4.3,20.73 4.09,20.02 C 3.95,17.72 2.13,14.4 4.31,12.82 z"
           id="path2466"
           style="opacity:1;fill:#0e1a25" />
      </g>
      <g
         id="#2a4e71ff">
        <path
           d="M 4.75,12.99 C 5.34,12.91 6.52,12.76 7.11,12.69 C 13.18,16.16 20.46,17.51 25.91,22 C 27.17,29.31 25.98,36.9 27.43,44.25 C 26.22,44.79 25,45.29 23.78,45.8 L 23.93,44.91 C 25.02,38.98 24.2,32.95 24.38,26.97 C 24.14,25.1 24.83,22.33 22.65,21.44 C 17.14,18.31 10.81,16.97 5.38,13.7 C 5.22,13.52 4.91,13.17 4.75,12.99 z"
           id="path2469"
           style="opacity:1;fill:#2a4e71" />
      </g>
      <g
         id="#172a3d99">
        <path
           d="M 27.43,44.25 L 28.08,43.93 L 27.56,45.9 C 27.37,46.6 27.17,47.3 26.96,48 L 23.36,48 C 23.46,47.45 23.67,46.35 23.78,45.8 C 25,45.29 26.22,44.79 27.43,44.25 z"
           id="path2472"
           style="opacity:0.6;fill:#172a3d" />
      </g>
    </g>
    <g
       transform="matrix(1.1273719,0,0,1.0974648,1.4418619,68.765617)"
       id="g2679">
      <g
         id="#031e3866">
        <path
           d="M 21.89,0 L 23.01,0 C 23.19,0.65 23.55,1.96 23.73,2.62 C 24.91,2.62 26.09,2.62 27.27,2.63 C 27.45,1.97 27.82,0.66 28.01,0 L 29.1,0 C 34.82,3.98 41.47,5.96 48,8.15 L 48,8.94 C 46.18,8.98 44.36,9.01 42.54,9.04 C 45.47,13.32 45.07,18.52 44.53,23.41 C 43.98,27.23 46.47,30.37 48,33.62 L 48,34.19 C 42.3,37.46 36.56,40.83 31.7,45.29 C 31.52,44.45 31.34,43.61 31.15,42.77 C 29.29,42.54 27.43,42.33 25.58,42.03 C 25.11,39.04 25.3,35.31 22.54,33.35 C 20.93,31.98 18.94,33.42 17.31,33.97 C 16.51,34.32 15.71,34.67 14.91,35.02 C 15.12,33.61 15.34,32.2 15.57,30.79 C 16.37,31.11 17.18,31.44 17.98,31.76 C 18.24,30.23 18.5,28.69 18.67,27.14 C 20.53,28.04 22.45,28.83 24.36,29.61 C 24.24,27.19 24.31,24.73 23.69,22.37 C 22.39,20.35 20.44,18.88 18.68,17.28 C 18.38,20.17 18.09,23.06 17.67,25.93 C 15.73,25.35 13.75,24.92 11.83,24.3 C 13.01,23.69 14.19,23.08 15.38,22.48 C 14.38,18.45 11.77,15.24 8.01,13.47 C 7.51,15.62 7.03,17.79 6.55,19.95 C 6.19,19.67 5.47,19.11 5.11,18.83 C 6.29,15.58 7.49,12.34 8.66,9.09 C 7.03,9.32 5.4,9.56 3.77,9.82 C 3.53,12.19 3.23,14.56 3,16.94 C 2.94,17.49 2.82,18.6 2.76,19.16 C 2.47,16.13 1.93,12.97 2.86,9.99 C 6.14,7.51 10.3,6.73 13.97,4.99 C 16.84,3.72 19.3,1.74 21.89,0 M 33.47,8.35 C 32.6,9.52 31.43,10.43 30.5,11.54 C 33.62,11.69 36.75,11.77 39.88,11.86 C 39.83,11.15 39.74,9.73 39.7,9.02 C 37.63,8.71 35.56,8.37 33.47,8.35 M 10.29,10.08 C 11.51,10.91 12.8,11.62 14.12,12.28 C 16.58,12.58 21.12,12.93 20.12,9.16 C 16.81,8.45 13.48,9.25 10.29,10.08 M 21.17,9.21 C 21.18,9.87 21.21,11.17 21.22,11.83 C 24.5,11.87 28.03,12.03 30.6,9.64 C 27.46,9.38 24.32,9.28 21.17,9.21 M 14.07,13.88 C 14.32,15.2 14.67,16.5 15.15,17.74 C 15.89,17.82 17.36,17.97 18.09,18.04 C 18.56,16.32 19.55,14.81 20.02,13.09 C 18.09,13.55 16.06,13.69 14.07,13.88 M 21.29,12.88 C 22.75,14.51 23.09,18.09 25.98,17.48 C 28.83,17.94 29.97,15.04 30.64,12.85 C 27.53,12.82 24.41,12.79 21.29,12.88 M 33.35,12.91 C 32.75,14.28 32.27,15.7 31.79,17.11 C 34.93,16.98 38.14,16.27 39.46,13.06 C 37.42,12.99 35.39,12.91 33.35,12.91 M 38.75,18.05 C 39.08,19.88 39.39,21.7 39.86,23.5 C 41.25,22.28 42.68,21.09 43.83,19.65 C 44.71,17.31 44.07,14.72 44.1,12.29 C 42.06,13.89 38.69,14.91 38.75,18.05 M 29.9,19.87 C 27.78,22.52 27.65,26.07 27.09,29.28 C 29.52,28.67 31.96,28.07 34.27,27.07 C 33.71,28.06 33.18,29.07 32.69,30.1 C 34.87,29.79 37.14,29.48 38.94,28.1 C 38.16,30.43 39.52,32.71 39.76,35 C 40.74,34.21 41.7,33.38 42.63,32.53 C 45.09,30.71 43.94,27.29 44.16,24.7 C 42.82,25.5 41.54,26.37 40.25,27.24 C 39.73,25.92 39.2,24.6 38.65,23.29 C 37.43,24.14 36.24,25.03 34.99,25.84 C 35.91,23.34 35.72,20.62 35.86,18.01 C 33.85,18.39 31.23,17.91 29.9,19.87 M 29.99,34.02 C 28.59,36.09 28.56,38.72 28.09,41.09 C 30.1,40.57 32.59,40.74 33.99,38.94 C 36.15,36.7 35.7,33.31 36.09,30.48 C 34,31.53 31.33,31.89 29.99,34.02 z"
           id="path2636"
           style="opacity:0.4;fill:#031e38" />
      </g>
      <g
         id="#053665b7">
        <path
           d="M 23.01,0 L 28.01,0 C 27.82,0.66 27.45,1.97 27.27,2.63 C 26.09,2.62 24.91,2.62 23.73,2.62 C 23.55,1.96 23.19,0.65 23.01,0 z"
           id="path2639"
           style="opacity:0.72000002;fill:#053665" />
      </g>
      <g
         id="#053766ba">
        <path
           d="M 3.77,9.82 C 5.4,9.56 7.03,9.32 8.66,9.09 C 7.49,12.34 6.29,15.58 5.11,18.83 C 4.39,18.22 3.71,17.56 3,16.94 C 3.23,14.56 3.53,12.19 3.77,9.82 z"
           id="path2642"
           style="opacity:0.73000004;fill:#053766" />
      </g>
      <g
         id="#00050912">
        <path
           d="M 10.29,10.08 C 13.48,9.25 16.81,8.45 20.12,9.16 C 21.12,12.93 16.58,12.58 14.12,12.28 C 12.8,11.62 11.51,10.91 10.29,10.08 z"
           id="path2645"
           style="opacity:0.07000002;fill:#000509" />
      </g>
      <g
         id="#052f58a0">
        <path
           d="M 21.17,9.21 C 24.32,9.28 27.46,9.38 30.6,9.64 C 28.03,12.03 24.5,11.87 21.22,11.83 C 21.21,11.17 21.18,9.87 21.17,9.21 z"
           id="path2648"
           style="opacity:0.62999998;fill:#052f58" />
      </g>
      <g
         id="#063b6dc6">
        <path
           d="M 42.54,9.04 C 44.36,9.01 46.18,8.98 48,8.94 L 48,33.62 C 46.47,30.37 43.98,27.23 44.53,23.41 C 45.07,18.52 45.47,13.32 42.54,9.04 z"
           id="path2651"
           style="opacity:0.77999998;fill:#063b6d" />
      </g>
      <g
         id="#052d559b">
        <path
           d="M 14.07,13.88 C 16.06,13.69 18.09,13.55 20.02,13.09 C 19.55,14.81 18.56,16.32 18.09,18.04 C 17.36,17.97 15.89,17.82 15.15,17.74 C 14.67,16.5 14.32,15.2 14.07,13.88 z"
           id="path2654"
           style="opacity:0.61000001;fill:#052d55" />
      </g>
      <g
         id="#042d549a">
        <path
           d="M 33.35,12.91 C 35.39,12.91 37.42,12.99 39.46,13.06 C 38.14,16.27 34.93,16.98 31.79,17.11 C 32.27,15.7 32.75,14.28 33.35,12.91 z"
           id="path2657"
           style="opacity:0.6;fill:#042d54" />
      </g>
      <g
         id="#0324437a">
        <path
           d="M 3,16.94 C 3.71,17.56 4.39,18.22 5.11,18.83 C 5.47,19.11 6.19,19.67 6.55,19.95 C 8.37,21.33 10.06,22.86 11.83,24.3 C 13.75,24.92 15.73,25.35 17.67,25.93 C 17.92,26.23 18.42,26.84 18.67,27.14 C 18.5,28.69 18.24,30.23 17.98,31.76 C 17.18,31.44 16.37,31.11 15.57,30.79 C 13.21,29.48 10.99,27.95 8.92,26.23 C 9,28.92 8.64,31.76 9.64,34.32 C 10.74,36.52 13.11,35.23 14.91,35.02 C 15.71,34.67 16.51,34.32 17.31,33.97 C 18.28,36.15 18.92,38.59 20.54,40.4 C 22.09,41.28 23.87,41.62 25.58,42.03 C 27.43,42.33 29.29,42.54 31.15,42.77 C 31.34,43.61 31.52,44.45 31.7,45.29 C 30.89,46.18 30.1,47.08 29.33,48 L 25.07,48 C 21.83,45.52 18.63,42.92 14.91,41.17 C 11.58,39.34 7.32,37.88 6.02,33.9 C 4.28,29.16 3.4,24.15 2.76,19.16 C 2.82,18.6 2.94,17.49 3,16.94 z"
           id="path2660"
           style="opacity:0.47999998;fill:#032443" />
      </g>
      <g
         id="#0003060c">
        <path
           d="M 29.9,19.87 C 31.23,17.91 33.85,18.39 35.86,18.01 C 35.72,20.62 35.91,23.34 34.99,25.84 C 34.81,26.15 34.45,26.76 34.27,27.07 C 31.96,28.07 29.52,28.67 27.09,29.28 C 27.65,26.07 27.78,22.52 29.9,19.87 z"
           id="path2663"
           style="opacity:0.05;fill:#000306" />
      </g>
      <g
         id="#042b5092">
        <path
           d="M 34.99,25.84 C 36.24,25.03 37.43,24.14 38.65,23.29 C 39.2,24.6 39.73,25.92 40.25,27.24 C 39.92,27.46 39.27,27.89 38.94,28.1 C 37.14,29.48 34.87,29.79 32.69,30.1 C 33.18,29.07 33.71,28.06 34.27,27.07 C 34.45,26.76 34.81,26.15 34.99,25.84 z"
           id="path2666"
           style="opacity:0.56999972;fill:#042b50" />
      </g>
      <g
         id="#0004070e">
        <path
           d="M 40.25,27.24 C 41.54,26.37 42.82,25.5 44.16,24.7 C 43.94,27.29 45.09,30.71 42.63,32.53 C 41.7,33.38 40.74,34.21 39.76,35 C 39.52,32.71 38.16,30.43 38.94,28.1 C 39.27,27.89 39.92,27.46 40.25,27.24 z"
           id="path2669"
           style="opacity:0.05;fill:#000407" />
      </g>
    </g>
    <g
       transform="matrix(1.2654015,0,0,1.1896182,62.347999,66.352868)"
       id="g2874">
      <g
         id="#0e4062b5">
        <path
           d="M 22.77,0 L 27.59,0 C 27.4,0.54 27.03,1.62 26.84,2.16 C 24.48,2.34 21.9,2.3 20.01,3.97 C 18.51,5.3 16.56,5.63 14.62,5.73 C 17.36,4.86 19.75,3.18 22.47,2.26 C 22.55,1.7 22.69,0.57 22.77,0 z"
           id="path2802"
           style="opacity:0.70999995;fill:#0e4062" />
        <path
           d="M 38.81,6.34 C 42.26,5.77 44.52,9.25 48,8.61 L 48,20.36 C 46.07,23.93 45.32,27.94 45.3,31.98 C 45.59,28.95 45.12,25.95 44.49,23 C 44.77,19.37 46.18,15.67 45.17,12.02 C 43.7,9.51 40.73,8.46 38.81,6.34 z"
           id="path2804"
           style="opacity:0.70999995;fill:#0e4062" />
      </g>
      <g
         id="#0e1c2d54">
        <path
           d="M 27.59,0 L 29.06,0 C 29.34,2.78 32.26,2.29 34.25,2.98 C 36.07,3.55 37.42,4.97 38.66,6.34 C 37.4,6.33 36.14,6.29 34.89,6.21 C 32.57,4.22 29.69,3.14 26.84,2.16 C 27.03,1.62 27.4,0.54 27.59,0 z"
           id="path2807"
           style="opacity:0.33000004;fill:#0e1c2d" />
      </g>
      <g
         id="#455f3aa9">
        <path
           d="M 20.01,3.97 C 21.9,2.3 24.48,2.34 26.84,2.16 C 29.69,3.14 32.57,4.22 34.89,6.21 C 32.98,6.37 31.14,5.91 29.51,4.93 C 27.15,3.16 23.94,2.96 21.63,4.95 C 18.55,6.79 14.93,7.85 11.35,7.77 C 12.17,6.64 13.26,5.96 14.62,5.73 C 16.56,5.63 18.51,5.3 20.01,3.97 z"
           id="path2810"
           style="opacity:0.66000001;fill:#455f3a" />
      </g>
      <g
         id="#a2a813c9">
        <path
           d="M 21.63,4.95 C 23.94,2.96 27.15,3.16 29.51,4.93 C 28.26,7.69 25.39,9.07 22.54,7.75 C 22.31,7.05 21.86,5.65 21.63,4.95 z"
           id="path2813"
           style="opacity:0.79000005;fill:#a2a813" />
      </g>
      <g
         id="#738e36d5">
        <path
           d="M 11.35,7.77 C 14.93,7.85 18.55,6.79 21.63,4.95 C 21.86,5.65 22.31,7.05 22.54,7.75 C 25.39,9.07 28.26,7.69 29.51,4.93 C 31.14,5.91 32.98,6.37 34.89,6.21 C 36.14,6.29 37.4,6.33 38.66,6.34 L 38.81,6.34 C 40.73,8.46 43.7,9.51 45.17,12.02 C 46.18,15.67 44.77,19.37 44.49,23 C 45.12,25.95 45.59,28.95 45.3,31.98 C 44.79,32.4 43.77,33.26 43.25,33.69 C 43.2,31.15 44.09,28.25 42.24,26.12 C 38.54,27.18 38.13,31.21 39.44,34.29 C 40.1,34.44 41.42,34.73 42.07,34.88 C 37.61,37.86 33.35,41.18 29.06,44.44 C 28.67,44.21 27.89,43.75 27.5,43.51 C 26.2,40.45 26.67,37.1 27.24,33.94 C 27.91,31.59 26.62,29.35 26.63,27.02 C 26.58,24.51 26.65,21.99 26.59,19.48 C 24.54,18.62 22.35,18.23 20.15,18.02 L 19.4,17.23 C 17.89,14.9 15.18,14.52 12.64,14.26 C 10.99,13.02 7.38,12.33 7.87,9.82 C 6.41,9.94 4.88,9.75 3.48,10.23 L 3.6,9.63 C 6.08,8.6 9.05,9.18 11.35,7.77 M 34.15,7.36 C 32.93,8.37 32.23,9.76 32.11,11.34 C 35.04,11.53 38.21,12.22 40.98,10.93 C 39.13,9.06 36.63,8.11 34.15,7.36 M 10.07,10.15 C 11.85,12.83 18.6,14.02 18.95,9.97 C 16.52,7.66 12.86,9.47 10.07,10.15 M 22.2,9.41 C 21.06,9.75 21.22,11.22 22.32,11.42 C 24.63,11.69 26.95,11.5 29.25,11.29 C 29.37,10.82 29.61,9.87 29.73,9.4 C 27.22,9.3 24.7,9.13 22.2,9.41 M 22.22,13.3 C 21.03,18.44 30.14,18.89 29.82,13.72 C 27.85,11.82 24.54,12.33 22.22,13.3 M 32.27,16.46 C 33.71,16.82 35.15,17.2 36.6,17.54 C 37.41,16.13 38.16,14.69 38.82,13.2 C 37.22,13.02 35.62,12.62 34,12.82 C 32.56,13.49 32.3,15.05 32.27,16.46 M 39.3,15.96 C 39.15,18.3 39.38,20.64 39.55,22.97 C 41.23,22.23 42.35,20.73 43.54,19.4 C 43.55,17.29 43.61,15.19 43.64,13.08 C 42.05,13.77 40.37,14.56 39.3,15.96 M 31.61,18.53 C 30.22,19.48 29.35,20.98 28.33,22.28 C 28.34,24.47 28.31,26.65 28.27,28.83 C 31.18,29.15 33.22,26.77 35.18,25.01 C 35.43,22.88 35.55,20.73 35.5,18.57 C 34.2,18.51 32.9,18.36 31.61,18.53 M 37.28,23.31 C 36.54,24.55 36.01,25.99 34.93,26.99 C 34.33,27.73 32.88,28.24 33.59,29.41 C 34.79,29.73 36.04,29.67 37.28,29.68 C 38.16,27.95 39.35,26.32 39.74,24.39 C 38.92,24.02 38.11,23.66 37.28,23.31 M 29.79,33.87 C 28.72,35.77 28.63,38.01 28.4,40.13 C 29.05,40.46 30.34,41.13 30.99,41.47 C 32.45,40.07 33.91,38.69 35.31,37.24 C 35.43,35.23 35.5,33.22 35.53,31.21 C 33.3,31.19 31.47,32.56 29.79,33.87 z"
           id="path2816"
           style="opacity:0.83999999;fill:#738e36" />
      </g>
      <g
         id="#bab803c6">
        <path
           d="M 34.15,7.36 C 36.63,8.11 39.13,9.06 40.98,10.93 C 38.21,12.22 35.04,11.53 32.11,11.34 C 32.23,9.76 32.93,8.37 34.15,7.36 z"
           id="path2819"
           style="opacity:0.77999998;fill:#bab803" />
      </g>
      <g
         id="#bbbb00bb">
        <path
           d="M 10.07,10.15 C 12.86,9.47 16.52,7.66 18.95,9.97 C 18.6,14.02 11.85,12.83 10.07,10.15 z"
           id="path2822"
           style="opacity:0.73000004;fill:#bbbb00" />
      </g>
      <g
         id="#43735ce4">
        <path
           d="M 22.2,9.41 C 24.7,9.13 27.22,9.3 29.73,9.4 C 29.61,9.87 29.37,10.82 29.25,11.29 C 26.95,11.5 24.63,11.69 22.32,11.42 C 21.22,11.22 21.06,9.75 22.2,9.41 z"
           id="path2825"
           style="opacity:0.88999999;fill:#43735c" />
      </g>
      <g
         id="#062547d7">
        <path
           d="M 3.48,10.23 C 4.88,9.75 6.41,9.94 7.87,9.82 C 7.38,12.33 10.99,13.02 12.64,14.26 C 15.18,14.52 17.89,14.9 19.4,17.23 C 17.65,19.48 17.21,22.34 17.8,25.1 C 18.7,27.48 21.16,28.64 23.15,29.95 C 24.52,28.61 24.67,26.76 24.5,24.96 C 24.78,21.9 21.8,20.17 20.15,18.02 C 22.35,18.23 24.54,18.62 26.59,19.48 C 26.65,21.99 26.58,24.51 26.63,27.02 C 26.62,29.35 27.91,31.59 27.24,33.94 C 26.67,37.1 26.2,40.45 27.5,43.51 C 27.89,43.75 28.67,44.21 29.06,44.44 C 26.51,45.52 24.13,43.93 22.08,42.59 C 27.59,40.65 24.25,30.69 18.48,32.38 C 18.4,33.86 18.22,35.34 18.37,36.82 C 19.06,38.46 20.55,39.77 20.57,41.66 C 18.54,40.61 16.41,39.73 14.17,39.27 C 12.8,38.89 11.39,38.61 10.05,38.14 C 9.33,36.65 7.84,35.9 6.47,35.13 C 6.41,32.75 6.66,30.31 6,27.98 C 4.99,24.11 5.66,20.05 5.09,16.12 C 4.64,15.95 3.73,15.62 3.28,15.45 C 3.3,13.71 3.37,11.97 3.48,10.23 M 7.28,15.19 C 6.63,18.82 8.76,25.37 13.53,23.47 C 15.68,22.06 13.93,19.6 13.33,17.84 C 12.73,15.34 9.5,13.8 7.28,15.19 M 8.51,27.55 C 8.08,30.19 8.39,32.97 9.92,35.22 C 11.32,35.96 13.01,35.61 14.54,35.72 C 16.53,32.08 13.01,25.69 8.51,27.55 z"
           id="path2828"
           style="opacity:0.83999999;fill:#062547" />
      </g>
      <g
         id="#bbba00bb">
        <path
           d="M 22.22,13.3 C 24.54,12.33 27.85,11.82 29.82,13.72 C 30.14,18.89 21.03,18.44 22.22,13.3 z"
           id="path2831"
           style="opacity:0.73000004;fill:#bbba00" />
      </g>
      <g
         id="#4f7854e1">
        <path
           d="M 32.27,16.46 C 32.3,15.05 32.56,13.49 34,12.82 C 35.62,12.62 37.22,13.02 38.82,13.2 C 38.16,14.69 37.41,16.13 36.6,17.54 C 35.15,17.2 33.71,16.82 32.27,16.46 z"
           id="path2834"
           style="opacity:0.87999998;fill:#4f7854" />
      </g>
      <g
         id="#b7b000bc">
        <path
           d="M 39.3,15.96 C 40.37,14.56 42.05,13.77 43.64,13.08 C 43.61,15.19 43.55,17.29 43.54,19.4 C 42.35,20.73 41.23,22.23 39.55,22.97 C 39.38,20.64 39.15,18.3 39.3,15.96 z"
           id="path2837"
           style="opacity:0.73999999;fill:#b7b000" />
      </g>
      <g
         id="#0d0d14bf">
        <path
           d="M 7.28,15.19 C 9.5,13.8 12.73,15.34 13.33,17.84 C 13.93,19.6 15.68,22.06 13.53,23.47 C 8.76,25.37 6.63,18.82 7.28,15.19 z"
           id="path2840"
           style="opacity:0.75;fill:#0d0d14" />
      </g>
      <g
         id="#0d080bbb">
        <path
           d="M 19.4,17.23 L 20.15,18.02 C 21.8,20.17 24.78,21.9 24.5,24.96 C 24.67,26.76 24.52,28.61 23.15,29.95 C 21.16,28.64 18.7,27.48 17.8,25.1 C 17.21,22.34 17.65,19.48 19.4,17.23 z"
           id="path2843"
           style="opacity:0.73000004;fill:#0d080b" />
      </g>
      <g
         id="#a8ab06c0">
        <path
           d="M 31.61,18.53 C 32.9,18.36 34.2,18.51 35.5,18.57 C 35.55,20.73 35.43,22.88 35.18,25.01 C 33.22,26.77 31.18,29.15 28.27,28.83 C 28.31,26.65 28.34,24.47 28.33,22.28 C 29.35,20.98 30.22,19.48 31.61,18.53 z"
           id="path2846"
           style="opacity:0.75;fill:#a8ab06" />
      </g>
      <g
         id="#00244f8a">
        <path
           d="M 45.3,31.98 C 45.32,27.94 46.07,23.93 48,20.36 L 48,33.03 C 44.19,35.01 41.06,38 37.42,40.24 C 34.16,42.3 30.53,44.29 28.91,48 L 24.73,48 C 23.76,43.95 18.84,42.78 15.41,41.41 C 15.1,40.88 14.48,39.81 14.17,39.27 C 16.41,39.73 18.54,40.61 20.57,41.66 C 20.95,41.89 21.7,42.36 22.08,42.59 C 24.13,43.93 26.51,45.52 29.06,44.44 C 33.35,41.18 37.61,37.86 42.07,34.88 C 42.37,34.58 42.96,33.99 43.25,33.69 C 43.77,33.26 44.79,32.4 45.3,31.98 z"
           id="path2849"
           style="opacity:0.54000005;fill:#00244f" />
      </g>
      <g
         id="#4a7553e0">
        <path
           d="M 37.28,23.31 C 38.11,23.66 38.92,24.02 39.74,24.39 C 39.35,26.32 38.16,27.95 37.28,29.68 C 36.04,29.67 34.79,29.73 33.59,29.41 C 32.88,28.24 34.33,27.73 34.93,26.99 C 36.01,25.99 36.54,24.55 37.28,23.31 z"
           id="path2852"
           style="opacity:0.87999998;fill:#4a7553" />
      </g>
      <g
         id="#0f0d12c1">
        <path
           d="M 8.51,27.55 C 13.01,25.69 16.53,32.08 14.54,35.72 C 13.01,35.61 11.32,35.96 9.92,35.22 C 8.39,32.97 8.08,30.19 8.51,27.55 z"
           id="path2855"
           style="opacity:0.76000001;fill:#0f0d12" />
      </g>
      <g
         id="#b5b101bf">
        <path
           d="M 39.44,34.29 C 38.13,31.21 38.54,27.18 42.24,26.12 C 44.09,28.25 43.2,31.15 43.25,33.69 C 42.96,33.99 42.37,34.58 42.07,34.88 C 41.42,34.73 40.1,34.44 39.44,34.29 z"
           id="path2858"
           style="opacity:0.75;fill:#b5b101" />
      </g>
      <g
         id="#aeac06c0">
        <path
           d="M 29.79,33.87 C 31.47,32.56 33.3,31.19 35.53,31.21 C 35.5,33.22 35.43,35.23 35.31,37.24 C 33.91,38.69 32.45,40.07 30.99,41.47 C 30.34,41.13 29.05,40.46 28.4,40.13 C 28.63,38.01 28.72,35.77 29.79,33.87 z"
           id="path2861"
           style="opacity:0.75;fill:#aeac06" />
      </g>
      <g
         id="#0e0b0ebc">
        <path
           d="M 18.48,32.38 C 24.25,30.69 27.59,40.65 22.08,42.59 C 21.7,42.36 20.95,41.89 20.57,41.66 C 20.55,39.77 19.06,38.46 18.37,36.82 C 18.22,35.34 18.4,33.86 18.48,32.38 z"
           id="path2864"
           style="opacity:0.73999999;fill:#0e0b0e" />
      </g>
    </g>
  </g>
</svg>
