<svg xmlns="http://www.w3.org/2000/svg" viewBox="0 0 128 128">
<g transform="matrix(1.3836 0 0 1.21931 27.89536 2.11824)">
<path opacity=".46" fill="#1b3248" d="m22.05,2.64c1.11-.02 2.21-.03 3.31-.02 4.57,3.66 10.42,5.02 15.96,6.49 1.48,.42 3.2,.87 3.97,2.36 .57,2.81 .25,5.7 .25,8.55-.22,4.99 .46,10.14-1.19,14.97-5.98,3.03-10.83,7.83-16.79,10.91l.52-1.97c4.09-3.21 8.53-5.93 12.67-9.05 2.64-1.7 2.6-5.13 2.7-7.9 .02-4.76 .38-9.51 1.13-14.21-3.13-1.39-6.33-2.64-9.66-3.46-4.25-.99-7.93-3.39-11.83-5.22-2.72,2.61-5.91,5.12-9.92,4.78 2.66-2.53 6.46-3.4 8.88-6.23z"/>
</g>
<g transform="matrix(1.3836 0 0 1.21931 27.89536 2.11824)">
<path fill="#3d73a5" d="m13.17,8.87c4.01,.34 7.2-2.17 9.92-4.78 3.9,1.83 7.58,4.23 11.83,5.22 3.33,.82 6.53,2.07 9.66,3.46-.75,4.7-1.11,9.45-1.13,14.21-.1,2.77-.06,6.2-2.7,7.9-4.14,3.12-8.58,5.84-12.67,9.05l-.65,.32c-1.45-7.35-.26-14.94-1.52-22.25-5.45-4.49-12.73-5.84-18.8-9.31-.59,.07-1.77,.22-2.36,.3l-.44-.17c1.54-1.11 3.52-1.24 5.31-1.69-.06-.34-.18-1.01-.24-1.35 1.15-.19 2.29-.41 3.43-.65l.36-.26z"/>
</g>
<g transform="matrix(1.3836 0 0 1.21931 27.89536 2.11824)">
<path fill="#0e1a25" d="m4.31,12.82l.44,.17c.16,.18 .47,.53 .63,.71 5.43,3.27 11.76,4.61 17.27,7.74 2.18,.89 1.49,3.66 1.73,5.53-.18,5.98 .64,12.01-.45,17.94-3.15-1.29-6.23-2.72-9.44-3.85 0-.28-.01-.84-.01-1.12-1.99-.72-4.11-1.24-5.82-2.54-5.03-3.13-2.06-9.79-3.73-14.52-.21-.72-.63-2.15-.84-2.86-.14-2.3-1.96-5.62 .22-7.2z"/>
</g>
<g transform="matrix(1.3836 0 0 1.21931 27.89536 2.11824)">
<path fill="#2a4e71" d="m4.75,12.99c.59-.08 1.77-.23 2.36-.3 6.07,3.47 13.35,4.82 18.8,9.31 1.26,7.31 .07,14.9 1.52,22.25-1.21,.54-2.43,1.04-3.65,1.55l.15-.89c1.09-5.93 .27-11.96 .45-17.94-.24-1.87 .45-4.64-1.73-5.53-5.51-3.13-11.84-4.47-17.27-7.74-.16-.18-.47-.53-.63-.71z"/>
</g>
<g transform="matrix(1.3836 0 0 1.21931 27.89536 2.11824)">
<path opacity=".6" fill="#172a3d" d="m27.43,44.25l.65-.32-.52,1.97c-.19,.7-.39,1.4-.6,2.1h-3.6c.1-.55 .31-1.65 .42-2.2 1.22-.51 2.44-1.01 3.65-1.55z"/>
</g>
<g transform="matrix(1.12737 0 0 1.09746 1.44186 68.76562)">
<path opacity=".4" fill="#031e38" d="m21.89,0h1.12c.18,.65 .54,1.96 .72,2.62 1.18,0 2.36,0 3.54,.01 .18-.66 .55-1.97 .74-2.63h1.09c5.72,3.98 12.37,5.96 18.9,8.15v.79c-1.82,.04-3.64,.07-5.46,.1 2.93,4.28 2.53,9.48 1.99,14.37-.55,3.82 1.94,6.96 3.47,10.21v.57c-5.7,3.27-11.44,6.64-16.3,11.1-.18-.84-.36-1.68-.55-2.52-1.86-.23-3.72-.44-5.57-.74-.47-2.99-.28-6.72-3.04-8.68-1.61-1.37-3.6,.07-5.23,.62-.8,.35-1.6,.7-2.4,1.05 .21-1.41 .43-2.82 .66-4.23 .8,.32 1.61,.65 2.41,.97 .26-1.53 .52-3.07 .69-4.62 1.86,.9 3.78,1.69 5.69,2.47-.12-2.42-.05-4.88-.67-7.24-1.3-2.02-3.25-3.49-5.01-5.09-.3,2.89-.59,5.78-1.01,8.65-1.94-.58-3.92-1.01-5.84-1.63 1.18-.61 2.36-1.22 3.55-1.82-1-4.03-3.61-7.24-7.37-9.01-.5,2.15-.98,4.32-1.46,6.48-.36-.28-1.08-.84-1.44-1.12 1.18-3.25 2.38-6.49 3.55-9.74-1.63,.23-3.26,.47-4.89,.73-.24,2.37-.54,4.74-.77,7.12-.06,.55-.18,1.66-.24,2.22-.29-3.03-.83-6.19 .1-9.17 3.28-2.48 7.44-3.26 11.11-5 2.87-1.27 5.33-3.25 7.92-4.99m11.58,8.35c-.87,1.17-2.04,2.08-2.97,3.19 3.12,.15 6.25,.23 9.38,.32-.05-.71-.14-2.13-.18-2.84-2.07-.31-4.14-.65-6.23-.67m-23.18,1.73c1.22,.83 2.51,1.54 3.83,2.2 2.46,.3 7,.65 6-3.12-3.31-.71-6.64,.09-9.83,.92m10.88-.87c.01,.66 .04,1.96 .05,2.62 3.28,.04 6.81,.2 9.38-2.19-3.14-.26-6.28-.36-9.43-.43m-7.1,4.67c.25,1.32 .6,2.62 1.08,3.86 .74,.08 2.21,.23 2.94,.3 .47-1.72 1.46-3.23 1.93-4.95-1.93,.46-3.96,.6-5.95,.79m7.22-1c1.46,1.63 1.8,5.21 4.69,4.6 2.85,.46 3.99-2.44 4.66-4.63-3.11-.03-6.23-.06-9.35,.03m12.06,.03c-.6,1.37-1.08,2.79-1.56,4.2 3.14-.13 6.35-.84 7.67-4.05-2.04-.07-4.07-.15-6.11-.15m5.4,5.14c.33,1.83 .64,3.65 1.11,5.45 1.39-1.22 2.82-2.41 3.97-3.85 .88-2.34 .24-4.93 .27-7.36-2.04,1.6-5.41,2.62-5.35,5.76m-8.85,1.82c-2.12,2.65-2.25,6.2-2.81,9.41 2.43-.61 4.87-1.21 7.18-2.21-.56,.99-1.09,2-1.58,3.03 2.18-.31 4.45-.62 6.25-2-.78,2.33 .58,4.61 .82,6.9 .98-.79 1.94-1.62 2.87-2.47 2.46-1.82 1.31-5.24 1.53-7.83-1.34,.8-2.62,1.67-3.91,2.54-.52-1.32-1.05-2.64-1.6-3.95-1.22,.85-2.41,1.74-3.66,2.55 .92-2.5 .73-5.22 .87-7.83-2.01,.38-4.63-.1-5.96,1.86m.09,14.15c-1.4,2.07-1.43,4.7-1.9,7.07 2.01-.52 4.5-.35 5.9-2.15 2.16-2.24 1.71-5.63 2.1-8.46-2.09,1.05-4.76,1.41-6.1,3.54z"/>
</g>
<g transform="matrix(1.12737 0 0 1.09746 1.44186 68.76562)">
<path opacity=".72" fill="#053665" d="m23.01,0h5c-.19,.66-.56,1.97-.74,2.63-1.18-.01-2.36-.01-3.54-.01-.18-.66-.54-1.97-.72-2.62z"/>
</g>
<g transform="matrix(1.12737 0 0 1.09746 1.44186 68.76562)">
<path opacity=".73" fill="#053766" d="m3.77,9.82c1.63-.26 3.26-.5 4.89-.73-1.17,3.25-2.37,6.49-3.55,9.74-.72-.61-1.4-1.27-2.11-1.89 .23-2.38 .53-4.75 .77-7.12z"/>
</g>
<g transform="matrix(1.12737 0 0 1.09746 1.44186 68.76562)">
<path opacity=".07" fill="#000509" d="m10.29,10.08c3.19-.83 6.52-1.63 9.83-.92 1,3.77-3.54,3.42-6,3.12-1.32-.66-2.61-1.37-3.83-2.2z"/>
</g>
<g transform="matrix(1.12737 0 0 1.09746 1.44186 68.76562)">
<path opacity=".63" fill="#052f58" d="m21.17,9.21c3.15,.07 6.29,.17 9.43,.43-2.57,2.39-6.1,2.23-9.38,2.19-.01-.66-.04-1.96-.05-2.62z"/>
</g>
<g transform="matrix(1.12737 0 0 1.09746 1.44186 68.76562)">
<path opacity=".78" fill="#063b6d" d="m42.54,9.04c1.82-.03 3.64-.06 5.46-.1v24.68c-1.53-3.25-4.02-6.39-3.47-10.21 .54-4.89 .94-10.09-1.99-14.37z"/>
</g>
<g transform="matrix(1.12737 0 0 1.09746 1.44186 68.76562)">
<path opacity=".61" fill="#052d55" d="m14.07,13.88c1.99-.19 4.02-.33 5.95-.79-.47,1.72-1.46,3.23-1.93,4.95-.73-.07-2.2-.22-2.94-.3-.48-1.24-.83-2.54-1.08-3.86z"/>
</g>
<g transform="matrix(1.12737 0 0 1.09746 1.44186 68.76562)">
<path opacity=".6" fill="#042d54" d="m33.35,12.91c2.04,0 4.07,.08 6.11,.15-1.32,3.21-4.53,3.92-7.67,4.05 .48-1.41 .96-2.83 1.56-4.2z"/>
</g>
<g transform="matrix(1.12737 0 0 1.09746 1.44186 68.76562)">
<path opacity=".48" fill="#032443" d="m3,16.94c.71,.62 1.39,1.28 2.11,1.89 .36,.28 1.08,.84 1.44,1.12 1.82,1.38 3.51,2.91 5.28,4.35 1.92,.62 3.9,1.05 5.84,1.63 .25,.3 .75,.91 1,1.21-.17,1.55-.43,3.09-.69,4.62-.8-.32-1.61-.65-2.41-.97-2.36-1.31-4.58-2.84-6.65-4.56 .08,2.69-.28,5.53 .72,8.09 1.1,2.2 3.47,.91 5.27,.7 .8-.35 1.6-.7 2.4-1.05 .97,2.18 1.61,4.62 3.23,6.43 1.55,.88 3.33,1.22 5.04,1.63 1.85,.3 3.71,.51 5.57,.74 .19,.84 .37,1.68 .55,2.52-.81,.89-1.6,1.79-2.37,2.71h-4.26c-3.24-2.48-6.44-5.08-10.16-6.83-3.33-1.83-7.59-3.29-8.89-7.27-1.74-4.74-2.62-9.75-3.26-14.74 .06-.56 .18-1.67 .24-2.22z"/>
</g>
<g transform="matrix(1.12737 0 0 1.09746 1.44186 68.76562)">
<path opacity=".05" fill="#000306" d="m29.9,19.87c1.33-1.96 3.95-1.48 5.96-1.86-.14,2.61 .05,5.33-.87,7.83-.18,.31-.54,.92-.72,1.23-2.31,1-4.75,1.6-7.18,2.21 .56-3.21 .69-6.76 2.81-9.41z"/>
</g>
<g transform="matrix(1.12737 0 0 1.09746 1.44186 68.76562)">
<path opacity=".57" fill="#042b50" d="m34.99,25.84c1.25-.81 2.44-1.7 3.66-2.55 .55,1.31 1.08,2.63 1.6,3.95-.33,.22-.98,.65-1.31,.86-1.8,1.38-4.07,1.69-6.25,2 .49-1.03 1.02-2.04 1.58-3.03 .18-.31 .54-.92 .72-1.23z"/>
</g>
<g transform="matrix(1.12737 0 0 1.09746 1.44186 68.76562)">
<path opacity=".05" fill="#000407" d="m40.25,27.24c1.29-.87 2.57-1.74 3.91-2.54-.22,2.59 .93,6.01-1.53,7.83-.93,.85-1.89,1.68-2.87,2.47-.24-2.29-1.6-4.57-.82-6.9 .33-.21 .98-.64 1.31-.86z"/>
</g>
<g fill="#0e4062" transform="matrix(1.2654 0 0 1.18962 62.348 66.35287)">
<path opacity=".71" d="m22.77,0h4.82c-.19,.54-.56,1.62-.75,2.16-2.36,.18-4.94,.14-6.83,1.81-1.5,1.33-3.45,1.66-5.39,1.76 2.74-.87 5.13-2.55 7.85-3.47 .08-.56 .22-1.69 .3-2.26z"/>
<path opacity=".71" d="m38.81,6.34c3.45-.57 5.71,2.91 9.19,2.27v11.75c-1.93,3.57-2.68,7.58-2.7,11.62 .29-3.03-.18-6.03-.81-8.98 .28-3.63 1.69-7.33 .68-10.98-1.47-2.51-4.44-3.56-6.36-5.68z"/>
</g>
<g transform="matrix(1.2654 0 0 1.18962 62.348 66.35287)">
<path opacity=".33" fill="#0e1c2d" d="m27.59,0h1.47c.28,2.78 3.2,2.29 5.19,2.98 1.82,.57 3.17,1.99 4.41,3.36-1.26-.01-2.52-.05-3.77-.13-2.32-1.99-5.2-3.07-8.05-4.05 .19-.54 .56-1.62 .75-2.16z"/>
</g>
<g transform="matrix(1.2654 0 0 1.18962 62.348 66.35287)">
<path opacity=".66" fill="#455f3a" d="m20.01,3.97c1.89-1.67 4.47-1.63 6.83-1.81 2.85,.98 5.73,2.06 8.05,4.05-1.91,.16-3.75-.3-5.38-1.28-2.36-1.77-5.57-1.97-7.88,.02-3.08,1.84-6.7,2.9-10.28,2.82 .82-1.13 1.91-1.81 3.27-2.04 1.94-.1 3.89-.43 5.39-1.76z"/>
</g>
<g transform="matrix(1.2654 0 0 1.18962 62.348 66.35287)">
<path opacity=".79" fill="#a2a813" d="m21.63,4.95c2.31-1.99 5.52-1.79 7.88-.02-1.25,2.76-4.12,4.14-6.97,2.82-.23-.7-.68-2.1-.91-2.8z"/>
</g>
<g transform="matrix(1.2654 0 0 1.18962 62.348 66.35287)">
<path opacity=".84" fill="#738e36" d="m11.35,7.77c3.58,.08 7.2-.98 10.28-2.82 .23,.7 .68,2.1 .91,2.8 2.85,1.32 5.72-.06 6.97-2.82 1.63,.98 3.47,1.44 5.38,1.28 1.25,.08 2.51,.12 3.77,.13h.15c1.92,2.12 4.89,3.17 6.36,5.68 1.01,3.65-.4,7.35-.68,10.98 .63,2.95 1.1,5.95 .81,8.98-.51,.42-1.53,1.28-2.05,1.71-.05-2.54 .84-5.44-1.01-7.57-3.7,1.06-4.11,5.09-2.8,8.17 .66,.15 1.98,.44 2.63,.59-4.46,2.98-8.72,6.3-13.01,9.56-.39-.23-1.17-.69-1.56-.93-1.3-3.06-.83-6.41-.26-9.57 .67-2.35-.62-4.59-.61-6.92-.05-2.51 .02-5.03-.04-7.54-2.05-.86-4.24-1.25-6.44-1.46l-.75-.79c-1.51-2.33-4.22-2.71-6.76-2.97-1.65-1.24-5.26-1.93-4.77-4.44-1.46,.12-2.99-.07-4.39,.41l.12-.6c2.48-1.03 5.45-.45 7.75-1.86m22.8-.41c-1.22,1.01-1.92,2.4-2.04,3.98 2.93,.19 6.1,.88 8.87-.41-1.85-1.87-4.35-2.82-6.83-3.57m-24.08,2.79c1.78,2.68 8.53,3.87 8.88-.18-2.43-2.31-6.09-.5-8.88,.18m12.13-.74c-1.14,.34-.98,1.81 .12,2.01 2.31,.27 4.63,.08 6.93-.13 .12-.47 .36-1.42 .48-1.89-2.51-.1-5.03-.27-7.53,.01m.02,3.89c-1.19,5.14 7.92,5.59 7.6,.42-1.97-1.9-5.28-1.39-7.6-.42m10.05,3.16c1.44,.36 2.88,.74 4.33,1.08 .81-1.41 1.56-2.85 2.22-4.34-1.6-.18-3.2-.58-4.82-.38-1.44,.67-1.7,2.23-1.73,3.64m7.03-.5c-.15,2.34 .08,4.68 .25,7.01 1.68-.74 2.8-2.24 3.99-3.57 .01-2.11 .07-4.21 .1-6.32-1.59,.69-3.27,1.48-4.34,2.88m-7.69,2.57c-1.39,.95-2.26,2.45-3.28,3.75 .01,2.19-.02,4.37-.06,6.55 2.91,.32 4.95-2.06 6.91-3.82 .25-2.13 .37-4.28 .32-6.44-1.3-.06-2.6-.21-3.89-.04m5.67,4.78c-.74,1.24-1.27,2.68-2.35,3.68-.6,.74-2.05,1.25-1.34,2.42 1.2,.32 2.45,.26 3.69,.27 .88-1.73 2.07-3.36 2.46-5.29-.82-.37-1.63-.73-2.46-1.08m-7.49,10.56c-1.07,1.9-1.16,4.14-1.39,6.26 .65,.33 1.94,1 2.59,1.34 1.46-1.4 2.92-2.78 4.32-4.23 .12-2.01 .19-4.02 .22-6.03-2.23-.02-4.06,1.35-5.74,2.66z"/>
</g>
<g transform="matrix(1.2654 0 0 1.18962 62.348 66.35287)">
<path opacity=".78" fill="#bab803" d="m34.15,7.36c2.48,.75 4.98,1.7 6.83,3.57-2.77,1.29-5.94,.6-8.87,.41 .12-1.58 .82-2.97 2.04-3.98z"/>
</g>
<g transform="matrix(1.2654 0 0 1.18962 62.348 66.35287)">
<path opacity=".73" fill="#bb0" d="m10.07,10.15c2.79-.68 6.45-2.49 8.88-.18-.35,4.05-7.1,2.86-8.88,.18z"/>
</g>
<g transform="matrix(1.2654 0 0 1.18962 62.348 66.35287)">
<path opacity=".89" fill="#43735c" d="m22.2,9.41c2.5-.28 5.02-.11 7.53-.01-.12,.47-.36,1.42-.48,1.89-2.3,.21-4.62,.4-6.93,.13-1.1-.2-1.26-1.67-.12-2.01z"/>
</g>
<g transform="matrix(1.2654 0 0 1.18962 62.348 66.35287)">
<path opacity=".84" fill="#062547" d="m3.48,10.23c1.4-.48 2.93-.29 4.39-.41-.49,2.51 3.12,3.2 4.77,4.44 2.54,.26 5.25,.64 6.76,2.97-1.75,2.25-2.19,5.11-1.6,7.87 .9,2.38 3.36,3.54 5.35,4.85 1.37-1.34 1.52-3.19 1.35-4.99 .28-3.06-2.7-4.79-4.35-6.94 2.2,.21 4.39,.6 6.44,1.46 .06,2.51-.01,5.03 .04,7.54-.01,2.33 1.28,4.57 .61,6.92-.57,3.16-1.04,6.51 .26,9.57 .39,.24 1.17,.7 1.56,.93-2.55,1.08-4.93-.51-6.98-1.85 5.51-1.94 2.17-11.9-3.6-10.21-.08,1.48-.26,2.96-.11,4.44 .69,1.64 2.18,2.95 2.2,4.84-2.03-1.05-4.16-1.93-6.4-2.39-1.37-.38-2.78-.66-4.12-1.13-.72-1.49-2.21-2.24-3.58-3.01-.06-2.38 .19-4.82-.47-7.15-1.01-3.87-.34-7.93-.91-11.86-.45-.17-1.36-.5-1.81-.67 .02-1.74 .09-3.48 .2-5.22m3.8,4.96c-.65,3.63 1.48,10.18 6.25,8.28 2.15-1.41 .4-3.87-.2-5.63-.6-2.5-3.83-4.04-6.05-2.65m1.23,12.36c-.43,2.64-.12,5.42 1.41,7.67 1.4,.74 3.09,.39 4.62,.5 1.99-3.64-1.53-10.03-6.03-8.17z"/>
</g>
<g transform="matrix(1.2654 0 0 1.18962 62.348 66.35287)">
<path opacity=".73" fill="#bbba00" d="m22.22,13.3c2.32-.97 5.63-1.48 7.6,.42 .32,5.17-8.79,4.72-7.6-.42z"/>
</g>
<g transform="matrix(1.2654 0 0 1.18962 62.348 66.35287)">
<path opacity=".88" fill="#4f7854" d="m32.27,16.46c.03-1.41 .29-2.97 1.73-3.64 1.62-.2 3.22,.2 4.82,.38-.66,1.49-1.41,2.93-2.22,4.34-1.45-.34-2.89-.72-4.33-1.08z"/>
</g>
<g transform="matrix(1.2654 0 0 1.18962 62.348 66.35287)">
<path opacity=".74" fill="#b7b000" d="m39.3,15.96c1.07-1.4 2.75-2.19 4.34-2.88-.03,2.11-.09,4.21-.1,6.32-1.19,1.33-2.31,2.83-3.99,3.57-.17-2.33-.4-4.67-.25-7.01z"/>
</g>
<g transform="matrix(1.2654 0 0 1.18962 62.348 66.35287)">
<path opacity=".75" fill="#0d0d14" d="m7.28,15.19c2.22-1.39 5.45,.15 6.05,2.65 .6,1.76 2.35,4.22 .2,5.63-4.77,1.9-6.9-4.65-6.25-8.28z"/>
</g>
<g transform="matrix(1.2654 0 0 1.18962 62.348 66.35287)">
<path opacity=".73" fill="#0d080b" d="m19.4,17.23l.75,.79c1.65,2.15 4.63,3.88 4.35,6.94 .17,1.8 .02,3.65-1.35,4.99-1.99-1.31-4.45-2.47-5.35-4.85-.59-2.76-.15-5.62 1.6-7.87z"/>
</g>
<g transform="matrix(1.2654 0 0 1.18962 62.348 66.35287)">
<path opacity=".75" fill="#a8ab06" d="m31.61,18.53c1.29-.17 2.59-.02 3.89,.04 .05,2.16-.07,4.31-.32,6.44-1.96,1.76-4,4.14-6.91,3.82 .04-2.18 .07-4.36 .06-6.55 1.02-1.3 1.89-2.8 3.28-3.75z"/>
</g>
<g transform="matrix(1.2654 0 0 1.18962 62.348 66.35287)">
<path opacity=".54" fill="#00244f" d="m45.3,31.98c.02-4.04 .77-8.05 2.7-11.62v12.67c-3.81,1.98-6.94,4.97-10.58,7.21-3.26,2.06-6.89,4.05-8.51,7.76h-4.18c-.97-4.05-5.89-5.22-9.32-6.59-.31-.53-.93-1.6-1.24-2.14 2.24,.46 4.37,1.34 6.4,2.39 .38,.23 1.13,.7 1.51,.93 2.05,1.34 4.43,2.93 6.98,1.85 4.29-3.26 8.55-6.58 13.01-9.56 .3-.3 .89-.89 1.18-1.19 .52-.43 1.54-1.29 2.05-1.71z"/>
</g>
<g transform="matrix(1.2654 0 0 1.18962 62.348 66.35287)">
<path opacity=".88" fill="#4a7553" d="m37.28,23.31c.83,.35 1.64,.71 2.46,1.08-.39,1.93-1.58,3.56-2.46,5.29-1.24-.01-2.49,.05-3.69-.27-.71-1.17 .74-1.68 1.34-2.42 1.08-1 1.61-2.44 2.35-3.68z"/>
</g>
<g transform="matrix(1.2654 0 0 1.18962 62.348 66.35287)">
<path opacity=".76" fill="#0f0d12" d="m8.51,27.55c4.5-1.86 8.02,4.53 6.03,8.17-1.53-.11-3.22,.24-4.62-.5-1.53-2.25-1.84-5.03-1.41-7.67z"/>
</g>
<g transform="matrix(1.2654 0 0 1.18962 62.348 66.35287)">
<path opacity=".75" fill="#b5b101" d="m39.44,34.29c-1.31-3.08-.9-7.11 2.8-8.17 1.85,2.13 .96,5.03 1.01,7.57-.29,.3-.88,.89-1.18,1.19-.65-.15-1.97-.44-2.63-.59z"/>
</g>
<g transform="matrix(1.2654 0 0 1.18962 62.348 66.35287)">
<path opacity=".75" fill="#aeac06" d="m29.79,33.87c1.68-1.31 3.51-2.68 5.74-2.66-.03,2.01-.1,4.02-.22,6.03-1.4,1.45-2.86,2.83-4.32,4.23-.65-.34-1.94-1.01-2.59-1.34 .23-2.12 .32-4.36 1.39-6.26z"/>
</g>
<g transform="matrix(1.2654 0 0 1.18962 62.348 66.35287)">
<path opacity=".74" fill="#0e0b0e" d="m18.48,32.38c5.77-1.69 9.11,8.27 3.6,10.21-.38-.23-1.13-.7-1.51-.93-.02-1.89-1.51-3.2-2.2-4.84-.15-1.48 .03-2.96 .11-4.44z"/>
</g>
</svg>
