<svg xmlns="http://www.w3.org/2000/svg" viewBox="0 0 48 48" xmlns:xlink="http://www.w3.org/1999/xlink">
<defs>
<linearGradient id="linearGradient1065">
<stop offset="0" stop-color="#bf2b22"/>
<stop offset="1" stop-color="#9d0e08"/>
</linearGradient>
<linearGradient id="linearGradient508">
<stop offset="0" stop-color="#b0b0b0"/>
<stop offset="1" stop-color="#b0b0b0"/>
</linearGradient>
<linearGradient id="linearGradient381">
<stop offset="0" stop-color="#fff"/>
<stop offset="1" stop-color="#fff" stop-opacity="0"/>
</linearGradient>
<linearGradient gradientTransform="scale(1.24436 .80362)" id="linearGradient234" xlink:href="#linearGradient177" y1="67.365" y2="137.972" x1="81.308" x2="136.986" gradientUnits="userSpaceOnUse"/>
<linearGradient gradientTransform="matrix(1.46489 0 0 .47591 30.56501 -34.34268)" xlink:href="#linearGradient1869" id="linearGradient1872" y1="104.388" x1="-4.638" y2="110.614" x2="-4.524" gradientUnits="userSpaceOnUse"/>
<linearGradient id="linearGradient368">
<stop offset="0" stop-color="#fff" stop-opacity=".103"/>
<stop offset="1" stop-color="#fff" stop-opacity="0"/>
</linearGradient>
<linearGradient id="linearGradient477" x1="78.246" x2="192.386" gradientUnits="userSpaceOnUse">
<stop offset="0" stop-color="#e4e9ea"/>
<stop offset="1" stop-color="#85898a"/>
</linearGradient>
<linearGradient id="linearGradient177">
<stop offset="0" stop-color="#fff"/>
<stop offset="1" stop-color="#b0b0b0"/>
</linearGradient>
<linearGradient id="linearGradient161">
<stop offset="0" stop-color="#595655"/>
<stop offset="1" stop-color="#7e7d79"/>
</linearGradient>
<linearGradient id="linearGradient1869">
<stop offset="0" stop-color="#eff3f4"/>
<stop offset="1" stop-color="#939596"/>
</linearGradient>
<linearGradient id="linearGradient172">
<stop offset="0" stop-color="#6c2708"/>
<stop offset="1" stop-color="#512f06"/>
</linearGradient>
<linearGradient id="linearGradient157">
<stop offset="0" stop-color="#6f4f48"/>
<stop offset="1" stop-color="#f5f1ec"/>
</linearGradient>
<linearGradient id="linearGradient149">
<stop offset="0"/>
<stop offset="1" stop-opacity="0"/>
</linearGradient>
<linearGradient id="linearGradient454">
<stop offset="0" stop-color="#fff"/>
<stop offset=".5" stop-color="#bebebe"/>
<stop offset="1" stop-color="#b0b0b0"/>
</linearGradient>
<linearGradient id="linearGradient513">
<stop offset="0" stop-color="#696969"/>
<stop offset="1" stop-color="#fff"/>
</linearGradient>
<linearGradient gradientTransform="matrix(1.39976 0 0 .90398 -3.99312 .7519)" id="linearGradient606" xlink:href="#linearGradient454" y1="11.165" y2="14.749" x1="14.249" x2="18.087" gradientUnits="userSpaceOnUse"/>
<linearGradient gradientTransform="scale(1.21567 .82259)" id="linearGradient384" xlink:href="#linearGradient381" y1="38.963" y2="23.601" x1="19.977" gradientUnits="userSpaceOnUse" x2="19.858"/>
<linearGradient gradientTransform="matrix(.77249 0 0 1.55784 -2.79531 -.16666)" id="linearGradient160" xlink:href="#linearGradient157" x1="55.208" gradientUnits="userSpaceOnUse" x2="60.686"/>
<linearGradient gradientTransform="matrix(2.37495 0 0 .50671 -2.79531 -.16666)" id="linearGradient164" xlink:href="#linearGradient161" x1="2.933" gradientUnits="userSpaceOnUse" x2="19.738"/>
<linearGradient gradientTransform="matrix(3.49502 0 0 .34432 -2.97209 -.03408)" id="linearGradient152" xlink:href="#linearGradient149" y1="27.377" y2="69.461" x1="7.374" gradientUnits="userSpaceOnUse" x2="7.529"/>
<linearGradient gradientTransform="matrix(1.39976 0 0 .90398 -3.99312 .79738)" id="linearGradient608" xlink:href="#linearGradient177" y1="8.725" y2="14.745" x1="9.963" x2="20.136" gradientUnits="userSpaceOnUse"/>
<linearGradient gradientTransform="scale(1.24436 .80362)" id="linearGradient607" xlink:href="#linearGradient177" y1="116.664" y2="122.611" x1="128.352" x2="132.988" gradientUnits="userSpaceOnUse"/>
<linearGradient gradientTransform="matrix(1.12488 0 0 1.12488 -3.99312 .7519)" id="linearGradient609" xlink:href="#linearGradient477" y1="2.349" y2="10.115" x1="24.163" x2="40.437" gradientUnits="userSpaceOnUse"/>
<linearGradient gradientTransform="matrix(1.02733 -.13461 .52845 .53648 8.12216 4.8634)" id="linearGradient613" xlink:href="#linearGradient508" y1="8.725" y2="14.745" x1="9.963" x2="20.136" gradientUnits="userSpaceOnUse"/>
<linearGradient gradientTransform="scale(1.17564 .8506)" id="linearGradient374" xlink:href="#linearGradient368" y1="25.335" y2="48.805" x1="17.574" x2="25.312" gradientUnits="userSpaceOnUse"/>
<linearGradient gradientTransform="matrix(1.39976 0 0 .90398 -2.86035 .22788)" id="linearGradient612" xlink:href="#linearGradient177" y1="14.036" y2="9.362" x1="16.552" x2="13.763" gradientUnits="userSpaceOnUse"/>
<linearGradient gradientTransform="matrix(.82649 .76306 .76306 -.82649 -30.95946 -9.49566)" id="linearGradient611" xlink:href="#linearGradient477" y1="13.132" y2="20.664" x1="36.155" x2="45.131" gradientUnits="userSpaceOnUse"/>
<linearGradient gradientTransform="scale(1.17563 .8506)" xlink:href="#linearGradient1065" id="linearGradient1068" y1="33.139" x1="10.861" y2="37.721" x2="30.587" gradientUnits="userSpaceOnUse"/>
<linearGradient gradientTransform="scale(1.17563 .8506)" id="linearGradient101" xlink:href="#linearGradient172" y1="23.114" y2="52.625" x1="19.347" gradientUnits="userSpaceOnUse" x2="19.673"/>
<linearGradient gradientTransform="matrix(-1.44941 .28655 -.46938 .9658 -2.70059 .45362)" id="linearGradient610" xlink:href="#linearGradient513" y1="18.817" y2="24.077" x1="-32.4" x2="-36.301" gradientUnits="userSpaceOnUse"/>
<radialGradient cx="39.148" cy="8.93" gradientTransform="matrix(.87882 0 0 1.02571 1.24328 2.8501)" r="13.266" id="radialGradient640" gradientUnits="userSpaceOnUse">
<stop offset="0" stop-color="#f9feff"/>
<stop offset="1" stop-color="#afb4b6"/>
</radialGradient>
<radialGradient cx="16.281" cy="20.453" gradientTransform="matrix(2.20225 0 0 .57457 -13.83631 .65247)" r="5.643" id="radialGradient605" xlink:href="#linearGradient477" gradientUnits="userSpaceOnUse"/>
</defs>
<g transform="matrix(1.03005 0 -.16519 -.64292 2.47714 64.74043)">
<g opacity=".014">
<path d="m5,27.5c1.4-1.4 4-2.5 6-2.5h28.8c1.9,0 4.7,1 6.2,2.3l1,.9c1.5,1.2 2.1,3.7 1.3,5.5l-1,2.5c-.7,1.8-2.9,3.2-4.9,3.2l-32.1,.1c-1.9,0-4.2-1.4-5.1-3.1l-1.5-2.8c-.9-1.7-.5-4.3 .8-5.6l.5-.5z"/>
</g>
<g opacity=".027">
<path d="m5.4,28.3c1.3-1.4 3.9-2.5 5.8-2.5h28.6c1.9,0 4.7,1 6.1,2.3l.5,.4c1.4,1.3 2,3.8 1.3,5.6l-.7,1.8c-.7,1.8-2.9,3.2-4.8,3.2l-31.2,.1c-1.9,0-4.2-1.4-5.1-3.1l-1.2-2.1c-.9-1.7-.6-4.3 .7-5.6v-.1z"/>
</g>
<g opacity=".041">
<path d="m5.9,28.9c1.1-1.3 3.6-2.3 5.5-2.3h28.4c1.9,0 4.6,1.1 6,2.4 1.4,1.3 1.9,3.8 1.1,5.6l-.5,1.1c-.7,1.8-2.9,3.2-4.8,3.3h-30.3c-1.9,0-4.2-1.4-5.1-3.1l-.8-1.5c-.9-1.7-.7-4.2 .4-5.5h.1z"/>
</g>
<g opacity=".054">
<path d="m6.5,29.5c1-1.2 3.3-2.1 5.2-2.1h28.1c1.9,0 4.5,1 5.6,2.2 1.1,1.2 1.5,3.6 .8,5.4l-.2,.4c-.7,1.8-2.9,3.2-4.8,3.3l-29.5,.1c-1.9,0-4.2-1.4-5.1-3.1l-.4-.8c-.9-1.7-.8-4.1 .2-5.3l.1-.1z"/>
</g>
<g opacity=".068">
<path d="m7,30.1c.8-1.1 3-2 4.9-2h27.9c1.9,0 4.3,.9 5.3,2 1,1.1 1.2,3.4 .5,5.1-.7,1.7-2.9,3.1-4.8,3.1l-28.6,.1c-1.9,0-4.2-1.4-5.1-3.1l-.1-.2c-.9-1.7-.9-4-.1-5.1l.1,.1z"/>
</g>
<g opacity=".082">
<path d="m7.5,30.7c.6-1 2.7-1.8 4.7-1.8h27.7c1.9,0 4.1,.8 4.9,1.8 .8,1 .9,3.1 .3,4.6-.6,1.5-2.7,2.8-4.6,2.8l-27.7,.1c-1.9,0-4.1-1.3-4.9-2.9-.8-1.6-.9-3.7-.3-4.7l-.1,.1z"/>
</g>
<g opacity=".096">
<path d="m8.1,31.3c.5-.9 2.4-1.6 4.4-1.6h27.5c1.9,0 4,.7 4.6,1.6 .6,.9 .6,2.8 .1,4.1-.5,1.3-2.6,2.5-4.5,2.5l-27,.1c-1.9,0-4.1-1.2-4.7-2.6-.7-1.4-.8-3.3-.4-4.2v.1z"/>
</g>
<g opacity=".109">
<path d="m8.6,31.9c.3-.8 2.1-1.4 4.1-1.4h27.2c1.9,0 3.8,.7 4.2,1.5 .4,.8 .3,2.4-.1,3.6-.4,1.2-2.4,2.1-4.4,2.1l-26,.1c-1.9,0-4-1-4.5-2.2-.6-1.2-.8-2.9-.5-3.6v-.1z"/>
</g>
<g opacity=".123">
<path d="m9.2,32.5c.1-.7 1.8-1.2 3.8-1.2h27c1.9,0 3.7,.6 3.9,1.3 .2,.7 0,2.1-.3,3.1-.4,1-2.3,1.8-4.2,1.8l-25.2,.1c-1.9,0-3.9-.9-4.4-1.9-.5-1.1-.7-2.5-.6-3.1v-.1z"/>
</g>
<g opacity=".136">
<path d="m9.7,33.1c0-.6 1.6-1 3.5-1h26.8c1.9,0 3.5,.5 3.5,1.1 0,.6-.2,1.8-.6,2.6-.4,.8-2.1,1.5-4.1,1.5h-24.3c-1.9,0-3.8-.7-4.2-1.6-.4-.9-.7-2.1-.7-2.6h.1z"/>
</g>
<g opacity=".15">
<path d="m15,37c-1.9,0-3.9-.9-4.3-2.1-.4-1.2 .8-2.1 2.7-2.1h26.6c1.9,0 3.2,.9 2.7,2.1-.4,1.1-2.3,2.1-4.2,2.1h-23.5z"/>
</g>
</g>
<g display="block" fill-rule="evenodd">
<g stroke-width="1.25">
<path fill="url(#linearGradient1068)" stroke="url(#linearGradient101)" d="m3.8367,16.8102c-.0441-.0351 1.732,25.224 1.7325,25.2316 .1666,2.5225 1.5653,3.4445 3.1308,3.4482 .0559,.0001 29.3695-.0032 29.994-.0059 2.6364-.0111 3.2822-1.6165 3.4557-3.3707 .0139-.0346 1.7891-25.2688 1.803-25.3033-13.372,0-26.7439,0-40.1159,0z"/>
<path fill="url(#linearGradient1872)" stroke="#4d5506" d="m7.5385,4.7306c-1.0443,.0024-1.9183,.0263-2.3944,1.0136-.0827,.1716-2.6049,7.1356-2.7262,7.4012-1.0381,2.2736-.0808,5.1376 1.9243,5.1184 .3813-.0035 39.5102,.0178 40.117,0 1.7068-.0491 1.9252-3.3656 1.1905-4.8575-.0416-.0845-3.4518-7.757-3.5388-7.8929-.4023-.6069-1.3031-.8729-1.9723-.848-.1318,.005-32.4696,.0649-32.6001,.0652z"/>
</g>
<g color="#000">
<path fill="url(#linearGradient164)" d="m7.7204,6.3901c-.9849-.0127-1.0491-.0508-1.2708,.6462-.0512,.1609-2.1132,6.4954-2.194,6.7412-.2749,.836 .1138,1.0566 1.0677,1.0396 .3379-.006 37.3468,0 37.8848,0 .7638,0 .9903-.2516 .8178-.8454-.0701-.2413-2.9407-7.0046-3.0178-7.1251-.3565-.5379-.2947-.5364-.9175-.5439-.1169-.0014-32.2546,.089-32.3703,.0875z"/>
<path fill="#2e3436" d="m7.1914,6.387c-.3709,.0283-.5493,.1382-.7045,.6262-.0512,.1609-2.1109,6.486-2.1918,6.7318-.2749,.8359 .0898,1.0607 1.0437,1.0437 .0165-.0003 1.9533,.0002 2.1367,0l-.2841-8.4017z"/>
<path fill="url(#linearGradient160)" d="m40.1435,6.2999c.4508,.0039 .5831-.0052 .8713,.5395 .0394,.0745 2.8744,6.7932 2.9762,7.039 .3462,.9471-.3131,.9273-1.3588,.9548-.1987-.0003-2.5489-.022-2.7797-.0222l.2911-8.511z"/>
</g>
</g>
<g color="#000">
<g>
<path fill="url(#linearGradient152)" display="block" d="m43.1884,18.9309l-35.9885-.0232c27.1143,.6306 32.4415,3.6094 35.7465,3.4572l.242-3.4341z"/>
</g>
<g fill-rule="evenodd">
<g fill="#fff" fill-opacity=".488" transform="matrix(1.42002 0 0 1.42002 -67.25409 -7.48474)">
<path d="m64.1311,25.3254l3.797,.2897 1.4683-3.5746-1.7373,1.221c0,0-.7449-1.7374-1.2803-1.8771-.5354-.1397-2.8197-.0931-2.8197-.0931 .7266,.1797 1.2912,1.4281 1.2999,1.4423 .2267,.3699 .8612,1.6144 .8612,1.6144l-1.5891,.9774z"/>
<path fill-opacity=".31" d="m64.6009,22.8528l-1.2569,2.3977-2.5839-1.6295c0,0 1.1717-2.2114 2.0951-2.2114 .9312,0 1.3473,.8026 1.7457,1.4433z"/>
<path d="m66.451,28.5455l-2.448,2.9257 2.3361,3.0168 .0432-1.9001c0,0 1.7208,.1624 2.1157-.2251 .3949-.3875 2.0379-2.3415 2.0379-2.3415-.5275,.531-1.8887,.3739-1.9053,.374-.4338,.0044-2.1506-.0357-2.1506-.0357l-.0291-1.8141z"/>
<path fill-opacity=".31" d="m68.7484,30.0614l-1.4111-2.3103 2.7256-1.3794c0,0 1.2951,2.1415 .8206,2.9337-.4785,.7988-1.3809,.7434-2.1352,.756z"/>
<path d="m62.1702,28.3757l-1.2085-3.1827-3.5239,.249 1.4466,1.0538c0,0-.999,1.4104-.8601,1.946 .1389,.5356 .9225,2.7546 .9225,2.7546-.1971-.722 .618-1.8234 .6261-1.8379 .2125-.3782 1.1036-1.8462 1.1036-1.8462l1.4937,.8633z"/>
<path fill-opacity=".31" d="m59.7528,29.6611l2.7062-.0707-.164,3.0504c0,0-2.5021,.0543-2.952-.752-.4537-.8132 .0445-1.5676 .4098-2.2277z"/>
</g>
<g>
<path fill="url(#linearGradient374)" d="m41.6247,23.6518c-5.3254,2.3344-12.6205,4.6692-18.5685,4.7188-6.54,.0545-11.3587,3.1605-16.2399,5.5442 .1947,2.8802 .4094,4.8912 .6746,8.1168 .1323,1.609 .6379,1.5707 2.9404,1.5707 9.1114,0 21.0654,.0129 28.2576,.0129 1.7605,0 1.5596-1.2517 1.6547-2.4504 .4604-5.8029 .8742-11.6885 1.2812-17.5129z"/>
</g>
<g fill="none">
<path stroke-opacity=".286" stroke="url(#linearGradient384)" stroke-width="1.14" d="m5.2099,19.4028c-.0514-.0001 .8392,12.6756 1.5468,21.5656 .1825,2.282 .5535,3.2108 1.9912,3.2108 11.8513,0 28.6941,.0851 29.2676,.0831 2.7746-.01 2.7227-1.026 2.9524-3.1847 .0837-.7858 1.537-21.5863 1.5231-21.5863-9.93,0-25.0123-.0568-37.2811-.0884z"/>
<path stroke="#6d6d6d" stroke-linejoin="round" stroke-linecap="round" stroke-width="1.187" d="m14.6836,.6545c.1616-.1933 .1176-.186-.3264,.1483-1.776,1.3374-4.7175,4.0351-4.7175,4.0351 0,0 .2504,.7925-.4747,2.0175-.7251,1.2251-2.9076-.5341-2.9076-.5341-.7928-.5341-.2914,1.4211 .6824,3.5603-1.0305,.7713-1.7802,1.536-1.7802,2.1065 0,1.3497-.0915,1.2226-.178,1.4835-.5439,.0713-1.1589,.083-2.0769,0 1.998-.1041 3.2318-1.7395 3.7235-1.4835 .0506,.0315-1.2629,1.3775-1.2016,1.3796-.0206,.0352-.5637,.4302-.5637,.4302l12.3129-.0593c-.001,.0099 .0019,.0197 0,.0297h11.6008c-.0245,.0358-.4005-.2077-.4005-.2077l1.6763,.2077h4.0351c.0154,.0033-.017,.0271 0,.0297 0,0 2.7905,.7739 2.4922,2.1659-.2983,1.392-1.0088,1.8098-1.0088,1.8098 0,0 .3144,3.9542 .7121,6.1416 .3977,2.1874-.2942-3.6759 1.0978-4.2724 1.392-.5966 5.0552,.9933 6.646-1.6912 1.5908-2.6845 1.1098-2.2782 .7121-3.4713-.0105-.0316-.0768-.0851-.089-.1187h.2077c.566-.6785 1.2068-1.4686 2.1955-3.1153-2.4355,2.0627-2.3302,2.0667-2.7889,2.5516-.3151-.6293-.8037-1.3673-1.5428-1.8989l.1483-.0297c0,0-.1438-.082 .6527-1.7208 .7965-1.6389-5.2008-3.8501-3.9757-2.6109 .6664,.674-.9335,1.7457-2.6703,2.4922-.2078-.1577-2.1078-1.5408-3.7384-2.1955-.3365-.3316-.4539-.6017-.8604-.9494 4.1919-2.9436-3.3975-1.9228-8.1888-5.0142 3.3169,2.1767 3.4043,4.4972 2.2549,6.468-1.2797-.2958-2.326-.7627-2.0175-1.3945 .5966-1.222-2.2729,.9281-2.967,2.5516-.1258,.0078-.223-.1038-.356-.0593-.009-.4689 .0642-.9156-.0593-1.3945-.7528-2.9169-3.3606-2.3691-5.5779-.1187-.9779-1.3831-2.7061-2.3187-3.1153-3.234-.4635-1.0369 1.9481-3.455 2.4329-4.0351zm3.9757,8.9899c.1826,0-.0471,.4402-.1483,.7417-.0504,.008-.0974,.023-.1483,.0297-.0278-.4367 .0126-.7714 .2967-.7714zm17.7424,.5934c-.2753,.103-.5026,.2813-.7714,.356-.0475-.0706-.158-.1659-.2077-.2374l.9791-.1187z"/>
</g>
<g>
<path fill="url(#linearGradient613)" d="m22.5829,12.0997l14.4633-1.9618c0,0-5.047-3.869-5.8115-2.3031-.7645,1.5659-7.6608,.6707-6.8963-.8952 .7645-1.5659-4.2103,2.4171-2.9316,3.7152 1.2787,1.2981 1.176,1.4448 1.176,1.4448z"/>
<path fill="url(#linearGradient612)" d="m14.9856,8.2501c2.2868-2.5851 5.1701-3.2811 5.9656-.1989 .7954,3.0822-1.1931,6.6615-1.7897,5.2696-.5966-1.392-1.2925-3.6788-.4971-3.6788 .7954,0-1.6902,3.5793-1.6902,3.5793l-1.9885-4.9713z"/>
</g>
</g>
<g>
<path fill="url(#linearGradient611)" d="m6.2634,6.3236c0,0 2.1803,1.7424 2.9054,.5173 .7251-1.2251 .4835-1.9894 .4835-1.9894 0,0 2.917-2.7197 4.693-4.0571 1.776-1.3374-2.7146,2.5006-2.0966,3.8831 .6181,1.3826 4.4001,2.7092 3.7479,5.7607-.6522,3.0515-.7477,2.4221-1.8492,3.0289-1.1016,.6068-4.0914,1.5001-6.1031-1.3044-2.0117-2.8045-2.8655-6.5699-1.7809-5.8392z"/>
</g>
</g>
<g fill-rule="evenodd">
<path fill="url(#linearGradient610)" color="#000" d="m42.8684,11.8796l-14.4351,2.3655c-.1483-.4154 3.6487-4.8791 4.8737-3.6399 1.2251,1.2392 7.473-1.8141 6.248-3.0533-1.2251-1.2392 4.7621,.9439 3.9657,2.5828-.7965,1.6389-.6523,1.745-.6523,1.745z"/>
<path fill="#fff" d="m19.2624,8.9416l.9943,.8948-7.3575,4.1759 6.3633-5.0707z"/>
</g>
<path fill="url(#linearGradient609)" d="m24.0902,1.8593c9.4834,6.2235-5.72,15.1164-8.2257,9.3505 1.4039,1.0342 1.4993,2.105 1.3006,3.1637h22.3218c-.8127-.2412-1.5297-.522-2.8122-.5624 1.0486-.3437-.5183-3.6096-4.394-6.925 4.1919-2.9436-3.3992-1.9354-8.1905-5.0268zm22.9545,9.3857c-2.9769,2.5212-2.5131,2.2449-3.4098,3.1286h1.2303c.566-.6785 1.1907-1.4818 2.1794-3.1286z"/>
<g color="#000">
<g fill-rule="evenodd">
<g>
<path fill="url(#linearGradient608)" d="m4.8558,14.4245l19.7858-.0994c0,0-1.4914-6.761-4.2753-4.5736-2.7839,2.1874-10.042-.4971-7.2581-2.6845 2.7839-2.1874-7.9541,2.7839-7.9541,4.9713 0,2.1874-.2983,2.3862-.2983,2.3862z"/>
</g>
<g fill="url(#linearGradient234)" transform="matrix(.27321 0 0 .27321 -37.63912 -13.12876)">
<path fill="url(#linearGradient607)" d="m163.6685,88.7231c1.0295,3.4869-7.4635,9.3559-15.2395,8.6529 7.313-.381 4.751,.926 6.551,1.863 2.157,1.341 13.8851-3.7047 8.6885-10.5159z"/>
</g>
<g>
<path fill="url(#linearGradient606)" d="m20.7639,10.2031c-1.4914,.5966-2.7839,3.4799-5.2696,3.5793-2.4856,.0994 5.2696,.696 6.065,0 .7954-.696-.7954-3.5793-.7954-3.5793z"/>
</g>
</g>
<g>
<path fill="url(#radialGradient605)" d="m19.8691,14.2796h10.3403c0,0 1.6902-2.9828-2.1874-2.7839-3.8776,.1989-2.5851,1.392-4.5736,1.7897-1.9885,.3977-3.5793,.9943-3.5793,.9943z"/>
<path fill="url(#radialGradient640)" d="m34.087,14.379c0,0 2.7839,.1989 2.4856,1.5908-.2983,1.392-.9943,1.7897-.9943,1.7897 0,0 .2983,3.977 .696,6.1644 .3977,2.1874-.2983-3.6788 1.0937-4.2753 1.392-.5966 5.0707,.9943 6.6615-1.6902 1.5908-2.6845 1.0937-2.2868 .696-3.4799-.3977-1.1931-1.9885-3.8776-5.369-3.1816-3.3805,.696-6.5621,2.8834-5.2696,3.0822z"/>
</g>
</g>
<g fill-rule="evenodd">
<g fill="#fff">
<path d="m4.8818,14.4024l14.8042-.0455c0,0 1.4046-.2887 2.1096-.4707 .7259-.3707 1.8432-.3627 2.6256-.7661 1.4094-.7267 1.1468-1.6034 4.3777-1.6244-3.9232-.4196-3.6808,1.3851-5.1379,1.7331-1.1825,.2824-3.452,1.0826-3.9523,1.0144-.5003-.0682-14.827,.1592-14.827,.1592z"/>
<path d="m13.1822,9.263c0,0 2.096,1.6052 5.2531,1.2507 1.4026-.1575 2.2513-1.1143 2.8199-1.1825 .5685-.0682 1.0233,.2729 1.0233,.2729 0,0-.523-.2501-1.0006-.1364-.4776,.1137-1.5692,1.322-3.1837,1.2735-3.6841-.1107-4.912-1.4781-4.912-1.4781z"/>
<path d="m24.111,1.8899c0,0 3.3987,2.1819 3.063,4.9092-.3357,2.7273-3.4406,4.7833-3.4406,4.7833 0,0 4.1013-2.5725 3.8183-5.0351-.4196-3.6504-3.4406-4.6575-3.4406-4.6575z"/>
</g>
<g fill-opacity=".179">
<path color="#000" d="m32.335,6.925c-.3776-.7133-2.1819-2.1399-3.7344-2.4756 2.2238,.5874 4.1959,2.056 4.1959,2.056l-.4615,.4196z"/>
<path d="m15.3956,7.8346c0,0 .9494,1.1571 .5934,2.5219 .8604,.178 1.2165,.2077 1.2165,.2077l.7714-.6231c0,0 0-1.8395-2.5813-2.1065z"/>
</g>
<g>
<path fill-opacity=".071" d="m12.7167,7.5165c0,0 1.6912-.5934 1.2461-.178-.445,.4154 2.1065,2.2846 2.1065,2.2846 0,0 0,.5934-.1187,.7417-.1187,.1483-4.3614-1.0681-3.234-2.8483z"/>
</g>
</g>
</svg>
