<svg xmlns="http://www.w3.org/2000/svg" viewBox="0 0 48 48" xmlns:xlink="http://www.w3.org/1999/xlink">
<defs>
<linearGradient id="linearGradient368">
<stop offset="0" stop-color="#fff" stop-opacity=".103"/>
<stop offset="1" stop-color="#fff" stop-opacity="0"/>
</linearGradient>
<linearGradient id="linearGradient1869">
<stop offset="0" stop-color="#eff3f4"/>
<stop offset="1" stop-color="#939596"/>
</linearGradient>
<linearGradient id="linearGradient161">
<stop offset="0" stop-color="#595655"/>
<stop offset="1" stop-color="#7e7d79"/>
</linearGradient>
<linearGradient id="linearGradient1065">
<stop offset="0" stop-color="#bf2b22"/>
<stop offset="1" stop-color="#9d0e08"/>
</linearGradient>
<linearGradient id="linearGradient149">
<stop offset="0"/>
<stop offset="1" stop-opacity="0"/>
</linearGradient>
<linearGradient id="linearGradient172">
<stop offset="0" stop-color="#6c2708"/>
<stop offset="1" stop-color="#512f06"/>
</linearGradient>
<linearGradient id="linearGradient513">
<stop offset="0" stop-color="#747474"/>
<stop offset="1" stop-color="#d7d7d7"/>
</linearGradient>
<linearGradient id="linearGradient381">
<stop offset="0" stop-color="#fff"/>
<stop offset="1" stop-color="#fff" stop-opacity="0"/>
</linearGradient>
<linearGradient gradientTransform="matrix(3.49502 0 0 .34432 -2.97209 -.03408)" id="linearGradient152" xlink:href="#linearGradient149" y1="27.377" y2="69.461" x1="7.374" gradientUnits="userSpaceOnUse" x2="7.529"/>
<linearGradient gradientTransform="matrix(.77249 0 0 1.55784 -2.79531 -.16666)" id="linearGradient160" xlink:href="#linearGradient513" x1="55.208" gradientUnits="userSpaceOnUse" x2="60.686"/>
<linearGradient gradientTransform="matrix(1.46489 0 0 .47591 30.56501 -34.34268)" xlink:href="#linearGradient1869" id="linearGradient1872" y1="104.388" x1="-4.638" y2="110.614" x2="-4.524" gradientUnits="userSpaceOnUse"/>
<linearGradient gradientTransform="scale(1.21567 .82259)" id="linearGradient384" xlink:href="#linearGradient381" y1="38.963" y2="23.601" x1="19.977" gradientUnits="userSpaceOnUse" x2="19.858"/>
<linearGradient gradientTransform="matrix(2.37495 0 0 .50671 -2.79531 -.16666)" id="linearGradient164" xlink:href="#linearGradient161" x1="2.933" gradientUnits="userSpaceOnUse" x2="19.738"/>
<linearGradient gradientTransform="scale(1.17563 .8506)" xlink:href="#linearGradient1065" id="linearGradient1068" y1="33.139" x1="10.861" y2="37.721" x2="30.587" gradientUnits="userSpaceOnUse"/>
<linearGradient gradientTransform="scale(1.17563 .8506)" id="linearGradient101" xlink:href="#linearGradient172" y1="23.114" y2="52.625" x1="19.347" gradientUnits="userSpaceOnUse" x2="19.673"/>
<linearGradient gradientTransform="scale(1.17564 .8506)" id="linearGradient374" xlink:href="#linearGradient368" y1="25.335" y2="48.805" x1="17.574" x2="25.312" gradientUnits="userSpaceOnUse"/>
</defs>
<g transform="matrix(1.03005 0 -.16519 -.64292 2.47714 64.74043)">
<g opacity=".014">
<path d="m5,27.5c1.4-1.4 4-2.5 6-2.5h28.8c1.9,0 4.7,1 6.2,2.3l1,.9c1.5,1.2 2.1,3.7 1.3,5.5l-1,2.5c-.7,1.8-2.9,3.2-4.9,3.2l-32.1,.1c-1.9,0-4.2-1.4-5.1-3.1l-1.5-2.8c-.9-1.7-.5-4.3 .8-5.6l.5-.5z"/>
</g>
<g opacity=".027">
<path d="m5.4,28.3c1.3-1.4 3.9-2.5 5.8-2.5h28.6c1.9,0 4.7,1 6.1,2.3l.5,.4c1.4,1.3 2,3.8 1.3,5.6l-.7,1.8c-.7,1.8-2.9,3.2-4.8,3.2l-31.2,.1c-1.9,0-4.2-1.4-5.1-3.1l-1.2-2.1c-.9-1.7-.6-4.3 .7-5.6v-.1z"/>
</g>
<g opacity=".041">
<path d="m5.9,28.9c1.1-1.3 3.6-2.3 5.5-2.3h28.4c1.9,0 4.6,1.1 6,2.4 1.4,1.3 1.9,3.8 1.1,5.6l-.5,1.1c-.7,1.8-2.9,3.2-4.8,3.3h-30.3c-1.9,0-4.2-1.4-5.1-3.1l-.8-1.5c-.9-1.7-.7-4.2 .4-5.5h.1z"/>
</g>
<g opacity=".054">
<path d="m6.5,29.5c1-1.2 3.3-2.1 5.2-2.1h28.1c1.9,0 4.5,1 5.6,2.2 1.1,1.2 1.5,3.6 .8,5.4l-.2,.4c-.7,1.8-2.9,3.2-4.8,3.3l-29.5,.1c-1.9,0-4.2-1.4-5.1-3.1l-.4-.8c-.9-1.7-.8-4.1 .2-5.3l.1-.1z"/>
</g>
<g opacity=".068">
<path d="m7,30.1c.8-1.1 3-2 4.9-2h27.9c1.9,0 4.3,.9 5.3,2 1,1.1 1.2,3.4 .5,5.1-.7,1.7-2.9,3.1-4.8,3.1l-28.6,.1c-1.9,0-4.2-1.4-5.1-3.1l-.1-.2c-.9-1.7-.9-4-.1-5.1l.1,.1z"/>
</g>
<g opacity=".082">
<path d="m7.5,30.7c.6-1 2.7-1.8 4.7-1.8h27.7c1.9,0 4.1,.8 4.9,1.8 .8,1 .9,3.1 .3,4.6-.6,1.5-2.7,2.8-4.6,2.8l-27.7,.1c-1.9,0-4.1-1.3-4.9-2.9-.8-1.6-.9-3.7-.3-4.7l-.1,.1z"/>
</g>
<g opacity=".096">
<path d="m8.1,31.3c.5-.9 2.4-1.6 4.4-1.6h27.5c1.9,0 4,.7 4.6,1.6 .6,.9 .6,2.8 .1,4.1-.5,1.3-2.6,2.5-4.5,2.5l-27,.1c-1.9,0-4.1-1.2-4.7-2.6-.7-1.4-.8-3.3-.4-4.2v.1z"/>
</g>
<g opacity=".109">
<path d="m8.6,31.9c.3-.8 2.1-1.4 4.1-1.4h27.2c1.9,0 3.8,.7 4.2,1.5 .4,.8 .3,2.4-.1,3.6-.4,1.2-2.4,2.1-4.4,2.1l-26,.1c-1.9,0-4-1-4.5-2.2-.6-1.2-.8-2.9-.5-3.6v-.1z"/>
</g>
<g opacity=".123">
<path d="m9.2,32.5c.1-.7 1.8-1.2 3.8-1.2h27c1.9,0 3.7,.6 3.9,1.3 .2,.7 0,2.1-.3,3.1-.4,1-2.3,1.8-4.2,1.8l-25.2,.1c-1.9,0-3.9-.9-4.4-1.9-.5-1.1-.7-2.5-.6-3.1v-.1z"/>
</g>
<g opacity=".136">
<path d="m9.7,33.1c0-.6 1.6-1 3.5-1h26.8c1.9,0 3.5,.5 3.5,1.1 0,.6-.2,1.8-.6,2.6-.4,.8-2.1,1.5-4.1,1.5h-24.3c-1.9,0-3.8-.7-4.2-1.6-.4-.9-.7-2.1-.7-2.6h.1z"/>
</g>
<g opacity=".15">
<path d="m15,37c-1.9,0-3.9-.9-4.3-2.1-.4-1.2 .8-2.1 2.7-2.1h26.6c1.9,0 3.2,.9 2.7,2.1-.4,1.1-2.3,2.1-4.2,2.1h-23.5z"/>
</g>
</g>
<g display="block">
<g fill-rule="evenodd">
<g stroke-width="1.25">
<path fill="url(#linearGradient1068)" stroke="url(#linearGradient101)" d="m3.8367,16.8102c-.0441-.0351 1.732,25.224 1.7325,25.2316 .1666,2.5225 1.5653,3.4445 3.1308,3.4482 .0559,.0001 29.3695-.0032 29.994-.0059 2.6364-.0111 3.2822-1.6165 3.4557-3.3707 .0139-.0346 1.7891-25.2688 1.803-25.3033-13.372,0-26.7439,0-40.1159,0z"/>
<path fill="url(#linearGradient1872)" stroke="#4d5506" d="m7.5385,4.7306c-1.0443,.0024-1.9183,.0263-2.3944,1.0136-.0827,.1716-2.6049,7.1356-2.7262,7.4012-1.0381,2.2736-.0808,5.1376 1.9243,5.1184 .3813-.0035 39.5102,.0178 40.117,0 1.7068-.0491 1.9252-3.3656 1.1905-4.8575-.0416-.0845-3.4518-7.757-3.5388-7.8929-.4023-.6069-1.3031-.8729-1.9723-.848-.1318,.005-32.4696,.0649-32.6001,.0652z"/>
</g>
<g color="#000">
<path fill="url(#linearGradient164)" d="m7.7204,6.3901c-.9849-.0127-1.0491-.0508-1.2708,.6462-.0512,.1609-2.1132,6.4954-2.194,6.7412-.2749,.836 .1138,1.0566 1.0677,1.0396 .3379-.006 37.3468,0 37.8848,0 .7638,0 .9903-.2516 .8178-.8454-.0701-.2413-2.9407-7.0046-3.0178-7.1251-.3565-.5379-.2947-.5364-.9175-.5439-.1169-.0014-32.2546,.089-32.3703,.0875z"/>
<path fill="#2e3436" d="m7.1914,6.387c-.3709,.0283-.5493,.1382-.7045,.6262-.0512,.1609-2.1109,6.486-2.1918,6.7318-.2749,.8359 .0898,1.0607 1.0437,1.0437 .0165-.0003 1.9533,.0002 2.1367,0l-.2841-8.4017z"/>
<path fill="url(#linearGradient160)" d="m40.1435,6.2999c.4508,.0039 .5831-.0052 .8713,.5395 .0394,.0745 2.8744,6.7932 2.9762,7.039 .3462,.9471-.3131,.9273-1.3588,.9548-.1987-.0003-2.5489-.022-2.7797-.0222l.2911-8.511z"/>
</g>
</g>
<g>
<path fill="url(#linearGradient152)" color="#000" d="m43.1884,18.9309l-35.9885-.0232c27.1143,.6306 32.4415,3.6094 35.7465,3.4572l.242-3.4341z"/>
</g>
</g>
<g fill-rule="evenodd">
<g fill="#fff" fill-opacity=".488" transform="matrix(1.42002 0 0 1.42002 -67.25409 -7.48474)">
<path d="m64.1311,25.3254l3.797,.2897 1.4683-3.5746-1.7373,1.221c0,0-.7449-1.7374-1.2803-1.8771-.5354-.1397-2.8197-.0931-2.8197-.0931 .7266,.1797 1.2912,1.4281 1.2999,1.4423 .2267,.3699 .8612,1.6144 .8612,1.6144l-1.5891,.9774z"/>
<path fill-opacity=".31" color="#000" d="m64.6009,22.8528l-1.2569,2.3977-2.5839-1.6295c0,0 1.1717-2.2114 2.0951-2.2114 .9312,0 1.3473,.8026 1.7457,1.4433z"/>
<path d="m66.451,28.5455l-2.448,2.9257 2.3361,3.0168 .0432-1.9001c0,0 1.7208,.1624 2.1157-.2251 .3949-.3875 2.0379-2.3415 2.0379-2.3415-.5275,.531-1.8887,.3739-1.9053,.374-.4338,.0044-2.1506-.0357-2.1506-.0357l-.0291-1.8141z"/>
<path fill-opacity=".31" color="#000" d="m68.7484,30.0614l-1.4111-2.3103 2.7256-1.3794c0,0 1.2951,2.1415 .8206,2.9337-.4785,.7988-1.3809,.7434-2.1352,.756z"/>
<path d="m62.1702,28.3757l-1.2085-3.1827-3.5239,.249 1.4466,1.0538c0,0-.999,1.4104-.8601,1.946 .1389,.5356 .9225,2.7546 .9225,2.7546-.1971-.722 .618-1.8234 .6261-1.8379 .2125-.3782 1.1036-1.8462 1.1036-1.8462l1.4937,.8633z"/>
<path fill-opacity=".31" color="#000" d="m59.7528,29.6611l2.7062-.0707-.164,3.0504c0,0-2.5021,.0543-2.952-.752-.4537-.8132 .0445-1.5676 .4098-2.2277z"/>
</g>
<g>
<path fill="url(#linearGradient374)" d="m41.6247,23.6518c-5.3254,2.3344-12.6205,4.6692-18.5685,4.7188-6.54,.0545-11.3587,3.1605-16.2399,5.5442 .1947,2.8802 .4094,4.8912 .6746,8.1168 .1323,1.609 .6379,1.5707 2.9404,1.5707 9.1114,0 21.0654,.0129 28.2576,.0129 1.7605,0 1.5596-1.2517 1.6547-2.4504 .4604-5.8029 .8742-11.6885 1.2812-17.5129z"/>
<path stroke-opacity=".286" fill="none" stroke="url(#linearGradient384)" stroke-width="1.14" d="m5.2099,19.4028c-.0514-.0001 .8392,12.6756 1.5468,21.5656 .1825,2.282 .5535,3.2108 1.9912,3.2108 11.8513,0 28.6941,.0851 29.2676,.0831 2.7746-.01 2.7227-1.026 2.9524-3.1847 .0837-.7858 1.537-21.5863 1.5231-21.5863-9.93,0-25.0123-.0568-37.2811-.0884z"/>
</g>
</g>
</svg>
