<?xml version="1.0" encoding="UTF-8" standalone="no"?>
<!-- Created with Inkscape (http://www.inkscape.org/) -->
<svg
   xmlns:svg="http://www.w3.org/2000/svg"
   xmlns="http://www.w3.org/2000/svg"
   version="1.0"
   width="32pt"
   height="32pt"
   viewBox="0 0 32 32"
   id="svg2">
  <defs
     id="defs50" />
  <g
     id="#0202020c">
    <path
       d="M 0,0 L 32,0 L 32,32 L 19.7,32 C 20.5,31.31 21.31,30.6 22.1,29.89 C 24.13,28.12 26.22,26.35 27.8,24.15 C 28.7,22.8 29.52,21.41 30.36,20.02 C 31.96,17.68 31.95,15.64 30.35,13.93 C 27.74,9.11 24.03,4.9 18.86,2.81 C 16.54,1.04 14.56,0.98 12.93,2.61 C 9.15,5.03 4.89,7.43 3.16,11.82 C 2.83,12.4 2.15,13.55 1.82,14.13 C -0.15,16.68 -0.13,18.6 1.89,19.91 C 4.02,24.77 7.7,28.57 12.32,31.13 L 11.84,32 L 0,32 L 0,0 z"
       id="path5"
       style="opacity:0.05;fill:#020202" />
  </g>
  <g
     id="#2121216a">
    <path
       d="M 12.93,2.61 C 14.56,0.98 16.54,1.04 18.86,2.81 C 17.48,3.26 16.07,3.45 14.62,3.39 C 14.2,3.2 13.36,2.81 12.93,2.61 z"
       id="path8"
       style="opacity:0.41999996;fill:#212121" />
  </g>
  <g
     id="#8b9194f8">
    <path
       d="M 3.16,11.82 C 4.89,7.43 9.15,5.03 12.93,2.61 C 13.36,2.81 14.2,3.2 14.62,3.39 C 16.43,4.21 18.29,4.92 20,5.93 C 15.47,5.06 10.61,5.98 7.75,9.74 C 7.02,10.49 6.32,11.27 5.65,12.07 C 5.11,12.7 4.59,13.34 4.08,13.98 C 3.85,13.44 3.39,12.36 3.16,11.82 z"
       id="path11"
       style="opacity:0.97000002;fill:#8b9194" />
  </g>
  <g
     id="#b8bdc0f8">
    <path
       d="M 14.62,3.39 C 16.07,3.45 17.48,3.26 18.86,2.81 C 24.03,4.9 27.74,9.11 30.35,13.93 C 29.39,15.86 29.47,18.09 30.36,20.02 C 29.52,21.41 28.7,22.8 27.8,24.15 C 27.6,23.82 27.18,23.16 26.98,22.83 C 27.64,19.19 28.66,15.35 26.88,11.88 C 26.5,9.85 25.36,8.57 23.32,9.69 C 22.43,8.26 21.39,6.9 20,5.93 C 18.29,4.92 16.43,4.21 14.62,3.39 z"
       id="path14"
       style="opacity:0.97000002;fill:#b8bdc0" />
  </g>
  <g
     id="#cde4f5ff">
    <path
       d="M 7.75,9.74 C 10.61,5.98 15.47,5.06 20,5.93 C 21.39,6.9 22.43,8.26 23.32,9.69 C 22.53,10.76 21.73,11.82 20.93,12.88 C 20.54,13.19 19.75,13.81 19.36,14.12 C 15.19,13.51 10.92,12.81 7.75,9.74 z"
       id="path17"
       style="opacity:1;fill:#cde4f5" />
  </g>
  <g
     id="#0b4d79ff">
    <path
       d="M 23.32,9.69 C 25.36,8.57 26.5,9.85 26.88,11.88 C 21.74,14.1 23.37,20.88 24.29,25.2 C 23.07,26.39 21.69,27.4 20.19,28.21 C 23.06,25.47 19.78,22.24 21.14,19.13 C 21.94,17.07 21.6,14.92 20.93,12.88 C 21.73,11.82 22.53,10.76 23.32,9.69 z"
       id="path20"
       style="opacity:1;fill:#0b4d79" />
  </g>
  <g
     id="#5fb2ebff">
    <path
       d="M 5.65,12.07 C 6.32,11.27 7.02,10.49 7.75,9.74 C 10.92,12.81 15.19,13.51 19.36,14.12 C 15.67,17.87 9.08,15.32 5.65,12.07 z"
       id="path23"
       style="opacity:1;fill:#5fb2eb" />
  </g>
  <g
     id="#bec0c1fa">
    <path
       d="M 3.16,11.82 C 3.39,12.36 3.85,13.44 4.08,13.98 L 4.33,14.7 C 3.56,19.58 4.66,25.49 9.8,27.37 C 12.45,29.2 15.76,28.75 18.82,29.01 C 19.44,29.24 20.67,29.7 21.28,29.93 C 18.3,30.35 15.31,30.75 12.32,31.13 C 7.7,28.57 4.02,24.77 1.89,19.91 C 2.65,18.05 2.5,15.99 1.82,14.13 C 2.15,13.55 2.83,12.4 3.16,11.82 z"
       id="path26"
       style="opacity:0.98000004;fill:#bec0c1" />
  </g>
  <g
     id="#096fa9ff">
    <path
       d="M 4.08,13.98 C 4.59,13.34 5.11,12.7 5.65,12.07 C 9.08,15.32 15.67,17.87 19.36,14.12 C 19.75,13.81 20.54,13.19 20.93,12.88 C 21.6,14.92 21.94,17.07 21.14,19.13 C 19.78,22.24 23.06,25.47 20.19,28.21 C 19.85,28.41 19.16,28.81 18.82,29.01 C 15.76,28.75 12.45,29.2 9.8,27.37 C 7.73,23.23 6.27,18.99 4.33,14.7 L 4.08,13.98 z"
       id="path29"
       style="opacity:1;fill:#096fa9" />
  </g>
  <g
     id="#092740ff">
    <path
       d="M 24.29,25.2 C 23.37,20.88 21.74,14.1 26.88,11.88 C 28.66,15.35 27.64,19.19 26.98,22.83 C 26.09,23.63 25.18,24.41 24.29,25.2 z"
       id="path32"
       style="opacity:1;fill:#092740" />
  </g>
  <g
     id="#2021216b">
    <path
       d="M 1.89,19.91 C -0.13,18.6 -0.15,16.68 1.82,14.13 C 2.5,15.99 2.65,18.05 1.89,19.91 z"
       id="path35"
       style="opacity:0.41999996;fill:#202121" />
  </g>
  <g
     id="#292a2b7c">
    <path
       d="M 30.35,13.93 C 31.95,15.64 31.96,17.68 30.36,20.02 C 29.47,18.09 29.39,15.86 30.35,13.93 z"
       id="path38"
       style="opacity:0.48999999;fill:#292a2b" />
  </g>
  <g
     id="#1c435dff">
    <path
       d="M 4.33,14.7 C 6.27,18.99 7.73,23.23 9.8,27.37 C 4.66,25.49 3.56,19.58 4.33,14.7 z"
       id="path41"
       style="opacity:1;fill:#1c435d" />
  </g>
  <g
     id="#7e878cfc">
    <path
       d="M 24.29,25.2 C 25.18,24.41 26.09,23.63 26.98,22.83 C 27.18,23.16 27.6,23.82 27.8,24.15 C 26.22,26.35 24.13,28.12 22.1,29.89 L 21.28,29.93 C 20.67,29.7 19.44,29.24 18.82,29.01 C 19.16,28.81 19.85,28.41 20.19,28.21 C 21.69,27.4 23.07,26.39 24.29,25.2 z"
       id="path44"
       style="opacity:1;fill:#7e878c" />
  </g>
  <g
     id="#0b0b0c69">
    <path
       d="M 12.32,31.13 C 15.31,30.75 18.3,30.35 21.28,29.93 L 22.1,29.89 C 21.31,30.6 20.5,31.31 19.7,32 L 11.84,32 L 12.32,31.13 z"
       id="path47"
       style="opacity:0.41000001;fill:#0b0b0c" />
  </g>
</svg>
