<svg width="40" xmlns="http://www.w3.org/2000/svg" height="40" viewBox="0 0 32 32">
<path opacity=".05" fill="#020202" d="m0,0h32v32h-12.3c.8-.69 1.61-1.4 2.4-2.11 2.03-1.77 4.12-3.54 5.7-5.74 .9-1.35 1.72-2.74 2.56-4.13 1.6-2.34 1.59-4.38-.01-6.09-2.61-4.82-6.32-9.03-11.49-11.12-2.32-1.77-4.3-1.83-5.93-.2-3.78,2.42-8.04,4.82-9.77,9.21-.33,.58-1.01,1.73-1.34,2.31-1.97,2.55-1.95,4.47 .07,5.78 2.13,4.86 5.81,8.66 10.43,11.22l-.48,.87h-11.84v-32z"/>
<path opacity=".42" fill="#212121" d="m12.93,2.61c1.63-1.63 3.61-1.57 5.93,.2-1.38,.45-2.79,.64-4.24,.58-.42-.19-1.26-.58-1.69-.78z"/>
<path opacity=".97" fill="#8b9194" d="m3.16,11.82c1.73-4.39 5.99-6.79 9.77-9.21 .43,.2 1.27,.59 1.69,.78 1.81,.82 3.67,1.53 5.38,2.54-4.53-.87-9.39,.05-12.25,3.81-.73,.75-1.43,1.53-2.1,2.33-.54,.63-1.06,1.27-1.57,1.91-.23-.54-.69-1.62-.92-2.16z"/>
<path opacity=".97" fill="#b8bdc0" d="m14.62,3.39c1.45,.06 2.86-.13 4.24-.58 5.17,2.09 8.88,6.3 11.49,11.12-.96,1.93-.88,4.16 .01,6.09-.84,1.39-1.66,2.78-2.56,4.13-.2-.33-.62-.99-.82-1.32 .66-3.64 1.68-7.48-.1-10.95-.38-2.03-1.52-3.31-3.56-2.19-.89-1.43-1.93-2.79-3.32-3.76-1.71-1.01-3.57-1.72-5.38-2.54z"/>
<path fill="#cde4f5" d="m7.75,9.74c2.86-3.76 7.72-4.68 12.25-3.81 1.39,.97 2.43,2.33 3.32,3.76-.79,1.07-1.59,2.13-2.39,3.19-.39,.31-1.18,.93-1.57,1.24-4.17-.61-8.44-1.31-11.61-4.38z"/>
<path fill="#0b4d79" d="m23.32,9.69c2.04-1.12 3.18,.16 3.56,2.19-5.14,2.22-3.51,9-2.59,13.32-1.22,1.19-2.6,2.2-4.1,3.01 2.87-2.74-.41-5.97 .95-9.08 .8-2.06 .46-4.21-.21-6.25 .8-1.06 1.6-2.12 2.39-3.19z"/>
<path fill="#5fb2eb" d="m5.65,12.07c.67-.8 1.37-1.58 2.1-2.33 3.17,3.07 7.44,3.77 11.61,4.38-3.69,3.75-10.28,1.2-13.71-2.05z"/>
<path opacity=".98" fill="#bec0c1" d="m3.16,11.82c.23,.54 .69,1.62 .92,2.16l.25,.72c-.77,4.88 .33,10.79 5.47,12.67 2.65,1.83 5.96,1.38 9.02,1.64 .62,.23 1.85,.69 2.46,.92-2.98,.42-5.97,.82-8.96,1.2-4.62-2.56-8.3-6.36-10.43-11.22 .76-1.86 .61-3.92-.07-5.78 .33-.58 1.01-1.73 1.34-2.31z"/>
<path fill="#096fa9" d="m4.08,13.98c.51-.64 1.03-1.28 1.57-1.91 3.43,3.25 10.02,5.8 13.71,2.05 .39-.31 1.18-.93 1.57-1.24 .67,2.04 1.01,4.19 .21,6.25-1.36,3.11 1.92,6.34-.95,9.08-.34,.2-1.03,.6-1.37,.8-3.06-.26-6.37,.19-9.02-1.64-2.07-4.14-3.53-8.38-5.47-12.67l-.25-.72z"/>
<path fill="#092740" d="m24.29,25.2c-.92-4.32-2.55-11.1 2.59-13.32 1.78,3.47 .76,7.31 .1,10.95-.89,.8-1.8,1.58-2.69,2.37z"/>
<path opacity=".42" fill="#202121" d="m1.89,19.91c-2.02-1.31-2.04-3.23-.07-5.78 .68,1.86 .83,3.92 .07,5.78z"/>
<path opacity=".49" fill="#292a2b" d="m30.35,13.93c1.6,1.71 1.61,3.75 .01,6.09-.89-1.93-.97-4.16-.01-6.09z"/>
<path fill="#1c435d" d="m4.33,14.7c1.94,4.29 3.4,8.53 5.47,12.67-5.14-1.88-6.24-7.79-5.47-12.67z"/>
<path fill="#7e878c" d="m24.29,25.2c.89-.79 1.8-1.57 2.69-2.37 .2,.33 .62,.99 .82,1.32-1.58,2.2-3.67,3.97-5.7,5.74l-.82,.04c-.61-.23-1.84-.69-2.46-.92 .34-.2 1.03-.6 1.37-.8 1.5-.81 2.88-1.82 4.1-3.01z"/>
<path opacity=".41" fill="#0b0b0c" d="m12.32,31.13c2.99-.38 5.98-.78 8.96-1.2l.82-.04c-.79,.71-1.6,1.42-2.4,2.11h-7.86l.48-.87z"/>
</svg>
