<svg width="42.5" xmlns="http://www.w3.org/2000/svg" height="42.5" viewBox="0 0 34 34">
<g transform="matrix(1.2 0 0 1.2 -3.19827 -3.9697)">
<path fill="none" stroke="#000" stroke-width="1.333" d="m9,9c5.3333,0 10.6667,0 16,0 0,5.3333 0,10.6667 0,16-2,0-4,0-6,0 .0806-.3049-9.9304-9.6121-10-9.9241 0-1.9517 0-4.1242 0-6.0759z"/>
</g>
<g transform="matrix(1.12534 0 0 1.13363 -2.57616 -2.2675)">
<path fill="#c8c8c8" stroke="#800000" stroke-width="1.333" d="m9,15c3.3333,0 6.6667,0 10,0 0,3.3333 0,6.6667 0,10-3.3333,0-6.6667,0-10,0 0-3.3333 0-6.6667 0-10z"/>
</g>
</svg>
