<svg width="200" xmlns="http://www.w3.org/2000/svg" height="200" viewBox="0 0 160 160">
<path opacity=".33" fill="#34383a" d="m27.07,9.01c5.1-2.37 15.04-.51 21.96-.97l-.06,.96c-7.3,.03-14.6-.03-21.9,.01Z"/>
<path opacity=".59" fill="#5d6467" d="m49.03,8.04c11.67-.04 23.34-.18 35.01,.01l-.08,.96c-11.66-.01-23.33,.02-34.99-.01l.06-.96Z"/>
<path opacity=".35" fill="#363a3c" d="m84.04,8.05c4.52-.68 8.18-.37 10.96,.92-3.68,.04-7.35,.07-11.04,.04l.08-.96Z"/>
<path fill="#9fa8ac" d="m23.02,11.19c1.23-.91 2.58-1.72 4.05-2.18 7.3-.04 14.6,.02 21.9-.01 11.66,.03 23.33,0 34.99,.01 3.69,.03 7.36,0 11.04-.04 5.01,.31 12.41-.74 15.03,5.01 7.67,10.22 14.69,20.97 21.16,31.99-.36,1.43-.79,2.83-1.21,4.23-7.92-11.83-14.33-24.84-23.25-35.93-2.63-2.94-1.14,.67-.57,2.5-.02,9.29-.57,18.62 .03,27.9 1.28,.34 2.59,.6 3.89,.93-.9,1.45-1.7,2.96-2.43,4.49-10.44,.08-3.98-13.38-4.25-19.95 2.22-8.31 1.77-22.91-10.65-19.12-11.51,.05-23.03-.3-34.53,.2-10.37,.88-24.45-2.3-33.2,.8-.2,30.73 .27,61.47-.24,92.2-1.31-7.78 .01-15.78-1.44-23.52-.74-23.16-.18-46.34-.32-69.51Z"/>
<path opacity=".25" fill="#1e2223" d="m22.07,10.94l.95,.25c.14,23.17-.42,46.35 .32,69.51-.44,10.66-.57,21.34-.01,32-.43,11.36-.42,22.72-.31,34.08-.01,1.4-.01,2.8-.01,4.2l-.02,.95-.95,.13c-.04-47.04-.12-94.08 .03-141.12Z"/>
<path fill="#d9dada" d="m25.02,12.02c8.75-3.1 22.83,.08 33.2-.8-11.02,1.35-22.13,.64-33.2,.8Z"/>
<path fill="#fdfdfd" d="m58.22,11.22c11.5-.5 23.02-.15 34.53-.2 2.02,7.12 7.17,12.72 10.65,19.12 .27,6.57-6.19,20.03 4.25,19.95 3.06,.98 6.16,1.84 9.22,2.83 2.81,8.52 8.28,16.66 14.02,23.45 .19,24.18 .17,48.37 .02,72.56-35.27,.13-70.55,.12-105.81,.02-.36-14.91 .27-29.83-.32-44.73 .51-30.73 .04-61.47 .24-92.2 11.07-.16 22.18,.55 33.2-.8m30.84,43.78c-7.48,3.41-4.52,12.95-8.93,18.12-6.56,.12-9.75,8.51-14.59,12.15-7.54-5.19-6.28-16.86-14.66-20.44-1.31-2.22-6.92-6.57-7.98-.92-7.09,4.62-1.14,15.58 4.96,16.8 5.79,1.12 7.66,7.41 11.51,11.18-4.82,5.17-11.83,10.2-11.47,18.08-4.72,1.65-10.27,8.03-4.66,11.8 13.23,7.58 27.86,13.07 42.83,16.17 6.62-.38 15.63-1.11 19.69-7.21 3.17-6.54-4.94-7.99-6.76-12.78-3.13-4.67-6.47-9.38-10.53-13.26-.51-2.2-2.44-3.89-3.84-5.62 2.6-3.27 6.73-5.77 8.2-9.59 1.37-1 2.5-2.54 4.4-2.38 .32,1.56 4.32,1.61 4.64-.06 4.52-.2 8.03-5.04 8.92-8.88 3.3-.91 .73-9.18 .53-11.5-3.75-5.1-9.13,6.21-10.72-.3-3.66-5.24 7.43-7.19 2.72-12.66-3.77-4.92-10.75-1.48-14.26,1.3Z"/>
<path fill="#d9dcdd" d="m92.75,11.02c12.42-3.79 12.87,10.81 10.65,19.12-3.48-6.4-8.63-12-10.65-19.12Z"/>
<path fill="#d5d5d5" d="m106.16,16.77c-.57-1.83-2.06-5.44 .57-2.5 8.92,11.09 15.33,24.1 23.25,35.93 2.97,5.13-2.45-.2-4.88-.8 1.66-2.29-1.13-4.54-1.97-6.51-5.87-8.57-10.43-18.03-16.97-26.12Z"/>
<path fill="#f9f9f9" d="m106.16,16.77c6.54,8.09 11.1,17.55 16.97,26.12 .84,1.97 3.63,4.22 1.97,6.51-5.05-1.1-9.99-2.65-15.02-3.8-1.3-.33-2.61-.59-3.89-.93-.6-9.28-.05-18.61-.03-27.9Z"/>
<path fill="#7f8689" d="m107.65,50.09c.73-1.53 1.53-3.04 2.43-4.49 5.03,1.15 9.97,2.7 15.02,3.8 2.43,.6 7.85,5.93 4.88,.8 .42-1.4 .85-2.8 1.21-4.23 2.43,3.04 4.24,6.56 5.79,10.11 .01,4.89 .1,9.79-.07,14.68-6.59,5.73-1.25,16.63-2.93,24.28 0,8.32-.03,16.64 .03,24.97-1.92,8.58 3.41,21.6-1.7,28.35-.72-29.11-.1-58.24-.3-87.36 .12-3.57-4.2-4.49-6.89-5.36-2.71-1.04-5.46-1.93-8.25-2.72-3.06-.99-6.16-1.85-9.22-2.83Z"/>
<path fill="#7f8f95" d="m89.06,55c3.51-2.78 10.49-6.22 14.26-1.3 4.71,5.47-6.38,7.42-2.72,12.66 1.59,6.51 6.97-4.8 10.72,.3 .2,2.32 2.77,10.59-.53,11.5-.69-3.65 1.74-12.71-4.96-9.55-1.43,.81-2.6,1.98-3.83,3.06-3.46-3.04-3.03-7.82-4.35-11.89 1.95-7-5.2-6.46-8.99-3.01 .1-.44 .3-1.33 .4-1.77Z"/>
<path fill="#e2e4e5" d="m116.87,52.92c2.79,.79 5.54,1.68 8.25,2.72 1.15,7.22 8.12,12.58 5.77,20.73-5.74-6.79-11.21-14.93-14.02-23.45Z"/>
<path fill="#a9b3b6" d="m88.66,56.77c3.79-3.45 10.94-3.99 8.99,3.01-5.65,3.11-4.29,13.03 2.57,13.49 .57,8.61-13.86,4.48-16.35-1.23 .73-5.32 1.17-10.97 4.79-15.27Z"/>
<path fill="#5b6e75" d="m80.13,73.12c4.41-5.17 1.45-14.71 8.93-18.12-.1,.44-.3,1.33-.4,1.77-3.62,4.3-4.06,9.95-4.79,15.27-1.32,1.03-2.64,2.07-3.94,3.13 .05-.51 .15-1.54 .2-2.05Z"/>
<path fill="#c3c5c5" d="m125.12,55.64c2.69,.87 7.01,1.79 6.89,5.36 .2,29.12-.42,58.25 .3,87.36-.35,.14-1.05,.43-1.4,.57 .15-24.19 .17-48.38-.02-72.56 2.35-8.15-4.62-13.51-5.77-20.73Z"/>
<path opacity=".23" fill="#0e1214" d="m136.98,56.08l.97-.12c.08,30.68 .09,61.36 0,92.03l-.97-.03c.04-9.32 .05-18.64 .01-27.96 .02-8.73 .06-17.45-.03-26.17 .09-7.69 .04-15.38-.05-23.07 .17-4.89 .08-9.79 .07-14.68Z"/>
<path fill="#3d5159" d="m97.65,59.78c1.32,4.07 .89,8.85 4.35,11.89-.44,.4-1.33,1.2-1.78,1.6-6.86-.46-8.22-10.38-2.57-13.49Z"/>
<path fill="#8da3ad" d="m42.9,63.91c1.06-5.65 6.67-1.3 7.98,.92-.21,.25-.61,.76-.82,1.01-4.65-6.91-12.05,4.59-6.72,8.82 3.01,5.67 6.76-2.01 9.88-4.06 2.16,4.32-1.12,9.13-5.36,10.11-6.1-1.22-12.05-12.18-4.96-16.8Z"/>
<path fill="#bbc4c8" d="m43.34,74.66c-5.33-4.23 2.07-15.73 6.72-8.82 1.38,1.34 2.66,2.87 3.16,4.76-3.12,2.05-6.87,9.73-9.88,4.06Z"/>
<path fill="#586c74" d="m50.06,65.84c.21-.25 .61-.76 .82-1.01 8.38,3.58 7.12,15.25 14.66,20.44 .31,.44 .93,1.3 1.24,1.74 1.29,1.78 2.59,3.56 3.97,5.27l.54,.73c-.31,.22-.93,.66-1.24,.88-4.76-5.31-8.87-11.16-13.42-16.62-.99-1.35-2.19,1.05-3.09,1.53 .84,6.97 9.39,12.15 13.42,18.48-.29,.47-.86,1.41-1.15,1.88-.43-.12-1.29-.37-1.72-.49-1.01-2.06-2.18-4.07-3.77-5.75-.24-.25-.71-.77-.95-1.03-3.85-3.77-5.72-10.06-11.51-11.18 4.24-.98 7.52-5.79 5.36-10.11-.5-1.89-1.78-3.42-3.16-4.76Z"/>
<path fill="#546d77" d="m105.83,68.61c6.7-3.16 4.27,5.9 4.96,9.55-.89,3.84-4.4,8.68-8.92,8.88l-.68-.25c-1.44-.54-2.9-1.04-4.36-1.54 8.09-.03 12.14-10.02 9-16.64Z"/>
<path fill="#96a0a3" d="m102,71.67c1.23-1.08 2.4-2.25 3.83-3.06 3.14,6.62-.91,16.61-9,16.64-.45-.11-1.34-.34-1.79-.45-6.2-.52-11.64-3.81-15.25-8.76l.14-.87c1.3-1.06 2.62-2.1 3.94-3.13 2.49,5.71 16.92,9.84 16.35,1.23 .45-.4 1.34-1.2 1.78-1.6Z"/>
<path fill="#596a71" d="m133.98,95.04c1.68-7.65-3.66-18.55 2.93-24.28 .09,7.69 .14,15.38 .05,23.07-1,.39-1.99,.79-2.98,1.21Z"/>
<path fill="#dc9139" d="m65.54,85.27c4.84-3.64 8.03-12.03 14.59-12.15-.05,.51-.15,1.54-.2,2.05l-.14,.87c-.92,.56-1.85,1.11-2.78,1.64-4.18,2.12-7.11,5.95-10.23,9.33-.31-.44-.93-1.3-1.24-1.74Z"/>
<path fill="#858b8c" d="m77.01,77.68c.93-.53 1.86-1.08 2.78-1.64 3.61,4.95 9.05,8.24 15.25,8.76-2.65,.97-4.21,3.31-5.95,5.36-5.97,2.17-8.04-7.98-12.03-11.51l-.05-.97Z"/>
<path fill="#c5cdd0" d="m53.54,78.8c.9-.48 2.1-2.88 3.09-1.53 4.55,5.46 8.66,11.31 13.42,16.62-.46,.35-1.4,1.07-1.87,1.42-4.49-5.85-10.79-10.15-14.64-16.51Z"/>
<path fill="#fbc85f" d="m66.78,87.01c3.12-3.38 6.05-7.21 10.23-9.33l.05,.97c.22,4.35 3.16,8.46-1.21,11.79-1.72,.56-3.43,1.15-5.1,1.84-1.38-1.71-2.68-3.49-3.97-5.27Z"/>
<path fill="#919fa4" d="m66.96,97.28c-4.03-6.33-12.58-11.51-13.42-18.48 3.85,6.36 10.15,10.66 14.64,16.51-.3,.49-.92,1.48-1.22,1.97Z"/>
<path fill="#ef8114" d="m77.06,78.65c3.99,3.53 6.06,13.68 12.03,11.51 1.24-.27 2.48-.49 3.74-.68-1.47,3.82-5.6,6.32-8.2,9.59-2.91-2.89-4.98-6.76-8.78-8.63 4.37-3.33 1.43-7.44 1.21-11.79Z"/>
<path fill="#717f86" d="m23.34,80.7c1.45,7.74 .13,15.74 1.44,23.52 .59,14.9-.04,29.82 .32,44.73-.36-.4-1.08-1.19-1.44-1.58 .06-11.52 1.35-23.23-.33-34.67-.56-10.66-.43-21.34 .01-32Z"/>
<path fill="#38494d" d="m89.09,90.16c1.74-2.05 3.3-4.39 5.95-5.36 .45,.11 1.34,.34 1.79,.45 1.46,.5 2.92,1 4.36,1.54-1.33,.02-2.65,.12-3.96,.31-1.9-.16-3.03,1.38-4.4,2.38-1.26,.19-2.5,.41-3.74,.68Z"/>
<path fill="#b0b9bc" d="m97.23,87.1c1.31-.19 2.63-.29 3.96-.31l.68,.25c-.32,1.67-4.32,1.62-4.64,.06Z"/>
<path fill="#228fcb" d="m70.75,92.28c1.67-.69 3.38-1.28 5.1-1.84 3.8,1.87 5.87,5.74 8.78,8.63 1.4,1.73 3.33,3.42 3.84,5.62-.32,3.41 3.17,5.45 4.69,8.16-5.96,1.05-11.08,4.86-17.15,5.37-1.39-1.73-2.77-3.47-4.31-5.06 4.72-.14 10.84-.26 14.01-4.47 3.72-4.05-2.82-10.89-7.27-8.34-2.48,4.12-5.83,7.95-6.74,12.81-.39-.31-1.15-.91-1.54-1.21-.18-.25-.55-.73-.73-.98-1.49-2.14-3.12-4.17-4.85-6.12-.35-2.04-.48-4.11-.49-6.18 .43,.12 1.29,.37 1.72,.49-.18,3.52 1.37,6.85 4.09,9.06 3.14-3.69 6.35-7.36 9.13-11.33-.28-3.88-4.44-5.57-7.74-3.88l-.54-.73Z"/>
<path fill="#9a5f2d" d="m59.37,91.89c.24,.26 .71,.78 .95,1.03-3.79,3.83-7.87,7.65-9.72,12.87-1.53,3.54-.46,7.18 2.23,9.6 4.57,5.88 14.32,1.59 16.6-4.42 .18,.25 .55,.73 .73,.98 .06,.45 .18,1.37 .24,1.83-3.03,3.98-7.18,7.49-12.65,6.58-3.61-.51-6.19-3.26-8.87-5.46-.33-1.65-.7-3.28-.98-4.93-.36-7.88 6.65-12.91 11.47-18.08Z"/>
<path fill="#72c4ee" d="m71.29,93.01c3.3-1.69 7.46,0 7.74,3.88-2.78,3.97-5.99,7.64-9.13,11.33-2.72-2.21-4.27-5.54-4.09-9.06 .29-.47 .86-1.41 1.15-1.88 .3-.49 .92-1.48 1.22-1.97 .47-.35 1.41-1.07 1.87-1.42 .31-.22 .93-.66 1.24-.88Z"/>
<path fill="#fcca61" d="m60.32,92.92c1.59,1.68 2.76,3.69 3.77,5.75-4.83,2.82-7.97,8.04-12.92,10.46-.14-.83-.43-2.51-.57-3.34 1.85-5.22 5.93-9.04 9.72-12.87Z"/>
<path fill="#3a4d56" d="m133.98,95.04c.99-.42 1.98-.82 2.98-1.21 .09,8.72 .05,17.44 .03,26.17-.75,0-2.23,0-2.98,.01-.06-8.33-.03-16.65-.03-24.97Z"/>
<path fill="#fca838" d="m51.17,109.13c4.95-2.42 8.09-7.64 12.92-10.46 .01,2.07 .14,4.14 .49,6.18-4.27,3.1-7.89,6.97-11.75,10.54-2.69-2.42-3.76-6.06-2.23-9.6 .14,.83 .43,2.51 .57,3.34Z"/>
<path fill="#40a8dd" d="m78.44,100.35c4.45-2.55 10.99,4.29 7.27,8.34-3.17,4.21-9.29,4.33-14.01,4.47 .91-4.86 4.26-8.69 6.74-12.81Z"/>
<path fill="#f97e0d" d="m52.83,115.39c3.86-3.57 7.48-7.44 11.75-10.54 1.73,1.95 3.36,3.98 4.85,6.12-2.28,6.01-12.03,10.3-16.6,4.42Z"/>
<path fill="#0d6599" d="m93.16,112.85c-1.52-2.71-5.01-4.75-4.69-8.16 4.06,3.88 7.4,8.59 10.53,13.26-.02,1.59-.06,3.17-.1,4.75-3.57,5.13-8.85,13.24-15.88,7.48-3.87-5.72-8.18-11.13-12.62-16.4-.06-.46-.18-1.38-.24-1.83 .39,.3 1.15,.9 1.54,1.21 1.54,1.59 2.92,3.33 4.31,5.06 3.72,3.78 6.48,9.39 11,11.89 5.68-2.55 9.24-11.43 6.15-17.26Z"/>
<path fill="#e9e9ea" d="m43.24,121.77c-5.61-3.77-.06-10.15 4.66-11.8 .28,1.65 .65,3.28 .98,4.93-.38,4.04 4.1,5.44 6.82,7.35 10.19,5.12 20.48,10.61 31.93,12.29 6.63,1.16 17.55-4.51 11.27-11.84 .04-1.58 .08-3.16 .1-4.75 1.82,4.79 9.93,6.24 6.76,12.78-4.06,6.1-13.07,6.83-19.69,7.21-14.97-3.1-29.6-8.59-42.83-16.17Z"/>
<path fill="#45575f" d="m23.33,112.7c1.68,11.44 .39,23.15 .33,34.67l-.64-.59c-.11-11.36-.12-22.72 .31-34.08Z"/>
<path fill="#0484c6" d="m76.01,118.22c6.07-.51 11.19-4.32 17.15-5.37 3.09,5.83-.47,14.71-6.15,17.26-4.52-2.5-7.28-8.11-11-11.89Z"/>
<path fill="#b4b5b6" d="m70.4,113.78c4.44,5.27 8.75,10.68 12.62,16.4-9.29-1.06-15.87-9.21-25.27-9.82 5.47,.91 9.62-2.6 12.65-6.58Z"/>
<path fill="#cdcdcd" d="m48.88,114.9c2.68,2.2 5.26,4.95 8.87,5.46 9.4,.61 15.98,8.76 25.27,9.82 7.03,5.76 12.31-2.35 15.88-7.48 6.28,7.33-4.64,13-11.27,11.84-11.45-1.68-21.74-7.17-31.93-12.29-2.72-1.91-7.2-3.31-6.82-7.35Z"/>
<path fill="#1d313b" d="m134.01,120.01c.75-.01 2.23-.01 2.98-.01 .04,9.32 .03,18.64-.01,27.96-.28,1.98-3.17,2.83-4.96,3.05-36.34-.03-72.67,.02-109.01-.03 0-1.4 0-2.8 .01-4.2l.64,.59c.36,.39 1.08,1.18 1.44,1.58 35.26,.1 70.54,.11 105.81-.02 .35-.14 1.05-.43 1.4-.57 5.11-6.75-.22-19.77 1.7-28.35Z"/>
<path opacity=".64" fill="#121f25" d="m23.01,150.98c36.34,.05 72.67,0 109.01,.03l-.04,.97c-36.33,0-72.67,.12-108.99-.05l.02-.95Z"/>
</svg>
