<?xml version="1.0" encoding="UTF-8" ?>
<!DOCTYPE svg PUBLIC "-//W3C//DTD SVG 1.1//EN" "http://www.w3.org/Graphics/SVG/1.1/DTD/svg11.dtd">
<svg width="160pt" height="160pt" viewBox="0 0 160 160" version="1.1" xmlns="http://www.w3.org/2000/svg">
<g id="#34383a55">
<path fill="#34383a" opacity="0.33" d=" M 27.07 9.01 C 32.17 6.64 42.11 8.50 49.03 8.04 L 48.97 9.00 C 41.67 9.03 34.37 8.97 27.07 9.01 Z" />
</g>
<g id="#5d646796">
<path fill="#5d6467" opacity="0.59" d=" M 49.03 8.04 C 60.70 8.00 72.37 7.86 84.04 8.05 L 83.96 9.01 C 72.30 9.00 60.63 9.03 48.97 9.00 L 49.03 8.04 Z" />
</g>
<g id="#363a3c58">
<path fill="#363a3c" opacity="0.35" d=" M 84.04 8.05 C 88.56 7.37 92.22 7.68 95.00 8.97 C 91.32 9.01 87.65 9.04 83.96 9.01 L 84.04 8.05 Z" />
</g>
<g id="#9fa8acfc">
<path fill="#9fa8ac" opacity="1.00" d=" M 23.02 11.19 C 24.25 10.28 25.60 9.47 27.07 9.01 C 34.37 8.97 41.67 9.03 48.97 9.00 C 60.63 9.03 72.30 9.00 83.96 9.01 C 87.65 9.04 91.32 9.01 95.00 8.97 C 100.01 9.28 107.41 8.23 110.03 13.98 C 117.70 24.20 124.72 34.95 131.19 45.97 C 130.83 47.40 130.40 48.80 129.98 50.20 C 122.06 38.37 115.65 25.36 106.73 14.27 C 104.10 11.33 105.59 14.94 106.16 16.77 C 106.14 26.06 105.59 35.39 106.19 44.67 C 107.47 45.01 108.78 45.27 110.08 45.60 C 109.18 47.05 108.38 48.56 107.65 50.09 C 97.21 50.17 103.67 36.71 103.40 30.14 C 105.62 21.83 105.17 7.23 92.75 11.02 C 81.24 11.07 69.72 10.72 58.22 11.22 C 47.85 12.10 33.77 8.92 25.02 12.02 C 24.82 42.75 25.29 73.49 24.78 104.22 C 23.47 96.44 24.79 88.44 23.34 80.70 C 22.60 57.54 23.16 34.36 23.02 11.19 Z" />
</g>
<g id="#1e222340">
<path fill="#1e2223" opacity="0.25" d=" M 22.07 10.94 L 23.02 11.19 C 23.16 34.36 22.60 57.54 23.34 80.70 C 22.90 91.36 22.77 102.04 23.33 112.70 C 22.90 124.06 22.91 135.42 23.02 146.78 C 23.01 148.18 23.01 149.58 23.01 150.98 L 22.99 151.93 L 22.04 152.06 C 22.00 105.02 21.92 57.98 22.07 10.94 Z" />
</g>
<g id="#d9dadaff">
<path fill="#d9dada" opacity="1.00" d=" M 25.02 12.02 C 33.77 8.92 47.85 12.10 58.22 11.22 C 47.20 12.57 36.09 11.86 25.02 12.02 Z" />
</g>
<g id="#fdfdfdff">
<path fill="#fdfdfd" opacity="1.00" d=" M 58.22 11.22 C 69.72 10.72 81.24 11.07 92.75 11.02 C 94.77 18.14 99.92 23.74 103.40 30.14 C 103.67 36.71 97.21 50.17 107.65 50.09 C 110.71 51.07 113.81 51.93 116.87 52.92 C 119.68 61.44 125.15 69.58 130.89 76.37 C 131.08 100.55 131.06 124.74 130.91 148.93 C 95.64 149.06 60.36 149.05 25.10 148.95 C 24.74 134.04 25.37 119.12 24.78 104.22 C 25.29 73.49 24.82 42.75 25.02 12.02 C 36.09 11.86 47.20 12.57 58.22 11.22 M 89.06 55.00 C 81.58 58.41 84.54 67.95 80.13 73.12 C 73.57 73.24 70.38 81.63 65.54 85.27 C 58.00 80.08 59.26 68.41 50.88 64.83 C 49.57 62.61 43.96 58.26 42.90 63.91 C 35.81 68.53 41.76 79.49 47.86 80.71 C 53.65 81.83 55.52 88.12 59.37 91.89 C 54.55 97.06 47.54 102.09 47.90 109.97 C 43.18 111.62 37.63 118.00 43.24 121.77 C 56.47 129.35 71.10 134.84 86.07 137.94 C 92.69 137.56 101.70 136.83 105.76 130.73 C 108.93 124.19 100.82 122.74 99.00 117.95 C 95.87 113.28 92.53 108.57 88.47 104.69 C 87.96 102.49 86.03 100.80 84.63 99.07 C 87.23 95.80 91.36 93.30 92.83 89.48 C 94.20 88.48 95.33 86.94 97.23 87.10 C 97.55 88.66 101.55 88.71 101.87 87.04 C 106.39 86.84 109.90 82.00 110.79 78.16 C 114.09 77.25 111.52 68.98 111.32 66.66 C 107.57 61.56 102.19 72.87 100.60 66.36 C 96.94 61.12 108.03 59.17 103.32 53.70 C 99.55 48.78 92.57 52.22 89.06 55.00 Z" />
</g>
<g id="#d9dcddff">
<path fill="#d9dcdd" opacity="1.00" d=" M 92.75 11.02 C 105.17 7.23 105.62 21.83 103.40 30.14 C 99.92 23.74 94.77 18.14 92.75 11.02 Z" />
</g>
<g id="#d5d5d5ff">
<path fill="#d5d5d5" opacity="1.00" d=" M 106.16 16.77 C 105.59 14.94 104.10 11.33 106.73 14.27 C 115.65 25.36 122.06 38.37 129.98 50.20 C 132.95 55.33 127.53 50.00 125.10 49.40 C 126.76 47.11 123.97 44.86 123.13 42.89 C 117.26 34.32 112.70 24.86 106.16 16.77 Z" />
</g>
<g id="#f9f9f9ff">
<path fill="#f9f9f9" opacity="1.00" d=" M 106.16 16.77 C 112.70 24.86 117.26 34.32 123.13 42.89 C 123.97 44.86 126.76 47.11 125.10 49.40 C 120.05 48.30 115.11 46.75 110.08 45.60 C 108.78 45.27 107.47 45.01 106.19 44.67 C 105.59 35.39 106.14 26.06 106.16 16.77 Z" />
</g>
<g id="#7f8689fe">
<path fill="#7f8689" opacity="1.00" d=" M 107.65 50.09 C 108.38 48.56 109.18 47.05 110.08 45.60 C 115.11 46.75 120.05 48.30 125.10 49.40 C 127.53 50.00 132.95 55.33 129.98 50.20 C 130.40 48.80 130.83 47.40 131.19 45.97 C 133.62 49.01 135.43 52.53 136.98 56.08 C 136.99 60.97 137.08 65.87 136.91 70.76 C 130.32 76.49 135.66 87.39 133.98 95.04 C 133.98 103.36 133.95 111.68 134.01 120.01 C 132.09 128.59 137.42 141.61 132.31 148.36 C 131.59 119.25 132.21 90.12 132.01 61.00 C 132.13 57.43 127.81 56.51 125.12 55.64 C 122.41 54.60 119.66 53.71 116.87 52.92 C 113.81 51.93 110.71 51.07 107.65 50.09 Z" />
</g>
<g id="#7f8f95ff">
<path fill="#7f8f95" opacity="1.00" d=" M 89.06 55.00 C 92.57 52.22 99.55 48.78 103.32 53.70 C 108.03 59.17 96.94 61.12 100.60 66.36 C 102.19 72.87 107.57 61.56 111.32 66.66 C 111.52 68.98 114.09 77.25 110.79 78.16 C 110.10 74.51 112.53 65.45 105.83 68.61 C 104.40 69.42 103.23 70.59 102.00 71.67 C 98.54 68.63 98.97 63.85 97.65 59.78 C 99.60 52.78 92.45 53.32 88.66 56.77 C 88.76 56.33 88.96 55.44 89.06 55.00 Z" />
</g>
<g id="#e2e4e5ff">
<path fill="#e2e4e5" opacity="1.00" d=" M 116.87 52.92 C 119.66 53.71 122.41 54.60 125.12 55.64 C 126.27 62.86 133.24 68.22 130.89 76.37 C 125.15 69.58 119.68 61.44 116.87 52.92 Z" />
</g>
<g id="#a9b3b6ff">
<path fill="#a9b3b6" opacity="1.00" d=" M 88.66 56.77 C 92.45 53.32 99.60 52.78 97.65 59.78 C 92.00 62.89 93.36 72.81 100.22 73.27 C 100.79 81.88 86.36 77.75 83.87 72.04 C 84.60 66.72 85.04 61.07 88.66 56.77 Z" />
</g>
<g id="#5b6e75ff">
<path fill="#5b6e75" opacity="1.00" d=" M 80.13 73.12 C 84.54 67.95 81.58 58.41 89.06 55.00 C 88.96 55.44 88.76 56.33 88.66 56.77 C 85.04 61.07 84.60 66.72 83.87 72.04 C 82.55 73.07 81.23 74.11 79.93 75.17 C 79.98 74.66 80.08 73.63 80.13 73.12 Z" />
</g>
<g id="#c3c5c5ff">
<path fill="#c3c5c5" opacity="1.00" d=" M 125.12 55.64 C 127.81 56.51 132.13 57.43 132.01 61.00 C 132.21 90.12 131.59 119.25 132.31 148.36 C 131.96 148.50 131.26 148.79 130.91 148.93 C 131.06 124.74 131.08 100.55 130.89 76.37 C 133.24 68.22 126.27 62.86 125.12 55.64 Z" />
</g>
<g id="#0e12143b">
<path fill="#0e1214" opacity="0.23" d=" M 136.98 56.08 L 137.95 55.96 C 138.03 86.64 138.04 117.32 137.95 147.99 L 136.98 147.96 C 137.02 138.64 137.03 129.32 136.99 120.00 C 137.01 111.27 137.05 102.55 136.96 93.83 C 137.05 86.14 137.00 78.45 136.91 70.76 C 137.08 65.87 136.99 60.97 136.98 56.08 Z" />
</g>
<g id="#3d5159ff">
<path fill="#3d5159" opacity="1.00" d=" M 97.65 59.78 C 98.97 63.85 98.54 68.63 102.00 71.67 C 101.56 72.07 100.67 72.87 100.22 73.27 C 93.36 72.81 92.00 62.89 97.65 59.78 Z" />
</g>
<g id="#8da3adff">
<path fill="#8da3ad" opacity="1.00" d=" M 42.90 63.91 C 43.96 58.26 49.57 62.61 50.88 64.83 C 50.67 65.08 50.27 65.59 50.06 65.84 C 45.41 58.93 38.01 70.43 43.34 74.66 C 46.35 80.33 50.10 72.65 53.22 70.60 C 55.38 74.92 52.10 79.73 47.86 80.71 C 41.76 79.49 35.81 68.53 42.90 63.91 Z" />
</g>
<g id="#bbc4c8ff">
<path fill="#bbc4c8" opacity="1.00" d=" M 43.34 74.66 C 38.01 70.43 45.41 58.93 50.06 65.84 C 51.44 67.18 52.72 68.71 53.22 70.60 C 50.10 72.65 46.35 80.33 43.34 74.66 Z" />
</g>
<g id="#586c74ff">
<path fill="#586c74" opacity="1.00" d=" M 50.06 65.84 C 50.27 65.59 50.67 65.08 50.88 64.83 C 59.26 68.41 58.00 80.08 65.54 85.27 C 65.85 85.71 66.47 86.57 66.78 87.01 C 68.07 88.79 69.37 90.57 70.75 92.28 L 71.29 93.01 C 70.98 93.23 70.36 93.67 70.05 93.89 C 65.29 88.58 61.18 82.73 56.63 77.27 C 55.64 75.92 54.44 78.32 53.54 78.80 C 54.38 85.77 62.93 90.95 66.96 97.28 C 66.67 97.75 66.10 98.69 65.81 99.16 C 65.38 99.04 64.52 98.79 64.09 98.67 C 63.08 96.61 61.91 94.60 60.32 92.92 C 60.08 92.67 59.61 92.15 59.37 91.89 C 55.52 88.12 53.65 81.83 47.86 80.71 C 52.10 79.73 55.38 74.92 53.22 70.60 C 52.72 68.71 51.44 67.18 50.06 65.84 Z" />
</g>
<g id="#546d77ff">
<path fill="#546d77" opacity="1.00" d=" M 105.83 68.61 C 112.53 65.45 110.10 74.51 110.79 78.16 C 109.90 82.00 106.39 86.84 101.87 87.04 L 101.19 86.79 C 99.75 86.25 98.29 85.75 96.83 85.25 C 104.92 85.22 108.97 75.23 105.83 68.61 Z" />
</g>
<g id="#96a0a3ff">
<path fill="#96a0a3" opacity="1.00" d=" M 102.00 71.67 C 103.23 70.59 104.40 69.42 105.83 68.61 C 108.97 75.23 104.92 85.22 96.83 85.25 C 96.38 85.14 95.49 84.91 95.04 84.80 C 88.84 84.28 83.40 80.99 79.79 76.04 L 79.93 75.17 C 81.23 74.11 82.55 73.07 83.87 72.04 C 86.36 77.75 100.79 81.88 100.22 73.27 C 100.67 72.87 101.56 72.07 102.00 71.67 Z" />
</g>
<g id="#596a71ff">
<path fill="#596a71" opacity="1.00" d=" M 133.98 95.04 C 135.66 87.39 130.32 76.49 136.91 70.76 C 137.00 78.45 137.05 86.14 136.96 93.83 C 135.96 94.22 134.97 94.62 133.98 95.04 Z" />
</g>
<g id="#dc9139ff">
<path fill="#dc9139" opacity="1.00" d=" M 65.54 85.27 C 70.38 81.63 73.57 73.24 80.13 73.12 C 80.08 73.63 79.98 74.66 79.93 75.17 L 79.79 76.04 C 78.87 76.60 77.94 77.15 77.01 77.68 C 72.83 79.80 69.90 83.63 66.78 87.01 C 66.47 86.57 65.85 85.71 65.54 85.27 Z" />
</g>
<g id="#858b8cff">
<path fill="#858b8c" opacity="1.00" d=" M 77.01 77.68 C 77.94 77.15 78.87 76.60 79.79 76.04 C 83.40 80.99 88.84 84.28 95.04 84.80 C 92.39 85.77 90.83 88.11 89.09 90.16 C 83.12 92.33 81.05 82.18 77.06 78.65 L 77.01 77.68 Z" />
</g>
<g id="#c5cdd0ff">
<path fill="#c5cdd0" opacity="1.00" d=" M 53.54 78.80 C 54.44 78.32 55.64 75.92 56.63 77.27 C 61.18 82.73 65.29 88.58 70.05 93.89 C 69.59 94.24 68.65 94.96 68.18 95.31 C 63.69 89.46 57.39 85.16 53.54 78.80 Z" />
</g>
<g id="#fbc85fff">
<path fill="#fbc85f" opacity="1.00" d=" M 66.78 87.01 C 69.90 83.63 72.83 79.80 77.01 77.68 L 77.06 78.65 C 77.28 83.00 80.22 87.11 75.85 90.44 C 74.13 91.00 72.42 91.59 70.75 92.28 C 69.37 90.57 68.07 88.79 66.78 87.01 Z" />
</g>
<g id="#919fa4ff">
<path fill="#919fa4" opacity="1.00" d=" M 66.96 97.28 C 62.93 90.95 54.38 85.77 53.54 78.80 C 57.39 85.16 63.69 89.46 68.18 95.31 C 67.88 95.80 67.26 96.79 66.96 97.28 Z" />
</g>
<g id="#ef8114ff">
<path fill="#ef8114" opacity="1.00" d=" M 77.06 78.65 C 81.05 82.18 83.12 92.33 89.09 90.16 C 90.33 89.89 91.57 89.67 92.83 89.48 C 91.36 93.30 87.23 95.80 84.63 99.07 C 81.72 96.18 79.65 92.31 75.85 90.44 C 80.22 87.11 77.28 83.00 77.06 78.65 Z" />
</g>
<g id="#717f86ff">
<path fill="#717f86" opacity="1.00" d=" M 23.34 80.70 C 24.79 88.44 23.47 96.44 24.78 104.22 C 25.37 119.12 24.74 134.04 25.10 148.95 C 24.74 148.55 24.02 147.76 23.66 147.37 C 23.72 135.85 25.01 124.14 23.33 112.70 C 22.77 102.04 22.90 91.36 23.34 80.70 Z" />
</g>
<g id="#38494dff">
<path fill="#38494d" opacity="1.00" d=" M 89.09 90.16 C 90.83 88.11 92.39 85.77 95.04 84.80 C 95.49 84.91 96.38 85.14 96.83 85.25 C 98.29 85.75 99.75 86.25 101.19 86.79 C 99.86 86.81 98.54 86.91 97.23 87.10 C 95.33 86.94 94.20 88.48 92.83 89.48 C 91.57 89.67 90.33 89.89 89.09 90.16 Z" />
</g>
<g id="#b0b9bcff">
<path fill="#b0b9bc" opacity="1.00" d=" M 97.23 87.10 C 98.54 86.91 99.86 86.81 101.19 86.79 L 101.87 87.04 C 101.55 88.71 97.55 88.66 97.23 87.10 Z" />
</g>
<g id="#228fcbff">
<path fill="#228fcb" opacity="1.00" d=" M 70.75 92.28 C 72.42 91.59 74.13 91.00 75.85 90.44 C 79.65 92.31 81.72 96.18 84.63 99.07 C 86.03 100.80 87.96 102.49 88.47 104.69 C 88.15 108.10 91.64 110.14 93.16 112.85 C 87.20 113.90 82.08 117.71 76.01 118.22 C 74.62 116.49 73.24 114.75 71.70 113.16 C 76.42 113.02 82.54 112.90 85.71 108.69 C 89.43 104.64 82.89 97.80 78.44 100.35 C 75.96 104.47 72.61 108.30 71.70 113.16 C 71.31 112.85 70.55 112.25 70.16 111.95 C 69.98 111.70 69.61 111.22 69.43 110.97 C 67.94 108.83 66.31 106.80 64.58 104.85 C 64.23 102.81 64.10 100.74 64.09 98.67 C 64.52 98.79 65.38 99.04 65.81 99.16 C 65.63 102.68 67.18 106.01 69.90 108.22 C 73.04 104.53 76.25 100.86 79.03 96.89 C 78.75 93.01 74.59 91.32 71.29 93.01 L 70.75 92.28 Z" />
</g>
<g id="#9a5f2dff">
<path fill="#9a5f2d" opacity="1.00" d=" M 59.37 91.89 C 59.61 92.15 60.08 92.67 60.32 92.92 C 56.53 96.75 52.45 100.57 50.60 105.79 C 49.07 109.33 50.14 112.97 52.83 115.39 C 57.40 121.27 67.15 116.98 69.43 110.97 C 69.61 111.22 69.98 111.70 70.16 111.95 C 70.22 112.40 70.34 113.32 70.40 113.78 C 67.37 117.76 63.22 121.27 57.75 120.36 C 54.14 119.85 51.56 117.10 48.88 114.90 C 48.55 113.25 48.18 111.62 47.90 109.97 C 47.54 102.09 54.55 97.06 59.37 91.89 Z" />
</g>
<g id="#72c4eeff">
<path fill="#72c4ee" opacity="1.00" d=" M 71.29 93.01 C 74.59 91.32 78.75 93.01 79.03 96.89 C 76.25 100.86 73.04 104.53 69.90 108.22 C 67.18 106.01 65.63 102.68 65.81 99.16 C 66.10 98.69 66.67 97.75 66.96 97.28 C 67.26 96.79 67.88 95.80 68.18 95.31 C 68.65 94.96 69.59 94.24 70.05 93.89 C 70.36 93.67 70.98 93.23 71.29 93.01 Z" />
</g>
<g id="#fcca61ff">
<path fill="#fcca61" opacity="1.00" d=" M 60.32 92.92 C 61.91 94.60 63.08 96.61 64.09 98.67 C 59.26 101.49 56.12 106.71 51.17 109.13 C 51.03 108.30 50.74 106.62 50.60 105.79 C 52.45 100.57 56.53 96.75 60.32 92.92 Z" />
</g>
<g id="#3a4d56ff">
<path fill="#3a4d56" opacity="1.00" d=" M 133.98 95.04 C 134.97 94.62 135.96 94.22 136.96 93.83 C 137.05 102.55 137.01 111.27 136.99 120.00 C 136.24 120.00 134.76 120.00 134.01 120.01 C 133.95 111.68 133.98 103.36 133.98 95.04 Z" />
</g>
<g id="#fca838ff">
<path fill="#fca838" opacity="1.00" d=" M 51.17 109.13 C 56.12 106.71 59.26 101.49 64.09 98.67 C 64.10 100.74 64.23 102.81 64.58 104.85 C 60.31 107.95 56.69 111.82 52.83 115.39 C 50.14 112.97 49.07 109.33 50.60 105.79 C 50.74 106.62 51.03 108.30 51.17 109.13 Z" />
</g>
<g id="#40a8ddff">
<path fill="#40a8dd" opacity="1.00" d=" M 78.44 100.35 C 82.89 97.80 89.43 104.64 85.71 108.69 C 82.54 112.90 76.42 113.02 71.70 113.16 C 72.61 108.30 75.96 104.47 78.44 100.35 Z" />
</g>
<g id="#f97e0dff">
<path fill="#f97e0d" opacity="1.00" d=" M 52.83 115.39 C 56.69 111.82 60.31 107.95 64.58 104.85 C 66.31 106.80 67.94 108.83 69.43 110.97 C 67.15 116.98 57.40 121.27 52.83 115.39 Z" />
</g>
<g id="#0d6599ff">
<path fill="#0d6599" opacity="1.00" d=" M 93.16 112.85 C 91.64 110.14 88.15 108.10 88.47 104.69 C 92.53 108.57 95.87 113.28 99.00 117.95 C 98.98 119.54 98.94 121.12 98.90 122.70 C 95.33 127.83 90.05 135.94 83.02 130.18 C 79.15 124.46 74.84 119.05 70.40 113.78 C 70.34 113.32 70.22 112.40 70.16 111.95 C 70.55 112.25 71.31 112.85 71.70 113.16 C 73.24 114.75 74.62 116.49 76.01 118.22 C 79.73 122.00 82.49 127.61 87.01 130.11 C 92.69 127.56 96.25 118.68 93.16 112.85 Z" />
</g>
<g id="#e9e9eaff">
<path fill="#e9e9ea" opacity="1.00" d=" M 43.24 121.77 C 37.63 118.00 43.18 111.62 47.90 109.97 C 48.18 111.62 48.55 113.25 48.88 114.90 C 48.50 118.94 52.98 120.34 55.70 122.25 C 65.89 127.37 76.18 132.86 87.63 134.54 C 94.26 135.70 105.18 130.03 98.90 122.70 C 98.94 121.12 98.98 119.54 99.00 117.95 C 100.82 122.74 108.93 124.19 105.76 130.73 C 101.70 136.83 92.69 137.56 86.07 137.94 C 71.10 134.84 56.47 129.35 43.24 121.77 Z" />
</g>
<g id="#45575fff">
<path fill="#45575f" opacity="1.00" d=" M 23.33 112.70 C 25.01 124.14 23.72 135.85 23.66 147.37 L 23.02 146.78 C 22.91 135.42 22.90 124.06 23.33 112.70 Z" />
</g>
<g id="#0484c6ff">
<path fill="#0484c6" opacity="1.00" d=" M 76.01 118.22 C 82.08 117.71 87.20 113.90 93.16 112.85 C 96.25 118.68 92.69 127.56 87.01 130.11 C 82.49 127.61 79.73 122.00 76.01 118.22 Z" />
</g>
<g id="#b4b5b6ff">
<path fill="#b4b5b6" opacity="1.00" d=" M 70.40 113.78 C 74.84 119.05 79.15 124.46 83.02 130.18 C 73.73 129.12 67.15 120.97 57.75 120.36 C 63.22 121.27 67.37 117.76 70.40 113.78 Z" />
</g>
<g id="#cdcdcdff">
<path fill="#cdcdcd" opacity="1.00" d=" M 48.88 114.90 C 51.56 117.10 54.14 119.85 57.75 120.36 C 67.15 120.97 73.73 129.12 83.02 130.18 C 90.05 135.94 95.33 127.83 98.90 122.70 C 105.18 130.03 94.26 135.70 87.63 134.54 C 76.18 132.86 65.89 127.37 55.70 122.25 C 52.98 120.34 48.50 118.94 48.88 114.90 Z" />
</g>
<g id="#1d313bfe">
<path fill="#1d313b" opacity="1.00" d=" M 134.01 120.01 C 134.76 120.00 136.24 120.00 136.99 120.00 C 137.03 129.32 137.02 138.64 136.98 147.96 C 136.70 149.94 133.81 150.79 132.02 151.01 C 95.68 150.98 59.35 151.03 23.01 150.98 C 23.01 149.58 23.01 148.18 23.02 146.78 L 23.66 147.37 C 24.02 147.76 24.74 148.55 25.10 148.95 C 60.36 149.05 95.64 149.06 130.91 148.93 C 131.26 148.79 131.96 148.50 132.31 148.36 C 137.42 141.61 132.09 128.59 134.01 120.01 Z" />
</g>
<g id="#121f25a3">
<path fill="#121f25" opacity="0.64" d=" M 23.01 150.98 C 59.35 151.03 95.68 150.98 132.02 151.01 L 131.98 151.98 C 95.65 151.98 59.31 152.10 22.99 151.93 L 23.01 150.98 Z" />
</g>
</svg>
