<?xml version="1.0" encoding="utf-8"?>
<!-- Generator: Adobe Illustrator 15.1.0, SVG Export Plug-In . SVG Version: 6.00 Build 0)  -->
<!DOCTYPE svg PUBLIC "-//W3C//DTD SVG 1.1//EN" "http://www.w3.org/Graphics/SVG/1.1/DTD/svg11.dtd">
<svg version="1.1" id="svg2" xmlns:svg="http://www.w3.org/2000/svg"
	 xmlns="http://www.w3.org/2000/svg" xmlns:xlink="http://www.w3.org/1999/xlink" x="0px" y="0px" width="32px" height="32px"
	 viewBox="0 0 32 32" enable-background="new 0 0 32 32" xml:space="preserve">
<g id="_x23_7485a8ff">
	<path id="path5" fill="#0077CF" d="M15.288,1.427c0.571,0,1.712,0.011,2.273,0.011c-0.055,2.353-0.101,4.308-0.169,6.648
		c0.617-0.033,1.849-0.034,2.477-0.067c-1.177,1.153-2.341,2.615-3.505,3.758c-1.266-1.176-2.52-2.363-3.775-3.551
		c0.683-0.034,2.039-0.101,2.71-0.146C15.298,5.863,15.298,3.646,15.288,1.427z"/>
</g>
<linearGradient id="path8_1_" gradientUnits="userSpaceOnUse" x1="11.7734" y1="5.8442" x2="16.999" y2="22.9363">
	<stop  offset="0.5628" style="stop-color:#000000"/>
	<stop  offset="1" style="stop-color:#6B6B6B"/>
</linearGradient>
<path id="path8" fill="url(#path8_1_)" d="M0.809,21.925C2.438,19.587,5.569,0.739,9.25,9.658c4.887,8.142,14.138,5.316,21.25,5.461
	c0.103,1.561,0.02,2.758,0.004,3.688c-3.589,0.178-4.354,0.279-12.174,0.041C6.25,18.735,7.031,0.354,2.666,26.75
	C2.25,25.122,1.226,23.582,0.809,21.925z"/>
<g id="_x23_512525ff">
	<path id="path11" fill="#359A46" d="M12.515,23.684c2.341-3.685,5.455-3.674,7.807-0.022c-0.694,0.068-2.072,0.19-2.767,0.247
		c-0.011,2.218-0.022,4.424-0.022,6.643c-0.548,0-1.646,0.011-2.195,0.021c0-2.219,0-4.424,0-6.642
		C14.632,23.873,13.221,23.751,12.515,23.684z"/>
</g>
<g id="_x23_512525ff_1_">
	<path id="path11_1_" fill="#359A46" d="M21.578,23.684c2.34-3.685,5.454-3.674,7.807-0.022c-0.694,0.068-2.072,0.19-2.767,0.247
		c-0.011,2.218-0.022,4.424-0.022,6.643c-0.548,0-1.646,0.011-2.195,0.021c0-2.219,0-4.424,0-6.642
		C23.695,23.873,22.283,23.751,21.578,23.684z"/>
</g>
</svg>
