<?xml version="1.0" encoding="UTF-8" standalone="no"?>
<!-- Created with Inkscape (http://www.inkscape.org/) -->
<svg
   xmlns:svg="http://www.w3.org/2000/svg"
   xmlns="http://www.w3.org/2000/svg"
   version="1.0"
   width="32pt"
   height="32pt"
   viewBox="0 0 32 32"
   id="svg2">
  <defs
     id="defs14" />
  <g
     id="#7485a8ff">
    <path
       d="M 14.99,2.99 C 15.5,2.99 16.52,3 17.02,3 C 16.97,5.1 16.92,7.19 16.86,9.28 C 17.41,9.25 18.52,9.19 19.08,9.16 C 18.03,10.19 16.99,11.21 15.95,12.23 C 14.82,11.18 13.7,10.12 12.58,9.06 C 13.19,9.03 14.4,8.97 15,8.93 C 15,6.95 15,4.97 14.99,2.99 z"
       id="path5"
       style="opacity:1;fill:#7485a8" />
  </g>
  <g
     id="#7b7b7bff">
    <path
       d="M 1.78,15.03 C 5,15.2 8.15,13.22 11.28,14.75 C 17.37,18.09 23.75,11.66 29.8,15.45 C 30.14,15.85 30.82,16.63 31.16,17.03 C 27.42,17.24 23.47,14.95 20.01,16.95 C 14.61,20.18 8.8,13.56 3.38,17.28 C 2.98,16.72 2.18,15.6 1.78,15.03 z"
       id="path8"
       style="opacity:1;fill:#7b7b7b" />
  </g>
  <g
     id="#512525ff">
    <path
       d="M 12.48,22.86 C 14.57,19.57 17.35,19.58 19.45,22.84 C 18.83,22.9 17.6,23.01 16.98,23.06 C 16.97,25.04 16.96,27.01 16.96,28.99 C 16.47,28.99 15.49,29 15,29.01 C 15,27.03 15,25.06 15,23.08 C 14.37,23.03 13.11,22.92 12.48,22.86 z"
       id="path11"
       style="opacity:1;fill:#512525" />
  </g>
</svg>
