<svg width="32" xmlns="http://www.w3.org/2000/svg" height="32" viewBox="0 0 32 32" xmlns:xlink="http://www.w3.org/1999/xlink" enable-background="new 0 0 32 32">
<defs>
<linearGradient id="path8_1_" y1="5.844" x1="11.773" y2="22.936" gradientUnits="userSpaceOnUse" x2="16.999">
<stop offset=".563"/>
<stop offset="1" stop-color="#6b6b6b"/>
</linearGradient>
</defs>
<path fill="#0077cf" d="m15.288,1.427c.571,0 1.712,.011 2.273,.011-.055,2.353-.101,4.308-.169,6.648 .617-.033 1.849-.034 2.477-.067-1.177,1.153-2.341,2.615-3.505,3.758-1.266-1.176-2.52-2.363-3.775-3.551 .683-.034 2.039-.101 2.71-.146-.001-2.217-.001-4.434-.011-6.653z"/>
<path fill="url(#path8_1_)" d="m.809,21.925c1.629-2.338 4.76-21.186 8.441-12.267 4.887,8.142 14.138,5.316 21.25,5.461 .103,1.561 .02,2.758 .004,3.688-3.589,.178-4.354,.279-12.174,.041-12.08-.113-11.299-18.494-15.664,7.902-.416-1.628-1.44-3.168-1.857-4.825z"/>
<g fill="#359a46">
<path d="m12.515,23.684c2.341-3.685 5.455-3.674 7.807-.022-.694,.068-2.072,.19-2.767,.247-.011,2.218-.022,4.424-.022,6.643-.548,0-1.646,.011-2.195,.021 0-2.219 0-4.424 0-6.642-.706-.058-2.117-.18-2.823-.247z"/>
<path d="m21.578,23.684c2.34-3.685 5.454-3.674 7.807-.022-.694,.068-2.072,.19-2.767,.247-.011,2.218-.022,4.424-.022,6.643-.548,0-1.646,.011-2.195,.021 0-2.219 0-4.424 0-6.642-.706-.058-2.118-.18-2.823-.247z"/>
</g>
</svg>
