<svg width="160" xmlns="http://www.w3.org/2000/svg" height="160" viewBox="0 0 128 128">
<path opacity=".4" fill="#2e3b5a" d="m27.09,0h5.57c-.42,2.16 .08,5-2.15,6.3-4.75,3.29-8.13,8.09-12.76,11.53-2.93,1.69-.96,5.22-.73,7.78-.21,1.87-.42,3.75-.64,5.63-2,.99-4.15,1.81-5.88,3.27-1.53,1.7-2.34,3.88-3.35,5.9-2.39,.14-4.77,.25-7.15,.35v-4.12c1.16,.37 2.33,.76 3.55,.94 3.37-3.37 6.35-7.18 10.39-9.82-.08-3.53-.85-7.18 .14-10.64 2.55-2.17 5.74-3.58 7.83-6.28 2.1-2.72 4.83-4.79 7.32-7.11 .89-1.77-1.14-2.67-2.14-3.73z"/>
<path opacity=".68" fill="#7e8ba1" d="m32.66,0h1.84c-.36,2.37-.27,4.92-1.34,7.12-1.27,1.04-2.75,1.79-4.13,2.68-1.2,1.01-2.33,2.09-3.42,3.21-1.4,1.49-2.73,3.03-4.29,4.35-.96,.75-1.93,1.48-2.91,2.21-.33,1.34-.67,2.68-.98,4.03l-.21,1.02-.2,.99c-.23-2.56-2.2-6.09 .73-7.78 4.63-3.44 8.01-8.24 12.76-11.53 2.23-1.3 1.73-4.14 2.15-6.3z"/>
<path fill="#92ace1" d="m34.5,0h7.34c-.25,1.42-.41,2.87-.87,4.24-2.43,2.49-5.98,3.89-7.57,7.17-1.83,3.43-4.56,6.21-7.59,8.59 2.25,2.23 5.09,4.14 6.42,7.11 .71,3.35-2.89,4.36-5.43,4.68 1.43-1.22 2.86-2.43 4.32-3.61-2.74-4.07-5.7-8.02-9.8-10.82 1.56-1.32 2.89-2.86 4.29-4.35 .25,.77 .77,2.32 1.02,3.09 2.75-.81 4.62-2.73 5.48-5.45-.77-.22-2.31-.64-3.08-.85 1.38-.89 2.86-1.64 4.13-2.68 1.07-2.2 .98-4.75 1.34-7.12z"/>
<path fill="#638de2" d="m41.84,0h3.57c-.07,1.97-.14,3.94-.2,5.91-4.77,2-9.37,5.08-11.31,10.11-2.55,4.15-.31,8.91-.61,13.36-1.2,3.41-5.55,3.95-8.56,2.9-3.71-1.01-5.79-4.52-7.51-7.66l.21-1.02c3.38,2.42 6.51,5.18 9.37,8.19 2.54-.32 6.14-1.33 5.43-4.68-1.33-2.97-4.17-4.88-6.42-7.11 3.03-2.38 5.76-5.16 7.59-8.59 1.59-3.28 5.14-4.68 7.57-7.17 .46-1.37 .62-2.82 .87-4.24z"/>
<path opacity=".75" fill="#3a5284" d="m45.41,0h1.99c.52,10.25-1.06,20.48-.36,30.72 .76,.1 2.28,.3 3.04,.4 1.29,.16 2.59,.3 3.89,.43-1.99,.73-4.04,1.29-6.08,1.89l-.86,.26c-3.29-7.6-1.18-16.03-1.87-24.02 0-1.26 .02-2.52 .05-3.77 .06-1.97 .13-3.94 .2-5.91z"/>
<path opacity=".42" fill="#1f2b4a" d="m47.4,0h2.88c-.3,9.62-.83,19.24-1.07,28.86 1.13,.03 2.27,.06 3.41,.09-.83,.75-1.69,1.46-2.54,2.17-.76-.1-2.28-.3-3.04-.4-.7-10.24 .88-20.47 .36-30.72z"/>
<path fill="#4a71c8" d="m33.9,16.02c1.94-5.03 6.54-8.11 11.31-10.11-.03,1.25-.05,2.51-.05,3.77-7.72,5.25-7.08,15.57-11.77,22.75-3.15,2.48-7.58,2.23-11.35,3.08 .49,1.38 1,2.74 1.5,4.11-2.36-.16-4.71-.41-7.06-.63-1.01,2.78-1.99,5.56-2.95,8.35-3.7,.23-5.86-2.84-7.8-5.48-1.91-.04-3.82-.08-5.73-.09v-1.01c2.38-.1 4.76-.21 7.15-.35 1.01-2.02 1.82-4.2 3.35-5.9 1.73-1.46 3.88-2.28 5.88-3.27 .22-1.88 .43-3.76 .64-5.63l.2-.99c1.72,3.14 3.8,6.65 7.51,7.66 3.01,1.05 7.36,.51 8.56-2.9 .3-4.45-1.94-9.21 .61-13.36z"/>
<path fill="#b7cbeb" d="m25.61,13.01c1.09-1.12 2.22-2.2 3.42-3.21 .77,.21 2.31,.63 3.08,.85-.86,2.72-2.73,4.64-5.48,5.45-.25-.77-.77-2.32-1.02-3.09z"/>
<path fill="#3558a1" d="m33.39,32.43c4.69-7.18 4.05-17.5 11.77-22.75 .69,7.99-1.42,16.42 1.87,24.02-1.6,2.36-2.04,6.24-5.32,6.81-2.07,.54-4.19,.82-6.29,1.14-.41,4.88-1.07,9.74-1.5,14.61-.55-5.73 .36-11.61-.94-17.25-2.57-2.09-6.25-1.93-8.79,.08l-.65,.53c-.5-1.37-1.01-2.73-1.5-4.11 3.77-.85 8.2-.6 11.35-3.08z"/>
<path opacity=".27" fill="#231e30" d="m65.07,14.09c3.19-1.31 6.81-.85 10.16-.51 2.42,.45 5.85,.88 6.42,3.82 1.07,4.11 .65,8.4 .63,12.6-.31,10 .22,20.01-.39,30-.07,2.54-.26,5.14 .35,7.63 2.36,1.83 5.26,2.78 7.66,4.55 1.84,2.99 .68,7.6-2.7,8.97-3.77,1.23-7.89,.2-11.7,1.28-.41,.72-1.25,2.14-1.66,2.85 5.95,1.6 12.15,1.31 18.23,.98-5.99,1.77-12.3,1.48-18.39,.39-.28-1.66-.55-3.31-.89-4.95 4.23-.61 8.53-.52 12.73-1.27 2.95-.66 4.15-4.34 3.12-6.96-2.1-2.33-5.25-3.31-8.24-3.87-1.28-9.49-.44-19.07-.67-28.6-.2-6.14 .42-12.25 .77-18.37 .06-2.34 .2-5.49-2.37-6.61-3.75-1.33-7.84-.59-11.72-.52-.44,.9-.87,1.8-1.31,2.7-1.25,3.41-4.17,5.58-7.06,7.54-1.88,1.51-2.76,3.85-4.07,5.81-1.3-.13-2.6-.27-3.89-.43 .85-.71 1.71-1.42 2.54-2.17 4.39-4.75 8.37-9.86 12.45-14.86z"/>
<path opacity=".73" fill="#392362" d="m66.41,15.5c3.88-.07 7.97-.81 11.72,.52 2.57,1.12 2.43,4.27 2.37,6.61-.35,6.12-.97,12.23-.77,18.37 .23,9.53-.61,19.11 .67,28.6-.48-.08-1.43-.24-1.9-.31l-.95-.17c-.13-1.3-.23-2.61-.29-3.92 .23-13.09-.17-26.2 .3-39.29 .24-2.64 .19-5.29 .34-7.93-1.46-.14-2.91-.26-4.36-.35-2.83-.16-5.66,.08-8.44,.57 .44-.9 .87-1.8 1.31-2.7z"/>
<path fill="#a3c1f1" d="m18.41,19.57c.98-.73 1.95-1.46 2.91-2.21 4.1,2.8 7.06,6.75 9.8,10.82-1.46,1.18-2.89,2.39-4.32,3.61-2.86-3.01-5.99-5.77-9.37-8.19 .31-1.35 .65-2.69 .98-4.03z"/>
<path opacity=".98" fill="#9879c5" d="m58.04,25.74c2.89-1.96 5.81-4.13 7.06-7.54 2.78-.49 5.61-.73 8.44-.57-.98,4.68-4.89,7.65-7.65,11.25-2.05,2.63-4.61,4.79-7.34,6.69 2.47,2.14 5.56,3.88 7.27,6.69 .11,2.69-1.53,5.08-2.48,7.5l-1.04-.04c-6.84-.51-11.72-5.67-15.59-10.81 .43-1.62 .89-3.23 1.27-4.87 .13,.35 .38,1.06 .51,1.41 1.9,4.41 4.74,8.56 8.69,11.39 1.92,1.54 5.18,.81 6.32-1.34 .28-1.27 .36-2.58 .49-3.88-3.72-1.83-7.06-4.38-9.5-7.76 1.09-.7 2.15-1.45 3.22-2.19 1.5-.45 3.04-.8 4.47-1.46 .86-1.19 1.5-2.52 2.23-3.79-1.84-.26-3.69-.52-5.54-.69l-.83,.01z"/>
<path fill="#794bc5" d="m73.54,17.63c1.45,.09 2.9,.21 4.36,.35-1.49,4.16-5.1,6.77-7.78,10.06-2.71,7.05 .15,16.62-6.78,21.72 .95-2.42 2.59-4.81 2.48-7.5-1.71-2.81-4.8-4.55-7.27-6.69 2.73-1.9 5.29-4.06 7.34-6.69 2.76-3.6 6.67-6.57 7.65-11.25z"/>
<path fill="#643da8" d="m77.9,17.98c-.15,2.64-.1,5.29-.34,7.93-1.43,1.32-3.51,2.4-3.82,4.52-1.22,6.34-1.42,13.37-5.65,18.62-2.91,1.81-6.37,2.48-9.57,3.64 3.2,.69 6.51,1.08 9.56,2.34 2.92,2.43 4.48,6.03 6.85,8.95-4.45-1.93-7.28-6.18-11.61-8.23-4.1-1.38-8.62-2.38-12.92-1.54-2.68,1.64-4.4,4.41-6.97,6.17-1.92,.3-3.88,.13-5.81,.05 2.75-4.4 5.84-8.71 7.18-13.81 5.78,1.29 11.52,3.05 17.5,3.1l1.04,.04c6.93-5.1 4.07-14.67 6.78-21.72 2.68-3.29 6.29-5.9 7.78-10.06z"/>
<path opacity=".71" fill="#8a80a2" d="m53.97,31.55c1.31-1.96 2.19-4.3 4.07-5.81l.83-.01c-.4,1.98-.79,3.96-1.16,5.94-1.07,.74-2.13,1.49-3.22,2.19-1.98,.62-3.99,1.09-6,1.59-.13-.35-.38-1.06-.51-1.41l-.09-.6c2.04-.6 4.09-1.16 6.08-1.89z"/>
<path fill="#bba5de" d="m58.87,25.73c1.85,.17 3.7,.43 5.54,.69-.73,1.27-1.37,2.6-2.23,3.79-1.43,.66-2.97,1.01-4.47,1.46 .37-1.98 .76-3.96 1.16-5.94z"/>
<path fill="#543289" d="m73.74,30.43c.31-2.12 2.39-3.2 3.82-4.52-.47,13.09-.07,26.2-.3,39.29-.59-.3-1.75-.92-2.33-1.22-2.37-2.92-3.93-6.52-6.85-8.95-3.05-1.26-6.36-1.65-9.56-2.34 3.2-1.16 6.66-1.83 9.57-3.64 4.23-5.25 4.43-12.28 5.65-18.62z"/>
<path fill="#4963c1" d="m47.03,33.7l.86-.26 .09,.6c-.38,1.64-.84,3.25-1.27,4.87-.68,2.56-1.23,5.15-1.91,7.71-1.34,5.1-4.43,9.41-7.18,13.81-.75-.05-2.24-.15-2.99-.19-.15-.36-.45-1.09-.6-1.45-.02-.63-.08-1.89-.11-2.53 .43-4.87 1.09-9.73 1.5-14.61 2.1-.32 4.22-.6 6.29-1.14 3.28-.57 3.72-4.45 5.32-6.81z"/>
<path fill="#bca4e1" d="m48.49,35.45c2.01-.5 4.02-.97 6-1.59 2.44,3.38 5.78,5.93 9.5,7.76-.13,1.3-.21,2.61-.49,3.88-1.14,2.15-4.4,2.88-6.32,1.34-3.95-2.83-6.79-6.98-8.69-11.39m7.54,6.5c.42,1.36 .86,2.7 1.28,4.06 1.86-.22 3.72-.37 5.6-.33-.53-1.3-.32-3.07-1.69-3.89-1.53-1.19-3.51,.01-5.19,.16z"/>
<path opacity=".6" fill="#1c2f5c" d="m24.19,39.09c2.54-2.01 6.22-2.17 8.79-.08 1.3,5.64 .39,11.52 .94,17.25 .03,.64 .09,1.9 .11,2.53-.57,1.34-1.2,2.66-1.92,3.93l-.8,.25c.73-6.75 1.1-13.58 .25-20.35-.34,6.13 .08,12.32-1.04,18.39-.16-5.35 .25-10.71 .03-16.05 .05-1.81-1.1-4.54-3.28-3.26-.87,1.32-1.54,2.76-2.26,4.15-.15-1.84-.43-3.67-.67-5.51l-.15-1.25z"/>
<path fill="#83a0d1" d="m16.48,38.99c2.35,.22 4.7,.47 7.06,.63-.28,.34-.85,1.02-1.13,1.36-1.76,.37-3.53,.66-5.3,.97 .52,1.54 1.06,3.08 1.59,4.62-1.42,.7-2.88,1.34-4.33,1.99-.24,2.75-.49,5.51-.55,8.28-2.78-.86-5.02-2.68-6.52-5.17-1.53-2.71-4.64-3.48-7.3-4.6v-5.3c1.91,.01 3.82,.05 5.73,.09 1.94,2.64 4.1,5.71 7.8,5.48 .96-2.79 1.94-5.57 2.95-8.35z"/>
<path fill="#7454c1" d="m46.71,38.91c3.87,5.14 8.75,10.3 15.59,10.81-5.98-.05-11.72-1.81-17.5-3.1 .68-2.56 1.23-5.15 1.91-7.71z"/>
<path opacity=".7" fill="#738494" d="m23.54,39.62l.65-.53 .15,1.25c-.32,1.59-.58,3.22-1.3,4.68-1.79,2.24-4.52,3.44-6.45,5.52-1.56,2.94-1.87,6.36-2.51,9.59-.02-.38-.07-1.13-.09-1.51-.04-.44-.13-1.33-.17-1.78 .06-2.77 .31-5.53 .55-8.28 1.45-.65 2.91-1.29 4.33-1.99 2.49-.83 2.91-3.43 3.71-5.59 .28-.34 .85-1.02 1.13-1.36z"/>
<path fill="#b2c4d9" d="m17.11,41.95c1.77-.31 3.54-.6 5.3-.97-.8,2.16-1.22,4.76-3.71,5.59-.53-1.54-1.07-3.08-1.59-4.62z"/>
<path opacity=".49" fill="#3b495d" d="m24.34,40.34c.24,1.84 .52,3.67 .67,5.51-1.22,2.99-4.62,3.86-7.23,5.21-.36,4.03 .1,8.39-1.98,12.03-5.13,1.47-10.55,.67-15.8,.54v-1.28c4.63,.2 9.27,.15 13.87-.4 .06-.45 .16-1.36 .21-1.82 .64-3.23 .95-6.65 2.51-9.59 1.93-2.08 4.66-3.28 6.45-5.52 .72-1.46 .98-3.09 1.3-4.68z"/>
<path fill="#d4d0e9" d="m56.03,41.95c1.68-.15 3.66-1.35 5.19-.16 1.37,.82 1.16,2.59 1.69,3.89-1.88-.04-3.74,.11-5.6,.33-.42-1.36-.86-2.7-1.28-4.06z"/>
<path opacity=".36" fill="#35394f" d="m31.56,42.62c.85,6.77 .48,13.6-.25,20.35-2.22,.81-4.9,.95-6.65,2.69-1.04,2.04-1.1,4.39-1.33,6.62l-.03,1.02c-1.67-3.06-.91-6.51 .02-9.66 2.37-.95 4.79-1.79 7.2-2.63 1.12-6.07 .7-12.26 1.04-18.39z"/>
<path fill="#577dc8" d="m0,47.07c2.66,1.12 5.77,1.89 7.3,4.6 1.5,2.49 3.74,4.31 6.52,5.17 .04,.45 .13,1.34 .17,1.78-5.07,.82-7.9-3.78-10.87-6.99-1.06,1.18-2.12,2.35-3.12,3.57v-8.13z"/>
<path fill="#365da5" d="m0,55.2c1-1.22 2.06-2.39 3.12-3.57 2.97,3.21 5.8,7.81 10.87,6.99 .02,.38 .07,1.13 .09,1.51-.05,.46-.15,1.37-.21,1.82-4.6,.55-9.24,.6-13.87,.4v-7.15z"/>
<path fill="#7656b1" d="m50.4,54.21c4.3-.84 8.82,.16 12.92,1.54 4.33,2.05 7.16,6.3 11.61,8.23 .58,.3 1.74,.92 2.33,1.22 .06,1.31 .16,2.62 .29,3.92l.14,1.04c-2.75-1.81-5.59-3.56-7.91-5.92-3.09-2.96-5.86-6.79-10.27-7.81-3.29-.7-7.38-1.6-10.09,1-3.17,2.88-6.8,5.4-9.32,8.91-.85,4.72 3.44,8.51 6.71,11.27-1.35-.11-2.7-.21-4.05-.3-3.46-5.31-5.52-11.33-8.13-17.07 .75,.04 2.24,.14 2.99,.19 1.93,.08 3.89,.25 5.81-.05 2.57-1.76 4.29-4.53 6.97-6.17z"/>
<path fill="#957fbb" d="m49.42,57.43c2.71-2.6 6.8-1.7 10.09-1 4.41,1.02 7.18,4.85 10.27,7.81 2.32,2.36 5.16,4.11 7.91,5.92 .34,.53 1.03,1.6 1.37,2.13-2.16-.25-4.44-.03-6.51-.81-4.81-3.52-7.13-9.59-12.26-12.76-3.09-1.67-7.46-2.38-10.16,.39-2.96,2.84-6.88,5.21-8.75,8.88 1.51,3.52 3.97,6.52 6.33,9.49l-.9,.13c-3.27-2.76-7.56-6.55-6.71-11.27 2.52-3.51 6.15-6.03 9.32-8.91z"/>
<path fill="#b1a1d0" d="m50.13,59.11c2.7-2.77 7.07-2.06 10.16-.39 5.13,3.17 7.45,9.24 12.26,12.76 2.07,.78 4.35,.56 6.51,.81 2.78,.15 5.07,1.78 7.32,3.23-.4,.68-1.21,2.04-1.61,2.73-3.76-.09-7.51-.35-11.25-.58-.55-1.5-1.01-3.05-1.81-4.43-1.7-.76-3.52-1.21-5.27-1.83-.81-.56-1.59-1.17-2.35-1.8-2.11-3.98-3.52-10.27-9.07-10.35-5.02,.83-8.32,5.26-11.86,8.51 2.6,3.39 4.76,7.12 5.89,11.27-.34-.39-1.01-1.17-1.34-1.56-2.36-2.97-4.82-5.97-6.33-9.49 1.87-3.67 5.79-6.04 8.75-8.88z"/>
<path fill="#6c4395" d="m34.03,58.79c.15,.36 .45,1.09 .6,1.45 2.61,5.74 4.67,11.76 8.13,17.07-4.86-.26-9.72,.01-14.58-.14-1.15-1.28-2.3-2.56-3.53-3.77l.85,.19c2.35-.25 5.25-.18 6.81-2.29 1.54-2.02 .37-4.67 .15-6.92-.09-.42-.26-1.24-.35-1.66 .72-1.27 1.35-2.59 1.92-3.93z"/>
<path fill="#c8c0dc" d="m43.16,67.77c3.54-3.25 6.84-7.68 11.86-8.51 5.55,.08 6.96,6.37 9.07,10.35-1.99,1.74-3.98,3.52-5.67,5.57-.32-4.22-1.16-8.39-2.65-12.35-3.16,.62-7.09,1.09-8.5,4.5 .32,5.3 2.97,10.08 5.31,14.73-.7,.46-1.4,.91-2.11,1.35-.44-1.47-.91-2.93-1.42-4.37-1.13-4.15-3.29-7.88-5.89-11.27z"/>
<path opacity=".66" fill="#837c92" d="m24.66,65.66c1.75-1.74 4.43-1.88 6.65-2.69l.8-.25c.09,.42 .26,1.24 .35,1.66-1.21,.32-2.41,.65-3.61,1-2.5,1.19-2.96,3.72-3.05,6.25-.08,.49-.23,1.47-.3,1.96l-.85-.19c-.33-.28-.99-.84-1.32-1.12 .23-2.23 .29-4.58 1.33-6.62z"/>
<path fill="#e3e8ed" d="m47.27,67.33c1.41-3.41 5.34-3.88 8.5-4.5 1.49,3.96 2.33,8.13 2.65,12.35-1.92,2.32-3.67,4.78-5.84,6.88-2.34-4.65-4.99-9.43-5.31-14.73z"/>
<path opacity=".42" fill="#233452" d="m105.74,70.86c3.35-1.95 5.65-5.06 7.38-8.46 2.78,.27 6.58-.62 8.26,2.28 1.46,3.24 .89,6.91 .74,10.34-.74,6.71 .39,13.45-.43,20.16-2.83,1.27-5.64,2.58-8.48,3.85-.57,.25-1.71,.76-2.28,1.02 .31-.88 .62-1.76 .93-2.64 2.93-1.81 7.86-3.05 7.51-7.36 .02-6.78-.2-13.56 .54-20.32-.12-1.55 .32-3.55-1.17-4.59-1.46-1.32-3.91-1.28-5.03,.46-3.61,4.22-7.78,7.89-11.7,11.81 .96-2.32 1.29-5.25 3.73-6.55z"/>
<path opacity=".36" fill="#1d1135" d="m21.77,76.44c-.75-4.24-1.32-9.19 1.55-12.8-.93,3.15-1.69,6.6-.02,9.66 1.13,2.47 2.64,5.62 5.72,5.87 5.35,.52 10.79,.32 16.09-.54 .51,2.41 1.17,4.78 1.82,7.16-6.36,2.84-13.46,1.68-20.2,2.03-2.91,.06-6.24-.56-8.76,1.22-2.14,1.62-1.73,5.19 .66,6.33 3.2,1.26 6.76,1.06 10.1,.61 .76,2.22 1.62,4.41 2.71,6.49-1.38-1.27-2.64-2.68-4.18-3.76-3.53-.93-7.35,.2-10.81-1.11-5.03-2.76-3.28-12.16 2.82-12.06 8.47-.23 16.92,1.62 25.4,.38 .27-.87 .82-2.63 1.09-3.5-6.23-2.33-12.85,.1-19.21-1.15-2.47-.37-4.39-2.4-4.78-4.83z"/>
<path opacity=".66" fill="#727e96" d="m113.71,65.6c1.12-1.74 3.57-1.78 5.03-.46 1.49,1.04 1.05,3.04 1.17,4.59-.6,.69-1.18,1.39-1.75,2.1-.05-1.64-.11-3.28-.16-4.92-.69-.04-2.07-.13-2.76-.18-1.85,2.27-3.7,4.54-5.87,6.51-1.33,1.22-2.7,2.42-3.95,3.72-.75,1.05-1.44,2.14-2.13,3.23-2,1.35-4.63,2.3-5.61,4.7-.71,1.46-1.34,2.96-1.99,4.45-.43,.13-1.27,.38-1.7,.51 .22-1.64 .44-3.28 .73-4.91 .92-3.74 4.8-5.06 7.29-7.53 3.92-3.92 8.09-7.59 11.7-11.81z"/>
<path opacity=".98" fill="#997db7" d="m28.85,65.38c1.2-.35 2.4-.68 3.61-1 .22,2.25 1.39,4.9-.15,6.92-1.56,2.11-4.46,2.04-6.81,2.29 .07-.49 .22-1.47 .3-1.96 2.09-1.02 3.96-2.4 5.59-4.05-.63-.55-1.9-1.65-2.54-2.2z"/>
<path fill="#c7bcda" d="m25.8,71.63c.09-2.53 .55-5.06 3.05-6.25 .64,.55 1.91,1.65 2.54,2.2-1.63,1.65-3.5,3.03-5.59,4.05z"/>
<path fill="#87a4d2" d="m109.37,73.24c2.17-1.97 4.02-4.24 5.87-6.51 .69,.05 2.07,.14 2.76,.18 .05,1.64 .11,3.28 .16,4.92-2.03,.97-3.89,2.31-4.99,4.32-2.29,3.99-6.49,6.61-8.08,11.04-.89,1.64-1.35,4.09-3.52,4.48-2.27,.72-4.07-1.33-5.88-2.33 .65-1.49 1.28-2.99 1.99-4.45 .17,1.46 .38,2.92 .61,4.38 1.79-.73 4.51-.58 5.09-2.9 .42-2.04 .06-4.13-.09-6.18 .69-1.09 1.38-2.18 2.13-3.23 .28,.8 .85,2.41 1.14,3.21 1.47-.95 3.99-1.11 4.2-3.26-.2-1.31-.88-2.47-1.39-3.67z"/>
<path opacity=".72" fill="#827a96" d="m77.55,69.12l.95,.17c2.95,1.39 6.01,2.82 8.32,5.17 1.31,1.93-.25,4.63-2.45,4.82-4.09,.39-8.22,.22-12.31,.66l-.44-.88 .05-.92 .83-.48 1.02,.01c3.74,.23 7.49,.49 11.25,.58 .4-.69 1.21-2.05 1.61-2.73-2.25-1.45-4.54-3.08-7.32-3.23-.34-.53-1.03-1.6-1.37-2.13l-.14-1.04z"/>
<path opacity=".46" fill="#564f5f" d="m78.5,69.29c.47,.07 1.42,.23 1.9,.31 2.99,.56 6.14,1.54 8.24,3.87 1.03,2.62-.17,6.3-3.12,6.96-4.2,.75-8.5,.66-12.73,1.27-.18-.44-.54-1.32-.73-1.76 4.09-.44 8.22-.27 12.31-.66 2.2-.19 3.76-2.89 2.45-4.82-2.31-2.35-5.37-3.78-8.32-5.17z"/>
<path fill="#adc0eb" d="m58.42,75.18c1.69-2.05 3.68-3.83 5.67-5.57 .76,.63 1.54,1.24 2.35,1.8-4.47,4.94-9.34,9.57-12.89,15.26-.55,.02-1.66,.06-2.21,.08-.22-.85-.44-1.69-.66-2.54l-.21-.8c.71-.44 1.41-.89 2.11-1.35 2.17-2.1 3.92-4.56 5.84-6.88z"/>
<path opacity=".78" fill="#466499" d="m118.16,71.83c.57-.71 1.15-1.41 1.75-2.1-.74,6.76-.52,13.54-.54,20.32 .35,4.31-4.58,5.55-7.51,7.36-.15-.7-.46-2.11-.62-2.82 2.36-.29 4.54-1.27 6.69-2.23-.42-6.59-1.13-13.23-.22-19.81l.45-.72z"/>
<path opacity=".76" fill="#4a3272" d="m23.33,72.28c.33,.28 .99,.84 1.32,1.12 1.23,1.21 2.38,2.49 3.53,3.77 4.86,.15 9.72-.12 14.58,.14 1.35,.09 2.7,.19 4.05,.3l-.8,.48-.9,.54c-5.3,.86-10.74,1.06-16.09,.54-3.08-.25-4.59-3.4-5.72-5.87l.03-1.02z"/>
<path fill="#8ea3e3" d="m53.55,86.67c3.55-5.69 8.42-10.32 12.89-15.26 1.75,.62 3.57,1.07 5.27,1.83 .8,1.38 1.26,2.93 1.81,4.43l-1.02-.01c-5.07-.59-10.15,1.1-13.74,4.75-2.47,5.87-9.07,7.81-12.58,12.8-1.09,1.46-2.17,2.92-3.19,4.43 1.79,1.97 3.57,3.96 5.08,6.16l.48,.71c.76,4.04 3.97,6.56 7.21,8.67-.33,1.23-.65,2.46-.98,3.68-3.48-2.01-5.76-5.37-8.52-8.18-.09-1.74 .22-3.6-.53-5.23-1.57-.72-3.25-1.11-4.91-1.54-.53-.13-1.58-.41-2.11-.54 1.49-4.47 4.03-8.48 7.46-11.72-1.43-.33-2.86-.66-4.29-.94 2.33-.42 4.76-.78 6.83-2.01 .87-1.39 1.43-2.95 1.97-4.49 .22,.85 .44,1.69 .66,2.54 .55-.02 1.66-.06 2.21-.08z"/>
<path fill="#658add" d="m113.17,76.15c1.1-2.01 2.96-3.35 4.99-4.32l-.45,.72c-2.83,4.39-5.42,8.93-7.92,13.52 2.16,1.02 4.34,1.94 6.59,2.71 .47,1.21 .98,2.41 1.55,3.58-2.15,.96-4.33,1.94-6.69,2.23-2.58,.09-5.55-.89-7.74,.93-2.27,1.54-4.16,3.54-6.21,5.34-.74-2.34-.4-5.93-3.32-6.74-1.28-.53-2.63-.85-3.98-1.13 .27-.59 .82-1.75 1.09-2.33 .98-.25 1.95-.52 2.91-.81 .43-.13 1.27-.38 1.7-.51 1.81,1 3.61,3.05 5.88,2.33 2.17-.39 2.63-2.84 3.52-4.48 1.59-4.43 5.79-7.05 8.08-11.04z"/>
<path fill="#527bc5" d="m109.79,86.07c2.5-4.59 5.09-9.13 7.92-13.52-.91,6.58-.2,13.22 .22,19.81-.57-1.17-1.08-2.37-1.55-3.58-2.25-.77-4.43-1.69-6.59-2.71z"/>
<path fill="#b2c2e9" d="m105.42,76.96c1.25-1.3 2.62-2.5 3.95-3.72 .51,1.2 1.19,2.36 1.39,3.67-.21,2.15-2.73,2.31-4.2,3.26-.29-.8-.86-2.41-1.14-3.21z"/>
<path fill="#5d8dec" d="m58.76,82.41c3.59-3.65 8.67-5.34 13.74-4.75l-.83,.48c-.42,.25-1.27,.74-1.69,.99-2.49,1.26-5.12,2.22-7.73,3.21-.1,.66-.29,1.96-.39,2.62 4.75,3.53 9.64,7.28 15.53,8.64 4.18,.96 8.43-.12 12.6-.61 1.35,.28 2.7,.6 3.98,1.13 2.92,.81 2.58,4.4 3.32,6.74-2.43,1.62-5.31,2.38-8.22,2.35-4.52,0-9.16,.25-13.58-.87-2.64-1.3-4.63-3.62-7.26-4.94-3.44,2.13-6.26,5.41-10.37,6.3-2.93,.65-5.69,1.89-7.63,4.26-.42-.36-1.26-1.09-1.68-1.45l-.48-.71c5.34-4.81 13.77-5.7 17.44-12.36 1.47-2.63-1.86-4.11-3.41-5.58-2-1.18-2.81-3.31-3.34-5.45z"/>
<path opacity=".74" fill="#8587a6" d="m46.81,77.61l.9-.13c.33,.39 1,1.17 1.34,1.56 .51,1.44 .98,2.9 1.42,4.37l.21,.8c-.54,1.54-1.1,3.1-1.97,4.49-2.07,1.23-4.5,1.59-6.83,2.01-3.05,.01-6.1,.09-9.15,.12l.13-1.01 .09-1.02c4.39,.03 8.9,.34 13.19-.74 3.39-2.35 1.2-7.02-.13-9.97l.8-.48z"/>
<g fill="#454d59">
<path opacity=".39" d="m45.11,78.63l.9-.54c1.33,2.95 3.52,7.62 .13,9.97-4.29,1.08-8.8,.77-13.19,.74-2.08-.31-4.15-.68-6.22-.98 6.74-.35 13.84,.81 20.2-2.03-.65-2.38-1.31-4.75-1.82-7.16z"/>
<path opacity=".39" d="m28.73,95.98l.79-.35c1.5,2.68 3.08,5.39 5.47,7.39 6.64,5.72 12.32,12.48 19.27,17.86 2.3,1.62 2.3,4.7 3.18,7.12h-2.63c-.55-1.7-1.04-3.41-1.54-5.12-5.02-2.56-7.25-8.14-12.08-10.97-2.91-3.51-5.95-6.84-9.75-9.44-1.09-2.08-1.95-4.27-2.71-6.49z"/>
</g>
<path fill="#4a80d7" d="m62.25,82.34c2.61-.99 5.24-1.95 7.73-3.21-.51,2.89-1.36,6.11 .03,8.88 1.13,2.17 3.79,2.47 5.96,2.61 5.03,.22 10.08,.27 15.11,.04-.27,.58-.82,1.74-1.09,2.33-4.17,.49-8.42,1.57-12.6,.61-5.89-1.36-10.78-5.11-15.53-8.64 .1-.66 .29-1.96 .39-2.62z"/>
<path opacity=".76" fill="#3e64a8" d="m69.98,79.13c.42-.25 1.27-.74 1.69-.99l-.05,.92c.16,3.14-1.76,8.64 2.63,9.57 5.15,1.1 10.53,.92 15.72,.23 1.98-.12 3.33-1.64 4.4-3.14l.35-.78c-.29,1.63-.51,3.27-.73,4.91-.96,.29-1.93,.56-2.91,.81-5.03,.23-10.08,.18-15.11-.04-2.17-.14-4.83-.44-5.96-2.61-1.39-2.77-.54-5.99-.03-8.88z"/>
<path opacity=".46" fill="#213a65" d="m71.62,79.06l.44,.88c.19,.44 .55,1.32 .73,1.76 .34,1.64 .61,3.29 .89,4.95 6.09,1.09 12.4,1.38 18.39-.39 .58-.14 1.73-.4 2.3-.54-1.07,1.5-2.42,3.02-4.4,3.14-5.19,.69-10.57,.87-15.72-.23-4.39-.93-2.47-6.43-2.63-9.57z"/>
<path fill="#aabdea" d="m97.68,84.89c.98-2.4 3.61-3.35 5.61-4.7 .15,2.05 .51,4.14 .09,6.18-.58,2.32-3.3,2.17-5.09,2.9-.23-1.46-.44-2.92-.61-4.38z"/>
<path fill="#7aa3f8" d="m46.18,95.21c3.51-4.99 10.11-6.93 12.58-12.8 .53,2.14 1.34,4.27 3.34,5.45 1.55,1.47 4.88,2.95 3.41,5.58-3.67,6.66-12.1,7.55-17.44,12.36-1.51-2.2-3.29-4.19-5.08-6.16 1.02-1.51 2.1-2.97 3.19-4.43z"/>
<path opacity=".74" fill="#523483" d="m17.97,89.04c2.52-1.78 5.85-1.16 8.76-1.22 2.07,.3 4.14,.67 6.22,.98l-.09,1.02c-4.5-.26-9.03-.1-13.5,.48 0,1.06 .01,2.12 .02,3.18 3.67,.51 7.33,1.15 10.98,1.83l-.84,.32-.79,.35c-3.34,.45-6.9,.65-10.1-.61-2.39-1.14-2.8-4.71-.66-6.33z"/>
<path opacity=".98" fill="#7953ad" d="m19.36,90.3c4.47-.58 9-.74 13.5-.48l-.13,1.01c-.27,1.39-.6,2.76-.94,4.13-.36,.09-1.07,.27-1.43,.35-3.65-.68-7.31-1.32-10.98-1.83-.01-1.06-.02-2.12-.02-3.18z"/>
<path fill="#b7b9e4" d="m32.73,90.83c3.05-.03 6.1-.11 9.15-.12 1.43,.28 2.86,.61 4.29,.94-3.43,3.24-5.97,7.25-7.46,11.72-3.9-1.15-5.76-4.83-6.92-8.41 .34-1.37 .67-2.74 .94-4.13z"/>
<path fill="#3c72d6" d="m103.5,95.52c2.19-1.82 5.16-.84 7.74-.93-2.88,1.07-6.38,1.6-8.16,4.41-2.72,3.77-5.69,8.85-11.03,8.63-7.69-.65-15.16-3.57-22.96-2.98-3.85,.56-7.6,2.58-9.99,5.68-.36,2.67 .7,5.26 1.79,7.64-3.28-3.61-6.87-6.94-10.66-10.01 1.94-2.37 4.7-3.61 7.63-4.26 4.11-.89 6.93-4.17 10.37-6.3 2.63,1.32 4.62,3.64 7.26,4.94 4.42,1.12 9.06,.87 13.58,.87 2.91,.03 5.79-.73 8.22-2.35 2.05-1.8 3.94-3.8 6.21-5.34z"/>
<path opacity=".72" fill="#828da3" d="m30.36,95.31c.36-.08 1.07-.26 1.43-.35 1.16,3.58 3.02,7.26 6.92,8.41 .53,.13 1.58,.41 2.11,.54 .41,3.25 2.38,5.65 5.44,6.77 2.76,2.81 5.04,6.17 8.52,8.18 1.14,.69 2.31,1.31 3.49,1.93-.01,2.4-.02,4.81 0,7.21h-.83c-.88-2.42-.88-5.5-3.18-7.12-6.95-5.38-12.63-12.14-19.27-17.86-2.39-2-3.97-4.71-5.47-7.39l.84-.32z"/>
<path fill="#2f60bb" d="m103.08,99c1.78-2.81 5.28-3.34 8.16-4.41 .16,.71 .47,2.12 .62,2.82-.31,.88-.62,1.76-.93,2.64-4.32,1.78-7.69,5.31-8.94,9.87-8.86-.22-17.74,.02-26.59-.33 1.6-.55 3.22-1.06 4.83-1.59-5.9-.57-12.42,1.23-15.66,6.54-.4,2.48-.01,4.99 .19,7.47-1.3-1.34-2.61-2.67-3.87-4.04-1.09-2.38-2.15-4.97-1.79-7.64 2.39-3.1 6.14-5.12 9.99-5.68 7.8-.59 15.27,2.33 22.96,2.98 5.34,.22 8.31-4.86 11.03-8.63z"/>
<path opacity=".55" fill="#102651" d="m110.93,100.05c.57-.26 1.71-.77 2.28-1.02-.72,2.1-1.39,4.47-3.49,5.63-3.23,1.87-4.94,5.22-7.19,8.03-2.02,.95-4.33,.78-6.51,.89-7.23-.05-14.46-.31-21.69-.08-.99,4.77-1.01,9.66-.69,14.5h-3.86c-.17-5.5 .39-10.98 .89-16.45 10.31-2.53 20.99,.58 31.32-1.63 1.25-4.56 4.62-8.09 8.94-9.87z"/>
<path fill="#b4c9e5" d="m40.82,103.91c1.66,.43 3.34,.82 4.91,1.54 .75,1.63 .44,3.49 .53,5.23-3.06-1.12-5.03-3.52-5.44-6.77z"/>
<path opacity=".98" fill="#6a8dc6" d="m48.55,106.51c.42,.36 1.26,1.09 1.68,1.45 3.79,3.07 7.38,6.4 10.66,10.01 1.26,1.37 2.57,2.7 3.87,4.04 .22,2 .45,3.99 .67,5.99h-1.93c-.69-1.81-1.29-3.65-1.89-5.49-1.11-.58-2.23-1.14-3.34-1.72-1.18-.62-2.35-1.24-3.49-1.93 .33-1.22 .65-2.45 .98-3.68-3.24-2.11-6.45-4.63-7.21-8.67z"/>
<path fill="#30569e" d="m64.57,114.54c3.24-5.31 9.76-7.11 15.66-6.54-1.61,.53-3.23,1.04-4.83,1.59 8.85,.35 17.73,.11 26.59,.33-10.33,2.21-21.01-.9-31.32,1.63-.5,5.47-1.06,10.95-.89,16.45h-4.35c-.22-2-.45-3.99-.67-5.99-.2-2.48-.59-4.99-.19-7.47z"/>
<path fill="#9ab1d7" d="m58.27,120.79c1.11,.58 2.23,1.14 3.34,1.72 .6,1.84 1.2,3.68 1.89,5.49h-5.23c-.02-2.4-.01-4.81 0-7.21z"/>
</svg>
