<svg width="210" xmlns="http://www.w3.org/2000/svg" height="210" viewBox="0 0 168 168">
<path opacity=".35" fill="#050506" d="m74.79,9.88c2.08-1.61 4.06-3.48 6.54-4.44 2.5-.73 4.61,1.44 5.95,3.26 3.12,4.36 2.3,10.03 2.95,15.06 .32,7 3.66,13.34 4.62,20.21 .65,4.31 1,8.67 .83,13.02-.11,4.48-2.83,8.24-4.72,12.12 5.88,3.8 13.03,4.83 19.28,7.93-2.84,.07-5.67,.27-8.51,.15-3.49-.87-6.55-2.99-10.1-3.7-2.83-.54-5.72-.62-8.59-.57-1-.72-2-1.44-3-2.16 2.57-3.05 5.77-5.42 8.87-7.88 3.45-2.84 3.82-7.88 2.3-11.84-2.96-8.67-.87-18.24-4.47-26.76-1.82-4.43-2.32-9.21-3.18-13.88-7.21-.74-11.2,6.01-16.32,9.72-5.94,4.06-11.47,8.65-17.32,12.84-2.98,1.97-5.64,4.37-8.27,6.79-2.84,2.69-6.68,3.88-9.81,6.17-2.86,2.05-5.47,4.43-8.44,6.34-4.44,1.98-8.56,4.69-12.01,8.12-1.63,1.65-3.01,3.87-2.67,6.29 .75,5.92 2.21,11.75 4.33,17.32 2.1,5.44 2.91,11.3 5.43,16.58 4.17,8.37 .04,17.8 1.98,26.59 .95,6.23 4.29,11.7 7.19,17.18 2.54,4.75 7.56,7.21 11.77,10.22 4.95,3.59 11.02,5.01 16.98,5.83 7.68,1.06 15.33-.83 22.81-2.38 13.79-3.82 26.52-10.75 40.31-14.55 6.67-.55 13.27-1.52 19.73-3.34 6.08-1.63 14.18-1.05 17.66-7.37 4.03-4.36 2.44-10.69 2.52-16.04 .99,3.5 3.19,7.07 1.98,10.8-1.38,4.6-3.77,9.43-8.34,11.58-6.19,3.66-13.59,3.56-20.31,5.63-5.85,1.84-12.25,.51-17.97,2.94-11.16,4.25-22.08,9.21-33.57,12.52-7.52,1.76-15.14,4.23-22.96,3.45-8.03-1.01-15.77-3.89-22.5-8.36-3.25-2.35-8.66-2.78-9.58-7.35-2.06-6.85-6.42-12.9-7.09-20.18-.71-5.38-1.71-10.82-.7-16.25 1.21-5.43-2.77-9.92-4.08-14.92-1.77-6.21-4.81-12.08-5.46-18.58-.39-4.11-1.95-7.97-2.67-12.01 .52-3.91 3.77-6.77 6.67-9.14 4.7-3.53 9.53-6.91 13.88-10.88 3.36-2.36 6.67-4.8 9.81-7.45 7.48-6.27 15.96-11.21 23.4-17.53 4.7-4.04 10.12-7.11 14.85-11.1z"/>
<path fill="#4b4e4c" d="m67.24,20.12c5.12-3.71 9.11-10.46 16.32-9.72-.45,2.47-.91,4.94-1.49,7.38-2.95,1.13-6.56,2.07-8.05,5.17-.71,1.96-.71,4.08-.99,6.13l-.14,.8c-1.89,.74-3.78,1.47-5.66,2.21-.89,2.77-1.82,5.51-2.91,8.2-1.15-2.45-2.98-4.48-5.05-6.19-2.81-1.76-6.2-1.54-9.35-1.14 5.85-4.19 11.38-8.78 17.32-12.84z"/>
<path opacity=".92" fill="#312e27" d="m83.56,10.4c.86,4.67 1.36,9.45 3.18,13.88 3.6,8.52 1.51,18.09 4.47,26.76 1.52,3.96 1.15,9-2.3,11.84-3.1,2.46-6.3,4.83-8.87,7.88 1,.72 2,1.44 3,2.16-1.4,.05-2.8,.08-4.2,.1-.42-.42-1.27-1.25-1.69-1.66 2.99-5.58 10.24-7.77 11.97-14.13 1.02-7.23-1.75-14.23-4.1-20.93-1.05-6.16-.74-12.56-2.95-18.52 .58-2.44 1.04-4.91 1.49-7.38z"/>
<path fill="#634626" d="m74.02,22.95c1.49-3.1 5.1-4.04 8.05-5.17 2.21,5.96 1.9,12.36 2.95,18.52 2.35,6.7 5.12,13.7 4.1,20.93-1.73,6.36-8.98,8.55-11.97,14.13-5.11,.71-7.25,5.73-9.42,9.73 1.79,2.48 4.79,3.23 7.67,3.63-1.74,1.68-3.53,3.31-5.4,4.84-2.24-.28-4.45-.71-6.66-1.15-2.42,2.86-5.64,5.78-5.22,9.88 1.96,.29 3.91,.59 5.86,.91-.18,.39-.54,1.16-.72,1.54-1.84-.15-3.68-.3-5.5-.6-.54-.2-1.63-.6-2.17-.79-.63-1.72-1.38-3.41-1.69-5.22 1.42-2.79 3.94-5.14 3.95-8.48-1.67-.31-3.34-.61-5-.94 2.04-.49 4.1-.89 6.15-1.31-.33-1.62-.13-3.66-1.69-4.71-2.63-.86-5.46-.47-8.18-.45-.49-1.07-.99-2.15-1.48-3.22 2.62-2.22 6.04-2.73 9.35-2.95 3.88,1.71 7.34,6.12 11.94,4.92 .32-4.63-1.18-9.17-.88-13.75 1.74-3.71 5.43-5.88 8.66-8.15 .98,3.21 1.42,6.84 4.1,9.16 2.81-2.29 6.44-4.5 7.15-8.35-.07-7.73-5.66-14.15-5.95-21.85-.12-3.95-.02-7.9-.42-11.84-1.59,.16-3.38-.34-4.81,.5-1.28,1.46-2.11,3.24-3.03,4.93l-.36,.68-.37,.76c.28-2.05 .28-4.17 .99-6.13z"/>
<path fill="#92692a" d="m76.79,22.71c1.43-.84 3.22-.34 4.81-.5 .4,3.94 .3,7.89 .42,11.84 .29,7.7 5.88,14.12 5.95,21.85-.71,3.85-4.34,6.06-7.15,8.35-2.68-2.32-3.12-5.95-4.1-9.16-3.23,2.27-6.92,4.44-8.66,8.15-.3,4.58 1.2,9.12 .88,13.75-4.6,1.2-8.06-3.21-11.94-4.92 .67-1.15 1.32-2.32 2.04-3.44 .59-.75 1.19-1.49 1.8-2.22 1.99-2.06 2.64-4.87 3.42-7.52 .8-2.43 1.95-4.73 2.85-7.12 .92,1.9 2.15,3.63 3.49,5.26 3.26-3.87 6.93-7.67 8.73-12.47 .9-4.47 .58-9.08 .41-13.6 .06-1.81-.85-3.37-1.77-4.85-1.41,.5-2.82,.99-4.21,1.53 .92-1.69 1.75-3.47 3.03-4.93z"/>
<path fill="#9d8136" d="m73.76,27.64c1.39-.54 2.8-1.03 4.21-1.53 .92,1.48 1.83,3.04 1.77,4.85 .17,4.52 .49,9.13-.41,13.6-1.8,4.8-5.47,8.6-8.73,12.47-1.34-1.63-2.57-3.36-3.49-5.26 .06-.46 .17-1.36 .22-1.82 4.02-2.73 8.77-5.05 11.21-9.45 1.69-4.74-2.33-8.87-5.14-12.18l.36-.68z"/>
<path fill="#7a8066" d="m73.03,29.08l.37-.76c2.81,3.31 6.83,7.44 5.14,12.18-2.44,4.4-7.19,6.72-11.21,9.45-1.07-.18-2.15-.36-3.22-.53-.78-2.85-1.1-5.81-.9-8.76l.74,.61c.83,1.13 1.58,2.31 2.33,3.49 3.81,.65 8.21-1.19 9.5-5.03 .58-3.16-1.72-5.85-3.17-8.42 .07-.36 .21-1.07 .28-1.43l.14-.8z"/>
<path fill="#537370" d="m67.23,32.09c1.88-.74 3.77-1.47 5.66-2.21-.07,.36-.21,1.07-.28,1.43-1.28,.85-2.6,1.63-3.93,2.4 .17,3.84 .17,7.9-2.4,11.05-.75-1.18-1.5-2.36-2.33-3.49l.37-.98c1.09-2.69 2.02-5.43 2.91-8.2z"/>
<path fill="#555957" d="m49.92,32.96c3.15-.4 6.54-.62 9.35,1.14-2.42,1.13-5.18,2.01-6.8,4.29-2.04,2.62-4.08,5.41-7.25,6.75-2.58,1.07-4.51,3.06-5.95,5.4-1.61,1.26-3.38,2.28-5.2,3.21-.35,.18-1.06,.53-1.41,.7l-.76,.41c-5.17,2.51-10,6.03-13.51,10.61-1.43,4.54 1.26,9.11 4.54,12.12-1.37,1.3-2.79,2.54-4.21,3.79-2.02-5.44-2.91-11.28-5.82-16.38 2.69-4.18 7.73-6.39 9.56-11.17 .23-.39 .7-1.18 .94-1.57 2.97-1.91 5.58-4.29 8.44-6.34 3.13-2.29 6.97-3.48 9.81-6.17 2.63-2.42 5.29-4.82 8.27-6.79z"/>
<path fill="#66988d" d="m68.68,33.71c1.33-.77 2.65-1.55 3.93-2.4 1.45,2.57 3.75,5.26 3.17,8.42-1.29,3.84-5.69,5.68-9.5,5.03 2.57-3.15 2.57-7.21 2.4-11.05z"/>
<path fill="#835b46" d="m52.47,38.39c1.62-2.28 4.38-3.16 6.8-4.29 2.07,1.71 3.9,3.74 5.05,6.19l-.37,.98-.74-.61c-1.89-1.77-4.37-2.52-6.91-2.66 .91,5.05 1.99,10.07 3.22,15.05 2.04-.48 3.54-1.87 4.59-3.63 1.07,.17 2.15,.35 3.22,.53-.05,.46-.16,1.36-.22,1.82-.9,2.39-2.05,4.69-2.85,7.12-1.8-.86-3.61-1.71-5.42-2.54-.51-1.12-1.02-2.23-1.47-3.38-.54-3.55-.3-7.68-3.45-10.12-3.99,1.25-4.93,5.41-5.46,9.06-.1,.66-.29,1.97-.39,2.63-3.17-.76-6.15-2.11-8.8-4 1.44-2.34 3.37-4.33 5.95-5.4 3.17-1.34 5.21-4.13 7.25-6.75z"/>
<path fill="#a86e55" d="m56.3,38c2.54,.14 5.02,.89 6.91,2.66-.2,2.95 .12,5.91 .9,8.76-1.05,1.76-2.55,3.15-4.59,3.63-1.23-4.98-2.31-10-3.22-15.05z"/>
<path fill="#673b2e" d="m48.46,51.91c.53-3.65 1.47-7.81 5.46-9.06 3.15,2.44 2.91,6.57 3.45,10.12-3-.03-5.99-.38-8.91-1.06z"/>
<path opacity=".09" d="m15.61,52.62c3.49-2.46 6.35-7.05 11.12-6.66-4.35,3.97-9.18,7.35-13.88,10.88-2.9,2.37-6.15,5.23-6.67,9.14 .72,4.04 2.28,7.9 2.67,12.01 .65,6.5 3.69,12.37 5.46,18.58 1.31,5 5.29,9.49 4.08,14.92-1.01,5.43-.01,10.87 .7,16.25-1.06,8.01 1.32,15.81 4.08,23.22 1.45,3.12 4.91,4.47 7.56,6.35 5.54,3.75 11.72,6.48 16.95,10.69h-15.78c-4-4.96-10.04-8.11-12.91-13.98-2.08-3.99-4.88-7.72-5.96-12.15-.32-4.04 3.12-7.1 3.86-10.93-.3-3.79-2.16-7.26-2.55-11.04-.47-3.45 .05-7.02-.84-10.4-2.44-3.51-6.62-5.78-7.91-10.08-2.27-6.82-4.32-14.02-3.32-21.27 .71-5.06 .4-10.27 1.7-15.22 1.82-5.3 7.91-6.72 11.64-10.31z"/>
<path fill="#63352c" d="m34.07,53.75c1.82-.93 3.59-1.95 5.2-3.21 2.65,1.89 5.63,3.24 8.8,4-.25,2-.43,4-.63,6.01-.58,.11-1.73,.34-2.31,.45-3.55-2.61-7.04-5.38-11.06-7.25z"/>
<path opacity=".7" fill="#101111" d="m11.39,60.38c3.45-3.43 7.57-6.14 12.01-8.12-.24,.39-.71,1.18-.94,1.57-3.4,3.21-7.78,5.23-10.93,8.68-.97,5.26 .53,10.68 1.03,15.95 .35-1.78 .61-3.57 .86-5.37 2.46,7 3.47,14.35 4.98,21.58 .05,1.47 1.69,1.27 2.7,1.53 .94,5.18 1.59,10.46 1.2,15.74-1.81,4.87-1.86,10.09-1.84,15.22-1.94-8.79 2.19-18.22-1.98-26.59-2.52-5.28-3.33-11.14-5.43-16.58-2.12-5.57-3.58-11.4-4.33-17.32-.34-2.42 1.04-4.64 2.67-6.29z"/>
<path fill="#863d26" d="m48.07,54.54c.1-.66 .29-1.97 .39-2.63 2.92,.68 5.91,1.03 8.91,1.06 .45,1.15 .96,2.26 1.47,3.38-.32,1.85-.73,3.68-.78,5.56 .34,1.77 1.8,3.05 2.78,4.5-.61,.73-1.21,1.47-1.8,2.22-1.43-3.15-2.63-6.41-3.77-9.68-3,1.03-5.45,3.14-8.36,4.3-2.61,.8-4.32-1.72-6.17-3.05-1.7-1.57-3.93-2.28-6.08-2.96-.66-.94-1.32-1.87-2-2.79 .35-.17 1.06-.52 1.41-.7 4.02,1.87 7.51,4.64 11.06,7.25 .58-.11 1.73-.34 2.31-.45 .2-2.01 .38-4.01 .63-6.01z"/>
<path opacity=".98" fill="#353632" d="m11.53,62.51c3.15-3.45 7.53-5.47 10.93-8.68-1.83,4.78-6.87,6.99-9.56,11.17 2.91,5.1 3.8,10.94 5.82,16.38 1.42-1.25 2.84-2.49 4.21-3.79 .43-.41 1.29-1.23 1.72-1.64-.01,2.08-.02,4.16 .03,6.24-1.37,.91-2.65,1.95-3.94,2.97 1.2,7.54 4.87,14.39 6.17,21.92-1.1-1.37-2.26-2.68-3.39-4.01-.22,3.33-.67,6.65-1.26,9.94l.04-1.07c.39-5.28-.26-10.56-1.2-15.74-1.01-.26-2.65-.06-2.7-1.53-1.51-7.23-2.52-14.58-4.98-21.58-.25,1.8-.51,3.59-.86,5.37-.5-5.27-2-10.69-1.03-15.95z"/>
<path fill="#6b6f47" d="m18.39,65.47c3.51-4.58 8.34-8.1 13.51-10.61-.41,1-.8,2-1.18,3.01-2.99,2.26-6.31,4.19-8.75,7.09-1.75,2.25-.65,5.27-.58,7.85 5.45,1.06 8.52-4.7 12.63-7.2 .1,.41 .28,1.24 .37,1.65-3.18,2.96-6.6,5.67-9.74,8.69-.43,.41-1.29,1.23-1.72,1.64-3.28-3.01-5.97-7.58-4.54-12.12z"/>
<path fill="#a36c2c" d="m31.9,54.86l.76-.41c.68,.92 1.34,1.85 2,2.79 .85,2.88 1.56,5.8 2.32,8.71-.74-.08-2.22-.25-2.96-.34-1.06-2.59-2.16-5.17-3.3-7.74 .38-1.01 .77-2.01 1.18-3.01z"/>
<path fill="#b74423" d="m34.66,57.24c2.15,.68 4.38,1.39 6.08,2.96 1.85,1.33 3.56,3.85 6.17,3.05 2.91-1.16 5.36-3.27 8.36-4.3 1.14,3.27 2.34,6.53 3.77,9.68-.72,1.12-1.37,2.29-2.04,3.44-3.31,.22-6.73,.73-9.35,2.95-1.94,1.51-3.8,3.13-5.54,4.88-1.63-1.47-3.13-3.07-4.46-4.81 .24-3.06 .12-6.16-.67-9.14-.76-2.91-1.47-5.83-2.32-8.71z"/>
<path fill="#543b29" d="m58.06,61.91c.05-1.88 .46-3.71 .78-5.56 1.81,.83 3.62,1.68 5.42,2.54-.78,2.65-1.43,5.46-3.42,7.52-.98-1.45-2.44-2.73-2.78-4.5z"/>
<path fill="#88922f" d="m21.97,64.96c2.44-2.9 5.76-4.83 8.75-7.09 1.14,2.57 2.24,5.15 3.3,7.74-4.11,2.5-7.18,8.26-12.63,7.2-.07-2.58-1.17-5.6 .58-7.85z"/>
<path fill="#7e5a2e" d="m34.02,65.61c.74,.09 2.22,.26 2.96,.34 .79,2.98 .91,6.08 .67,9.14-4.06,3.86-8.29,7.58-11.73,12.02 2.52,5.38 5.11,10.71 7.43,16.18 3.29-5.25 1.61-11.97 4.64-17.31 1.18-2.15 2.58-4.18 4.12-6.08 1.74-1.75 3.6-3.37 5.54-4.88 .49,1.07 .99,2.15 1.48,3.22-2.43,2.51-5.3,4.64-7.32,7.52-1.49,3.05-1.43,6.56-2.23,9.82-1.2,3.05-2.43,6.13-4.2,8.91-.8,1.29-2.61,1.43-3.97,1.2-1.44-1.08-1.86-2.98-2.56-4.54-1.7-4.81-3.67-9.5-5.62-14.2 1.48-2.07 3.01-4.12 4.83-5.9 3.6-2.66 7.46-5.65 9-10.03-.39-1.53-1.8-2.51-2.67-3.76-.09-.41-.27-1.24-.37-1.65z"/>
<path fill="#312b1b" d="m24.65,75.95c3.14-3.02 6.56-5.73 9.74-8.69 .87,1.25 2.28,2.23 2.67,3.76-1.54,4.38-5.4,7.37-9,10.03-1.13,.37-2.26,.75-3.38,1.14-.05-2.08-.04-4.16-.03-6.24z"/>
<path fill="#6f6a62" d="m67.73,81.09c2.17-4 4.31-9.02 9.42-9.73 .42,.41 1.27,1.24 1.69,1.66-1.7,.11-3.47,.09-5.06,.76-1.65,2.34-2.06,5.24-2.7,7.96 5.72,1.98 12.36,3.48 17.91,.12 .3,.87 .59,1.75 .87,2.63 .57,2.36 1.01,4.82 .74,7.26l-.32,.5c-1.27-1.97-2.57-3.92-4.06-5.73-3.18-2.22-7.16-1.73-10.82-1.8-2.88-.4-5.88-1.15-7.67-3.63z"/>
<path fill="#908b8f" d="m73.78,73.78c1.59-.67 3.36-.65 5.06-.76 2.02,.74 4.04,1.47 6.11,2.07 2.4,1.49 3.2,4.25 4.04,6.77-5.55,3.36-12.19,1.86-17.91-.12 .64-2.72 1.05-5.62 2.7-7.96m.67,.55c-.24,2.14-.33,4.29-.29,6.44 3.14,1.27 6.82,1.79 9.88,.02-.25-4.67-5.51-6.77-9.59-6.46z"/>
<path opacity=".69" fill="#664e46" d="m78.84,73.02c1.4-.02 2.8-.05 4.2-.1 2.87-.05 5.76,.03 8.59,.57 3.55,.71 6.61,2.83 10.1,3.7 4.01,.78 8.13,.94 12.05,2.13 4.22,1.28 8.15,3.32 12.28,4.87-2.69,.24-5.42,.48-8.09-.01-2.61-1.34-4.54-3.98-7.66-4.27-3.72-.77-7.52-.89-11.27-1.4-4.36-2.34-9.11-3.63-14.09-3.42-2.07-.6-4.09-1.33-6.11-2.07z"/>
<path fill="#acc3c3" d="m74.45,74.33c4.08-.31 9.34,1.79 9.59,6.46-3.06,1.77-6.74,1.25-9.88-.02-.04-2.15 .05-4.3 .29-6.44z"/>
<path fill="#a56332" d="m25.92,87.11c3.44-4.44 7.67-8.16 11.73-12.02 1.33,1.74 2.83,3.34 4.46,4.81-1.54,1.9-2.94,3.93-4.12,6.08-3.03,5.34-1.35,12.06-4.64,17.31-2.32-5.47-4.91-10.8-7.43-16.18z"/>
<path fill="#a55a59" d="m84.95,75.09c4.98-.21 9.73,1.08 14.09,3.42-3.25,1.7-6.32,3.7-9.18,5.98-.28-.88-.57-1.76-.87-2.63-.84-2.52-1.64-5.28-4.04-6.77z"/>
<path opacity=".45" fill="#32281e" d="m101.73,77.19c2.84,.12 5.67-.08 8.51-.15 4.37-.28 8.36,1.34 12.05,3.5 8.48,3.01 16.85,7.08 23.22,13.58 5.98,5.53 9.22,13.07 13.53,19.8 .1,.7 .29,2.1 .39,2.79-.08,5.35 1.51,11.68-2.52,16.04l-.92,.42 .37-.95c2.82-5.61 2.73-12.34 .41-18.1-3.8-7.98-8.73-15.62-15.57-21.33-1.84-1.56-4-2.68-6.24-3.53-2.36-2.62-5.18-5.02-8.9-5.07-4.13-1.55-8.06-3.59-12.28-4.87-3.92-1.19-8.04-1.35-12.05-2.13z"/>
<path fill="#7c7a2c" d="m49.13,78.24c2.72-.02 5.55-.41 8.18,.45 1.56,1.05 1.36,3.09 1.69,4.71-2.05,.42-4.11,.82-6.15,1.31-5.35,1.86-5.57,7.98-7.86,12.28-1.78,1.17-3.67-.99-5.41-1.41 .8-3.26 .74-6.77 2.23-9.82 2.02-2.88 4.89-5.01 7.32-7.52z"/>
<path opacity=".97" fill="#b9896d" d="m89.86,84.49c2.86-2.28 5.93-4.28 9.18-5.98 3.75,.51 7.55,.63 11.27,1.4-2.76-.14-5.53-.16-8.28,.03-2.95,.01-6.08,.7-7.84,3.3-3.19,2.88-.28,7.43-2.16,10.84-.56,1.9-2.28,3.93-1.11,5.93 2,3.76 4.89,7.25 8.61,9.4 4.58,1.19 9.45-.08 14.06,1.11 2.43,.72 4.42,2.36 6.55,3.67-3.11-.81-6.12-1.98-9.27-2.65-4.06-.81-8.19,.07-12.21,.67-3.43-3.2-7.49-6.15-9.34-10.61-.73-3.32 .8-6.59 1.28-9.85 .27-2.44-.17-4.9-.74-7.26z"/>
<path fill="#dfa877" d="m94.19,83.24c1.76-2.6 4.89-3.29 7.84-3.3-.51,.23-1.54,.68-2.05,.9-5.85,2.56-5.85,9.51-6.12,14.92-.78,5.44 3.42,10.03 7.43,13.08 3.8,.96 7.77,.22 11.64,.6 5.19,.3 9.38,5.02 14.8,3.6-.06-2.47-.1-4.94-.14-7.41 3.17-.92 6.35-2.07 9.69-2.1 2.86,.11 5.29,1.85 7.69,3.22-3.89-.23-7.79-.04-11.63,.64-1.16,2.55-2.2,5.16-2.71,7.93-3.52,.08-7.1-.07-10.49-1.13-2.13-1.31-4.12-2.95-6.55-3.67-4.61-1.19-9.48,.08-14.06-1.11-3.72-2.15-6.61-5.64-8.61-9.4-1.17-2 .55-4.03 1.11-5.93 1.88-3.41-1.03-7.96 2.16-10.84z"/>
<path fill="#f9d1af" d="m102.03,79.94c2.75-.19 5.52-.17 8.28-.03 3.12,.29 5.05,2.93 7.66,4.27 2.67,.49 5.4,.25 8.09,.01 .64,.57 1.29,1.13 1.95,1.68-.63,.08-1.91,.25-2.55,.33-.43,1.85-.86,3.69-1.27,5.55-4.39,.22-8.2-2.13-12.1-3.77-6.05,2.65-11.49,6.86-14.18,13.07-1.02-3.4-2.77-7.09-1.33-10.62 1.22-3.16 2.63-6.27 3.4-9.59 .51-.22 1.54-.67 2.05-.9z"/>
<path fill="#5d4935" d="m24.68,82.19c1.12-.39 2.25-.77 3.38-1.14-1.82,1.78-3.35,3.83-4.83,5.9 1.95,4.7 3.92,9.39 5.62,14.2 .7,1.56 1.12,3.46 2.56,4.54 1.36,.23 3.17,.09 3.97-1.2 1.77-2.78 3-5.86 4.2-8.91 1.74,.42 3.63,2.58 5.41,1.41 2.29-4.3 2.51-10.42 7.86-12.28-.99,1.42-2.01,2.82-2.86,4.33-2.27,3.65-.5,8.82-4.14,11.75-2.44-.15-4.88-.21-7.31-.25-.5,2.11-.98,4.22-1.46,6.32 .94,.9 1.88,1.8 2.86,2.66-1.72,.4-3.48,.71-5.11,1.4-1.84,2.01-2.39,4.8-3.11,7.34-1.4-3.81-3.21-7.45-4.81-11.18-1.3-7.53-4.97-14.38-6.17-21.92 1.29-1.02 2.57-2.06 3.94-2.97z"/>
<path fill="#eec59c" d="m93.86,95.76c.27-5.41 .27-12.36 6.12-14.92-.77,3.32-2.18,6.43-3.4,9.59-1.44,3.53 .31,7.22 1.33,10.62 2.69-6.21 8.13-10.42 14.18-13.07 3.9,1.64 7.71,3.99 12.1,3.77 .41-1.86 .84-3.7 1.27-5.55 .64-.08 1.92-.25 2.55-.33 1.78,1.38 3.77,2.45 5.88,3.23 6.44,4.88 12.21,10.57 16.91,17.17-.08,1.7-.17,3.41-.27,5.11-1.09-.13-2.17-.3-3.24-.53-.33,1.64-.66,3.28-.98,4.93 .32-3.08 .2-6.26-1.34-9.03-2.4-1.37-4.83-3.11-7.69-3.22-3.34,.03-6.52,1.18-9.69,2.1 .04,2.47 .08,4.94 .14,7.41-5.42,1.42-9.61-3.3-14.8-3.6-3.87-.38-7.84,.36-11.64-.6-4.01-3.05-8.21-7.64-7.43-13.08m10.46-.42c-1.83,2.25-1.26,5.35-.86,7.99 .54,.27 1.62,.8 2.16,1.07 4.19,1.53 8.77,1.15 13.03,.15 3.84-.62 5.27-5.71 3.6-8.8-2.66-2.59-6.07-4.2-9.27-6.01-3.03,1.6-6.19,3.16-8.66,5.6z"/>
<path opacity=".69" fill="#725a45" d="m126.06,84.19c3.72,.05 6.54,2.45 8.9,5.07l-1.07-.16c-2.11-.78-4.1-1.85-5.88-3.23-.66-.55-1.31-1.11-1.95-1.68z"/>
<path fill="#4a3b2a" d="m52.85,84.71c1.66,.33 3.33,.63 5,.94-.01,3.34-2.53,5.69-3.95,8.48 .31,1.81 1.06,3.5 1.69,5.22-3.17-.51-6.56,0-8.78,2.51-2.93,2.27-5.63,5.17-5.01,9.21-.47-.39-1.4-1.17-1.86-1.55-.98-.86-1.92-1.76-2.86-2.66 .48-2.1 .96-4.21 1.46-6.32 2.43,.04 4.87,.1 7.31,.25 3.64-2.93 1.87-8.1 4.14-11.75 .85-1.51 1.87-2.91 2.86-4.33z"/>
<path fill="#5a145c" d="m70,89.56c1.87-1.53 3.66-3.16 5.4-4.84 3.66,.07 7.64-.42 10.82,1.8-1.55,2.06-2.75,4.36-3.27,6.89-.85-1.03-1.61-2.12-2.39-3.19-2.66-.33-5.34-.51-8.02-.55-.64-.03-1.91-.08-2.54-.11z"/>
<path fill="#692f17" d="m86.22,86.52c1.49,1.81 2.79,3.76 4.06,5.73-1.62,1.25-3.36,2.34-5.07,3.46-.56-.57-1.7-1.72-2.26-2.3 .52-2.53 1.72-4.83 3.27-6.89z"/>
<path fill="#8c422a" d="m63.34,88.41c2.21,.44 4.42,.87 6.66,1.15 .63,.03 1.9,.08 2.54,.11-.33,1.41-.73,2.8-.88,4.24 2.93,2.49 4.76,5.79 5.11,9.65 2.44,.77 5,1.15 7.55,.77-2.04,.9-4.14,1.68-6.27,2.34 2.77,.3 6.32-.4 8.27,2.1 1.28,1.25 1.19,3.09 1.43,4.73-2.85,.65-5.72,1.25-8.64,1.41-2.98-4.72-5.16-9.98-8.98-14.14-1.38,2.3-2.51,4.73-3.36,7.27-.28-2.8-.27-5.62-.29-8.43-.62-.1-1.87-.31-2.5-.41-1.95-.32-3.9-.62-5.86-.91-.42-4.1 2.8-7.02 5.22-9.88z"/>
<path opacity=".76" fill="#7e6850" d="m133.89,89.1l1.07,.16c2.24,.85 4.4,1.97 6.24,3.53 6.84,5.71 11.77,13.35 15.57,21.33 2.32,5.76 2.41,12.49-.41,18.1-.8,.02-2.41,.07-3.22,.09 .65-.76 1.27-1.54 1.87-2.33 .65-1.51 1.33-3.06 1.42-4.72 .01-3.43 .43-7.22-1.64-10.2-1.82-2.7-2.94-5.75-3.99-8.79-4.7-6.6-10.47-12.29-16.91-17.17z"/>
<path fill="#9f1ac3" d="m72.54,89.67c2.68,.04 5.36,.22 8.02,.55 .78,1.07 1.54,2.16 2.39,3.19 .56,.58 1.7,1.73 2.26,2.3 .07,2.75 .05,5.5-.04,8.25l-.85,.37c-2.55,.38-5.11,0-7.55-.77-.35-3.86-2.18-7.16-5.11-9.65 .15-1.44 .55-2.83 .88-4.24z"/>
<path fill="#e8a76b" d="m104.32,95.34c2.47-2.44 5.63-4 8.66-5.6 3.2,1.81 6.61,3.42 9.27,6.01 1.67,3.09 .24,8.18-3.6,8.8-4.26,1-8.84,1.38-13.03-.15 3.67-.06 7.5,.06 10.89-1.6 1.75-1.65 3.9-3.68 3.22-6.35-1.92-1.98-4.68-3.42-7.49-3.09-2.26,.39-4.27,1.57-6.32,2.52-.14,2.84-.25,5.68-.3,8.52-.54-.27-1.62-.8-2.16-1.07-.4-2.64-.97-5.74 .86-7.99z"/>
<path fill="#c56060" d="m90.28,92.25l.32-.5c-.48,3.26-2.01,6.53-1.28,9.85 1.85,4.46 5.91,7.41 9.34,10.61-1.45,2.78-1.91,5.89-1.08,8.94-1.24,1.06-2.47,2.14-3.7,3.21l-.1-.63c-.97-.84-1.67-2.28-3.06-2.45-4.02-.62-8.19-.67-11.97-2.36 4.15-2.57 8.94-3.76 13.25-6.01-.83-3.68-2.24-7.2-4.13-10.46-.9,.51-1.79,1.02-2.7,1.51 .09-2.75 .11-5.5 .04-8.25 1.71-1.12 3.45-2.21 5.07-3.46z"/>
<path fill="#f19b22" d="m105.92,95.88c2.05-.95 4.06-2.13 6.32-2.52 2.81-.33 5.57,1.11 7.49,3.09 .68,2.67-1.47,4.7-3.22,6.35-2.63-3.5-6.59-5.44-10.59-6.92z"/>
<path opacity=".07" d="m145.51,94.12c.62-.17 1.86-.5 2.47-.67 3.59,3.21 5.69,7.72 9.45,10.77 1.32-1.64 2.63-3.28 3.94-4.91 2.21-.19 4.42-.39 6.63-.58v39.68c-4.15,4.68-7.76,10.28-13.62,12.99-4.56,2.26-9.53,3.54-14.52,4.42-6.47,1.03-12.06,4.64-18.12,6.9-.4,1.76-.8,3.53-1.27,5.28h-41.21c7.51-5.53 16.93-6.78 25.33-10.37 3.78-1.36 7.37-3.47 11.38-4.05 2.7,.8 3.92,4.65 7.03,4.65 4.05,.39 4.57-4.58 6.07-7.29 8.33-2.64 17.65-2.73 25.09-7.76 9.36-6.08 12.31-20.55 4.88-29.26-4.31-6.73-7.55-14.27-13.53-19.8z"/>
<path fill="#bd6926" d="m105.92,95.88c4,1.48 7.96,3.42 10.59,6.92-3.39,1.66-7.22,1.54-10.89,1.6 .05-2.84 .16-5.68 .3-8.52z"/>
<path fill="#13417e" d="m46.81,101.86c2.22-2.51 5.61-3.02 8.78-2.51 .54,.19 1.63,.59 2.17,.79 .42,.73 .85,1.47 1.31,2.19 .53,.87 1.07,1.74 1.58,2.62-2.53-.17-5.08-.13-7.62,.03-.47,3.34-.74,6.77 0,10.1 .3,1.32 .65,2.63 .99,3.95-.62,.17-1.85,.5-2.47,.67-1.39,.16-2.78,.24-4.18,.3 1.68-5.99-.08-12.13-.56-18.14z"/>
<path fill="#8a6a4d" d="m63.98,99.2c.63,.1 1.88,.31 2.5,.41 .02,2.81 .01,5.63 .29,8.43 .68,2.32 1.45,4.61 2.15,6.93-1.81,1.66-3.62,3.34-5.64,4.76-2.91,1.64-5.67,3.79-6.36,7.28-2.11-.29-4.23-.53-6.35-.7l.06-.93c4.28-3 8.62-5.92 12.9-8.91 .79-.77 2.24-1.38 2.12-2.68 .04-4.44-.37-9.02-2.39-13.05 .18-.38 .54-1.15 .72-1.54z"/>
<path fill="#666970" d="m57.76,100.14c1.82,.3 3.66,.45 5.5,.6 2.02,4.03 2.43,8.61 2.39,13.05 .12,1.3-1.33,1.91-2.12,2.68-4.28,2.99-8.62,5.91-12.9,8.91 .04-1.93 .37-3.84 .92-5.68 .62-.17 1.85-.5 2.47-.67 3.81-1.23 7.56-2.78 10.78-5.21-.72-4.3-.88-9.78-5.73-11.49-.46-.72-.89-1.46-1.31-2.19z"/>
<path fill="#a65e19" d="m70.13,100.77c3.82,4.16 6,9.42 8.98,14.14-3.39,.12-6.79,.05-10.19,.06-.7-2.32-1.47-4.61-2.15-6.93 .85-2.54 1.98-4.97 3.36-7.27z"/>
<path fill="#1c2530" d="m41.8,111.07c-.62-4.04 2.08-6.94 5.01-9.21 .48,6.01 2.24,12.15 .56,18.14-4.7-.11-4.54-5.57-5.57-8.93z"/>
<path fill="#b6473e" d="m85.17,103.96c.91-.49 1.8-1 2.7-1.51 1.89,3.26 3.3,6.78 4.13,10.46-4.31,2.25-9.1,3.44-13.25,6.01 3.78,1.69 7.95,1.74 11.97,2.36 1.39,.17 2.09,1.61 3.06,2.45-2.16,1.28-4.59,2.14-7.13,1.69-4.49-.45-9.1-.7-13.45,.73 .45-1.03 .9-2.06 1.36-3.09-1.97-2.64-3.85-5.33-5.64-8.09 3.4-.01 6.8,.06 10.19-.06 2.92-.16 5.79-.76 8.64-1.41-.24-1.64-.15-3.48-1.43-4.73-1.95-2.5-5.5-1.8-8.27-2.1 2.13-.66 4.23-1.44 6.27-2.34l.85-.37z"/>
<path fill="#3c2d1c" d="m23.52,103.07c1.13,1.33 2.29,2.64 3.39,4.01 1.6,3.73 3.41,7.37 4.81,11.18 .15,.48 .45,1.44 .6,1.92-1.28,1.33-2.59,2.64-3.79,4.05-1.91-1.49-4.01-2.86-6.53-2.8-.07-2.81 .08-5.62 .26-8.42 .59-3.29 1.04-6.61 1.26-9.94z"/>
<path fill="#3b59ac" d="m59.07,102.33c4.85,1.71 5.01,7.19 5.73,11.49-3.22,2.43-6.97,3.98-10.78,5.21-.34-1.32-.69-2.63-.99-3.95 2.74-.13 5.7,.31 8.25-.88 2.71-2.45 .84-6.6-.63-9.25-.51-.88-1.05-1.75-1.58-2.62z"/>
<path fill="#245cfb" d="m53.03,104.98c2.54-.16 5.09-.2 7.62-.03 1.47,2.65 3.34,6.8 .63,9.25-2.55,1.19-5.51,.75-8.25,.88-.74-3.33-.47-6.76 0-10.1z"/>
<path fill="#dbb38c" d="m150.8,106.27c1.05,3.04 2.17,6.09 3.99,8.79 2.07,2.98 1.65,6.77 1.64,10.2-1.01-2.65-1.37-7.47-5.26-6.94-4.05,2.04-6.95,5.74-9.31,9.5 3.13,1.93 6.76,2.67 10.41,2.56-5.45,.82-10.71,2.47-16,3.95-4.61,1.08-9.72,2.07-14.15-.17 2.95-3.51 7.21-5.6 11.27-7.59 2.36-1.23 5.27-1.94 6.73-4.38 1.62-2.53 3.55-4.89 6.19-6.41 .32-1.65 .65-3.29 .98-4.93 1.07,.23 2.15,.4 3.24,.53 .1-1.7 .19-3.41 .27-5.11z"/>
<path fill="#db7e1a" d="m133.34,107.39c3.84-.68 7.74-.87 11.63-.64 1.54,2.77 1.66,5.95 1.34,9.03-2.64,1.52-4.57,3.88-6.19,6.41-1.46,2.44-4.37,3.15-6.73,4.38-.26-.35-.78-1.04-1.04-1.38-.67-3.28-1.23-6.57-1.72-9.87 .51-2.77 1.55-5.38 2.71-7.93z"/>
<path fill="#4c5b4e" d="m34.83,110.92c1.63-.69 3.39-1 5.11-1.4 .46,.38 1.39,1.16 1.86,1.55 1.03,3.36 .87,8.82 5.57,8.93 1.4-.06 2.79-.14 4.18-.3-.55,1.84-.88,3.75-.92,5.68l-.06,.93c-.62-.06-1.86-.18-2.48-.23-5.29-1.86-10.39-4.25-15.77-5.9-.15-.48-.45-1.44-.6-1.92 .72-2.54 1.27-5.33 3.11-7.34m.51,7.69c1.09,1.98 3.65,.88 5.46,1.16 .72-2.83 1.52-7.69-1.99-8.78-4.06-.82-5.86,4.95-3.47,7.62z"/>
<path fill="#6e6b74" d="m35.34,118.61c-2.39-2.67-.59-8.44 3.47-7.62 3.51,1.09 2.71,5.95 1.99,8.78-1.81-.28-4.37,.82-5.46-1.16z"/>
<path opacity=".87" fill="#634731" d="m98.66,112.21c4.02-.6 8.15-1.48 12.21-.67 3.15,.67 6.16,1.84 9.27,2.65 3.39,1.06 6.97,1.21 10.49,1.13 .49,3.3 1.05,6.59 1.72,9.87l-.45-.62c-1.12-2.19-1.91-4.52-2.73-6.83-9.44-1.81-19.18-4.08-28.8-2.54-.31,2.06-.64,4.13-.96,6.19-.45-.06-1.37-.18-1.83-.24-.83-3.05-.37-6.16 1.08-8.94z"/>
<path opacity=".71" fill="#302514" d="m20.46,127.16c-.02-5.13 .03-10.35 1.84-15.22l-.04,1.07c-.18,2.8-.33,5.61-.26,8.42 .68,7.32 4.28,14.13 8.56,19.98 4.7,5.27 10.43,10.3 17.56,11.72 6.43,4.12 14.61,5.25 21.91,2.97 4.14-1.33 8.29-2.61 12.55-3.46 5.58-1.14 10.36-4.36 15.52-6.59 8.59-3.22 17.35-5.97 26.11-8.67 9.71-1.04 20.12-.06 28.93-5.07 .81-.02 2.42-.07 3.22-.09l-.37,.95c-3.41,1.75-6.74,3.97-10.68,4.29-5.69,.57-11.43,1.01-16.92,2.74-6.34,2.01-13.22,1.98-19.31,4.84-5.34,2.43-11.04,3.98-16.31,6.58-5.33,2.64-11.58,1.9-16.98,4.35-7,3.15-15,3.04-22.42,1.82-8.31-2.92-16.67-6.92-22.51-13.74-4.63-4.86-6.76-11.37-10.4-16.89z"/>
<path opacity=".18" d="m159.04,113.92c7.43,8.71 4.48,23.18-4.88,29.26-7.44,5.03-16.76,5.12-25.09,7.76-1.5,2.71-2.02,7.68-6.07,7.29-3.11,0-4.33-3.85-7.03-4.65-4.01,.58-7.6,2.69-11.38,4.05-8.4,3.59-17.82,4.84-25.33,10.37h-31.58c-5.23-4.21-11.41-6.94-16.95-10.69-2.65-1.88-6.11-3.23-7.56-6.35-2.76-7.41-5.14-15.21-4.08-23.22 .67,7.28 5.03,13.33 7.09,20.18 .92,4.57 6.33,5 9.58,7.35 6.73,4.47 14.47,7.35 22.5,8.36 7.82,.78 15.44-1.69 22.96-3.45 11.49-3.31 22.41-8.27 33.57-12.52 5.72-2.43 12.12-1.1 17.97-2.94 6.72-2.07 14.12-1.97 20.31-5.63 4.57-2.15 6.96-6.98 8.34-11.58 1.21-3.73-.99-7.3-1.98-10.8-.1-.69-.29-2.09-.39-2.79z"/>
<path fill="#8f3f20" d="m63.28,119.73c2.02-1.42 3.83-3.1 5.64-4.76 1.79,2.76 3.67,5.45 5.64,8.09-.46,1.03-.91,2.06-1.36,3.09-2.65-.28-5.71,.27-8.01-1.29-.83-1.63-1.32-3.41-1.91-5.13z"/>
<path opacity=".6" fill="#150e08" d="m100.37,115.2c9.62-1.54 19.36,.73 28.8,2.54 .82,2.31 1.61,4.64 2.73,6.83-7.17,5.55-16.75,5.56-25.37,4.96-.43-.95-.82-1.9-1.19-2.86 7.07,.78 14.59,.71 20.99-2.81-1.57-1.67-3.4-3.12-5.71-3.54-5.68-1.32-11.56-3.39-17.43-1.98 .27,2.28 .65,4.55 1.15,6.79-.61,.1-1.82,.3-2.43,.4-.9-1.34-1.7-2.74-2.5-4.14 .32-2.06 .65-4.13 .96-6.19z"/>
<path opacity=".27" d="m103.19,118.34c5.87-1.41 11.75,.66 17.43,1.98 2.31,.42 4.14,1.87 5.71,3.54-6.4,3.52-13.92,3.59-20.99,2.81-1.17-.29-2.32-.68-3.43-1.14 .61-.1 1.82-.3 2.43-.4-.5-2.24-.88-4.51-1.15-6.79z"/>
<path fill="#efcdaa" d="m141.86,127.82c2.36-3.76 5.26-7.46 9.31-9.5 3.89-.53 4.25,4.29 5.26,6.94-.09,1.66-.77,3.21-1.42,4.72-.68,.1-2.05,.3-2.74,.4-3.65,.11-7.28-.63-10.41-2.56z"/>
<path fill="#376928" d="m32.32,120.18c5.38,1.65 10.48,4.04 15.77,5.9-.42,1.06-.85,2.12-1.27,3.19l-.39-.53c-4.14-4.66-10.64-2.54-15.93-1.87-.66-.02-1.99-.08-2.65-.11 .17-.63 .51-1.9 .68-2.53 1.2-1.41 2.51-2.72 3.79-4.05z"/>
<path fill="#a86222" d="m56.92,127.01c.69-3.49 3.45-5.64 6.36-7.28 .59,1.72 1.08,3.5 1.91,5.13 2.3,1.56 5.36,1.01 8.01,1.29-7.04,2.86-9.05,10.92-14.35,15.71-3.45,3.73-8.98,3.74-12.95,6.68 .55,1.26 1.09,2.54 1.59,3.83-4.11-2.8-8.73-4.96-12.08-8.76-3.21-3.68-7.26-7.13-8.39-12.1 7.04,.52 14.09,2.03 21.13,.53 2.69-.3 5.35-.83 7.97-1.53 .25-1.17 .52-2.34 .8-3.5z"/>
<path fill="#634817" d="m22,121.43c2.52-.06 4.62,1.31 6.53,2.8-.17,.63-.51,1.9-.68,2.53-.33,1.57-.61,3.15-.83,4.75 1.13,4.97 5.18,8.42 8.39,12.1 3.35,3.8 7.97,5.96 12.08,8.76l.63,.76c-7.13-1.42-12.86-6.45-17.56-11.72-4.28-5.85-7.88-12.66-8.56-19.98z"/>
<path fill="#c1b781" d="m93.88,124.36c1.23-1.07 2.46-2.15 3.7-3.21 .46,.06 1.38,.18 1.83,.24 .8,1.4 1.6,2.8 2.5,4.14 1.11,.46 2.26,.85 3.43,1.14 .37,.96 .76,1.91 1.19,2.86l.4,.83-.72,.47c1.01,.44 2.07,.72 3.18,.77l-.53,1.23c-2.85-.79-5.65-1.71-8.44-2.67-.22,2.04-.45,4.07-.66,6.11-.58-.24-1.73-.73-2.3-.98-1.26-2.67-2.86-5.2-3.62-8.08 .01-.71 .03-2.14 .04-2.85z"/>
<path fill="#b87a41" d="m93.78,123.73l.1,.63c-.01,.71-.03,2.14-.04,2.85l-.88,.09c-6.06-.59-13.11-2.98-18.46,1.19-4.63,3.84-6.33,10.15-11.14,13.88-3.9,4.17-9.84,4.51-14.82,6.63 5.92,5.4 14.72,4.34 22.14,4.3-7.37,3.88-15.58-.11-23.19-.93-.5-1.29-1.04-2.57-1.59-3.83 3.97-2.94 9.5-2.95 12.95-6.68 5.3-4.79 7.31-12.85 14.35-15.71 4.35-1.43 8.96-1.18 13.45-.73 2.54,.45 4.97-.41 7.13-1.69z"/>
<path opacity=".93" fill="#957b5e" d="m106.53,129.53c8.62,.6 18.2,.59 25.37-4.96l.45,.62c.26,.34 .78,1.03 1.04,1.38-4.06,1.99-8.32,4.08-11.27,7.59 4.43,2.24 9.54,1.25 14.15,.17 5.29-1.48 10.55-3.13 16-3.95 .69-.1 2.06-.3 2.74-.4-.6,.79-1.22,1.57-1.87,2.33-8.81,5.01-19.22,4.03-28.93,5.07-.63-.44-1.89-1.32-2.52-1.76 .18-1.46 .35-2.92 .51-4.38 .41-.22 1.24-.66 1.65-.88-5.64,.15-11.28,.04-16.92,0l-.4-.83z"/>
<path fill="#51a523" d="m30.5,126.87c5.29-.67 11.79-2.79 15.93,1.87-2.89,1.3-5.99,2.68-9.23,2.06-2.72-.25-4.75-2.23-6.7-3.93z"/>
<path fill="#74491b" d="m48.09,126.08c.62,.05 1.86,.17 2.48,.23 2.12,.17 4.24,.41 6.35,.7-.28,1.16-.55,2.33-.8,3.5-2.62,.7-5.28,1.23-7.97,1.53-.42-.94-.87-1.86-1.33-2.77 .42-1.07 .85-2.13 1.27-3.19z"/>
<path fill="#c49262" d="m74.5,128.49c5.35-4.17 12.4-1.78 18.46-1.19-1.57,.27-3.13,.59-4.72,.81-2.58-.21-5.16-1.11-7.76-.66-5.53,2.96-5.7,10.14-9.44,14.57-2.94,2.61-6.45,4.48-9.42,7.07 2.69,1.42 5.56,2.47 8.46,3.37l.6,.84c-7.42,.04-16.22,1.1-22.14-4.3 4.98-2.12 10.92-2.46 14.82-6.63 4.81-3.73 6.51-10.04 11.14-13.88z"/>
<g fill="#070503">
<path opacity=".53" d="m20.46,127.16c3.64,5.52 5.77,12.03 10.4,16.89 5.84,6.82 14.2,10.82 22.51,13.74 7.42,1.22 15.42,1.33 22.42-1.82 5.4-2.45 11.65-1.71 16.98-4.35 5.27-2.6 10.97-4.15 16.31-6.58 6.09-2.86 12.97-2.83 19.31-4.84 5.49-1.73 11.23-2.17 16.92-2.74 3.94-.32 7.27-2.54 10.68-4.29l.92-.42c-3.48,6.32-11.58,5.74-17.66,7.37-6.46,1.82-13.06,2.79-19.73,3.34-13.79,3.8-26.52,10.73-40.31,14.55-7.48,1.55-15.13,3.44-22.81,2.38-5.96-.82-12.03-2.24-16.98-5.83-4.21-3.01-9.23-5.47-11.77-10.22-2.9-5.48-6.24-10.95-7.19-17.18z"/>
<path opacity=".53" d="m106.21,130.83l.72-.47c5.64,.04 11.28,.15 16.92,0-.41,.22-1.24,.66-1.65,.88-3.62,.08-7.23,.09-10.84,.3-.49,.02-1.47,.04-1.97,.06-1.11-.05-2.17-.33-3.18-.77z"/>
</g>
<path fill="#7e7520" d="m27.85,126.76c.66,.03 1.99,.09 2.65,.11 1.95,1.7 3.98,3.68 6.7,3.93 3.24,.62 6.34-.76 9.23-2.06l.39,.53c.46,.91 .91,1.83 1.33,2.77-7.04,1.5-14.09-.01-21.13-.53 .22-1.6 .5-3.18 .83-4.75z"/>
<path fill="#d1a67a" d="m80.48,127.45c2.6-.45 5.18,.45 7.76,.66-.01,1.92-.05,3.85-.01,5.77-1.65-2.05-3.77-3.79-6.53-3.74-.53,3.52-.42,7.29-2,10.55-2.54,3.73-7.27,4.99-10.24,8.31 3.52,2.18 7.76,2.07 11.75,2.09-3.65,.81-7.4,1.13-11.13,1.37-2.9-.9-5.77-1.95-8.46-3.37 2.97-2.59 6.48-4.46 9.42-7.07 3.74-4.43 3.91-11.61 9.44-14.57z"/>
<path fill="#73a74f" d="m92.96,127.3l.88-.09c.76,2.88 2.36,5.41 3.62,8.08 .46,1.8 .8,3.63 1.14,5.46 3.04-.1 6.06-.46 9.05-1.02l-.58,.53c-3.61,1.36-6.88,3.42-9.96,5.71-.41-.03-1.23-.08-1.65-.11-.47-2.31-1.24-4.64-3.41-5.86-2.24-1.32-3.17-3.73-3.82-6.12-.04-1.92 0-3.85 .01-5.77 1.59-.22 3.15-.54 4.72-.81z"/>
<path fill="#e2bb94" d="m81.7,130.14c2.76-.05 4.88,1.69 6.53,3.74 .65,2.39 1.58,4.8 3.82,6.12 2.17,1.22 2.94,3.55 3.41,5.86-5.07,.81-9.35,3.9-14.25,5.23-3.99-.02-8.23,.09-11.75-2.09 2.97-3.32 7.7-4.58 10.24-8.31 1.58-3.26 1.47-7.03 2-10.55z"/>
<path fill="#eaceab" d="m100.42,130.16c2.79,.96 5.59,1.88 8.44,2.67-.72,4.28-5.73,5.71-9.1,3.44 .21-2.04 .44-4.07 .66-6.11z"/>
<path fill="#4ef34b" d="m111.36,131.54c3.61-.21 7.22-.22 10.84-.3-.16,1.46-.33,2.92-.51,4.38-4.86,1.6-9.5,3.91-14.62,4.64l.58-.53c2.51-2.02 3.63-5.02 3.71-8.19z"/>
<path fill="#8ad96f" d="m109.39,131.6c.5-.02 1.48-.04 1.97-.06-.08,3.17-1.2,6.17-3.71,8.19-2.99,.56-6.01,.92-9.05,1.02-.34-1.83-.68-3.66-1.14-5.46 .57,.25 1.72,.74 2.3,.98 3.37,2.27 8.38,.84 9.1-3.44l.53-1.23z"/>
<path opacity=".93" fill="#588033" d="m107.07,140.26c5.12-.73 9.76-3.04 14.62-4.64 .63,.44 1.89,1.32 2.52,1.76-8.76,2.7-17.52,5.45-26.11,8.67l-.99-.08c3.08-2.29 6.35-4.35 9.96-5.71z"/>
<path opacity=".88" fill="#7a6044" d="m81.21,151.09c4.9-1.33 9.18-4.42 14.25-5.23 .42,.03 1.24,.08 1.65,.11l.99,.08c-5.16,2.23-9.94,5.45-15.52,6.59-4.26,.85-8.41,2.13-12.55,3.46-7.3,2.28-15.48,1.15-21.91-2.97l-.63-.76c7.61,.82 15.82,4.81 23.19,.93l-.6-.84c3.73-.24 7.48-.56 11.13-1.37z"/>
</svg>
