<svg width="300" height="246" viewBox="0 0 300 246" xmlns:xlink="http://www.w3.org/1999/xlink">
<path fill="#bfbfbf" d="m174.7,48.4c21.4-26.8 95.8-55.3 125.3-15.9-10.1,0-19.9,0-30,0-6.5,1.4-.2,6.2-3.5,8.8-10.4-5.1-19.9,4.2-31.8,3.5-.7,6.5 7.2,4.6 5.3,12.4-7.2-3-20.6,1.2-26.5,5.3 19.4,4.1 39.7-4.4 58.2,1.8 22.8,7.6 26.3,41.1 8.8,56.5-5.3-3.5-5.5-12.2-8.8-17.6-6.5-1.9-2.8,6.7-8.8,5.3-4.4-9.2-13.2-13.9-22.9-17.6-3.9,.7 0,9.4-3.5,10.6-8.3-1.1-12.7-6.2-22.9-5.3 30,29.8-2.6,69.9-30,79.4-6.2-7.2 10.1-19.8 5.3-37.1-7.8-1.4-10.9,7.6-15.9,3.5 4.6-4.9 6-12.7 5.3-22.9-5.1,1.9-11.6,2.5-15.9,5.3-7.1-1.9 .2-7.2-1.8-14.1-34.4,27.4-44.1,79.4-49.4,135.9-12.9,0-25.9,0-38.8,0 5.6-63.2 28.8-108.9 61.8-144.7-12.5,2.1-17.1,12.4-24.7,19.4-6.4,2.8-1.1-6-5.3-5.3-10.8,5.1-14.6,17.1-21.2,26.5-7.1,0-5.8-8.3-10.6-10.6-9.5,3.5-13.4,12.5-19.4,19.4-9.4-3.4-6.9-16.2-5.3-21.2 6.9-21.2 44.5-38.8 67.1-44.1-13.2-9.5-30.7,5.1-44.1,7.1-1.2-5.5 1.8-6.4 1.8-10.6-14.5,2.6-22.1,12-31.8,19.4-5.5,.9-4.9-4.4-7.1-7.1-13.1,4.1-16.9,17.1-30,21.2 .7-61.6 74.6-77.8 132.4-60-3.2-9.2-11.3-13.4-21.2-15.9-.2-3.2 2.1-3.7 1.8-7.1-12-2.8-26.5-1.8-38.8,0-1.4-6.7 6.7-3.9 7.1-8.8-7.1-6.4-22.4,3.4-28.2-1.8 31.4-30.8 113.4-23.7 118,26.4z"/>
<path fill="#008000" d="m171.2,44.9c21.3-26.9 95.8-55.3 125.3-15.9-10.1,0-19.9,0-30,0-6.5,1.4-.2,6.2-3.5,8.8-10.4-5.1-19.9,4.2-31.8,3.5-.7,6.5 7.2,4.6 5.3,12.4-7.2-3-20.6,1.2-26.5,5.3 19.4,4.1 39.7-4.4 58.2,1.8 22.8,7.6 26.3,41.1 8.8,56.5-5.3-3.5-5.5-12.2-8.8-17.6-6.5-1.9-2.8,6.7-8.8,5.3-4.4-9.2-13.2-13.9-22.9-17.6-3.9,.7 0,9.4-3.5,10.6-8.3-1.1-12.7-6.2-22.9-5.3 30,29.8-2.6,69.9-30,79.4-6.2-7.2 10.1-19.8 5.3-37.1-7.8-1.4-10.9,7.6-15.9,3.5 4.6-4.9 6-12.7 5.3-22.9-5.1,1.9-11.6,2.5-15.9,5.3-7.1-1.9 .2-7.2-1.8-14.1-34.4,27.4-44.1,79.4-49.4,135.9-12.9,0-25.9,0-38.8,0 5.6-63.2 28.8-108.9 61.8-144.7-12.5,2.1-17.1,12.4-24.7,19.4-6.4,2.8-1.1-6-5.3-5.3-10.9,4.9-14.8,16.9-21.3,26.3-7.1,0-5.8-8.3-10.6-10.6-9.5,3.5-13.4,12.5-19.4,19.4-9.4-3.4-6.9-16.2-5.3-21.2 6.9-21.2 44.5-38.8 67.1-44.1-13.3-9.5-30.7,5.1-44.1,7.1-1.2-5.5 1.8-6.4 1.8-10.6-14.5,2.6-22.1,12-31.8,19.4-5.5,.9-4.9-4.4-7.1-7.1-13.1,4.1-16.9,17.1-30,21.2 .7-61.6 74.6-77.8 132.4-60-3.2-9.2-11.3-13.4-21.2-15.9-.2-3.2 2.1-3.7 1.8-7.1-12-2.8-26.5-1.8-38.8,0-1.4-6.7 6.7-3.9 7.1-8.8-7.1-6.4-22.4,3.4-28.2-1.8 31.4-30.6 113.5-23.6 118.1,26.6z"/>
</svg>
