<?xml version="1.0" encoding="iso-8859-1"?>
<!DOCTYPE svg PUBLIC "-//W3C//DTD SVG 1.1//EN" "http://www.w3.org/Graphics/SVG/1.1/DTD/svg11.dtd">
<svg version="1.1" mlns="http://www.w3.org/2000/svg" xmlns:xlink="http://www.w3.org/1999/xlink" width="300" height="246" viewBox="0 0 300 246">
<path style="fill:#BFBFBF;" d="M174.7,48.4C196.1,21.6,270.5-6.9,300,32.5c-10.1,0-19.9,0-30,0c-6.5,1.4-0.2,6.2-3.5,8.8
	c-10.4-5.1-19.9,4.2-31.8,3.5c-0.7,6.5,7.2,4.6,5.3,12.4c-7.2-3-20.6,1.2-26.5,5.3c19.4,4.1,39.7-4.4,58.2,1.8
	c22.8,7.6,26.3,41.1,8.8,56.5c-5.3-3.5-5.5-12.2-8.8-17.6c-6.5-1.9-2.8,6.7-8.8,5.3c-4.4-9.2-13.2-13.9-22.9-17.6
	c-3.9,0.7,0,9.4-3.5,10.6c-8.3-1.1-12.7-6.2-22.9-5.3c30,29.8-2.6,69.9-30,79.4c-6.2-7.2,10.1-19.8,5.3-37.1
	c-7.8-1.4-10.9,7.6-15.9,3.5c4.6-4.9,6-12.7,5.3-22.9c-5.1,1.9-11.6,2.5-15.9,5.3c-7.1-1.9,0.2-7.2-1.8-14.1
	c-34.4,27.4-44.1,79.4-49.4,135.9c-12.9,0-25.9,0-38.8,0c5.6-63.2,28.8-108.9,61.8-144.7c-12.5,2.1-17.1,12.4-24.7,19.4
	c-6.4,2.8-1.1-6-5.3-5.3c-10.8,5.1-14.6,17.1-21.2,26.5c-7.1,0-5.8-8.3-10.6-10.6c-9.5,3.5-13.4,12.5-19.4,19.4
	c-9.4-3.4-6.9-16.2-5.3-21.2c6.9-21.2,44.5-38.8,67.1-44.1c-13.2-9.5-30.7,5.1-44.1,7.1c-1.2-5.5,1.8-6.4,1.8-10.6
	c-14.5,2.6-22.1,12-31.8,19.4c-5.5,0.9-4.9-4.4-7.1-7.1c-13.1,4.1-16.9,17.1-30,21.2c0.7-61.6,74.6-77.8,132.4-60
	c-3.2-9.2-11.3-13.4-21.2-15.9c-0.2-3.2,2.1-3.7,1.8-7.1c-12-2.8-26.5-1.8-38.8,0c-1.4-6.7,6.7-3.9,7.1-8.8
	c-7.1-6.4-22.4,3.4-28.2-1.8C88.1-8.8,170.1-1.7,174.7,48.4z"/>
<path style="fill:#008000;" d="M171.2,44.9C192.5,18,267-10.4,296.5,29c-10.1,0-19.9,0-30,0c-6.5,1.4-0.2,6.2-3.5,8.8
	c-10.4-5.1-19.9,4.2-31.8,3.5c-0.7,6.5,7.2,4.6,5.3,12.4c-7.2-3-20.6,1.2-26.5,5.3c19.4,4.1,39.7-4.4,58.2,1.8
	c22.8,7.6,26.3,41.1,8.8,56.5c-5.3-3.5-5.5-12.2-8.8-17.6c-6.5-1.9-2.8,6.7-8.8,5.3c-4.4-9.2-13.2-13.9-22.9-17.6
	c-3.9,0.7,0,9.4-3.5,10.6c-8.3-1.1-12.7-6.2-22.9-5.3c30,29.8-2.6,69.9-30,79.4c-6.2-7.2,10.1-19.8,5.3-37.1
	c-7.8-1.4-10.9,7.6-15.9,3.5c4.6-4.9,6-12.7,5.3-22.9c-5.1,1.9-11.6,2.5-15.9,5.3c-7.1-1.9,0.2-7.2-1.8-14.1
	c-34.4,27.4-44.1,79.4-49.4,135.9c-12.9,0-25.9,0-38.8,0c5.6-63.2,28.8-108.9,61.8-144.7c-12.5,2.1-17.1,12.4-24.7,19.4
	c-6.4,2.8-1.1-6-5.3-5.3C89.8,117,85.9,129,79.4,138.4c-7.1,0-5.8-8.3-10.6-10.6c-9.5,3.5-13.4,12.5-19.4,19.4
	c-9.4-3.4-6.9-16.2-5.3-21.2c6.9-21.2,44.5-38.8,67.1-44.1C97.9,72.4,80.5,87,67.1,89c-1.2-5.5,1.8-6.4,1.8-10.6
	c-14.5,2.6-22.1,12-31.8,19.4c-5.5,0.9-4.9-4.4-7.1-7.1c-13.1,4.1-16.9,17.1-30,21.2c0.7-61.6,74.6-77.8,132.4-60
	c-3.2-9.2-11.3-13.4-21.2-15.9c-0.2-3.2,2.1-3.7,1.8-7.1c-12-2.8-26.5-1.8-38.8,0c-1.4-6.7,6.7-3.9,7.1-8.8
	c-7.1-6.4-22.4,3.4-28.2-1.8C84.5-12.3,166.6-5.3,171.2,44.9z"/>
</svg>
