<?xml version="1.0" encoding="UTF-8" standalone="no"?>
<!-- Created with Inkscape (http://www.inkscape.org/) -->
<svg
   xmlns:svg="http://www.w3.org/2000/svg"
   xmlns="http://www.w3.org/2000/svg"
   version="1.0"
   width="168pt"
   height="168pt"
   viewBox="0 0 168 168"
   id="svg2">
  <defs
     id="defs274" />
  <g
     id="#0505065a">
    <path
       d="M 74.79,9.88 C 76.87,8.27 78.85,6.4 81.33,5.44 C 83.83,4.71 85.94,6.88 87.28,8.7 C 90.4,13.06 89.58,18.73 90.23,23.76 C 90.55,30.76 93.89,37.1 94.85,43.97 C 95.5,48.28 95.85,52.64 95.68,56.99 C 95.57,61.47 92.85,65.23 90.96,69.11 C 96.84,72.91 103.99,73.94 110.24,77.04 C 107.4,77.11 104.57,77.31 101.73,77.19 C 98.24,76.32 95.18,74.2 91.63,73.49 C 88.8,72.95 85.91,72.87 83.04,72.92 C 82.04,72.2 81.04,71.48 80.04,70.76 C 82.61,67.71 85.81,65.34 88.91,62.88 C 92.36,60.04 92.73,55 91.21,51.04 C 88.25,42.37 90.34,32.8 86.74,24.28 C 84.92,19.85 84.42,15.07 83.56,10.4 C 76.35,9.66 72.36,16.41 67.24,20.12 C 61.3,24.18 55.77,28.77 49.92,32.96 C 46.94,34.93 44.28,37.33 41.65,39.75 C 38.81,42.44 34.97,43.63 31.84,45.92 C 28.98,47.97 26.37,50.35 23.4,52.26 C 18.96,54.24 14.84,56.95 11.39,60.38 C 9.76,62.03 8.38,64.25 8.72,66.67 C 9.47,72.59 10.93,78.42 13.05,83.99 C 15.15,89.43 15.96,95.29 18.48,100.57 C 22.65,108.94 18.52,118.37 20.46,127.16 C 21.41,133.39 24.75,138.86 27.65,144.34 C 30.19,149.09 35.21,151.55 39.42,154.56 C 44.37,158.15 50.44,159.57 56.4,160.39 C 64.08,161.45 71.73,159.56 79.21,158.01 C 93,154.19 105.73,147.26 119.52,143.46 C 126.19,142.91 132.79,141.94 139.25,140.12 C 145.33,138.49 153.43,139.07 156.91,132.75 C 160.94,128.39 159.35,122.06 159.43,116.71 C 160.42,120.21 162.62,123.78 161.41,127.51 C 160.03,132.11 157.64,136.94 153.07,139.09 C 146.88,142.75 139.48,142.65 132.76,144.72 C 126.91,146.56 120.51,145.23 114.79,147.66 C 103.63,151.91 92.71,156.87 81.22,160.18 C 73.7,161.94 66.08,164.41 58.26,163.63 C 50.23,162.62 42.49,159.74 35.76,155.27 C 32.51,152.92 27.1,152.49 26.18,147.92 C 24.12,141.07 19.76,135.02 19.09,127.74 C 18.38,122.36 17.38,116.92 18.39,111.49 C 19.6,106.06 15.62,101.57 14.31,96.57 C 12.54,90.36 9.5,84.49 8.85,77.99 C 8.46,73.88 6.9,70.02 6.18,65.98 C 6.7,62.07 9.95,59.21 12.85,56.84 C 17.55,53.31 22.38,49.93 26.73,45.96 C 30.09,43.6 33.4,41.16 36.54,38.51 C 44.02,32.24 52.5,27.3 59.94,20.98 C 64.64,16.94 70.06,13.87 74.79,9.88 z"
       id="path5"
       style="opacity:0.35;fill:#050506" />
  </g>
  <g
     id="#4b4e4cfe">
    <path
       d="M 67.24,20.12 C 72.36,16.41 76.35,9.66 83.56,10.4 C 83.11,12.87 82.65,15.34 82.07,17.78 C 79.12,18.91 75.51,19.85 74.02,22.95 C 73.31,24.91 73.31,27.03 73.03,29.08 L 72.89,29.88 C 71,30.62 69.11,31.35 67.23,32.09 C 66.34,34.86 65.41,37.6 64.32,40.29 C 63.17,37.84 61.34,35.81 59.27,34.1 C 56.46,32.34 53.07,32.56 49.92,32.96 C 55.77,28.77 61.3,24.18 67.24,20.12 z"
       id="path8"
       style="opacity:1;fill:#4b4e4c" />
  </g>
  <g
     id="#312e27ea">
    <path
       d="M 83.56,10.4 C 84.42,15.07 84.92,19.85 86.74,24.28 C 90.34,32.8 88.25,42.37 91.21,51.04 C 92.73,55 92.36,60.04 88.91,62.88 C 85.81,65.34 82.61,67.71 80.04,70.76 C 81.04,71.48 82.04,72.2 83.04,72.92 C 81.64,72.97 80.24,73 78.84,73.02 C 78.42,72.6 77.57,71.77 77.15,71.36 C 80.14,65.78 87.39,63.59 89.12,57.23 C 90.14,50 87.37,43 85.02,36.3 C 83.97,30.14 84.28,23.74 82.07,17.78 C 82.65,15.34 83.11,12.87 83.56,10.4 z"
       id="path11"
       style="opacity:0.92000002;fill:#312e27" />
  </g>
  <g
     id="#634626ff">
    <path
       d="M 74.02,22.95 C 75.51,19.85 79.12,18.91 82.07,17.78 C 84.28,23.74 83.97,30.14 85.02,36.3 C 87.37,43 90.14,50 89.12,57.23 C 87.39,63.59 80.14,65.78 77.15,71.36 C 72.04,72.07 69.9,77.09 67.73,81.09 C 69.52,83.57 72.52,84.32 75.4,84.72 C 73.66,86.4 71.87,88.03 70,89.56 C 67.76,89.28 65.55,88.85 63.34,88.41 C 60.92,91.27 57.7,94.19 58.12,98.29 C 60.08,98.58 62.03,98.88 63.98,99.2 C 63.8,99.59 63.44,100.36 63.26,100.74 C 61.42,100.59 59.58,100.44 57.76,100.14 C 57.22,99.94 56.13,99.54 55.59,99.35 C 54.96,97.63 54.21,95.94 53.9,94.13 C 55.32,91.34 57.84,88.99 57.85,85.65 C 56.18,85.34 54.51,85.04 52.85,84.71 C 54.89,84.22 56.95,83.82 59,83.4 C 58.67,81.78 58.87,79.74 57.31,78.69 C 54.68,77.83 51.85,78.22 49.13,78.24 C 48.64,77.17 48.14,76.09 47.65,75.02 C 50.27,72.8 53.69,72.29 57,72.07 C 60.88,73.78 64.34,78.19 68.94,76.99 C 69.26,72.36 67.76,67.82 68.06,63.24 C 69.8,59.53 73.49,57.36 76.72,55.09 C 77.7,58.3 78.14,61.93 80.82,64.25 C 83.63,61.96 87.26,59.75 87.97,55.9 C 87.9,48.17 82.31,41.75 82.02,34.05 C 81.9,30.1 82,26.15 81.6,22.21 C 80.01,22.37 78.22,21.87 76.79,22.71 C 75.51,24.17 74.68,25.95 73.76,27.64 L 73.4,28.32 L 73.03,29.08 C 73.31,27.03 73.31,24.91 74.02,22.95 z"
       id="path14"
       style="opacity:1;fill:#634626" />
  </g>
  <g
     id="#92692aff">
    <path
       d="M 76.79,22.71 C 78.22,21.87 80.01,22.37 81.6,22.21 C 82,26.15 81.9,30.1 82.02,34.05 C 82.31,41.75 87.9,48.17 87.97,55.9 C 87.26,59.75 83.63,61.96 80.82,64.25 C 78.14,61.93 77.7,58.3 76.72,55.09 C 73.49,57.36 69.8,59.53 68.06,63.24 C 67.76,67.82 69.26,72.36 68.94,76.99 C 64.34,78.19 60.88,73.78 57,72.07 C 57.67,70.92 58.32,69.75 59.04,68.63 C 59.63,67.88 60.23,67.14 60.84,66.41 C 62.83,64.35 63.48,61.54 64.26,58.89 C 65.06,56.46 66.21,54.16 67.11,51.77 C 68.03,53.67 69.26,55.4 70.6,57.03 C 73.86,53.16 77.53,49.36 79.33,44.56 C 80.23,40.09 79.91,35.48 79.74,30.96 C 79.8,29.15 78.89,27.59 77.97,26.11 C 76.56,26.61 75.15,27.1 73.76,27.64 C 74.68,25.95 75.51,24.17 76.79,22.71 z"
       id="path17"
       style="opacity:1;fill:#92692a" />
  </g>
  <g
     id="#9d8136ff">
    <path
       d="M 73.76,27.64 C 75.15,27.1 76.56,26.61 77.97,26.11 C 78.89,27.59 79.8,29.15 79.74,30.96 C 79.91,35.48 80.23,40.09 79.33,44.56 C 77.53,49.36 73.86,53.16 70.6,57.03 C 69.26,55.4 68.03,53.67 67.11,51.77 C 67.17,51.31 67.28,50.41 67.33,49.95 C 71.35,47.22 76.1,44.9 78.54,40.5 C 80.23,35.76 76.21,31.63 73.4,28.32 L 73.76,27.64 z"
       id="path20"
       style="opacity:1;fill:#9d8136" />
  </g>
  <g
     id="#7a8066ff">
    <path
       d="M 73.03,29.08 L 73.4,28.32 C 76.21,31.63 80.23,35.76 78.54,40.5 C 76.1,44.9 71.35,47.22 67.33,49.95 C 66.26,49.77 65.18,49.59 64.11,49.42 C 63.33,46.57 63.01,43.61 63.21,40.66 L 63.95,41.27 C 64.78,42.4 65.53,43.58 66.28,44.76 C 70.09,45.41 74.49,43.57 75.78,39.73 C 76.36,36.57 74.06,33.88 72.61,31.31 C 72.68,30.95 72.82,30.24 72.89,29.88 L 73.03,29.08 z"
       id="path23"
       style="opacity:1;fill:#7a8066" />
  </g>
  <g
     id="#537370ff">
    <path
       d="M 67.23,32.09 C 69.11,31.35 71,30.62 72.89,29.88 C 72.82,30.24 72.68,30.95 72.61,31.31 C 71.33,32.16 70.01,32.94 68.68,33.71 C 68.85,37.55 68.85,41.61 66.28,44.76 C 65.53,43.58 64.78,42.4 63.95,41.27 L 64.32,40.29 C 65.41,37.6 66.34,34.86 67.23,32.09 z"
       id="path26"
       style="opacity:1;fill:#537370" />
  </g>
  <g
     id="#555957fd">
    <path
       d="M 49.92,32.96 C 53.07,32.56 56.46,32.34 59.27,34.1 C 56.85,35.23 54.09,36.11 52.47,38.39 C 50.43,41.01 48.39,43.8 45.22,45.14 C 42.64,46.21 40.71,48.2 39.27,50.54 C 37.66,51.8 35.89,52.82 34.07,53.75 C 33.72,53.93 33.01,54.28 32.66,54.45 L 31.9,54.86 C 26.73,57.37 21.9,60.89 18.39,65.47 C 16.96,70.01 19.65,74.58 22.93,77.59 C 21.56,78.89 20.14,80.13 18.72,81.38 C 16.7,75.94 15.81,70.1 12.9,65 C 15.59,60.82 20.63,58.61 22.46,53.83 C 22.69,53.44 23.16,52.65 23.4,52.26 C 26.37,50.35 28.98,47.97 31.84,45.92 C 34.97,43.63 38.81,42.44 41.65,39.75 C 44.28,37.33 46.94,34.93 49.92,32.96 z"
       id="path29"
       style="opacity:1;fill:#555957" />
  </g>
  <g
     id="#66988dff">
    <path
       d="M 68.68,33.71 C 70.01,32.94 71.33,32.16 72.61,31.31 C 74.06,33.88 76.36,36.57 75.78,39.73 C 74.49,43.57 70.09,45.41 66.28,44.76 C 68.85,41.61 68.85,37.55 68.68,33.71 z"
       id="path32"
       style="opacity:1;fill:#66988d" />
  </g>
  <g
     id="#835b46ff">
    <path
       d="M 52.47,38.39 C 54.09,36.11 56.85,35.23 59.27,34.1 C 61.34,35.81 63.17,37.84 64.32,40.29 L 63.95,41.27 L 63.21,40.66 C 61.32,38.89 58.84,38.14 56.3,38 C 57.21,43.05 58.29,48.07 59.52,53.05 C 61.56,52.57 63.06,51.18 64.11,49.42 C 65.18,49.59 66.26,49.77 67.33,49.95 C 67.28,50.41 67.17,51.31 67.11,51.77 C 66.21,54.16 65.06,56.46 64.26,58.89 C 62.46,58.03 60.65,57.18 58.84,56.35 C 58.33,55.23 57.82,54.12 57.37,52.97 C 56.83,49.42 57.07,45.29 53.92,42.85 C 49.93,44.1 48.99,48.26 48.46,51.91 C 48.36,52.57 48.17,53.88 48.07,54.54 C 44.9,53.78 41.92,52.43 39.27,50.54 C 40.71,48.2 42.64,46.21 45.22,45.14 C 48.39,43.8 50.43,41.01 52.47,38.39 z"
       id="path35"
       style="opacity:1;fill:#835b46" />
  </g>
  <g
     id="#a86e55ff">
    <path
       d="M 56.3,38 C 58.84,38.14 61.32,38.89 63.21,40.66 C 63.01,43.61 63.33,46.57 64.11,49.42 C 63.06,51.18 61.56,52.57 59.52,53.05 C 58.29,48.07 57.21,43.05 56.3,38 z"
       id="path38"
       style="opacity:1;fill:#a86e55" />
  </g>
  <g
     id="#673b2efe">
    <path
       d="M 48.46,51.91 C 48.99,48.26 49.93,44.1 53.92,42.85 C 57.07,45.29 56.83,49.42 57.37,52.97 C 54.37,52.94 51.38,52.59 48.46,51.91 z"
       id="path41"
       style="opacity:1;fill:#673b2e" />
  </g>
  <g
     id="#00000016">
    <path
       d="M 15.61,52.62 C 19.1,50.16 21.96,45.57 26.73,45.96 C 22.38,49.93 17.55,53.31 12.85,56.84 C 9.95,59.21 6.7,62.07 6.18,65.98 C 6.9,70.02 8.46,73.88 8.85,77.99 C 9.5,84.49 12.54,90.36 14.31,96.57 C 15.62,101.57 19.6,106.06 18.39,111.49 C 17.38,116.92 18.38,122.36 19.09,127.74 C 18.03,135.75 20.41,143.55 23.17,150.96 C 24.62,154.08 28.08,155.43 30.73,157.31 C 36.27,161.06 42.45,163.79 47.68,168 L 31.9,168 C 27.9,163.04 21.86,159.89 18.99,154.02 C 16.91,150.03 14.11,146.3 13.03,141.87 C 12.71,137.83 16.15,134.77 16.89,130.94 C 16.59,127.15 14.73,123.68 14.34,119.9 C 13.87,116.45 14.39,112.88 13.5,109.5 C 11.06,105.99 6.88,103.72 5.59,99.42 C 3.32,92.6 1.27,85.4 2.27,78.15 C 2.98,73.09 2.67,67.88 3.97,62.93 C 5.79,57.63 11.88,56.21 15.61,52.62 z"
       id="path44"
       style="opacity:0.08999999;fill:#000000" />
  </g>
  <g
     id="#63352cff">
    <path
       d="M 34.07,53.75 C 35.89,52.82 37.66,51.8 39.27,50.54 C 41.92,52.43 44.9,53.78 48.07,54.54 C 47.82,56.54 47.64,58.54 47.44,60.55 C 46.86,60.66 45.71,60.89 45.13,61 C 41.58,58.39 38.09,55.62 34.07,53.75 z"
       id="path47"
       style="opacity:1;fill:#63352c" />
  </g>
  <g
     id="#101111b3">
    <path
       d="M 11.39,60.38 C 14.84,56.95 18.96,54.24 23.4,52.26 C 23.16,52.65 22.69,53.44 22.46,53.83 C 19.06,57.04 14.68,59.06 11.53,62.51 C 10.56,67.77 12.06,73.19 12.56,78.46 C 12.91,76.68 13.17,74.89 13.42,73.09 C 15.88,80.09 16.89,87.44 18.4,94.67 C 18.45,96.14 20.09,95.94 21.1,96.2 C 22.04,101.38 22.69,106.66 22.3,111.94 C 20.49,116.81 20.44,122.03 20.46,127.16 C 18.52,118.37 22.65,108.94 18.48,100.57 C 15.96,95.29 15.15,89.43 13.05,83.99 C 10.93,78.42 9.47,72.59 8.72,66.67 C 8.38,64.25 9.76,62.03 11.39,60.38 z"
       id="path50"
       style="opacity:0.7;fill:#101111" />
  </g>
  <g
     id="#863d26ff">
    <path
       d="M 48.07,54.54 C 48.17,53.88 48.36,52.57 48.46,51.91 C 51.38,52.59 54.37,52.94 57.37,52.97 C 57.82,54.12 58.33,55.23 58.84,56.35 C 58.52,58.2 58.11,60.03 58.06,61.91 C 58.4,63.68 59.86,64.96 60.84,66.41 C 60.23,67.14 59.63,67.88 59.04,68.63 C 57.61,65.48 56.41,62.22 55.27,58.95 C 52.27,59.98 49.82,62.09 46.91,63.25 C 44.3,64.05 42.59,61.53 40.74,60.2 C 39.04,58.63 36.81,57.92 34.66,57.24 C 34,56.3 33.34,55.37 32.66,54.45 C 33.01,54.28 33.72,53.93 34.07,53.75 C 38.09,55.62 41.58,58.39 45.13,61 C 45.71,60.89 46.86,60.66 47.44,60.55 C 47.64,58.54 47.82,56.54 48.07,54.54 z"
       id="path53"
       style="opacity:1;fill:#863d26" />
  </g>
  <g
     id="#353632fa">
    <path
       d="M 11.53,62.51 C 14.68,59.06 19.06,57.04 22.46,53.83 C 20.63,58.61 15.59,60.82 12.9,65 C 15.81,70.1 16.7,75.94 18.72,81.38 C 20.14,80.13 21.56,78.89 22.93,77.59 C 23.36,77.18 24.22,76.36 24.65,75.95 C 24.64,78.03 24.63,80.11 24.68,82.19 C 23.31,83.1 22.03,84.14 20.74,85.16 C 21.94,92.7 25.61,99.55 26.91,107.08 C 25.81,105.71 24.65,104.4 23.52,103.07 C 23.3,106.4 22.85,109.72 22.26,113.01 L 22.3,111.94 C 22.69,106.66 22.04,101.38 21.1,96.2 C 20.09,95.94 18.45,96.14 18.4,94.67 C 16.89,87.44 15.88,80.09 13.42,73.09 C 13.17,74.89 12.91,76.68 12.56,78.46 C 12.06,73.19 10.56,67.77 11.53,62.51 z"
       id="path56"
       style="opacity:0.98000004;fill:#353632" />
  </g>
  <g
     id="#6b6f47fe">
    <path
       d="M 18.39,65.47 C 21.9,60.89 26.73,57.37 31.9,54.86 C 31.49,55.86 31.1,56.86 30.72,57.87 C 27.73,60.13 24.41,62.06 21.97,64.96 C 20.22,67.21 21.32,70.23 21.39,72.81 C 26.84,73.87 29.91,68.11 34.02,65.61 C 34.12,66.02 34.3,66.85 34.39,67.26 C 31.21,70.22 27.79,72.93 24.65,75.95 C 24.22,76.36 23.36,77.18 22.93,77.59 C 19.65,74.58 16.96,70.01 18.39,65.47 z"
       id="path59"
       style="opacity:1;fill:#6b6f47" />
  </g>
  <g
     id="#a36c2cff">
    <path
       d="M 31.9,54.86 L 32.66,54.45 C 33.34,55.37 34,56.3 34.66,57.24 C 35.51,60.12 36.22,63.04 36.98,65.95 C 36.24,65.87 34.76,65.7 34.02,65.61 C 32.96,63.02 31.86,60.44 30.72,57.87 C 31.1,56.86 31.49,55.86 31.9,54.86 z"
       id="path62"
       style="opacity:1;fill:#a36c2c" />
  </g>
  <g
     id="#b74423ff">
    <path
       d="M 34.66,57.24 C 36.81,57.92 39.04,58.63 40.74,60.2 C 42.59,61.53 44.3,64.05 46.91,63.25 C 49.82,62.09 52.27,59.98 55.27,58.95 C 56.41,62.22 57.61,65.48 59.04,68.63 C 58.32,69.75 57.67,70.92 57,72.07 C 53.69,72.29 50.27,72.8 47.65,75.02 C 45.71,76.53 43.85,78.15 42.11,79.9 C 40.48,78.43 38.98,76.83 37.65,75.09 C 37.89,72.03 37.77,68.93 36.98,65.95 C 36.22,63.04 35.51,60.12 34.66,57.24 z"
       id="path65"
       style="opacity:1;fill:#b74423" />
  </g>
  <g
     id="#543b29ff">
    <path
       d="M 58.06,61.91 C 58.11,60.03 58.52,58.2 58.84,56.35 C 60.65,57.18 62.46,58.03 64.26,58.89 C 63.48,61.54 62.83,64.35 60.84,66.41 C 59.86,64.96 58.4,63.68 58.06,61.91 z"
       id="path68"
       style="opacity:1;fill:#543b29" />
  </g>
  <g
     id="#88922ffe">
    <path
       d="M 21.97,64.96 C 24.41,62.06 27.73,60.13 30.72,57.87 C 31.86,60.44 32.96,63.02 34.02,65.61 C 29.91,68.11 26.84,73.87 21.39,72.81 C 21.32,70.23 20.22,67.21 21.97,64.96 z"
       id="path71"
       style="opacity:1;fill:#88922f" />
  </g>
  <g
     id="#7e5a2eff">
    <path
       d="M 34.02,65.61 C 34.76,65.7 36.24,65.87 36.98,65.95 C 37.77,68.93 37.89,72.03 37.65,75.09 C 33.59,78.95 29.36,82.67 25.92,87.11 C 28.44,92.49 31.03,97.82 33.35,103.29 C 36.64,98.04 34.96,91.32 37.99,85.98 C 39.17,83.83 40.57,81.8 42.11,79.9 C 43.85,78.15 45.71,76.53 47.65,75.02 C 48.14,76.09 48.64,77.17 49.13,78.24 C 46.7,80.75 43.83,82.88 41.81,85.76 C 40.32,88.81 40.38,92.32 39.58,95.58 C 38.38,98.63 37.15,101.71 35.38,104.49 C 34.58,105.78 32.77,105.92 31.41,105.69 C 29.97,104.61 29.55,102.71 28.85,101.15 C 27.15,96.34 25.18,91.65 23.23,86.95 C 24.71,84.88 26.24,82.83 28.06,81.05 C 31.66,78.39 35.52,75.4 37.06,71.02 C 36.67,69.49 35.26,68.51 34.39,67.26 C 34.3,66.85 34.12,66.02 34.02,65.61 z"
       id="path74"
       style="opacity:1;fill:#7e5a2e" />
  </g>
  <g
     id="#312b1bff">
    <path
       d="M 24.65,75.95 C 27.79,72.93 31.21,70.22 34.39,67.26 C 35.26,68.51 36.67,69.49 37.06,71.02 C 35.52,75.4 31.66,78.39 28.06,81.05 C 26.93,81.42 25.8,81.8 24.68,82.19 C 24.63,80.11 24.64,78.03 24.65,75.95 z"
       id="path77"
       style="opacity:1;fill:#312b1b" />
  </g>
  <g
     id="#6f6a62ff">
    <path
       d="M 67.73,81.09 C 69.9,77.09 72.04,72.07 77.15,71.36 C 77.57,71.77 78.42,72.6 78.84,73.02 C 77.14,73.13 75.37,73.11 73.78,73.78 C 72.13,76.12 71.72,79.02 71.08,81.74 C 76.8,83.72 83.44,85.22 88.99,81.86 C 89.29,82.73 89.58,83.61 89.86,84.49 C 90.43,86.85 90.87,89.31 90.6,91.75 L 90.28,92.25 C 89.01,90.28 87.71,88.33 86.22,86.52 C 83.04,84.3 79.06,84.79 75.4,84.72 C 72.52,84.32 69.52,83.57 67.73,81.09 z"
       id="path80"
       style="opacity:1;fill:#6f6a62" />
  </g>
  <g
     id="#908b8ffd">
    <path
       d="M 73.78,73.78 C 75.37,73.11 77.14,73.13 78.84,73.02 C 80.86,73.76 82.88,74.49 84.95,75.09 C 87.35,76.58 88.15,79.34 88.99,81.86 C 83.44,85.22 76.8,83.72 71.08,81.74 C 71.72,79.02 72.13,76.12 73.78,73.78 M 74.45,74.33 C 74.21,76.47 74.12,78.62 74.16,80.77 C 77.3,82.04 80.98,82.56 84.04,80.79 C 83.79,76.12 78.53,74.02 74.45,74.33 z"
       id="path83"
       style="opacity:1;fill:#908b8f" />
  </g>
  <g
     id="#664e46b0">
    <path
       d="M 78.84,73.02 C 80.24,73 81.64,72.97 83.04,72.92 C 85.91,72.87 88.8,72.95 91.63,73.49 C 95.18,74.2 98.24,76.32 101.73,77.19 C 105.74,77.97 109.86,78.13 113.78,79.32 C 118,80.6 121.93,82.64 126.06,84.19 C 123.37,84.43 120.64,84.67 117.97,84.18 C 115.36,82.84 113.43,80.2 110.31,79.91 C 106.59,79.14 102.79,79.02 99.04,78.51 C 94.68,76.17 89.93,74.88 84.95,75.09 C 82.88,74.49 80.86,73.76 78.84,73.02 z"
       id="path86"
       style="opacity:0.68999999;fill:#664e46" />
  </g>
  <g
     id="#acc3c3fb">
    <path
       d="M 74.45,74.33 C 78.53,74.02 83.79,76.12 84.04,80.79 C 80.98,82.56 77.3,82.04 74.16,80.77 C 74.12,78.62 74.21,76.47 74.45,74.33 z"
       id="path89"
       style="opacity:1;fill:#acc3c3" />
  </g>
  <g
     id="#a56332ff">
    <path
       d="M 25.92,87.11 C 29.36,82.67 33.59,78.95 37.65,75.09 C 38.98,76.83 40.48,78.43 42.11,79.9 C 40.57,81.8 39.17,83.83 37.99,85.98 C 34.96,91.32 36.64,98.04 33.35,103.29 C 31.03,97.82 28.44,92.49 25.92,87.11 z"
       id="path92"
       style="opacity:1;fill:#a56332" />
  </g>
  <g
     id="#a55a59fb">
    <path
       d="M 84.95,75.09 C 89.93,74.88 94.68,76.17 99.04,78.51 C 95.79,80.21 92.72,82.21 89.86,84.49 C 89.58,83.61 89.29,82.73 88.99,81.86 C 88.15,79.34 87.35,76.58 84.95,75.09 z"
       id="path95"
       style="opacity:1;fill:#a55a59" />
  </g>
  <g
     id="#32281e73">
    <path
       d="M 101.73,77.19 C 104.57,77.31 107.4,77.11 110.24,77.04 C 114.61,76.76 118.6,78.38 122.29,80.54 C 130.77,83.55 139.14,87.62 145.51,94.12 C 151.49,99.65 154.73,107.19 159.04,113.92 C 159.14,114.62 159.33,116.02 159.43,116.71 C 159.35,122.06 160.94,128.39 156.91,132.75 L 155.99,133.17 L 156.36,132.22 C 159.18,126.61 159.09,119.88 156.77,114.12 C 152.97,106.14 148.04,98.5 141.2,92.79 C 139.36,91.23 137.2,90.11 134.96,89.26 C 132.6,86.64 129.78,84.24 126.06,84.19 C 121.93,82.64 118,80.6 113.78,79.32 C 109.86,78.13 105.74,77.97 101.73,77.19 z"
       id="path98"
       style="opacity:0.45;fill:#32281e" />
  </g>
  <g
     id="#7c7a2cff">
    <path
       d="M 49.13,78.24 C 51.85,78.22 54.68,77.83 57.31,78.69 C 58.87,79.74 58.67,81.78 59,83.4 C 56.95,83.82 54.89,84.22 52.85,84.71 C 47.5,86.57 47.28,92.69 44.99,96.99 C 43.21,98.16 41.32,96 39.58,95.58 C 40.38,92.32 40.32,88.81 41.81,85.76 C 43.83,82.88 46.7,80.75 49.13,78.24 z"
       id="path101"
       style="opacity:1;fill:#7c7a2c" />
  </g>
  <g
     id="#b9896df7">
    <path
       d="M 89.86,84.49 C 92.72,82.21 95.79,80.21 99.04,78.51 C 102.79,79.02 106.59,79.14 110.31,79.91 C 107.55,79.77 104.78,79.75 102.03,79.94 C 99.08,79.95 95.95,80.64 94.19,83.24 C 91,86.12 93.91,90.67 92.03,94.08 C 91.47,95.98 89.75,98.01 90.92,100.01 C 92.92,103.77 95.81,107.26 99.53,109.41 C 104.11,110.6 108.98,109.33 113.59,110.52 C 116.02,111.24 118.01,112.88 120.14,114.19 C 117.03,113.38 114.02,112.21 110.87,111.54 C 106.81,110.73 102.68,111.61 98.66,112.21 C 95.23,109.01 91.17,106.06 89.32,101.6 C 88.59,98.28 90.12,95.01 90.6,91.75 C 90.87,89.31 90.43,86.85 89.86,84.49 z"
       id="path104"
       style="opacity:0.97000002;fill:#b9896d" />
  </g>
  <g
     id="#dfa877ff">
    <path
       d="M 94.19,83.24 C 95.95,80.64 99.08,79.95 102.03,79.94 C 101.52,80.17 100.49,80.62 99.98,80.84 C 94.13,83.4 94.13,90.35 93.86,95.76 C 93.08,101.2 97.28,105.79 101.29,108.84 C 105.09,109.8 109.06,109.06 112.93,109.44 C 118.12,109.74 122.31,114.46 127.73,113.04 C 127.67,110.57 127.63,108.1 127.59,105.63 C 130.76,104.71 133.94,103.56 137.28,103.53 C 140.14,103.64 142.57,105.38 144.97,106.75 C 141.08,106.52 137.18,106.71 133.34,107.39 C 132.18,109.94 131.14,112.55 130.63,115.32 C 127.11,115.4 123.53,115.25 120.14,114.19 C 118.01,112.88 116.02,111.24 113.59,110.52 C 108.98,109.33 104.11,110.6 99.53,109.41 C 95.81,107.26 92.92,103.77 90.92,100.01 C 89.75,98.01 91.47,95.98 92.03,94.08 C 93.91,90.67 91,86.12 94.19,83.24 z"
       id="path107"
       style="opacity:1;fill:#dfa877" />
  </g>
  <g
     id="#f9d1afff">
    <path
       d="M 102.03,79.94 C 104.78,79.75 107.55,79.77 110.31,79.91 C 113.43,80.2 115.36,82.84 117.97,84.18 C 120.64,84.67 123.37,84.43 126.06,84.19 C 126.7,84.76 127.35,85.32 128.01,85.87 C 127.38,85.95 126.1,86.12 125.46,86.2 C 125.03,88.05 124.6,89.89 124.19,91.75 C 119.8,91.97 115.99,89.62 112.09,87.98 C 106.04,90.63 100.6,94.84 97.91,101.05 C 96.89,97.65 95.14,93.96 96.58,90.43 C 97.8,87.27 99.21,84.16 99.98,80.84 C 100.49,80.62 101.52,80.17 102.03,79.94 z"
       id="path110"
       style="opacity:1;fill:#f9d1af" />
  </g>
  <g
     id="#5d4935ff">
    <path
       d="M 24.68,82.19 C 25.8,81.8 26.93,81.42 28.06,81.05 C 26.24,82.83 24.71,84.88 23.23,86.95 C 25.18,91.65 27.15,96.34 28.85,101.15 C 29.55,102.71 29.97,104.61 31.41,105.69 C 32.77,105.92 34.58,105.78 35.38,104.49 C 37.15,101.71 38.38,98.63 39.58,95.58 C 41.32,96 43.21,98.16 44.99,96.99 C 47.28,92.69 47.5,86.57 52.85,84.71 C 51.86,86.13 50.84,87.53 49.99,89.04 C 47.72,92.69 49.49,97.86 45.85,100.79 C 43.41,100.64 40.97,100.58 38.54,100.54 C 38.04,102.65 37.56,104.76 37.08,106.86 C 38.02,107.76 38.96,108.66 39.94,109.52 C 38.22,109.92 36.46,110.23 34.83,110.92 C 32.99,112.93 32.44,115.72 31.72,118.26 C 30.32,114.45 28.51,110.81 26.91,107.08 C 25.61,99.55 21.94,92.7 20.74,85.16 C 22.03,84.14 23.31,83.1 24.68,82.19 z"
       id="path113"
       style="opacity:1;fill:#5d4935" />
  </g>
  <g
     id="#eec59cff">
    <path
       d="M 93.86,95.76 C 94.13,90.35 94.13,83.4 99.98,80.84 C 99.21,84.16 97.8,87.27 96.58,90.43 C 95.14,93.96 96.89,97.65 97.91,101.05 C 100.6,94.84 106.04,90.63 112.09,87.98 C 115.99,89.62 119.8,91.97 124.19,91.75 C 124.6,89.89 125.03,88.05 125.46,86.2 C 126.1,86.12 127.38,85.95 128.01,85.87 C 129.79,87.25 131.78,88.32 133.89,89.1 C 140.33,93.98 146.1,99.67 150.8,106.27 C 150.72,107.97 150.63,109.68 150.53,111.38 C 149.44,111.25 148.36,111.08 147.29,110.85 C 146.96,112.49 146.63,114.13 146.31,115.78 C 146.63,112.7 146.51,109.52 144.97,106.75 C 142.57,105.38 140.14,103.64 137.28,103.53 C 133.94,103.56 130.76,104.71 127.59,105.63 C 127.63,108.1 127.67,110.57 127.73,113.04 C 122.31,114.46 118.12,109.74 112.93,109.44 C 109.06,109.06 105.09,109.8 101.29,108.84 C 97.28,105.79 93.08,101.2 93.86,95.76 M 104.32,95.34 C 102.49,97.59 103.06,100.69 103.46,103.33 C 104,103.6 105.08,104.13 105.62,104.4 C 109.81,105.93 114.39,105.55 118.65,104.55 C 122.49,103.93 123.92,98.84 122.25,95.75 C 119.59,93.16 116.18,91.55 112.98,89.74 C 109.95,91.34 106.79,92.9 104.32,95.34 z"
       id="path116"
       style="opacity:1;fill:#eec59c" />
  </g>
  <g
     id="#725a45b1">
    <path
       d="M 126.06,84.19 C 129.78,84.24 132.6,86.64 134.96,89.26 L 133.89,89.1 C 131.78,88.32 129.79,87.25 128.01,85.87 C 127.35,85.32 126.7,84.76 126.06,84.19 z"
       id="path119"
       style="opacity:0.68999999;fill:#725a45" />
  </g>
  <g
     id="#4a3b2aff">
    <path
       d="M 52.85,84.71 C 54.51,85.04 56.18,85.34 57.85,85.65 C 57.84,88.99 55.32,91.34 53.9,94.13 C 54.21,95.94 54.96,97.63 55.59,99.35 C 52.42,98.84 49.03,99.35 46.81,101.86 C 43.88,104.13 41.18,107.03 41.8,111.07 C 41.33,110.68 40.4,109.9 39.94,109.52 C 38.96,108.66 38.02,107.76 37.08,106.86 C 37.56,104.76 38.04,102.65 38.54,100.54 C 40.97,100.58 43.41,100.64 45.85,100.79 C 49.49,97.86 47.72,92.69 49.99,89.04 C 50.84,87.53 51.86,86.13 52.85,84.71 z"
       id="path122"
       style="opacity:1;fill:#4a3b2a" />
  </g>
  <g
     id="#5a145cff">
    <path
       d="M 70,89.56 C 71.87,88.03 73.66,86.4 75.4,84.72 C 79.06,84.79 83.04,84.3 86.22,86.52 C 84.67,88.58 83.47,90.88 82.95,93.41 C 82.1,92.38 81.34,91.29 80.56,90.22 C 77.9,89.89 75.22,89.71 72.54,89.67 C 71.9,89.64 70.63,89.59 70,89.56 z"
       id="path125"
       style="opacity:1;fill:#5a145c" />
  </g>
  <g
     id="#692f17ff">
    <path
       d="M 86.22,86.52 C 87.71,88.33 89.01,90.28 90.28,92.25 C 88.66,93.5 86.92,94.59 85.21,95.71 C 84.65,95.14 83.51,93.99 82.95,93.41 C 83.47,90.88 84.67,88.58 86.22,86.52 z"
       id="path128"
       style="opacity:1;fill:#692f17" />
  </g>
  <g
     id="#8c422aff">
    <path
       d="M 63.34,88.41 C 65.55,88.85 67.76,89.28 70,89.56 C 70.63,89.59 71.9,89.64 72.54,89.67 C 72.21,91.08 71.81,92.47 71.66,93.91 C 74.59,96.4 76.42,99.7 76.77,103.56 C 79.21,104.33 81.77,104.71 84.32,104.33 C 82.28,105.23 80.18,106.01 78.05,106.67 C 80.82,106.97 84.37,106.27 86.32,108.77 C 87.6,110.02 87.51,111.86 87.75,113.5 C 84.9,114.15 82.03,114.75 79.11,114.91 C 76.13,110.19 73.95,104.93 70.13,100.77 C 68.75,103.07 67.62,105.5 66.77,108.04 C 66.49,105.24 66.5,102.42 66.48,99.61 C 65.86,99.51 64.61,99.3 63.98,99.2 C 62.03,98.88 60.08,98.58 58.12,98.29 C 57.7,94.19 60.92,91.27 63.34,88.41 z"
       id="path131"
       style="opacity:1;fill:#8c422a" />
  </g>
  <g
     id="#7e6850c1">
    <path
       d="M 133.89,89.1 L 134.96,89.26 C 137.2,90.11 139.36,91.23 141.2,92.79 C 148.04,98.5 152.97,106.14 156.77,114.12 C 159.09,119.88 159.18,126.61 156.36,132.22 C 155.56,132.24 153.95,132.29 153.14,132.31 C 153.79,131.55 154.41,130.77 155.01,129.98 C 155.66,128.47 156.34,126.92 156.43,125.26 C 156.44,121.83 156.86,118.04 154.79,115.06 C 152.97,112.36 151.85,109.31 150.8,106.27 C 146.1,99.67 140.33,93.98 133.89,89.1 z"
       id="path134"
       style="opacity:0.76000001;fill:#7e6850" />
  </g>
  <g
     id="#9f1ac3ff">
    <path
       d="M 72.54,89.67 C 75.22,89.71 77.9,89.89 80.56,90.22 C 81.34,91.29 82.1,92.38 82.95,93.41 C 83.51,93.99 84.65,95.14 85.21,95.71 C 85.28,98.46 85.26,101.21 85.17,103.96 L 84.32,104.33 C 81.77,104.71 79.21,104.33 76.77,103.56 C 76.42,99.7 74.59,96.4 71.66,93.91 C 71.81,92.47 72.21,91.08 72.54,89.67 z"
       id="path137"
       style="opacity:1;fill:#9f1ac3" />
  </g>
  <g
     id="#e8a76bff">
    <path
       d="M 104.32,95.34 C 106.79,92.9 109.95,91.34 112.98,89.74 C 116.18,91.55 119.59,93.16 122.25,95.75 C 123.92,98.84 122.49,103.93 118.65,104.55 C 114.39,105.55 109.81,105.93 105.62,104.4 C 109.29,104.34 113.12,104.46 116.51,102.8 C 118.26,101.15 120.41,99.12 119.73,96.45 C 117.81,94.47 115.05,93.03 112.24,93.36 C 109.98,93.75 107.97,94.93 105.92,95.88 C 105.78,98.72 105.67,101.56 105.62,104.4 C 105.08,104.13 104,103.6 103.46,103.33 C 103.06,100.69 102.49,97.59 104.32,95.34 z"
       id="path140"
       style="opacity:1;fill:#e8a76b" />
  </g>
  <g
     id="#c56060ff">
    <path
       d="M 90.28,92.25 L 90.6,91.75 C 90.12,95.01 88.59,98.28 89.32,101.6 C 91.17,106.06 95.23,109.01 98.66,112.21 C 97.21,114.99 96.75,118.1 97.58,121.15 C 96.34,122.21 95.11,123.29 93.88,124.36 L 93.78,123.73 C 92.81,122.89 92.11,121.45 90.72,121.28 C 86.7,120.66 82.53,120.61 78.75,118.92 C 82.9,116.35 87.69,115.16 92,112.91 C 91.17,109.23 89.76,105.71 87.87,102.45 C 86.97,102.96 86.08,103.47 85.17,103.96 C 85.26,101.21 85.28,98.46 85.21,95.71 C 86.92,94.59 88.66,93.5 90.28,92.25 z"
       id="path143"
       style="opacity:1;fill:#c56060" />
  </g>
  <g
     id="#f19b22ff">
    <path
       d="M 105.92,95.88 C 107.97,94.93 109.98,93.75 112.24,93.36 C 115.05,93.03 117.81,94.47 119.73,96.45 C 120.41,99.12 118.26,101.15 116.51,102.8 C 113.88,99.3 109.92,97.36 105.92,95.88 z"
       id="path146"
       style="opacity:1;fill:#f19b22" />
  </g>
  <g
     id="#00000011">
    <path
       d="M 145.51,94.12 C 146.13,93.95 147.37,93.62 147.98,93.45 C 151.57,96.66 153.67,101.17 157.43,104.22 C 158.75,102.58 160.06,100.94 161.37,99.31 C 163.58,99.12 165.79,98.92 168,98.73 L 168,138.41 C 163.85,143.09 160.24,148.69 154.38,151.4 C 149.82,153.66 144.85,154.94 139.86,155.82 C 133.39,156.85 127.8,160.46 121.74,162.72 C 121.34,164.48 120.94,166.25 120.47,168 L 79.26,168 C 86.77,162.47 96.19,161.22 104.59,157.63 C 108.37,156.27 111.96,154.16 115.97,153.58 C 118.67,154.38 119.89,158.23 123,158.23 C 127.05,158.62 127.57,153.65 129.07,150.94 C 137.4,148.3 146.72,148.21 154.16,143.18 C 163.52,137.1 166.47,122.63 159.04,113.92 C 154.73,107.19 151.49,99.65 145.51,94.12 z"
       id="path149"
       style="opacity:0.07000002;fill:#000000" />
  </g>
  <g
     id="#bd6926ff">
    <path
       d="M 105.92,95.88 C 109.92,97.36 113.88,99.3 116.51,102.8 C 113.12,104.46 109.29,104.34 105.62,104.4 C 105.67,101.56 105.78,98.72 105.92,95.88 z"
       id="path152"
       style="opacity:1;fill:#bd6926" />
  </g>
  <g
     id="#13417eff">
    <path
       d="M 46.81,101.86 C 49.03,99.35 52.42,98.84 55.59,99.35 C 56.13,99.54 57.22,99.94 57.76,100.14 C 58.18,100.87 58.61,101.61 59.07,102.33 C 59.6,103.2 60.14,104.07 60.65,104.95 C 58.12,104.78 55.57,104.82 53.03,104.98 C 52.56,108.32 52.29,111.75 53.03,115.08 C 53.33,116.4 53.68,117.71 54.02,119.03 C 53.4,119.2 52.17,119.53 51.55,119.7 C 50.16,119.86 48.77,119.94 47.37,120 C 49.05,114.01 47.29,107.87 46.81,101.86 z"
       id="path155"
       style="opacity:1;fill:#13417e" />
  </g>
  <g
     id="#8a6a4dff">
    <path
       d="M 63.98,99.2 C 64.61,99.3 65.86,99.51 66.48,99.61 C 66.5,102.42 66.49,105.24 66.77,108.04 C 67.45,110.36 68.22,112.65 68.92,114.97 C 67.11,116.63 65.3,118.31 63.28,119.73 C 60.37,121.37 57.61,123.52 56.92,127.01 C 54.81,126.72 52.69,126.48 50.57,126.31 L 50.63,125.38 C 54.91,122.38 59.25,119.46 63.53,116.47 C 64.32,115.7 65.77,115.09 65.65,113.79 C 65.69,109.35 65.28,104.77 63.26,100.74 C 63.44,100.36 63.8,99.59 63.98,99.2 z"
       id="path158"
       style="opacity:1;fill:#8a6a4d" />
  </g>
  <g
     id="#666970ff">
    <path
       d="M 57.76,100.14 C 59.58,100.44 61.42,100.59 63.26,100.74 C 65.28,104.77 65.69,109.35 65.65,113.79 C 65.77,115.09 64.32,115.7 63.53,116.47 C 59.25,119.46 54.91,122.38 50.63,125.38 C 50.67,123.45 51,121.54 51.55,119.7 C 52.17,119.53 53.4,119.2 54.02,119.03 C 57.83,117.8 61.58,116.25 64.8,113.82 C 64.08,109.52 63.92,104.04 59.07,102.33 C 58.61,101.61 58.18,100.87 57.76,100.14 z"
       id="path161"
       style="opacity:1;fill:#666970" />
  </g>
  <g
     id="#a65e19ff">
    <path
       d="M 70.13,100.77 C 73.95,104.93 76.13,110.19 79.11,114.91 C 75.72,115.03 72.32,114.96 68.92,114.97 C 68.22,112.65 67.45,110.36 66.77,108.04 C 67.62,105.5 68.75,103.07 70.13,100.77 z"
       id="path164"
       style="opacity:1;fill:#a65e19" />
  </g>
  <g
     id="#1c2530ff">
    <path
       d="M 41.8,111.07 C 41.18,107.03 43.88,104.13 46.81,101.86 C 47.29,107.87 49.05,114.01 47.37,120 C 42.67,119.89 42.83,114.43 41.8,111.07 z"
       id="path167"
       style="opacity:1;fill:#1c2530" />
  </g>
  <g
     id="#b6473eff">
    <path
       d="M 85.17,103.96 C 86.08,103.47 86.97,102.96 87.87,102.45 C 89.76,105.71 91.17,109.23 92,112.91 C 87.69,115.16 82.9,116.35 78.75,118.92 C 82.53,120.61 86.7,120.66 90.72,121.28 C 92.11,121.45 92.81,122.89 93.78,123.73 C 91.62,125.01 89.19,125.87 86.65,125.42 C 82.16,124.97 77.55,124.72 73.2,126.15 C 73.65,125.12 74.1,124.09 74.56,123.06 C 72.59,120.42 70.71,117.73 68.92,114.97 C 72.32,114.96 75.72,115.03 79.11,114.91 C 82.03,114.75 84.9,114.15 87.75,113.5 C 87.51,111.86 87.6,110.02 86.32,108.77 C 84.37,106.27 80.82,106.97 78.05,106.67 C 80.18,106.01 82.28,105.23 84.32,104.33 L 85.17,103.96 z"
       id="path170"
       style="opacity:1;fill:#b6473e" />
  </g>
  <g
     id="#3c2d1cff">
    <path
       d="M 23.52,103.07 C 24.65,104.4 25.81,105.71 26.91,107.08 C 28.51,110.81 30.32,114.45 31.72,118.26 C 31.87,118.74 32.17,119.7 32.32,120.18 C 31.04,121.51 29.73,122.82 28.53,124.23 C 26.62,122.74 24.52,121.37 22,121.43 C 21.93,118.62 22.08,115.81 22.26,113.01 C 22.85,109.72 23.3,106.4 23.52,103.07 z"
       id="path173"
       style="opacity:1;fill:#3c2d1c" />
  </g>
  <g
     id="#3b59acff">
    <path
       d="M 59.07,102.33 C 63.92,104.04 64.08,109.52 64.8,113.82 C 61.58,116.25 57.83,117.8 54.02,119.03 C 53.68,117.71 53.33,116.4 53.03,115.08 C 55.77,114.95 58.73,115.39 61.28,114.2 C 63.99,111.75 62.12,107.6 60.65,104.95 C 60.14,104.07 59.6,103.2 59.07,102.33 z"
       id="path176"
       style="opacity:1;fill:#3b59ac" />
  </g>
  <g
     id="#245cfbff">
    <path
       d="M 53.03,104.98 C 55.57,104.82 58.12,104.78 60.65,104.95 C 62.12,107.6 63.99,111.75 61.28,114.2 C 58.73,115.39 55.77,114.95 53.03,115.08 C 52.29,111.75 52.56,108.32 53.03,104.98 z"
       id="path179"
       style="opacity:1;fill:#245cfb" />
  </g>
  <g
     id="#dbb38cff">
    <path
       d="M 150.8,106.27 C 151.85,109.31 152.97,112.36 154.79,115.06 C 156.86,118.04 156.44,121.83 156.43,125.26 C 155.42,122.61 155.06,117.79 151.17,118.32 C 147.12,120.36 144.22,124.06 141.86,127.82 C 144.99,129.75 148.62,130.49 152.27,130.38 C 146.82,131.2 141.56,132.85 136.27,134.33 C 131.66,135.41 126.55,136.4 122.12,134.16 C 125.07,130.65 129.33,128.56 133.39,126.57 C 135.75,125.34 138.66,124.63 140.12,122.19 C 141.74,119.66 143.67,117.3 146.31,115.78 C 146.63,114.13 146.96,112.49 147.29,110.85 C 148.36,111.08 149.44,111.25 150.53,111.38 C 150.63,109.68 150.72,107.97 150.8,106.27 z"
       id="path182"
       style="opacity:1;fill:#dbb38c" />
  </g>
  <g
     id="#db7e1afe">
    <path
       d="M 133.34,107.39 C 137.18,106.71 141.08,106.52 144.97,106.75 C 146.51,109.52 146.63,112.7 146.31,115.78 C 143.67,117.3 141.74,119.66 140.12,122.19 C 138.66,124.63 135.75,125.34 133.39,126.57 C 133.13,126.22 132.61,125.53 132.35,125.19 C 131.68,121.91 131.12,118.62 130.63,115.32 C 131.14,112.55 132.18,109.94 133.34,107.39 z"
       id="path185"
       style="opacity:1;fill:#db7e1a" />
  </g>
  <g
     id="#4c5b4eff">
    <path
       d="M 34.83,110.92 C 36.46,110.23 38.22,109.92 39.94,109.52 C 40.4,109.9 41.33,110.68 41.8,111.07 C 42.83,114.43 42.67,119.89 47.37,120 C 48.77,119.94 50.16,119.86 51.55,119.7 C 51,121.54 50.67,123.45 50.63,125.38 L 50.57,126.31 C 49.95,126.25 48.71,126.13 48.09,126.08 C 42.8,124.22 37.7,121.83 32.32,120.18 C 32.17,119.7 31.87,118.74 31.72,118.26 C 32.44,115.72 32.99,112.93 34.83,110.92 M 35.34,118.61 C 36.43,120.59 38.99,119.49 40.8,119.77 C 41.52,116.94 42.32,112.08 38.81,110.99 C 34.75,110.17 32.95,115.94 35.34,118.61 z"
       id="path188"
       style="opacity:1;fill:#4c5b4e" />
  </g>
  <g
     id="#6e6b74ff">
    <path
       d="M 35.34,118.61 C 32.95,115.94 34.75,110.17 38.81,110.99 C 42.32,112.08 41.52,116.94 40.8,119.77 C 38.99,119.49 36.43,120.59 35.34,118.61 z"
       id="path191"
       style="opacity:1;fill:#6e6b74" />
  </g>
  <g
     id="#634731de">
    <path
       d="M 98.66,112.21 C 102.68,111.61 106.81,110.73 110.87,111.54 C 114.02,112.21 117.03,113.38 120.14,114.19 C 123.53,115.25 127.11,115.4 130.63,115.32 C 131.12,118.62 131.68,121.91 132.35,125.19 L 131.9,124.57 C 130.78,122.38 129.99,120.05 129.17,117.74 C 119.73,115.93 109.99,113.66 100.37,115.2 C 100.06,117.26 99.73,119.33 99.41,121.39 C 98.96,121.33 98.04,121.21 97.58,121.15 C 96.75,118.1 97.21,114.99 98.66,112.21 z"
       id="path194"
       style="opacity:0.87000002;fill:#634731" />
  </g>
  <g
     id="#302514b6">
    <path
       d="M 20.46,127.16 C 20.44,122.03 20.49,116.81 22.3,111.94 L 22.26,113.01 C 22.08,115.81 21.93,118.62 22,121.43 C 22.68,128.75 26.28,135.56 30.56,141.41 C 35.26,146.68 40.99,151.71 48.12,153.13 C 54.55,157.25 62.73,158.38 70.03,156.1 C 74.17,154.77 78.32,153.49 82.58,152.64 C 88.16,151.5 92.94,148.28 98.1,146.05 C 106.69,142.83 115.45,140.08 124.21,137.38 C 133.92,136.34 144.33,137.32 153.14,132.31 C 153.95,132.29 155.56,132.24 156.36,132.22 L 155.99,133.17 C 152.58,134.92 149.25,137.14 145.31,137.46 C 139.62,138.03 133.88,138.47 128.39,140.2 C 122.05,142.21 115.17,142.18 109.08,145.04 C 103.74,147.47 98.04,149.02 92.77,151.62 C 87.44,154.26 81.19,153.52 75.79,155.97 C 68.79,159.12 60.79,159.01 53.37,157.79 C 45.06,154.87 36.7,150.87 30.86,144.05 C 26.23,139.19 24.1,132.68 20.46,127.16 z"
       id="path197"
       style="opacity:0.70999995;fill:#302514" />
  </g>
  <g
     id="#0000002e">
    <path
       d="M 159.04,113.92 C 166.47,122.63 163.52,137.1 154.16,143.18 C 146.72,148.21 137.4,148.3 129.07,150.94 C 127.57,153.65 127.05,158.62 123,158.23 C 119.89,158.23 118.67,154.38 115.97,153.58 C 111.96,154.16 108.37,156.27 104.59,157.63 C 96.19,161.22 86.77,162.47 79.26,168 L 47.68,168 C 42.45,163.79 36.27,161.06 30.73,157.31 C 28.08,155.43 24.62,154.08 23.17,150.96 C 20.41,143.55 18.03,135.75 19.09,127.74 C 19.76,135.02 24.12,141.07 26.18,147.92 C 27.1,152.49 32.51,152.92 35.76,155.27 C 42.49,159.74 50.23,162.62 58.26,163.63 C 66.08,164.41 73.7,161.94 81.22,160.18 C 92.71,156.87 103.63,151.91 114.79,147.66 C 120.51,145.23 126.91,146.56 132.76,144.72 C 139.48,142.65 146.88,142.75 153.07,139.09 C 157.64,136.94 160.03,132.11 161.41,127.51 C 162.62,123.78 160.42,120.21 159.43,116.71 C 159.33,116.02 159.14,114.62 159.04,113.92 z"
       id="path200"
       style="opacity:0.18000004;fill:#000000" />
  </g>
  <g
     id="#8f3f20ff">
    <path
       d="M 63.28,119.73 C 65.3,118.31 67.11,116.63 68.92,114.97 C 70.71,117.73 72.59,120.42 74.56,123.06 C 74.1,124.09 73.65,125.12 73.2,126.15 C 70.55,125.87 67.49,126.42 65.19,124.86 C 64.36,123.23 63.87,121.45 63.28,119.73 z"
       id="path203"
       style="opacity:1;fill:#8f3f20" />
  </g>
  <g
     id="#150e0899">
    <path
       d="M 100.37,115.2 C 109.99,113.66 119.73,115.93 129.17,117.74 C 129.99,120.05 130.78,122.38 131.9,124.57 C 124.73,130.12 115.15,130.13 106.53,129.53 C 106.1,128.58 105.71,127.63 105.34,126.67 C 112.41,127.45 119.93,127.38 126.33,123.86 C 124.76,122.19 122.93,120.74 120.62,120.32 C 114.94,119 109.06,116.93 103.19,118.34 C 103.46,120.62 103.84,122.89 104.34,125.13 C 103.73,125.23 102.52,125.43 101.91,125.53 C 101.01,124.19 100.21,122.79 99.41,121.39 C 99.73,119.33 100.06,117.26 100.37,115.2 z"
       id="path206"
       style="opacity:0.6;fill:#150e08" />
  </g>
  <g
     id="#00000045">
    <path
       d="M 103.19,118.34 C 109.06,116.93 114.94,119 120.62,120.32 C 122.93,120.74 124.76,122.19 126.33,123.86 C 119.93,127.38 112.41,127.45 105.34,126.67 C 104.17,126.38 103.02,125.99 101.91,125.53 C 102.52,125.43 103.73,125.23 104.34,125.13 C 103.84,122.89 103.46,120.62 103.19,118.34 z"
       id="path209"
       style="opacity:0.27000002;fill:#000000" />
  </g>
  <g
     id="#efcdaaff">
    <path
       d="M 141.86,127.82 C 144.22,124.06 147.12,120.36 151.17,118.32 C 155.06,117.79 155.42,122.61 156.43,125.26 C 156.34,126.92 155.66,128.47 155.01,129.98 C 154.33,130.08 152.96,130.28 152.27,130.38 C 148.62,130.49 144.99,129.75 141.86,127.82 z"
       id="path212"
       style="opacity:1;fill:#efcdaa" />
  </g>
  <g
     id="#376928ff">
    <path
       d="M 32.32,120.18 C 37.7,121.83 42.8,124.22 48.09,126.08 C 47.67,127.14 47.24,128.2 46.82,129.27 L 46.43,128.74 C 42.29,124.08 35.79,126.2 30.5,126.87 C 29.84,126.85 28.51,126.79 27.85,126.76 C 28.02,126.13 28.36,124.86 28.53,124.23 C 29.73,122.82 31.04,121.51 32.32,120.18 z"
       id="path215"
       style="opacity:1;fill:#376928" />
  </g>
  <g
     id="#a86222ff">
    <path
       d="M 56.92,127.01 C 57.61,123.52 60.37,121.37 63.28,119.73 C 63.87,121.45 64.36,123.23 65.19,124.86 C 67.49,126.42 70.55,125.87 73.2,126.15 C 66.16,129.01 64.15,137.07 58.85,141.86 C 55.4,145.59 49.87,145.6 45.9,148.54 C 46.45,149.8 46.99,151.08 47.49,152.37 C 43.38,149.57 38.76,147.41 35.41,143.61 C 32.2,139.93 28.15,136.48 27.02,131.51 C 34.06,132.03 41.11,133.54 48.15,132.04 C 50.84,131.74 53.5,131.21 56.12,130.51 C 56.37,129.34 56.64,128.17 56.92,127.01 z"
       id="path218"
       style="opacity:1;fill:#a86222" />
  </g>
  <g
     id="#634817fe">
    <path
       d="M 22,121.43 C 24.52,121.37 26.62,122.74 28.53,124.23 C 28.36,124.86 28.02,126.13 27.85,126.76 C 27.52,128.33 27.24,129.91 27.02,131.51 C 28.15,136.48 32.2,139.93 35.41,143.61 C 38.76,147.41 43.38,149.57 47.49,152.37 L 48.12,153.13 C 40.99,151.71 35.26,146.68 30.56,141.41 C 26.28,135.56 22.68,128.75 22,121.43 z"
       id="path221"
       style="opacity:1;fill:#634817" />
  </g>
  <g
     id="#c1b781fe">
    <path
       d="M 93.88,124.36 C 95.11,123.29 96.34,122.21 97.58,121.15 C 98.04,121.21 98.96,121.33 99.41,121.39 C 100.21,122.79 101.01,124.19 101.91,125.53 C 103.02,125.99 104.17,126.38 105.34,126.67 C 105.71,127.63 106.1,128.58 106.53,129.53 L 106.93,130.36 L 106.21,130.83 C 107.22,131.27 108.28,131.55 109.39,131.6 L 108.86,132.83 C 106.01,132.04 103.21,131.12 100.42,130.16 C 100.2,132.2 99.97,134.23 99.76,136.27 C 99.18,136.03 98.03,135.54 97.46,135.29 C 96.2,132.62 94.6,130.09 93.84,127.21 C 93.85,126.5 93.87,125.07 93.88,124.36 z"
       id="path224"
       style="opacity:1;fill:#c1b781" />
  </g>
  <g
     id="#b87a41ff">
    <path
       d="M 93.78,123.73 L 93.88,124.36 C 93.87,125.07 93.85,126.5 93.84,127.21 L 92.96,127.3 C 86.9,126.71 79.85,124.32 74.5,128.49 C 69.87,132.33 68.17,138.64 63.36,142.37 C 59.46,146.54 53.52,146.88 48.54,149 C 54.46,154.4 63.26,153.34 70.68,153.3 C 63.31,157.18 55.1,153.19 47.49,152.37 C 46.99,151.08 46.45,149.8 45.9,148.54 C 49.87,145.6 55.4,145.59 58.85,141.86 C 64.15,137.07 66.16,129.01 73.2,126.15 C 77.55,124.72 82.16,124.97 86.65,125.42 C 89.19,125.87 91.62,125.01 93.78,123.73 z"
       id="path227"
       style="opacity:1;fill:#b87a41" />
  </g>
  <g
     id="#957b5eee">
    <path
       d="M 106.53,129.53 C 115.15,130.13 124.73,130.12 131.9,124.57 L 132.35,125.19 C 132.61,125.53 133.13,126.22 133.39,126.57 C 129.33,128.56 125.07,130.65 122.12,134.16 C 126.55,136.4 131.66,135.41 136.27,134.33 C 141.56,132.85 146.82,131.2 152.27,130.38 C 152.96,130.28 154.33,130.08 155.01,129.98 C 154.41,130.77 153.79,131.55 153.14,132.31 C 144.33,137.32 133.92,136.34 124.21,137.38 C 123.58,136.94 122.32,136.06 121.69,135.62 C 121.87,134.16 122.04,132.7 122.2,131.24 C 122.61,131.02 123.44,130.58 123.85,130.36 C 118.21,130.51 112.57,130.4 106.93,130.36 L 106.53,129.53 z"
       id="path230"
       style="opacity:0.93000004;fill:#957b5e" />
  </g>
  <g
     id="#51a523ff">
    <path
       d="M 30.5,126.87 C 35.79,126.2 42.29,124.08 46.43,128.74 C 43.54,130.04 40.44,131.42 37.2,130.8 C 34.48,130.55 32.45,128.57 30.5,126.87 z"
       id="path233"
       style="opacity:1;fill:#51a523" />
  </g>
  <g
     id="#74491bff">
    <path
       d="M 48.09,126.08 C 48.71,126.13 49.95,126.25 50.57,126.31 C 52.69,126.48 54.81,126.72 56.92,127.01 C 56.64,128.17 56.37,129.34 56.12,130.51 C 53.5,131.21 50.84,131.74 48.15,132.04 C 47.73,131.1 47.28,130.18 46.82,129.27 C 47.24,128.2 47.67,127.14 48.09,126.08 z"
       id="path236"
       style="opacity:1;fill:#74491b" />
  </g>
  <g
     id="#c49262ff">
    <path
       d="M 74.5,128.49 C 79.85,124.32 86.9,126.71 92.96,127.3 C 91.39,127.57 89.83,127.89 88.24,128.11 C 85.66,127.9 83.08,127 80.48,127.45 C 74.95,130.41 74.78,137.59 71.04,142.02 C 68.1,144.63 64.59,146.5 61.62,149.09 C 64.31,150.51 67.18,151.56 70.08,152.46 L 70.68,153.3 C 63.26,153.34 54.46,154.4 48.54,149 C 53.52,146.88 59.46,146.54 63.36,142.37 C 68.17,138.64 69.87,132.33 74.5,128.49 z"
       id="path239"
       style="opacity:1;fill:#c49262" />
  </g>
  <g
     id="#07050386">
    <path
       d="M 20.46,127.16 C 24.1,132.68 26.23,139.19 30.86,144.05 C 36.7,150.87 45.06,154.87 53.37,157.79 C 60.79,159.01 68.79,159.12 75.79,155.97 C 81.19,153.52 87.44,154.26 92.77,151.62 C 98.04,149.02 103.74,147.47 109.08,145.04 C 115.17,142.18 122.05,142.21 128.39,140.2 C 133.88,138.47 139.62,138.03 145.31,137.46 C 149.25,137.14 152.58,134.92 155.99,133.17 L 156.91,132.75 C 153.43,139.07 145.33,138.49 139.25,140.12 C 132.79,141.94 126.19,142.91 119.52,143.46 C 105.73,147.26 93,154.19 79.21,158.01 C 71.73,159.56 64.08,161.45 56.4,160.39 C 50.44,159.57 44.37,158.15 39.42,154.56 C 35.21,151.55 30.19,149.09 27.65,144.34 C 24.75,138.86 21.41,133.39 20.46,127.16 z"
       id="path242"
       style="opacity:0.52999998;fill:#070503" />
    <path
       d="M 106.21,130.83 L 106.93,130.36 C 112.57,130.4 118.21,130.51 123.85,130.36 C 123.44,130.58 122.61,131.02 122.2,131.24 C 118.58,131.32 114.97,131.33 111.36,131.54 C 110.87,131.56 109.89,131.58 109.39,131.6 C 108.28,131.55 107.22,131.27 106.21,130.83 z"
       id="path244"
       style="opacity:0.52999998;fill:#070503" />
  </g>
  <g
     id="#7e7520ff">
    <path
       d="M 27.85,126.76 C 28.51,126.79 29.84,126.85 30.5,126.87 C 32.45,128.57 34.48,130.55 37.2,130.8 C 40.44,131.42 43.54,130.04 46.43,128.74 L 46.82,129.27 C 47.28,130.18 47.73,131.1 48.15,132.04 C 41.11,133.54 34.06,132.03 27.02,131.51 C 27.24,129.91 27.52,128.33 27.85,126.76 z"
       id="path247"
       style="opacity:1;fill:#7e7520" />
  </g>
  <g
     id="#d1a67aff">
    <path
       d="M 80.48,127.45 C 83.08,127 85.66,127.9 88.24,128.11 C 88.23,130.03 88.19,131.96 88.23,133.88 C 86.58,131.83 84.46,130.09 81.7,130.14 C 81.17,133.66 81.28,137.43 79.7,140.69 C 77.16,144.42 72.43,145.68 69.46,149 C 72.98,151.18 77.22,151.07 81.21,151.09 C 77.56,151.9 73.81,152.22 70.08,152.46 C 67.18,151.56 64.31,150.51 61.62,149.09 C 64.59,146.5 68.1,144.63 71.04,142.02 C 74.78,137.59 74.95,130.41 80.48,127.45 z"
       id="path250"
       style="opacity:1;fill:#d1a67a" />
  </g>
  <g
     id="#73a74ffe">
    <path
       d="M 92.96,127.3 L 93.84,127.21 C 94.6,130.09 96.2,132.62 97.46,135.29 C 97.92,137.09 98.26,138.92 98.6,140.75 C 101.64,140.65 104.66,140.29 107.65,139.73 L 107.07,140.26 C 103.46,141.62 100.19,143.68 97.11,145.97 C 96.7,145.94 95.88,145.89 95.46,145.86 C 94.99,143.55 94.22,141.22 92.05,140 C 89.81,138.68 88.88,136.27 88.23,133.88 C 88.19,131.96 88.23,130.03 88.24,128.11 C 89.83,127.89 91.39,127.57 92.96,127.3 z"
       id="path253"
       style="opacity:1;fill:#73a74f" />
  </g>
  <g
     id="#e2bb94ff">
    <path
       d="M 81.7,130.14 C 84.46,130.09 86.58,131.83 88.23,133.88 C 88.88,136.27 89.81,138.68 92.05,140 C 94.22,141.22 94.99,143.55 95.46,145.86 C 90.39,146.67 86.11,149.76 81.21,151.09 C 77.22,151.07 72.98,151.18 69.46,149 C 72.43,145.68 77.16,144.42 79.7,140.69 C 81.28,137.43 81.17,133.66 81.7,130.14 z"
       id="path256"
       style="opacity:1;fill:#e2bb94" />
  </g>
  <g
     id="#eaceabff">
    <path
       d="M 100.42,130.16 C 103.21,131.12 106.01,132.04 108.86,132.83 C 108.14,137.11 103.13,138.54 99.76,136.27 C 99.97,134.23 100.2,132.2 100.42,130.16 z"
       id="path259"
       style="opacity:1;fill:#eaceab" />
  </g>
  <g
     id="#4ef34bfe">
    <path
       d="M 111.36,131.54 C 114.97,131.33 118.58,131.32 122.2,131.24 C 122.04,132.7 121.87,134.16 121.69,135.62 C 116.83,137.22 112.19,139.53 107.07,140.26 L 107.65,139.73 C 110.16,137.71 111.28,134.71 111.36,131.54 z"
       id="path262"
       style="opacity:1;fill:#4ef34b" />
  </g>
  <g
     id="#8ad96fff">
    <path
       d="M 109.39,131.6 C 109.89,131.58 110.87,131.56 111.36,131.54 C 111.28,134.71 110.16,137.71 107.65,139.73 C 104.66,140.29 101.64,140.65 98.6,140.75 C 98.26,138.92 97.92,137.09 97.46,135.29 C 98.03,135.54 99.18,136.03 99.76,136.27 C 103.13,138.54 108.14,137.11 108.86,132.83 L 109.39,131.6 z"
       id="path265"
       style="opacity:1;fill:#8ad96f" />
  </g>
  <g
     id="#588033ec">
    <path
       d="M 107.07,140.26 C 112.19,139.53 116.83,137.22 121.69,135.62 C 122.32,136.06 123.58,136.94 124.21,137.38 C 115.45,140.08 106.69,142.83 98.1,146.05 L 97.11,145.97 C 100.19,143.68 103.46,141.62 107.07,140.26 z"
       id="path268"
       style="opacity:0.93000004;fill:#588033" />
  </g>
  <g
     id="#7a6044e1">
    <path
       d="M 81.21,151.09 C 86.11,149.76 90.39,146.67 95.46,145.86 C 95.88,145.89 96.7,145.94 97.11,145.97 L 98.1,146.05 C 92.94,148.28 88.16,151.5 82.58,152.64 C 78.32,153.49 74.17,154.77 70.03,156.1 C 62.73,158.38 54.55,157.25 48.12,153.13 L 47.49,152.37 C 55.1,153.19 63.31,157.18 70.68,153.3 L 70.08,152.46 C 73.81,152.22 77.56,151.9 81.21,151.09 z"
       id="path271"
       style="opacity:0.87999998;fill:#7a6044" />
  </g>
</svg>
