<svg xmlns="http://www.w3.org/2000/svg" viewBox="0 0 40 40" xmlns:xlink="http://www.w3.org/1999/xlink">
<defs>
<filter width="1.432" x="-.216" y="-.293" height="1.586" id="filter4479">
<feGaussianBlur stdDeviation="225.11438"/>
</filter>
<filter id="filter3345">
<feGaussianBlur stdDeviation="5.73536"/>
</filter>
<filter width="1.625" x="-.313" y="-.494" height="1.988" id="filter4475">
<feGaussianBlur stdDeviation="225.11438"/>
</filter>
<filter id="filter3311">
<feGaussianBlur stdDeviation="7.58867"/>
</filter>
<filter width="1.393" x="-.197" y="-.365" height="1.729" id="filter4483">
<feGaussianBlur stdDeviation="225.11438"/>
</filter>
<filter width="1.491" x="-.246" y="-.305" height="1.61" id="filter4499">
<feGaussianBlur stdDeviation="225.11438"/>
</filter>
<filter width="1.43" x="-.215" y="-.284" height="1.567" id="filter4491">
<feGaussianBlur stdDeviation="225.11438"/>
</filter>
<filter width="1.43" x="-.215" y="-.311" height="1.622" id="filter4487">
<feGaussianBlur stdDeviation="225.11438"/>
</filter>
<filter width="1.462" x="-.231" y="-.305" height="1.61" id="filter4495">
<feGaussianBlur stdDeviation="225.11438"/>
</filter>
<filter width="1.535" x="-.267" y="-.301" height="1.601" id="filter4503">
<feGaussianBlur stdDeviation="225.11438"/>
</filter>
<filter width="1.266" x="-.133" y="-.216" height="1.432" id="filter4565">
<feGaussianBlur stdDeviation="136.86595"/>
</filter>
<filter id="filter4882">
<feGaussianBlur stdDeviation="4.27037"/>
</filter>
<filter id="filter3292">
<feGaussianBlur stdDeviation="3.73338"/>
</filter>
<filter width="1.356" x="-.178" y="-.282" height="1.563" id="filter4507">
<feGaussianBlur stdDeviation="225.11438"/>
</filter>
<filter id="filter4853">
<feGaussianBlur stdDeviation="4.74207"/>
</filter>
<filter id="filter4676">
<feGaussianBlur stdDeviation="6.82837"/>
</filter>
<filter width="1.096" x="-.048" y="-.232" height="1.464" id="filter5419">
<feGaussianBlur stdDeviation="6.55396"/>
</filter>
<filter width="1.14" x="-.07" y="-.357" height="1.713" id="filter6015">
<feGaussianBlur stdDeviation="9.55881"/>
</filter>
<filter id="filter5979">
<feGaussianBlur stdDeviation="7.35408"/>
</filter>
<filter id="filter3288">
<feGaussianBlur stdDeviation="1.13106"/>
</filter>
<mask maskUnits="userSpaceOnUse" id="mask4631">
<path fill="url(#radialGradient4635)" d="m-583.9806-2136.2092a462.2954,285.7143 0 1,1 -924.5908,0 462.2954,285.7143 0 1,1 924.5908,0z" transform="matrix(2.60681 0 0 3.09203 10961.151 4429.706)"/>
</mask>
<radialGradient cx="-1105.352" cy="-2100.402" gradientTransform="matrix(1 0 0 .74274 .00129 -549.55351)" id="radialGradient4635" r="462.295" gradientUnits="userSpaceOnUse">
<stop offset="0" stop-color="#fff"/>
<stop offset=".583" stop-color="#fff"/>
<stop offset="1" stop-color="#fff" stop-opacity="0"/>
</radialGradient>
</defs>
<g fill="#009000">
<g transform="translate(1288.3761 3079.1504)">
<path opacity=".355" filter="url(#filter4882)" d="m-1529.5244-2216.6875c-.0758,2.6529-.1051,5.3203-.1051,7.9898 0,165.8694 147.0815,300.479 328.317,300.4789 181.2355,0 328.317-134.6096 328.317-300.4789 0-2.6695-.0293-5.3369-.1051-7.9898-4.6296,162.1837-149.8932,292.4891-328.2119,292.4891-178.3187,.0001-323.5823-130.3053-328.2119-292.4891z" transform="matrix(.0344 0 0 .03757 -1226.9764 -2973.0664)"/>
<path opacity=".28" filter="url(#filter4853)" stroke="#0059d7" stroke-linejoin="round" stroke-linecap="round" stroke-width="12.068" d="m327.0369-2350.5891a225.3903,203.2932 0 1,1 -450.7806,0 225.3903,203.2932 0 1,1 450.7806,0z" transform="matrix(.06885 0 0 .05841 -1275.4242 -2914.857)"/>
</g>
<g transform="matrix(.0344 0 0 .03757 61.3997 106.084)">
<path opacity=".892" filter="url(#filter3311)" d="m-1668.2232-2383.6339c-.2149,5.3123-.3437,10.6399-.3437,16 0,234.9943 208.392,425.7188 465.1562,425.7187 256.7642,0 465.1562-190.7244 465.1562-425.7187 0-5.3601-.1288-10.6877-.3437-16-9.2098,227.5848-213.9059,409.7187-464.8125,409.7187-250.9066,.0001-455.6028-182.1339-464.8125-409.7187z"/>
<path opacity=".892" d="m-583.9806-2136.2092a462.2954,285.7143 0 1,1 -924.5908,0 462.2954,285.7143 0 1,1 924.5908,0z" transform="matrix(1.00618 0 0 1.49 -150.67652 803.88531)"/>
<path opacity=".892" filter="url(#filter3345)" d="m-1557.4238-2350.7768c-.0255,1.6024-.0502,3.218-.0502,4.826 0,178.8637 158.6206,324.0177 354.0543,324.0177 195.4338,0 354.0544-145.154 354.0544-324.0177 0-1.608-.0247-3.2236-.0503-4.826-2.8309,176.6349-160.3364,319.1918-354.0041,319.1918-193.6677,0-351.1732-142.5569-354.0041-319.1918z"/>
<g opacity=".586" transform="matrix(.94289 0 0 .94289 -71.24056 -130.15196)">
<path opacity=".748" filter="url(#filter4676)" d="m-1199.6227-2822.8171c-232.9161,0-389.4197,149.0087-436.9286,328.8663-1.8084,6.846 .2289,14.1024 .719,21.0806 51.7002-173.3613 211.7408-307.7311 436.2096-307.7311 224.4685,0 388.9848,123.3215 446.2096,307.7311 .4899-6.9784 .749-13.9997 .7488-21.0806-38.6699-178.7528-214.0424-328.8663-446.9584-328.8663z"/>
<path opacity=".748" filter="url(#filter4676)" d="m-1199.6227-2785.8171c-232.9161,0-389.4197,149.0087-436.9286,328.8663-1.8084,6.846 .2289,14.1024 .719,21.0806 51.7002-173.3613 211.7408-307.7311 436.2096-307.7311 224.4685,0 388.9848,123.3215 446.2096,307.7311 .4899-6.9784 .749-13.9997 .7488-21.0806-38.6699-178.7528-214.0424-328.8663-446.9584-328.8663z"/>
<path opacity=".748" filter="url(#filter4676)" d="m-1199.6227-2805.8171c-232.9161,0-389.4197,149.0087-436.9286,328.8663-1.8084,6.846 .2289,14.1024 .719,21.0806 51.7002-173.3613 211.7408-307.7311 436.2096-307.7311 224.4685,0 388.9848,123.3215 446.2096,307.7311 .4899-6.9784 .749-13.9997 .7488-21.0806-38.6699-178.7528-214.0424-328.8663-446.9584-328.8663z"/>
<path opacity=".748" filter="url(#filter4676)" d="m-1199.6307-2790.5c-232.7547,0-389.1856,148.8099-436.8125,328.5 .2392,1.8215 .4988,3.6412 .625,5.4375 51.7002-173.3614 211.7187-307.7187 436.1875-307.7187 224.4685,0 388.9939,123.3091 446.2187,307.7187 .1567-2.2326 .2664-4.4769 .375-6.7187-39.3922-178.0226-214.3977-327.2188-446.5937-327.2188z"/>
</g>
<g mask="url(#mask4631)" transform="matrix(.3993 0 0 .49851 -4496.7079 -1309.517)">
<path filter="url(#filter4507)" fill-rule="evenodd" d="m6721.7633-1809.4568c217.5048,150.2521 337.6436-175.5804 629.5125-375.2718 275.2841-188.3444 714.0739-287.9971 928.2948-372.9223 315.5047-125.078 592.6275,226.6973 865.4484,33.5012 721.3432-510.8138 673.1-981.059-295.9276-1139.0416-828.8886-135.1358-1576.4544,259.4116-2049.1586,921.2836-138.6752,252.0127-314.8381,768.9606-78.1695,932.4509z" transform="matrix(.46875 0 0 .46875 4314.5538 -1076.2091)"/>
<path filter="url(#filter4503)" fill-rule="evenodd" d="m9099.4541-1905.3645c-100.7056,99.0345-137.5791,309.253-242.4366,404.0611-135.1473,122.195-371.7125,218.8518-549.523,258.599-156.1543,34.9062-397.2494-84.1213-533.3605,0-119.8969,74.1003-222.7696,279.8457-210.1118,420.2235 15.2405,169.0199 242.4367,517.1981 339.4113,452.5483 96.9746-64.6498 438.3952-421.9154 678.8225-501.0357 115.1438-37.8917 293.3281,49.3163 404.061,0 178.7711-79.6179 355.5737-387.8985 436.3859-484.8732 80.8122-96.9746 91.4054-346.1337 129.2995-484.8732 142.9835-523.4963-218.7385-294.5798-452.5483-64.6498z" transform="matrix(.46875 0 0 .46875 4314.5538 -1076.2091)"/>
<path filter="url(#filter4499)" fill-rule="evenodd" d="m9056.7977-2159.2209c-109.5624,97.6982-149.6788,305.0803-263.7583,398.6092-147.0332,120.5463-404.4037,215.8989-597.8522,255.1098-169.8877,34.4352-432.1865-82.9863-580.2683,0-130.4415,73.1005-242.3616,276.0698-228.5906,414.5534 16.5809,166.7394 263.7584,510.2197 369.2617,446.4423 105.5033-63.7775 476.951-416.2226 738.5233-494.2754 125.2704-37.3804 319.1256,48.6509 439.5972,0 194.4936-78.5436 386.8456-382.6646 474.765-478.3309 87.9194-95.6661 99.4443-341.4634 140.6711-478.3309 155.5585-516.4329-237.9761-290.6051-492.3489-63.7775z" transform="matrix(.46875 0 0 .46875 4314.5538 -1076.2091)"/>
<path filter="url(#filter4495)" fill-rule="evenodd" d="m9023.836-2393.5763c-116.4063,97.6982-159.0286,305.0803-280.2342,398.6092-156.2178,120.5463-429.6651,215.8989-635.1975,255.1098-180.4999,34.4352-459.1834-82.9863-616.5152,0-138.5897,73.1005-257.5009,276.0698-242.8697,414.5534 17.6166,166.7394 280.2343,510.2198 392.3279,446.4423 112.0936-63.7775 506.7441-416.2226 784.6557-494.2754 133.0956-37.3804 339.0601,48.6509 467.057,0 206.6428-78.5436 411.0102-382.6646 504.4216-478.3309 93.4113-95.6661 105.6562-341.4634 149.4582-478.3309 165.2756-516.4329-252.8414-290.6051-523.1038-63.7775z" transform="matrix(.46875 0 0 .46875 4314.5538 -1076.2091)"/>
<path filter="url(#filter4491)" fill-rule="evenodd" d="m8981.8483-2678.7259c-125.1243,105.0151-170.9387,327.9286-301.2217,428.4621-167.9174,129.5743-461.8439,232.0681-682.7692,274.2156-194.018,37.0142-493.5728-89.2013-662.6876,0-148.9691,78.5752-276.7859,296.7455-261.0589,445.6005 18.9359,179.2269 301.2218,548.4314 421.7104,479.8775 120.4886-68.5539 544.6955-447.3946 843.4207-531.293 143.0635-40.1799 364.4532,52.2945 502.0361,0 222.1189-84.4259 441.7919-411.3234 542.1991-514.1544 100.4071-102.8308 113.5691-367.0365 160.6515-514.1544 177.6536-555.1099-271.7773-312.3693-562.2804-68.5539z" transform="matrix(.46875 0 0 .46875 4314.5538 -1076.2091)"/>
<path filter="url(#filter4487)" fill-rule="evenodd" d="m8906.7182-2725.7509c-125.1243,94.4473-170.9387,313.4914-301.2217,403.0214-167.9174,115.3923-461.8439,193.0616-682.7692,216.5501-194.018,20.6277-493.5728-130.8877-662.6876-55.9695-148.9691,65.9935-276.7859,273.3686-261.0589,423.5519 18.9359,180.8262 301.2218,573.8721 421.7104,515.4945 120.4886-58.3777 544.6955-401.3906 843.4207-460.0591 143.0635-28.097 364.4532,83.0756 502.0361,42.4011 222.1189-65.6661 441.7919-374.0104 542.1991-468.3612 100.4071-94.3505 113.5691-357.4446 160.6515-500.586 177.6536-540.1056-271.7773-335.3232-562.2804-116.0432z" transform="matrix(.46875 0 0 .46875 4314.5538 -1076.2091)"/>
<path filter="url(#filter4483)" fill-rule="evenodd" d="m8818.4849-2889.5781c-136.9559,78.2568-187.1024,291.3727-329.7048,364.0446-183.7953,93.6646-505.515,133.3011-747.3307,128.2028-212.364-4.4774-540.2442-194.7539-725.3502-141.7184-163.0554,46.7176-302.9583,237.5537-285.7442,389.772 20.7264,183.2764 329.7048,612.8489 461.5866,570.062 131.8818-42.787 596.201-330.9094 923.1732-350.9241 156.5913-9.5852 398.9153,130.2342 549.5078,107.3623 243.1221-36.9248 483.567-316.8444 593.4685-398.203 109.9015-81.3582 124.308-342.7492 175.8425-479.7983 194.4522-517.118-297.4761-370.49-615.4487-188.7999z" transform="matrix(.46875 0 0 .46875 4314.5538 -1076.2091)"/>
<path filter="url(#filter4479)" stroke="#000" fill-rule="evenodd" d="m7013.6154-1665.5795c172.1569,118.9258 267.2477-138.9734 498.2644-297.0309 217.8896-149.0762 596.1314-179.3384 765.689-246.5574 249.7247-99.0003 400.1835,65.6708 654.0738-22.0972 94.7121-32.7413 298.2134-345.1378 353.5533-428.6834 129.0287-194.7921 217.3149-625.9232 39.7748-777.8175-152.336-130.3309-460.0746,86.4381-654.0738,137.002-266.1894,69.3795-836.4559,234.2884-875.0446,274.0038-48.6136,26.5165-594.7044,394.7766-720.3651,623.1379-109.7626,199.4701-249.197,608.6387-61.8718,738.0427z" transform="matrix(.46875 0 0 .46875 4314.5538 -1076.2091)"/>
<path filter="url(#filter4475)" fill-rule="evenodd" d="m7323.7082-2205.4536c123.9747,85.6416 192.4521-100.0784 358.8133-213.8997 156.9081-107.3537 407.0122-164.1543 529.1151-212.5605 179.8333-71.2927 337.7894,129.2143 493.2935,19.0952 411.1556-291.1567 383.6576-559.1899-168.6746-649.2378-472.4549-77.0255-898.557,147.861-1167.9918,525.1188-79.0429,143.6437-179.4533,438.2968-44.5555,531.484z" transform="matrix(.46875 0 0 .46875 4314.5538 -1076.2091)"/>
<path filter="url(#filter4565)" fill-rule="evenodd" d="m8906.7182-2424.9541c-122.5269,97.7765-170.9387,313.4914-301.2217,403.0214-167.9174,115.3923-461.8439,193.0616-682.7692,216.5501-194.018,20.6277-482.0015-78.0341-662.6876-55.9695-490.5532,59.9042-121.8592,689.7452 160.6515,680.9158 128.5866-4.0188 622.5263-416.6763 843.4207-460.0591 220.8943-43.3827 322.1852,95.5714 502.0361,42.4011 179.8509-53.1703 480.2927-347.0942 542.1991-468.3612 306.5945-600.5812 258.5814-885.3465-401.6289-358.4986z" transform="matrix(.46875 0 0 .46875 4314.5538 -1076.2091)"/>
</g>
<path filter="url(#filter3292)" d="m-583.9806-2136.2092a462.2954,285.7143 0 1,1 -924.5908,0 462.2954,285.7143 0 1,1 924.5908,0z" transform="matrix(.60776 0 0 .58 -567.53425 -1377.2079)"/>
</g>
<g transform="translate(1288.3761 3079.1504)">
<path opacity=".396" filter="url(#filter6015)" d="m-1250.8924-2284.125c-24.9094,33.5789-99.1222,51.2347-167.1645,39.4743-32.509-5.6188-56.6243-15.8417-72.9332-30.8901l-43.4576,11.4619c22.0646,20.9233 55.0477,35.0793 99.7589,42.8072 93.3012,16.1261 195.1967-8.659 227.449-55.3096l-43.6526-7.5437z" transform="matrix(.04249 -.00256 -.00328 -.09073 -1217.3748 -3267.0433)"/>
<path filter="url(#filter5419)" d="m-1250.8924-2284.125c-24.9094,33.5789-99.1222,51.2347-167.1645,39.4743-32.509-5.6188-56.6243-15.8417-72.9332-30.8901l-43.4576,11.4619c22.0646,20.9233 55.0477,35.0793 99.7589,42.8072 93.3012,16.1261 195.1967-8.659 227.449-55.3096l-43.6526-7.5437z" transform="matrix(.05815 0 0 .09867 -1188.5365 -2846.4959)"/>
<path filter="url(#filter3288)" d="m-940.5269-2437.8254c-82.1877,0-148.8905,66.7062-148.8905,148.8978 0,1.9264 .032,3.8378 .1046,5.7465 3.0439-79.5126 68.5363-143.1048 148.7859-143.1048 80.2496,0 145.7421,63.5922 148.7858,143.1048 .0726-1.9087 .1047-3.8201 .1047-5.7465 0-82.1916-66.7029-148.8978-148.8905-148.8978z" transform="matrix(.09643 0 0 .09899 -1177.6076 -2835.0029)"/>
<path filter="url(#filter5979)" d="m-1418.75-1838.4375c-181.964,0-329.645-125.2809-329.645-279.645 0-3.6179 .071-7.2078 .2318-10.7925 6.7389,149.3326 151.7399,268.765 329.4132,268.765 210.955,0 316.0216-160.4324 360.1819-292.5775 .1608,3.5847 1.3022,7.3818 .2318,10.7925-41.5793,132.4891-153.4835,303.4575-360.4137,303.4575z" transform="matrix(.04047 0 0 .03685 -1211.2899 -2979.9186)"/>
<path opacity=".392" filter="url(#filter6015)" d="m-1250.8924-2284.125c-24.9094,33.5789-99.1222,51.2347-167.1645,39.4743-32.509-5.6188-56.6243-15.8417-72.9332-30.8901l-43.4576,11.4619c22.0646,20.9233 55.0477,35.0793 99.7589,42.8072 93.3012,16.1261 195.1967-8.659 227.449-55.3096l-43.6526-7.5437z" transform="matrix(.04249 .00251 -.00328 .08904 -1217.3748 -2848.5706)"/>
</g>
</g>
</svg>
