<svg width="40" xmlns="http://www.w3.org/2000/svg" height="41.25" viewBox="0 0 32 33">
<path fill="#606066" d="m11.45,10.71c1.57-2.11 3.03-4.31 4.48-6.51 1.49,2.22 3.01,4.41 4.63,6.53-.92,.1-2.77,.29-3.69,.39 .03,1.3 .07,2.6 .1,3.9 1.32,.04 2.64,.08 3.96,.13 .09-.93 .26-2.79 .34-3.72 2.06,1.6 4.22,3.06 6.4,4.47-2.18,1.46-4.32,2.98-6.35,4.65-.09-.92-.27-2.78-.36-3.7-1.33,.04-2.66,.08-3.99,.12-.04,1.34-.07,2.69-.1,4.03 .92,.09 2.77,.26 3.7,.34-1.68,2-3.15,4.14-4.55,6.34-1.39-2.23-2.9-4.38-4.61-6.38 .93-.09 2.8-.27 3.73-.36-.04-1.32-.08-2.64-.12-3.96-1.31-.05-2.63-.09-3.95-.14-.1,.94-.32,2.82-.42,3.77-2.07-1.71-4.08-3.46-6.21-5.09 2.12-1.28 4.21-2.62 6.31-3.93 .06,.88 .18,2.65 .24,3.53 1.35-.03 2.7-.06 4.05-.09 .03-1.32 .05-2.65 .08-3.97-.92-.09-2.75-.26-3.67-.35z"/>
</svg>
