<svg xmlns="http://www.w3.org/2000/svg" viewBox="0 0 128 128" xmlns:xlink="http://www.w3.org/1999/xlink">
<defs>
<clipPath id="clipPath4105" clipPathUnits="userSpaceOnUse">
<path fill-opacity=".955" d="m-162.59,18.3879h16.498a1.0975,.0722 0 0,1 1.098,.0722v105.4159a1.0975,.0722 0 0,1 -1.098,.072h-16.498a1.0975,.0722 0 0,1 -1.097-.072v-105.4159a1.0975,.0722 0 0,1 1.097-.0722"/>
</clipPath>
<clipPath id="clipPath4108" clipPathUnits="userSpaceOnUse">
<path fill="url(#linearGradient4112)" d="m108,104c-.5324,9.1779-22.5692,18.6206-44,18.6206-24.288,0-43.9994-8.6846-44-18.6206l-.0049-86.2173 88.0049,.0488v86.1686z"/>
</clipPath>
<clipPath id="clipPath4109" clipPathUnits="userSpaceOnUse">
<path fill-opacity=".955" d="m-143.897,18.3879h16.498a1.0975,.0722 0 0,1 1.098,.0722v105.4159a1.0975,.0722 0 0,1 -1.098,.072h-16.498a1.0975,.0722 0 0,1 -1.097-.072v-105.4159a1.0975,.0722 0 0,1 1.097-.0722"/>
</clipPath>
<clipPath id="clipPath4113" clipPathUnits="userSpaceOnUse">
<path fill-opacity=".955" d="m-125.204,18.3879h16.498a1.0975,.0722 0 0,1 1.098,.0722v105.4159a1.0975,.0722 0 0,1 -1.098,.072h-16.498a1.0975,.0722 0 0,1 -1.097-.072v-105.4159a1.0975,.0722 0 0,1 1.097-.0722"/>
</clipPath>
<filter id="filter3916">
<feGaussianBlur stdDeviation=".93171"/>
</filter>
<filter width="1.085" x="-.042" y="-.127" height="1.254" id="filter4044">
<feGaussianBlur stdDeviation="1.44152"/>
</filter>
<filter id="filter4301">
<feGaussianBlur stdDeviation=".28214"/>
</filter>
<linearGradient id="linearGradient4393">
<stop offset="0" stop-color="#495761" stop-opacity=".858"/>
<stop offset="1" stop-color="#555" stop-opacity="0"/>
</linearGradient>
<linearGradient id="linearGradient4112">
</linearGradient>
<linearGradient id="linearGradient4034">
<stop offset="0"/>
<stop offset="1" stop-opacity="0"/>
</linearGradient>
<linearGradient id="linearGradient4319">
<stop offset="0" stop-color="#fff"/>
<stop offset="1" stop-color="#fff" stop-opacity="0"/>
</linearGradient>
<linearGradient gradientTransform="translate(828 86.72)" id="XMLID_9_" x1="103.431" gradientUnits="userSpaceOnUse" x2="24.57">
<stop offset="0" stop-color="#1c1c1c"/>
<stop offset=".123" stop-color="#d9d9d9"/>
<stop offset=".276" stop-color="#a4a4a4"/>
<stop offset=".339" stop-color="#bbb"/>
<stop offset=".402" stop-color="#b7b7b7"/>
<stop offset=".67" stop-color="#484848"/>
<stop offset="1" stop-color="#b5b5b5"/>
</linearGradient>
<linearGradient id="linearGradient3422">
<stop offset="0"/>
<stop offset="1" stop-opacity="0"/>
</linearGradient>
<linearGradient id="linearGradient4529">
<stop offset="0" stop-color="#fff"/>
<stop offset="1" stop-color="#fff" stop-opacity="0"/>
</linearGradient>
<linearGradient id="XMLID_24_" y1="0" y2="142.493" gradientUnits="userSpaceOnUse" x2="0">
<stop offset="0" stop-color="#9fa4a5"/>
<stop offset=".455" stop-color="#cdd0d3"/>
<stop offset="1" stop-color="#fff"/>
</linearGradient>
<linearGradient fill="url(#linearGradient4680)" id="linearGradient5228" y1="252.209" y2="291.213" x1="431.973" x2="212.952" gradientUnits="userSpaceOnUse">
<stop offset="0" stop-color="#555" stop-opacity=".759"/>
<stop offset=".5" stop-color="#666" stop-opacity=".241"/>
<stop offset=".899" stop-color="#333" stop-opacity=".81"/>
</linearGradient>
<linearGradient xlink:href="#XMLID_9_" id="linearGradient2339" x1="355.757" gradientUnits="userSpaceOnUse" x2="18.556"/>
<linearGradient gradientTransform="matrix(1.03078 0 0 1 0 -10.4)" xlink:href="#linearGradient3412" id="linearGradient4236" y1="334.5" y2="-16.934" gradientUnits="userSpaceOnUse" x2="0"/>
<linearGradient gradientTransform="matrix(.2518 0 0 .25264 17.60443 88.40812)" xlink:href="#XMLID_24_" id="linearGradient4359" x1="479.386" gradientUnits="userSpaceOnUse" x2="97.358"/>
<linearGradient id="linearGradient3412">
<stop offset="0"/>
<stop offset="1" stop-opacity="0"/>
</linearGradient>
<linearGradient gradientTransform="matrix(-.54442 .29419 0 1 122.57143 -17.157)" xlink:href="#linearGradient4529" id="linearGradient4255" y1="170.5" y2="40" gradientUnits="userSpaceOnUse" x2="0"/>
<linearGradient gradientTransform="matrix(.24608 0 0 .2452 18.64034 3.78754)" xlink:href="#linearGradient5228" id="linearGradient4352" x1="6.275" gradientUnits="userSpaceOnUse" x2="355.757"/>
<linearGradient gradientTransform="matrix(1.04238 0 0 1 46.32254 -181.30587)" xlink:href="#linearGradient4529" id="linearGradient4342" y1="170.5" y2="40" gradientUnits="userSpaceOnUse" x2="0"/>
<linearGradient gradientTransform="matrix(.2518 0 0 .25264 17.60443 1.78754)" xlink:href="#XMLID_24_" id="linearGradient4349" y1="7.807" y2="142.494" gradientUnits="userSpaceOnUse" x2="0"/>
<linearGradient gradientTransform="matrix(-1 .25 0 1 125.7218 -8.81246)" xlink:href="#linearGradient3412" id="linearGradient4345" y1="170.5" y2="40" gradientUnits="userSpaceOnUse" x2="0"/>
<linearGradient gradientTransform="matrix(-.97014 -.24254 0 -1 -.81551 1.78754)" xlink:href="#linearGradient4319" id="linearGradient4335" y1="-63.184" x1="-34.848" y2="-82.983" gradientUnits="userSpaceOnUse" x2="-14.263"/>
<linearGradient gradientTransform="translate(-.81551 1.78754)" xlink:href="#linearGradient3422" id="linearGradient4355" x1="19.995" gradientUnits="userSpaceOnUse" x2="31.53"/>
<linearGradient gradientTransform="matrix(-1 -.29419 0 -1 83.73932 169.03208)" xlink:href="#linearGradient4246" id="linearGradient4332" y1="138.532" y2="-3.721" gradientUnits="userSpaceOnUse" x2="0"/>
<linearGradient xlink:href="#linearGradient4034" id="linearGradient4244" y1="507.973" x1="221.04" y2="75.506" gradientUnits="userSpaceOnUse" x2="57.036"/>
<linearGradient id="linearGradient4246">
<stop offset="0" stop-color="#fff" stop-opacity="0"/>
<stop offset=".17" stop-color="#fff" stop-opacity=".764"/>
<stop offset="1" stop-color="#fff" stop-opacity="0"/>
</linearGradient>
<linearGradient gradientTransform="matrix(1 -.29419 0 -1 58.22791 156.60416)" xlink:href="#linearGradient4529" id="linearGradient4258" y1="170.5" y2="40" gradientUnits="userSpaceOnUse" x2="0"/>
<linearGradient spreadMethod="reflect" xlink:href="#linearGradient4393" id="linearGradient4150" y1="72.059" x1="-132.309" y2="65.305" gradientUnits="userSpaceOnUse" x2="-107.104"/>
<radialGradient fx="177.797" fy="-130.232" cx="175.894" cy="-67.7" gradientTransform="matrix(2.30952 0 0 .74962 -235.12113 67.92035)" id="radialGradient4313" r="162.459" gradientUnits="userSpaceOnUse">
<stop offset="0" stop-opacity="0"/>
<stop offset=".5" stop-opacity=".025"/>
<stop offset=".75" stop-opacity=".251"/>
<stop offset="1" stop-color="#2d2d2d"/>
</radialGradient>
<radialGradient cx="86.475" cy="-12.897" gradientTransform="matrix(.76004 .0096 -.0085 .6731 19.82548 14.67061)" spreadMethod="reflect" id="radialGradient4339" r="42.959" gradientUnits="userSpaceOnUse">
<stop offset="0" stop-color="#fff"/>
<stop offset=".5" stop-color="#fff" stop-opacity=".844"/>
<stop offset="1" stop-color="#fff" stop-opacity="0"/>
</radialGradient>
<radialGradient cx="39.005" cy="45.136" gradientTransform="matrix(1 0 0 13 0 -552)" id="radialGradient19659" r="2" gradientUnits="userSpaceOnUse">
<stop offset="0" stop-color="#fff"/>
<stop offset="1" stop-color="#fff" stop-opacity="0"/>
</radialGradient>
</defs>
<path fill="url(#radialGradient19659)" fill-rule="evenodd" d="m36,46z" transform="matrix(.46509 .35459 -.80564 .83022 106.33674 -22.98357)"/>
<path filter="url(#filter4044)" fill-opacity=".955" d="m101.643,110.8877a40.8221,13.6074 0 1,1 -81.6443,0 40.8221,13.6074 0 1,1 81.6443,0z" transform="matrix(1.09744 0 0 1.42666 -3.58885 -51.39994)"/>
<path fill="url(#linearGradient4359)" d="m107.1845,105.7875c0,10.6362-22.5692,18.6206-44,18.6206-24.288,0-43.9994-8.6846-44-18.6206l-.0049-86.2173 88.0049,.0488v86.1686z"/>
<path fill="url(#linearGradient4236)" filter="url(#filter4556)" d="m28.4494,21.927c7.0093,2.6498 25.3571,.3149 32.3664,.2661v85.6569c-9.9083,2.1071-24.3465,2.648-32.3664-.5092v-85.4138z" transform="matrix(.97014 .24254 0 1 -.81551 1.78754)"/>
<path opacity=".285" fill="url(#linearGradient4355)" d="m28.5093,117.1017c-5.8416-3.1822-9.3245-7.1377-9.3248-11.3142l-.0049-86.2173 11.5056,.0064-2.1759,97.5252z"/>
<path fill="url(#linearGradient4352)" d="m106.1845,21.2572c0,9.6433-19.264,17.4697-43,17.4697-23.736,0-43-7.8264-43-17.4697 0-9.6433 19.2493-17.4697 42.9853-17.4697 23.736,0 43.0147,7.8264 43.0147,17.4697z"/>
<path fill="url(#linearGradient4349)" d="m107.1845,19.7875c0,9.936-19.712,18-44,18-24.288,0-44-8.064-44-18 0-9.936 19.697-18 43.985-18 24.288,0 44.015,8.064 44.015,18z"/>
<ellipse fill="url(#linearGradient2339)" cx="181.016" cy="68" rx="162.459" ry="60" transform="matrix(.26537 0 0 .28613 15.14833 -.43426)"/>
<path opacity=".663" fill="url(#linearGradient4345)" d="m85.7218,41.1875l-8,2v79.8c2.7976-.3909 5.4275-1.0471 8-1.8v-80z"/>
<path fill="url(#linearGradient4342)" d="m88.0176-141.306h8.339v80.0001h-8.339z" transform="matrix(.95935 -.28223 0 -1 0 0)"/>
<path fill="url(#radialGradient4339)" filter="url(#filter4301)" d="m63.1973,2.65c-23.7976,0-43.125,7.711-43.125,17.1875 0,.1165 .0254,.2278 .0312,.3438 .4668-9.3158 19.5887-16.8125 43.0938-16.8125 23.5051,0 42.2957,7.1967 42.7625,16.5125 .0058-.116 .0312-.2272 .0312-.3438 0-9.4765-18.9961-16.8875-42.7937-16.8875z"/>
<path fill="url(#linearGradient4244)" filter="url(#filter3916)" fill-rule="evenodd" mask="none" d="m14.8492,103.9584c19.0856,45.3716 98.7429,66.9903 96.1665,.7071-2.9637,.168-2.7901-21.4261-2.8359-18.0781-.4817,35.2019-59.3065,49.556-92.1798-11.0811l-1.1508,28.4522z" clip-path="url(#clipPath4108)" transform="translate(-.81551 2.20786)"/>
<path fill="url(#linearGradient4335)" d="m32.9921,113.5487l-3-1v-80l3,1v80z"/>
<path fill="url(#linearGradient4332)" d="m47.7393,122.2643l-8.2073-1.3535v-84.6916l8.2073,1.0451v85z"/>
<ellipse fill="url(#radialGradient4313)" cx="181.016" cy="68" rx="162.459" ry="60" transform="matrix(.26537 0 0 .28613 15.14833 -.43426)"/>
<path fill="url(#linearGradient4258)" d="m103.8848,112.6113l2.3431-3.1284v-85.625l-2.3431,3.4534v85.3z"/>
<path fill="url(#linearGradient4255)" d="m100.7947,34.6108l-4.3554,2.3536v80.6c1.8672-.7681 3.1681-1.6495 4.3554-2.5536v-80.4z"/>
<g transform="translate(-1.74863 3.19558)">
<g opacity=".569" clip-path="url(#clipPath4113)" transform="matrix(1 -.33062 0 1 203.14294 -36.05643)">
<path opacity=".8" fill="url(#linearGradient4150)" d="m-134.4688,48.125c-1.9789,.0381-4.3985,.2052-7.3438,.5938 0,0 3.7243,.8754 4.5,2.1562 .7836,1.2689 5.5938,9.6875 5.5938,9.6875l-4.625,2.6562 11.875-.5938 6.5625-9.9688-4.7812,2.75-2.8125-4.9375c0,0-.3937-2.509-8.9688-2.3438zm-8.6875,1.7188c-2.8993-.0786-4.5938,2.5-4.5938,2.5l-5.4688,9.3438 9,5.2188 5.4375-9.6562c0,0 1.9215-4.9384-2.1875-6.8438-.7936-.3662-1.5184-.5444-2.1875-.5625zm24.625,10.9375l-9.0312,5.2188 5.6562,9.5312c0,0 3.3712,4.1486 7.0625,1.5312 3.8067-2.6889 1.6562-6.875 1.6562-6.875l-5.3438-9.4062zm-42.0625,4.7188l4.7812,2.75-2.8438,4.9375c0,0-3.6898,3.5647 6.6562,14.9688 0,0-1.0944-3.3493-.4062-5 .7001-1.6348 5.625-9.6562 5.625-9.6562l4.5938,2.6875-6.4688-10-11.9375-.6875zm32.5312,9.2188l-5.375,10.625 5.375,10.6562v-5.5h5.6562c0,0 4.7557,1.3289 9.6562-13.2812 0,0-2.4782,2.8438-4.125,2.8438-1.6468,0-11.1875,0-11.1875,0v-5.3438zm-6.25,6.3125l-11.0625,.125c0,0-5.2614,.8291-4.8438,5.3438 .4177,4.6261 5.0938,4.8438 5.0938,4.8438l10.8125,.0625v-10.375z"/>
<path opacity=".8" fill="#555" d="m-134.4812,48.125c-1.9789,.0381-4.3985,.2052-7.3438,.5938 0,0 1.1603,.2608 2.3125,.7188 1.9312-.1986 3.5961-.2848 5.0312-.3125 8.5751-.1653 8.9687,2.3438 8.9687,2.3438l2.8125,4.9375 3.7188-2.1562 1.0625-1.5938-4.7812,2.75-2.8125-4.9375c0,0-.3937-2.509-8.9687-2.3438zm-9.2188,1.7188c-2.5751,.2185-4.0625,2.5-4.0625,2.5l-5.4688,9.3438 .4375,.25 5.0312-8.5938c0,0 1.6944-2.5786 4.5938-2.5 .6691,.0181 1.3939,.1963 2.1875,.5625 1.8972,.8797 2.4851,2.3929 2.5938,3.7812 .1174-1.5879-.2219-3.6814-2.5938-4.7812-.7936-.3662-1.5184-.5444-2.1875-.5625-.1812-.0049-.3596-.0146-.5312,0zm25.1562,10.9375l-9.0312,5.2188 .4375,.75 8.5938-4.9688 5.3438,9.4062c0,0 .4565,.9523 .5625,2.2188 .1691-1.7484-.5625-3.2188-.5625-3.2188l-5.3438-9.4062zm-13.625,.0312l-4.1875,2.4062 1.9062-.0938 2.7188-1.5625c0,0-.3717-.635-.4375-.75zm-28.4375,4.6875l1.9375,1.125 10,.5625 5.4375,8.4062 1.0312,.5938-6.4688-10-11.9375-.6875zm4.3438,3.5l-2.4062,4.1875c0,0-.7332,.7518-.5938,2.625 .1234-1.1485 .5938-1.625 .5938-1.625l2.8438-4.9375-.4375-.25zm28.1875,5.7188l-5.375,10.625 .25,.5 5.125-10.125v-1zm15.3125,2.5c0,0-2.4782,2.8438-4.125,2.8438-1.6468,0-11.1875,0-11.1875,0v1c0,0 9.5407,0 11.1875,0 1.1708,0 2.7406-1.4191 3.5625-2.25 .1897-.5207 .3721-1.026 .5625-1.5938zm-21.5625,3.8125l-11.0625,.125c0,0-5.2614,.8291-4.8438,5.3438 .0029,.0326-.0034,.0616 0,.0938 .3057-3.7264 4.8438-4.4375 4.8438-4.4375l11.0625-.125v-1zm-18.2812,3.9375c-.1028,.9036 .0353,1.9378 .2188,2.7812 .1266,.142 .2439,.2617 .375,.4062 0,0-.5069-1.6386-.5938-3.1875z"/>
<path opacity="1" fill="#fff" d="m-139.5375,48.4375c-.7307,.0752-1.4732,.1746-2.2812,.2812 0,0 3.7243,.8754 4.5,2.1562 .7161,1.1596 4.4588,7.7175 5.1562,8.9375l.4375-.25c0,0-4.8101-8.4186-5.5938-9.6875-.3457-.5708-1.2924-1.0693-2.2188-1.4375zm21.625,4.2188l-1.0625,.5938-5.5,8.375-9.9688,.5-1.9062,1.0938 11.875-.5938 6.5625-9.9688zm-20.4688,1.375c-.0652,1.2378-.4062,2.2188-.4062,2.2188l-5.4375,9.6562-8.5625-4.9688-.4375,.75 9,5.2188 5.4375-9.6562c0,0 .5837-1.5371 .4062-3.2188zm-22.2188,11.4688l4.3438,2.5 .4375-.75-2.8438-1.625-1.9375-.125zm33.4688,.25l-.4375,.25 5.6562,9.5312c0,0 3.3712,4.1486 7.0625,1.5312 2.011-1.4205 2.3374-3.238 2.2188-4.6562-.1173,1.2134-.6592,2.5546-2.2188,3.6562-3.6913,2.6173-7.0625-1.5312-7.0625-1.5312l-5.2188-8.7812zm-19.6562,6.75c0,0-4.9249,8.0214-5.625,9.6562-.2261,.5425-.2755,1.2698-.2188,2 .0266-.3661 .0983-.711 .2188-1 .7001-1.6348 5.625-9.6562 5.625-9.6562l4.5938,2.6875-1.0312-1.5938-3.5625-2.0938zm-12.5,2.4062c-.1717,2.0466 .815,6.1224 7.2812,13.25 0,0-.2048-.6238-.375-1.4062-5.2547-5.8925-6.7119-9.6349-6.9062-11.8438zm46.5312,2.3125c0,0-.2441,.2392-.5625,.5625-4.6971,12.912-9.0937,11.7187-9.0938,11.7188h-5.6562v1h5.6562c0,0 4.7557,1.3289 9.6562-13.2812zm-20.4375,7.625l-.25,.5 5.375,10.6562v-1l-5.125-10.1562zm-17.0312,.6562c-.0324,.3117-.0329,.6439 0,1 .4177,4.6261 5.0938,4.8438 5.0938,4.8438l10.8125,.0625v-1l-10.8125-.0625c0,0-4.6761-.2177-5.0938-4.8438z"/>
</g>
<g opacity=".569" clip-path="url(#clipPath4109)" transform="translate(203.14294 5.70124)">
<path opacity=".8" fill="url(#linearGradient4150)" d="m-134.4688,48.125c-1.9789,.0381-4.3985,.2052-7.3438,.5938 0,0 3.7243,.8754 4.5,2.1562 .7836,1.2689 5.5938,9.6875 5.5938,9.6875l-4.625,2.6562 11.875-.5938 6.5625-9.9688-4.7812,2.75-2.8125-4.9375c0,0-.3937-2.509-8.9688-2.3438zm-8.6875,1.7188c-2.8993-.0786-4.5938,2.5-4.5938,2.5l-5.4688,9.3438 9,5.2188 5.4375-9.6562c0,0 1.9215-4.9384-2.1875-6.8438-.7936-.3662-1.5184-.5444-2.1875-.5625zm24.625,10.9375l-9.0312,5.2188 5.6562,9.5312c0,0 3.3712,4.1486 7.0625,1.5312 3.8067-2.6889 1.6562-6.875 1.6562-6.875l-5.3438-9.4062zm-42.0625,4.7188l4.7812,2.75-2.8438,4.9375c0,0-3.6898,3.5647 6.6562,14.9688 0,0-1.0944-3.3493-.4062-5 .7001-1.6348 5.625-9.6562 5.625-9.6562l4.5938,2.6875-6.4688-10-11.9375-.6875zm32.5312,9.2188l-5.375,10.625 5.375,10.6562v-5.5h5.6562c0,0 4.7557,1.3289 9.6562-13.2812 0,0-2.4782,2.8438-4.125,2.8438-1.6468,0-11.1875,0-11.1875,0v-5.3438zm-6.25,6.3125l-11.0625,.125c0,0-5.2614,.8291-4.8438,5.3438 .4177,4.6261 5.0938,4.8438 5.0938,4.8438l10.8125,.0625v-10.375z"/>
<path opacity=".8" fill="#555" d="m-134.4812,48.125c-1.9789,.0381-4.3985,.2052-7.3438,.5938 0,0 1.1603,.2608 2.3125,.7188 1.9312-.1986 3.5961-.2848 5.0312-.3125 8.5751-.1653 8.9687,2.3438 8.9687,2.3438l2.8125,4.9375 3.7188-2.1562 1.0625-1.5938-4.7812,2.75-2.8125-4.9375c0,0-.3937-2.509-8.9687-2.3438zm-9.2188,1.7188c-2.5751,.2185-4.0625,2.5-4.0625,2.5l-5.4688,9.3438 .4375,.25 5.0312-8.5938c0,0 1.6944-2.5786 4.5938-2.5 .6691,.0181 1.3939,.1963 2.1875,.5625 1.8972,.8797 2.4851,2.3929 2.5938,3.7812 .1174-1.5879-.2219-3.6814-2.5938-4.7812-.7936-.3662-1.5184-.5444-2.1875-.5625-.1812-.0049-.3596-.0146-.5312,0zm25.1562,10.9375l-9.0312,5.2188 .4375,.75 8.5938-4.9688 5.3438,9.4062c0,0 .4565,.9523 .5625,2.2188 .1691-1.7484-.5625-3.2188-.5625-3.2188l-5.3438-9.4062zm-13.625,.0312l-4.1875,2.4062 1.9062-.0938 2.7188-1.5625c0,0-.3717-.635-.4375-.75zm-28.4375,4.6875l1.9375,1.125 10,.5625 5.4375,8.4062 1.0312,.5938-6.4688-10-11.9375-.6875zm4.3438,3.5l-2.4062,4.1875c0,0-.7332,.7518-.5938,2.625 .1234-1.1485 .5938-1.625 .5938-1.625l2.8438-4.9375-.4375-.25zm28.1875,5.7188l-5.375,10.625 .25,.5 5.125-10.125v-1zm15.3125,2.5c0,0-2.4782,2.8438-4.125,2.8438-1.6468,0-11.1875,0-11.1875,0v1c0,0 9.5407,0 11.1875,0 1.1708,0 2.7406-1.4191 3.5625-2.25 .1897-.5207 .3721-1.026 .5625-1.5938zm-21.5625,3.8125l-11.0625,.125c0,0-5.2614,.8291-4.8438,5.3438 .0029,.0326-.0034,.0616 0,.0938 .3057-3.7264 4.8438-4.4375 4.8438-4.4375l11.0625-.125v-1zm-18.2812,3.9375c-.1028,.9036 .0353,1.9378 .2188,2.7812 .1266,.142 .2439,.2617 .375,.4062 0,0-.5069-1.6386-.5938-3.1875z"/>
<path opacity="1" fill="#fff" d="m-139.5375,48.4375c-.7307,.0752-1.4732,.1746-2.2812,.2812 0,0 3.7243,.8754 4.5,2.1562 .7161,1.1596 4.4588,7.7175 5.1562,8.9375l.4375-.25c0,0-4.8101-8.4186-5.5938-9.6875-.3457-.5708-1.2924-1.0693-2.2188-1.4375zm21.625,4.2188l-1.0625,.5938-5.5,8.375-9.9688,.5-1.9062,1.0938 11.875-.5938 6.5625-9.9688zm-20.4688,1.375c-.0652,1.2378-.4062,2.2188-.4062,2.2188l-5.4375,9.6562-8.5625-4.9688-.4375,.75 9,5.2188 5.4375-9.6562c0,0 .5837-1.5371 .4062-3.2188zm-22.2188,11.4688l4.3438,2.5 .4375-.75-2.8438-1.625-1.9375-.125zm33.4688,.25l-.4375,.25 5.6562,9.5312c0,0 3.3712,4.1486 7.0625,1.5312 2.011-1.4205 2.3374-3.238 2.2188-4.6562-.1173,1.2134-.6592,2.5546-2.2188,3.6562-3.6913,2.6173-7.0625-1.5312-7.0625-1.5312l-5.2188-8.7812zm-19.6562,6.75c0,0-4.9249,8.0214-5.625,9.6562-.2261,.5425-.2755,1.2698-.2188,2 .0266-.3661 .0983-.711 .2188-1 .7001-1.6348 5.625-9.6562 5.625-9.6562l4.5938,2.6875-1.0312-1.5938-3.5625-2.0938zm-12.5,2.4062c-.1717,2.0466 .815,6.1224 7.2812,13.25 0,0-.2048-.6238-.375-1.4062-5.2547-5.8925-6.7119-9.6349-6.9062-11.8438zm46.5312,2.3125c0,0-.2441,.2392-.5625,.5625-4.6971,12.912-9.0937,11.7187-9.0938,11.7188h-5.6562v1h5.6562c0,0 4.7557,1.3289 9.6562-13.2812zm-20.4375,7.625l-.25,.5 5.375,10.6562v-1l-5.125-10.1562zm-17.0312,.6562c-.0324,.3117-.0329,.6439 0,1 .4177,4.6261 5.0938,4.8438 5.0938,4.8438l10.8125,.0625v-1l-10.8125-.0625c0,0-4.6761-.2177-5.0938-4.8438z"/>
</g>
</g>
<g transform="translate(-1.74863 3.19558)">
<g opacity=".569" clip-path="url(#clipPath4105)" transform="matrix(1 .23771 0 1 203.14294 40.16799)">
<path opacity=".8" fill="url(#linearGradient4150)" d="m-134.4688,48.125c-1.9789,.0381-4.3985,.2052-7.3438,.5938 0,0 3.7243,.8754 4.5,2.1562 .7836,1.2689 5.5938,9.6875 5.5938,9.6875l-4.625,2.6562 11.875-.5938 6.5625-9.9688-4.7812,2.75-2.8125-4.9375c0,0-.3937-2.509-8.9688-2.3438zm-8.6875,1.7188c-2.8993-.0786-4.5938,2.5-4.5938,2.5l-5.4688,9.3438 9,5.2188 5.4375-9.6562c0,0 1.9215-4.9384-2.1875-6.8438-.7936-.3662-1.5184-.5444-2.1875-.5625zm24.625,10.9375l-9.0312,5.2188 5.6562,9.5312c0,0 3.3712,4.1486 7.0625,1.5312 3.8067-2.6889 1.6562-6.875 1.6562-6.875l-5.3438-9.4062zm-42.0625,4.7188l4.7812,2.75-2.8438,4.9375c0,0-3.6898,3.5647 6.6562,14.9688 0,0-1.0944-3.3493-.4062-5 .7001-1.6348 5.625-9.6562 5.625-9.6562l4.5938,2.6875-6.4688-10-11.9375-.6875zm32.5312,9.2188l-5.375,10.625 5.375,10.6562v-5.5h5.6562c0,0 4.7557,1.3289 9.6562-13.2812 0,0-2.4782,2.8438-4.125,2.8438-1.6468,0-11.1875,0-11.1875,0v-5.3438zm-6.25,6.3125l-11.0625,.125c0,0-5.2614,.8291-4.8438,5.3438 .4177,4.6261 5.0938,4.8438 5.0938,4.8438l10.8125,.0625v-10.375z"/>
<path opacity=".8" fill="#555" d="m-134.4812,48.125c-1.9789,.0381-4.3985,.2052-7.3438,.5938 0,0 1.1603,.2608 2.3125,.7188 1.9312-.1986 3.5961-.2848 5.0312-.3125 8.5751-.1653 8.9687,2.3438 8.9687,2.3438l2.8125,4.9375 3.7188-2.1562 1.0625-1.5938-4.7812,2.75-2.8125-4.9375c0,0-.3937-2.509-8.9687-2.3438zm-9.2188,1.7188c-2.5751,.2185-4.0625,2.5-4.0625,2.5l-5.4688,9.3438 .4375,.25 5.0312-8.5938c0,0 1.6944-2.5786 4.5938-2.5 .6691,.0181 1.3939,.1963 2.1875,.5625 1.8972,.8797 2.4851,2.3929 2.5938,3.7812 .1174-1.5879-.2219-3.6814-2.5938-4.7812-.7936-.3662-1.5184-.5444-2.1875-.5625-.1812-.0049-.3596-.0146-.5312,0zm25.1562,10.9375l-9.0312,5.2188 .4375,.75 8.5938-4.9688 5.3438,9.4062c0,0 .4565,.9523 .5625,2.2188 .1691-1.7484-.5625-3.2188-.5625-3.2188l-5.3438-9.4062zm-13.625,.0312l-4.1875,2.4062 1.9062-.0938 2.7188-1.5625c0,0-.3717-.635-.4375-.75zm-28.4375,4.6875l1.9375,1.125 10,.5625 5.4375,8.4062 1.0312,.5938-6.4688-10-11.9375-.6875zm4.3438,3.5l-2.4062,4.1875c0,0-.7332,.7518-.5938,2.625 .1234-1.1485 .5938-1.625 .5938-1.625l2.8438-4.9375-.4375-.25zm28.1875,5.7188l-5.375,10.625 .25,.5 5.125-10.125v-1zm15.3125,2.5c0,0-2.4782,2.8438-4.125,2.8438-1.6468,0-11.1875,0-11.1875,0v1c0,0 9.5407,0 11.1875,0 1.1708,0 2.7406-1.4191 3.5625-2.25 .1897-.5207 .3721-1.026 .5625-1.5938zm-21.5625,3.8125l-11.0625,.125c0,0-5.2614,.8291-4.8438,5.3438 .0029,.0326-.0034,.0616 0,.0938 .3057-3.7264 4.8438-4.4375 4.8438-4.4375l11.0625-.125v-1zm-18.2812,3.9375c-.1028,.9036 .0353,1.9378 .2188,2.7812 .1266,.142 .2439,.2617 .375,.4062 0,0-.5069-1.6386-.5938-3.1875z"/>
<path opacity="1" fill="#fff" d="m-139.5375,48.4375c-.7307,.0752-1.4732,.1746-2.2812,.2812 0,0 3.7243,.8754 4.5,2.1562 .7161,1.1596 4.4588,7.7175 5.1562,8.9375l.4375-.25c0,0-4.8101-8.4186-5.5938-9.6875-.3457-.5708-1.2924-1.0693-2.2188-1.4375zm21.625,4.2188l-1.0625,.5938-5.5,8.375-9.9688,.5-1.9062,1.0938 11.875-.5938 6.5625-9.9688zm-20.4688,1.375c-.0652,1.2378-.4062,2.2188-.4062,2.2188l-5.4375,9.6562-8.5625-4.9688-.4375,.75 9,5.2188 5.4375-9.6562c0,0 .5837-1.5371 .4062-3.2188zm-22.2188,11.4688l4.3438,2.5 .4375-.75-2.8438-1.625-1.9375-.125zm33.4688,.25l-.4375,.25 5.6562,9.5312c0,0 3.3712,4.1486 7.0625,1.5312 2.011-1.4205 2.3374-3.238 2.2188-4.6562-.1173,1.2134-.6592,2.5546-2.2188,3.6562-3.6913,2.6173-7.0625-1.5312-7.0625-1.5312l-5.2188-8.7812zm-19.6562,6.75c0,0-4.9249,8.0214-5.625,9.6562-.2261,.5425-.2755,1.2698-.2188,2 .0266-.3661 .0983-.711 .2188-1 .7001-1.6348 5.625-9.6562 5.625-9.6562l4.5938,2.6875-1.0312-1.5938-3.5625-2.0938zm-12.5,2.4062c-.1717,2.0466 .815,6.1224 7.2812,13.25 0,0-.2048-.6238-.375-1.4062-5.2547-5.8925-6.7119-9.6349-6.9062-11.8438zm46.5312,2.3125c0,0-.2441,.2392-.5625,.5625-4.6971,12.912-9.0937,11.7187-9.0938,11.7188h-5.6562v1h5.6562c0,0 4.7557,1.3289 9.6562-13.2812zm-20.4375,7.625l-.25,.5 5.375,10.6562v-1l-5.125-10.1562zm-17.0312,.6562c-.0324,.3117-.0329,.6439 0,1 .4177,4.6261 5.0938,4.8438 5.0938,4.8438l10.8125,.0625v-1l-10.8125-.0625c0,0-4.6761-.2177-5.0938-4.8438z"/>
</g>
</g>
</svg>
