<?xml version="1.0" encoding="UTF-8" standalone="no"?>
<!-- Created with Inkscape (http://www.inkscape.org/) -->
<svg
   xmlns:svg="http://www.w3.org/2000/svg"
   xmlns="http://www.w3.org/2000/svg"
   version="1.0"
   width="128pt"
   height="128pt"
   viewBox="0 0 128 128"
   id="svg2">
  <defs
     id="defs95" />
  <g
     id="#2222225c">
    <path
       d="M 36.54,0 L 42.14,0 C 41.59,0.57 40.49,1.7 39.94,2.27 C 36.01,4.05 31.86,5.66 28.65,8.66 C 23.27,13.53 21.21,20.99 20.64,28 C 20.6,30.53 20.25,33.75 22.58,35.44 C 27.66,39.24 33.36,42.37 39.48,44.11 C 40.73,37.71 40.26,30.17 45.18,25.21 C 49.28,20.96 55.72,20.31 61.19,21.75 C 67.05,23.29 72.97,25.41 77.72,29.26 C 80.3,31.27 80.84,34.88 80.11,37.91 C 79.29,41.79 76.15,44.52 73.43,47.16 C 73.09,47.26 72.41,47.46 72.07,47.56 L 72.51,46.82 C 74.98,43.68 77.43,40.48 79.14,36.86 C 79.82,33.89 77.94,31.03 75.51,29.49 C 69.53,25.51 62.32,23.22 55.12,23.3 C 51.39,23.51 46.9,24.39 44.98,27.98 C 42.25,33.25 41.66,39.26 40.43,44.99 C 34.44,44.81 29.22,41.7 24.27,38.67 C 22.17,37.29 19.53,35.74 19.41,32.92 C 18.68,26.67 19.09,19.97 22.42,14.47 C 25.4,8.65 30.77,4.63 36.55,1.85 C 36.54,1.39 36.54,0.46 36.54,0 z"
       id="path5"
       style="opacity:0.36000001;fill:#222222" />
  </g>
  <g
     id="#434243a8">
    <path
       d="M 42.14,0 L 47.33,0 C 41.72,4.68 33.38,4.67 28.82,10.82 C 23.7,15.75 22.81,23.33 22.82,30.07 C 22.71,35.23 28.24,37.33 32.04,39.36 C 34.22,40.55 36.45,41.67 38.84,42.41 C 39.43,38.22 39.8,33.99 39.78,29.76 C 42.8,25.73 46.53,22.31 50.7,19.5 C 59.94,19.63 69.46,21.34 77.08,26.89 C 80.78,29.26 83.45,34.2 81.53,38.5 C 80.44,41.77 78.36,44.54 76.56,47.44 C 75.52,47.32 74.48,47.22 73.43,47.16 C 76.15,44.52 79.29,41.79 80.11,37.91 C 80.84,34.88 80.3,31.27 77.72,29.26 C 72.97,25.41 67.05,23.29 61.19,21.75 C 55.72,20.31 49.28,20.96 45.18,25.21 C 40.26,30.17 40.73,37.71 39.48,44.11 C 33.36,42.37 27.66,39.24 22.58,35.44 C 20.25,33.75 20.6,30.53 20.64,28 C 21.21,20.99 23.27,13.53 28.65,8.66 C 31.86,5.66 36.01,4.05 39.94,2.27 C 40.49,1.7 41.59,0.57 42.14,0 z"
       id="path8"
       style="opacity:0.66000001;fill:#434243" />
  </g>
  <g
     id="#676867e8">
    <path
       d="M 47.33,0 L 60.7,0 C 59.69,1.04 58.72,2.13 57.75,3.21 C 47.59,2.57 37.25,5.02 28.82,10.82 C 33.38,4.67 41.72,4.68 47.33,0 z"
       id="path11"
       style="opacity:0.91000001;fill:#676867" />
  </g>
  <g
     id="#3a3a3b89">
    <path
       d="M 60.7,0 L 67.56,0 C 67.47,0.55 67.29,1.65 67.2,2.2 C 79.39,4.75 92.12,8.83 100.87,18.15 C 106.31,23.59 106.29,32.01 104.94,39.06 C 104.41,42.38 102.07,44.9 99.93,47.3 C 99.95,46.5 100,44.9 100.03,44.1 C 102.51,38.42 105.2,31.86 102.47,25.75 C 98.01,15.61 87.12,10.53 77.08,7.55 C 70.76,5.61 64.39,3.61 57.75,3.21 C 58.72,2.13 59.69,1.04 60.7,0 z"
       id="path14"
       style="opacity:0.54000005;fill:#3a3a3b" />
  </g>
  <g
     id="#8e8a94f9">
    <path
       d="M 28.82,10.82 C 37.25,5.02 47.59,2.57 57.75,3.21 C 64.39,3.61 70.76,5.61 77.08,7.55 C 87.12,10.53 98.01,15.61 102.47,25.75 C 105.2,31.86 102.51,38.42 100.03,44.1 C 98.66,46.19 97,48.08 95.33,49.94 L 94.68,49.21 L 94.74,48.35 C 97.16,44.31 100.13,40.31 100.56,35.46 C 100.88,31.13 101.14,26.25 98.44,22.57 C 95.04,18.15 90.13,15.24 85.18,12.85 C 81.96,11.21 78.64,9.72 75.13,8.81 C 66.96,6.74 58.73,3.43 50.14,4.83 C 43.32,6.11 35.91,7.74 30.77,12.75 C 27.14,17.21 24.97,23.1 25.17,28.87 C 26.47,32.89 29.75,35.89 32.04,39.36 C 28.24,37.33 22.71,35.23 22.82,30.07 C 22.81,23.33 23.7,15.75 28.82,10.82 z"
       id="path17"
       style="opacity:0.98000004;fill:#8e8a94" />
  </g>
  <g
     id="#bab2c7ff">
    <path
       d="M 30.77,12.75 C 35.91,7.74 43.32,6.11 50.14,4.83 C 46.08,7.77 41.37,10.11 38.39,14.29 C 34.18,20.4 29.91,27.09 30.21,34.83 C 31.68,35.15 33.15,35.89 34.68,35.67 C 37.71,32.03 38.31,26.97 41.39,23.35 C 43.08,21.33 45.3,19.86 47.53,18.49 C 53.8,16.93 60.52,15.68 66.81,17.89 C 73.76,20.15 82.2,22.24 85.8,29.31 C 88.82,35.03 85.42,41.2 83.09,46.49 C 83.66,46.68 84.8,47.06 85.37,47.24 C 85.83,47.39 86.74,47.68 87.19,47.82 C 85.4,47.8 83.61,47.85 81.81,47.83 C 81.21,47.48 80,46.78 79.39,46.42 C 84.23,42.44 86.4,35.22 83.46,29.48 C 80.85,24.76 75.37,22.93 70.63,21.09 C 64.31,18.61 57.34,18.1 50.7,19.5 C 45.27,20.31 40.83,24.32 39.78,29.76 C 38.95,32.7 38.29,35.69 37.6,38.67 C 35.75,38.91 33.89,39.14 32.04,39.36 C 29.75,35.89 26.47,32.89 25.17,28.87 C 24.97,23.1 27.14,17.21 30.77,12.75 z"
       id="path20"
       style="opacity:1;fill:#bab2c7" />
  </g>
  <g
     id="#d4cedaff">
    <path
       d="M 50.14,4.83 C 58.73,3.43 66.96,6.74 75.13,8.81 C 78.64,9.72 81.96,11.21 85.18,12.85 C 74.61,10.93 64.3,7.73 53.65,6.23 C 51.47,12.43 43.83,12.41 39.8,16.8 C 35.03,21.82 33.23,28.75 30.21,34.83 C 29.91,27.09 34.18,20.4 38.39,14.29 C 41.37,10.11 46.08,7.77 50.14,4.83 z"
       id="path23"
       style="opacity:1;fill:#d4ceda" />
  </g>
  <g
     id="#f1eef3ff">
    <path
       d="M 53.65,6.23 C 64.3,7.73 74.61,10.93 85.18,12.85 C 90.13,15.24 95.04,18.15 98.44,22.57 C 101.14,26.25 100.88,31.13 100.56,35.46 C 100.13,40.31 97.16,44.31 94.74,48.35 C 92.22,48.24 89.7,48.08 87.19,47.82 C 86.74,47.68 85.83,47.39 85.37,47.24 C 87.81,43.8 90.86,40.45 91.39,36.08 C 91.81,31.73 91.77,26.74 88.78,23.22 C 86.32,20.07 82.52,18.36 78.85,17.03 C 75.24,15.95 71.8,14.21 68.01,13.84 C 60.94,12.97 53.34,14.14 47.53,18.49 C 45.3,19.86 43.08,21.33 41.39,23.35 C 38.31,26.97 37.71,32.03 34.68,35.67 C 33.15,35.89 31.68,35.15 30.21,34.83 C 33.23,28.75 35.03,21.82 39.8,16.8 C 43.83,12.41 51.47,12.43 53.65,6.23 z"
       id="path26"
       style="opacity:1;fill:#f1eef3" />
  </g>
  <g
     id="#d8d2ddff">
    <path
       d="M 47.53,18.49 C 53.34,14.14 60.94,12.97 68.01,13.84 C 71.8,14.21 75.24,15.95 78.85,17.03 C 82.52,18.36 86.32,20.07 88.78,23.22 C 91.77,26.74 91.81,31.73 91.39,36.08 C 90.86,40.45 87.81,43.8 85.37,47.24 C 84.8,47.06 83.66,46.68 83.09,46.49 C 85.42,41.2 88.82,35.03 85.8,29.31 C 82.2,22.24 73.76,20.15 66.81,17.89 C 60.52,15.68 53.8,16.93 47.53,18.49 z"
       id="path29"
       style="opacity:1;fill:#d8d2dd" />
  </g>
  <g
     id="#838089f6">
    <path
       d="M 50.7,19.5 C 57.34,18.1 64.31,18.61 70.63,21.09 C 75.37,22.93 80.85,24.76 83.46,29.48 C 86.4,35.22 84.23,42.44 79.39,46.42 C 78.3,47.05 77.18,47.62 76.07,48.21 L 76.56,47.44 C 78.36,44.54 80.44,41.77 81.53,38.5 C 83.45,34.2 80.78,29.26 77.08,26.89 C 69.46,21.34 59.94,19.63 50.7,19.5 z"
       id="path32"
       style="opacity:0.95999995;fill:#838089" />
  </g>
  <g
     id="#7d7d7ddd">
    <path
       d="M 39.78,29.76 C 40.83,24.32 45.27,20.31 50.7,19.5 C 46.53,22.31 42.8,25.73 39.78,29.76 z"
       id="path35"
       style="opacity:0.87000002;fill:#7d7d7d" />
  </g>
  <g
     id="#7c7c7ddb">
    <path
       d="M 37.6,38.67 C 38.29,35.69 38.95,32.7 39.78,29.76 C 39.8,33.99 39.43,38.22 38.84,42.41 C 36.45,41.67 34.22,40.55 32.04,39.36 C 33.89,39.14 35.75,38.91 37.6,38.67 z"
       id="path38"
       style="opacity:0.86000001;fill:#7c7c7d" />
  </g>
  <g
     id="#56310083">
    <path
       d="M 95.33,49.94 C 97,48.08 98.66,46.19 100.03,44.1 C 100,44.9 99.95,46.5 99.93,47.3 C 99.92,48.67 99.96,50.03 100,51.4 C 102.59,51.78 105.17,52.19 107.76,52.56 C 108.75,57.5 108.6,62.63 107.17,67.48 C 105.52,73.17 104.55,79.07 104.5,85.01 C 104.44,93.92 104.23,102.84 104.74,111.74 C 104.42,114.43 104.5,117.56 102.57,119.67 C 99.55,121.99 95.61,122.47 91.98,123.17 C 95.66,121.63 99.33,120.06 103.04,118.59 C 102.97,117.99 102.83,116.78 102.76,116.18 C 101.32,106.88 100.98,97.46 101.6,88.07 C 102.46,77.73 105.3,67.59 105.77,57.23 C 102.72,54.23 98.32,53.06 95.33,49.94 z"
       id="path41"
       style="opacity:0.51000001;fill:#563100" />
  </g>
  <g
     id="#361b0054">
    <path
       d="M 51.09,48.25 C 58.14,46.79 65.38,47.48 72.51,46.82 L 72.07,47.56 C 65.75,49.33 59.08,49.16 52.68,50.55 C 44.04,51.37 35.68,53.64 27.48,56.42 C 24,57.33 20.1,58.12 17.69,61.04 C 19.12,68.34 22.18,75.24 23.64,82.54 C 25.16,90.31 26.92,98.06 27.43,105.98 C 27.65,111.49 27.55,117.01 27.66,122.53 C 28.78,122.81 29.89,123.11 31,123.4 C 33.6,124.81 36.15,126.33 38.6,128 L 34.03,128 C 31.44,126.62 28.76,125.29 26.59,123.28 C 24.52,121.49 24.66,118.52 24.46,116.03 C 24.3,108.67 23.59,101.34 23.31,93.98 C 23.01,86.82 20.45,80.06 18.7,73.17 C 17.68,69.15 15.53,65.41 15.27,61.22 C 15.28,59.14 16.94,57.61 18.74,56.89 C 29.13,52.67 40.2,50.69 51.09,48.25 z"
       id="path44"
       style="opacity:0.33000004;fill:#361b00" />
  </g>
  <g
     id="#794b13b4">
    <path
       d="M 72.07,47.56 C 72.41,47.46 73.09,47.26 73.43,47.16 C 74.48,47.22 75.52,47.32 76.56,47.44 L 76.07,48.21 C 74.37,49.22 72.66,50.2 70.91,51.12 C 70.48,51.14 69.61,51.18 69.17,51.2 C 63.67,51.04 58.18,50.61 52.68,50.55 C 59.08,49.16 65.75,49.33 72.07,47.56 z"
       id="path47"
       style="opacity:0.70999995;fill:#794b13" />
  </g>
  <g
     id="#ad7d4dff">
    <path
       d="M 76.07,48.21 C 77.18,47.62 78.3,47.05 79.39,46.42 C 80,46.78 81.21,47.48 81.81,47.83 C 82.77,48.67 83.71,49.52 84.64,50.38 C 80.09,51.04 75.49,51.08 70.91,51.12 C 72.66,50.2 74.37,49.22 76.07,48.21 z"
       id="path50"
       style="opacity:1;fill:#ad7d4d" />
  </g>
  <g
     id="#d7b37fff">
    <path
       d="M 81.81,47.83 C 83.61,47.85 85.4,47.8 87.19,47.82 C 89.7,48.08 92.22,48.24 94.74,48.35 L 94.68,49.21 C 94.67,50.56 94.55,51.92 94.72,53.26 C 97.67,54.83 100.94,55.71 103.83,57.4 C 104.57,64.17 102.47,70.8 101.44,77.43 C 99.1,89.34 100.64,101.52 99.61,113.54 C 99.38,112.98 98.91,111.85 98.67,111.29 C 99.2,106.39 99.16,101.46 98.93,96.54 C 99.36,88.44 99.12,80.27 100.37,72.23 C 101.06,67.34 103.5,62.57 102.56,57.54 C 97.61,55.97 92.33,55.94 87.37,54.42 C 77.44,51.22 66.94,53.19 56.73,52.63 C 60.87,52.12 64.99,51.39 69.17,51.2 C 69.61,51.18 70.48,51.14 70.91,51.12 C 75.49,51.08 80.09,51.04 84.64,50.38 C 83.71,49.52 82.77,48.67 81.81,47.83 z"
       id="path53"
       style="opacity:1;fill:#d7b37f" />
  </g>
  <g
     id="#ae8346de">
    <path
       d="M 94.68,49.21 L 95.33,49.94 C 98.32,53.06 102.72,54.23 105.77,57.23 C 105.3,67.59 102.46,77.73 101.6,88.07 C 100.98,97.46 101.32,106.88 102.76,116.18 C 102.5,116.29 101.98,116.5 101.72,116.61 C 101.37,116.34 100.67,115.8 100.32,115.53 C 100.15,115.03 99.79,114.04 99.61,113.54 C 100.64,101.52 99.1,89.34 101.44,77.43 C 102.47,70.8 104.57,64.17 103.83,57.4 C 100.94,55.71 97.67,54.83 94.72,53.26 C 94.55,51.92 94.67,50.56 94.68,49.21 z"
       id="path56"
       style="opacity:0.87000002;fill:#ae8346" />
  </g>
  <g
     id="#966f3bbe">
    <path
       d="M 27.48,56.42 C 35.68,53.64 44.04,51.37 52.68,50.55 C 58.18,50.61 63.67,51.04 69.17,51.2 C 64.99,51.39 60.87,52.12 56.73,52.63 C 50.72,53.19 44.73,54.07 38.91,55.72 C 36.34,56.29 33.75,56.81 31.11,57 C 30.2,56.86 28.39,56.57 27.48,56.42 z"
       id="path59"
       style="opacity:0.75;fill:#966f3b" />
  </g>
  <g
     id="#fcf9ddff">
    <path
       d="M 38.91,55.72 C 44.73,54.07 50.72,53.19 56.73,52.63 C 66.94,53.19 77.44,51.22 87.37,54.42 C 92.33,55.94 97.61,55.97 102.56,57.54 C 103.5,62.57 101.06,67.34 100.37,72.23 C 99.12,80.27 99.36,88.44 98.93,96.54 C 97.53,94.65 95.9,92.71 95.82,90.24 C 95.19,83.76 95.79,77.24 96,70.76 C 96.24,67.36 96.3,63.95 95.88,60.57 C 85.88,59.46 76.13,56.37 66,56.54 C 56.95,56.78 47.93,54.19 38.91,55.72 z"
       id="path62"
       style="opacity:1;fill:#fcf9dd" />
  </g>
  <g
     id="#fcdb6cff">
    <path
       d="M 31.11,57 C 33.75,56.81 36.34,56.29 38.91,55.72 C 47.93,54.19 56.95,56.78 66,56.54 C 76.13,56.37 85.88,59.46 95.88,60.57 C 96.3,63.95 96.24,67.36 96,70.76 C 95.03,77.31 93.81,83.94 94.73,90.59 C 95.72,97.53 95.56,104.84 98.67,111.29 C 98.91,111.85 99.38,112.98 99.61,113.54 C 99.79,114.04 100.15,115.03 100.32,115.53 C 99.62,115.77 98.23,116.25 97.53,116.49 C 94.92,110.13 95,103.14 93.37,96.53 C 91.94,90.75 91.46,84.7 92.62,78.83 C 93.37,73.5 95.61,68.15 94.4,62.73 C 90.96,60.52 86.63,60.88 82.72,60.52 C 71.98,59.94 61.22,58.57 50.46,59.66 C 43.63,60.45 36.66,60.57 29.96,58.81 C 30.25,58.36 30.82,57.45 31.11,57 z"
       id="path65"
       style="opacity:1;fill:#fcdb6c" />
  </g>
  <g
     id="#b06900e3">
    <path
       d="M 17.69,61.04 C 20.1,58.12 24,57.33 27.48,56.42 C 28.39,56.57 30.2,56.86 31.11,57 C 30.82,57.45 30.25,58.36 29.96,58.81 C 26.84,59.88 23.71,60.99 20.83,62.62 C 23.09,69.88 25.44,77.11 27.17,84.51 C 29.59,96.09 29.7,107.99 31.38,119.65 C 34.72,122.09 38.82,122.96 42.85,123.41 C 51.88,123.96 60.93,124.91 69.96,123.9 C 80.86,123.34 92.08,122.14 101.72,116.61 C 101.98,116.5 102.5,116.29 102.76,116.18 C 102.83,116.78 102.97,117.99 103.04,118.59 C 99.33,120.06 95.66,121.63 91.98,123.17 C 84.2,124.37 75.33,122.72 68.75,128 L 52.21,128 C 45.99,123.58 38.19,124.24 31,123.4 C 29.89,123.11 28.78,122.81 27.66,122.53 C 27.55,117.01 27.65,111.49 27.43,105.98 C 26.92,98.06 25.16,90.31 23.64,82.54 C 22.18,75.24 19.12,68.34 17.69,61.04 z"
       id="path68"
       style="opacity:0.88999999;fill:#b06900" />
  </g>
  <g
     id="#f4a000ff">
    <path
       d="M 20.83,62.62 C 23.71,60.99 26.84,59.88 29.96,58.81 C 28.12,60.29 26.11,61.63 24.64,63.5 C 23.69,68.46 26.33,73.2 28.79,77.31 C 36.28,74.82 44.04,72.12 52.05,72.85 C 57.37,73.21 62.46,76.53 64.75,81.37 C 66.17,85.72 64.55,90.19 64.25,94.57 C 72.7,96.04 83.39,95.32 88.92,103.17 C 92.1,109.05 86.88,114.6 82.95,118.47 C 87.89,119.17 92.97,118.55 97.53,116.49 C 98.23,116.25 99.62,115.77 100.32,115.53 C 100.67,115.8 101.37,116.34 101.72,116.61 C 92.08,122.14 80.86,123.34 69.96,123.9 C 60.93,124.91 51.88,123.96 42.85,123.41 C 42.14,121.99 41.46,120.56 40.82,119.11 C 54.76,120.05 69.44,120.16 82.2,113.64 C 74.86,109.18 68.8,103.07 62.03,97.85 C 59.11,95.08 57.41,91.3 54.55,88.47 C 51.54,85.48 48.5,82.51 45.29,79.75 C 41.9,76.86 37.1,78.18 33.05,78.18 C 32.88,84.43 34.12,90.59 35.31,96.69 C 36.72,104.32 34.14,113.08 39.55,119.57 C 36.83,119.67 34.1,119.68 31.38,119.65 C 29.7,107.99 29.59,96.09 27.17,84.51 C 25.44,77.11 23.09,69.88 20.83,62.62 z"
       id="path71"
       style="opacity:1;fill:#f4a000" />
  </g>
  <g
     id="#ffbb00ff">
    <path
       d="M 29.96,58.81 C 36.66,60.57 43.63,60.45 50.46,59.66 C 61.22,58.57 71.98,59.94 82.72,60.52 C 86.63,60.88 90.96,60.52 94.4,62.73 C 95.61,68.15 93.37,73.5 92.62,78.83 C 91.46,84.7 91.94,90.75 93.37,96.53 C 95,103.14 94.92,110.13 97.53,116.49 C 92.97,118.55 87.89,119.17 82.95,118.47 C 86.88,114.6 92.1,109.05 88.92,103.17 C 83.39,95.32 72.7,96.04 64.25,94.57 C 64.55,90.19 66.17,85.72 64.75,81.37 C 62.46,76.53 57.37,73.21 52.05,72.85 C 44.04,72.12 36.28,74.82 28.79,77.31 C 26.33,73.2 23.69,68.46 24.64,63.5 C 26.11,61.63 28.12,60.29 29.96,58.81 z"
       id="path74"
       style="opacity:1;fill:#ffbb00" />
  </g>
  <g
     id="#f2e3b4fd">
    <path
       d="M 94.73,90.59 C 93.81,83.94 95.03,77.31 96,70.76 C 95.79,77.24 95.19,83.76 95.82,90.24 C 95.9,92.71 97.53,94.65 98.93,96.54 C 99.16,101.46 99.2,106.39 98.67,111.29 C 95.56,104.84 95.72,97.53 94.73,90.59 z"
       id="path77"
       style="opacity:1;fill:#f2e3b4" />
  </g>
  <g
     id="#ec8d00ff">
    <path
       d="M 33.05,78.18 C 37.1,78.18 41.9,76.86 45.29,79.75 C 48.5,82.51 51.54,85.48 54.55,88.47 C 57.41,91.3 59.11,95.08 62.03,97.85 C 68.8,103.07 74.86,109.18 82.2,113.64 C 69.44,120.16 54.76,120.05 40.82,119.11 C 41.46,120.56 42.14,121.99 42.85,123.41 C 38.82,122.96 34.72,122.09 31.38,119.65 C 34.1,119.68 36.83,119.67 39.55,119.57 C 34.14,113.08 36.72,104.32 35.31,96.69 C 34.12,90.59 32.88,84.43 33.05,78.18 z"
       id="path80"
       style="opacity:1;fill:#ec8d00" />
  </g>
  <g
     id="#4e2a0076">
    <path
       d="M 102.57,119.67 C 104.5,117.56 104.42,114.43 104.74,111.74 C 104.76,114.34 105.57,117.09 104.67,119.61 C 101.84,123.58 96.54,124.12 92.09,124.81 C 89.04,125.22 86.22,126.47 83.58,128 L 77.62,128 C 81.98,125.32 86.94,123.88 91.98,123.17 C 95.61,122.47 99.55,121.99 102.57,119.67 z"
       id="path83"
       style="opacity:0.46000001;fill:#4e2a00" />
  </g>
  <g
     id="#7d4500b5">
    <path
       d="M 68.75,128 C 75.33,122.72 84.2,124.37 91.98,123.17 C 86.94,123.88 81.98,125.32 77.62,128 L 68.75,128 z"
       id="path86"
       style="opacity:0.70999995;fill:#7d4500" />
  </g>
  <g
     id="#724000a8">
    <path
       d="M 31,123.4 C 38.19,124.24 45.99,123.58 52.21,128 L 38.6,128 C 36.15,126.33 33.6,124.81 31,123.4 z"
       id="path89"
       style="opacity:0.66000001;fill:#724000" />
  </g>
  <g
     id="#24130037">
    <path
       d="M 83.58,128 C 86.22,126.47 89.04,125.22 92.09,124.81 C 90.75,125.89 89.41,126.98 88.03,128 L 83.58,128 z"
       id="path92"
       style="opacity:0.22000002;fill:#241300" />
  </g>
</svg>
