<?xml version="1.0" encoding="UTF-8" standalone="no"?>
<!-- Created with Inkscape (http://www.inkscape.org/) -->
<svg
   xmlns:svg="http://www.w3.org/2000/svg"
   xmlns="http://www.w3.org/2000/svg"
   version="1.0"
   width="128pt"
   height="128pt"
   viewBox="0 0 128 128"
   id="svg2">
  <defs
     id="defs95" />
  <g
     id="#7d552abe">
    <path
       d="M 61.24,7.83 C 61.56,6.33 65.51,6.23 65.82,7.87 L 65.21,8.22 C 63.88,8.13 62.56,8 61.24,7.83 z"
       id="path5"
       style="opacity:0.75;fill:#7d552a" />
  </g>
  <g
     id="#7d3405f0">
    <path
       d="M 54.92,14.97 C 56.77,12.52 57.39,7.78 61.24,7.83 C 46.65,34.59 32.45,61.57 17.62,88.2 C 15.26,92.37 13.18,96.7 10.77,100.85 C 9.1,103.61 7.5,106.42 5.76,109.15 C 5.54,109.32 5.1,109.67 4.88,109.84 L 4.06,110.17 L 3.93,109.18 C 20.11,77.57 38.1,46.43 54.92,14.97 z"
       id="path8"
       style="opacity:0.93999999;fill:#7d3405" />
  </g>
  <g
     id="#f0ca90ff">
    <path
       d="M 61.24,7.83 C 62.56,8 63.88,8.13 65.21,8.22 C 59.19,10.82 58.03,17.9 55.02,23.11 C 53.46,26.01 52.02,28.98 50.57,31.95 C 42.04,49.06 32.01,65.39 23.07,82.26 C 21.16,83.95 20.57,88.97 17.62,88.2 C 32.45,61.57 46.65,34.59 61.24,7.83 z"
       id="path11"
       style="opacity:1;fill:#f0ca90" />
  </g>
  <g
     id="#fcc262ff">
    <path
       d="M 65.21,8.22 L 65.82,7.87 C 74.25,22.2 81.27,37.3 89.31,51.83 C 89.03,52.45 88.47,53.67 88.19,54.28 L 87.43,54.17 C 86.07,51.37 84.73,48.56 83.24,45.83 C 79.18,37.51 75.36,29.05 70.8,20.98 C 65.43,20.58 60.15,21.71 55.02,23.11 C 58.03,17.9 59.19,10.82 65.21,8.22 z"
       id="path14"
       style="opacity:1;fill:#fcc262" />
  </g>
  <g
     id="#7a3102f2">
    <path
       d="M 65.82,7.87 C 67.79,7.78 69.3,9.26 69.92,11.06 C 87.41,43.87 105.84,76.18 123.02,109.15 C 123.03,109.61 123.06,110.53 123.08,110.99 C 122.04,110.27 120.98,109.6 119.89,108.98 C 116.92,103.99 114.29,98.81 111.11,93.94 C 104.73,79.47 96.16,66.09 89.31,51.83 C 81.27,37.3 74.25,22.2 65.82,7.87 z"
       id="path17"
       style="opacity:0.95;fill:#7a3102" />
  </g>
  <g
     id="#fbb043ff">
    <path
       d="M 55.02,23.11 C 60.15,21.71 65.43,20.58 70.8,20.98 C 75.36,29.05 79.18,37.51 83.24,45.83 C 79.7,43.4 76.51,39.59 72.03,39.01 C 69.52,39.89 67.11,41.28 64.34,40.9 C 61.15,36.26 55.14,34.9 50.57,31.95 C 52.02,28.98 53.46,26.01 55.02,23.11 z"
       id="path20"
       style="opacity:1;fill:#fbb043" />
  </g>
  <g
     id="#e69b3bff">
    <path
       d="M 23.07,82.26 C 32.01,65.39 42.04,49.06 50.57,31.95 C 55.14,34.9 61.15,36.26 64.34,40.9 C 61.49,40.86 56.78,39.99 56.92,43.95 C 56.84,47.58 57.03,51.22 56.96,54.85 C 44.23,62.15 33.72,72.56 23.07,82.26 z"
       id="path23"
       style="opacity:1;fill:#e69b3b" />
  </g>
  <g
     id="#f79b23ff">
    <path
       d="M 64.34,40.9 C 67.11,41.28 69.52,39.89 72.03,39.01 C 76.51,39.59 79.7,43.4 83.24,45.83 C 84.73,48.56 86.07,51.37 87.43,54.17 C 83.35,58.17 72.21,56.01 70.98,62.17 C 70.78,63.54 70.55,64.9 70.32,66.27 C 70.02,58.93 70.18,51.57 69.86,44.23 C 67.01,41.28 61.41,43.25 57.77,43.68 L 56.92,43.95 C 56.78,39.99 61.49,40.86 64.34,40.9 z"
       id="path26"
       style="opacity:1;fill:#f79b23" />
  </g>
  <g
     id="#fffdfcff">
    <path
       d="M 57.77,43.68 C 61.41,43.25 67.01,41.28 69.86,44.23 C 70.18,51.57 70.02,58.93 70.32,66.27 C 69.17,70.89 71.91,77.06 68.71,80.94 C 65.43,79.95 59.77,83.22 57.74,79.2 C 57.98,67.36 58.3,55.51 57.77,43.68 z"
       id="path29"
       style="opacity:1;fill:#fffdfc" />
  </g>
  <g
     id="#fae4bfff">
    <path
       d="M 56.92,43.95 L 57.77,43.68 C 58.3,55.51 57.98,67.36 57.74,79.2 C 57.52,77.61 57.08,74.45 56.86,72.87 C 56.97,66.86 57.01,60.86 56.96,54.85 C 57.03,51.22 56.84,47.58 56.92,43.95 z"
       id="path32"
       style="opacity:1;fill:#fae4bf" />
  </g>
  <g
     id="#f8a834ff">
    <path
       d="M 89.31,51.83 C 96.16,66.09 104.73,79.47 111.11,93.94 C 102.07,81.67 95.65,67.58 88.19,54.28 C 88.47,53.67 89.03,52.45 89.31,51.83 z"
       id="path35"
       style="opacity:1;fill:#f8a834" />
  </g>
  <g
     id="#fe900aff">
    <path
       d="M 87.43,54.17 L 88.19,54.28 C 95.65,67.58 102.07,81.67 111.11,93.94 C 114.29,98.81 116.92,103.99 119.89,108.98 C 120.09,111.28 121.46,114.1 118.91,115.58 C 113.69,115.24 108.47,115.05 103.25,114.81 C 93.85,113.02 93.16,101.86 85.46,97.49 C 81.32,94.47 76.55,91.71 71.25,91.97 C 70.84,90.99 70.42,90.01 70,89.04 C 69.29,87.14 67.83,85.69 66.76,84.01 C 74,83.06 80.84,85.83 87.36,88.56 C 88.93,89.56 89.84,87.71 90.71,86.71 C 93.84,76.95 93.55,65.42 86.56,57.27 C 80.6,56.25 76.79,62.35 70.98,62.17 C 72.21,56.01 83.35,58.17 87.43,54.17 z"
       id="path38"
       style="opacity:1;fill:#fe900a" />
  </g>
  <g
     id="#f1992aff">
    <path
       d="M 23.07,82.26 C 33.72,72.56 44.23,62.15 56.96,54.85 C 57.01,60.86 56.97,66.86 56.86,72.87 C 41.37,81.99 26.45,92.05 10.77,100.85 C 13.18,96.7 15.26,92.37 17.62,88.2 C 20.57,88.97 21.16,83.95 23.07,82.26 z"
       id="path41"
       style="opacity:1;fill:#f1992a" />
  </g>
  <g
     id="#fa7e02ff">
    <path
       d="M 70.98,62.17 C 76.79,62.35 80.6,56.25 86.56,57.27 C 93.55,65.42 93.84,76.95 90.71,86.71 C 89.84,87.71 88.93,89.56 87.36,88.56 C 80.84,85.83 74,83.06 66.76,84.01 C 67.83,85.69 69.29,87.14 70,89.04 C 66.98,85.95 62.56,85.07 59.07,87.97 C 57.01,84.71 53.26,86.65 50.34,87.38 C 39.98,90.89 30.79,98.56 26.8,108.92 C 26.07,112.52 22.83,113.78 19.8,114.87 C 16.24,114.97 12.67,114.97 9.13,115.31 C 8.55,115.24 7.4,115.1 6.83,115.03 C 6.34,113.09 6.03,111.12 5.76,109.15 C 7.5,106.42 9.1,103.61 10.77,100.85 C 26.45,92.05 41.37,81.99 56.86,72.87 C 57.08,74.45 57.52,77.61 57.74,79.2 C 59.77,83.22 65.43,79.95 68.71,80.94 C 71.91,77.06 69.17,70.89 70.32,66.27 C 70.55,64.9 70.78,63.54 70.98,62.17 z"
       id="path44"
       style="opacity:1;fill:#fa7e02" />
  </g>
  <g
     id="#ff9512ff">
    <path
       d="M 50.34,87.38 C 53.26,86.65 57.01,84.71 59.07,87.97 C 58.32,88.94 57.53,89.89 56.89,90.95 C 56.25,94.02 54.12,95.64 51.06,96.2 C 39.19,98.78 38.7,116.65 24.75,114.75 C 23.1,114.83 21.45,114.85 19.8,114.87 C 22.83,113.78 26.07,112.52 26.8,108.92 C 30.79,98.56 39.98,90.89 50.34,87.38 z"
       id="path47"
       style="opacity:1;fill:#ff9512" />
  </g>
  <g
     id="#fefbf6ff">
    <path
       d="M 59.07,87.97 C 62.56,85.07 66.98,85.95 70,89.04 C 70.42,90.01 70.84,90.99 71.25,91.97 C 70.73,94.2 70.01,96.38 69.1,98.48 C 65.97,99.79 62.46,100.18 59.15,99.44 C 57.29,96.98 56.86,94 56.89,90.95 C 57.53,89.89 58.32,88.94 59.07,87.97 z"
       id="path50"
       style="opacity:1;fill:#fefbf6" />
  </g>
  <g
     id="#ffaa31ff">
    <path
       d="M 51.06,96.2 C 54.12,95.64 56.25,94.02 56.89,90.95 C 56.86,94 57.29,96.98 59.15,99.44 C 50.38,103.02 45.9,112.25 36.75,114.8 C 32.75,114.83 28.75,114.81 24.75,114.75 C 38.7,116.65 39.19,98.78 51.06,96.2 z"
       id="path53"
       style="opacity:1;fill:#ffaa31" />
  </g>
  <g
     id="#ffa529ff">
    <path
       d="M 71.25,91.97 C 76.55,91.71 81.32,94.47 85.46,97.49 C 93.16,101.86 93.85,113.02 103.25,114.81 C 100.27,114.8 97.3,114.92 94.33,114.79 C 91.5,112.86 87.15,113.95 85.52,110.43 C 82.42,103.61 75.45,101.2 69.1,98.48 C 70.01,96.38 70.73,94.2 71.25,91.97 z"
       id="path56"
       style="opacity:1;fill:#ffa529" />
  </g>
  <g
     id="#ffba50ff">
    <path
       d="M 59.15,99.44 C 62.46,100.18 65.97,99.79 69.1,98.48 C 75.45,101.2 82.42,103.61 85.52,110.43 C 87.15,113.95 91.5,112.86 94.33,114.79 C 91,114.84 87.69,115.03 84.37,114.87 C 76.38,113.19 70.13,104.61 61.11,107.11 C 55.48,109.31 50.47,112.89 44.68,114.77 C 42.03,114.8 39.39,114.81 36.75,114.8 C 45.9,112.25 50.38,103.02 59.15,99.44 z"
       id="path59"
       style="opacity:1;fill:#ffba50" />
  </g>
  <g
     id="#ffcd77ff">
    <path
       d="M 44.68,114.77 C 50.47,112.89 55.48,109.31 61.11,107.11 C 70.13,104.61 76.38,113.19 84.37,114.87 C 71.14,115 57.9,115.23 44.68,114.77 z"
       id="path62"
       style="opacity:1;fill:#ffcd77" />
  </g>
  <g
     id="#401c027c">
    <path
       d="M 5.02,118.08 C 1.37,117.15 2.29,109.68 3.93,109.18 L 4.06,110.17 C 4.25,111.7 4.63,114.76 4.82,116.3 L 4.93,117.16 L 5.02,118.08 z"
       id="path65"
       style="opacity:0.48999999;fill:#401c02" />
  </g>
  <g
     id="#e7cea9ff">
    <path
       d="M 4.88,109.84 C 5.1,109.67 5.54,109.32 5.76,109.15 C 6.03,111.12 6.34,113.09 6.83,115.03 C 4.16,115 4.9,111.59 4.88,109.84 z"
       id="path68"
       style="opacity:1;fill:#e7cea9" />
  </g>
  <g
     id="#d9b482ff">
    <path
       d="M 119.89,108.98 C 120.98,109.6 122.04,110.27 123.08,110.99 C 123.13,112.38 123.1,113.77 123,115.16 C 121.67,115.51 120.29,115.72 118.91,115.58 C 121.46,114.1 120.09,111.28 119.89,108.98 z"
       id="path71"
       style="opacity:1;fill:#d9b482" />
  </g>
  <g
     id="#4724099f">
    <path
       d="M 123.02,109.15 C 124.03,108.16 125.72,118.96 122.13,118.08 C 122.46,117.12 122.75,116.14 123,115.16 C 123.1,113.77 123.13,112.38 123.08,110.99 C 123.06,110.53 123.03,109.61 123.02,109.15 z"
       id="path74"
       style="opacity:0.62000002;fill:#472409" />
  </g>
  <g
     id="#ba7f3dff">
    <path
       d="M 4.06,110.17 L 4.88,109.84 C 4.9,111.59 4.16,115 6.83,115.03 C 7.4,115.1 8.55,115.24 9.13,115.31 C 7.69,115.64 6.26,115.98 4.82,116.3 C 4.63,114.76 4.25,111.7 4.06,110.17 z"
       id="path77"
       style="opacity:1;fill:#ba7f3d" />
  </g>
  <g
     id="#a34702ff">
    <path
       d="M 9.13,115.31 C 12.67,114.97 16.24,114.97 19.8,114.87 C 21.45,114.85 23.1,114.83 24.75,114.75 C 28.75,114.81 32.75,114.83 36.75,114.8 C 39.39,114.81 42.03,114.8 44.68,114.77 C 57.9,115.23 71.14,115 84.37,114.87 C 87.69,115.03 91,114.84 94.33,114.79 C 97.3,114.92 100.27,114.8 103.25,114.81 C 108.47,115.05 113.69,115.24 118.91,115.58 C 120.29,115.72 121.67,115.51 123,115.16 C 122.75,116.14 122.46,117.12 122.13,118.08 C 114.14,117.99 106.15,118.07 98.16,117.91 L 97.23,117.82 C 66.53,116.03 35.68,117.32 4.93,117.16 L 4.82,116.3 C 6.26,115.98 7.69,115.64 9.13,115.31 z"
       id="path80"
       style="opacity:1;fill:#a34702" />
  </g>
  <g
     id="#773403d6">
    <path
       d="M 4.93,117.16 C 35.68,117.32 66.53,116.03 97.23,117.82 C 66.5,118.25 35.76,117.81 5.02,118.08 L 4.93,117.16 z"
       id="path83"
       style="opacity:0.83999999;fill:#773403" />
  </g>
  <g
     id="#2f110071">
    <path
       d="M 5.02,118.08 C 35.76,117.81 66.5,118.25 97.23,117.82 L 98.16,117.91 L 97.92,118.91 C 66.95,119.11 35.98,118.97 5.02,118.98 L 5.02,118.08 z"
       id="path86"
       style="opacity:0.43999999;fill:#2f1100" />
  </g>
  <g
     id="#723100a9">
    <path
       d="M 98.16,117.91 C 106.15,118.07 114.14,117.99 122.13,118.08 L 121.95,119.01 C 113.94,118.99 105.93,119.06 97.92,118.91 L 98.16,117.91 z"
       id="path89"
       style="opacity:0.66000001;fill:#723100" />
  </g>
  <g
     id="#28100048">
    <path
       d="M 97.92,118.91 C 105.93,119.06 113.94,118.99 121.95,119.01 C 116.62,119.91 103.39,121.89 97.92,118.91 z"
       id="path92"
       style="opacity:0.27999998;fill:#281000" />
  </g>
</svg>
