<svg width="160" xmlns="http://www.w3.org/2000/svg" height="160" viewBox="0 0 128 128">
<path opacity=".75" fill="#7d552a" d="m61.24,7.83c.32-1.5 4.27-1.6 4.58,.04l-.61,.35c-1.33-.09-2.65-.22-3.97-.39z"/>
<path opacity=".94" fill="#7d3405" d="m54.92,14.97c1.85-2.45 2.47-7.19 6.32-7.14-14.59,26.76-28.79,53.74-43.62,80.37-2.36,4.17-4.44,8.5-6.85,12.65-1.67,2.76-3.27,5.57-5.01,8.3-.22,.17-.66,.52-.88,.69l-.82,.33-.13-.99c16.18-31.61 34.17-62.75 50.99-94.21z"/>
<path fill="#f0ca90" d="m61.24,7.83c1.32,.17 2.64,.3 3.97,.39-6.02,2.6-7.18,9.68-10.19,14.89-1.56,2.9-3,5.87-4.45,8.84-8.53,17.11-18.56,33.44-27.5,50.31-1.91,1.69-2.5,6.71-5.45,5.94 14.83-26.63 29.03-53.61 43.62-80.37z"/>
<path fill="#fcc262" d="m65.21,8.22l.61-.35c8.43,14.33 15.45,29.43 23.49,43.96-.28,.62-.84,1.84-1.12,2.45l-.76-.11c-1.36-2.8-2.7-5.61-4.19-8.34-4.06-8.32-7.88-16.78-12.44-24.85-5.37-.4-10.65,.73-15.78,2.13 3.01-5.21 4.17-12.29 10.19-14.89z"/>
<path opacity=".95" fill="#7a3102" d="m65.82,7.87c1.97-.09 3.48,1.39 4.1,3.19 17.49,32.81 35.92,65.12 53.1,98.09 .01,.46 .04,1.38 .06,1.84-1.04-.72-2.1-1.39-3.19-2.01-2.97-4.99-5.6-10.17-8.78-15.04-6.38-14.47-14.95-27.85-21.8-42.11-8.04-14.53-15.06-29.63-23.49-43.96z"/>
<path fill="#fbb043" d="m55.02,23.11c5.13-1.4 10.41-2.53 15.78-2.13 4.56,8.07 8.38,16.53 12.44,24.85-3.54-2.43-6.73-6.24-11.21-6.82-2.51,.88-4.92,2.27-7.69,1.89-3.19-4.64-9.2-6-13.77-8.95 1.45-2.97 2.89-5.94 4.45-8.84z"/>
<path fill="#e69b3b" d="m23.07,82.26c8.94-16.87 18.97-33.2 27.5-50.31 4.57,2.95 10.58,4.31 13.77,8.95-2.85-.04-7.56-.91-7.42,3.05-.08,3.63 .11,7.27 .04,10.9-12.73,7.3-23.24,17.71-33.89,27.41z"/>
<path fill="#f79b23" d="m64.34,40.9c2.77,.38 5.18-1.01 7.69-1.89 4.48,.58 7.67,4.39 11.21,6.82 1.49,2.73 2.83,5.54 4.19,8.34-4.08,4-15.22,1.84-16.45,8-.2,1.37-.43,2.73-.66,4.1-.3-7.34-.14-14.7-.46-22.04-2.85-2.95-8.45-.98-12.09-.55l-.85,.27c-.14-3.96 4.57-3.09 7.42-3.05z"/>
<path fill="#fffdfc" d="m57.77,43.68c3.64-.43 9.24-2.4 12.09,.55 .32,7.34 .16,14.7 .46,22.04-1.15,4.62 1.59,10.79-1.61,14.67-3.28-.99-8.94,2.28-10.97-1.74 .24-11.84 .56-23.69 .03-35.52z"/>
<path fill="#fae4bf" d="m56.92,43.95l.85-.27c.53,11.83 .21,23.68-.03,35.52-.22-1.59-.66-4.75-.88-6.33 .11-6.01 .15-12.01 .1-18.02 .07-3.63-.12-7.27-.04-10.9z"/>
<path fill="#f8a834" d="m89.31,51.83c6.85,14.26 15.42,27.64 21.8,42.11-9.04-12.27-15.46-26.36-22.92-39.66 .28-.61 .84-1.83 1.12-2.45z"/>
<path fill="#fe900a" d="m87.43,54.17l.76,.11c7.46,13.3 13.88,27.39 22.92,39.66 3.18,4.87 5.81,10.05 8.78,15.04 .2,2.3 1.57,5.12-.98,6.6-5.22-.34-10.44-.53-15.66-.77-9.4-1.79-10.09-12.95-17.79-17.32-4.14-3.02-8.91-5.78-14.21-5.52-.41-.98-.83-1.96-1.25-2.93-.71-1.9-2.17-3.35-3.24-5.03 7.24-.95 14.08,1.82 20.6,4.55 1.57,1 2.48-.85 3.35-1.85 3.13-9.76 2.84-21.29-4.15-29.44-5.96-1.02-9.77,5.08-15.58,4.9 1.23-6.16 12.37-4 16.45-8z"/>
<path fill="#f1992a" d="m23.07,82.26c10.65-9.7 21.16-20.11 33.89-27.41 .05,6.01 .01,12.01-.1,18.02-15.49,9.12-30.41,19.18-46.09,27.98 2.41-4.15 4.49-8.48 6.85-12.65 2.95,.77 3.54-4.25 5.45-5.94z"/>
<path fill="#fa7e02" d="m70.98,62.17c5.81,.18 9.62-5.92 15.58-4.9 6.99,8.15 7.28,19.68 4.15,29.44-.87,1-1.78,2.85-3.35,1.85-6.52-2.73-13.36-5.5-20.6-4.55 1.07,1.68 2.53,3.13 3.24,5.03-3.02-3.09-7.44-3.97-10.93-1.07-2.06-3.26-5.81-1.32-8.73-.59-10.36,3.51-19.55,11.18-23.54,21.54-.73,3.6-3.97,4.86-7,5.95-3.56,.1-7.13,.1-10.67,.44-.58-.07-1.73-.21-2.3-.28-.49-1.94-.8-3.91-1.07-5.88 1.74-2.73 3.34-5.54 5.01-8.3 15.68-8.8 30.6-18.86 46.09-27.98 .22,1.58 .66,4.74 .88,6.33 2.03,4.02 7.69,.75 10.97,1.74 3.2-3.88 .46-10.05 1.61-14.67 .23-1.37 .46-2.73 .66-4.1z"/>
<path fill="#ff9512" d="m50.34,87.38c2.92-.73 6.67-2.67 8.73,.59-.75,.97-1.54,1.92-2.18,2.98-.64,3.07-2.77,4.69-5.83,5.25-11.87,2.58-12.36,20.45-26.31,18.55-1.65,.08-3.3,.1-4.95,.12 3.03-1.09 6.27-2.35 7-5.95 3.99-10.36 13.18-18.03 23.54-21.54z"/>
<path fill="#fefbf6" d="m59.07,87.97c3.49-2.9 7.91-2.02 10.93,1.07 .42,.97 .84,1.95 1.25,2.93-.52,2.23-1.24,4.41-2.15,6.51-3.13,1.31-6.64,1.7-9.95,.96-1.86-2.46-2.29-5.44-2.26-8.49 .64-1.06 1.43-2.01 2.18-2.98z"/>
<path fill="#ffaa31" d="m51.06,96.2c3.06-.56 5.19-2.18 5.83-5.25-.03,3.05 .4,6.03 2.26,8.49-8.77,3.58-13.25,12.81-22.4,15.36-4,.03-8,.01-12-.05 13.95,1.9 14.44-15.97 26.31-18.55z"/>
<path fill="#ffa529" d="m71.25,91.97c5.3-.26 10.07,2.5 14.21,5.52 7.7,4.37 8.39,15.53 17.79,17.32-2.98-.01-5.95,.11-8.92-.02-2.83-1.93-7.18-.84-8.81-4.36-3.1-6.82-10.07-9.23-16.42-11.95 .91-2.1 1.63-4.28 2.15-6.51z"/>
<path fill="#ffba50" d="m59.15,99.44c3.31,.74 6.82,.35 9.95-.96 6.35,2.72 13.32,5.13 16.42,11.95 1.63,3.52 5.98,2.43 8.81,4.36-3.33,.05-6.64,.24-9.96,.08-7.99-1.68-14.24-10.26-23.26-7.76-5.63,2.2-10.64,5.78-16.43,7.66-2.65,.03-5.29,.04-7.93,.03 9.15-2.55 13.63-11.78 22.4-15.36z"/>
<path fill="#ffcd77" d="m44.68,114.77c5.79-1.88 10.8-5.46 16.43-7.66 9.02-2.5 15.27,6.08 23.26,7.76-13.23,.13-26.47,.36-39.69-.1z"/>
<path opacity=".49" fill="#401c02" d="m5.02,118.08c-3.65-.93-2.73-8.4-1.09-8.9l.13,.99c.19,1.53 .57,4.59 .76,6.13l.11,.86 .09,.92z"/>
<path fill="#e7cea9" d="m4.88,109.84c.22-.17 .66-.52 .88-.69 .27,1.97 .58,3.94 1.07,5.88-2.67-.03-1.93-3.44-1.95-5.19z"/>
<path fill="#d9b482" d="m119.89,108.98c1.09,.62 2.15,1.29 3.19,2.01 .05,1.39 .02,2.78-.08,4.17-1.33,.35-2.71,.56-4.09,.42 2.55-1.48 1.18-4.3 .98-6.6z"/>
<path opacity=".62" fill="#472409" d="m123.02,109.15c1.01-.99 2.7,9.81-.89,8.93 .33-.96 .62-1.94 .87-2.92 .1-1.39 .13-2.78 .08-4.17-.02-.46-.05-1.38-.06-1.84z"/>
<path fill="#ba7f3d" d="m4.06,110.17l.82-.33c.02,1.75-.72,5.16 1.95,5.19 .57,.07 1.72,.21 2.3,.28-1.44,.33-2.87,.67-4.31,.99-.19-1.54-.57-4.6-.76-6.13z"/>
<path fill="#a34702" d="m9.13,115.31c3.54-.34 7.11-.34 10.67-.44 1.65-.02 3.3-.04 4.95-.12 4,.06 8,.08 12,.05 2.64,.01 5.28,0 7.93-.03 13.22,.46 26.46,.23 39.69,.1 3.32,.16 6.63-.03 9.96-.08 2.97,.13 5.94,.01 8.92,.02 5.22,.24 10.44,.43 15.66,.77 1.38,.14 2.76-.07 4.09-.42-.25,.98-.54,1.96-.87,2.92-7.99-.09-15.98-.01-23.97-.17l-.93-.09c-30.7-1.79-61.55-.5-92.3-.66l-.11-.86c1.44-.32 2.87-.66 4.31-.99z"/>
<path opacity=".84" fill="#773403" d="m4.93,117.16c30.75,.16 61.6-1.13 92.3,.66-30.73,.43-61.47-.01-92.21,.26l-.09-.92z"/>
<path opacity=".44" fill="#2f1100" d="m5.02,118.08c30.74-.27 61.48,.17 92.21-.26l.93,.09-.24,1c-30.97,.2-61.94,.06-92.9,.07v-.9z"/>
<path opacity=".66" fill="#723100" d="m98.16,117.91c7.99,.16 15.98,.08 23.97,.17l-.18,.93c-8.01-.02-16.02,.05-24.03-.1l.24-1z"/>
<path opacity=".28" fill="#281000" d="m97.92,118.91c8.01,.15 16.02,.08 24.03,.1-5.33,.9-18.56,2.88-24.03-.1z"/>
</svg>
