<svg width="40" xmlns="http://www.w3.org/2000/svg" height="40" viewBox="0 0 32 32">
<g fill="#797999">
<path d="m9,0h1.13c-.14,3.17 .01,6.39-.64,9.51-3.12,.62-6.33,.52-9.49,.65v-1.16c3,0 6,0 9,0 0-3 0-6 0-9z"/>
<path d="m21.91,0h1.09c0,3 0,6 0,9 3,0 6,0 9,0v1.11c-3.18,.01-6.37-.07-9.51-.61-.55-3.13-.61-6.32-.58-9.5z"/>
<path d="m0,21.85c3.16,.14 6.36-.02 9.48,.62 .59,3.14 .6,6.35 .67,9.53h-1.15c0-3 0-6 0-9-3,0-6,0-9,0v-1.15z"/>
</g>
<path fill="#3d3d6c" d="m10.13,0h11.78c-.03,3.18 .03,6.37 .58,9.5 3.14,.54 6.33,.62 9.51,.61v12.14c-3.06-.1-6.51-.97-9.34,.42-1.13,2.94-.61,6.24-.78,9.33h-11.73c-.07-3.18-.08-6.39-.67-9.53-3.12-.64-6.32-.48-9.48-.62v-11.69c3.16-.13 6.37-.03 9.49-.65 .65-3.12 .5-6.34 .64-9.51m1.25,1.76c.02,3.04 .22,6.11-.38,9.11-3.34,.07-6.69,.09-9.98,.71l1.1,.37c-.1,2.23-.15,4.46-.15,6.7-.2,.58-.6,1.76-.8,2.34 3.56-.03 7.13,.19 10.63,.83l-.59,1.3c-.01,2.16 .01,4.32 .03,6.48l-.23,.78c3.34-.01 6.67-.01 10,0l-.16-.7c.12-2.32 .27-4.64 .39-6.96l-.86-.96c3.46-.6 6.97-.71 10.47-.77-.21-.61-.65-1.81-.86-2.41 .09-2.23 .11-4.46 .1-6.69l.96-.35c-3.29-.59-6.64-.58-9.97-.61-.59-2.85-.39-5.77-.25-8.66l-.06,.02c-3.06-.48-6.16-.5-9.25-.37l-.14-.16z"/>
<path fill="#0071d6" d="m11.38,1.76l.14,.16c.48,.57 1.44,1.71 1.92,2.28 2.45-.62 4.89-1.25 7.33-1.91l.06-.02c-.14,2.89-.34,5.81 .25,8.66 .1,.45 .31,1.36 .41,1.81 2.9,.47 5.89,.38 8.6-.85 .01,2.23-.01,4.46-.1,6.69-3.77-.48-7.5,.38-11.05,1.57 .36,.4 1.08,1.21 1.44,1.61l.86,.96c-.12,2.32-.27,4.64-.39,6.96-.1-.43-.29-1.3-.39-1.74-.3-1.35-.6-2.71-.88-4.06-2.22-.09-4.43-.17-6.64-.26-.4,1.43-.8,2.87-1.21,4.3-.12,.42-.37,1.26-.49,1.68-.02-2.16-.04-4.32-.03-6.48l.59-1.3c.2-.44 .59-1.34 .79-1.78-3.33-1.52-7.01-1.91-10.62-1.39-0-2.24 .05-4.47 .15-6.7 2.67,1.13 5.59,1.25 8.44,.81 .11-.47 .33-1.42 .44-1.89 .6-3 .4-6.07 .38-9.11z"/>
<path fill="#76b1e3" d="m11.52,1.92c3.09-.13 6.19-.11 9.25,.37-2.44,.66-4.88,1.29-7.33,1.91-.48-.57-1.44-1.71-1.92-2.28z"/>
<path fill="#80b9e6" d="m1.02,11.58c3.29-.62 6.64-.64 9.98-.71-.11,.47-.33,1.42-.44,1.89-2.85,.44-5.77,.32-8.44-.81l-1.1-.37z"/>
<path fill="#7fb7e5" d="m21.08,10.93c3.33,.03 6.68,.02 9.97,.61l-.96,.35c-2.71,1.23-5.7,1.32-8.6,.85-.1-.45-.31-1.36-.41-1.81z"/>
<path fill="#57a8e5" d="m1.97,18.65c3.61-.52 7.29-.13 10.62,1.39-.2,.44-.59,1.34-.79,1.78-3.5-.64-7.07-.86-10.63-.83 .2-.58 .6-1.76 .8-2.34z"/>
<path fill="#57a5e2" d="m18.94,20.15c3.55-1.19 7.28-2.05 11.05-1.57 .21,.6 .65,1.8 .86,2.41-3.5,.06-7.01,.17-10.47,.77-.36-.4-1.08-1.21-1.44-1.61z"/>
<path opacity=".95" fill="#767693" d="m22.66,22.67c2.83-1.39 6.28-.52 9.34-.42v.75c-3,0-6,0-9,0 0,3 0,6 0,9h-1.12c.17-3.09-.35-6.39 .78-9.33z"/>
<path fill="#209af3" d="m11.73,27.92c.41-1.43 .81-2.87 1.21-4.3 2.21,.09 4.42,.17 6.64,.26 .28,1.35 .58,2.71 .88,4.06-2.91,.01-5.82-.01-8.73-.02z"/>
<path fill="#5bb1f3" d="m11.73,27.92c2.91,.01 5.82,.03 8.73,.02 .1,.44 .29,1.31 .39,1.74l.16,.7c-3.33-.01-6.66-.01-10,0l.23-.78c.12-.42 .37-1.26 .49-1.68z"/>
</svg>
