<svg width="48" xmlns="http://www.w3.org/2000/svg" overflow="visible" height="48" viewBox="0 0 84.734 95.972">
<defs>
<linearGradient id="XMLID_23_" y1="51.734" x1="42.716" y2="58.316" x2="-16.937" gradientUnits="userSpaceOnUse">
<stop offset=".006" stop-color="#858585"/>
<stop offset=".061" stop-color="#898989"/>
<stop offset=".685" stop-color="#b6b6b6"/>
<stop offset="1" stop-color="#c7c7c7"/>
</linearGradient>
<linearGradient gradientTransform="matrix(-1 -.5798 0 1 297.6562 86.0978)" id="XMLID_28_" y1="71.699" x1="248.661" y2="85.71" x2="248.486" gradientUnits="userSpaceOnUse">
<stop offset=".006" stop-color="#858585"/>
<stop offset=".061" stop-color="#898989"/>
<stop offset=".685" stop-color="#b6b6b6"/>
<stop offset="1" stop-color="#c7c7c7"/>
</linearGradient>
<linearGradient gradientTransform="matrix(-1 -.5798 0 1 297.6562 86.0978)" id="XMLID_24_" y1="72.148" x1="229.062" y2="150.596" x2="286.699" gradientUnits="userSpaceOnUse">
<stop offset="0" stop-color="#585c61"/>
<stop offset=".287" stop-color="#c3c5c7"/>
<stop offset=".543" stop-color="#dedfe0"/>
<stop offset=".825" stop-color="#f6f6f7"/>
<stop offset="1" stop-color="#fff"/>
</linearGradient>
<linearGradient gradientTransform="matrix(-1 -.5798 0 1 297.6562 86.0978)" id="XMLID_26_" y1="73.805" x1="254.371" y2="105.047" x2="227.163" gradientUnits="userSpaceOnUse">
<stop offset="0" stop-color="#9eabb0"/>
<stop offset=".097" stop-color="#8e9ca1"/>
<stop offset=".529" stop-color="#495b63"/>
<stop offset=".841" stop-color="#1e323d"/>
<stop offset="1" stop-color="#0e232e"/>
</linearGradient>
<linearGradient gradientTransform="matrix(-1 -.5798 0 1 297.6562 86.0978)" id="XMLID_27_" y1="80.649" x1="244.16" y2="75.695" x2="239.03" gradientUnits="userSpaceOnUse">
<stop offset="0" stop-color="#fff"/>
<stop offset=".255" stop-color="#fcfcfc"/>
<stop offset=".422" stop-color="#f4f4f4"/>
<stop offset=".564" stop-color="#e5e5e5"/>
<stop offset=".691" stop-color="#d0d0d0"/>
<stop offset=".809" stop-color="#b4b5b5"/>
<stop offset=".918" stop-color="#939495"/>
<stop offset="1" stop-color="#757677"/>
</linearGradient>
<linearGradient gradientTransform="matrix(-.9943 -.5952 -.0001 1.0057 294.4092 86.2412)" id="XMLID_25_" y1="91.115" x1="228.544" y2="99.661" x2="237.708" gradientUnits="userSpaceOnUse">
<stop offset="0" stop-color="#9ca3a3"/>
<stop offset=".101" stop-color="#b4b8ba"/>
<stop offset=".131" stop-color="#b7bbbd"/>
<stop offset=".51" stop-color="#dee0e1"/>
<stop offset=".813" stop-color="#f6f7f7"/>
<stop offset="1" stop-color="#fff"/>
</linearGradient>
<linearGradient id="XMLID_22_" y1="36.25" x1="25.688" y2="102.005" x2="44.189" gradientUnits="userSpaceOnUse">
<stop offset="0" stop-color="#9eabb0"/>
<stop offset=".097" stop-color="#8e9ca1"/>
<stop offset=".529" stop-color="#495b63"/>
<stop offset=".841" stop-color="#1e323d"/>
<stop offset="1" stop-color="#0e232e"/>
</linearGradient>
<linearGradient id="XMLID_15_" y1="26.522" x1="41.516" y2="92.277" x2="60.017" gradientUnits="userSpaceOnUse">
<stop offset="0" stop-color="#9eabb0"/>
<stop offset=".097" stop-color="#8e9ca1"/>
<stop offset=".529" stop-color="#495b63"/>
<stop offset=".841" stop-color="#1e323d"/>
<stop offset="1" stop-color="#0e232e"/>
</linearGradient>
<linearGradient id="XMLID_16_" y1="42.008" x1="58.544" y2="48.59" x2="-1.109" gradientUnits="userSpaceOnUse">
<stop offset=".006" stop-color="#858585"/>
<stop offset=".061" stop-color="#898989"/>
<stop offset=".685" stop-color="#b6b6b6"/>
<stop offset="1" stop-color="#c7c7c7"/>
</linearGradient>
<linearGradient gradientTransform="matrix(-1 -.5798 0 1 297.6562 86.0978)" id="XMLID_21_" y1="52.795" x1="232.833" y2="66.805" x2="232.658" gradientUnits="userSpaceOnUse">
<stop offset=".006" stop-color="#858585"/>
<stop offset=".061" stop-color="#898989"/>
<stop offset=".685" stop-color="#b6b6b6"/>
<stop offset="1" stop-color="#c7c7c7"/>
</linearGradient>
<linearGradient gradientTransform="matrix(-1 -.5798 0 1 297.6562 86.0978)" id="XMLID_17_" y1="53.245" x1="213.235" y2="131.693" x2="270.871" gradientUnits="userSpaceOnUse">
<stop offset="0" stop-color="#585c61"/>
<stop offset=".287" stop-color="#c3c5c7"/>
<stop offset=".543" stop-color="#dedfe0"/>
<stop offset=".825" stop-color="#f6f6f7"/>
<stop offset="1" stop-color="#fff"/>
</linearGradient>
<linearGradient gradientTransform="matrix(-1 -.5798 0 1 297.6562 86.0978)" id="XMLID_19_" y1="54.901" x1="238.543" y2="86.144" x2="211.334" gradientUnits="userSpaceOnUse">
<stop offset="0" stop-color="#9eabb0"/>
<stop offset=".097" stop-color="#8e9ca1"/>
<stop offset=".529" stop-color="#495b63"/>
<stop offset=".841" stop-color="#1e323d"/>
<stop offset="1" stop-color="#0e232e"/>
</linearGradient>
<linearGradient gradientTransform="matrix(-1 -.5798 0 1 297.6562 86.0978)" id="XMLID_20_" y1="61.745" x1="228.331" y2="56.791" x2="223.201" gradientUnits="userSpaceOnUse">
<stop offset="0" stop-color="#fff"/>
<stop offset=".255" stop-color="#fcfcfc"/>
<stop offset=".422" stop-color="#f4f4f4"/>
<stop offset=".564" stop-color="#e5e5e5"/>
<stop offset=".691" stop-color="#d0d0d0"/>
<stop offset=".809" stop-color="#b4b5b5"/>
<stop offset=".918" stop-color="#939495"/>
<stop offset="1" stop-color="#757677"/>
</linearGradient>
<linearGradient gradientTransform="matrix(-.9943 -.5952 -.0001 1.0057 294.4092 86.2412)" id="XMLID_18_" y1="72.022" x1="212.628" y2="80.568" x2="221.792" gradientUnits="userSpaceOnUse">
<stop offset="0" stop-color="#9ca3a3"/>
<stop offset=".101" stop-color="#b4b8ba"/>
<stop offset=".131" stop-color="#b7bbbd"/>
<stop offset=".51" stop-color="#dee0e1"/>
<stop offset=".813" stop-color="#f6f7f7"/>
<stop offset="1" stop-color="#fff"/>
</linearGradient>
</defs>
<g opacity=".39">
<path fill="url(#XMLID_15_)" d="m15.871,1.653c-.095,13.883-.006,77.636-.006,84.592 6.918,0 48.356-.134 65.627-.134 1.5-.625 2.404-1.443 3.217-1.881 .083-3.891-.062-54.07-.062-55.223 0-1.188-6.062-10.511-7.875-13.312-1.601-2.474-8-12.637-10.75-14.668-4.5-1.312-33.637-1.148-47.314-.706-.688,.25-1.761,.895-2.837,1.332z"/>
<path fill="url(#XMLID_16_)" d="m17.135,2.092 .915,81.944 63.096,.444 1.563-.75 .02-55.014-2.458-2.375-15-22.772-.281-1.12-1.281-1.294-45.033,.283-1.541,.654z"/>
<path fill="url(#XMLID_17_)" d="m17.091,84.542 64.033,.02 .042-57.469-17.047-24.791-47.028-.268 0,82.508z"/>
<path opacity=".75" fill="none" stroke="#fff" stroke-linecap="round" stroke-width="2" d="m64.671,3.629-46.333-.467 .118,78.178"/>
<path fill="url(#XMLID_18_)" d="m19.939,84.093 61.207,.45 .125-57.492-17.115-25.766-44.297,.795 .08,82.013z"/>
<g>
<path fill="none" stroke="#858585" stroke-linecap="round" stroke-width="2" d="m26.239,76.445 45.302-.017"/>
<path fill="none" stroke="#858585" stroke-linecap="round" stroke-width="2" d="m26.239,71.85 45.24,.005"/>
<path fill="none" stroke="#858585" stroke-linecap="round" stroke-width="2" d="m26.239,63.553 45.177-.01"/>
<path fill="none" stroke="#858585" stroke-linecap="round" stroke-width="2" d="m26.239,20.967 45.115-.017"/>
<path fill="none" stroke="#858585" stroke-linecap="round" stroke-width="2" d="m26.239,14.625 43.698-.009"/>
<path fill="none" stroke="#858585" stroke-linecap="round" stroke-width="2" d="m26.239,54.715 26.206-.026"/>
<path fill="none" stroke="#858585" stroke-linecap="round" stroke-width="2" d="m26.239,48.59 45.206-.021"/>
<path fill="none" stroke="#858585" stroke-linecap="round" stroke-width="2" d="m26.239,42.757 45.206-.021"/>
<path fill="none" stroke="#858585" stroke-linecap="round" stroke-width="2" d="m26.239,36.54 45.198-.007"/>
<path fill="none" stroke="#858585" stroke-linecap="round" stroke-width="2" d="m26.239,31.216 45.206-.021"/>
</g>
<path opacity=".69" fill="url(#XMLID_19_)" d="m63.542,24.278c2.94,1.178 16.624,3.881 17.671,6.113 0-.938 .031-2.728 0-3.136-3.221-7.41-16.213-25.322-17.108-25.359-.629-.188-1.214-.086-1.417-.125 .406,.267 .724,.626 1.192,1.054 3.079,2.956-1.963,20.802-.338,21.453z"/>
<path fill="url(#XMLID_20_)" d="m81.137,27.125c-.361-.771-2.256-1.836-3.033-2.141-3-1.178-12.531-3.104-12.531-3.104l.141-15.259c0,0-.024-1.523-.297-2.24-.328-.862-.222-1.994-1.394-3.111 3.828,1.626 18.159,25.899 17.114,25.855z"/>
<path fill="url(#XMLID_21_)" d="m65.994,6.744c.136,3.444-.316,13.098-.406,15.162-.139-.112-.713-.294-.713-.294 0,0 .835-11.689 .631-15.089-.03-.508-.13-1.439-.359-2.152-.297-.922-1.265-2.302-1.499-2.786 .207-1.292 2.202,1.501 2.346,5.159z"/>
</g>
<path fill="url(#XMLID_22_)" d="m.043,11.38c-.095,13.883-.006,77.636-.006,84.592 6.918,0 48.356-.134 65.627-.134 1.5-.625 2.404-1.443 3.217-1.881 .083-3.891-.062-54.07-.062-55.223 0-1.188-6.062-10.511-7.875-13.312-1.601-2.474-8-12.637-10.75-14.668-4.5-1.312-33.637-1.148-47.314-.706-.689,.25-1.761,.894-2.837,1.332h-0z"/>
<path fill="url(#XMLID_23_)" d="m1.307,11.818 .915,81.945 63.096,.444 1.563-.75 .02-55.015-2.458-2.375-15-22.771-.281-1.12-1.281-1.294-45.033,.282-1.541,.654z"/>
<path fill="url(#XMLID_24_)" d="m1.263,94.269 64.033,.02 .042-57.47-17.047-24.791-47.028-.267 0,82.508z"/>
<path opacity=".75" fill="none" stroke="#fff" stroke-linecap="round" stroke-width="2" d="m48.843,13.355-46.333-.466 .118,78.177"/>
<path fill="url(#XMLID_25_)" d="m4.111,93.819 61.207,.451 .125-57.493-17.115-25.765-44.297,.795 .08,82.012z"/>
<g fill="none" stroke="#858585" stroke-linecap="round" stroke-width="2">
<path d="m10.739,85.234 45.302-.017"/>
<path d="m10.739,80.639 45.24,.006"/>
<path d="m10.739,72.342 45.177-.01"/>
<path d="m10.739,29.756 45.115-.017"/>
<path d="m10.739,23.414 43.698-.009"/>
<path d="m10.739,63.504 26.206-.025"/>
<path d="m10.739,57.379 45.206-.021"/>
<path d="m10.739,51.546 45.206-.021"/>
<path d="m10.739,45.329 45.198-.007"/>
<path d="m10.739,40.005 45.206-.021"/>
</g>
<path opacity=".69" fill="url(#XMLID_26_)" d="m47.714,34.005c2.94,1.178 16.624,3.881 17.671,6.113 0-.938 .031-2.728 0-3.136-3.221-7.411-16.213-25.323-17.107-25.36-.629-.188-1.214-.086-1.417-.125 .406,.267 .724,.626 1.192,1.054 3.078,2.957-1.964,20.803-.339,21.454z"/>
<path fill="url(#XMLID_27_)" d="m65.309,36.852c-.361-.771-2.256-1.836-3.033-2.141-3-1.178-12.531-3.104-12.531-3.104l.141-15.259c0,0-.024-1.523-.297-2.24-.328-.862-.222-1.994-1.394-3.111 3.827,1.625 18.159,25.899 17.114,25.855z"/>
<path fill="url(#XMLID_28_)" d="m50.166,16.471c.136,3.444-.316,13.098-.406,15.162-.139-.112-.713-.294-.713-.294 0,0 .835-11.689 .631-15.089-.03-.508-.13-1.439-.359-2.152-.297-.922-1.265-2.302-1.499-2.786 .207-1.292 2.201,1.5 2.346,5.159z"/>
</svg>
