<svg width="48" xmlns="http://www.w3.org/2000/svg" height="48" viewBox="0 0 76.984 93.19" xmlns:xlink="http://www.w3.org/1999/xlink">
<defs>
<linearGradient id="XMLID_39_" y1="59.853" x1="52.152" y2="83.198" x2="73.162" gradientUnits="userSpaceOnUse">
<stop offset="0" stop-color="#7ad0ff"/>
<stop offset=".382" stop-color="#0295e5"/>
<stop offset=".492" stop-color="#0293e2"/>
<stop offset=".587" stop-color="#028cd7"/>
<stop offset=".677" stop-color="#0280c5"/>
<stop offset=".763" stop-color="#0270ac"/>
<stop offset=".847" stop-color="#015b8c"/>
<stop offset=".928" stop-color="#014265"/>
<stop offset="1" stop-color="#01273b"/>
</linearGradient>
<linearGradient gradientTransform="matrix(.3317 -1.0138 -.8774 -.3332 255.3353 307.6058)" id="XMLID_45_" y1="320.321" x1="175.47" y2="301.404" x2="154.275" gradientUnits="userSpaceOnUse">
<stop offset="0" stop-color="#f5f5f5"/>
<stop offset="1" stop-color="#748c96"/>
</linearGradient>
<linearGradient gradientTransform="matrix(.2842 -.9588 -.9588 -.2842 274.1005 293.4449)" id="XMLID_42_" y1="327.597" x1="134.617" y2="307.397" x2="132.855" gradientUnits="userSpaceOnUse">
<stop offset="0" stop-color="#012f47"/>
<stop offset=".158" stop-color="#01334c"/>
<stop offset=".357" stop-color="#013d5c"/>
<stop offset=".579" stop-color="#014d76"/>
<stop offset=".816" stop-color="#02659a"/>
<stop offset="1" stop-color="#027abb"/>
</linearGradient>
<linearGradient gradientTransform="matrix(.3317 -1.0138 -.8774 -.3332 255.3353 307.6058)" id="XMLID_44_" y1="307.066" x1="204.907" y2="309.284" x2="176.289" gradientUnits="userSpaceOnUse">
<stop offset="0" stop-color="#b5b9bb"/>
<stop offset="1" stop-color="#243036"/>
</linearGradient>
<linearGradient gradientTransform="matrix(.2822 -.9533 -.8274 -.1614 252.1689 270.9738)" id="XMLID_46_" y1="325.332" x1="179.831" y2="331.332" x2="176.706" gradientUnits="userSpaceOnUse">
<stop offset="0" stop-color="#f5f5f5"/>
<stop offset="1" stop-color="#748c96"/>
</linearGradient>
<linearGradient gradientTransform="matrix(.2141 -.9768 -.9768 -.2141 283.1831 285.0768)" id="XMLID_38_" y1="288.746" x1="180.019" y2="264.209" x2="152.312" gradientUnits="userSpaceOnUse">
<stop offset="0" stop-color="#02a6ff"/>
<stop offset=".225" stop-color="#0295e5"/>
<stop offset=".363" stop-color="#0293e2"/>
<stop offset=".482" stop-color="#028cd7"/>
<stop offset=".594" stop-color="#0280c5"/>
<stop offset=".703" stop-color="#0270ac"/>
<stop offset=".808" stop-color="#015b8c"/>
<stop offset=".909" stop-color="#014265"/>
<stop offset="1" stop-color="#01273b"/>
</linearGradient>
<linearGradient gradientTransform="matrix(.2822 -.9533 -.9918 -.1934 280.2252 277.0037)" id="XMLID_33_" y1="342.759" x1="195.733" y2="330.631" x2="193.989" gradientUnits="userSpaceOnUse">
<stop offset="0" stop-color="#adafb0"/>
<stop offset=".235" stop-color="#919597"/>
<stop offset=".737" stop-color="#4b5459"/>
<stop offset="1" stop-color="#243036"/>
</linearGradient>
<linearGradient gradientTransform="matrix(.2842 -.9588 -.9588 -.2842 274.1005 293.4449)" id="XMLID_37_" y1="256.985" x1="153.374" y2="277.741" x2="143.468" gradientUnits="userSpaceOnUse">
<stop offset="0" stop-color="#02a6ff"/>
<stop offset=".225" stop-color="#0295e5"/>
<stop offset=".363" stop-color="#0293e2"/>
<stop offset=".482" stop-color="#028cd7"/>
<stop offset=".594" stop-color="#0280c5"/>
<stop offset=".703" stop-color="#0270ac"/>
<stop offset=".808" stop-color="#015b8c"/>
<stop offset=".909" stop-color="#014265"/>
<stop offset="1" stop-color="#01273b"/>
</linearGradient>
<linearGradient id="XMLID_34_" y1="14.699" x1="30.369" y2="60.73" x2="12.7" gradientUnits="userSpaceOnUse">
<stop offset=".079" stop-color="#fff"/>
<stop offset=".149" stop-color="#e4e8e9"/>
<stop offset=".371" stop-color="#93a2a8"/>
<stop offset=".529" stop-color="#607680"/>
<stop offset=".607" stop-color="#4c6570"/>
</linearGradient>
<linearGradient gradientTransform="matrix(.2842 -.9588 -.9588 -.2842 274.1005 293.4449)" id="XMLID_35_" y1="264.058" x1="157.002" y2="288.201" x2="146.976" gradientUnits="userSpaceOnUse">
<stop offset="0" stop-color="#11557a"/>
<stop offset=".309" stop-color="#125477"/>
<stop offset=".504" stop-color="#134f6f"/>
<stop offset=".668" stop-color="#174660"/>
<stop offset=".814" stop-color="#1b3a4b"/>
<stop offset=".947" stop-color="#212b31"/>
<stop offset="1" stop-color="#242424"/>
</linearGradient>
<linearGradient gradientTransform="matrix(.2842 -.9588 -.9588 -.2842 274.1005 293.4449)" id="XMLID_41_" y1="293.024" x1="144.792" y2="318.446" x2="135.809" gradientUnits="userSpaceOnUse">
<stop offset="0" stop-color="#0295e5"/>
<stop offset=".178" stop-color="#0293e2"/>
<stop offset=".332" stop-color="#028cd7"/>
<stop offset=".477" stop-color="#0280c5"/>
<stop offset=".616" stop-color="#0270ac"/>
<stop offset=".752" stop-color="#015b8c"/>
<stop offset=".883" stop-color="#014265"/>
<stop offset="1" stop-color="#01273b"/>
</linearGradient>
<linearGradient id="XMLID_40_" y1="61.394" x1="17.8" y2="72.289" x2="19.946" gradientUnits="userSpaceOnUse">
<stop offset="0" stop-color="#0387d1"/>
<stop offset=".013" stop-color="#0384cd"/>
<stop offset=".143" stop-color="#036eaa"/>
<stop offset=".281" stop-color="#025b8c"/>
<stop offset=".427" stop-color="#024c76"/>
<stop offset=".585" stop-color="#024265"/>
<stop offset=".762" stop-color="#023c5c"/>
<stop offset="1" stop-color="#023a59"/>
</linearGradient>
<linearGradient gradientTransform="matrix(-.9943 -.5952 -.0001 1.0057 286.2509 83.8048)" id="XMLID_27_" y1="74.304" x1="212.386" y2="82.85" x2="221.55" gradientUnits="userSpaceOnUse">
<stop offset="0" stop-color="#9ca3a3"/>
<stop offset=".101" stop-color="#b4b8ba"/>
<stop offset=".131" stop-color="#b7bbbd"/>
<stop offset=".51" stop-color="#dee0e1"/>
<stop offset=".813" stop-color="#f6f7f7"/>
<stop offset="1" stop-color="#fff"/>
</linearGradient>
<linearGradient id="XMLID_25_" y1="42.008" x1="50.626" y2="48.59" x2="-9.026" gradientUnits="userSpaceOnUse">
<stop offset=".006" stop-color="#858585"/>
<stop offset=".061" stop-color="#898989"/>
<stop offset=".685" stop-color="#b6b6b6"/>
<stop offset="1" stop-color="#c7c7c7"/>
</linearGradient>
<linearGradient id="linearGradient6977" xlink:href="#XMLID_39_" x1="2.868" x2="29.11" gradientUnits="userSpaceOnUse"/>
<linearGradient id="XMLID_24_" y1="26.523" x1="33.597" y2="92.277" x2="52.098" gradientUnits="userSpaceOnUse">
<stop offset="0" stop-color="#9eabb0"/>
<stop offset=".097" stop-color="#8e9ca1"/>
<stop offset=".529" stop-color="#495b63"/>
<stop offset=".841" stop-color="#1e323d"/>
<stop offset="1" stop-color="#0e232e"/>
</linearGradient>
<linearGradient gradientTransform="matrix(-1 -.5798 0 1 289.4746 83.7259)" id="XMLID_26_" y1="55.463" x1="212.972" y2="133.911" x2="270.608" gradientUnits="userSpaceOnUse">
<stop offset="0" stop-color="#585c61"/>
<stop offset=".287" stop-color="#c3c5c7"/>
<stop offset=".543" stop-color="#dedfe0"/>
<stop offset=".825" stop-color="#f6f6f7"/>
<stop offset="1" stop-color="#fff"/>
</linearGradient>
<linearGradient id="XMLID_32_" y1="42.63" x1="14.648" y2="-4.448" x2="42.312" gradientUnits="userSpaceOnUse">
<stop offset="0" stop-color="#d2d9db"/>
<stop offset="1" stop-color="#212c30"/>
</linearGradient>
<linearGradient gradientTransform="matrix(-1 -.5798 0 1 289.4746 83.7259)" id="XMLID_28_" y1="57.121" x1="238.281" y2="88.364" x2="211.073" gradientUnits="userSpaceOnUse">
<stop offset="0" stop-color="#9eabb0"/>
<stop offset=".097" stop-color="#8e9ca1"/>
<stop offset=".529" stop-color="#495b63"/>
<stop offset=".841" stop-color="#1e323d"/>
<stop offset="1" stop-color="#0e232e"/>
</linearGradient>
<linearGradient gradientTransform="matrix(.2842 -.9588 -.9588 -.2842 274.1005 293.4449)" id="XMLID_31_" y1="297.429" x1="140.34" y2="318.793" x2="139.919" gradientUnits="userSpaceOnUse">
<stop offset="0" stop-color="#11557a"/>
<stop offset=".309" stop-color="#125477"/>
<stop offset=".504" stop-color="#134f6f"/>
<stop offset=".668" stop-color="#174660"/>
<stop offset=".814" stop-color="#1b3a4b"/>
<stop offset=".947" stop-color="#212b31"/>
<stop offset="1" stop-color="#242424"/>
</linearGradient>
<linearGradient gradientTransform="matrix(-1 -.5798 0 1 289.4746 83.7259)" id="XMLID_30_" y1="55.015" x1="232.569" y2="69.025" x2="232.394" gradientUnits="userSpaceOnUse">
<stop offset=".006" stop-color="#858585"/>
<stop offset=".061" stop-color="#898989"/>
<stop offset=".685" stop-color="#b6b6b6"/>
<stop offset="1" stop-color="#c7c7c7"/>
</linearGradient>
<linearGradient gradientTransform="matrix(-1 -.5798 0 1 289.4746 83.7259)" id="XMLID_29_" y1="63.966" x1="228.07" y2="59.012" x2="222.941" gradientUnits="userSpaceOnUse">
<stop offset="0" stop-color="#fff"/>
<stop offset=".255" stop-color="#fcfcfc"/>
<stop offset=".422" stop-color="#f4f4f4"/>
<stop offset=".564" stop-color="#e5e5e5"/>
<stop offset=".691" stop-color="#d0d0d0"/>
<stop offset=".809" stop-color="#b4b5b5"/>
<stop offset=".918" stop-color="#939495"/>
<stop offset="1" stop-color="#757677"/>
</linearGradient>
<radialGradient cx="147.639" cy="266.386" gradientTransform="matrix(.2842 -.9588 -.9588 -.2842 274.1005 293.4449)" r="8.766" id="XMLID_36_" gradientUnits="userSpaceOnUse">
<stop offset="0" stop-color="#029df0"/>
<stop offset=".204" stop-color="#027ec0"/>
<stop offset=".475" stop-color="#015987"/>
<stop offset=".708" stop-color="#013e5e"/>
<stop offset=".89" stop-color="#012d44"/>
<stop offset="1" stop-color="#01273b"/>
</radialGradient>
</defs>
<path fill="url(#XMLID_24_)" d="m7.952,1.653c-.095,13.883-.006,77.636-.006,84.592 6.918,0 48.356-.134 65.627-.134 1.5-.625 2.404-1.443 3.217-1.881 .083-3.891-.062-54.07-.062-55.223 0-1.188-6.062-10.511-7.875-13.312-1.601-2.474-8-12.637-10.75-14.668-4.5-1.312-33.637-1.148-47.314-.706-.688,.25-1.761,.895-2.837,1.332z"/>
<path fill="url(#XMLID_25_)" d="m9.216,2.092 .915,81.944 63.097,.444 1.562-.75 .021-55.014-2.458-2.375-15-22.772-.282-1.12-1.281-1.294-45.033,.283-1.541,.654z"/>
<path fill="url(#XMLID_26_)" d="m9.172,84.542 64.033,.02 .042-57.469-17.047-24.791-47.028-.268 0,82.508z"/>
<path opacity=".75" fill="none" stroke="#fff" stroke-linecap="round" stroke-width="2" d="m56.752,3.629-46.333-.467 .118,78.178"/>
<path fill="url(#XMLID_27_)" d="m12.021,84.093 61.207,.45 .125-57.492-17.116-25.766-44.297,.795 .081,82.013z"/>
<path opacity=".69" fill="url(#XMLID_28_)" d="m55.623,24.278c2.94,1.178 16.624,3.881 17.671,6.113 0-.938 .031-2.728 0-3.136-3.221-7.411-16.213-25.323-17.107-25.36-.629-.188-1.214-.086-1.417-.125 .406,.267 .724,.626 1.192,1.054 3.078,2.957-1.964,20.803-.339,21.454z"/>
<path fill="url(#XMLID_29_)" d="m73.218,27.125c-.361-.771-2.256-1.836-3.033-2.141-3-1.178-12.531-3.104-12.531-3.104l.141-15.259c0,0-.024-1.523-.297-2.24-.328-.862-.222-1.994-1.394-3.111 3.828,1.626 18.159,25.899 17.114,25.855z"/>
<path fill="url(#XMLID_30_)" d="m58.075,6.744c.136,3.444-.316,13.098-.406,15.162-.139-.112-.713-.294-.713-.294 0,0 .835-11.689 .631-15.089-.03-.508-.13-1.439-.359-2.152-.297-.922-1.265-2.302-1.499-2.786 .208-1.292 2.202,1.501 2.346,5.159z"/>
<path fill="url(#XMLID_31_)" d="m15.731,58.357c2.438-3.535 4.241-7.853 6.991-8.603 .747-.03 6.769,6.404 8.426,7.853 .376,2.545 .571,18.021 .25,21.75-.651,7.502-9.229,16.122-19.525,13.277-4.338-1.198-10.52-7.86-10.27-15.61 .101-3.11 .628-7.25 4.378-11.167 .952-.994 3.202-2.478 4.666-3.25 3-1.583 7.619-1.175 8.001-1.583 .687-.733-3.688-1.547-2.917-2.667zm5.083,25.417c2.163-.669 3.113-15.233 1.25-16.167-1.36-.681-7.917,1.417-10.917,6.084-1.006,1.564-1.445,6.109 .167,8.166 3.601,4.597 7.01,2.688 9.5,1.917z"/>
<path fill="url(#XMLID_32_)" d="m33.273,57.648c0,0-1.624-2.437-2.126,.043-.321,.1-6.909-6.455-8.166-7.75-8.073-11.283-22.286-28.731-22.729-31-1.242-6.364 2.395-7.917 4.229-9.167 4.166,4.833 15.083,16.5 25.083,27.25 1.75-3.167 12.667-24.25 16.417-31.167 2-2 5.588,3.483 5.583,6.084-.014,6.646-12.211,31.536-12.874,34.207 1.084,1.25 3.292,3.083 3.292,3.083l-8.709,8.417z"/>
<path fill="url(#XMLID_33_)" d="m43.546,56.11c0,0-15.431-4.173-17.416-5.149-4.16-5.434-22.915-30.469-23.607-33.57-.851-3.817 .298-5.703 1.938-6.4 5.896,6.949 40.137,43.783 40.137,43.783l-1.052,1.336z"/>
<path fill="url(#XMLID_34_)" d="m39.906,59.943c0,0-12.344-7.414-14.356-8.33-4.232-5.271-23.732-29.968-24.446-33.017-.93-3.975 .754-5.353 2.128-7.031 5.811,6.61 40.534,44.451 40.534,44.451l-3.86,3.927z"/>
<path fill="url(#XMLID_35_)" d="m44.919,70.773c-2.939-4.259-10.293-11.173-11.571-13.14 1.028-1.408 3.985-3.774 6.342-7.916 .724-.564 2.002-.609 2.513-.693 2.032,1.687 8.182,12.037 13.664,12.227 15.115,.523 21.282,6.689 21.115,17.273-.086,5.455-5.625,10.438-11.438,10.625-4.398,.142-8.604,.483-13.463-5.608-2.288-2.868-4.297-8.618-7.162-12.768zm22.364,9.697c4.493-2.153-10.393-16.037-12.342-11.184-1.221,3.04 5.767,14.334 12.342,11.184z"/>
<path fill="url(#XMLID_36_)" d="m69.356,79.023c0,0 .75,3.312-2.723,5.26-2.367,1.326-7.015,.467-10.479-2.691-3.293-3.003-6.637-13.446-.485-15.006-2.25,2.312-.84,6.871 1.846,10.164 2.908,3.564 5.676,4.28 7.404,4.398 2.75,.188 4.437-2.125 4.437-2.125z"/>
<path fill="url(#XMLID_37_)" d="m48.664,64.715c2.95-4.005 10.491-2.356 14.075-1.672 7.204,1.376 11.239,9.451 11.003,14.895-.144,3.332-.271,10.16-8.824,10.202-4.138,.02-6.239,.229-11.447-4.831-2.795-2.713-9.134-12.716-4.807-18.594zm9.44,16.343c2.442,1.79 5.177,1.926 6.557,1.883 2.078-.063 4.095-.324 4.524-2.459 1.063-5.28-4.625-10.979-9.279-13.148-2.297-1.069-4.992-1.511-6.716,1.097-1.847,2.797 2.314,10.72 4.914,12.627z"/>
<path fill="url(#XMLID_38_)" d="m40.481,50.345c0,0 9.317,9.337 11.178,10.331 2.319,1.24 7.359,2.428 7.359,2.428 0,0-6.18-.646-8.649,1.207-1.478,1.111-3.747,3.595-.575,11.275 1.127,2.728 3.533,8.102 6.783,10.602-7.625-4.125-8.522-13.15-10.471-15.727-2.494-3.296-6.875-7.938-11.312-12.832 1.348-1.819 3.25-3.856 5.687-7.284z"/>
<path fill="url(#XMLID_39_)" d="m42.116,49.961l-1.628,.456c0,0 8.163,9.57 11.463,11.091 1.831,.844 2.08,1.191 4.029,1.495 2.89,.45 7.098-.318 12.812,5.104 3.667,3.481 6.736,10.465 2.065,16.913-2.455,3.388-7.019,2.959-5.814,3.316 .547,.161 5.193-.051 8.739-4.877 2.728-3.709 3.448-11.436-2.993-16.99-3.963-3.417-9.437-4.203-14.419-4.159-4.981,.043-14.254-12.349-14.254-12.349z"/>
<path fill="url(#XMLID_40_)" d="m25.989,60.271c0,0-6.005-7.721-5.64-8.01 .341-.637 1.77-1.289 2.444-1.738 .394-.264 7.179,7.037 7.521,7.644 .342,.607 1.166,19.981-.841,23.626-1.995,3.623-3.261,5.57-6.932,7.697-.195-1.839-.764-2.989 .495-6.365 1.27-3.405 2.002-17.312 .769-17.549-1.74-.33-6.916-2.483-9.706-1.572-3.529,1.15-6.178,3.036-8.194,3.829 1.132-1.62 2.027-2.218 3.263-3.247 5.25-4.375 13.63-.961 13-3.812-.131-.593-4.274-2.644-4.274-2.644l8.095,2.141z"/>
<path fill="url(#XMLID_41_)" d="m28.526,82.146c-1.483,7.945-9.25,10.649-14.738,9.897-7.276-.994-11.598-9.752-10.965-16.865 .275-3.102 2.9-10.615 11.525-11.708 2.546-.323 6.598,.028 7.508-1.571 .616-1.085-4.236-2.373-5.25-3.5 1.314-2.087 2.878-4.923 3.783-6.219 .355,.561 7.829,7.882 8.342,9.011 .435,4.692 .901,15.026-.205,20.955zm-10.878-14.956c-1.271,.347-9.12,4.491-9.167,11.917-.026,4.323 1.096,7.198 5.503,8.545 4.741,1.451 8.203-3.729 8.372-4.129 2.562-6.062 1.521-12.708 1.208-15.833-.145-1.455-3.929-1.041-5.916-.5z"/>
<path fill="url(#XMLID_42_)" d="m22.19,84.22c-.379,.844-1.84,2.146-3.686,3.21-2.987,1.723-8.456,.443-11.428-2.068-2.031-1.716-3.688-5.282-3.558-8.282 .179-4.118 2.229-6.082 4.379-7.639 1.659-1.203 7.129-2.604 9.166-2-2.823,.728-7.176,5.523-7.711,7.75-.838,3.489-.07,6.569 3.003,8.958 3.802,2.954 8.672,.417 9.835,.071z"/>
<path fill="url(#linearGradient6977)" d="m28.148,82.856c-1.286,5.877-8.221,9.559-12.925,9.598-4.202,.318-10.524-3.4-12.355-12.614 2.15,8.286 9.151,12.316 14.407,10.419 2.3-.83 5.83-3.702 7.4-7.018 2.496-5.273 .666-14.292 .708-17.781 .027-2.182-16.598-1.554-20.476,3.707 1.968-2.931 4.587-4.399 6.651-5.068 1.24-.402 2.513-.58 3.734-.74 1.335-.272 6.718,.489 7.438-1.335 .398-1.007-4.05-3.181-4.695-3.938 .937-1.549 2.444-4.012 2.814-4.38 .845,1.251 7.225,8.24 7.548,8.4 .769,2.836 1.211,14.082-.249,20.75z"/>
<path fill="url(#XMLID_44_)" d="m46.221,6.921l1.052-.558c0,0 4.492,1.961 3.174,8.01-1.148,5.263-14.407,36.176-14.407,36.176l-2.055,2.707 12.236-46.335z"/>
<path fill="url(#XMLID_45_)" d="m21.88,53.425l24.339-46.518c0,0 4.489,1.962 3.171,8.012-1.146,5.264-15.448,38.344-15.448,38.344l-6.156,6.407-5.906-6.245z"/>
<path fill="url(#XMLID_46_)" d="m30.866,46.379c-1.562-.307-3.07,.266-3.368,1.275-.299,1.008 .725,2.073 2.286,2.379 1.561,.303 3.069-.268 3.368-1.275 .298-1.01-.725-2.076-2.286-2.379z"/>
</svg>
