<svg xmlns="http://www.w3.org/2000/svg" viewBox="0 0 160 160" xmlns:xlink="http://www.w3.org/1999/xlink">
<defs>
<linearGradient gradientTransform="matrix(1.27999 -1.2809 .38013 .40085 .41919 .45577)" xlink:href="#linearGradient57" id="linearGradient123" y1="-.512" x1=".085" y2=".705" x2="-.097" gradientUnits="objectBoundingBox"/>
<linearGradient gradientTransform="matrix(1.27999 -1.2809 .38013 .40085 .41918 .45578)" xlink:href="#linearGradient96" id="linearGradient1856" y1="-.547" x1="-.017" y2=".138" x2=".015" gradientUnits="objectBoundingBox"/>
<linearGradient id="linearGradient96">
<stop offset="0" stop-color="#fbddb2" stop-opacity=".992"/>
<stop offset="1" stop-color="#efa81a" stop-opacity=".953"/>
</linearGradient>
<linearGradient id="linearGradient57">
<stop offset="0" stop-color="#fff"/>
<stop offset="1" stop-color="#797979"/>
</linearGradient>
</defs>
<g stroke-opacity=".992" stroke-linejoin="round" stroke-width="4" transform="matrix(.97424 -.0887 -.0887 -.97424 9.63647 167.097)">
<path fill="url(#linearGradient123)" stroke="#0a0a05" d="m44.43,62.2898c-7.2446,6.2455-17.2486,16.2704-24.4931,22.5159-2.9002-2.4897-5.8003-4.9795-8.7005-7.4692 1.2481-5.2458-.2069-8.6382 1.7778-16.434 11.0587-11.6469 23.4381-18.5943 41.9424-31.0255 10.877-6.879 37.9499-24.9812 57.1834-34.9224 4.52-.4985 10.125,.7782 4.953,5.8241-14.191,10.933-58.8379,50.1107-72.663,61.5111z" transform="matrix(.72172 .06614 -.06817 .74387 71.5019 34.1323)"/>
<g stroke="#580400">
<path fill="url(#linearGradient1856)" d="m88.2517,60.9959c-11.758,8.5011-21.8341,12.7746-42.2705,15.0202-16.5733,3.1144-25.6889,8.5417-36.2335,15.1383-5.6806-2.546-12.9369-5.887-23.3571-10.0475 15.6158-16.1239 33.7575-37.4036 43.3889-54.3196 13.7277-16.7256 11.9995-15.5199 24.9781-25.6005 13.5101-11.1807 33.6537-6.5649 49.9614,8.3017 6.277,6.9991 10.997,8.7727 10.391,16.6169 .996,6.9611-6.036,19.9443-26.8583,34.8905z" transform="matrix(-.63542 .0101 -.01041 -.65492 77.7293 150.658)"/>
<path fill="#fff" fill-opacity=".99" d="m83.7482,60.5074c-15.1458,10.2376-20.6265,11.6925-34.0281,17.196-8.981,2.2204-20.2966,2.339-30.5394-.9712-2.7066-1.5695-9.5126-7.0666-9.4686-11.6569 4.0151-17.5111 8.8492-21.5993 17.5767-34.7154 9.1344-10.5414 18.5401-19.337 34.1285-26.875 17.0524-5.3471 23.9728-3.8055 34.5286,4.222 9.8731,8.2422 11.7761,14.8515 12.1441,23.9116-2.664,12.727-8.1366,16.742-24.3418,28.8888z" transform="matrix(-.41633 .00661 -.00682 -.42911 62.5479 143.979)"/>
</g>
</g>
<g stroke-opacity=".992" stroke-linejoin="round" stroke-width="4" transform="matrix(.97827 0 0 .97827 1.99148 .35164)">
<path fill="url(#linearGradient123)" stroke="#0a0a05" d="m44.43,62.2898c-7.2446,6.2455-17.2486,16.2704-24.4931,22.5159-2.9002-2.4897-5.8003-4.9795-8.7005-7.4692 1.2481-5.2458-.2069-8.6382 1.7778-16.434 11.0587-11.6469 23.4381-18.5943 41.9424-31.0255 10.877-6.879 37.9499-24.9812 57.1834-34.9224 4.52-.4985 10.125,.7782 4.953,5.8241-14.191,10.933-58.8379,50.1107-72.663,61.5111z" transform="matrix(.72172 .06614 -.06817 .74387 71.5019 34.1323)"/>
<g stroke="#580400">
<path fill="url(#linearGradient1856)" d="m88.2517,60.9959c-11.758,8.5011-21.8341,12.7746-42.2705,15.0202-16.5733,3.1144-25.6889,8.5417-36.2335,15.1383-5.6806-2.546-12.9369-5.887-23.3571-10.0475 15.6158-16.1239 33.7575-37.4036 43.3889-54.3196 13.7277-16.7256 11.9995-15.5199 24.9781-25.6005 13.5101-11.1807 33.6537-6.5649 49.9614,8.3017 6.277,6.9991 10.997,8.7727 10.391,16.6169 .996,6.9611-6.036,19.9443-26.8583,34.8905z" transform="matrix(-.63542 .0101 -.01041 -.65492 77.7293 150.658)"/>
<path fill="#fff" fill-opacity=".99" d="m83.7482,60.5074c-15.1458,10.2376-20.6265,11.6925-34.0281,17.196-8.981,2.2204-20.2966,2.339-30.5394-.9712-2.7066-1.5695-9.5126-7.0666-9.4686-11.6569 4.0151-17.5111 8.8492-21.5993 17.5767-34.7154 9.1344-10.5414 18.5401-19.337 34.1285-26.875 17.0524-5.3471 23.9728-3.8055 34.5286,4.222 9.8731,8.2422 11.7761,14.8515 12.1441,23.9116-2.664,12.727-8.1366,16.742-24.3418,28.8888z" transform="matrix(-.41633 .00661 -.00682 -.42911 62.5479 143.979)"/>
</g>
</g>
</svg>
