<svg xmlns="http://www.w3.org/2000/svg" viewBox="0 0 160 160" xmlns:xlink="http://www.w3.org/1999/xlink">
<defs>
<linearGradient id="2" y1="119.147" x1="255.848" y2="34.101" x2="375.686" gradientUnits="userSpaceOnUse">
<stop offset="0" stop-color="#fff"/>
<stop offset="1"/>
</linearGradient>
<linearGradient gradientTransform="translate(-2.65767 -.20124)" xlink:href="#linearGradient67" id="linearGradient89" y1="1.147" x1="2.696" y2=".623" x2="3.851" gradientUnits="objectBoundingBox"/>
<linearGradient id="linearGradient67">
<stop offset="0" stop-color="#d7ffff" stop-opacity=".898"/>
<stop offset="1" stop-color="#2ea6b9" stop-opacity=".953"/>
</linearGradient>
<radialGradient cx="0" cy="0" gradientTransform="matrix(.94588 0 0 1.05722 .26437 .25)" r=".773" id="radialGradient88" gradientUnits="objectBoundingBox">
<stop offset="0" stop-color="#cdffff"/>
<stop offset="1" stop-color="#0c5d7d" stop-opacity=".906"/>
</radialGradient>
</defs>
<path stroke-opacity=".99" fill="url(#radialGradient88)" stroke="#0c5d7d" stroke-width="4.036" d="m35.399,39.1321h241.82l100,98.8519v410.214h-341.82v-509.0659z" transform="matrix(.27875 0 0 .28489 29.8322 1.63322)"/>
<path stroke-opacity=".82" fill="#fff" stroke="#2ea6b9" fill-opacity=".699" stroke-width="8.969" d="m23.9471,20.1241h241.8199l100,99.9999v414.979h-341.8199l0-514.9789z" transform="matrix(.27875 0 0 .27875 29.8322 3.74844)"/>
<path fill="url(#2)" d="m276.767,133.124l89-13-100-99.9999" transform="matrix(.27875 0 0 .27875 29.8322 3.74844)"/>
<path stroke-opacity=".91" fill="url(#linearGradient89)" stroke="#2ea6b9" stroke-width="6.726" d="m265.767,120.124h100l-100-99.9999v99.9999" transform="matrix(.27875 0 0 .27875 29.8322 3.74844)"/>
<g stroke-opacity=".99" stroke="#cd0000" fill-opacity=".99">
<path fill="#f00" stroke-width="2.159" d="m62.5183,72.4199c2.4039,.0027 13.372,13.0024 18.9119,20.3571 5.9062,7.158 10.8287,14.296 16.2933,21.406l-.775,.515c-5.4963-7.1-11.0763-13.622-16.7365-20.5916-3.8931-4.7596-8.8045-10.0181-11.8484-14.6429-.1198-.1367-5.9212-7.0239-5.8472-7.0423 1.188-.2943 1.4384-.0008 2.6624-.0013h-2.6605z" transform="matrix(1.44714 0 0 1.44714 -27.8899 -29.8484)"/>
<path fill="#fe0000" stroke-width="3.068" d="m110.771,77.1596c-5.703-.7867-13.9731,5.8973-18.2718,8.6388-17.7531,12.0686-32.7555,27.7356-47.7461,42.9866l-2.0154-1.071c14.2426-18.971 30.5102-32.0602 47.9277-44.7897 5.548-3.8462 13.1206-8.2054 20.1056-9.169v3.4043z" transform="matrix(.96779 0 0 1.07199 15.6818 -1.44861)"/>
</g>
</svg>
