<svg width="160" xmlns="http://www.w3.org/2000/svg" height="160" viewBox="0 0 128 128">
<g fill="#1b100f">
<path opacity=".98" d="m82.12,27.18c2.77-2.29 5.09-5.1 7.98-7.25 2.77-.47 5.75-.42 8.38,.65 2.52,2.74 6.7,5.06 5.86,9.42 .66,3.28-1.6,5.6-3.99,7.37-17.88,17.78-35.73,35.6-53.54,53.44-2.88,2.76-5.67,5.61-8.21,8.69-1.76,.26-3.52,.56-5.27,.85-.91,1.09-1.81,2.19-2.7,3.3-1.85,.27-3.7,.51-5.57,.6 .27-.29 .82-.85 1.09-1.13 5.92-4.14 13.1-6.48 18.11-11.86 10.61-10.72 21.29-21.38 31.93-32.08 3.18-3.24 6.83-6.12 9.07-10.14 3.22-3.85 7.67-6.42 10.86-10.29 1.17-1.32 2.39-2.58 3.56-3.89 2.34-5.29-1.57-10.08-5.18-13.51-4.87-1.47-6.97,4.25-10.59,6.25-3.6,2.47-5.81,6.32-8.87,9.35-10.81,9.87-20.68,20.72-30.78,31.3-2.3,2.68-4.28,5.67-7.08,7.88-2.95,2.34-6.14,4.39-8.97,6.89 .13-.56 .38-1.67 .51-2.22 17.86-17.81 35.9-35.47 53.4-53.62z"/>
<path opacity=".98" d="m24.58,84.6c1.22-.52 2.42-1.05 3.63-1.58-.46,3.11-2.02,5.88-4.37,7.95-.11-2.15 .25-4.28 .74-6.37z"/>
</g>
<path fill="#9d3f3f" d="m83.91,27.6c3.62-2 5.72-7.72 10.59-6.25 3.61,3.43 7.52,8.22 5.18,13.51-.63,.11-1.87,.34-2.5,.45 .71-1.82 1.44-3.64 2.2-5.44-1.99-3.26-5.52-.37-8.33-.22-1.44-.3-2.81-.87-4.21-1.31-.73-.19-2.2-.56-2.93-.74z"/>
<path fill="#2b6336" d="m75.04,36.95c3.06-3.03 5.27-6.88 8.87-9.35-1.18,2.11-2.31,4.24-3.38,6.41 2.63,2.96 5.44,5.8 8.65,8.14 2.87-.23 4.65-3.02 6.67-4.8 .07,.35 .2,1.05 .27,1.4-3.19,3.87-7.64,6.44-10.86,10.29l.09-1c.77-3.72-2.96-5.95-5.22-8.22-1.31-1.43-3.32-1.25-5.07-1.4 0-.37-.02-1.1-.02-1.47z"/>
<path fill="#838b7e" d="m83.91,27.6c.73,.18 2.2,.55 2.93,.74l-.35,.48c-1.51,1.57-3.01,3.15-4.29,4.92 2.32,2.29 4.51,5.17 7.82,6.01 2.28-.19 3.36-2.45 4.68-3.99 .28,.39 .86,1.19 1.15,1.59-2.02,1.78-3.8,4.57-6.67,4.8-3.21-2.34-6.02-5.18-8.65-8.14 1.07-2.17 2.2-4.3 3.38-6.41z"/>
<path fill="#d46b6a" d="m86.84,28.34c1.4,.44 2.77,1.01 4.21,1.31 2.81-.15 6.34-3.04 8.33,.22-.76,1.8-1.49,3.62-2.2,5.44 .63-.11 1.87-.34 2.5-.45-1.17,1.31-2.39,2.57-3.56,3.89-.07-.35-.2-1.05-.27-1.4-.29-.4-.87-1.2-1.15-1.59-2.56-2.53-5.47-4.64-8.21-6.94l.35-.48z"/>
<path fill="#d5d1d0" d="m82.2,33.74c1.28-1.77 2.78-3.35 4.29-4.92 2.74,2.3 5.65,4.41 8.21,6.94-1.32,1.54-2.4,3.8-4.68,3.99-3.31-.84-5.5-3.72-7.82-6.01z"/>
<path opacity=".96" fill="#5a401d" d="m44.26,68.25c10.1-10.58 19.97-21.43 30.78-31.3 0,.37 .02,1.1 .02,1.47l.03,.84c-13.7,13.58-26.46,28.09-40.35,41.49-2.11,1.88-4.31,3.74-5.75,6.21-1.53,2.16-3.01,4.34-4.47,6.54l-.99-.72-.85-.61c.29-.3 .87-.9 1.16-1.2 2.35-2.07 3.91-4.84 4.37-7.95 2.83-2.5 6.02-4.55 8.97-6.89 2.8-2.21 4.78-5.2 7.08-7.88z"/>
<path fill="#a7b590" d="m75.06,38.42c1.75,.15 3.76-.03 5.07,1.4 2.26,2.27 5.99,4.5 5.22,8.22-1.44,.92-2.86,1.86-4.18,2.94 .51-1.26 1.08-2.54 1.19-3.91-.84-2.32-2.74-3.96-4.48-5.6-.9,.08-1.79,.17-2.69,.26-.03-.83-.07-1.65-.1-2.47l-.03-.84z"/>
<path fill="#b08b4b" d="m34.74,80.75c13.89-13.4 26.65-27.91 40.35-41.49 .03,.82 .07,1.64 .1,2.47-6.13,6.33-12.33,12.61-18.15,19.23-4.03,3.31-7.59,7.13-11.29,10.79-4.36,4.24-7.81,9.38-12.74,13.02-.97,.73-1.94,1.46-2.92,2.18l-1.1,.01c1.44-2.47 3.64-4.33 5.75-6.21z"/>
<path fill="#fee795" d="m75.19,41.73c.9-.09 1.79-.18 2.69-.26 1.74,1.64 3.64,3.28 4.48,5.6-.11,1.37-.68,2.65-1.19,3.91-5.29,5.02-10.11,10.51-15.38,15.56 .01-.49 .03-1.46 .04-1.95-3.85,2.09-6.49,5.67-9.73,8.51-3.75,3.29-7.32,6.78-11.23,9.9-.92-1.05-3.03-1.92-2.38-3.63 4.04-6.76 10.93-11.37 14.55-18.41 5.82-6.62 12.02-12.9 18.15-19.23z"/>
<path fill="#745c25" d="m81.17,50.98c1.32-1.08 2.74-2.02 4.18-2.94l-.09,1c-2.24,4.02-5.89,6.9-9.07,10.14-10.64,10.7-21.32,21.36-31.93,32.08-5.01,5.38-12.19,7.72-18.11,11.86 .18-.58 .54-1.75 .72-2.33 4.54-3.19 10.03-5.11 13.7-9.43 8.64-8.02 16.88-16.48 25.22-24.82 5.27-5.05 10.09-10.54 15.38-15.56z"/>
<path fill="#f8d477" d="m45.75,71.75c3.7-3.66 7.26-7.48 11.29-10.79-3.62,7.04-10.51,11.65-14.55,18.41-.65,1.71 1.46,2.58 2.38,3.63 3.91-3.12 7.48-6.61 11.23-9.9 3.24-2.84 5.88-6.42 9.73-8.51-.01,.49-.03,1.46-.04,1.95-8.34,8.34-16.58,16.8-25.22,24.82l-.86,.31c-.05-2.08 .05-4.17-.2-6.23-1.37-2.16-4.42-.68-6.5-.67 4.93-3.64 8.38-8.78 12.74-13.02z"/>
<path fill="#fee1bd" d="m33.01,84.77c2.08-.01 5.13-1.49 6.5,.67 .25,2.06 .15,4.15 .2,6.23-5.59,1.66-9.61,7.06-15.65,7.31 1.01-4.49 4.6-7.71 6.03-12.03 .98-.72 1.95-1.45 2.92-2.18z"/>
<path fill="#c89f76" d="m24.52,93.5c1.46-2.2 2.94-4.38 4.47-6.54l1.1-.01c-1.43,4.32-5.02,7.54-6.03,12.03 6.04-.25 10.06-5.65 15.65-7.31l.86-.31c-3.67,4.32-9.16,6.24-13.7,9.43-1.83,1.16-3.89,1.88-6,2.36-.6-3.69 1.9-6.68 3.65-9.65z"/>
<path opacity=".98" fill="#1f2020" d="m15.79,99.95c.15-3.33 3.52-4.94 5.52-7.15 .55,0 1.67-.01 2.22-.02-2.11,3.15-4.18,6.4-4.95,10.17 1.47,.83 2.94,1.65 4.42,2.46 1.53,1.69-.6,2.54-2.05,2.88-1.54,.25-3.03-.37-4.49-.77-.74-2.45-1-5.03-.67-7.57z"/>
<path opacity=".96" fill="#6d5740" d="m23.53,92.78l.99,.72c-1.75,2.97-4.25,5.96-3.65,9.65 2.11-.48 4.17-1.2 6-2.36-.18,.58-.54,1.75-.72,2.33-.27,.28-.82,.84-1.09,1.13-.51,.29-1.54,.87-2.06,1.16-1.48-.81-2.95-1.63-4.42-2.46 .77-3.77 2.84-7.02 4.95-10.17z"/>
</svg>
