<?xml version="1.0" encoding="UTF-8" standalone="no"?>
<!-- Created with Inkscape (http://www.inkscape.org/) -->
<svg
   xmlns:svg="http://www.w3.org/2000/svg"
   xmlns="http://www.w3.org/2000/svg"
   version="1.0"
   width="128pt"
   height="128pt"
   viewBox="0 0 128 128"
   id="svg2">
  <defs
     id="defs137" />
  <g
     id="#66131397">
    <path
       d="M 40.07,6 C 53.57,3.7 71.7,5.56 86.98,5.05 L 86.97,6.01 C 71.34,5.98 55.71,6 40.07,6 z"
       id="path5"
       style="opacity:0.58999999;fill:#661313" />
  </g>
  <g
     id="#bd2828f3">
    <path
       d="M 8.12,37.07 C 19.19,27.22 28.84,15.46 40.07,6 C 55.71,6 71.34,5.98 86.97,6.01 C 97.77,16.17 109.18,26.9 118.99,38.08 C 119.05,53.44 118.93,68.8 119.04,84.16 L 118.05,83.93 C 117.92,69.86 118.1,55.8 117.92,41.74 C 117.65,34.99 110.19,31.52 106.07,26.82 C 99.53,20.77 94.26,12.98 86.64,8.28 C 71.44,8.22 55.71,6.93 40.8,8.82 C 38.49,10.69 36.88,13.25 34.7,15.25 C 30.53,18.33 27.78,22.76 24.01,26.23 C 20.96,29.29 18.13,32.58 14.76,35.3 C 12.65,37.14 9.96,39.58 10.24,42.68 C 9.99,49.29 9.99,55.92 9.97,62.54 C 8.73,69.99 8.86,77.56 8.9,85.09 C 6.8,69.46 8.68,53.57 7.83,37.84 L 8.12,37.07 z"
       id="path8"
       style="opacity:0.95;fill:#bd2828" />
  </g>
  <g
     id="#fe7676ff">
    <path
       d="M 40.8,8.82 C 55.71,6.93 71.44,8.22 86.64,8.28 C 94.26,12.98 99.53,20.77 106.07,26.82 C 110.87,33.97 104.41,40.88 97.78,43.78 C 92.97,45.53 86.77,53 81.98,47.95 C 81.95,43.66 81.95,39.38 81.99,35.1 C 88.95,37.79 95.85,30.03 99.62,25.24 C 99.78,21.02 94.76,18.93 92.35,15.9 C 90.12,13.67 88.08,11.24 85.62,9.26 C 70.69,8.51 55.73,9.4 40.8,8.82 z"
       id="path11"
       style="opacity:1;fill:#fe7676" />
  </g>
  <g
     id="#fda8a8ff">
    <path
       d="M 34.7,15.25 C 36.88,13.25 38.49,10.69 40.8,8.82 C 55.73,9.4 70.69,8.51 85.62,9.26 C 88.08,11.24 90.12,13.67 92.35,15.9 C 88.4,18.85 84.45,21.9 79.96,24.02 C 77.46,22.86 74.93,23.1 72.83,24.93 L 71.97,25.37 C 71.53,23.97 70.64,21.19 70.2,19.8 C 69.93,19.31 69.39,18.33 69.12,17.84 C 66.9,16.64 64.23,17.18 61.9,17.78 L 61.02,18.04 C 60.1,18.36 59.55,18.94 59.38,19.78 C 59.05,22.24 58.72,24.7 58.4,27.16 C 58.05,26.62 57.36,25.54 57.01,25 C 55,22.37 51.95,22.91 49.84,25.08 L 48.96,24.64 C 44.31,21.35 39.31,18.41 34.7,15.25 z"
       id="path14"
       style="opacity:1;fill:#fda8a8" />
  </g>
  <g
     id="#fe8888ff">
    <path
       d="M 24.01,26.23 C 27.78,22.76 30.53,18.33 34.7,15.25 C 39.31,18.41 44.31,21.35 48.96,24.64 C 48.69,25.19 48.14,26.29 47.87,26.83 C 46.71,31.17 47.09,35.76 46.95,40.22 L 46.26,39.67 C 44.6,37.13 41.89,36.76 39.19,37.82 C 33.67,34.54 29.68,29.26 24.01,26.23 z"
       id="path17"
       style="opacity:1;fill:#fe8888" />
  </g>
  <g
     id="#ff8e8eff">
    <path
       d="M 92.35,15.9 C 94.76,18.93 99.78,21.02 99.62,25.24 C 95.85,30.03 88.95,37.79 81.99,35.1 C 81.72,32.07 82.83,28.64 81.1,25.93 C 80.91,25.62 80.54,25.01 80.35,24.7 L 79.96,24.02 C 84.45,21.9 88.4,18.85 92.35,15.9 z"
       id="path20"
       style="opacity:1;fill:#ff8e8e" />
  </g>
  <g
     id="#fdfafaff">
    <path
       d="M 61.9,17.78 C 64.23,17.18 66.9,16.64 69.12,17.84 C 69.71,30.54 67.57,43.82 69.78,56.24 C 70.33,56.44 71.43,56.83 71.98,57.03 C 74.42,48.2 72.42,35.31 72.83,24.93 C 74.93,23.1 77.46,22.86 79.96,24.02 L 80.35,24.7 C 79.81,35.73 80.1,46.78 79.89,57.83 C 75.53,69.08 59.54,62.91 50.27,63.14 C 49.75,50.46 50.21,37.77 49.84,25.08 C 51.95,22.91 55,22.37 57.01,25 C 57.35,35.39 56.15,45.89 57.75,56.19 C 58.37,57.19 59.07,58.65 60.27,57.36 L 61.01,56.95 C 63.23,44.74 61.59,30.73 61.9,17.78 z"
       id="path23"
       style="opacity:1;fill:#fdfafa" />
  </g>
  <g
     id="#b1aaaaff">
    <path
       d="M 59.38,19.78 C 59.55,18.94 60.1,18.36 61.02,18.04 C 60.95,31.01 61.04,43.98 61.01,56.95 L 60.27,57.36 C 59.62,44.84 60.63,32.27 59.38,19.78 z"
       id="path26"
       style="opacity:1;fill:#b1aaaa" />
  </g>
  <g
     id="#e8dfdfff">
    <path
       d="M 61.02,18.04 L 61.9,17.78 C 61.59,30.73 63.23,44.74 61.01,56.95 C 61.04,43.98 60.95,31.01 61.02,18.04 z"
       id="path29"
       style="opacity:1;fill:#e8dfdf" />
  </g>
  <g
     id="#c1b8b8ff">
    <path
       d="M 69.12,17.84 C 69.39,18.33 69.93,19.31 70.2,19.8 C 69.81,31.95 70.28,44.1 69.78,56.24 C 67.57,43.82 69.71,30.54 69.12,17.84 z"
       id="path32"
       style="opacity:1;fill:#c1b8b8" />
  </g>
  <g
     id="#a37777ff">
    <path
       d="M 59.38,19.78 C 60.63,32.27 59.62,44.84 60.27,57.36 C 59.07,58.65 58.37,57.19 57.75,56.19 C 58.1,46.52 57.69,36.82 58.4,27.16 C 58.72,24.7 59.05,22.24 59.38,19.78 z"
       id="path35"
       style="opacity:1;fill:#a37777" />
  </g>
  <g
     id="#a77878ff">
    <path
       d="M 70.2,19.8 C 70.64,21.19 71.53,23.97 71.97,25.37 C 72.01,35.92 72.02,46.47 71.98,57.03 C 71.43,56.83 70.33,56.44 69.78,56.24 C 70.28,44.1 69.81,31.95 70.2,19.8 z"
       id="path38"
       style="opacity:1;fill:#a77878" />
  </g>
  <g
     id="#9e9797ff">
    <path
       d="M 47.87,26.83 C 48.14,26.29 48.69,25.19 48.96,24.64 C 48.12,37.31 50.66,50.85 48.07,63.1 C 47.99,51.01 48.09,38.92 47.87,26.83 z"
       id="path41"
       style="opacity:1;fill:#9e9797" />
  </g>
  <g
     id="#d9cfcfff">
    <path
       d="M 48.96,24.64 L 49.84,25.08 C 50.21,37.77 49.75,50.46 50.27,63.14 C 49.4,63.52 47.45,66.34 47.1,64.49 C 47.35,64.14 47.83,63.45 48.07,63.1 C 50.66,50.85 48.12,37.31 48.96,24.64 z"
       id="path44"
       style="opacity:1;fill:#d9cfcf" />
  </g>
  <g
     id="#dbd5d5ff">
    <path
       d="M 57.01,25 C 57.36,25.54 58.05,26.62 58.4,27.16 C 57.69,36.82 58.1,46.52 57.75,56.19 C 56.15,45.89 57.35,35.39 57.01,25 z"
       id="path47"
       style="opacity:1;fill:#dbd5d5" />
  </g>
  <g
     id="#cfc7c7ff">
    <path
       d="M 71.97,25.37 L 72.83,24.93 C 72.42,35.31 74.42,48.2 71.98,57.03 C 72.02,46.47 72.01,35.92 71.97,25.37 z"
       id="path50"
       style="opacity:1;fill:#cfc7c7" />
  </g>
  <g
     id="#d1ceceff">
    <path
       d="M 80.35,24.7 C 80.54,25.01 80.91,25.62 81.1,25.93 C 80.93,40.03 81.18,54.13 80.71,68.23 C 80.14,64.79 79.88,61.31 79.89,57.83 C 80.1,46.78 79.81,35.73 80.35,24.7 z"
       id="path53"
       style="opacity:1;fill:#d1cece" />
  </g>
  <g
     id="#ff6c6cff">
    <path
       d="M 14.76,35.3 C 18.13,32.58 20.96,29.29 24.01,26.23 C 29.68,29.26 33.67,34.54 39.19,37.82 L 38.75,38.57 C 38.54,38.92 38.12,39.6 37.92,39.94 C 37.34,40.8 36.96,41.74 36.77,42.75 C 36.19,46.17 35.94,49.65 35.93,53.12 C 27.7,48.66 21.12,42.02 14.76,35.3 z"
       id="path56"
       style="opacity:1;fill:#ff6c6c" />
  </g>
  <g
     id="#a58181ff">
    <path
       d="M 81.1,25.93 C 82.83,28.64 81.72,32.07 81.99,35.1 C 81.95,39.38 81.95,43.66 81.98,47.95 C 82.01,54.7 81.84,61.45 82.08,68.2 C 83.17,65.98 84.08,63.6 85.95,61.9 C 84.61,64.46 84.53,73.17 80.71,68.23 C 81.18,54.13 80.93,40.03 81.1,25.93 z"
       id="path59"
       style="opacity:1;fill:#a58181" />
  </g>
  <g
     id="#965d5dff">
    <path
       d="M 46.95,40.22 C 47.09,35.76 46.71,31.17 47.87,26.83 C 48.09,38.92 47.99,51.01 48.07,63.1 C 47.83,63.45 47.35,64.14 47.1,64.49 L 46.78,63.49 C 46.92,55.73 47.12,47.97 46.95,40.22 z"
       id="path62"
       style="opacity:1;fill:#965d5d" />
  </g>
  <g
     id="#fe6363ff">
    <path
       d="M 106.07,26.82 C 110.19,31.52 117.65,34.99 117.92,41.74 C 114.93,47.91 109.24,58.15 101.11,56.24 L 100.27,56.01 C 94.45,53.32 89.22,57.55 85.95,61.9 C 84.08,63.6 83.17,65.98 82.08,68.2 C 81.84,61.45 82.01,54.7 81.98,47.95 C 86.77,53 92.97,45.53 97.78,43.78 C 104.41,40.88 110.87,33.97 106.07,26.82 z"
       id="path65"
       style="opacity:1;fill:#fe6363" />
  </g>
  <g
     id="#fe5454ff">
    <path
       d="M 10.24,42.68 C 9.96,39.58 12.65,37.14 14.76,35.3 C 21.12,42.02 27.7,48.66 35.93,53.12 C 35.96,59.46 36.27,65.82 35.9,72.17 C 25.71,64.26 8.8,58.45 10.24,42.68 z"
       id="path68"
       style="opacity:1;fill:#fe5454" />
  </g>
  <g
     id="#00000016">
    <path
       d="M 4.32,39.31 C 5.23,38.01 6.35,36.64 8.12,37.07 L 7.83,37.84 C 7.44,38.79 7.06,39.74 6.71,40.71 C 2.86,51.27 7.81,63.02 5.18,74.04 C 0.5,91.41 17.06,100.34 26.75,111.25 C 31.79,115.44 35.41,122.44 42.42,123.58 C 56.22,124.38 70.09,124.09 83.89,123.88 C 93.43,120.82 99,111.58 106.24,105.24 C 112.27,98.48 121.94,92.98 121.61,82.62 C 121.62,69.76 123.78,56.3 120.25,43.73 C 120.1,41.8 120.02,39.85 119.94,37.91 C 122.51,37.61 122.68,40.67 123.63,42.37 C 124.49,55.56 123.76,68.8 124.04,82.01 C 125.83,91.65 117.27,98.23 111.25,104.25 C 100.44,113.87 91.04,130.34 74.01,127.02 C 59.04,125.56 39.85,132.26 29.21,117.79 C 19.83,105.66 1.5,97.38 2.05,80 C 2.84,66.49 -0.29,52.37 4.32,39.31 z"
       id="path71"
       style="opacity:0.08999999;fill:#000000" />
  </g>
  <g
     id="#f6ebebff">
    <path
       d="M 39.19,37.82 C 41.89,36.76 44.6,37.13 46.26,39.67 C 46.51,47.54 44.76,55.78 46.78,63.49 L 47.1,64.49 C 47.45,66.34 49.4,63.52 50.27,63.14 C 59.54,62.91 75.53,69.08 79.89,57.83 C 79.88,61.31 80.14,64.79 80.71,68.23 C 84.53,73.17 84.61,64.46 85.95,61.9 C 89.22,57.55 94.45,53.32 100.27,56.01 C 100.08,60.26 97.13,63.53 95.15,67.09 C 91.68,81.43 75.13,78.76 64,80.04 C 55.55,79.93 46.83,79.57 38.98,76.06 C 38.94,63.56 39.17,51.07 38.75,38.57 L 39.19,37.82 z"
       id="path74"
       style="opacity:1;fill:#f6ebeb" />
  </g>
  <g
     id="#471a1ac5">
    <path
       d="M 6.71,40.71 C 7.06,39.74 7.44,38.79 7.83,37.84 C 8.68,53.57 6.8,69.46 8.9,85.09 C 9.07,85.63 9.4,86.72 9.57,87.26 L 8.59,87.33 C 4.66,72.53 8.39,56.12 6.71,40.71 z"
       id="path77"
       style="opacity:0.76999996;fill:#471a1a" />
  </g>
  <g
     id="#3f0c0cab">
    <path
       d="M 118.99,38.08 L 119.94,37.91 C 120.02,39.85 120.1,41.8 120.25,43.73 C 119.28,57.49 121.25,71.48 119.05,85.1 L 119.04,84.16 C 118.93,68.8 119.05,53.44 118.99,38.08 z"
       id="path80"
       style="opacity:0.67000002;fill:#3f0c0c" />
  </g>
  <g
     id="#c7c0c0ff">
    <path
       d="M 37.92,39.94 C 38.12,39.6 38.54,38.92 38.75,38.57 C 39.17,51.07 38.94,63.56 38.98,76.06 C 38.98,79.79 38.93,83.53 38.77,87.26 C 37.03,71.56 38.48,55.7 37.92,39.94 z"
       id="path83"
       style="opacity:1;fill:#c7c0c0" />
  </g>
  <g
     id="#7e7676ff">
    <path
       d="M 36.77,42.75 C 36.96,41.74 37.34,40.8 37.92,39.94 C 38.48,55.7 37.03,71.56 38.77,87.26 C 39.61,91.17 41.83,94.62 43.78,98.07 L 42.7,98.28 C 40.54,95.01 38.68,91.55 37.28,87.9 C 36.62,72.86 37.37,57.79 36.77,42.75 z"
       id="path86"
       style="opacity:1;fill:#7e7676" />
  </g>
  <g
     id="#b9a9a9ff">
    <path
       d="M 46.26,39.67 L 46.95,40.22 C 47.12,47.97 46.92,55.73 46.78,63.49 C 44.76,55.78 46.51,47.54 46.26,39.67 z"
       id="path89"
       style="opacity:1;fill:#b9a9a9" />
  </g>
  <g
     id="#01000031">
    <path
       d="M 5.18,74.04 C 7.81,63.02 2.86,51.27 6.71,40.71 C 8.39,56.12 4.66,72.53 8.59,87.33 C 13.42,98.26 24.78,104.68 32.22,113.78 C 41.87,127.16 60.27,120.4 74,122.07 C 85.09,124.23 93.46,115.66 100.26,108.26 C 106.14,101.16 115.35,96.21 118.18,87 C 118.4,86.53 118.84,85.58 119.05,85.1 C 121.25,71.48 119.28,57.49 120.25,43.73 C 123.78,56.3 121.62,69.76 121.61,82.62 C 121.94,92.98 112.27,98.48 106.24,105.24 C 99,111.58 93.43,120.82 83.89,123.88 C 70.09,124.09 56.22,124.38 42.42,123.58 C 35.41,122.44 31.79,115.44 26.75,111.25 C 17.06,100.34 0.5,91.41 5.18,74.04 z"
       id="path92"
       style="opacity:0.18999999;fill:#010000" />
  </g>
  <g
     id="#f94e4eff">
    <path
       d="M 101.11,56.24 C 109.24,58.15 114.93,47.91 117.92,41.74 C 118.1,55.8 117.92,69.86 118.05,83.93 L 117.11,83.74 C 116.65,80.06 115.9,76.41 114.91,72.84 C 107.75,74.35 101.34,81.1 93.6,79.12 C 93.42,70.53 100.92,64.49 101.11,56.24 z"
       id="path95"
       style="opacity:1;fill:#f94e4e" />
  </g>
  <g
     id="#ed4343ff">
    <path
       d="M 10.24,42.68 C 8.8,58.45 25.71,64.26 35.9,72.17 C 36.27,65.82 35.96,59.46 35.93,53.12 C 35.94,49.65 36.19,46.17 36.77,42.75 C 37.37,57.79 36.62,72.86 37.28,87.9 C 36.5,88.79 35.79,90.58 34.31,89.64 C 26.7,86.05 19.93,80.85 13.48,75.49 C 11.69,71.44 11.17,66.84 9.97,62.54 C 9.99,55.92 9.99,49.29 10.24,42.68 z"
       id="path98"
       style="opacity:1;fill:#ed4343" />
  </g>
  <g
     id="#937878ff">
    <path
       d="M 100.27,56.01 L 101.11,56.24 C 100.92,64.49 93.42,70.53 93.6,79.12 C 93.07,80.07 92.53,81.03 92,81.98 C 92.57,76.93 94.05,72.04 95.15,67.09 C 97.13,63.53 100.08,60.26 100.27,56.01 z"
       id="path101"
       style="opacity:1;fill:#937878" />
  </g>
  <g
     id="#dd3737ff">
    <path
       d="M 8.9,85.09 C 8.86,77.56 8.73,69.99 9.97,62.54 C 11.17,66.84 11.69,71.44 13.48,75.49 C 19.93,80.85 26.7,86.05 34.31,89.64 C 35.79,90.58 36.5,88.79 37.28,87.9 C 38.68,91.55 40.54,95.01 42.7,98.28 C 51.1,110.05 67.84,102.53 79.64,103.39 C 87.46,103.35 95.91,103.65 102.13,98.08 C 96.85,103.87 91.05,109.16 85.78,114.96 C 70.59,115.85 55.11,113.45 40.06,115.91 C 29.92,107.07 21.2,96.68 10.82,88.16 C 10.5,87.93 9.88,87.48 9.57,87.26 C 9.4,86.72 9.07,85.63 8.9,85.09 z"
       id="path104"
       style="opacity:1;fill:#dd3737" />
  </g>
  <g
     id="#e6dadaff">
    <path
       d="M 64,80.04 C 75.13,78.76 91.68,81.43 95.15,67.09 C 94.05,72.04 92.57,76.93 92,81.98 C 89.37,86.2 86.89,90.57 85.27,95.29 C 82.68,97.7 80.36,100.52 77.2,102.21 C 68.39,102.04 59.57,101.78 50.77,102.23 C 48.12,101.48 46.07,99.5 43.78,98.07 C 41.83,94.62 39.61,91.17 38.77,87.26 C 38.93,83.53 38.98,79.79 38.98,76.06 C 46.83,79.57 55.55,79.93 64,80.04 z"
       id="path107"
       style="opacity:1;fill:#e6dada" />
  </g>
  <g
     id="#ea3f3fff">
    <path
       d="M 93.6,79.12 C 101.34,81.1 107.75,74.35 114.91,72.84 C 115.9,76.41 116.65,80.06 117.11,83.74 C 111.98,88.37 107.22,93.4 102.13,98.08 C 95.91,103.65 87.46,103.35 79.64,103.39 C 81.86,100.7 84.59,98.35 86.27,95.24 C 88.52,91 91.27,86.82 92,81.98 C 92.53,81.03 93.07,80.07 93.6,79.12 z"
       id="path110"
       style="opacity:1;fill:#ea3f3f" />
  </g>
  <g
     id="#887777ff">
    <path
       d="M 85.27,95.29 C 86.89,90.57 89.37,86.2 92,81.98 C 91.27,86.82 88.52,91 86.27,95.24 L 85.27,95.29 z"
       id="path113"
       style="opacity:1;fill:#887777" />
  </g>
  <g
     id="#860b0bfd">
    <path
       d="M 102.13,98.08 C 107.22,93.4 111.98,88.37 117.11,83.74 L 118.05,83.93 L 119.04,84.16 L 119.05,85.1 C 118.84,85.58 118.4,86.53 118.18,87 C 117.18,87.7 116.19,88.41 115.23,89.17 C 105.02,97.58 96.1,107.49 86.88,116.96 L 85.95,116.95 C 85.91,116.45 85.83,115.46 85.78,114.96 C 91.05,109.16 96.85,103.87 102.13,98.08 z"
       id="path116"
       style="opacity:1;fill:#860b0b" />
  </g>
  <g
     id="#01000051">
    <path
       d="M 8.59,87.33 L 9.57,87.26 C 9.88,87.48 10.5,87.93 10.82,88.16 C 19.28,98.94 29.77,108.01 39.39,117.73 C 55.21,118.26 71.08,118.07 86.91,117.92 C 96.86,108.97 106.78,99.59 115.23,89.17 C 116.19,88.41 117.18,87.7 118.18,87 C 115.35,96.21 106.14,101.16 100.26,108.26 C 93.46,115.66 85.09,124.23 74,122.07 C 60.27,120.4 41.87,127.16 32.22,113.78 C 24.78,104.68 13.42,98.26 8.59,87.33 z"
       id="path119"
       style="opacity:0.31999996;fill:#010000" />
  </g>
  <g
     id="#362121cd">
    <path
       d="M 10.82,88.16 C 21.2,96.68 29.92,107.07 40.06,115.91 C 54.88,118.43 70.73,116.36 85.95,116.95 L 86.88,116.96 L 86.91,117.92 C 71.08,118.07 55.21,118.26 39.39,117.73 C 29.77,108.01 19.28,98.94 10.82,88.16 z"
       id="path122"
       style="opacity:0.8;fill:#362121" />
  </g>
  <g
     id="#230d0db3">
    <path
       d="M 86.88,116.96 C 96.1,107.49 105.02,97.58 115.23,89.17 C 106.78,99.59 96.86,108.97 86.91,117.92 L 86.88,116.96 z"
       id="path125"
       style="opacity:0.7;fill:#230d0d" />
  </g>
  <g
     id="#614141ff">
    <path
       d="M 85.27,95.29 L 86.27,95.24 C 84.59,98.35 81.86,100.7 79.64,103.39 C 67.84,102.53 51.1,110.05 42.7,98.28 L 43.78,98.07 C 46.07,99.5 48.12,101.48 50.77,102.23 C 59.43,103.16 68.69,103.97 77.2,102.21 C 80.36,100.52 82.68,97.7 85.27,95.29 z"
       id="path128"
       style="opacity:1;fill:#614141" />
  </g>
  <g
     id="#9b9a9aff">
    <path
       d="M 50.77,102.23 C 59.57,101.78 68.39,102.04 77.2,102.21 C 68.69,103.97 59.43,103.16 50.77,102.23 z"
       id="path131"
       style="opacity:1;fill:#9b9a9a" />
  </g>
  <g
     id="#922424ff">
    <path
       d="M 40.06,115.91 C 55.11,113.45 70.59,115.85 85.78,114.96 C 85.83,115.46 85.91,116.45 85.95,116.95 C 70.73,116.36 54.88,118.43 40.06,115.91 z"
       id="path134"
       style="opacity:1;fill:#922424" />
  </g>
</svg>
