<?xml version="1.0" encoding="UTF-8" standalone="no"?>
<!-- Created with Inkscape (http://www.inkscape.org/) -->
<svg
   xmlns:svg="http://www.w3.org/2000/svg"
   xmlns="http://www.w3.org/2000/svg"
   version="1.0"
   width="168pt"
   height="168pt"
   viewBox="0 0 168 168"
   id="svg2">
  <defs
     id="defs134" />
  <g
     id="#16131142">
    <path
       d="M 72.44,0 L 73.39,0 C 73.16,1.2 72.86,2.39 72.52,3.57 C 59.48,16.12 50.34,31.84 38.01,45 C 31.94,60.78 64.05,57.17 56.23,72.98 C 42.82,78.6 29.7,85.17 16.11,90.16 C 8.54,101.5 10.28,120.43 20.79,130.24 C 34.79,139.62 48.84,148.93 63.12,157.84 C 67.26,160.94 74,162.53 75.46,168 L 72.44,168 C 72.06,166.4 71.6,164.71 69.94,164.02 C 52.7,153.78 36.04,142.7 19.27,131.72 C 11.86,126.61 8.13,117.98 9.9,109.01 C 10.9,102.48 7.3,91.64 15.11,88.16 C 25.67,85.23 34.89,78.9 45.57,76.41 C 49.55,73.94 59.29,72.61 55.34,65.72 C 48.06,61.37 37.29,59.71 35.09,49.89 C 35.26,38.97 48.14,34.54 52.21,25.16 C 57.13,15.37 67.24,9.25 72.44,0 z"
       id="path5"
       style="opacity:0.26000001;fill:#161311" />
  </g>
  <g
     id="#53382689">
    <path
       d="M 73.39,0 L 75.33,0 C 75.66,4.61 71.11,6.56 68.62,9.65 C 59.81,18.4 54.13,29.65 45.51,38.57 C 42.48,42.18 35.72,48.4 41.49,52.51 C 45.9,58.5 56.14,56.57 58.71,64.37 C 59.33,68.02 59.74,72.21 56.89,75.03 L 55.88,74.75 C 55.97,74.31 56.14,73.42 56.23,72.98 C 64.05,57.17 31.94,60.78 38.01,45 C 50.34,31.84 59.48,16.12 72.52,3.57 C 72.86,2.39 73.16,1.2 73.39,0 z"
       id="path8"
       style="opacity:0.54000005;fill:#533826" />
  </g>
  <g
     id="#975e38cc">
    <path
       d="M 75.33,0 L 78.31,0 C 77.89,1.61 78.22,3.67 76.67,4.74 C 63.5,15.83 55.29,31.26 43.85,43.92 C 37.21,53.31 51.51,55.21 57.68,58.36 C 62.15,62.89 61.41,70.45 59.05,76.03 C 58.5,76.22 57.41,76.61 56.86,76.8 C 56.87,76.36 56.88,75.47 56.89,75.03 C 59.74,72.21 59.33,68.02 58.71,64.37 C 56.14,56.57 45.9,58.5 41.49,52.51 C 35.72,48.4 42.48,42.18 45.51,38.57 C 54.13,29.65 59.81,18.4 68.62,9.65 C 71.11,6.56 75.66,4.61 75.33,0 z"
       id="path11"
       style="opacity:0.8;fill:#975e38" />
  </g>
  <g
     id="#ef8d4ffc">
    <path
       d="M 78.31,0 L 87.01,0 C 86.97,1.24 86.92,2.48 86.87,3.72 C 86,5.93 86.91,8.1 87.73,10.15 C 96.23,30.36 103.1,51.34 114.89,69.99 C 110.66,81.51 96.98,61.36 93.28,72.38 C 92.49,80.06 97.23,92.93 87.02,95.87 C 77.45,91.36 63.45,87.36 62.71,74.78 C 62.53,69.04 64.55,62.23 60.83,57.17 C 54.74,53.86 41.41,53.63 43.85,43.92 C 55.29,31.26 63.5,15.83 76.67,4.74 C 78.22,3.67 77.89,1.61 78.31,0 M 73.23,12.16 C 69.49,15.54 66.01,19.75 63.18,24 C 56.99,29.57 54.01,38.29 47.58,43.64 C 45.98,53.33 62.56,49.61 64.07,57.98 C 65.5,65.54 67.45,73.02 68.37,80.68 C 72.83,86.82 80.22,89.5 86.07,94 C 93.51,92.56 92.66,79.81 90.76,75.64 C 89.99,70 93.32,64.06 100.04,66.93 C 102.43,69.35 106.8,70.57 109.9,68.78 C 111.55,64.01 106.93,61.49 105.35,57.75 C 97.92,44 91.15,29.89 85.58,15.34 C 85.76,9.33 74.8,5.69 73.23,12.16 z"
       id="path14"
       style="opacity:1;fill:#ef8d4f" />
  </g>
  <g
     id="#825436cb">
    <path
       d="M 87.01,0 L 88.72,0 C 88.3,3.58 91.21,5.37 93.46,7.5 C 105.01,28.37 116.94,49.05 130.21,68.87 C 130.15,70.16 130.06,71.44 129.94,72.73 L 129.4,73.26 C 125.89,63.73 118.69,56 114.02,47 C 110.82,41.52 108.32,35.57 104.15,30.71 C 102.2,27.32 100.04,24.04 98.13,20.63 C 94.85,14.72 91.68,8.56 86.87,3.72 C 86.92,2.48 86.97,1.24 87.01,0 z"
       id="path17"
       style="opacity:0.8;fill:#825436" />
  </g>
  <g
     id="#39312c83">
    <path
       d="M 88.72,0 L 90.62,0 C 90.68,3.88 94.11,6 95.92,9.03 C 106.73,26.62 116.68,44.72 127.97,62.01 C 133.45,67.21 133.21,74.96 133.01,81.98 C 137.39,88.52 150.78,89.48 152.6,99.41 C 152.32,110.6 157.32,126.3 145.03,133.02 C 133.76,140.57 122.19,147.84 110.18,154.14 C 122.76,143.17 140.44,138.4 150.63,124.67 C 152.41,114.09 155.29,99.97 145.81,92.19 C 142.01,89.29 137.07,88.51 133.22,85.78 C 128.84,81.3 132.73,74.14 130.21,68.87 C 116.94,49.05 105.01,28.37 93.46,7.5 C 91.21,5.37 88.3,3.58 88.72,0 z"
       id="path20"
       style="opacity:0.51000001;fill:#39312c" />
  </g>
  <g
     id="#14141442">
    <path
       d="M 90.62,0 L 92.52,0 C 104.41,19.83 116.91,39.57 128.12,59.87 C 128.08,60.41 128,61.48 127.97,62.01 C 116.68,44.72 106.73,26.62 95.92,9.03 C 94.11,6 90.68,3.88 90.62,0 z"
       id="path23"
       style="opacity:0.26000001;fill:#141414" />
  </g>
  <g
     id="#e57933fe">
    <path
       d="M 86.87,3.72 C 91.68,8.56 94.85,14.72 98.13,20.63 C 97.99,21.18 97.71,22.28 97.57,22.83 C 104.92,36.6 105.44,53.46 116.62,65.32 C 121.49,69.89 114.72,73.12 114.1,77.19 C 114.05,77.61 113.93,78.45 113.87,78.87 C 111.47,78.01 108.61,76.18 106.31,78.27 C 102.07,82.23 104.6,88.93 104.28,94.1 C 102.44,95.33 100.69,96.67 98.96,98.05 L 99.18,97.17 C 104.83,91.43 101.72,82.93 104.9,76.09 C 103.03,73.8 97.51,67.56 95.25,72.36 C 94.71,81.42 97.25,92.5 89.6,99.42 C 79.18,93.51 56.53,92.22 62.71,74.78 C 63.45,87.36 77.45,91.36 87.02,95.87 C 97.23,92.93 92.49,80.06 93.28,72.38 C 96.98,61.36 110.66,81.51 114.89,69.99 C 103.1,51.34 96.23,30.36 87.73,10.15 C 86.91,8.1 86,5.93 86.87,3.72 z"
       id="path26"
       style="opacity:1;fill:#e57933" />
  </g>
  <g
     id="#feb383ff">
    <path
       d="M 73.23,12.16 C 74.8,5.69 85.76,9.33 85.58,15.34 C 91.15,29.89 97.92,44 105.35,57.75 C 106.93,61.49 111.55,64.01 109.9,68.78 C 106.8,70.57 102.43,69.35 100.04,66.93 C 90.06,58.38 80.23,49.05 68.33,42.64 C 62.97,38.25 56.81,50.87 52.89,44.03 C 59.26,35.76 62.56,25.42 69.96,17.89 C 68.32,22.53 64.78,26.76 64.96,31.89 C 69.65,31.78 74.48,31.09 78.88,33.17 C 86.97,37.57 89.56,50.44 98.08,53.06 C 94.08,39.88 86.97,27.54 82.54,14.4 C 81.04,10.47 75.72,9.87 73.17,13.11 L 73.23,12.16 z"
       id="path29"
       style="opacity:1;fill:#feb383" />
  </g>
  <g
     id="#fdc099ff">
    <path
       d="M 73.17,13.11 C 75.72,9.87 81.04,10.47 82.54,14.4 C 86.97,27.54 94.08,39.88 98.08,53.06 C 89.56,50.44 86.97,37.57 78.88,33.17 C 74.48,31.09 69.65,31.78 64.96,31.89 C 64.78,26.76 68.32,22.53 69.96,17.89 C 71.14,16.38 72.3,14.84 73.17,13.11 z"
       id="path32"
       style="opacity:1;fill:#fdc099" />
  </g>
  <g
     id="#fdab76ff">
    <path
       d="M 63.18,24 C 66.01,19.75 69.49,15.54 73.23,12.16 L 73.17,13.11 C 72.3,14.84 71.14,16.38 69.96,17.89 C 62.56,25.42 59.26,35.76 52.89,44.03 C 56.81,50.87 62.97,38.25 68.33,42.64 C 80.23,49.05 90.06,58.38 100.04,66.93 C 93.32,64.06 89.99,70 90.76,75.64 C 90.11,80.79 89.56,86.04 87.81,90.97 C 84.75,91.73 82.67,88.5 82.21,85.9 C 82.34,79.36 83.23,72.2 79.63,66.36 C 70.45,58.68 62.36,49.54 50.22,46.66 C 50.98,38.28 60.53,32.39 63.18,24 z"
       id="path35"
       style="opacity:1;fill:#fdab76" />
  </g>
  <g
     id="#d9661dfe">
    <path
       d="M 98.13,20.63 C 100.04,24.04 102.2,27.32 104.15,30.71 C 107.71,44.24 117.88,55.35 124.56,67.52 C 127.88,74.71 119.04,76.57 114.1,77.19 C 114.72,73.12 121.49,69.89 116.62,65.32 C 105.44,53.46 104.92,36.6 97.57,22.83 C 97.71,22.28 97.99,21.18 98.13,20.63 z"
       id="path38"
       style="opacity:1;fill:#d9661d" />
  </g>
  <g
     id="#fd9e61ff">
    <path
       d="M 47.58,43.64 C 54.01,38.29 56.99,29.57 63.18,24 C 60.53,32.39 50.98,38.28 50.22,46.66 C 62.36,49.54 70.45,58.68 79.63,66.36 C 83.23,72.2 82.34,79.36 82.21,85.9 C 82.67,88.5 84.75,91.73 87.81,90.97 C 89.56,86.04 90.11,80.79 90.76,75.64 C 92.66,79.81 93.51,92.56 86.07,94 C 80.22,89.5 72.83,86.82 68.37,80.68 C 67.45,73.02 65.5,65.54 64.07,57.98 C 62.56,49.61 45.98,53.33 47.58,43.64 z"
       id="path41"
       style="opacity:1;fill:#fd9e61" />
  </g>
  <g
     id="#b0612cf7">
    <path
       d="M 104.15,30.71 C 108.32,35.57 110.82,41.52 114.02,47 C 118.69,56 125.89,63.73 129.4,73.26 C 125.78,77.07 121.81,81.43 115.83,80.29 C 115.34,79.93 114.36,79.22 113.87,78.87 C 113.93,78.45 114.05,77.61 114.1,77.19 C 119.04,76.57 127.88,74.71 124.56,67.52 C 117.88,55.35 107.71,44.24 104.15,30.71 z"
       id="path44"
       style="opacity:0.97000002;fill:#b0612c" />
  </g>
  <g
     id="#c37139fa">
    <path
       d="M 57.68,58.36 C 51.51,55.21 37.21,53.31 43.85,43.92 C 41.41,53.63 54.74,53.86 60.83,57.17 C 64.55,62.23 62.53,69.04 62.71,74.78 C 56.53,92.22 79.18,93.51 89.6,99.42 C 92.99,100.88 96.25,98.67 99.18,97.17 L 98.96,98.05 C 97.07,100.22 95.11,102.34 93.13,104.43 C 83.67,101.68 75.22,96.39 66.06,92.87 C 59.06,90 58.38,82.53 59.05,76.03 C 61.41,70.45 62.15,62.89 57.68,58.36 z"
       id="path47"
       style="opacity:0.98000004;fill:#c37139" />
  </g>
  <g
     id="#07070725">
    <path
       d="M 128.12,59.87 C 133.27,64.82 138.79,71.6 136.52,79.24 C 136.85,84.43 144.15,83.74 146.95,87.06 C 158.07,92.28 157.96,106.7 156.94,116.99 C 157.52,126.75 150.35,136.18 140.82,138 C 147.07,133.68 155.43,129.07 153.93,119.99 C 152.98,110.63 157.64,97.92 148.99,91 C 144.34,86.94 138.34,84.94 133.01,81.98 C 133.21,74.96 133.45,67.21 127.97,62.01 C 128,61.48 128.08,60.41 128.12,59.87 z"
       id="path50"
       style="opacity:0.15;fill:#070707" />
  </g>
  <g
     id="#4f4d4cb8">
    <path
       d="M 130.21,68.87 C 132.73,74.14 128.84,81.3 133.22,85.78 C 137.07,88.51 142.01,89.29 145.81,92.19 C 155.29,99.97 152.41,114.09 150.63,124.67 C 140.44,138.4 122.76,143.17 110.18,154.14 C 103.28,158.57 93.57,160.57 89.52,168 L 87.58,168 C 88.53,166.22 89.1,164.05 90.77,162.79 C 108.79,153.82 124.82,141.24 142.38,131.45 C 153.12,125.15 149.85,111.5 149.98,101.01 C 150.07,98.57 147.57,97.37 146.17,95.75 C 144.29,93.91 142.47,91.93 139.92,91.04 C 136.49,89.24 132.32,88.35 129.89,85.11 C 129.04,81.02 129.39,76.84 129.94,72.73 C 130.06,71.44 130.15,70.16 130.21,68.87 z"
       id="path53"
       style="opacity:0.72000002;fill:#4f4d4c" />
  </g>
  <g
     id="#d96115ff">
    <path
       d="M 95.25,72.36 C 97.51,67.56 103.03,73.8 104.9,76.09 C 101.72,82.93 104.83,91.43 99.18,97.17 C 96.25,98.67 92.99,100.88 89.6,99.42 C 97.25,92.5 94.71,81.42 95.25,72.36 z"
       id="path56"
       style="opacity:1;fill:#d96115" />
  </g>
  <g
     id="#30302f7e">
    <path
       d="M 16.11,90.16 C 29.7,85.17 42.82,78.6 56.23,72.98 C 56.14,73.42 55.97,74.31 55.88,74.75 C 49.03,79.71 40.03,80.16 33.13,85.16 C 27.41,89.84 17.43,87.69 14.36,95.44 C 13.75,106.87 12.2,120.71 21.76,129.27 C 39.31,140.78 57.01,152 74.78,163.17 C 76.7,164.18 78.19,165.75 78.46,168 L 75.46,168 C 74,162.53 67.26,160.94 63.12,157.84 C 48.84,148.93 34.79,139.62 20.79,130.24 C 10.28,120.43 8.54,101.5 16.11,90.16 z"
       id="path59"
       style="opacity:0.48999999;fill:#30302f" />
  </g>
  <g
     id="#8a6e59f9">
    <path
       d="M 129.4,73.26 L 129.94,72.73 C 129.39,76.84 129.04,81.02 129.89,85.11 C 127.51,81.7 122.55,83.51 119,82.52 C 117.91,81.81 116.86,81.07 115.83,80.29 C 121.81,81.43 125.78,77.07 129.4,73.26 z"
       id="path62"
       style="opacity:0.98000004;fill:#8a6e59" />
  </g>
  <g
     id="#575655b3">
    <path
       d="M 33.13,85.16 C 40.03,80.16 49.03,79.71 55.88,74.75 L 56.89,75.03 C 56.88,75.47 56.87,76.36 56.86,76.8 C 43.59,82.36 29.5,86.97 17.2,94.18 C 14.08,105.63 14.04,122.86 25.99,130.02 C 43.51,139.91 59.48,152.53 77.04,162.16 L 77.79,162.43 C 78.13,162.56 78.8,162.8 79.14,162.93 C 80.04,164.56 80.8,166.26 81.47,168 L 78.46,168 C 78.19,165.75 76.7,164.18 74.78,163.17 C 57.01,152 39.31,140.78 21.76,129.27 C 12.2,120.71 13.75,106.87 14.36,95.44 C 17.43,87.69 27.41,89.84 33.13,85.16 z"
       id="path65"
       style="opacity:0.7;fill:#575655" />
  </g>
  <g
     id="#9e7455fe">
    <path
       d="M 56.86,76.8 C 57.41,76.61 58.5,76.22 59.05,76.03 C 58.38,82.53 59.06,90 66.06,92.87 C 75.22,96.39 83.67,101.68 93.13,104.43 L 93.06,105.36 C 87.04,106.66 81.64,102.49 76.13,100.66 C 69.77,97.01 59.96,96.07 57.38,88.13 C 57.65,84.94 58.39,81.67 57.3,78.56 C 57.19,78.12 56.97,77.24 56.86,76.8 z"
       id="path68"
       style="opacity:1;fill:#9e7455" />
  </g>
  <g
     id="#848483dd">
    <path
       d="M 17.2,94.18 C 29.5,86.97 43.59,82.36 56.86,76.8 C 56.97,77.24 57.19,78.12 57.3,78.56 C 48.68,82.79 38.96,84.12 30.9,89.81 C 26.43,92.16 20.68,92.35 17.16,96.29 C 17.91,106.75 15.96,119.56 25.12,126.86 C 41.15,135.96 55.53,147.7 71.85,156.28 C 72.55,157.23 73.27,158.16 74.09,159.02 C 74.95,159.84 75.89,160.59 76.81,161.36 L 77.04,162.16 C 59.48,152.53 43.51,139.91 25.99,130.02 C 14.04,122.86 14.08,105.63 17.2,94.18 z"
       id="path71"
       style="opacity:0.87000002;fill:#848483" />
  </g>
  <g
     id="#c8906bff">
    <path
       d="M 106.31,78.27 C 108.61,76.18 111.47,78.01 113.87,78.87 C 114.36,79.22 115.34,79.93 115.83,80.29 C 116.86,81.07 117.91,81.81 119,82.52 C 118.66,82.7 117.99,83.06 117.66,83.24 C 115.88,82.79 114.1,82.29 112.33,81.81 C 104.1,75.63 104.51,88.75 104.28,94.1 C 104.6,88.93 102.07,82.23 106.31,78.27 z"
       id="path74"
       style="opacity:1;fill:#c8906b" />
  </g>
  <g
     id="#b2b2b2fa">
    <path
       d="M 30.9,89.81 C 38.96,84.12 48.68,82.79 57.3,78.56 C 60.18,92.34 40.47,85.7 38,96.01 C 38.78,99.8 43.29,99.33 45.92,101.13 C 56.6,107.66 68.07,113.27 80.01,116.99 C 86.12,114.93 90.52,108.53 95.9,104.93 C 96.18,104.7 96.72,104.23 97,103.99 C 98.31,103.62 99.63,103.26 100.95,102.9 C 102.47,111.49 91.05,113.27 86.01,118 C 83.4,120.25 79.55,120.64 76.35,119.62 C 63.33,112.65 50.15,105.94 37.25,98.77 C 34.74,96.52 38.32,92.02 34.8,90.14 C 30.39,91.36 26.29,93.73 21.8,94.86 C 19.49,95.26 17.54,97.79 19,99.97 C 22.71,107.03 18.77,116 23.37,122.64 C 32.31,128.37 40.86,134.71 49.95,140.2 C 56.74,145.96 67.1,148.78 71.85,156.28 C 55.53,147.7 41.15,135.96 25.12,126.86 C 15.96,119.56 17.91,106.75 17.16,96.29 C 20.68,92.35 26.43,92.16 30.9,89.81 z"
       id="path77"
       style="opacity:0.98000004;fill:#b2b2b2" />
  </g>
  <g
     id="#959494ff">
    <path
       d="M 57.3,78.56 C 58.39,81.67 57.65,84.94 57.38,88.13 C 53.4,91.71 40.8,89.99 42.02,97.81 C 51.03,100.7 58.45,108.96 68.71,106.87 C 70.03,103.53 72.21,100.73 76.13,100.66 C 81.64,102.49 87.04,106.66 93.06,105.36 C 93.77,105.26 95.19,105.04 95.9,104.93 C 90.52,108.53 86.12,114.93 80.01,116.99 C 68.07,113.27 56.6,107.66 45.92,101.13 C 43.29,99.33 38.78,99.8 38,96.01 C 40.47,85.7 60.18,92.34 57.3,78.56 z"
       id="path80"
       style="opacity:1;fill:#959494" />
  </g>
  <g
     id="#d8b39eff">
    <path
       d="M 104.28,94.1 C 104.51,88.75 104.1,75.63 112.33,81.81 L 111.87,82.85 C 111.37,82.9 110.39,83.01 109.89,83.06 C 109.33,81.14 106.35,81.55 106.72,83.67 C 106.42,90.42 106.8,98.27 100.95,102.9 C 99.63,103.26 98.31,103.62 97,103.99 C 99.46,100.77 103.59,98.37 104.28,94.1 z"
       id="path83"
       style="opacity:1;fill:#d8b39e" />
  </g>
  <g
     id="#d5c2bbff">
    <path
       d="M 106.72,83.67 C 106.35,81.55 109.33,81.14 109.89,83.06 C 108.85,83.36 107.8,83.56 106.72,83.67 z"
       id="path86"
       style="opacity:1;fill:#d5c2bb" />
  </g>
  <g
     id="#aeadacfe">
    <path
       d="M 112.33,81.81 C 114.1,82.29 115.88,82.79 117.66,83.24 C 124.43,84.87 130.34,88.6 136.62,91.42 C 138.9,92.98 141.69,95.17 139.79,98.61 C 122.41,108.1 105.63,118.72 88.34,128.41 C 74.91,134.2 92.52,160.35 74.09,159.02 C 73.27,158.16 72.55,157.23 71.85,156.28 C 74.24,157.61 78.22,158.84 79.39,155.36 C 80.66,148.48 79.46,141.24 80.28,134.27 C 83.05,127.97 90.15,126.25 94.93,121.95 C 96.54,122.18 98.07,121.43 98.96,120.1 C 112.39,112.82 126.11,104.99 138.25,95.97 C 131.65,88.39 120.85,86.67 111.87,82.85 L 112.33,81.81 z"
       id="path89"
       style="opacity:1;fill:#aeadac" />
  </g>
  <g
     id="#908f8efb">
    <path
       d="M 119,82.52 C 122.55,83.51 127.51,81.7 129.89,85.11 C 132.32,88.35 136.49,89.24 139.92,91.04 C 140.71,91.95 141.5,92.86 142.29,93.78 C 144.98,100.62 136.41,102.41 132.05,105.11 C 117.11,115.63 99.98,122.63 85.13,133.24 C 83.39,141.71 90.37,160.12 76.81,161.36 C 75.89,160.59 74.95,159.84 74.09,159.02 C 92.52,160.35 74.91,134.2 88.34,128.41 C 105.63,118.72 122.41,108.1 139.79,98.61 C 141.69,95.17 138.9,92.98 136.62,91.42 C 130.34,88.6 124.43,84.87 117.66,83.24 C 117.99,83.06 118.66,82.7 119,82.52 z"
       id="path92"
       style="opacity:1;fill:#908f8e" />
  </g>
  <g
     id="#1817174b">
    <path
       d="M 133.01,81.98 C 138.34,84.94 144.34,86.94 148.99,91 C 157.64,97.92 152.98,110.63 153.93,119.99 C 155.43,129.07 147.07,133.68 140.82,138 C 126.07,147.2 111.37,156.56 96.34,165.29 C 96.15,165.97 95.78,167.32 95.59,168 L 92.55,168 C 94.85,160.26 106.3,160.63 110.18,154.14 C 122.19,147.84 133.76,140.57 145.03,133.02 C 157.32,126.3 152.32,110.6 152.6,99.41 C 150.78,89.48 137.39,88.52 133.01,81.98 z"
       id="path95"
       style="opacity:0.28999999;fill:#181717" />
  </g>
  <g
     id="#d8d8d8ff">
    <path
       d="M 106.72,83.67 C 107.8,83.56 108.85,83.36 109.89,83.06 C 117.68,88.52 130.1,87.92 134.97,96.9 C 123,104.58 109.62,110.58 98.96,120.1 C 97.26,119.41 95.4,120.1 94.93,121.95 C 90.15,126.25 83.05,127.97 80.28,134.27 C 79.46,141.24 80.66,148.48 79.39,155.36 C 78.22,158.84 74.24,157.61 71.85,156.28 C 67.1,148.78 56.74,145.96 49.95,140.2 C 42.43,131.35 29.94,127.19 22.99,117.94 C 22.29,112.86 26.66,111.2 30.78,112.82 C 35.02,105.63 16.9,103.49 21.8,94.86 C 26.29,93.73 30.39,91.36 34.8,90.14 C 38.32,92.02 34.74,96.52 37.25,98.77 C 50.15,105.94 63.33,112.65 76.35,119.62 C 79.55,120.64 83.4,120.25 86.01,118 C 91.05,113.27 102.47,111.49 100.95,102.9 C 106.8,98.27 106.42,90.42 106.72,83.67 M 107.08,84.97 C 106.87,91.24 106.92,97.52 106.56,103.78 C 106.89,105.6 106.84,109.91 109.71,108.72 C 115.35,105.24 120.65,101.05 127.12,99.19 C 129.28,98.72 132.69,96.16 129.81,94.19 C 123.42,89.25 114.52,87.47 107.08,84.97 M 27.38,94.4 C 24.38,94.56 21.86,96.54 23.13,99.75 C 27.15,101.11 31.18,102.73 34.23,105.78 C 41.84,113.7 54.01,116.6 59.92,126.01 C 57.73,132.48 45.15,124.7 44.31,130.74 C 52.55,141.37 66.24,147.69 76.01,156.03 C 82.67,153.43 77.53,141.36 78.36,135.68 C 79,127.11 87.48,125.12 92.15,120.02 C 86.82,119.12 82.77,124.63 77.36,122.68 C 64.44,115.18 50.99,108.32 38,101.01 C 31.6,101.77 34.72,90.41 27.38,94.4 z"
       id="path98"
       style="opacity:1;fill:#d8d8d8" />
  </g>
  <g
     id="#c4c4c3ff">
    <path
       d="M 109.89,83.06 C 110.39,83.01 111.37,82.9 111.87,82.85 C 120.85,86.67 131.65,88.39 138.25,95.97 C 126.11,104.99 112.39,112.82 98.96,120.1 C 109.62,110.58 123,104.58 134.97,96.9 C 130.1,87.92 117.68,88.52 109.89,83.06 z"
       id="path101"
       style="opacity:1;fill:#c4c4c3" />
  </g>
  <g
     id="#e7e8e9ff">
    <path
       d="M 107.08,84.97 C 114.52,87.47 123.42,89.25 129.81,94.19 C 132.69,96.16 129.28,98.72 127.12,99.19 C 120.65,101.05 115.35,105.24 109.71,108.72 C 106.84,109.91 106.89,105.6 106.56,103.78 C 106.92,97.52 106.87,91.24 107.08,84.97 z"
       id="path104"
       style="opacity:1;fill:#e7e8e9" />
  </g>
  <g
     id="#787777ff">
    <path
       d="M 57.38,88.13 C 59.96,96.07 69.77,97.01 76.13,100.66 C 72.21,100.73 70.03,103.53 68.71,106.87 C 58.45,108.96 51.03,100.7 42.02,97.81 C 40.8,89.99 53.4,91.71 57.38,88.13 z"
       id="path107"
       style="opacity:1;fill:#787777" />
  </g>
  <g
     id="#6b6b6afb">
    <path
       d="M 139.92,91.04 C 142.47,91.93 144.29,93.91 146.17,95.75 C 148.35,101.84 147.79,108.37 147.37,114.68 C 149.92,123.67 141.63,131.86 133.38,133.53 C 118.38,143.45 103.52,155.6 86.28,162.31 C 84.38,164.47 81.53,163.16 79.14,162.93 C 78.8,162.8 78.13,162.56 77.79,162.43 C 82.72,163.09 85.05,159.12 87.35,155.4 C 104.87,147.05 120.55,134.87 135.62,122.62 C 141.02,118.95 141.41,112.23 140.3,106.29 C 142.77,102.55 147.98,97.36 142.29,93.78 C 141.5,92.86 140.71,91.95 139.92,91.04 z"
       id="path110"
       style="opacity:1;fill:#6b6b6a" />
  </g>
  <g
     id="#efeeeeff">
    <path
       d="M 27.38,94.4 C 34.72,90.41 31.6,101.77 38,101.01 C 50.99,108.32 64.44,115.18 77.36,122.68 C 82.77,124.63 86.82,119.12 92.15,120.02 C 87.48,125.12 79,127.11 78.36,135.68 C 77.53,141.36 82.67,153.43 76.01,156.03 C 66.24,147.69 52.55,141.37 44.31,130.74 C 45.15,124.7 57.73,132.48 59.92,126.01 C 54.01,116.6 41.84,113.7 34.23,105.78 C 31.18,102.73 27.15,101.11 23.13,99.75 C 21.86,96.54 24.38,94.56 27.38,94.4 z"
       id="path113"
       style="opacity:1;fill:#efeeee" />
  </g>
  <g
     id="#cf926aff">
    <path
       d="M 98.96,98.05 C 100.69,96.67 102.44,95.33 104.28,94.1 C 103.59,98.37 99.46,100.77 97,103.99 C 96.72,104.23 96.18,104.7 95.9,104.93 C 95.19,105.04 93.77,105.26 93.06,105.36 L 93.13,104.43 C 95.11,102.34 97.07,100.22 98.96,98.05 z"
       id="path116"
       style="opacity:1;fill:#cf926a" />
  </g>
  <g
     id="#797878ff">
    <path
       d="M 142.29,93.78 C 147.98,97.36 142.77,102.55 140.3,106.29 C 141.41,112.23 141.02,118.95 135.62,122.62 C 120.55,134.87 104.87,147.05 87.35,155.4 C 85.05,159.12 82.72,163.09 77.79,162.43 L 77.04,162.16 L 76.81,161.36 C 90.37,160.12 83.39,141.71 85.13,133.24 C 99.98,122.63 117.11,115.63 132.05,105.11 C 136.41,102.41 144.98,100.62 142.29,93.78 z"
       id="path119"
       style="opacity:1;fill:#797878" />
  </g>
  <g
     id="#cacacafe">
    <path
       d="M 19,99.97 C 17.54,97.79 19.49,95.26 21.8,94.86 C 16.9,103.49 35.02,105.63 30.78,112.82 C 26.66,111.2 22.29,112.86 22.99,117.94 C 29.94,127.19 42.43,131.35 49.95,140.2 C 40.86,134.71 32.31,128.37 23.37,122.64 C 18.77,116 22.71,107.03 19,99.97 z"
       id="path122"
       style="opacity:1;fill:#cacaca" />
  </g>
  <g
     id="#61605ee7">
    <path
       d="M 146.17,95.75 C 147.57,97.37 150.07,98.57 149.98,101.01 C 149.85,111.5 153.12,125.15 142.38,131.45 C 124.82,141.24 108.79,153.82 90.77,162.79 C 89.1,164.05 88.53,166.22 87.58,168 L 81.47,168 C 80.8,166.26 80.04,164.56 79.14,162.93 C 81.53,163.16 84.38,164.47 86.28,162.31 C 103.52,155.6 118.38,143.45 133.38,133.53 C 141.63,131.86 149.92,123.67 147.37,114.68 C 147.79,108.37 148.35,101.84 146.17,95.75 z"
       id="path125"
       style="opacity:0.91000001;fill:#61605e" />
  </g>
  <g
     id="#c6c6c6ff">
    <path
       d="M 94.93,121.95 C 95.4,120.1 97.26,119.41 98.96,120.1 C 98.07,121.43 96.54,122.18 94.93,121.95 z"
       id="path128"
       style="opacity:1;fill:#c6c6c6" />
  </g>
  <g
     id="#32313086">
    <path
       d="M 89.52,168 C 93.57,160.57 103.28,158.57 110.18,154.14 C 106.3,160.63 94.85,160.26 92.55,168 L 89.52,168 z"
       id="path131"
       style="opacity:0.52999998;fill:#323130" />
  </g>
</svg>
