<svg width="160" xmlns="http://www.w3.org/2000/svg" height="160" viewBox="0 0 128 128">
<path opacity=".95" fill="#9d9b9c" d="m35.64,33.86c2.24-2.1 5.88-2.74 8.66-1.2-.11,.83-.33,2.5-.44,3.33-2.61-.02-5.23-.06-7.84-.12-.09-.51-.28-1.51-.38-2.01z"/>
<path opacity=".62" fill="#6b6a6a" d="m83.77,32.52c1.97-1.45 4.07-1.42 6.29,.1-2.02,.88-4.3,.83-6.29-.1z"/>
<path opacity=".94" fill="#464445" d="m44.3,32.66c3.46,1.22 5.19,5.02 4.62,8.51-1.3-2.07-3.1-3.74-5.06-5.18 .11-.83 .33-2.5 .44-3.33z"/>
<path opacity=".97" fill="#454344" d="m78.39,37.99c1.09-2.02 2.58-3.86 4.61-4.98 .66,1.06 1.33,2.13 2.04,3.16-2.06,.97-3.97,2.2-5.73,3.64-.23-.45-.69-1.36-.92-1.82z"/>
<g fill="#a6a4a5">
<path d="m83,33.01l.77-.49c1.99,.93 4.27,.98 6.29,.1 1.09,1.02 2.13,2.11 3.08,3.26-.46,.08-1.37,.24-1.83,.32-2.09-.02-4.18-.06-6.27-.03-.71-1.03-1.38-2.1-2.04-3.16z"/>
<path d="m63.17,62.98c-6.34-.72-5.56-10.34 .83-10.02 6.42-.34 7.13,9.11 .87,10.02-.43,0-1.28,0-1.7,0z"/>
</g>
<path fill="#676565" d="m33.68,36.67c.6-.97 1.22-1.94 1.96-2.81 .1,.5 .29,1.5 .38,2.01 .37,1.97 3.53,.76 5.04,1.43-4.58,.44-4.03,6.14-5.05,9.49 3.2,1.28 9.35,.42 7.99,5.35-3.25-1.52-5.97-4.04-9.97-3.38-.06-4.14 4.24-9.27-.35-12.09z"/>
<path fill="#0d0d0d" d="m36.02,35.87c2.61,.06 5.23,.1 7.84,.12 1.96,1.44 3.76,3.11 5.06,5.18-.01,.52-.04,1.56-.05,2.07-2.66-1.88-4.86-4.63-7.81-5.94-1.51-.67-4.67,.54-5.04-1.43z"/>
<path fill="#0a0a0a" d="m85.04,36.17c2.09-.03 4.18,.01 6.27,.03-1.45,.36-2.91,.69-4.36,1.05-3.2,.97-5.28,3.91-7.88,5.86 .06-.82 .18-2.47 .24-3.3 1.76-1.44 3.67-2.67 5.73-3.64z"/>
<path fill="#696868" d="m91.31,36.2c.46-.08 1.37-.24 1.83-.32-1.59,4.28-.2,8.67 .84,12.88-5.28-.87-8.91,2.92-13.03,5.3 2.33-4.28 6.47-6.34 11-7.3-.62-3.47-.9-8.54-5-9.51 1.45-.36 2.91-.69 4.36-1.05z"/>
<path fill="#949293" d="m93.14,35.88c2.04,2.43 4.1,4.97 4.87,8.12 .4,5.15 4.52,8.09 6.39,1.75 1.38,.35 2.69,.91 3.88,1.71-4.32-.03-5.12,4.56-6.41,7.7-1.63-3.28-3.82-6.37-7.89-6.4-1.04-4.21-2.43-8.6-.84-12.88z"/>
<path fill="#949192" d="m29.21,44.19c1.21-2.67 2.87-5.08 4.47-7.52 4.59,2.82 .29,7.95 .35,12.09-2.72,.37-5.16,1.7-7.19,3.49 .86-2.66 1.67-5.34 2.37-8.06z"/>
<path fill="#393839" d="m41.06,37.3c2.95,1.31 5.15,4.06 7.81,5.94 4.45,8.86 12.27-1.13 19.02,2.34 .54,3.89-.49,5.22-3.88,2.61-3.01,4.36-10.52,4.65-10.79,10.73 2.12,2.9 5.34,4.65 8.95,4.08-.56,6.52 .98,18.43-7.86,20.39-2.83-.12-5.65-.23-8.48-.3-1.09-1.6-.33-2.96 .95-4.11 3.79,4.53 10.46,.29 9.39-5.03-1.44-2.56-4.51-3.05-7.18-2.84-4.99-8.45-13.13-14.43-22.75-15.8 .2-1.02 .4-2.04 .6-3.06 2.03-1.79 4.47-3.12 7.19-3.49 4-.66 6.72,1.86 9.97,3.38 1.36-4.93-4.79-4.07-7.99-5.35 1.02-3.35 .47-9.05 5.05-9.49z"/>
<path fill="#3b3a3b" d="m79.07,43.11c2.6-1.95 4.68-4.89 7.88-5.86 4.1,.97 4.38,6.04 5,9.51-4.53,.96-8.67,3.02-11,7.3 4.12-2.38 7.75-6.17 13.03-5.3 4.07,.03 6.26,3.12 7.89,6.4 .97,2 3.36,1.8 5.2,2.22-3.6,.97-7.82,.67-11.04,2.81 .4,3.01-.29,8.61 4.15,8.06-4.51,1.23-8.72,3.39-12,6.76-.19-2.1-.63-4.17-1.36-6.15-3.41,2.89-3.14,8.27-2.24,12.34-.11,.51-.33,1.52-.44,2.03-3.14-.03-6.27-.03-9.4,.01-10.23-.72-8.91-12.95-8.86-20.24 6.09,1.59 9.97-7.2 4.09-10.07 1.2-1.68 2.61-3.2 3.88-4.84 1.26-1.48 2.67-2.81 4.13-4.09 .28-.22 .82-.67 1.09-.89m-5.35,28.6c-1.67,.75-4.09,5.16-2.15,4.99 .33,5.4 9.48,5.47 9.78,.05 2.11-.8-4.01-10.03-7.63-5.04z"/>
<path opacity=".4" fill="#232223" d="m77.98,44c.11-1.5 .31-4.5 .41-6.01 .23,.46 .69,1.37 .92,1.82-.06,.83-.18,2.48-.24,3.3-.27,.22-.81,.67-1.09,.89z"/>
<path opacity=".96" fill="#4e4d4e" d="m22.69,45.79c2.17-.56 4.34-1.1 6.52-1.6-.7,2.72-1.51,5.4-2.37,8.06-1.97-1.74-3.13-4.09-4.15-6.46z"/>
<path opacity=".97" fill="#656464" d="m98.01,44c2.12,.6 4.25,1.18 6.39,1.75-1.87,6.34-5.99,3.4-6.39-1.75z"/>
<path opacity=".98" fill="#7c7a7b" d="m18.93,47.62c1.16-.77 2.43-1.41 3.76-1.83 1.02,2.37 2.18,4.72 4.15,6.46-.2,1.02-.4,2.04-.6,3.06-.97,.79-2,1.52-3.29,1.65-1.59-2.68 .02-8.65-4.02-9.34z"/>
<path fill="#5a5a5c" d="m64.01,48.19c3.39,2.61 4.42,1.28 3.88-2.61 2.01,.78 3.95,1.73 5.96,2.51-1.27,1.64-2.68,3.16-3.88,4.84 5.88,2.87 2,11.66-4.09,10.07l-1.01-.02c6.26-.91 5.55-10.36-.87-10.02-6.39-.32-7.17,9.3-.83,10.02l-1,.02c-3.61,.57-6.83-1.18-8.95-4.08 .27-6.08 7.78-6.37 10.79-10.73z"/>
<path fill="#b0aeaf" d="m10.72,59.73c1.4-4.82 4.02-9.16 8.21-12.11 4.04,.69 2.43,6.66 4.02,9.34l-.99,.23c-1.33,.25-2.64,.61-3.93,1.03-2.33,.95-4.78,1.53-7.31,1.51z"/>
<path fill="#b9b7b8" d="m101.87,55.16c1.29-3.14 2.09-7.73 6.41-7.7 5.83,3.06 7.62,9.65 9.97,15.32-6.84-4.59-1.45,2.29-1.26,6.32-1.89-.57-3.8-1.09-5.75-1.34-7.11,1.99-8.26-3.66-8.28-8.76 3.45-.15 6.85,.49 10.27,.88-1.8-1.37-3.93-2.19-6.16-2.5-1.84-.42-4.23-.22-5.2-2.22z"/>
<path fill="#2a292a" d="m26.24,55.31c9.62,1.37 17.76,7.35 22.75,15.8-1.8,1.98-4,4.25-2.41,7.07l.2,.8c-1.28,1.15-2.04,2.51-.95,4.11-.48,.05-1.45,.14-1.93,.19-.09-.32-.28-.96-.37-1.28 1.84-2.66-.24-12.97-3.91-6.95-3.73-2.56 .85-4.77 2.14-7.22-.33-3.58-4.34-4.97-6.8-6.88-6.44,.95 3.16,11.03-3.84,8.1-.45-5.47-1.86-12.57-9.16-11.86l.99-.23c1.29-.13 2.32-.86 3.29-1.65z"/>
<path fill="#4f4d4e" d="m18.03,58.22c1.29-.42 2.6-.78 3.93-1.03 7.3-.71 8.71,6.39 9.16,11.86-1.1-.23-2.2-.46-3.3-.69 .57-.13 1.72-.38 2.29-.5-3.52-3.75-7.89-6.68-12.08-9.64z"/>
<path fill="#8d8b8c" d="m107.07,57.38c2.23,.31 4.36,1.13 6.16,2.5-3.42-.39-6.82-1.03-10.27-.88 .02,5.1 1.17,10.75 8.28,8.76-3.7,.08-7.38,.18-11.06,.49-4.44,.55-3.75-5.05-4.15-8.06 3.22-2.14 7.44-1.84 11.04-2.81z"/>
<path fill="#807f7f" d="m10.72,59.73c2.53,.02 4.98-.56 7.31-1.51 4.19,2.96 8.56,5.89 12.08,9.64-.57,.12-1.72,.37-2.29,.5-4.02-.27-8.03-.48-12.05-.62 3.09-.46 6.22-.66 9.34-.87-2.85-1.43-5.28-3.61-8.22-4.85-4.22-1-5.27,4.05-5.82,7.11-.91,.39-1.83,.78-2.75,1.16 .03-1.86 .1-3.72-.04-5.57 .75-1.69 1.57-3.35 2.44-4.99z"/>
<path opacity=".98" fill="#151415" d="m31.12,69.05c7,2.93-2.6-7.15 3.84-8.1 2.46,1.91 6.47,3.3 6.8,6.88-1.29,2.45-5.87,4.66-2.14,7.22 1.92,1.92 3.23,4.32 3.91,6.95 .09,.32 .28,.96 .37,1.28l.21,.85c.34,5.96-2.51,12.37-7.85,15.29 1.39-2.42 2.98-4.74 3.96-7.37 1.77-5.24 1-11.56-3.11-15.48-5.6-7.27-16.16-9.26-24.3-5.27-.93,.31-1.86,.67-2.64,1.27-1.78,1.27-3.25,2.91-4.55,4.64-.53,.77-1.25,1.57-1.22,2.57-.23,3.14-.39,6.31-.27,9.47-.24,4.43 3.41,7.61 5.71,10.98-4.64-2.52-8.2-6.63-9.84-11.64v-7.18c1.12-2.56 2.31-5.08 3.72-7.5 1.63-1.08 3.16-2.3 4.6-3.62 .92-.38 1.84-.77 2.75-1.16 1.55-.52 3.09-1.09 4.7-1.39 4.02,.14 8.03,.35 12.05,.62 1.1,.23 2.2,.46 3.3,.69z"/>
<path fill="#7c7b7b" d="m116.99,69.1c-.19-4.03-5.58-10.91 1.26-6.32 .24,.49 .71,1.47 .95,1.95 .43,2.23 .92,4.45 1.46,6.65-1.23-.75-2.47-1.49-3.67-2.28z"/>
<path fill="#b7b5b6" d="m11.07,69.13c.55-3.06 1.6-8.11 5.82-7.11 2.94,1.24 5.37,3.42 8.22,4.85-3.12,.21-6.25,.41-9.34,.87-1.61,.3-3.15,.87-4.7,1.39z"/>
<path opacity=".91" fill="#a7a5a5" d="m8.28,64.72c.14,1.85 .07,3.71 .04,5.57-1.44,1.32-2.97,2.54-4.6,3.62 1.06-3.27 2.65-6.33 4.56-9.19z"/>
<path opacity=".91" fill="#aaa8a9" d="m119.2,64.73c2.56,2.51 4.03,5.76 5.09,9.14-1.23-.8-2.44-1.63-3.63-2.49-.54-2.2-1.03-4.42-1.46-6.65z"/>
<path opacity=".98" fill="#151414" d="m100.18,68.25c3.68-.31 7.36-.41 11.06-.49 1.95,.25 3.86,.77 5.75,1.34 1.2,.79 2.44,1.53 3.67,2.28 1.19,.86 2.4,1.69 3.63,2.49 1.38,2.44 2.58,4.98 3.71,7.54v7.18c-1.65,5-5.19,9.16-9.83,11.66 .24-.55 .72-1.65 .96-2.21 6.43-4.68 7.19-15.96 1.98-21.92-5.42-5.93-13.48-7.61-21.26-5.79-1.1,.3-2.09,.89-3.1,1.38-1.12,.19-2.11,.65-2.97,1.39-1.33,.89-2.29,2.19-3.09,3.55-1.29,1.88-2.78,3.76-3.05,6.1-2.63,6.24 1.07,11.59 4.09,16.68-5.3-2.97-8.23-9.31-7.78-15.29l.19-.91c.11-.51 .33-1.52 .44-2.03 .86-2.25 2.08-4.33 3.6-6.19 3.28-3.37 7.49-5.53 12-6.76z"/>
<path fill="#7e6b60" d="m12.81,71.3c8.14-3.99 18.7-2 24.3,5.27-2.08,1.09-4.07,2.36-6.04,3.65-7.73,4.34-8.33-12.07-15.33-8.38-.98-.16-1.96-.35-2.93-.54z"/>
<path fill="#7a7778" d="m84.58,81.2c-.9-4.07-1.17-9.45 2.24-12.34 .73,1.98 1.17,4.05 1.36,6.15-1.52,1.86-2.74,3.94-3.6,6.19z"/>
<path fill="#462d20" d="m96.75,71.71c1.01-.49 2-1.08 3.1-1.38 1.08,.25 2.17,.48 3.26,.71-.18,4.43-2.56,8.28-4.48,12.14-3.04-1.27-4.64-1.45-1.44,1.28-5.69,2.18-5.2,11.09 .64,12.83 5.75,3.57 12.77,2.88 18.09-1.28 5.99-1.69 6.56-15.67-.99-12.13 .69-.92 1.42-1.81 2.17-2.69 .24-.23 .73-.7 .97-.94 1.29-1.15 2.16-2.66 3.04-4.13 5.21,5.96 4.45,17.24-1.98,21.92-7.53,3.12-16.35,4.63-23.85,.74-5-2.15 1.16,2.17 2.58,3.56-2.2-.61-4.32-1.5-6.13-2.91-3.02-5.09-6.72-10.44-4.09-16.68 .73,14.63 1.22-1.81 3.05-6.1 .8-1.36 1.76-2.66 3.09-3.55 1.11,1.87 3.22,.42 2.97-1.39z"/>
<path fill="#8a796f" d="m99.85,70.33c7.78-1.82 15.84-.14 21.26,5.79-.88,1.47-1.75,2.98-3.04,4.13-5.02,.3-4.94-5.7-6.48-9.04-2.53-.12-5.06-.16-7.59-.14l-.89-.03c-1.09-.23-2.18-.46-3.26-.71z"/>
<path fill="#432b1e" d="m10.17,72.57c.78-.6 1.71-.96 2.64-1.27 .97,.19 1.95,.38 2.93,.54 5.29,6.51-6.57,7.22-3.18,11.82-7.05,.93-5.89,11.14 .27,12.68 5.11,3.66 11.96,4.39 17.37,.94 5.87-1.72 6.02-10.28 5.08-14.28-1.28-.48-2.61-.8-3.94-1.06-.07-.43-.2-1.29-.27-1.72 1.97-1.29 3.96-2.56 6.04-3.65 4.11,3.92 4.88,10.24 3.11,15.48-2,1.87-3.87,3.86-5.92,5.69-2.8,1.65-5.76,3.18-9.04,3.57-3.61,.01-7.64-1.26-10.88,.91-1.58-.49-3.16-1.07-4.54-1.99-2.3-3.37-5.95-6.55-5.71-10.98 .68-3.14 1.2-6.35 .27-9.47-.03-1 .69-1.8 1.22-2.57 1.91-.48 5.82-2.15 4.55-4.64z"/>
<path fill="#774022" d="m15.74,71.84c7-3.69 7.6,12.72 15.33,8.38 .07,.43 .2,1.29 .27,1.72-4.31,3.62-10.43,1.39-15.6,2.26 4.19,3.34 9.92,1.67 14.58,.38 1.82-.43 4.94,1.39 4.96-1.58 .94,4 .79,12.56-5.08,14.28-.02-1.84-.02-3.68 .06-5.51 3.34-1.58-1.09-2.29-2.51-3.5-5.26-2.45-12.07-2.14-16.72,1.58 1.25,1.97 2.21,4.09 1.8,6.49-6.16-1.54-7.32-11.75-.27-12.68-3.39-4.6 8.47-5.31 3.18-11.82z"/>
<path fill="#676666" d="m48.99,71.11c2.67-.21 5.74,.28 7.18,2.84-4.19-1.29-9.56-1.43-9.59,4.23-1.59-2.82 .61-5.09 2.41-7.07z"/>
<path fill="#797878" d="m73.72,71.71c3.62-4.99 9.74,4.24 7.63,5.04-.58-.26-1.74-.78-2.32-1.04-.22-.19-.67-.58-.9-.77 2.65-4.85-6.27-1.55-6.56,1.76-1.94,.17 .48-4.24 2.15-4.99z"/>
<path fill="#7c4222" d="m103.11,71.04l.89,.03c1.16,3.66 1.12,8.17 4.29,10.81 2.94,0 5.89-.34 8.81-.69-.75,.88-1.48,1.77-2.17,2.69 7.55-3.54 6.98,10.44 .99,12.13 4.35-9.26-7.64-11.37-14.3-8.42-1.32,1.71-3.22,2.43-5.32,2.64 1.49,2.09 1.89,4.54 1.53,7.06-5.84-1.74-6.33-10.65-.64-12.83 4.93,1.21 10.59,2.99 15.15-.1-4.58,.55-9.33,.42-13.71-1.18 1.92-3.86 4.3-7.71 4.48-12.14z"/>
<path fill="#7f5d4b" d="m104,71.07c2.53-.02 5.06,.02 7.59,.14 1.54,3.34 1.46,9.34 6.48,9.04-.24,.24-.73,.71-.97,.94-2.92,.35-5.87,.69-8.81,.69-3.17-2.64-3.13-7.15-4.29-10.81z"/>
<path fill="#817f7d" d="m93.78,73.1c.86-.74 1.85-1.2 2.97-1.39 .25,1.81-1.86,3.26-2.97,1.39z"/>
<path fill="#817e7c" d="m5.62,77.21c1.3-1.73 2.77-3.37 4.55-4.64 1.27,2.49-2.64,4.16-4.55,4.64z"/>
<path fill="#514f50" d="m39.62,75.05c3.67-6.02 5.75,4.29 3.91,6.95-.68-2.63-1.99-5.03-3.91-6.95z"/>
<path fill="#9d9b9c" d="m46.58,78.18c.03-5.66 5.4-5.52 9.59-4.23 1.07,5.32-5.6,9.56-9.39,5.03l-.2-.8m3.64-2.11c-3.65,3.77 4.83,.23 0,0z"/>
<path fill="#aeacad" d="m71.57,76.7c.29-3.31 9.21-6.61 6.56-1.76-1.28,.71-3.97,.98-3.82,2.86 1.8,.64 3.32-1.23 4.72-2.09 .58,.26 1.74,.78 2.32,1.04-.3,5.42-9.45,5.35-9.78-.05z"/>
<path fill="#232323" d="m74.31,77.8c-.15-1.88 2.54-2.15 3.82-2.86 .23,.19 .68,.58 .9,.77-1.4,.86-2.92,2.73-4.72,2.09z"/>
<path fill="#1e1e1e" d="m50.22,76.07c4.83,.23-3.65,3.77 0,0z"/>
<path fill="#676463" d="m87.64,82.75c.27-2.34 1.76-4.22 3.05-6.1-1.83,4.29-2.32,20.73-3.05,6.1z"/>
<path fill="#747271" d="m4.4,79.78c.93,3.12 .41,6.33-.27,9.47-.12-3.16 .04-6.33 .27-9.47z"/>
<path fill="#b87852" d="m31.34,81.94c1.33,.26 2.66,.58 3.94,1.06-.02,2.97-3.14,1.15-4.96,1.58-4.66,1.29-10.39,2.96-14.58-.38 5.17-.87 11.29,1.36 15.6-2.26z"/>
<path fill="#b7744f" d="m97.19,84.46c-3.2-2.73-1.6-2.55 1.44-1.28 4.38,1.6 9.13,1.73 13.71,1.18-4.56,3.09-10.22,1.31-15.15,.1z"/>
<path opacity=".47" fill="#1c1b1c" d="m43.9,83.28c.48-.05 1.45-.14 1.93-.19 2.83,.07 5.65,.18 8.48,.3-3.31,.95-6.81,.61-10.2,.74l-.21-.85z"/>
<path opacity=".39" fill="#191819" d="m74.74,83.24c3.13-.04 6.26-.04 9.4-.01l-.19,.91c-3.08-.16-6.16-.49-9.21-.9z"/>
<path fill="#a75324" d="m11.03,89.85c4.65-3.72 11.46-4.03 16.72-1.58 1.42,1.21 5.85,1.92 2.51,3.5-5.45-.83-11.02,.7-16.47-.78 3.95,4.7 11.51,3.35 16.47,.78-.08,1.83-.08,3.67-.06,5.51-5.41,3.45-12.26,2.72-17.37-.94 .41-2.4-.55-4.52-1.8-6.49z"/>
<path fill="#a75224" d="m101.62,87.59c6.66-2.95 18.65-.84 14.3,8.42-5.32,4.16-12.34,4.85-18.09,1.28 .36-2.52-.04-4.97-1.53-7.06 2.1-.21 4-.93 5.32-2.64m-2.66,3.5c1.95,4.52 12.08,4.08 15.18-.07-5.07,.71-10.13,1.18-15.18,.07z"/>
<path fill="#d18257" d="m13.79,90.99c5.45,1.48 11.02-.05 16.47,.78-4.96,2.57-12.52,3.92-16.47-.78z"/>
<path fill="#d18358" d="m98.96,91.09c5.05,1.11 10.11,.64 15.18-.07-3.1,4.15-13.23,4.59-15.18,.07z"/>
<path opacity=".96" fill="#525151" d="m34.3,97.74c2.05-1.83 3.92-3.82 5.92-5.69-.98,2.63-2.57,4.95-3.96,7.37-1.59,1.14-3.28,2.17-5.15,2.79l-1.14-.17c1.29-1.46 5.05-1.95 4.33-4.3z"/>
<path fill="#a0a0a0" d="m25.26,101.31c3.28-.39 6.24-1.92 9.04-3.57 .72,2.35-3.04,2.84-4.33,4.3-3.42,.16-6.82,.53-10.23,.86 1.38-.4 4.14-1.19 5.52-1.59z"/>
<path fill="#727170" d="m97.86,102.34c-1.42-1.39-7.58-5.71-2.58-3.56 7.5,3.89 16.32,2.38 23.85-.74-.24,.56-.72,1.66-.96,2.21-2.15,1.34-4.52,2.29-6.96,2.94-3.49-.01-6.96-.05-10.45-.01-.98-.21-1.95-.5-2.9-.84z"/>
<path fill="#575655" d="m14.38,102.22c3.24-2.17 7.27-.9 10.88-.91-1.38,.4-4.14,1.19-5.52,1.59-.49,.09-1.47,.26-1.97,.35-1.15-.28-2.28-.62-3.39-1.03z"/>
<path opacity=".65" fill="#232222" d="m19.74,102.9c3.41-.33 6.81-.7 10.23-.86l1.14,.17c-4.19,1.82-8.87,2.52-13.34,1.04 .5-.09 1.48-.26 1.97-.35z"/>
<path opacity=".6" fill="#1e1e1e" d="m100.76,103.18c3.49-.04 6.96,0 10.45,.01-3.49,1.02-6.97,1.01-10.45-.01z"/>
</svg>
