<svg width="210" xmlns="http://www.w3.org/2000/svg" height="210" viewBox="0 0 168 168">
<path opacity=".28" fill="#132b0b" d="m67.01,0h1c-.9,8.19 1.64,17.59-.73,25.29-7.17,.27-14.83,.17-20.57,5.68 2.13-9.31 14.62-4.17 20.22-7.17-.23-7.93-1.22-15.89 .08-23.8z"/>
<path opacity=".56" fill="#275c16" d="m68.01,0h2.07c-1.29,8.52-.85,17.17-1.26,25.74-5.57,5.33-17.4-1.66-20.9,8.23 4.25,7.15 10.11,14.38 10.07,23.08-3.4-8.82-10.07-16.59-11.28-26.08 5.74-5.51 13.4-5.41 20.57-5.68 2.37-7.7-.17-17.1 .73-25.29z"/>
<path opacity=".82" fill="#408e24" d="m70.08,0h23.7c-.38,8.17 12.48,4.53 16.21,10.84l.43,.82-.11,1.16c-.56-.15-1.69-.45-2.25-.6-5.75-6.48-15.11-5.8-22.9-7.5-4.71-.22-10.34-2.35-14.36,1.03-1.55,1.01-.38,3.44-.64,5.03-.81,5.83 1.29,12.5-1.45,17.93-5.06,3.95-12.94-2.77-17.06,2.95-4.12,2.61 .58,5.94 2.26,8.29 .68,5.77 6.82,9.23 5.45,15.72 6.4,2.97 12.11,10 8.99,17.39-.3-.32-.88-.97-1.17-1.29l-.08-.86c.6-6.19-4.08-11.09-9.11-13.86 .04-8.7-5.82-15.93-10.07-23.08 3.5-9.89 15.33-2.9 20.9-8.23 .41-8.57-.03-17.22 1.26-25.74z"/>
<path opacity=".54" fill="#11400a" d="m93.78,0h3.01c.1,.93-1.57,2.93 .08,3.04 8.94,2.27 22.68,6.31 18.16,18.94 1.54,6.41-5.13,24.82 7.92,21.45 4.98,5.02 17.4,.85 15.13,11.6 .3,9.83-14.56,11.13-14.18,19.91-1.03-.63-2.04-1.31-3.05-1.97-1.04-5.81 6.53-5.2 9.22-8.92 2.57-3.35 7.42-5.97 5.99-11.06-.11-4.97-6.47-3.59-9.92-4.92-2.29-4.73-8.38-.41-10.98-4.3-8.26-9.04 4.87-26.11-5.17-32.93-3.73-6.31-16.59-2.67-16.21-10.84z"/>
<path opacity=".27" fill="#081607" d="m96.79,0h6.98c-2.23,6.72 10.71,4.62 12.2,11.08 1.62,9.42-1.08,19.19 .15,28.72 2.81,3.54 7.73,0 10.58,3.52 3.86,3.83 11.61,1.3 13.72,7.33 3.83,9.9-9.74,14.65-12.19,22.05 2.11,8.55 12.41,2.95 15.95,9.24-.56,.04-1.68,.12-2.24,.16-6.01-2.29-12.68-2.91-18.04-7.16-.38-8.78 14.48-10.08 14.18-19.91 2.27-10.75-10.15-6.58-15.13-11.6-13.05,3.37-6.38-15.04-7.92-21.45 4.52-12.63-9.22-16.67-18.16-18.94-1.65-.11 .02-2.11-.08-3.04z"/>
<path opacity=".98" fill="#6aca47" d="m70.8,5.75c4.02-3.38 9.65-1.25 14.36-1.03 7.79,1.7 17.15,1.02 22.9,7.5 .19,4.28-5.76,4.35-6.8,8.13-.45,5.92-.15,11.87-.26,17.8-.06,.43-.18,1.27-.24,1.7-4.63,11.74 8.96,5.45 14.21,9.23 4.39,3.56 16.19,.39 15.86,7.65-8.46,8.34-18.33,15.15-27.74,22.39l-1.01-.17-.08-1.02c5.6-3.98 10.91-8.33 16.16-12.74 3.32-2.96 8.25-5.25 8.94-10.07-9.36-1.23-18.65-4.88-27.43-7.83-1.07-11.31-1.33-23.95 2.33-35.07-7.98-5.2-17.74-6.71-27.12-6.36-.52-.01-1.57-.03-2.1-.05-.49-.01-1.48-.04-1.98-.06z"/>
<path fill="#7ae046" d="m70.16,10.78c.26-1.59-.91-4.02 .64-5.03 .5,.02 1.49,.05 1.98,.06 .25,9.05 .52,18.77 2.55,27.83 3.92,1.48 6.65,4.41 8.87,8.16 4.63-.58 2.73-9.72 6.56-10.67 1.69,6.76 2.04,13.72 2.48,20.64 4.05,4.2 9.52,6.65 14.47,9.6 1.58,2.77-1.34,4.67-3.19,6.17-4.29,4.1-9.02,8.11-11.59,13.58 3.55,.58 5.7-2.92 9.07-3.19l.08,1.02c-4.69,3.73-9.3,7.6-14.18,11.04-6.84-1.32-7.26-10.63-10.29-15.6-7.1-5.49-6.97-15.89-14.85-20.55 .41-5.91-4.68-10.37-8.85-13.89-3.24-5.98 2.62-13.48 9.02-7.97-2.68,.16-5.42,.15-7.93,1.2 .79,7.66 11.94,12.69 18.13,8.94 3.54-6.43-6.97-7.05-10.2-10.14 14.88,4.55 6.72-14.32 7.23-21.2z"/>
<path fill="#87eb53" d="m72.78,5.81c.53,.02 1.58,.04 2.1,.05-3.23,5.27 2.39,8.44 6.96,6.3 3.43,3.29 9.17,1.22 12,5.16 .59,10.12-.37,20.3 .45,30.39 1.79,4.85 7.69,5.58 11.43,8.46 3.73-.64 11.01,1.5 8.07,6.52-2.48,4.18 1.45,3.24 4.37,2.5-5.25,4.41-10.56,8.76-16.16,12.74-3.37,.27-5.52,3.77-9.07,3.19 2.57-5.47 7.3-9.48 11.59-13.58 1.85-1.5 4.77-3.4 3.19-6.17-4.95-2.95-10.42-5.4-14.47-9.6-.44-6.92-.79-13.88-2.48-20.64-3.83,.95-1.93,10.09-6.56,10.67-2.22-3.75-4.95-6.68-8.87-8.16-2.03-9.06-2.3-18.78-2.55-27.83z"/>
<path fill="#98ed6a" d="m74.88,5.86c9.38-.35 19.14,1.16 27.12,6.36-3.66,11.12-3.4,23.76-2.33,35.07 8.78,2.95 18.07,6.6 27.43,7.83-.69,4.82-5.62,7.11-8.94,10.07-2.92,.74-6.85,1.68-4.37-2.5 2.94-5.02-4.34-7.16-8.07-6.52-3.74-2.88-9.64-3.61-11.43-8.46-.82-10.09 .14-20.27-.45-30.39-2.83-3.94-8.57-1.87-12-5.16-4.57,2.14-10.19-1.03-6.96-6.3z"/>
<path opacity=".95" fill="#5bbd34" d="m70.16,10.78c-.51,6.88 7.65,25.75-7.23,21.2-6.4-5.51-12.26,1.99-9.02,7.97-1.68-2.35-6.38-5.68-2.26-8.29 4.12-5.72 12,1 17.06-2.95 2.74-5.43 .64-12.1 1.45-17.93z"/>
<path opacity=".73" fill="#195c0c" d="m109.99,10.84c10.04,6.82-3.09,23.89 5.17,32.93 2.6,3.89 8.69-.43 10.98,4.3-4.87-.95-11.53,.17-14.02-5.2-4.53-9.75 2.67-21.79-1.7-31.21l-.43-.82z"/>
<path fill="#3eb220" d="m108.06,12.22c.56,.15 1.69,.45 2.25,.6-.4,4.99-.17,10.09-1.45,14.98-.56,5.15-7.27,4.92-7.86,10.35 .11-5.93-.19-11.88 .26-17.8 1.04-3.78 6.99-3.85 6.8-8.13z"/>
<path opacity=".85" fill="#228213" d="m110.42,11.66c4.37,9.42-2.83,21.46 1.7,31.21 2.49,5.37 9.15,4.25 14.02,5.2 3.45,1.33 9.81-.05 9.92,4.92 1.43,5.09-3.42,7.71-5.99,11.06-2.69,3.72-10.26,3.11-9.22,8.92-.05,.55-.15,1.66-.19,2.22l-.78-.44c-1.08-1.91-3.01-4.67-.1-5.98 5-5 15.25-8.54 15.19-16.63-8.16-1.17-16.24-2.97-23.89-6.14-2.28-5.78-2.15-12.08-2.22-18.2 1.28-4.89 1.05-9.99 1.45-14.98l.11-1.16z"/>
<path fill="#1ba00c" d="m101,38.15c.59-5.43 7.3-5.2 7.86-10.35 .07,6.12-.06,12.42 2.22,18.2-5.2,1.36-11.88,.5-10.32-6.15 .06-.43 .18-1.27 .24-1.7z"/>
<path opacity=".31" fill="#141813" d="m47.2,39.83c-1.7-2.68-1.34-5.91-.49-8.86 1.21,9.49 7.88,17.26 11.28,26.08 2.56,4.1 6.7,7.62 6.39,12.9-7.98,7.73-21.21,6.11-29.65,13.55-6.6-.36-14.57,5.46-13.7,12.51 1.25,9.17-4.29,21.63 5.19,27.77 13.05,8.7 25.43,18.83 39.81,25.24 4.64,4.04 10,7.67 16.13,8.88 1.92,3.03 2.57,6.61 3.1,10.1h-2.06c-.5-2.9 .36-7.9-3.56-8.58-6.16-1.36-10.89-5.58-15.97-9.02-12.77-7.12-24.3-15.59-36.61-23.48-12.36-6.42-5.44-22.1-7.02-32.92-1.61-7.33 6.06-12.25 12.53-11.58 6.75-4.47 14.09-8.16 22.09-9.79 3.75-1.04 10.55-.64 6.92-7.13-6.75-7.36-9.27-17.29-14.38-25.67z"/>
<path fill="#92ed61" d="m55,33.18c2.51-1.05 5.25-1.04 7.93-1.2 3.23,3.09 13.74,3.71 10.2,10.14-6.19,3.75-17.34-1.28-18.13-8.94z"/>
<path fill="#59c834" d="m53.91,39.95c4.17,3.52 9.26,7.98 8.85,13.89 7.88,4.66 7.75,15.06 14.85,20.55 3.03,4.97 3.45,14.28 10.29,15.6 4.88-3.44 9.49-7.31 14.18-11.04l1.01,.17c-4.52,5.23-10.23,9.18-15.3,13.82-6.1-.29-8.22-8.59-10.27-13.57-.27-2.42-2.54-.8-3.97-.51-.87-.61-1.73-1.21-2.59-1.83-.94-1.1-1.88-2.2-2.83-3.29l.22-.68c3.12-7.39-2.59-14.42-8.99-17.39 1.37-6.49-4.77-9.95-5.45-15.72z"/>
<path fill="#3aac2b" d="m114.97,49.08c-5.25-3.78-18.84,2.51-14.21-9.23-1.56,6.65 5.12,7.51 10.32,6.15 7.65,3.17 15.73,4.97 23.89,6.14 .06,8.09-10.19,11.63-15.19,16.63-2.91,1.31-.98,4.07 .1,5.98l-.82,.22c-7.44,4.73-13.92,11.41-20.98,16.95-4.12,1.67-7.56,4.51-11.32,6.81-7.26-3.62-11.08-12.32-13.21-19.87 1.43-.29 3.7-1.91 3.97,.51 2.05,4.98 4.17,13.28 10.27,13.57 5.07-4.64 10.78-8.59 15.3-13.82 9.41-7.24 19.28-14.05 27.74-22.39 .33-7.26-11.47-4.09-15.86-7.65z"/>
<path opacity=".62" fill="#1f5118" d="m57.99,57.05c5.03,2.77 9.71,7.67 9.11,13.86-.91-.33-1.81-.65-2.72-.96 .31-5.28-3.83-8.8-6.39-12.9z"/>
<path opacity=".59" fill="#3c3c3c" d="m64.38,69.95c.91,.31 1.81,.63 2.72,.96l.08,.86c-10.29,5.35-21.8,7.68-31.93,13.34-4.76,.4-10.34,2.23-11.95,7.26 1.22,9.21-4.11,21.3 2.39,28.93 18.02,13.37 37.67,24.45 56.47,36.6-6.13-1.21-11.49-4.84-16.13-8.88-14.38-6.41-26.76-16.54-39.81-25.24-9.48-6.14-3.94-18.6-5.19-27.77-.87-7.05 7.1-12.87 13.7-12.51 8.44-7.44 21.67-5.82 29.65-13.55z"/>
<path opacity=".81" fill="#6c6c6c" d="m35.25,85.11c10.13-5.66 21.64-7.99 31.93-13.34 .29,.32 .87,.97 1.17,1.29l-.22,.68c-9.83,4.62-20.98,6.67-30.28,12.16-.74,.67-1.45,1.36-2.14,2.09-16.62-2-10.23,20.5-9.68,30.02 12.15,11.26 26.9,20.53 41.77,28.08 3.9,5.73 12.06,5.05 15.94,11.15l.2,.86c-.44-.05-1.33-.15-1.78-.2-18.8-12.15-38.45-23.23-56.47-36.6-6.5-7.63-1.17-19.72-2.39-28.93 1.61-5.03 7.19-6.86 11.95-7.26z"/>
<path opacity=".61" fill="#393939" d="m120.85,72.97c1.01,.66 2.02,1.34 3.05,1.97 5.36,4.25 12.03,4.87 18.04,7.16 4.38,3.99 10.83,4.93 14.9,9.22 .21,10.82 .48,21.68 .04,32.49-2.59,2.23-6.84,1.22-8.97,4.07-3.57,4.94-10.44,5.29-15.07,9.03-8.15,7.28-18.63,9.8-26.53,17.38-3.02,2.56-7.18,2.72-10.5,4.53-1.71,2.7-1.89,6.15-2.91,9.18h-7.64c-.53-3.49-1.18-7.07-3.1-10.1 .45,.05 1.34,.15 1.78,.2 1.33,3.26 7.05,7.79 8.89,2.76 2.66-6.55 11.33-6.42 16.06-10.83 3.06-4.48 9.42-3.25 12.54-7.58 6.13-3.73 12.04-7.92 18.09-11.77 5.36,.28 6.74-5.61 11.26-6.82 3.4,.66 7.66-.78 5.23-5.86-1.47-8.53 3.03-19.56-2.02-26.92-.51-.27-1.53-.82-2.04-1.09-3.93-1.96-7.79-4.03-11.51-6.34-7.82,.62-13.17-5.58-19.78-8.46 .04-.56 .14-1.67 .19-2.22z"/>
<path fill="#919291" d="m37.85,85.9c9.3-5.49 20.45-7.54 30.28-12.16 .95,1.09 1.89,2.19 2.83,3.29 .47,1.3 .93,2.59 1.31,3.91-4.66,8.81-18.54,5.04-24.51,12.05 7.74,6.86 17.78,13.57 28.69,12.94-.89-5.48 2.72-6.51 6.68-5.97 5.46,1.86 9.26-1.91 12.98-4.93l.99-.03c-2.23,4.17-6.74,6.04-9.95,9.28-2.55,4.96 8.42,2.61 5.15,7-6.01,6.78-13.6-1.68-20.52-2.18-8.42-3.62-16.43-8.15-24.53-12.39-4.01-4.91 1.72-9.13 6.83-8.7 5.06-2.69 17.81-4.65 12.87-12.84-9.54,3.98-18.92,8.73-29.1,10.73z"/>
<path fill="#b9b8b9" d="m37.85,85.9c10.18-2 19.56-6.75 29.1-10.73 4.94,8.19-7.81,10.15-12.87,12.84-5.11-.43-10.84,3.79-6.83,8.7 8.1,4.24 16.11,8.77 24.53,12.39 6.7,2.42 13.96,11.27 21.27,5.97 4.55-2.87 9.48-5.47 14.01-8.08 4.78-8.04-14.42-4.52-8.25-12.1 .21-.26 .65-.8 .87-1.07-1.31,7.58 8.46,3.4 11.21,8.51 3.26,7.84-6.79,7.51-10.65,10.9-4.87,2.28-11.15,8.8-16.56,4.09-7.11-4.07-14.63-7.51-22.07-11.01-3.77-1.26-7.04-3.47-10.42-5.49-3.89-1.78-10.19-2.39-8.23-8.83 .11-3.13-3.21-4.97-5.76-3.06l-.97,.09-.52-1.03c.69-.73 1.4-1.42 2.14-2.09z"/>
<path fill="#7ab97b" d="m98.08,91.92c7.06-5.54 13.54-12.22 20.98-16.95-.03,.42-.08,1.26-.1,1.68-.97,.74-1.95,1.46-2.86,2.26-4.55,6.03-11.53,9.35-16.42,14.91-.22,.27-.66,.81-.87,1.07-.43,.03-1.29,.08-1.71,.11l-.99,.03c.69-1.02 1.34-2.05 1.97-3.11z"/>
<path opacity=".77" fill="#69686a" d="m119.06,74.97l.82-.22 .78,.44c6.61,2.88 11.96,9.08 19.78,8.46 3.72,2.31 7.58,4.38 11.51,6.34 .03,.51 .1,1.54 .13,2.05l-.84-.34c-10-6.76-22.11-8.54-32.28-15.05 .02-.42 .07-1.26 .1-1.68z"/>
<path fill="#559254" d="m70.96,77.03c.86,.62 1.72,1.22 2.59,1.83 2.13,7.55 5.95,16.25 13.21,19.87 3.76-2.3 7.2-5.14 11.32-6.81-.63,1.06-1.28,2.09-1.97,3.11-3.72,3.02-7.52,6.79-12.98,4.93-4.46-5.74-9.39-11.72-10.86-19.02-.38-1.32-.84-2.61-1.31-3.91z"/>
<path opacity=".97" fill="#959595" d="m116.1,78.91c.91-.8 1.89-1.52 2.86-2.26 10.17,6.51 22.28,8.29 32.28,15.05 .53,3.35 1.24,8.57-4.21,8.36-17.67,7.67-33.16,19.98-51.15,26.91 16.21-10.03 32.82-19.69 49.75-28.41 4.42-.3 4.5-6.42 .64-7.65-.53-.25-1.58-.75-2.11-1-6.99-4.92-15.87-5.73-23.29-9.93-1.49-.72-3.14-.93-4.77-1.07z"/>
<path fill="#d1d3d1" d="m116.1,78.91c1.63,.14 3.28,.35 4.77,1.07 6.01,5.93 15.04,8.81 23.29,9.93 .53,.25 1.58,.75 2.11,1 .33,8.07-10.12,8.3-14.66,12.61-10.02,4.62-18.06,13.78-28.82,16.41 2.82-3.79 8.97-4.27 10.45-8.92-10.31-1.24-17.28,9.79-27,9.81-7.15-6.58-18.39-7.41-24.63-14.51 7.44,3.5 14.96,6.94 22.07,11.01 5.41,4.71 11.69-1.81 16.56-4.09 3.86-3.39 13.91-3.06 10.65-10.9-2.75-5.11-12.52-.93-11.21-8.51 4.89-5.56 11.87-8.88 16.42-14.91m2.09,1.37c-5.45,3.45-9,9.2-14.65,12.3-5.15,7.38 8.67,2.01 10.54,7.37 2.81,3.26-2.67,12.72 5.53,8.7 5.04-3.34 9.68-7.42 15.44-9.52 2.93-1.16 7.7-2.97 6.88-6.96-8.02-3.7-16.92-6.01-23.74-11.89z"/>
<path fill="#e7e6e7" d="m118.19,80.28c6.82,5.88 15.72,8.19 23.74,11.89 .82,3.99-3.95,5.8-6.88,6.96-5.76,2.1-10.4,6.18-15.44,9.52-8.2,4.02-2.72-5.44-5.53-8.7-1.87-5.36-15.69,.01-10.54-7.37 5.65-3.1 9.2-8.85 14.65-12.3z"/>
<path opacity=".98" fill="#b8b6b8" d="m120.87,79.98c7.42,4.2 16.3,5.01 23.29,9.93-8.25-1.12-17.28-4-23.29-9.93z"/>
<path fill="#747375" d="m72.27,80.94c1.47,7.3 6.4,13.28 10.86,19.02-3.96-.54-7.57,.49-6.68,5.97-10.91,.63-20.95-6.08-28.69-12.94 5.97-7.01 19.85-3.24 24.51-12.05z"/>
<path opacity=".31" fill="#181818" d="m141.94,82.1c.56-.04 1.68-.12 2.24-.16 4.86,2.63 13.57,2.42 14.5,9.37 .9,10.71 .35,21.57 .01,32.31-2.08,5.47-10.7,2.64-13.26,8.65-10.72,5.19-19.68,12.58-30.54,17.69-5.06,3.9-9.61,9-16.42,9.62-3.38,.95-2.52,5.61-3.64,8.42h-1.93c1.02-3.03 1.2-6.48 2.91-9.18 3.32-1.81 7.48-1.97 10.5-4.53 7.9-7.58 18.38-10.1 26.53-17.38 4.63-3.74 11.5-4.09 15.07-9.03 2.13-2.85 6.38-1.84 8.97-4.07 .44-10.81 .17-21.67-.04-32.49-4.07-4.29-10.52-5.23-14.9-9.22z"/>
<path opacity=".95" fill="#9d9d9d" d="m26.03,118.01c-.55-9.52-6.94-32.02 9.68-30.02l.52,1.03c-12.16-2.03-9.12,11.69-9.35,18.98-2.04,7.69 3.98,13.73 10.09,17.07 8.78,5.08 16.37,12.67 26,16.08 1.82,1.14 3.68,2.3 5.11,3.93l-.28,1.01c-14.87-7.55-29.62-16.82-41.77-28.08z"/>
<path fill="#e1e1e1" d="m37.2,88.93c2.55-1.91 5.87-.07 5.76,3.06-1.96,6.44 4.34,7.05 8.23,8.83-2.68,.2-9.42-1.73-8.04,2.92 10.3,6.77 20.94,13.06 30.68,20.64 2.08,6.33-6.69,10.77-11.49,7.26-2.25-1.5-7.59-3.19-7.37,1.19 7.1,2.09 11.84,8.44 17.02,13.34-1.31-.35-2.62-.69-3.91-1.09-1.43-1.63-3.29-2.79-5.11-3.93-8.15-7.08-17.37-12.7-25.87-19.3-3.29-1.22-6-5.53-3.91-8.79 5.4,.16 9.48,5.98 15.24,4.57 5.37,2.96 6.17-4.68 2.46-5.56-6.84-4.68-12.51-12.48-21.61-12.42-4.22-5.74 3.69-9.26 7.92-10.72z"/>
<path fill="#cecece" d="m26.88,108c.23-7.29-2.81-21.01 9.35-18.98l.97-.09c-4.23,1.46-12.14,4.98-7.92,10.72 9.1-.06 14.77,7.74 21.61,12.42 3.71,.88 2.91,8.52-2.46,5.56-5.76,1.41-9.84-4.41-15.24-4.57-2.09,3.26 .62,7.57 3.91,8.79 8.5,6.6 17.72,12.22 25.87,19.3-9.63-3.41-17.22-11-26-16.08-6.11-3.34-12.13-9.38-10.09-17.07z"/>
<path opacity=".89" fill="#5c5c5c" d="m151.95,89.99c.51,.27 1.53,.82 2.04,1.09 1.42,9.8 1.34,19.8 .83,29.67-1.17,1.24-2.61,2.19-4.04,3.11-4.52,1.21-5.9,7.1-11.26,6.82-6.05,3.85-11.96,8.04-18.09,11.77-3.12,4.33-9.48,3.1-12.54,7.58-.47-6.37 7.45-3.89 10.17-7.97 9.41-10.14 23.74-13.11 32.72-23.46 2.44-6.6-3.07-14.28 1.72-20.07 1.45-2.18-.68-4.45-1.42-6.49-.03-.51-.1-1.54-.13-2.05z"/>
<path fill="#b7b7b7" d="m146.27,90.91c3.86,1.23 3.78,7.35-.64,7.65-16.93,8.72-33.54,18.38-49.75,28.41-2.1,1.13-3.81,2.86-5.06,4.88-3.06,8.39 2.44,18.71-2.83,26.32-1.45-.18-2.86-.55-4.25-.93-3.88-6.1-12.04-5.42-15.94-11.15l.28-1.01c1.29,.4 2.6,.74 3.91,1.09 5.75,2.64 10.03,8.14 15.91,10 1.12-8.84-1.85-18.33 1.44-26.83 3.57-4.17 9.23-5.92 13.45-9.41 10.76-2.63 18.8-11.79 28.82-16.41 4.54-4.31 14.99-4.54 14.66-12.61z"/>
<path opacity=".76" fill="#484848" d="m153.99,91.08c5.05,7.36 .55,18.39 2.02,26.92 2.43,5.08-1.83,6.52-5.23,5.86 1.43-.92 2.87-1.87 4.04-3.11 .51-9.87 .59-19.87-.83-29.67z"/>
<path fill="#767676" d="m151.24,91.7l.84,.34c.74,2.04 2.87,4.31 1.42,6.49-4.79,5.79 .72,13.47-1.72,20.07-8.98,10.35-23.31,13.32-32.72,23.46-2.72,4.08-10.64,1.6-10.17,7.97-4.73,4.41-13.4,4.28-16.06,10.83-1.84,5.03-7.56,.5-8.89-2.76l-.2-.86c1.39,.38 2.8,.75 4.25,.93 2.87-.06 4.68-3.2 3.01-6.18 .1-6.72 .09-13.43-.18-20.14 1.25-2.02 2.96-3.75 5.06-4.88 17.99-6.93 33.48-19.24 51.15-26.91 5.45,.21 4.74-5.01 4.21-8.36z"/>
<path fill="#a19ea1" d="m97.1,95c.42-.03 1.28-.08 1.71-.11-6.17,7.58 13.03,4.06 8.25,12.1-4.53,2.61-9.46,5.21-14.01,8.08-7.31,5.3-14.57-3.55-21.27-5.97 6.92,.5 14.51,8.96 20.52,2.18 3.27-4.39-7.7-2.04-5.15-7 3.21-3.24 7.72-5.11 9.95-9.28z"/>
<path fill="#efefef" d="m43.15,103.74c-1.38-4.65 5.36-2.72 8.04-2.92 3.38,2.02 6.65,4.23 10.42,5.49 6.24,7.1 17.48,7.93 24.63,14.51 9.72-.02 16.69-11.05 27-9.81-1.48,4.65-7.63,5.13-10.45,8.92-4.22,3.49-9.88,5.24-13.45,9.41-3.29,8.5-.32,17.99-1.44,26.83-5.88-1.86-10.16-7.36-15.91-10-5.18-4.9-9.92-11.25-17.02-13.34-.22-4.38 5.12-2.69 7.37-1.19 4.8,3.51 13.57-.93 11.49-7.26-9.74-7.58-20.38-13.87-30.68-20.64z"/>
<path fill="#959595" d="m87.99,158.17c5.27-7.61-.23-17.93 2.83-26.32 .27,6.71 .28,13.42 .18,20.14 1.67,2.98-.14,6.12-3.01,6.18z"/>
</svg>
