<?xml version="1.0" encoding="UTF-8" standalone="no"?>
<!-- Created with Inkscape (http://www.inkscape.org/) -->
<svg
   xmlns:svg="http://www.w3.org/2000/svg"
   xmlns="http://www.w3.org/2000/svg"
   version="1.0"
   width="128pt"
   height="128pt"
   viewBox="0 0 128 128"
   id="svg2">
  <defs
     id="defs142" />
  <g
     id="#06003aad">
    <path
       d="M 54.98,3.98 C 58.14,2.89 70.08,1.32 72.85,4.01 C 66.9,3.99 60.94,3.99 54.98,3.98 z"
       id="path5"
       style="opacity:0.68000004;fill:#06003a" />
  </g>
  <g
     id="#192879f2">
    <path
       d="M 46.33,6.23 C 48.55,4.2 52.1,4.31 54.98,3.98 C 60.94,3.99 66.9,3.99 72.85,4.01 L 73.2,4.89 L 72.24,4.94 C 63.4,4.96 54.45,4.47 45.83,6.93 L 46.33,6.23 z"
       id="path8"
       style="opacity:0.95;fill:#192879" />
  </g>
  <g
     id="#0b074dcc">
    <path
       d="M 72.85,4.01 C 98.66,6.22 120.36,28.59 124.01,53.97 C 124.01,54.74 124.02,56.27 124.02,57.03 L 123.09,56.93 C 120.66,30.84 98.9,8.86 73.2,4.89 L 72.85,4.01 z"
       id="path11"
       style="opacity:0.8;fill:#0b074d" />
  </g>
  <g
     id="#5082d7ff">
    <path
       d="M 45.83,6.93 C 54.45,4.47 63.4,4.96 72.24,4.94 C 71.9,5.41 71.22,6.37 70.88,6.85 C 57.92,5.88 44.69,8.12 33.72,15.33 C 30.75,17.03 28.28,19.44 25.65,21.59 C 23.09,23.07 21.53,25.62 19.81,27.92 C 18.39,29.53 17.16,31.3 15.98,33.08 C 14.68,34.89 13.58,36.82 12.72,38.86 C 12.06,40.28 11.56,41.76 11.09,43.26 C 14.7,42.13 17.22,38.69 21.08,38.25 C 32.49,38.66 43.91,41.06 55.34,39.94 C 56.32,40.98 57.26,42.05 58.18,43.12 C 45.46,45.55 32.72,42.27 20.07,41.2 C 14.51,42.39 11.27,47.72 6.96,51.02 L 6.05,51.13 C 10.07,30.54 26.13,13.62 45.83,6.93 z"
       id="path14"
       style="opacity:1;fill:#5082d7" />
  </g>
  <g
     id="#4671cbff">
    <path
       d="M 72.24,4.94 L 73.2,4.89 C 98.9,8.86 120.66,30.84 123.09,56.93 L 122.08,57.1 C 122.36,50.73 116.64,46.75 111.22,45.46 C 80.93,49.16 50.18,49.34 19.93,45.13 C 12.68,42.91 11.13,52.11 7.2,56.27 C 7.13,54.52 7.03,52.77 6.96,51.02 C 11.27,47.72 14.51,42.39 20.07,41.2 C 32.72,42.27 45.46,45.55 58.18,43.12 C 62.11,45.48 67.13,45.71 70.96,43.08 C 83.97,45.38 96.99,42.05 110.02,41.93 C 112.76,41.78 114.89,43.77 117.22,44.91 C 117.02,43.27 116.76,41.61 116,40.13 C 114.93,37.76 113.83,35.39 112.35,33.25 C 110.81,30.99 109.17,28.79 107.27,26.82 C 105.88,24.77 104.42,22.69 102.32,21.31 C 99.73,19.19 97.24,16.9 94.27,15.33 C 87.14,10.92 79.23,7.89 70.88,6.85 C 71.22,6.37 71.9,5.41 72.24,4.94 z"
       id="path17"
       style="opacity:1;fill:#4671cb" />
  </g>
  <g
     id="#0c0a4fcc">
    <path
       d="M 4,53.97 C 7.39,32.05 24.27,10.73 46.33,6.23 L 45.83,6.93 C 26.13,13.62 10.07,30.54 6.05,51.13 C 5.58,53.37 5.17,55.62 4.91,57.89 L 3.98,58.07 C 3.98,56.7 3.98,55.33 4,53.97 z"
       id="path20"
       style="opacity:0.8;fill:#0c0a4f" />
  </g>
  <g
     id="#c5d6feff">
    <path
       d="M 33.72,15.33 C 44.69,8.12 57.92,5.88 70.88,6.85 C 79.23,7.89 87.14,10.92 94.27,15.33 C 74.2,13.89 53.69,13.31 33.72,15.33 z"
       id="path23"
       style="opacity:1;fill:#c5d6fe" />
  </g>
  <g
     id="#b1c8ffff">
    <path
       d="M 33.72,15.33 C 53.69,13.31 74.2,13.89 94.27,15.33 C 97.24,16.9 99.73,19.19 102.32,21.31 C 77.04,19.69 50.98,18.52 25.65,21.59 C 28.28,19.44 30.75,17.03 33.72,15.33 z"
       id="path26"
       style="opacity:1;fill:#b1c8ff" />
  </g>
  <g
     id="#9dbafeff">
    <path
       d="M 25.65,21.59 C 50.98,18.52 77.04,19.69 102.32,21.31 C 104.42,22.69 105.88,24.77 107.27,26.82 C 95.49,26.09 83.62,25.18 71.87,26.81 C 67.64,24.57 62.59,24.58 58.07,25.89 C 45.39,25.13 31.84,22.62 19.81,27.92 C 21.53,25.62 23.09,23.07 25.65,21.59 z"
       id="path29"
       style="opacity:1;fill:#9dbafe" />
  </g>
  <g
     id="#88abfeff">
    <path
       d="M 19.81,27.92 C 31.84,22.62 45.39,25.13 58.07,25.89 C 56.74,27.87 55.52,29.92 54.3,31.97 C 41.92,28.81 28.03,28.43 15.98,33.08 C 17.16,31.3 18.39,29.53 19.81,27.92 z"
       id="path32"
       style="opacity:1;fill:#88abfe" />
  </g>
  <g
     id="#fafcfeff">
    <path
       d="M 58.07,25.89 C 62.59,24.58 67.64,24.57 71.87,26.81 C 72.85,28.63 73.84,30.45 74.97,32.2 C 74.91,34.21 74.73,36.21 74.39,38.2 C 73.33,39.88 72.15,41.48 70.96,43.08 C 67.13,45.71 62.11,45.48 58.18,43.12 C 57.26,42.05 56.32,40.98 55.34,39.94 C 54.9,38.61 54.45,37.28 53.98,35.96 C 54.07,34.63 54.17,33.3 54.3,31.97 C 55.52,29.92 56.74,27.87 58.07,25.89 z"
       id="path35"
       style="opacity:1;fill:#fafcfe" />
  </g>
  <g
     id="#84a8fdff">
    <path
       d="M 71.87,26.81 C 83.62,25.18 95.49,26.09 107.27,26.82 C 109.17,28.79 110.81,30.99 112.35,33.25 C 99.98,31.42 87.43,31.87 74.97,32.2 C 73.84,30.45 72.85,28.63 71.87,26.81 z"
       id="path38"
       style="opacity:1;fill:#84a8fd" />
  </g>
  <g
     id="#749bf4ff">
    <path
       d="M 15.98,33.08 C 28.03,28.43 41.92,28.81 54.3,31.97 C 54.17,33.3 54.07,34.63 53.98,35.96 C 40.15,36.77 24.97,30.42 12.72,38.86 C 13.58,36.82 14.68,34.89 15.98,33.08 z"
       id="path41"
       style="opacity:1;fill:#749bf4" />
  </g>
  <g
     id="#6f95eeff">
    <path
       d="M 74.97,32.2 C 87.43,31.87 99.98,31.42 112.35,33.25 C 113.83,35.39 114.93,37.76 116,40.13 C 103.52,32.83 87.97,39.55 74.39,38.2 C 74.73,36.21 74.91,34.21 74.97,32.2 z"
       id="path44"
       style="opacity:1;fill:#6f95ee" />
  </g>
  <g
     id="#648be4ff">
    <path
       d="M 12.72,38.86 C 24.97,30.42 40.15,36.77 53.98,35.96 C 54.45,37.28 54.9,38.61 55.34,39.94 C 43.91,41.06 32.49,38.66 21.08,38.25 C 17.22,38.69 14.7,42.13 11.09,43.26 C 11.56,41.76 12.06,40.28 12.72,38.86 z"
       id="path47"
       style="opacity:1;fill:#648be4" />
  </g>
  <g
     id="#5c82dcff">
    <path
       d="M 74.39,38.2 C 87.97,39.55 103.52,32.83 116,40.13 C 116.76,41.61 117.02,43.27 117.22,44.91 C 114.89,43.77 112.76,41.78 110.02,41.93 C 96.99,42.05 83.97,45.38 70.96,43.08 C 72.15,41.48 73.33,39.88 74.39,38.2 z"
       id="path50"
       style="opacity:1;fill:#5c82dc" />
  </g>
  <g
     id="#3a62bcff">
    <path
       d="M 7.2,56.27 C 11.13,52.11 12.68,42.91 19.93,45.13 C 50.18,49.34 80.93,49.16 111.22,45.46 C 116.64,46.75 122.36,50.73 122.08,57.1 C 121.84,61.81 122.5,66.65 121.39,71.29 C 121.25,69.25 121.13,67.21 120.94,65.18 C 120.23,59.92 118.91,54.39 115.75,50.05 C 101.4,49.85 87.28,52.96 72.96,53.47 C 67.32,53.05 61.65,52.97 56.03,53.59 C 42.42,51.89 28.73,50.28 15.1,49.03 C 11.26,51.11 10.12,56.56 9.77,60.75 C 5.77,60.76 7.11,65.04 6.87,67.92 C 5.63,64.04 5.9,60.04 7.2,56.27 z"
       id="path53"
       style="opacity:1;fill:#3a62bc" />
  </g>
  <g
     id="#284ea8ff">
    <path
       d="M 9.77,60.75 C 10.12,56.56 11.26,51.11 15.1,49.03 C 28.73,50.28 42.42,51.89 56.03,53.59 L 55.91,54.58 C 55.54,57.07 55.21,59.56 54.92,62.06 C 41.43,61.77 29.01,55.77 16,53 C 11.76,52.52 12.95,59.39 9.77,60.75 z"
       id="path56"
       style="opacity:1;fill:#284ea8" />
  </g>
  <g
     id="#274ea8ff">
    <path
       d="M 72.96,53.47 C 87.28,52.96 101.4,49.85 115.75,50.05 C 118.91,54.39 120.23,59.92 120.94,65.18 C 115.69,65.22 119.41,53.34 112.07,55.08 C 99.88,59.47 87.15,63.21 74.08,63.06 C 73.93,60.17 74.08,57.23 73.2,54.45 L 72.96,53.47 z"
       id="path59"
       style="opacity:1;fill:#274ea8" />
  </g>
  <g
     id="#4da3ebff">
    <path
       d="M 6.05,51.13 L 6.96,51.02 C 7.03,52.77 7.13,54.52 7.2,56.27 C 5.9,60.04 5.63,64.04 6.87,67.92 C 7.24,80.61 12.9,93.06 21.63,102.19 C 26.42,108.53 33.56,112.78 40.59,116.24 C 43.98,118.38 48.25,118.25 51.95,117.02 C 49.65,119.7 53.73,120 55.64,120.42 C 62.57,121.24 69.83,121.71 76.6,119.59 C 78.49,119.47 77.57,118.11 77.06,117.02 C 80.81,117.78 84.81,118.51 88.13,116.14 C 91.95,114.01 96.4,112.6 99.17,109.03 C 106.74,103.89 112.42,96.28 116.13,87.98 C 118.58,82.67 120.11,76.98 121.39,71.29 C 122.5,66.65 121.84,61.81 122.08,57.1 L 123.09,56.93 C 128.14,94.44 92.3,129.04 54.93,123.05 L 54.23,122.82 C 24.3,117.5 1.66,88.29 4.91,57.89 C 5.17,55.62 5.58,53.37 6.05,51.13 z"
       id="path62"
       style="opacity:1;fill:#4da3eb" />
  </g>
  <g
     id="#193f98ff">
    <path
       d="M 9.77,60.75 C 12.95,59.39 11.76,52.52 16,53 C 29.01,55.77 41.43,61.77 54.92,62.06 C 54.95,64.73 54.97,67.4 54.98,70.08 C 49.22,69.7 43.5,68.9 37.78,68.16 C 33.82,67.56 29.91,66.65 25.96,65.95 C 21.94,65.15 18.09,63.71 14.15,62.63 C 12.86,62.47 10.27,62.13 8.97,61.97 C 9.88,68.51 9.71,76.4 14.66,81.47 C 16.66,85.18 18.19,89.19 20.8,92.54 C 22.45,94.81 24.12,97.05 25.9,99.21 C 26.95,100.48 28.01,101.74 29.08,102.99 C 15.72,96.13 11.81,80.68 6.87,67.92 C 7.11,65.04 5.77,60.76 9.77,60.75 z"
       id="path65"
       style="opacity:1;fill:#193f98" />
  </g>
  <g
     id="#ffffffff">
    <path
       d="M 56.03,53.59 C 61.65,52.97 67.32,53.05 72.96,53.47 L 73.2,54.45 C 72.98,69.97 72.82,85.5 73.13,101.02 C 72.88,101.34 72.38,101.99 72.12,102.32 C 67.05,102.17 61.96,101.87 56.89,102.28 C 56.62,101.97 56.07,101.35 55.8,101.04 C 56.14,85.55 56.03,70.06 55.91,54.58 L 56.03,53.59 z"
       id="path68"
       style="opacity:1;fill:#ffffff" />
  </g>
  <g
     id="#04052e73">
    <path
       d="M 4.03,73.01 C 2.84,69.2 1.39,57.98 4,53.97 C 3.98,55.33 3.98,56.7 3.98,58.07 C 3.97,63.05 3.94,68.03 4.03,73.01 z"
       id="path71"
       style="opacity:0.45;fill:#04052e" />
  </g>
  <g
     id="#0405307c">
    <path
       d="M 124.01,53.97 C 125.04,58.01 126.81,68.96 123.86,73.18 C 123.97,67.8 124.06,62.41 124.02,57.03 C 124.02,56.27 124.01,54.74 124.01,53.97 z"
       id="path74"
       style="opacity:0.48999999;fill:#040530" />
  </g>
  <g
     id="#b8c3dcff">
    <path
       d="M 54.92,62.06 C 55.21,59.56 55.54,57.07 55.91,54.58 C 56.03,70.06 56.14,85.55 55.8,101.04 L 54.94,100.65 C 54.97,95.37 55.04,90.1 54.97,84.83 C 54.99,79.91 55.06,74.99 54.98,70.08 C 54.97,67.4 54.95,64.73 54.92,62.06 z"
       id="path77"
       style="opacity:1;fill:#b8c3dc" />
  </g>
  <g
     id="#b9c3dcff">
    <path
       d="M 73.2,54.45 C 74.08,57.23 73.93,60.17 74.08,63.06 C 74.06,64.8 74.03,68.28 74.02,70.03 C 73.98,74.62 73.96,79.23 74.03,83.83 C 74,89.47 74.01,95.1 74.03,100.74 L 73.13,101.02 C 72.82,85.5 72.98,69.97 73.2,54.45 z"
       id="path80"
       style="opacity:1;fill:#b9c3dc" />
  </g>
  <g
     id="#183e97ff">
    <path
       d="M 74.08,63.06 C 87.15,63.21 99.88,59.47 112.07,55.08 C 119.41,53.34 115.69,65.22 120.94,65.18 C 121.13,67.21 121.25,69.25 121.39,71.29 C 120.11,76.98 118.58,82.67 116.13,87.98 C 108.34,97.08 100.23,106.29 88.84,110.98 C 81.94,112.02 77.87,104.89 71.59,103.05 L 72.12,102.32 C 72.38,101.99 72.88,101.34 73.13,101.02 L 74.03,100.74 C 79.92,100.78 83.53,106.09 88.1,109.04 C 96.36,106.45 103.29,100.2 108.31,93.26 C 114.17,85.89 120.54,74.41 118.18,66.02 C 111.13,65.98 104.29,68.1 97.36,69.17 C 89.58,69.34 81.82,70.25 74.02,70.03 C 74.03,68.28 74.06,64.8 74.08,63.06 z"
       id="path83"
       style="opacity:1;fill:#183e97" />
  </g>
  <g
     id="#0a3674da">
    <path
       d="M 123.09,56.93 L 124.02,57.03 C 124.06,62.41 123.97,67.8 123.86,73.18 L 123.57,74.05 C 122.9,75.52 122.82,77.15 122.9,78.75 C 117.37,102.04 96.57,120.48 73,123.99 C 66.94,124.02 60.88,124.02 54.83,123.73 L 54.93,123.05 C 92.3,129.04 128.14,94.44 123.09,56.93 z"
       id="path86"
       style="opacity:0.85;fill:#0a3674" />
  </g>
  <g
     id="#0b3170d8">
    <path
       d="M 3.98,58.07 L 4.91,57.89 C 1.66,88.29 24.3,117.5 54.23,122.82 C 52.9,122.91 51.57,123.01 50.25,123.14 C 26.72,117.39 7.24,97.24 4.03,73.01 C 3.94,68.03 3.97,63.05 3.98,58.07 z"
       id="path89"
       style="opacity:0.85;fill:#0b3170" />
  </g>
  <g
     id="#13306dff">
    <path
       d="M 8.97,61.97 C 10.27,62.13 12.86,62.47 14.15,62.63 C 9.14,66.78 13.75,75.45 14.66,81.47 C 9.71,76.4 9.88,68.51 8.97,61.97 z"
       id="path92"
       style="opacity:1;fill:#13306d" />
  </g>
  <g
     id="#00123cff">
    <path
       d="M 14.66,81.47 C 13.75,75.45 9.14,66.78 14.15,62.63 C 18.09,63.71 21.94,65.15 25.96,65.95 C 27.62,68.23 30.96,72.22 27.1,74.14 C 21.7,75.62 20.64,84.02 14.66,81.47 z"
       id="path95"
       style="opacity:1;fill:#00123c" />
  </g>
  <g
     id="#001956ff">
    <path
       d="M 25.96,65.95 C 29.91,66.65 33.82,67.56 37.78,68.16 C 40.19,70.14 42.62,72.08 44.93,74.17 C 43.99,77.76 39.77,78.25 37.15,80.19 C 31.31,83.78 27.28,90.13 20.8,92.54 C 18.19,89.19 16.66,85.18 14.66,81.47 C 20.64,84.02 21.7,75.62 27.1,74.14 C 30.96,72.22 27.62,68.23 25.96,65.95 z"
       id="path98"
       style="opacity:1;fill:#001956" />
  </g>
  <g
     id="#01174bff">
    <path
       d="M 97.36,69.17 C 104.29,68.1 111.13,65.98 118.18,66.02 C 116.37,73.34 115.93,85.78 107.07,88.05 C 102.38,83.9 97.19,80.41 92.13,76.75 C 92.05,73.39 95.82,71.81 97.36,69.17 z"
       id="path101"
       style="opacity:1;fill:#01174b" />
  </g>
  <g
     id="#012069ff">
    <path
       d="M 118.18,66.02 C 120.54,74.41 114.17,85.89 108.31,93.26 C 105.15,95.09 102.79,99.36 98.42,97.7 C 91.73,91.15 83.61,84.92 74.03,83.83 C 73.96,79.23 73.98,74.62 74.02,70.03 C 81.82,70.25 89.58,69.34 97.36,69.17 C 95.82,71.81 92.05,73.39 92.13,76.75 C 97.19,80.41 102.38,83.9 107.07,88.05 C 115.93,85.78 116.37,73.34 118.18,66.02 z"
       id="path104"
       style="opacity:1;fill:#012069" />
  </g>
  <g
     id="#2756b5ff">
    <path
       d="M 6.87,67.92 C 11.81,80.68 15.72,96.13 29.08,102.99 C 33.1,105.28 36.69,108.28 40.82,110.37 C 47.28,114.63 51.43,104.78 57.46,103.08 C 62.17,103.04 66.88,102.99 71.59,103.05 C 77.87,104.89 81.94,112.02 88.84,110.98 C 100.23,106.29 108.34,97.08 116.13,87.98 C 112.42,96.28 106.74,103.89 99.17,109.03 C 92.15,112.33 82.51,116.25 76.14,109.87 C 67.68,103.17 56.4,106.84 48.76,112.82 C 37.73,115.93 30.63,105.99 21.63,102.19 C 12.9,93.06 7.24,80.61 6.87,67.92 z"
       id="path107"
       style="opacity:1;fill:#2756b5" />
  </g>
  <g
     id="#001f6bff">
    <path
       d="M 37.78,68.16 C 43.5,68.9 49.22,69.7 54.98,70.08 C 55.06,74.99 54.99,79.91 54.97,84.83 C 45.47,85.59 37.68,91.7 31.18,98.19 C 29.79,99.71 27.75,99.66 25.9,99.21 C 24.12,97.05 22.45,94.81 20.8,92.54 C 27.28,90.13 31.31,83.78 37.15,80.19 C 39.77,78.25 43.99,77.76 44.93,74.17 C 42.62,72.08 40.19,70.14 37.78,68.16 z"
       id="path110"
       style="opacity:1;fill:#001f6b" />
  </g>
  <g
     id="#04092f74">
    <path
       d="M 122.9,78.75 C 122.82,77.15 122.9,75.52 123.57,74.05 C 124.61,75.19 124.95,78.73 122.9,78.75 z"
       id="path113"
       style="opacity:0.45;fill:#04092f" />
  </g>
  <g
     id="#022880ff">
    <path
       d="M 74.03,83.83 C 83.61,84.92 91.73,91.15 98.42,97.7 C 102.79,99.36 105.15,95.09 108.31,93.26 C 103.29,100.2 96.36,106.45 88.1,109.04 C 83.53,106.09 79.92,100.78 74.03,100.74 C 74.01,95.1 74,89.47 74.03,83.83 z"
       id="path116"
       style="opacity:1;fill:#022880" />
    <path
       d="M 31.18,98.19 C 37.68,91.7 45.47,85.59 54.97,84.83 C 55.04,90.1 54.97,95.37 54.94,100.65 C 49.03,101.9 45.01,106.4 40.82,110.37 C 36.69,108.28 33.1,105.28 29.08,102.99 C 28.01,101.74 26.95,100.48 25.9,99.21 C 27.75,99.66 29.79,99.71 31.18,98.19 z"
       id="path118"
       style="opacity:1;fill:#022880" />
  </g>
  <g
     id="#183e98ff">
    <path
       d="M 40.82,110.37 C 45.01,106.4 49.03,101.9 54.94,100.65 L 55.8,101.04 C 56.07,101.35 56.62,101.97 56.89,102.28 L 57.46,103.08 C 51.43,104.78 47.28,114.63 40.82,110.37 z"
       id="path121"
       style="opacity:1;fill:#183e98" />
  </g>
  <g
     id="#3b6ccaff">
    <path
       d="M 21.63,102.19 C 30.63,105.99 37.73,115.93 48.76,112.82 C 56.4,106.84 67.68,103.17 76.14,109.87 C 82.51,116.25 92.15,112.33 99.17,109.03 C 96.4,112.6 91.95,114.01 88.13,116.14 C 79.05,115.48 70.8,109.64 61.68,110.69 C 55.06,114.11 47.52,114 40.59,116.24 C 33.56,112.78 26.42,108.53 21.63,102.19 z"
       id="path124"
       style="opacity:1;fill:#3b6cca" />
  </g>
  <g
     id="#b7c3e1ff">
    <path
       d="M 56.89,102.28 C 61.96,101.87 67.05,102.17 72.12,102.32 L 71.59,103.05 C 66.88,102.99 62.17,103.04 57.46,103.08 L 56.89,102.28 z"
       id="path127"
       style="opacity:1;fill:#b7c3e1" />
  </g>
  <g
     id="#5886ddff">
    <path
       d="M 61.68,110.69 C 70.8,109.64 79.05,115.48 88.13,116.14 C 84.81,118.51 80.81,117.78 77.06,117.02 C 68.82,115 60.13,114.23 51.95,117.02 C 48.25,118.25 43.98,118.38 40.59,116.24 C 47.52,114 55.06,114.11 61.68,110.69 z"
       id="path130"
       style="opacity:1;fill:#5886dd" />
  </g>
  <g
     id="#7eacf5ff">
    <path
       d="M 51.95,117.02 C 60.13,114.23 68.82,115 77.06,117.02 C 77.57,118.11 78.49,119.47 76.6,119.59 C 69.83,121.71 62.57,121.24 55.64,120.42 C 53.73,120 49.65,119.7 51.95,117.02 z"
       id="path133"
       style="opacity:1;fill:#7eacf5" />
  </g>
  <g
     id="#0125406b">
    <path
       d="M 50.25,123.14 C 51.57,123.01 52.9,122.91 54.23,122.82 L 54.93,123.05 L 54.83,123.73 C 53.62,124.46 50.72,124.63 50.25,123.14 z"
       id="path136"
       style="opacity:0.41999996;fill:#012540" />
  </g>
  <g
     id="#01203657">
    <path
       d="M 54.83,123.73 C 60.88,124.02 66.94,124.02 73,123.99 C 69.59,124.95 58.26,127.05 54.83,123.73 z"
       id="path139"
       style="opacity:0.33999999;fill:#012036" />
  </g>
</svg>
