<svg width="160" xmlns="http://www.w3.org/2000/svg" height="160" viewBox="0 0 128 128">
<path opacity=".68" fill="#06003a" d="m54.98,3.98c3.16-1.09 15.1-2.66 17.87,.03-5.95-.02-11.91-.02-17.87-.03z"/>
<path opacity=".95" fill="#192879" d="m46.33,6.23c2.22-2.03 5.77-1.92 8.65-2.25 5.96,.01 11.92,.01 17.87,.03l.35,.88-.96,.05c-8.84,.02-17.79-.47-26.41,1.99l.5-.7z"/>
<path opacity=".8" fill="#0b074d" d="m72.85,4.01c25.81,2.21 47.51,24.58 51.16,49.96 0,.77 .01,2.3 .01,3.06l-.93-.1c-2.43-26.09-24.19-48.07-49.89-52.04l-.35-.88z"/>
<path fill="#5082d7" d="m45.83,6.93c8.62-2.46 17.57-1.97 26.41-1.99-.34,.47-1.02,1.43-1.36,1.91-12.96-.97-26.19,1.27-37.16,8.48-2.97,1.7-5.44,4.11-8.07,6.26-2.56,1.48-4.12,4.03-5.84,6.33-1.42,1.61-2.65,3.38-3.83,5.16-1.3,1.81-2.4,3.74-3.26,5.78-.66,1.42-1.16,2.9-1.63,4.4 3.61-1.13 6.13-4.57 9.99-5.01 11.41,.41 22.83,2.81 34.26,1.69 .98,1.04 1.92,2.11 2.84,3.18-12.72,2.43-25.46-.85-38.11-1.92-5.56,1.19-8.8,6.52-13.11,9.82l-.91,.11c4.02-20.59 20.08-37.51 39.78-44.2z"/>
<path fill="#4671cb" d="m72.24,4.94l.96-.05c25.7,3.97 47.46,25.95 49.89,52.04l-1.01,.17c.28-6.37-5.44-10.35-10.86-11.64-30.29,3.7-61.04,3.88-91.29-.33-7.25-2.22-8.8,6.98-12.73,11.14-.07-1.75-.17-3.5-.24-5.25 4.31-3.3 7.55-8.63 13.11-9.82 12.65,1.07 25.39,4.35 38.11,1.92 3.93,2.36 8.95,2.59 12.78-.04 13.01,2.3 26.03-1.03 39.06-1.15 2.74-.15 4.87,1.84 7.2,2.98-.2-1.64-.46-3.3-1.22-4.78-1.07-2.37-2.17-4.74-3.65-6.88-1.54-2.26-3.18-4.46-5.08-6.43-1.39-2.05-2.85-4.13-4.95-5.51-2.59-2.12-5.08-4.41-8.05-5.98-7.13-4.41-15.04-7.44-23.39-8.48 .34-.48 1.02-1.44 1.36-1.91z"/>
<path opacity=".8" fill="#0c0a4f" d="m4,53.97c3.39-21.92 20.27-43.24 42.33-47.74l-.5,.7c-19.7,6.69-35.76,23.61-39.78,44.2-.47,2.24-.88,4.49-1.14,6.76l-.93,.18c0-1.37 0-2.74 .02-4.1z"/>
<path fill="#c5d6fe" d="m33.72,15.33c10.97-7.21 24.2-9.45 37.16-8.48 8.35,1.04 16.26,4.07 23.39,8.48-20.07-1.44-40.58-2.02-60.55,0z"/>
<path fill="#b1c8ff" d="m33.72,15.33c19.97-2.02 40.48-1.44 60.55,0 2.97,1.57 5.46,3.86 8.05,5.98-25.28-1.62-51.34-2.79-76.67,.28 2.63-2.15 5.1-4.56 8.07-6.26z"/>
<path fill="#9dbafe" d="m25.65,21.59c25.33-3.07 51.39-1.9 76.67-.28 2.1,1.38 3.56,3.46 4.95,5.51-11.78-.73-23.65-1.64-35.4-.01-4.23-2.24-9.28-2.23-13.8-.92-12.68-.76-26.23-3.27-38.26,2.03 1.72-2.3 3.28-4.85 5.84-6.33z"/>
<path fill="#88abfe" d="m19.81,27.92c12.03-5.3 25.58-2.79 38.26-2.03-1.33,1.98-2.55,4.03-3.77,6.08-12.38-3.16-26.27-3.54-38.32,1.11 1.18-1.78 2.41-3.55 3.83-5.16z"/>
<path fill="#fafcfe" d="m58.07,25.89c4.52-1.31 9.57-1.32 13.8,.92 .98,1.82 1.97,3.64 3.1,5.39-.06,2.01-.24,4.01-.58,6-1.06,1.68-2.24,3.28-3.43,4.88-3.83,2.63-8.85,2.4-12.78,.04-.92-1.07-1.86-2.14-2.84-3.18-.44-1.33-.89-2.66-1.36-3.98 .09-1.33 .19-2.66 .32-3.99 1.22-2.05 2.44-4.1 3.77-6.08z"/>
<path fill="#84a8fd" d="m71.87,26.81c11.75-1.63 23.62-.72 35.4,.01 1.9,1.97 3.54,4.17 5.08,6.43-12.37-1.83-24.92-1.38-37.38-1.05-1.13-1.75-2.12-3.57-3.1-5.39z"/>
<path fill="#749bf4" d="m15.98,33.08c12.05-4.65 25.94-4.27 38.32-1.11-.13,1.33-.23,2.66-.32,3.99-13.83,.81-29.01-5.54-41.26,2.9 .86-2.04 1.96-3.97 3.26-5.78z"/>
<path fill="#6f95ee" d="m74.97,32.2c12.46-.33 25.01-.78 37.38,1.05 1.48,2.14 2.58,4.51 3.65,6.88-12.48-7.3-28.03-.58-41.61-1.93 .34-1.99 .52-3.99 .58-6z"/>
<path fill="#648be4" d="m12.72,38.86c12.25-8.44 27.43-2.09 41.26-2.9 .47,1.32 .92,2.65 1.36,3.98-11.43,1.12-22.85-1.28-34.26-1.69-3.86,.44-6.38,3.88-9.99,5.01 .47-1.5 .97-2.98 1.63-4.4z"/>
<path fill="#5c82dc" d="m74.39,38.2c13.58,1.35 29.13-5.37 41.61,1.93 .76,1.48 1.02,3.14 1.22,4.78-2.33-1.14-4.46-3.13-7.2-2.98-13.03,.12-26.05,3.45-39.06,1.15 1.19-1.6 2.37-3.2 3.43-4.88z"/>
<path fill="#3a62bc" d="m7.2,56.27c3.93-4.16 5.48-13.36 12.73-11.14 30.25,4.21 61,4.03 91.29,.33 5.42,1.29 11.14,5.27 10.86,11.64-.24,4.71 .42,9.55-.69,14.19-.14-2.04-.26-4.08-.45-6.11-.71-5.26-2.03-10.79-5.19-15.13-14.35-.2-28.47,2.91-42.79,3.42-5.64-.42-11.31-.5-16.93,.12-13.61-1.7-27.3-3.31-40.93-4.56-3.84,2.08-4.98,7.53-5.33,11.72-4,.01-2.66,4.29-2.9,7.17-1.24-3.88-.97-7.88 .33-11.65z"/>
<path fill="#284ea8" d="m9.77,60.75c.35-4.19 1.49-9.64 5.33-11.72 13.63,1.25 27.32,2.86 40.93,4.56l-.12,.99c-.37,2.49-.7,4.98-.99,7.48-13.49-.29-25.91-6.29-38.92-9.06-4.24-.48-3.05,6.39-6.23,7.75z"/>
<path fill="#274ea8" d="m72.96,53.47c14.32-.51 28.44-3.62 42.79-3.42 3.16,4.34 4.48,9.87 5.19,15.13-5.25,.04-1.53-11.84-8.87-10.1-12.19,4.39-24.92,8.13-37.99,7.98-.15-2.89 0-5.83-.88-8.61l-.24-.98z"/>
<path fill="#4da3eb" d="m6.05,51.13l.91-.11c.07,1.75 .17,3.5 .24,5.25-1.3,3.77-1.57,7.77-.33,11.65 .37,12.69 6.03,25.14 14.76,34.27 4.79,6.34 11.93,10.59 18.96,14.05 3.39,2.14 7.66,2.01 11.36,.78-2.3,2.68 1.78,2.98 3.69,3.4 6.93,.82 14.19,1.29 20.96-.83 1.89-.12 .97-1.48 .46-2.57 3.75,.76 7.75,1.49 11.07-.88 3.82-2.13 8.27-3.54 11.04-7.11 7.57-5.14 13.25-12.75 16.96-21.05 2.45-5.31 3.98-11 5.26-16.69 1.11-4.64 .45-9.48 .69-14.19l1.01-.17c5.05,37.51-30.79,72.11-68.16,66.12l-.7-.23c-29.93-5.32-52.57-34.53-49.32-64.93 .26-2.27 .67-4.52 1.14-6.76z"/>
<path fill="#193f98" d="m9.77,60.75c3.18-1.36 1.99-8.23 6.23-7.75 13.01,2.77 25.43,8.77 38.92,9.06 .03,2.67 .05,5.34 .06,8.02-5.76-.38-11.48-1.18-17.2-1.92-3.96-.6-7.87-1.51-11.82-2.21-4.02-.8-7.87-2.24-11.81-3.32-1.29-.16-3.88-.5-5.18-.66 .91,6.54 .74,14.43 5.69,19.5 2,3.71 3.53,7.72 6.14,11.07 1.65,2.27 3.32,4.51 5.1,6.67 1.05,1.27 2.11,2.53 3.18,3.78-13.36-6.86-17.27-22.31-22.21-35.07 .24-2.88-1.1-7.16 2.9-7.17z"/>
<path fill="#fff" d="m56.03,53.59c5.62-.62 11.29-.54 16.93-.12l.24,.98c-.22,15.52-.38,31.05-.07,46.57-.25,.32-.75,.97-1.01,1.3-5.07-.15-10.16-.45-15.23-.04-.27-.31-.82-.93-1.09-1.24 .34-15.49 .23-30.98 .11-46.46l.12-.99z"/>
<path opacity=".45" fill="#04052e" d="m4.03,73.01c-1.19-3.81-2.64-15.03-.03-19.04-.02,1.36-.02,2.73-.02,4.1-.01,4.98-.04,9.96 .05,14.94z"/>
<path opacity=".49" fill="#040530" d="m124.01,53.97c1.03,4.04 2.8,14.99-.15,19.21 .11-5.38 .2-10.77 .16-16.15 0-.76-.01-2.29-.01-3.06z"/>
<path fill="#b8c3dc" d="m54.92,62.06c.29-2.5 .62-4.99 .99-7.48 .12,15.48 .23,30.97-.11,46.46l-.86-.39c.03-5.28 .1-10.55 .03-15.82 .02-4.92 .09-9.84 .01-14.75-.01-2.68-.03-5.35-.06-8.02z"/>
<path fill="#b9c3dc" d="m73.2,54.45c.88,2.78 .73,5.72 .88,8.61-.02,1.74-.05,5.22-.06,6.97-.04,4.59-.06,9.2 .01,13.8-.03,5.64-.02,11.27 0,16.91l-.9,.28c-.31-15.52-.15-31.05 .07-46.57z"/>
<path fill="#183e97" d="m74.08,63.06c13.07,.15 25.8-3.59 37.99-7.98 7.34-1.74 3.62,10.14 8.87,10.1 .19,2.03 .31,4.07 .45,6.11-1.28,5.69-2.81,11.38-5.26,16.69-7.79,9.1-15.9,18.31-27.29,23-6.9,1.04-10.97-6.09-17.25-7.93l.53-.73c.26-.33 .76-.98 1.01-1.3l.9-.28c5.89,.04 9.5,5.35 14.07,8.3 8.26-2.59 15.19-8.84 20.21-15.78 5.86-7.37 12.23-18.85 9.87-27.24-7.05-.04-13.89,2.08-20.82,3.15-7.78,.17-15.54,1.08-23.34,.86 .01-1.75 .04-5.23 .06-6.97z"/>
<path opacity=".85" fill="#0a3674" d="m123.09,56.93l.93,.1c.04,5.38-.05,10.77-.16,16.15l-.29,.87c-.67,1.47-.75,3.1-.67,4.7-5.53,23.29-26.33,41.73-49.9,45.24-6.06,.03-12.12,.03-18.17-.26l.1-.68c37.37,5.99 73.21-28.61 68.16-66.12z"/>
<path opacity=".85" fill="#0b3170" d="m3.98,58.07l.93-.18c-3.25,30.4 19.39,59.61 49.32,64.93-1.33,.09-2.66,.19-3.98,.32-23.53-5.75-43.01-25.9-46.22-50.13-.09-4.98-.06-9.96-.05-14.94z"/>
<path fill="#13306d" d="m8.97,61.97c1.3,.16 3.89,.5 5.18,.66-5.01,4.15-.4,12.82 .51,18.84-4.95-5.07-4.78-12.96-5.69-19.5z"/>
<path fill="#00123c" d="m14.66,81.47c-.91-6.02-5.52-14.69-.51-18.84 3.94,1.08 7.79,2.52 11.81,3.32 1.66,2.28 5,6.27 1.14,8.19-5.4,1.48-6.46,9.88-12.44,7.33z"/>
<path fill="#001956" d="m25.96,65.95c3.95,.7 7.86,1.61 11.82,2.21 2.41,1.98 4.84,3.92 7.15,6.01-.94,3.59-5.16,4.08-7.78,6.02-5.84,3.59-9.87,9.94-16.35,12.35-2.61-3.35-4.14-7.36-6.14-11.07 5.98,2.55 7.04-5.85 12.44-7.33 3.86-1.92 .52-5.91-1.14-8.19z"/>
<path fill="#01174b" d="m97.36,69.17c6.93-1.07 13.77-3.19 20.82-3.15-1.81,7.32-2.25,19.76-11.11,22.03-4.69-4.15-9.88-7.64-14.94-11.3-.08-3.36 3.69-4.94 5.23-7.58z"/>
<path fill="#012069" d="m118.18,66.02c2.36,8.39-4.01,19.87-9.87,27.24-3.16,1.83-5.52,6.1-9.89,4.44-6.69-6.55-14.81-12.78-24.39-13.87-.07-4.6-.05-9.21-.01-13.8 7.8,.22 15.56-.69 23.34-.86-1.54,2.64-5.31,4.22-5.23,7.58 5.06,3.66 10.25,7.15 14.94,11.3 8.86-2.27 9.3-14.71 11.11-22.03z"/>
<path fill="#2756b5" d="m6.87,67.92c4.94,12.76 8.85,28.21 22.21,35.07 4.02,2.29 7.61,5.29 11.74,7.38 6.46,4.26 10.61-5.59 16.64-7.29 4.71-.04 9.42-.09 14.13-.03 6.28,1.84 10.35,8.97 17.25,7.93 11.39-4.69 19.5-13.9 27.29-23-3.71,8.3-9.39,15.91-16.96,21.05-7.02,3.3-16.66,7.22-23.03,.84-8.46-6.7-19.74-3.03-27.38,2.95-11.03,3.11-18.13-6.83-27.13-10.63-8.73-9.13-14.39-21.58-14.76-34.27z"/>
<path fill="#001f6b" d="m37.78,68.16c5.72,.74 11.44,1.54 17.2,1.92 .08,4.91 .01,9.83-.01,14.75-9.5,.76-17.29,6.87-23.79,13.36-1.39,1.52-3.43,1.47-5.28,1.02-1.78-2.16-3.45-4.4-5.1-6.67 6.48-2.41 10.51-8.76 16.35-12.35 2.62-1.94 6.84-2.43 7.78-6.02-2.31-2.09-4.74-4.03-7.15-6.01z"/>
<path opacity=".45" fill="#04092f" d="m122.9,78.75c-.08-1.6 0-3.23 .67-4.7 1.04,1.14 1.38,4.68-.67,4.7z"/>
<g fill="#022880">
<path d="m74.03,83.83c9.58,1.09 17.7,7.32 24.39,13.87 4.37,1.66 6.73-2.61 9.89-4.44-5.02,6.94-11.95,13.19-20.21,15.78-4.57-2.95-8.18-8.26-14.07-8.3-.02-5.64-.03-11.27 0-16.91z"/>
<path d="m31.18,98.19c6.5-6.49 14.29-12.6 23.79-13.36 .07,5.27 0,10.54-.03,15.82-5.91,1.25-9.93,5.75-14.12,9.72-4.13-2.09-7.72-5.09-11.74-7.38-1.07-1.25-2.13-2.51-3.18-3.78 1.85,.45 3.89,.5 5.28-1.02z"/>
</g>
<path fill="#183e98" d="m40.82,110.37c4.19-3.97 8.21-8.47 14.12-9.72l.86,.39c.27,.31 .82,.93 1.09,1.24l.57,.8c-6.03,1.7-10.18,11.55-16.64,7.29z"/>
<path fill="#3b6cca" d="m21.63,102.19c9,3.8 16.1,13.74 27.13,10.63 7.64-5.98 18.92-9.65 27.38-2.95 6.37,6.38 16.01,2.46 23.03-.84-2.77,3.57-7.22,4.98-11.04,7.11-9.08-.66-17.33-6.5-26.45-5.45-6.62,3.42-14.16,3.31-21.09,5.55-7.03-3.46-14.17-7.71-18.96-14.05z"/>
<path fill="#b7c3e1" d="m56.89,102.28c5.07-.41 10.16-.11 15.23,.04l-.53,.73c-4.71-.06-9.42-.01-14.13,.03l-.57-.8z"/>
<path fill="#5886dd" d="m61.68,110.69c9.12-1.05 17.37,4.79 26.45,5.45-3.32,2.37-7.32,1.64-11.07,.88-8.24-2.02-16.93-2.79-25.11,0-3.7,1.23-7.97,1.36-11.36-.78 6.93-2.24 14.47-2.13 21.09-5.55z"/>
<path fill="#7eacf5" d="m51.95,117.02c8.18-2.79 16.87-2.02 25.11,0 .51,1.09 1.43,2.45-.46,2.57-6.77,2.12-14.03,1.65-20.96,.83-1.91-.42-5.99-.72-3.69-3.4z"/>
<path opacity=".42" fill="#012540" d="m50.25,123.14c1.32-.13 2.65-.23 3.98-.32l.7,.23-.1,.68c-1.21,.73-4.11,.9-4.58-.59z"/>
<path opacity=".34" fill="#012036" d="m54.83,123.73c6.05,.29 12.11,.29 18.17,.26-3.41,.96-14.74,3.06-18.17-.26z"/>
</svg>
