<svg width="160" xmlns="http://www.w3.org/2000/svg" height="160" viewBox="0 0 128 128">
<path opacity=".35" fill="#222" d="m19.8,24.73c10.05-16.34 29.98-18.99 47.2-21.71 7.93-.23 18.06-.91 24,5.11-12.78-5.05-26.3-4.73-39.27-.39-12.06,2.32-25.4,7.15-30.89,19.14-3.71,8.07-.32,16.72 3.62,23.93-.11,.49-.33,1.46-.43,1.95l-.81,.3c-3.87-8.64-7.84-18.84-3.42-28.33z"/>
<path opacity=".59" fill="#414141" d="m51.73,7.74c12.97-4.34 26.49-4.66 39.27,.39 1.41,.28 2.31,1.64 3.1,2.73 1.15,1.94 2.21,3.92 3.17,5.96-.55-.21-1.64-.63-2.19-.85-1.91-3.06-3.94-7.07-8.07-7.11-10.67-6.64-22.76-1.82-34.22-.86l-1.06-.26z"/>
<path opacity=".85" fill="#737473" d="m52.79,8c11.46-.96 23.55-5.78 34.22,.86-11.26-2.28-22.56-1.63-33.85,.19l-.37-1.05z"/>
<path fill="#b6b3bb" d="m53.16,9.05c11.29-1.82 22.59-2.47 33.85-.19 2.29,2.78 5.29,4.86 8.07,7.11 2.78,10 1.81,20.26-1.13,30.12-.99,.38-2,.72-3.02,1.01 1.69-4.31 4.18-8.55 4-13.32 6.05-16.81-12.22-28.56-26.86-24.78-12.93,2.66-31.25,1.69-36.11,16.97-.8,7.47-5.98,18.94 1.05,24.27 6.51-3.5-.27-13.16 5.83-17.36-.17,4.66-1.09,9.31-.58,13.97-1.76,3.17-4.84,4.77-8.45,4.5-6.88-7.9-9.69-22.58-.23-29.72 1.44-1.33 2.77-2.81 3.61-4.6 5.39-5.29 13.31-5.21 19.97-7.98z"/>
<path opacity=".73" fill="#595859" d="m20.84,26.88c5.49-11.99 18.83-16.82 30.89-19.14l1.06,.26 .37,1.05c-6.66,2.77-14.58,2.69-19.97,7.98-15.77,5.59-14.17,25.08-5.17,36.03-.44,.07-1.33,.22-1.78,.3-.61-.84-1.21-1.69-1.78-2.55-3.94-7.21-7.33-15.86-3.62-23.93z"/>
<path fill="#e0dce4" d="m31.96,25.97c4.86-15.28 23.18-14.31 36.11-16.97-1.13,1.87-5.21,5.07 1.91,3.96 5.5,1.99 13.32,1.78 16.3,7.78 2.95,4.99 2.8,11.28 1.27,16.69-.92,2.01-1.03,8.98 3.08,7.4 1.19-3.77 2.49-7.52 4.3-11.05 .18,4.77-2.31,9.01-4,13.32-1.91,.19-3.4-1.13-4.94-2.03-5.05-3.82 .62-9.77-1.3-14.77-5.42-16.31-29.75-12.76-39.71-3.31-3.3,.37-5.45,2.73-6.14,5.89-6.1,4.2 .68,13.86-5.83,17.36-7.03-5.33-1.85-16.8-1.05-24.27z"/>
<path fill="#f2f1f3" d="m68.07,9c14.64-3.78 32.91,7.97 26.86,24.78-1.81,3.53-3.11,7.28-4.3,11.05-4.11,1.58-4-5.39-3.08-7.4 1.53-5.41 1.68-11.7-1.27-16.69-2.98-6-10.8-5.79-16.3-7.78-7.12,1.11-3.04-2.09-1.91-3.96z"/>
<path opacity=".86" fill="#777" d="m87.01,8.86c4.13,.04 6.16,4.05 8.07,7.11-2.78-2.25-5.78-4.33-8.07-7.11z"/>
<path opacity=".3" fill="#2c1b0a" d="m94.1,10.86c10.04,6.25 8.08,21.86 4.51,31.8-3.18,6.74 7.79,5.17 10.3,9.56 1.54,9.34-4.03,17.56-3.84,26.78 .36,11.31-1.13,22.82 .6,34.04-.19,.95-.23,3.13-1.66,2.82-1.43-20.01-2.12-40.57 3.89-59.98 .85-6.46-8.53-4.57-11.27-8.91 1.43-9.86 6.14-20.78 .64-30.15-.96-2.04-2.02-4.02-3.17-5.96z"/>
<path opacity=".83" fill="#7b7874" d="m95.08,15.97c.55,.22 1.64,.64 2.19,.85 1.54,10.63 .34,21.02-2.23,31.36-.04,.45-.14,1.37-.18,1.83-1.48-.56-.55-2.7-.91-3.92 2.94-9.86 3.91-20.12 1.13-30.12z"/>
<path opacity=".96" fill="#8a868f" d="m28.02,53.06c-9-10.95-10.6-30.44 5.17-36.03-.84,1.79-2.17,3.27-3.61,4.6-9.46,7.14-6.65,21.82 .23,29.72 .03,.41 .09,1.24 .11,1.65-.47,.02-1.42,.05-1.9,.06z"/>
<path opacity=".6" fill="#444343" d="m97.27,16.82c5.5,9.37 .79,20.29-.64,30.15-.4,.3-1.19,.91-1.59,1.21 2.57-10.34 3.77-20.73 2.23-31.36z"/>
<path fill="#bab5c1" d="m44.98,26.99c9.96-9.45 34.29-13 39.71,3.31 1.92,5-3.75,10.95 1.3,14.77-1.41-.24-2.81-.48-4.22-.7-1.68-6.12 2.23-13.38-2.53-18.61-5.77-4.96-14.49-4.13-21.48-3-4.38,1.01-8.43,3.09-12.78,4.23z"/>
<path opacity=".98" fill="#96919d" d="m57.76,22.76c6.99-1.13 15.71-1.96 21.48,3 4.76,5.23 .85,12.49 2.53,18.61-.35,.26-1.04,.78-1.39,1.04-2.66-4.92 2.8-10.44-.55-15.27-3.95-8.64-14.24-7.09-22.07-7.38z"/>
<path opacity=".86" fill="#787372" d="m44.98,26.99c4.35-1.14 8.4-3.22 12.78-4.23 7.83,.29 18.12-1.26 22.07,7.38 3.35,4.83-2.11,10.35 .55,15.27-1.23,1.68-3.16,2.55-5.15,2.97 .51-1.21 1.03-2.42 1.51-3.63 4.79-6.01 4.08-17.41-4.59-18.98-6.92-3.99-16.6-1.76-23.37,2.15-8.53,2.68-10.37,10.96-8.81,18.98 .02,1.41 .05,2.82 .09,4.23-1.44-.84-1.18-2.89-1.8-4.28-.51-4.66 .41-9.31 .58-13.97 2.22-1.78 4.32-3.7 6.14-5.89z"/>
<path opacity=".66" fill="#4d4c4e" d="m48.78,27.92c6.77-3.91 16.45-6.14 23.37-2.15-8.02-2.15-15.51,1.28-23.37,2.15z"/>
<path opacity=".4" fill="#32271d" d="m48.78,27.92c7.86-.87 15.35-4.3 23.37-2.15 7.37,4.2 5.54,12.46 3.76,19.31-8.14,3.54-17.41,.95-25.94,2.92-3.34-.04-8.13,2.8-10-1.1-1.56-8.02 .28-16.3 8.81-18.98m13.64-.35c-5.82,1.01-12.34,.71-17.21,4.62-4.11,3.61-4.68,9.78-2.99,14.75 9.35,1.3 18.46-4.02 27.71-2.12 6-.09 6.47-8.12 5.81-12.48-1.74-5.2-8.91-5.31-13.32-4.77z"/>
<path opacity=".7" fill="#4a494b" d="m72.15,25.77c8.67,1.57 9.38,12.97 4.59,18.98l-.83,.33c1.78-6.85 3.61-15.11-3.76-19.31z"/>
<path opacity=".97" fill="#b5b5b5" d="m38.84,32.88c.69-3.16 2.84-5.52 6.14-5.89-1.82,2.19-3.92,4.11-6.14,5.89z"/>
<path opacity=".97" fill="#cdaa77" d="m81.77,44.37c1.41,.22 2.81,.46 4.22,.7 1.54,.9 3.03,2.22 4.94,2.03 1.02-.29 2.03-.63 3.02-1.01 .36,1.22-.57,3.36 .91,3.92 1.91,.91 3.97,1.45 6.01,1.99 4.44,1.82 2.98,6.86 2.98,10.75-3.57,15.74-5.28,32.17-2.85,48.21l-.76,.32c-.2-.57-.61-1.71-.82-2.28-.24-1.89-.42-3.78-.61-5.67 .43-14.28-.37-28.88 3.58-42.78 3.4-8.86-8.09-7.88-13.16-8.78-15.56-3.08-31.17-1.74-46.53,1.36-1.79,0-4-.28-4.27,2.08-2.44-.09-4.87-.17-7.3-.23-.3-.49-.9-1.48-1.21-1.98-.02-.41-.08-1.24-.11-1.65 3.61,.27 6.69-1.33 8.45-4.5 .62,1.39 .36,3.44 1.8,4.28 5.48,.84 10.39-1.78 15.64-2.56 6.46-.05 13.18,1.48 19.53-.19 1.99-.42 3.92-1.29 5.15-2.97 .35-.26 1.04-.78 1.39-1.04z"/>
<path opacity=".71" fill="#825b2c" d="m49.97,48c8.53-1.97 17.8,.62 25.94-2.92l.83-.33c-.48,1.21-1,2.42-1.51,3.63-6.48-.09-13.11-1.12-19.53,.19-5.25,.78-10.16,3.4-15.64,2.56-.04-1.41-.07-2.82-.09-4.23 1.87,3.9 6.66,1.06 10,1.1z"/>
<path opacity=".61" fill="#704208" d="m95.04,48.18c.4-.3 1.19-.91 1.59-1.21 2.74,4.34 12.12,2.45 11.27,8.91-6.01,19.41-5.32,39.97-3.89,59.98-.31,.22-.94,.65-1.25,.87-22.3,7.09-47.47,11.26-70.1,3.48 21.09,3.5 42.97,3.94 63.48-2.98 2.76-1.19 8.04-.97 6.9-5.35-3.79-16.26-1.3-32.89 1.68-49.07 .87-4.48 3.57-12.38-3.85-10.81-2.04-.54-4.1-1.08-6.01-1.99 .04-.46 .14-1.38 .18-1.83z"/>
<path opacity=".82" fill="#ac8c63" d="m55.7,48.57c6.42-1.31 13.05-.28 19.53-.19-6.35,1.67-13.07,.14-19.53,.19z"/>
<path fill="#f2e0a3" d="m42.7,53.13c15.36-3.1 30.97-4.44 46.53-1.36-5.4,2.15-18.66-4.37-20.41,3.15-8.29-1.62-18.9,3.42-26.12-1.79z"/>
<path opacity=".61" fill="#704102" d="m24.46,50.81c.57,.86 1.17,1.71 1.78,2.55-1.3,3.34-5.41,3.01-8.06,4.68 6.64,18.43 10.24,37.96 10.17,57.58 .38,2.41 2.44,3.74 4.8,3.63l-.49,.96c-2.43,.07-4.98-.85-5.29-3.59-.42-19.29-3.14-38.72-10.14-56.79-1.89-4.79 5.88-3.2 6.8-7.07 .1-.49 .32-1.46 .43-1.95z"/>
<path fill="#f8f0cf" d="m68.82,54.92c1.75-7.52 15.01-1 20.41-3.15 5.07,.9 16.56-.08 13.16,8.78-3.95,13.9-3.15,28.5-3.58,42.78-5.26-12.19-3.9-27.84-2.14-41.35-.3-1.81-.53-4.55-2.76-4.92-8.27-1.45-16.73-1.62-25.09-2.14z"/>
<path opacity=".85" fill="#a97939" d="m100.87,52c7.42-1.57 4.72,6.33 3.85,10.81l-.87-.06c0-3.89 1.46-8.93-2.98-10.75z"/>
<path opacity=".32" fill="#371e00" d="m14.96,58.99c.02-4.12 5.42-4.34 8.26-5.93l.81-.3c-.92,3.87-8.69,2.28-6.8,7.07 7,18.07 9.72,37.5 10.14,56.79 .31,2.74 2.86,3.66 5.29,3.59 22.63,7.78 47.8,3.61 70.1-3.48-1.6,4.9-8.84,3.6-13.11,4.87-12.79,5.83-27.09,2.58-40.65,3.44-7.91,1.39-14.77-3.08-22.09-5.01-.91-10.14-1.88-20.28-3.5-30.34-.57-10.7-4.84-20.8-8.45-30.7z"/>
<path opacity=".86" fill="#ac6a05" d="m26.24,53.36c.45-.08 1.34-.23 1.78-.3 .48-.01 1.43-.04 1.9-.06 .31,.5 .91,1.49 1.21,1.98-.41,.22-1.23,.66-1.64,.87-.9,.26-1.79,.52-2.69,.79-3.66,.64-8.75,1.39-5.39,7.01 3.78,10.39 6.25,21.37 7.47,32.36 1.11,7.51-3.31,18.6 5.27,23.01l-1,.23c-2.36,.11-4.42-1.22-4.8-3.63 .07-19.62-3.53-39.15-10.17-57.58 2.65-1.67 6.76-1.34 8.06-4.68z"/>
<path fill="#fde07a" d="m38.43,55.21c.27-2.36 2.48-2.08 4.27-2.08 7.22,5.21 17.83,.17 26.12,1.79 8.36,.52 16.82,.69 25.09,2.14 2.23,.37 2.46,3.11 2.76,4.92-1.76,13.51-3.12,29.16 2.14,41.35 .19,1.89 .37,3.78 .61,5.67-4.6,2.81-2.6-5.93-4.25-9.02-2.47-12.05-2.3-24.15-.19-36.26 0-.44 .02-1.33 .03-1.78-2.01-5.84-11.09-4.23-16.17-4.92-.41-.05-1.24-.16-1.65-.21-12.8-2.36-26.06,.87-38.76-1.6z"/>
<path fill="#f8c638" d="m29.49,55.85c.41-.21 1.23-.65 1.64-.87 2.43,.06 4.86,.14 7.3,.23 12.7,2.47 25.96-.76 38.76,1.6-14.71,.6-29.52-.68-44.16,1.17-1.61,.35-2.51-1.24-3.54-2.13z"/>
<path fill="#feb902" d="m26.8,56.64c.9-.27 1.79-.53 2.69-.79 1.03,.89 1.93,2.48 3.54,2.13 14.64-1.85 29.45-.57 44.16-1.17 .41,.05 1.24,.16 1.65,.21 5.1,2.55 11.46,1.6 16.17,4.92-.01,.45-.03,1.34-.03,1.78-4.95,10.69-6.19,25.89 .19,36.26 .53,3.74-2.13,10.63 2.93,12.5-3.85,3.04-12.85,4.05-14.99,1.6 4.62-3.87 9.75-13.63 1.86-17.08-5.83-5.36-15.66-.75-20.82-6.31 .97-6.12 1.42-14.35-5.16-17.68-8.94-6.32-20.4-2.25-29.73,.76-5.21-3.85-6.67-12.04-2.46-17.13z"/>
<path fill="#ef9b00" d="m21.41,63.65c-3.36-5.62 1.73-6.37 5.39-7.01-4.21,5.09-2.75,13.28 2.46,17.13 9.33-3.01 20.79-7.08 29.73-.76 6.58,3.33 6.13,11.56 5.16,17.68 5.16,5.56 14.99,.95 20.82,6.31 7.89,3.45 2.76,13.21-1.86,17.08 2.14,2.45 11.14,1.44 14.99-1.6 .54-.3 1.6-.9 2.14-1.2l.76-.32c.08,.56 .24,1.68 .32,2.24-10.27,6.14-22.9,5.27-34.3,7.81-11.04,3.08-21.77-2.63-32.87-1.99-8.58-4.41-4.16-15.5-5.27-23.01-1.22-10.99-3.69-21.97-7.47-32.36m13.88,11.49c-1.04,1.05-2.76,2.08-2.24,3.84 1.78,8.58 3.89,17.16 3.01,26.02-1.21,4.07 1.43,7.43 4.23,9.81 13.27,.56 27.46,1.35 39.55-5.08-1.43-4.62-10.78-4.08-12.15-10.38-13.08-4.49-17.02-25.41-32.4-24.21z"/>
<path fill="#ffd235" d="m78.84,57.02c5.08,.69 14.16-.92 16.17,4.92-4.71-3.32-11.07-2.37-16.17-4.92z"/>
<path opacity=".84" fill="#a77a3d" d="m101,110.96c-2.43-16.04-.72-32.47 2.85-48.21l.87,.06c-2.98,16.18-5.47,32.81-1.68,49.07-.43,.33-1.29,.99-1.72,1.32-.08-.56-.24-1.68-.32-2.24z"/>
<path fill="#ffce39" d="m95.17,99.98c-6.38-10.37-5.14-25.57-.19-36.26-2.11,12.11-2.28,24.21 .19,36.26z"/>
<path fill="#ec8e00" d="m35.29,75.14c15.38-1.2 19.32,19.72 32.4,24.21 1.37,6.3 10.72,5.76 12.15,10.38-12.09,6.43-26.28,5.64-39.55,5.08-2.8-2.38-5.44-5.74-4.23-9.81 .88-8.86-1.23-17.44-3.01-26.02-.52-1.76 1.2-2.79 2.24-3.84z"/>
<path opacity=".13" fill="#150a00" d="m23.41,89.69c1.62,10.06 2.59,20.2 3.5,30.34-2.22-1.51-4.83-3.55-2.96-7.03-.25-7.77-1.82-15.56-.54-23.31z"/>
<path fill="#fac843" d="m95.17,99.98c1.65,3.09-.35,11.83 4.25,9.02 .21,.57 .62,1.71 .82,2.28-.54,.3-1.6,.9-2.14,1.2-5.06-1.87-2.4-8.76-2.93-12.5z"/>
<path opacity=".85" fill="#ad6902" d="m101.32,113.2c.43-.33 1.29-.99 1.72-1.32 1.14,4.38-4.14,4.16-6.9,5.35-20.51,6.92-42.39,6.48-63.48,2.98l.49-.96 1-.23c11.1-.64 21.83,5.07 32.87,1.99 11.4-2.54 24.03-1.67 34.3-7.81z"/>
</svg>
