<svg width="128" xmlns="http://www.w3.org/2000/svg" height="128" viewBox="0 0 48 32">
<defs/>
<g transform="matrix(.36563 0 0 .37424 .60707 -7.91159)">
<path fill="#fa9815" d="m57.63,37.56c5.65-8.17 11.73-16.05 18.06-23.7 1.76,9.42 1.59,19.06 3.46,28.47 5.25-.37 10.49-.9 15.65-1.94-.25,5.3-.15,10.61-.11,15.92 9.15,.46 18.29-.29 27.42-.77-1.46,1.34-2.85,2.74-4.41,3.95-7.9,5.36-15.79,10.72-23.46,16.41 1.43,2.03 2.8,4.09 4.12,6.19 3.97,6.56 8.2,12.99 11.65,19.84l-.77-.31c-5.44-2.09-10.74-4.52-16.13-6.73 1.33,.06 2.66,.11 3.99,.17 2.34,.53 4.68,1.09 7.03,1.65-1.52-3.62-3.2-7.18-5.44-10.41-2.48-3.54-4.14-7.54-6.22-11.31 1.43-1.23 2.87-2.45 4.32-3.65 5.46-4.31 11.5-7.89 16.42-12.88-6.72-.23-13.45-.12-20.17-.22-.77-4.75-.93-9.56-1.01-14.35-2.1,.12-4.2,.25-6.3,.31-2.95,.07-5.9,.14-8.82,.55-1.16-8.26-1.47-16.63-3.01-24.84-3.38,3.97-6.68,8.01-9.78,12.21-2.04,2.6-3.95,5.39-6.63,7.37-1.41,.2-2.71-.49-3.91-1.11-3.27-1.8-6.31-3.98-9.36-6.11-2.07,3.41-4.12,6.85-5.82,10.48-2.4,.61-4.99,1.54-7.39,.39-6.1-2.41-11.79-5.74-17.93-8.1 .91,1.61 1.82,3.23 2.72,4.84 1.25,3.76 2.53,7.51 4.36,11.03 .2,2.7 .27,5.4 .5,8.09-3.35,1.49-6.54,3.28-9.66,5.19 2.99,2.94 6.11,5.78 8.71,9.08 1.44,1.89 .61,4.42 .26,6.53-1.73,2.44-3.6,4.79-5.18,7.33-.27,.42-.8,1.25-1.07,1.67 7.48,.2 14.97,.05 22.45,.17l.22,.87c-.01,2.05-.13,4.1-.15,6.16-.37-2.06-.81-4.11-1.22-6.15-7.64,.03-15.26,.56-22.87,1.24-.57,.04-1.72,.11-2.29,.15 1.73-3.93 4.15-7.47 6.66-10.94 .91-1.42 1.84-2.85 2.46-4.43-1.88-4.23-6.31-6.45-9.51-9.57-.86-.73-1.72-1.47-2.59-2.2 3.61-2.06 7.3-4.02 10.59-6.57 .54-.4 1.61-1.21 2.15-1.61-2.21-5.8-4.38-11.61-6.92-17.28-1.16-2.86-2.28-5.73-3.41-8.6 8.62,4.46 17.58,8.2 26.33,12.4 2.69-4.49 5.55-8.86 8.52-13.17 4.65,2.54 8.59,6.21 13.49,8.29z"/>
</g>
<g transform="matrix(.36563 0 0 .37424 .60707 -7.91159)">
<path fill="#fff4d4" d="m64.12,32.12c3.1-4.2 6.4-8.24 9.78-12.21 1.54,8.21 1.85,16.58 3.01,24.84-1.49,.24-2.97,.51-4.45,.78-2.2-2.08-4.59-5.25-8.04-4.33-1.67,.89-2.75,2.51-3.84,3.99-4.04,.47-8.12,.97-12.2,.67-3.54-.2-6.74-1.85-9.98-3.11 1.7-3.63 3.75-7.07 5.82-10.48 3.05,2.13 6.09,4.31 9.36,6.11 1.2,.62 2.5,1.31 3.91,1.11 2.68-1.98 4.59-4.77 6.63-7.37z"/>
</g>
<g transform="matrix(.36563 0 0 .37424 .60707 -7.91159)">
<path fill="#fff0c2" d="m13.08,35.04c6.14,2.36 11.83,5.69 17.93,8.1 2.4,1.15 4.99,.22 7.39-.39 3.24,1.26 6.44,2.91 9.98,3.11 4.08,.3 8.16-.2 12.2-.67l-.37,.68c-3.26,7.25-5.4,14.94-7.87,22.48-1.14,2.84-.39,5.85 .38,8.67-.23,.35-.69,1.04-.92,1.39-3.88,.71-7.7,2.38-9.67,6.01-3.82,6.4-3.56,15.46 1.69,21.02-1.48,.43-2.91,1-4.18,1.87-.86-5.86-1.73-11.74-3.25-17.47l-.22-.87c-.18-.38-.54-1.15-.72-1.53-3.27-.34-6.57-.3-9.85-.06 .93-2.87 1.78-5.82 3.44-8.36 3-4.65 7.26-8.52 9.3-13.77 .88-2.3 1.48-5.2-.17-7.32-1.74-2.33-4.26-3.87-6.63-5.48-5.69-3.61-10.51-8.36-15.74-12.57-.9-1.61-1.81-3.23-2.72-4.84z"/>
</g>
<g transform="matrix(.36563 0 0 .37424 .60707 -7.91159)">
<path opacity=".15" d="m11.12,41.79c-.39-1.37 .33-2.59 1.58-3.15 2.54,5.67 4.71,11.48 6.92,17.28-.54,.4-1.61,1.21-2.15,1.61-2.51-5.06-5.32-10.13-6.35-15.74z"/>
</g>
<g transform="matrix(.36563 0 0 .37424 .60707 -7.91159)">
<path fill="#ffebad" d="m15.8,39.88c5.23,4.21 10.05,8.96 15.74,12.57 2.37,1.61 4.89,3.15 6.63,5.48 1.65,2.12 1.05,5.02 .17,7.32-2.04,5.25-6.3,9.12-9.3,13.77-1.66,2.54-2.51,5.49-3.44,8.36-.75,.05-2.26,.15-3.01,.2-.21-1.66-.85-3.46-.06-5.05 2.13-4.78 5.71-8.86 7.06-13.99 .85-3.01 .77-6.46-1.07-9.1-2.26-3.32-5.56-5.71-8.36-8.53-1.83-3.52-3.11-7.27-4.36-11.03z"/>
</g>
<g transform="matrix(.36563 0 0 .37424 .60707 -7.91159)">
<path fill="#050505" d="m64.42,41.2c3.45-.92 5.84,2.25 8.04,4.33-.86,1.88-1.7,3.77-2.56,5.65-3.34-1.57-6.57-3.36-9.69-5.31l.37-.68c1.09-1.48 2.17-3.1 3.84-3.99z"/>
</g>
<g transform="matrix(.36563 0 0 .37424 .60707 -7.91159)">
<path fill="#ffeeb9" d="m76.91,44.75c2.92-.41 5.87-.48 8.82-.55 .44,.41 1.31,1.25 1.75,1.66-2.88,3.02-6.1,5.94-7.81,9.81-1.12,2.97 .72,5.95 2.34,8.33 2.83,4.26 7.12,7.19 10.46,10.99 2.08,3.77 3.74,7.77 6.22,11.31 2.24,3.23 3.92,6.79 5.44,10.41-2.35-.56-4.69-1.12-7.03-1.65-1.22-.74-2.41-1.53-3.63-2.26 1.51-.43 3.02-.86 4.53-1.28-1.73-3.62-3.33-7.42-6.26-10.27-7.91-8.04-17.65-14.13-27.99-18.57 2.32-3.68 4.35-7.54 6.15-11.5 .86-1.88 1.7-3.77 2.56-5.65 1.48-.27 2.96-.54 4.45-.78z"/>
</g>
<g transform="matrix(.36563 0 0 .37424 .60707 -7.91159)">
<path fill="#ffe8a2" d="m85.73,44.2c2.1-.06 4.2-.19 6.3-.31 .08,4.79 .24,9.6 1.01,14.35 1.45,4.31 2.87,8.63 3.75,13.1-1.45,1.2-2.89,2.42-4.32,3.65-3.34-3.8-7.63-6.73-10.46-10.99-1.62-2.38-3.46-5.36-2.34-8.33 1.71-3.87 4.93-6.79 7.81-9.81-.44-.41-1.31-1.25-1.75-1.66z"/>
</g>
<g fill="#212121" transform="matrix(.36563 0 0 .37424 .60707 -7.91159)">
<path d="m52.34,68.35c2.47-7.54 4.61-15.23 7.87-22.48 3.12,1.95 6.35,3.74 9.69,5.31-1.8,3.96-3.83,7.82-6.15,11.5-3.02,4.65-5.74,9.5-9.11,13.91-.48,.11-1.44,.32-1.92,.43-.77-2.82-1.52-5.83-.38-8.67z"/>
<path d="m42.13,84.42c1.97-3.63 5.79-5.3 9.67-6.01 .79,2.39 2.03,4.74 1.99,7.31-.14,3.34-4.35,4.72-7.09,3.73-1.82-1.38-3.13-3.29-4.57-5.03z"/>
</g>
<g transform="matrix(.36563 0 0 .37424 .60707 -7.91159)">
<path fill="#ffe699" d="m20.16,50.91c2.8,2.82 6.1,5.21 8.36,8.53 1.84,2.64 1.92,6.09 1.07,9.1-1.35,5.13-4.93,9.21-7.06,13.99-.79,1.59-.15,3.39 .06,5.05-2.61,.05-5.21-.2-7.8-.45 1.58-2.54 3.45-4.89 5.18-7.33 1.12-1.74 2.25-3.62 2.3-5.75 .23-5.07-1.27-10.01-1.61-15.05-.23-2.69-.3-5.39-.5-8.09z"/>
</g>
<g transform="matrix(.36563 0 0 .37424 .60707 -7.91159)">
<path fill="#ffdc74" d="m93.04,58.24c6.72,.1 13.45-.01 20.17,.22-4.92,4.99-10.96,8.57-16.42,12.88-.88-4.47-2.3-8.79-3.75-13.1z"/>
</g>
<g transform="matrix(.36563 0 0 .37424 .60707 -7.91159)">
<path fill="#ffdf80" d="m11,64.19c3.12-1.91 6.31-3.7 9.66-5.19 .34,5.04 1.84,9.98 1.61,15.05-.05,2.13-1.18,4.01-2.3,5.75 .35-2.11 1.18-4.64-.26-6.53-2.6-3.3-5.72-6.14-8.71-9.08z"/>
</g>
<g transform="matrix(.36563 0 0 .37424 .60707 -7.91159)">
<path opacity=".17" d="m94.24,75.9c7.67-5.69 15.56-11.05 23.46-16.41 .36,1.4 .81,2.8 .91,4.26-1.25,3.14-4.43,4.9-7.02,6.85-4.92,3.19-9.94,6.51-13.23,11.49-1.32-2.1-2.69-4.16-4.12-6.19z"/>
</g>
<g transform="matrix(.36563 0 0 .37424 .60707 -7.91159)">
<path fill="#fff5d4" d="m54.64,76.59c3.37-4.41 6.09-9.26 9.11-13.91 10.34,4.44 20.08,10.53 27.99,18.57 2.93,2.85 4.53,6.65 6.26,10.27-1.51,.42-3.02,.85-4.53,1.28-4.15-2.06-8.53-3.73-13.02-4.89-2.01-.66-3.63,1.11-5.08,2.21 1.02-2.1 2.1-4.17 3.21-6.23-2.59-1.59-5.12-3.31-7.86-4.65-4.98-2.38-10.62-3.06-16.08-2.65z"/>
</g>
<g transform="matrix(.36563 0 0 .37424 .60707 -7.91159)">
<path opacity=".16" d="m9.47,66.3c3.2,3.12 7.63,5.34 9.51,9.57-.62,1.58-1.55,3.01-2.46,4.43-2.42-2.53-5.16-4.87-6.86-7.98-1.06-1.85-.24-4.04-.19-6.02z"/>
</g>
<g transform="matrix(.36563 0 0 .37424 .60707 -7.91159)">
<path fill="#fffbf0" d="m54.64,76.59c5.46-.41 11.1,.27 16.08,2.65 2.74,1.34 5.27,3.06 7.86,4.65-1.11,2.06-2.19,4.13-3.21,6.23-1.49,3.48-3.72,6.55-6.02,9.53-3.89-2.89-8.25-5.03-12.26-7.74-4.85,4.1-8.81,9.06-13.27,13.53-5.25-5.56-5.51-14.62-1.69-21.02 1.44,1.74 2.75,3.65 4.57,5.03 2.74,.99 6.95-.39 7.09-3.73 .04-2.57-1.2-4.92-1.99-7.31 .23-.35 .69-1.04 .92-1.39 .48-.11 1.44-.32 1.92-.43z"/>
</g>
<g transform="matrix(.36563 0 0 .37424 .60707 -7.91159)">
<path fill="#fcc169" d="m13.72,88.8c.27-.42 .8-1.25 1.07-1.67 2.59,.25 5.19,.5 7.8,.45 .75-.05 2.26-.15 3.01-.2 3.28-.24 6.58-.28 9.85,.06 .18,.38 .54,1.15 .72,1.53-7.48-.12-14.97,.03-22.45-.17z"/>
</g>
<g transform="matrix(.36563 0 0 .37424 .60707 -7.91159)">
<path fill="#faad4e" d="m75.37,90.12c1.45-1.1 3.07-2.87 5.08-2.21 4.49,1.16 8.87,2.83 13.02,4.89 1.22,.73 2.41,1.52 3.63,2.26-1.33-.06-2.66-.11-3.99-.17-4.78-1.58-9.55-3.19-14.25-4.99-2.91,4.66-6.09,9.14-8.73,13.96-4.06-3.4-8.58-6.17-12.96-9.12-6.43,5.85-12.14,12.42-18.47,18.37-.85-5.7-1.76-11.39-2.46-17.11 .02-2.06 .14-4.11 .15-6.16 1.52,5.73 2.39,11.61 3.25,17.47 1.27-.87 2.7-1.44 4.18-1.87 4.46-4.47 8.42-9.43 13.27-13.53 4.01,2.71 8.37,4.85 12.26,7.74 2.3-2.98 4.53-6.05 6.02-9.53z"/>
</g>
<g transform="matrix(.36563 0 0 .37424 .60707 -7.91159)">
<path opacity=".15" d="m12.15,91.09c7.61-.68 15.23-1.21 22.87-1.24 .41,2.04 .85,4.09 1.22,6.15 .7,5.72 1.61,11.41 2.46,17.11 6.33-5.95 12.04-12.52 18.47-18.37 4.38,2.95 8.9,5.72 12.96,9.12 2.64-4.82 5.82-9.3 8.73-13.96 4.7,1.8 9.47,3.41 14.25,4.99 5.39,2.21 10.69,4.64 16.13,6.73-.15,1.45-.29,2.89-.42,4.34-1.81,.26-3.65,.92-5.49,.58-7.64-1.76-14.43-6.25-22.19-7.56-3.88,2.07-5.61,6.5-9.03,9.14-1.34,1.01-3.22,.94-4.77,.49-3.32-1.05-6.09-3.32-9.38-4.45-6.45,2.28-9.19,9.75-15.43,12.41-2.17,.84-5.13,.4-6.13-1.96-2.33-5.05-1.61-10.97-4.04-15.99-6.4-2.31-13.37,.35-19.91-1.16-1.72-.83-2.45-2.86-3.63-4.29 1.09-.72 2.19-1.44 3.33-2.08z"/>
</g>
</svg>
