<?xml version="1.0" encoding="UTF-8" standalone="no"?>
<svg
   xmlns:dc="http://purl.org/dc/elements/1.1/"
   xmlns:cc="http://creativecommons.org/ns#"
   xmlns:rdf="http://www.w3.org/1999/02/22-rdf-syntax-ns#"
   xmlns:svg="http://www.w3.org/2000/svg"
   xmlns="http://www.w3.org/2000/svg"
   xmlns:sodipodi="http://sodipodi.sourceforge.net/DTD/sodipodi-0.dtd"
   xmlns:inkscape="http://www.inkscape.org/namespaces/inkscape"
   width="128"
   height="128"
   viewBox="0 0 48 32"
   version="1.0"
   id="svg2"
   sodipodi:version="0.32"
   inkscape:version="0.46"
   sodipodi:docname="messages.svg"
   inkscape:output_extension="org.inkscape.output.svg.inkscape">
  <metadata
     id="metadata25">
    <rdf:RDF>
      <cc:Work
         rdf:about="">
        <dc:format>image/svg+xml</dc:format>
        <dc:type
           rdf:resource="http://purl.org/dc/dcmitype/StillImage" />
      </cc:Work>
    </rdf:RDF>
  </metadata>
  <defs
     id="defs23">
    <inkscape:perspective
       sodipodi:type="inkscape:persp3d"
       inkscape:vp_x="0 : 20 : 1"
       inkscape:vp_y="0 : 1000 : 0"
       inkscape:vp_z="60 : 20 : 1"
       inkscape:persp3d-origin="30 : 13.333333 : 1"
       id="perspective27" />
    <inkscape:perspective
       id="perspective2574"
       inkscape:persp3d-origin="80 : 53.333333 : 1"
       inkscape:vp_z="160 : 80 : 1"
       inkscape:vp_y="0 : 1000 : 0"
       inkscape:vp_x="0 : 80 : 1"
       sodipodi:type="inkscape:persp3d" />
  </defs>
  <sodipodi:namedview
     inkscape:window-height="759"
     inkscape:window-width="1056"
     inkscape:pageshadow="2"
     inkscape:pageopacity="0.0"
     guidetolerance="10.0"
     gridtolerance="10.0"
     objecttolerance="10.0"
     borderopacity="1.0"
     bordercolor="#666666"
     pagecolor="#ffffff"
     id="base"
     showgrid="false"
     inkscape:zoom="1"
     inkscape:cx="35.969652"
     inkscape:cy="17.415648"
     inkscape:window-x="115"
     inkscape:window-y="41"
     inkscape:current-layer="svg2" />
  <g
     id="g2577"
     transform="matrix(0.3656266,0,0,0.3742419,0.6070699,-7.9115859)">
    <g
       id="#fa9815ff">
      <path
         id="path2511"
         d="M 57.63,37.56 C 63.28,29.39 69.36,21.51 75.69,13.86 C 77.45,23.28 77.28,32.92 79.15,42.33 C 84.4,41.96 89.64,41.43 94.8,40.39 C 94.55,45.69 94.65,51 94.69,56.31 C 103.84,56.77 112.98,56.02 122.11,55.54 C 120.65,56.88 119.26,58.28 117.7,59.49 C 109.8,64.85 101.91,70.21 94.24,75.9 C 95.67,77.93 97.04,79.99 98.36,82.09 C 102.33,88.65 106.56,95.08 110.01,101.93 L 109.24,101.62 C 103.8,99.53 98.5,97.1 93.11,94.89 C 94.44,94.95 95.77,95 97.1,95.06 C 99.44,95.59 101.78,96.15 104.13,96.71 C 102.61,93.09 100.93,89.53 98.69,86.3 C 96.21,82.76 94.55,78.76 92.47,74.99 C 93.9,73.76 95.34,72.54 96.79,71.34 C 102.25,67.03 108.29,63.45 113.21,58.46 C 106.49,58.23 99.76,58.34 93.04,58.24 C 92.27,53.49 92.11,48.68 92.03,43.89 C 89.93,44.01 87.83,44.14 85.73,44.2 C 82.78,44.27 79.83,44.34 76.91,44.75 C 75.75,36.49 75.44,28.12 73.9,19.91 C 70.52,23.88 67.22,27.92 64.12,32.12 C 62.08,34.72 60.17,37.51 57.49,39.49 C 56.08,39.69 54.78,39 53.58,38.38 C 50.31,36.58 47.27,34.4 44.22,32.27 C 42.15,35.68 40.1,39.12 38.4,42.75 C 36,43.36 33.41,44.29 31.01,43.14 C 24.91,40.73 19.22,37.4 13.08,35.04 C 13.99,36.65 14.9,38.27 15.8,39.88 C 17.05,43.64 18.33,47.39 20.16,50.91 C 20.36,53.61 20.43,56.31 20.66,59 C 17.31,60.49 14.12,62.28 11,64.19 C 13.99,67.13 17.11,69.97 19.71,73.27 C 21.15,75.16 20.32,77.69 19.97,79.8 C 18.24,82.24 16.37,84.59 14.79,87.13 C 14.52,87.55 13.99,88.38 13.72,88.8 C 21.2,89 28.69,88.85 36.17,88.97 L 36.39,89.84 C 36.38,91.89 36.26,93.94 36.24,96 C 35.87,93.94 35.43,91.89 35.02,89.85 C 27.38,89.88 19.76,90.41 12.15,91.09 C 11.58,91.13 10.43,91.2 9.86,91.24 C 11.59,87.31 14.01,83.77 16.52,80.3 C 17.43,78.88 18.36,77.45 18.98,75.87 C 17.1,71.64 12.67,69.42 9.47,66.3 C 8.61,65.57 7.75,64.83 6.88,64.1 C 10.49,62.04 14.18,60.08 17.47,57.53 C 18.01,57.13 19.08,56.32 19.62,55.92 C 17.41,50.12 15.24,44.31 12.7,38.64 C 11.54,35.78 10.42,32.91 9.29,30.04 C 17.91,34.5 26.87,38.24 35.62,42.44 C 38.31,37.95 41.17,33.58 44.14,29.27 C 48.79,31.81 52.73,35.48 57.63,37.56 z"
         style="opacity:1;fill:#fa9815" />
    </g>
    <g
       id="#fff4d4ff">
      <path
         id="path2514"
         d="M 64.12,32.12 C 67.22,27.92 70.52,23.88 73.9,19.91 C 75.44,28.12 75.75,36.49 76.91,44.75 C 75.42,44.99 73.94,45.26 72.46,45.53 C 70.26,43.45 67.87,40.28 64.42,41.2 C 62.75,42.09 61.67,43.71 60.58,45.19 C 56.54,45.66 52.46,46.16 48.38,45.86 C 44.84,45.66 41.64,44.01 38.4,42.75 C 40.1,39.12 42.15,35.68 44.22,32.27 C 47.27,34.4 50.31,36.58 53.58,38.38 C 54.78,39 56.08,39.69 57.49,39.49 C 60.17,37.51 62.08,34.72 64.12,32.12 z"
         style="opacity:1;fill:#fff4d4" />
    </g>
    <g
       id="#fff0c2ff">
      <path
         id="path2517"
         d="M 13.08,35.04 C 19.22,37.4 24.91,40.73 31.01,43.14 C 33.41,44.29 36,43.36 38.4,42.75 C 41.64,44.01 44.84,45.66 48.38,45.86 C 52.46,46.16 56.54,45.66 60.58,45.19 L 60.21,45.87 C 56.95,53.12 54.81,60.81 52.34,68.35 C 51.2,71.19 51.95,74.2 52.72,77.02 C 52.49,77.37 52.03,78.06 51.8,78.41 C 47.92,79.12 44.1,80.79 42.13,84.42 C 38.31,90.82 38.57,99.88 43.82,105.44 C 42.34,105.87 40.91,106.44 39.64,107.31 C 38.78,101.45 37.91,95.57 36.39,89.84 L 36.17,88.97 C 35.99,88.59 35.63,87.82 35.45,87.44 C 32.18,87.1 28.88,87.14 25.6,87.38 C 26.53,84.51 27.38,81.56 29.04,79.02 C 32.04,74.37 36.3,70.5 38.34,65.25 C 39.22,62.95 39.82,60.05 38.17,57.93 C 36.43,55.6 33.91,54.06 31.54,52.45 C 25.85,48.84 21.03,44.09 15.8,39.88 C 14.9,38.27 13.99,36.65 13.08,35.04 z"
         style="opacity:1;fill:#fff0c2" />
    </g>
    <g
       id="#00000025">
      <path
         id="path2520"
         d="M 11.12,41.79 C 10.73,40.42 11.45,39.2 12.7,38.64 C 15.24,44.31 17.41,50.12 19.62,55.92 C 19.08,56.32 18.01,57.13 17.47,57.53 C 14.96,52.47 12.15,47.4 11.12,41.79 z"
         style="opacity:0.15;fill:#000000" />
    </g>
    <g
       id="#ffebadff">
      <path
         id="path2523"
         d="M 15.8,39.88 C 21.03,44.09 25.85,48.84 31.54,52.45 C 33.91,54.06 36.43,55.6 38.17,57.93 C 39.82,60.05 39.22,62.95 38.34,65.25 C 36.3,70.5 32.04,74.37 29.04,79.02 C 27.38,81.56 26.53,84.51 25.6,87.38 C 24.85,87.43 23.34,87.53 22.59,87.58 C 22.38,85.92 21.74,84.12 22.53,82.53 C 24.66,77.75 28.24,73.67 29.59,68.54 C 30.44,65.53 30.36,62.08 28.52,59.44 C 26.26,56.12 22.96,53.73 20.16,50.91 C 18.33,47.39 17.05,43.64 15.8,39.88 z"
         style="opacity:1;fill:#ffebad" />
    </g>
    <g
       id="#050505ff">
      <path
         id="path2526"
         d="M 64.42,41.2 C 67.87,40.28 70.26,43.45 72.46,45.53 C 71.6,47.41 70.76,49.3 69.9,51.18 C 66.56,49.61 63.33,47.82 60.21,45.87 L 60.58,45.19 C 61.67,43.71 62.75,42.09 64.42,41.2 z"
         style="opacity:1;fill:#050505" />
    </g>
    <g
       id="#ffeeb9ff">
      <path
         id="path2529"
         d="M 76.91,44.75 C 79.83,44.34 82.78,44.27 85.73,44.2 C 86.17,44.61 87.04,45.45 87.48,45.86 C 84.6,48.88 81.38,51.8 79.67,55.67 C 78.55,58.64 80.39,61.62 82.01,64 C 84.84,68.26 89.13,71.19 92.47,74.99 C 94.55,78.76 96.21,82.76 98.69,86.3 C 100.93,89.53 102.61,93.09 104.13,96.71 C 101.78,96.15 99.44,95.59 97.1,95.06 C 95.88,94.32 94.69,93.53 93.47,92.8 C 94.98,92.37 96.49,91.94 98,91.52 C 96.27,87.9 94.67,84.1 91.74,81.25 C 83.83,73.21 74.09,67.12 63.75,62.68 C 66.07,59 68.1,55.14 69.9,51.18 C 70.76,49.3 71.6,47.41 72.46,45.53 C 73.94,45.26 75.42,44.99 76.91,44.75 z"
         style="opacity:1;fill:#ffeeb9" />
    </g>
    <g
       id="#ffe8a2ff">
      <path
         id="path2532"
         d="M 85.73,44.2 C 87.83,44.14 89.93,44.01 92.03,43.89 C 92.11,48.68 92.27,53.49 93.04,58.24 C 94.49,62.55 95.91,66.87 96.79,71.34 C 95.34,72.54 93.9,73.76 92.47,74.99 C 89.13,71.19 84.84,68.26 82.01,64 C 80.39,61.62 78.55,58.64 79.67,55.67 C 81.38,51.8 84.6,48.88 87.48,45.86 C 87.04,45.45 86.17,44.61 85.73,44.2 z"
         style="opacity:1;fill:#ffe8a2" />
    </g>
    <g
       id="#212121ff">
      <path
         id="path2535"
         d="M 52.34,68.35 C 54.81,60.81 56.95,53.12 60.21,45.87 C 63.33,47.82 66.56,49.61 69.9,51.18 C 68.1,55.14 66.07,59 63.75,62.68 C 60.73,67.33 58.01,72.18 54.64,76.59 C 54.16,76.7 53.2,76.91 52.72,77.02 C 51.95,74.2 51.2,71.19 52.34,68.35 z"
         style="opacity:1;fill:#212121" />
      <path
         id="path2537"
         d="M 42.13,84.42 C 44.1,80.79 47.92,79.12 51.8,78.41 C 52.59,80.8 53.83,83.15 53.79,85.72 C 53.65,89.06 49.44,90.44 46.7,89.45 C 44.88,88.07 43.57,86.16 42.13,84.42 z"
         style="opacity:1;fill:#212121" />
    </g>
    <g
       id="#ffe699ff">
      <path
         id="path2540"
         d="M 20.16,50.91 C 22.96,53.73 26.26,56.12 28.52,59.44 C 30.36,62.08 30.44,65.53 29.59,68.54 C 28.24,73.67 24.66,77.75 22.53,82.53 C 21.74,84.12 22.38,85.92 22.59,87.58 C 19.98,87.63 17.38,87.38 14.79,87.13 C 16.37,84.59 18.24,82.24 19.97,79.8 C 21.09,78.06 22.22,76.18 22.27,74.05 C 22.5,68.98 21,64.04 20.66,59 C 20.43,56.31 20.36,53.61 20.16,50.91 z"
         style="opacity:1;fill:#ffe699" />
    </g>
    <g
       id="#ffdc74ff">
      <path
         id="path2543"
         d="M 93.04,58.24 C 99.76,58.34 106.49,58.23 113.21,58.46 C 108.29,63.45 102.25,67.03 96.79,71.34 C 95.91,66.87 94.49,62.55 93.04,58.24 z"
         style="opacity:1;fill:#ffdc74" />
    </g>
    <g
       id="#ffdf80ff">
      <path
         id="path2546"
         d="M 11,64.19 C 14.12,62.28 17.31,60.49 20.66,59 C 21,64.04 22.5,68.98 22.27,74.05 C 22.22,76.18 21.09,78.06 19.97,79.8 C 20.32,77.69 21.15,75.16 19.71,73.27 C 17.11,69.97 13.99,67.13 11,64.19 z"
         style="opacity:1;fill:#ffdf80" />
    </g>
    <g
       id="#0000002b">
      <path
         id="path2549"
         d="M 94.24,75.9 C 101.91,70.21 109.8,64.85 117.7,59.49 C 118.06,60.89 118.51,62.29 118.61,63.75 C 117.36,66.89 114.18,68.65 111.59,70.6 C 106.67,73.79 101.65,77.11 98.36,82.09 C 97.04,79.99 95.67,77.93 94.24,75.9 z"
         style="opacity:0.17000002;fill:#000000" />
    </g>
    <g
       id="#fff5d4ff">
      <path
         id="path2552"
         d="M 54.64,76.59 C 58.01,72.18 60.73,67.33 63.75,62.68 C 74.09,67.12 83.83,73.21 91.74,81.25 C 94.67,84.1 96.27,87.9 98,91.52 C 96.49,91.94 94.98,92.37 93.47,92.8 C 89.32,90.74 84.94,89.07 80.45,87.91 C 78.44,87.25 76.82,89.02 75.37,90.12 C 76.39,88.02 77.47,85.95 78.58,83.89 C 75.99,82.3 73.46,80.58 70.72,79.24 C 65.74,76.86 60.1,76.18 54.64,76.59 z"
         style="opacity:1;fill:#fff5d4" />
    </g>
    <g
       id="#0000002a">
      <path
         id="path2555"
         d="M 9.47,66.3 C 12.67,69.42 17.1,71.64 18.98,75.87 C 18.36,77.45 17.43,78.88 16.52,80.3 C 14.1,77.77 11.36,75.43 9.66,72.32 C 8.6,70.47 9.42,68.28 9.47,66.3 z"
         style="opacity:0.16000001;fill:#000000" />
    </g>
    <g
       id="#fffbf0ff">
      <path
         id="path2558"
         d="M 54.64,76.59 C 60.1,76.18 65.74,76.86 70.72,79.24 C 73.46,80.58 75.99,82.3 78.58,83.89 C 77.47,85.95 76.39,88.02 75.37,90.12 C 73.88,93.6 71.65,96.67 69.35,99.65 C 65.46,96.76 61.1,94.62 57.09,91.91 C 52.24,96.01 48.28,100.97 43.82,105.44 C 38.57,99.88 38.31,90.82 42.13,84.42 C 43.57,86.16 44.88,88.07 46.7,89.45 C 49.44,90.44 53.65,89.06 53.79,85.72 C 53.83,83.15 52.59,80.8 51.8,78.41 C 52.03,78.06 52.49,77.37 52.72,77.02 C 53.2,76.91 54.16,76.7 54.64,76.59 z"
         style="opacity:1;fill:#fffbf0" />
    </g>
    <g
       id="#fcc169ff">
      <path
         id="path2561"
         d="M 13.72,88.8 C 13.99,88.38 14.52,87.55 14.79,87.13 C 17.38,87.38 19.98,87.63 22.59,87.58 C 23.34,87.53 24.85,87.43 25.6,87.38 C 28.88,87.14 32.18,87.1 35.45,87.44 C 35.63,87.82 35.99,88.59 36.17,88.97 C 28.69,88.85 21.2,89 13.72,88.8 z"
         style="opacity:1;fill:#fcc169" />
    </g>
    <g
       id="#faad4eff">
      <path
         id="path2564"
         d="M 75.37,90.12 C 76.82,89.02 78.44,87.25 80.45,87.91 C 84.94,89.07 89.32,90.74 93.47,92.8 C 94.69,93.53 95.88,94.32 97.1,95.06 C 95.77,95 94.44,94.95 93.11,94.89 C 88.33,93.31 83.56,91.7 78.86,89.9 C 75.95,94.56 72.77,99.04 70.13,103.86 C 66.07,100.46 61.55,97.69 57.17,94.74 C 50.74,100.59 45.03,107.16 38.7,113.11 C 37.85,107.41 36.94,101.72 36.24,96 C 36.26,93.94 36.38,91.89 36.39,89.84 C 37.91,95.57 38.78,101.45 39.64,107.31 C 40.91,106.44 42.34,105.87 43.82,105.44 C 48.28,100.97 52.24,96.01 57.09,91.91 C 61.1,94.62 65.46,96.76 69.35,99.65 C 71.65,96.67 73.88,93.6 75.37,90.12 z"
         style="opacity:1;fill:#faad4e" />
    </g>
    <g
       id="#00000027">
      <path
         id="path2567"
         d="M 12.15,91.09 C 19.76,90.41 27.38,89.88 35.02,89.85 C 35.43,91.89 35.87,93.94 36.24,96 C 36.94,101.72 37.85,107.41 38.7,113.11 C 45.03,107.16 50.74,100.59 57.17,94.74 C 61.55,97.69 66.07,100.46 70.13,103.86 C 72.77,99.04 75.95,94.56 78.86,89.9 C 83.56,91.7 88.33,93.31 93.11,94.89 C 98.5,97.1 103.8,99.53 109.24,101.62 C 109.09,103.07 108.95,104.51 108.82,105.96 C 107.01,106.22 105.17,106.88 103.33,106.54 C 95.69,104.78 88.9,100.29 81.14,98.98 C 77.26,101.05 75.53,105.48 72.11,108.12 C 70.77,109.13 68.89,109.06 67.34,108.61 C 64.02,107.56 61.25,105.29 57.96,104.16 C 51.51,106.44 48.77,113.91 42.53,116.57 C 40.36,117.41 37.4,116.97 36.4,114.61 C 34.07,109.56 34.79,103.64 32.36,98.62 C 25.96,96.31 18.99,98.97 12.45,97.46 C 10.73,96.63 10,94.6 8.82,93.17 C 9.91,92.45 11.01,91.73 12.15,91.09 z"
         style="opacity:0.15;fill:#000000" />
    </g>
  </g>
</svg>
