<svg width="40" xmlns="http://www.w3.org/2000/svg" height="40" viewBox="0 0 32 32">
<path opacity=".51" fill="#22231d" d="m17.09,2.27c4.97-.15 9.95-.41 14.91-.05v27.2c-10.47,.35-20.99,.57-31.45-.12 1.19-.12 2.38-.22 3.57-.31 1.7-.06 3.41-.07 5.11-.05 2.45,.12 4.92,.27 7.37-.02l.03-.35c.1-1.34 .18-2.68 .24-4.02 .05-1.41 .08-2.83 .08-4.25-.65-2.4-1.72-4.65-2.87-6.84 .93,1.45 1.93,2.86 2.91,4.27 .04-5.15 0-10.31 .1-15.46m.45,.59c.15,5.11-.01,10.22 .1,15.32-.96,3.53-.66,7.22-.74,10.83l.95-.07c1.44,.04 2.88,.08 4.31,.12 2.94-.09 5.87-.05 8.8,0-.01-.74-.01-2.23-.02-2.97-.14-7.6 .49-15.29-.3-22.83l-.4-.08c-1.59-.12-3.2-.21-4.81-.27-2.63,.02-5.26-.04-7.89-.05z"/>
<path fill="#ff9000" d="m17.54,2.86c2.63,.01 5.26,.07 7.89,.05-.01,1.98-.03,3.96-.05,5.94-.02,1.29-.02,2.59 0,3.89-.01,3.43-.12,6.86-.21,10.29-2.66,.77-5.11,2.12-7.18,3.96 .08-2.94-.15-5.88-.35-8.81-.11-5.1 .05-10.21-.1-15.32z"/>
<path fill="#fff8ef" d="m25.43,2.91c1.61,.06 3.22,.15 4.81,.27-.04,1.37-.08,2.75-.1,4.12-1.59,.52-3.17,1.04-4.76,1.55 .02-1.98 .04-3.96 .05-5.94z"/>
<path fill="#f8a539" d="m30.24,3.18l.4,.08c.79,7.54 .16,15.23 .3,22.83-.28-.13-.84-.39-1.12-.51-.02-1.56-.02-3.11 .01-4.66 .04-1.46 .07-2.93 .1-4.4 .1-3.07 .15-6.14 .21-9.22 .02-1.37 .06-2.75 .1-4.12z"/>
<path fill="#ffd8a5" d="m25.38,8.85c1.59-.51 3.17-1.03 4.76-1.55-.06,3.08-.11,6.15-.21,9.22-1.42,.01-2.85,.02-4.28,.04-.11-1.27-.2-2.54-.27-3.82-.02-1.3-.02-2.6 0-3.89z"/>
<path fill="#0076ff" d="m.55,29.3c3.89-6.55 7.23-13.41 11.27-19.87 .75,1.34 1.5,2.69 2.26,4.03 1.15,2.19 2.22,4.44 2.87,6.84-2.34-.16-4.68-.33-7.02-.52 .95-3.15 1.6-6.38 1.92-9.65-2.87,4.43-4.47,9.5-6.5,14.35-.48,1.48-.84,3-1.23,4.51-1.19,.09-2.38,.19-3.57,.31z"/>
<path fill="#6fbcfe" d="m5.35,24.48c2.03-4.85 3.63-9.92 6.5-14.35-.32,3.27-.97,6.5-1.92,9.65-.2,.7-.61,2.09-.81,2.79-.2,.7-.41,1.39-.61,2.09-1.05-.06-2.11-.12-3.16-.18z"/>
<path fill="#ffbc48" d="m25.17,23.03c.09-3.43 .2-6.86 .21-10.29 .07,1.28 .16,2.55 .27,3.82 .14,1.29 .28,2.58 .43,3.87 1.25,.16 2.5,.33 3.75,.49-.03,1.55-.03,3.1-.01,4.66-1.63-.7-3.18-1.56-4.65-2.55z"/>
<path fill="#ffc170" d="m25.65,16.56c1.43-.02 2.86-.03 4.28-.04-.03,1.47-.06,2.94-.1,4.4-1.25-.16-2.5-.33-3.75-.49-.15-1.29-.29-2.58-.43-3.87z"/>
<path fill="#a47c36" d="m16.9,29.01c.08-3.61-.22-7.3 .74-10.83 .2,2.93 .43,5.87 .35,8.81-.03,.49-.1,1.46-.14,1.95l-.95,.07z"/>
<path fill="#00a0ff" d="m9.93,19.78c2.34,.19 4.68,.36 7.02,.52 0,1.42-.03,2.84-.08,4.25-2.66-.32-5.37-.65-7.75-1.98 .2-.7 .61-2.09 .81-2.79z"/>
<path fill="#00bdff" d="m8.51,24.66c.2-.7 .41-1.39 .61-2.09 2.38,1.33 5.09,1.66 7.75,1.98-.06,1.34-.14,2.68-.24,4.02-2.36-1.09-5.24-1.24-7.4,.37-1.7-.02-3.41-.01-5.11,.05 .39-1.51 .75-3.03 1.23-4.51 1.05,.06 2.11,.12 3.16,.18z"/>
<path fill="#ffb600" d="m17.99,26.99c2.07-1.84 4.52-3.19 7.18-3.96-.01,2.45-1.1,4.53-3.01,6.03-1.43-.04-2.87-.08-4.31-.12 .04-.49 .11-1.46 .14-1.95z"/>
<path fill="#ffce1a" d="m25.17,23.03c1.47,.99 3.02,1.85 4.65,2.55 .28,.12 .84,.38 1.12,.51 .01,.74 .01,2.23 .02,2.97-2.93-.05-5.86-.09-8.8,0 1.91-1.5 3-3.58 3.01-6.03z"/>
<path fill="#2ad2fb" d="m9.23,28.94c2.16-1.61 5.04-1.46 7.4-.37l-.03,.35c-2.45,.29-4.92,.14-7.37,.02z"/>
</svg>
