<?xml version="1.0" encoding="UTF-8" standalone="no"?>
<!-- Created with Inkscape (http://www.inkscape.org/) -->
<svg
   xmlns:svg="http://www.w3.org/2000/svg"
   xmlns="http://www.w3.org/2000/svg"
   xmlns:xlink="http://www.w3.org/1999/xlink"
   version="1.0"
   width="48"
   height="48"
   id="svg2">
  <defs
     id="defs3">
    <linearGradient
       id="linearGradient12245">
      <stop
         id="stop12247"
         style="stop-color:#2d2d2d;stop-opacity:1"
         offset="0" />
      <stop
         id="stop12249"
         style="stop-color:#2d2d2d;stop-opacity:0"
         offset="1" />
    </linearGradient>
    <linearGradient
       id="linearGradient12237">
      <stop
         id="stop12239"
         style="stop-color:#2d2d2d;stop-opacity:1"
         offset="0" />
      <stop
         id="stop12241"
         style="stop-color:#2d2d2d;stop-opacity:0"
         offset="1" />
    </linearGradient>
    <linearGradient
       id="linearGradient10273">
      <stop
         id="stop10275"
         style="stop-color:#87491e;stop-opacity:1"
         offset="0" />
      <stop
         id="stop10277"
         style="stop-color:#ff9e1b;stop-opacity:1"
         offset="1" />
    </linearGradient>
    <linearGradient
       id="linearGradient5376">
      <stop
         id="stop5378"
         style="stop-color:#314751;stop-opacity:1"
         offset="0" />
      <stop
         id="stop5380"
         style="stop-color:#7499ab;stop-opacity:1"
         offset="1" />
    </linearGradient>
    <linearGradient
       id="linearGradient3430">
      <stop
         id="stop3432"
         style="stop-color:#0080d0;stop-opacity:1"
         offset="0" />
      <stop
         id="stop3434"
         style="stop-color:#004a79;stop-opacity:1"
         offset="1" />
    </linearGradient>
    <linearGradient
       id="linearGradient8641">
      <stop
         id="stop8643"
         style="stop-color:#d1d8da;stop-opacity:1"
         offset="0" />
      <stop
         id="stop8645"
         style="stop-color:#323b3e;stop-opacity:1"
         offset="1" />
    </linearGradient>
    <linearGradient
       id="linearGradient7660">
      <stop
         id="stop7662"
         style="stop-color:#ffffff;stop-opacity:0.70068026"
         offset="0" />
      <stop
         id="stop7670"
         style="stop-color:#98a6ab;stop-opacity:0.47278911"
         offset="1" />
    </linearGradient>
    <linearGradient
       id="linearGradient6673">
      <stop
         id="stop6675"
         style="stop-color:#c2cacd;stop-opacity:1"
         offset="0" />
      <stop
         id="stop6683"
         style="stop-color:#c1c9cc;stop-opacity:1"
         offset="0.58657318" />
      <stop
         id="stop6681"
         style="stop-color:#9eabb0;stop-opacity:1"
         offset="0.67148614" />
      <stop
         id="stop6685"
         style="stop-color:#7c8e94;stop-opacity:1"
         offset="0.91914892" />
      <stop
         id="stop6677"
         style="stop-color:#445054;stop-opacity:1"
         offset="1" />
    </linearGradient>
    <linearGradient
       id="linearGradient5685">
      <stop
         id="stop5687"
         style="stop-color:#2db8ff;stop-opacity:0"
         offset="0" />
      <stop
         id="stop5693"
         style="stop-color:#0084c8;stop-opacity:0.59523809"
         offset="0.25" />
      <stop
         id="stop5697"
         style="stop-color:#0069a0;stop-opacity:0.59523809"
         offset="0.38191488" />
      <stop
         id="stop5695"
         style="stop-color:#0084c8;stop-opacity:0.46938777"
         offset="0.75" />
      <stop
         id="stop5689"
         style="stop-color:#53c5ff;stop-opacity:0"
         offset="1" />
    </linearGradient>
    <linearGradient
       id="linearGradient5675">
      <stop
         id="stop5677"
         style="stop-color:#d4dadc;stop-opacity:1"
         offset="0" />
      <stop
         id="stop5679"
         style="stop-color:#687980;stop-opacity:1"
         offset="1" />
    </linearGradient>
    <linearGradient
       id="linearGradient3716">
      <stop
         id="stop3718"
         style="stop-color:#8bd8ff;stop-opacity:1"
         offset="0" />
      <stop
         id="stop3724"
         style="stop-color:#65c9ff;stop-opacity:1"
         offset="0.0377845" />
      <stop
         id="stop3726"
         style="stop-color:#2283b4;stop-opacity:1"
         offset="0.17758717" />
      <stop
         id="stop3728"
         style="stop-color:#4ab6ed;stop-opacity:1"
         offset="0.19423707" />
      <stop
         id="stop3720"
         style="stop-color:#00679c;stop-opacity:1"
         offset="1" />
    </linearGradient>
    <linearGradient
       id="linearGradient3708">
      <stop
         id="stop3710"
         style="stop-color:#aae3ff;stop-opacity:1"
         offset="0" />
      <stop
         id="stop3712"
         style="stop-color:#0084c8;stop-opacity:1"
         offset="1" />
    </linearGradient>
    <filter
       id="filter11225"
       height="1.6048061"
       y="-0.30240303"
       width="1.2212675"
       x="-0.11063374">
      <feGaussianBlur
         id="feGaussianBlur11227"
         stdDeviation="4.005885" />
    </filter>
    <linearGradient
       id="linearGradient4315">
      <stop
         id="stop4317"
         style="stop-color:#c0c9cc;stop-opacity:1"
         offset="0" />
      <stop
         id="stop4319"
         style="stop-color:#414c50;stop-opacity:1"
         offset="1" />
    </linearGradient>
    <linearGradient
       id="linearGradient4331">
      <stop
         id="stop4333"
         style="stop-color:#ffe27b;stop-opacity:1"
         offset="0" />
      <stop
         id="stop4339"
         style="stop-color:#ff9721;stop-opacity:1"
         offset="0.5" />
      <stop
         id="stop4341"
         style="stop-color:#ff7700;stop-opacity:1"
         offset="0.78085107" />
      <stop
         id="stop4335"
         style="stop-color:#e55d00;stop-opacity:1"
         offset="1" />
    </linearGradient>
    <linearGradient
       id="linearGradient4343">
      <stop
         id="stop4345"
         style="stop-color:#ff7700;stop-opacity:1"
         offset="0" />
      <stop
         id="stop4347"
         style="stop-color:#b35c11;stop-opacity:1"
         offset="1" />
    </linearGradient>
    <linearGradient
       id="linearGradient11338">
      <stop
         id="stop11340"
         style="stop-color:#95a3a9;stop-opacity:1"
         offset="0" />
      <stop
         id="stop11342"
         style="stop-color:#374f58;stop-opacity:1"
         offset="1" />
    </linearGradient>
    <linearGradient
       id="linearGradient6200">
      <stop
         id="stop6202"
         style="stop-color:#cbd2d5;stop-opacity:1"
         offset="0" />
      <stop
         id="stop6204"
         style="stop-color:#546267;stop-opacity:1"
         offset="1" />
    </linearGradient>
    <linearGradient
       id="linearGradient6227">
      <stop
         id="stop6229"
         style="stop-color:#6f8188;stop-opacity:1"
         offset="0" />
      <stop
         id="stop6231"
         style="stop-color:#1c3139;stop-opacity:1"
         offset="1" />
    </linearGradient>
    <linearGradient
       id="linearGradient6235">
      <stop
         id="stop6237"
         style="stop-color:#557c8c;stop-opacity:1"
         offset="0" />
      <stop
         id="stop6239"
         style="stop-color:#1b282d;stop-opacity:1"
         offset="1" />
    </linearGradient>
    <linearGradient
       x1="16.152042"
       y1="69.253807"
       x2="59.06226"
       y2="88.324837"
       id="linearGradient12274"
       xlink:href="#linearGradient12237"
       gradientUnits="userSpaceOnUse" />
    <linearGradient
       x1="12.179338"
       y1="69.472427"
       x2="70.50605"
       y2="100.11645"
       id="linearGradient12276"
       xlink:href="#linearGradient12245"
       gradientUnits="userSpaceOnUse" />
    <linearGradient
       x1="13.733545"
       y1="72.727783"
       x2="91.606018"
       y2="54.477783"
       id="linearGradient12278"
       xlink:href="#linearGradient11338"
       gradientUnits="userSpaceOnUse"
       gradientTransform="matrix(1.0429514,0,0,0.9567794,7.39125,0.224909)" />
    <linearGradient
       x1="79.295288"
       y1="11.935561"
       x2="56.457756"
       y2="30.91761"
       id="linearGradient12280"
       xlink:href="#linearGradient11338"
       gradientUnits="userSpaceOnUse"
       gradientTransform="matrix(1.0429514,0,0,0.9567794,7.39125,0.224909)" />
    <linearGradient
       x1="25.815628"
       y1="53.323235"
       x2="65.611649"
       y2="44.938053"
       id="linearGradient12282"
       xlink:href="#linearGradient10273"
       gradientUnits="userSpaceOnUse" />
    <linearGradient
       x1="32.704403"
       y1="44.882191"
       x2="48.369537"
       y2="62.745945"
       id="linearGradient12284"
       xlink:href="#linearGradient4331"
       gradientUnits="userSpaceOnUse"
       gradientTransform="matrix(0.8259493,0,0,0.9133399,12.787974,2.2278049e-2)" />
    <linearGradient
       x1="-40.181717"
       y1="33.00235"
       x2="-1.9925047"
       y2="34.463085"
       id="linearGradient12286"
       xlink:href="#linearGradient4343"
       gradientUnits="userSpaceOnUse"
       gradientTransform="matrix(0.3852229,0.5269203,-0.4632492,0.4360187,85.480989,32.909158)" />
    <linearGradient
       x1="86.667938"
       y1="18.267206"
       x2="68.404861"
       y2="47.805668"
       id="linearGradient12288"
       xlink:href="#linearGradient6235"
       gradientUnits="userSpaceOnUse"
       gradientTransform="matrix(0.8724302,0,0,0.9107854,12.463783,0.3111283)" />
    <linearGradient
       x1="75.012146"
       y1="6.0242915"
       x2="76.875"
       y2="24.680162"
       id="linearGradient12290"
       xlink:href="#linearGradient6227"
       gradientUnits="userSpaceOnUse"
       gradientTransform="matrix(0.8724302,0,0,0.9107854,12.261104,0.1251955)" />
    <linearGradient
       x1="71.007591"
       y1="0.36639675"
       x2="73.651825"
       y2="8.3562756"
       id="linearGradient12292"
       xlink:href="#linearGradient6200"
       gradientUnits="userSpaceOnUse"
       gradientTransform="matrix(0.8724302,0,0,0.9107854,12.261104,0.1251955)" />
    <radialGradient
       cx="66.782944"
       cy="18.964617"
       r="16.986485"
       fx="66.782944"
       fy="18.964617"
       id="radialGradient12294"
       xlink:href="#linearGradient4315"
       gradientUnits="userSpaceOnUse"
       gradientTransform="matrix(1.1244217,-2.146903,2.6502446,2.1043951,-58.61861,118.96084)" />
    <linearGradient
       x1="36.014416"
       y1="32.859924"
       x2="15.417027"
       y2="24.46063"
       id="linearGradient12296"
       xlink:href="#linearGradient5376"
       gradientUnits="userSpaceOnUse" />
    <linearGradient
       x1="20.146036"
       y1="12.889969"
       x2="29.644173"
       y2="28.184088"
       id="linearGradient12298"
       xlink:href="#linearGradient8641"
       gradientUnits="userSpaceOnUse"
       gradientTransform="matrix(0.8411203,-3.4031029e-3,1.0669247e-3,0.9185669,3.6456677,2.3125469)" />
    <linearGradient
       x1="51.448502"
       y1="55.33326"
       x2="64.853043"
       y2="78.978584"
       id="linearGradient12300"
       xlink:href="#linearGradient3430"
       gradientUnits="userSpaceOnUse" />
    <linearGradient
       x1="57.882355"
       y1="48.470589"
       x2="67.764709"
       y2="83.764709"
       id="linearGradient12302"
       xlink:href="#linearGradient3716"
       gradientUnits="userSpaceOnUse"
       gradientTransform="matrix(0.8411203,-3.4031029e-3,1.0669247e-3,0.9185669,3.6456677,2.3125469)" />
    <linearGradient
       x1="15.058824"
       y1="16.235294"
       x2="28.705881"
       y2="27.764706"
       id="linearGradient12304"
       xlink:href="#linearGradient6673"
       gradientUnits="userSpaceOnUse"
       gradientTransform="matrix(0.8411203,-3.4031029e-3,1.0669247e-3,0.9185669,3.6456677,2.3125469)" />
    <radialGradient
       cx="21.263945"
       cy="14.987971"
       r="8.8508158"
       fx="21.263945"
       fy="14.987971"
       id="radialGradient12306"
       xlink:href="#linearGradient7660"
       gradientUnits="userSpaceOnUse"
       gradientTransform="matrix(0.8411203,-3.4031029e-3,1.1979662e-3,1.0313868,3.6428524,-0.1113002)" />
    <linearGradient
       x1="40.235294"
       y1="39.764706"
       x2="36.941174"
       y2="43.058826"
       id="linearGradient12308"
       xlink:href="#linearGradient5675"
       gradientUnits="userSpaceOnUse"
       gradientTransform="matrix(0.8411203,-3.4031029e-3,1.0669247e-3,0.9185669,3.6456677,2.3125469)" />
    <linearGradient
       x1="36.014416"
       y1="32.859924"
       x2="15.417027"
       y2="24.46063"
       id="linearGradient12310"
       xlink:href="#linearGradient5376"
       gradientUnits="userSpaceOnUse" />
    <radialGradient
       cx="64.084389"
       cy="45.796833"
       r="18.176079"
       fx="64.084389"
       fy="45.796833"
       id="radialGradient12312"
       xlink:href="#linearGradient3708"
       gradientUnits="userSpaceOnUse"
       gradientTransform="matrix(1.6255252,-0.7493163,0.6070599,1.5781091,-82.290244,18.153127)" />
    <linearGradient
       x1="52.594147"
       y1="58.192471"
       x2="56.817619"
       y2="61.744518"
       id="linearGradient12314"
       xlink:href="#linearGradient5685"
       gradientUnits="userSpaceOnUse"
       gradientTransform="matrix(0.8411203,-3.4031029e-3,1.0669247e-3,0.9185669,3.6456677,2.3125469)" />
  </defs>
  <g
     transform="matrix(0.4780623,0,0,0.4780623,2.4213153e-2,2.0892008)"
     id="g12253">
    <path
       d="M 70.542891,96.206799 C 69.258419,100.35706 34.405155,89.224175 15.482407,81.092254 C 7.3994945,77.618677 6.1059612,73.687105 10.432344,73.290927 C 15.205262,72.853858 14.400815,68.414406 24.942535,71.977438 C 44.454241,78.572269 71.827363,92.056536 70.542891,96.206799 z"
       transform="matrix(-0.9481665,0.1280902,-0.1280902,-0.9481665,93.333176,151.60063)"
       id="path10670"
       style="opacity:0.49029128;fill:url(#linearGradient12274);fill-opacity:1;fill-rule:nonzero;stroke:#2d2d2d;stroke-width:1;stroke-linecap:round;stroke-linejoin:round;marker:none;marker-start:none;marker-mid:none;marker-end:none;stroke-miterlimit:4;stroke-dashoffset:0;stroke-opacity:1;visibility:visible;display:inline;overflow:visible;filter:url(#filter11225);enable-background:accumulate" />
    <path
       d="M 75.076816,98.945075 C 73.792344,103.09534 41.208896,86.054405 22.625655,77.173995 C 11.312518,71.767763 17.792431,74.369022 19.076903,70.218759 C 20.361375,66.068495 23.023174,68.529022 33.564894,72.092054 C 53.0766,78.686885 76.361288,94.794812 75.076816,98.945075 z"
       transform="matrix(0.9421583,-0.1666271,0.1666271,0.9421583,-4.6075039,2.7822822)"
       id="path2336"
       style="opacity:0.49029128;fill:url(#linearGradient12276);fill-opacity:1;fill-rule:nonzero;stroke:#2d2d2d;stroke-width:1;stroke-linecap:round;stroke-linejoin:round;marker:none;marker-start:none;marker-mid:none;marker-end:none;stroke-miterlimit:4;stroke-dashoffset:0;stroke-opacity:1;visibility:visible;display:inline;overflow:visible;filter:url(#filter11225);enable-background:accumulate" />
    <path
       d="M 74.759389,2.2281659 C 74.471321,2.2228193 74.136069,2.2528653 73.781622,2.3178639 C 71.987915,2.6166064 69.44257,3.6215981 67.817244,4.4108189 C 67.785164,4.4263964 67.750797,4.4552365 67.719468,4.4706176 C 67.208597,4.6010639 66.764719,4.7515287 66.480962,4.9789066 C 64.975814,6.185007 62.475324,8.333672 61.363982,11.915557 C 60.238954,15.541542 60.614372,20.347179 60.614361,20.347176 L 55.953672,25.459966 L 66.806885,40.888033 L 71.760904,36.014438 C 73.071595,36.302707 76.557773,37.046727 78.27935,36.552627 C 81.449638,35.764792 82.548341,34.342323 84.851797,31.74821 C 85.973299,30.308956 86.362958,29.523773 86.78033,28.718996 C 87.943423,26.476318 88.628675,19.932806 87.568136,18.044925 C 86.665815,16.438685 83.403935,18.241328 82.385971,18.852208 C 81.994733,18.89237 81.734126,19.2409 81.734126,19.2409 L 79.811185,21.274056 L 75.574195,19.330598 L 75.020127,11.736161 L 79.289709,6.5037738 C 79.492384,6.1319081 80.116617,5.4398277 78.86601,3.753033 C 78.841456,3.7199159 78.798664,3.6963362 78.768234,3.663335 C 78.540418,3.3560674 78.088673,3.0901276 77.529729,2.8560523 C 77.51717,2.8506291 77.509774,2.8315309 77.497137,2.826153 C 76.918437,2.5885399 76.217109,2.3958694 75.606787,2.2879646 C 75.352487,2.2430039 75.088608,2.2342762 74.759389,2.2281659 z"
       id="path6243"
       style="fill:url(#linearGradient12278);fill-opacity:1;fill-rule:nonzero;stroke:url(#linearGradient12280);stroke-width:3.99574661;stroke-linecap:round;stroke-linejoin:round;stroke-miterlimit:4;stroke-dasharray:none;stroke-opacity:1" />
    <path
       d="M 54.857143,23.408867 C 54.046357,23.037075 53.462514,23.232641 52.965517,23.64532 L 25.536946,51.546798 C 21.472436,55.681386 20.264412,64.456545 24.35468,69.280788 C 29.25692,75.062707 37.837651,74.31379 40.669951,71.408867 L 68.334975,43.034483 C 68.956495,42.218387 68.968723,41.646008 68.807882,41.142857 L 54.857143,23.408867 z"
       id="path8325"
       style="fill:url(#linearGradient12282);fill-opacity:1;fill-rule:evenodd;stroke:none;stroke-width:1px;stroke-linecap:butt;stroke-linejoin:miter;stroke-opacity:1" />
    <path
       d="M 54.221961,25.393843 L 28.639195,50.791523 C 24.924225,54.472373 22.007612,61.826157 25.134243,66.263427 C 26.669418,68.442124 28.695843,70.636915 31.50656,71.218539 C 34.317276,71.800164 37.754814,70.791823 39.374456,69.334518 C 41.069792,67.809106 70.153692,38.712829 66.4018,42.339418 C 60.898599,47.64885 47.547164,31.093266 54.221961,25.393843 z"
       id="rect28656"
       style="fill:url(#linearGradient12284);fill-opacity:1;fill-rule:nonzero;stroke:none;stroke-width:2;stroke-linecap:round;stroke-linejoin:miter;stroke-miterlimit:4;stroke-dasharray:none;stroke-opacity:1" />
    <path
       d="M 66.193605,42.592747 C 64.62782,44.067737 60.795343,44.269547 55.559917,37.930045 C 51.861558,33.451756 51.565274,27.728476 53.841512,25.697165 C 55.450207,24.261566 59.442449,26.809358 62.853766,31.475465 C 66.265083,36.141573 67.760465,41.119234 66.193605,42.592747 z"
       id="path3325"
       style="fill:url(#linearGradient12286);fill-opacity:1;fill-rule:nonzero;stroke:none;stroke-width:2.73403382;stroke-linecap:round;stroke-linejoin:round;marker:none;marker-start:none;marker-mid:none;marker-end:none;stroke-miterlimit:4;stroke-dasharray:none;stroke-dashoffset:0;stroke-opacity:1;visibility:visible;display:inline;overflow:visible;enable-background:accumulate" />
    <path
       d="M 75.820073,2.4783151 C 73.785661,2.11863 67.10917,4.5876812 66.168448,5.3414938 C 64.663299,6.5475938 66.348152,6.4549539 65.236813,10.036839 C 64.111787,13.662824 64.479066,18.455823 64.479057,18.45582 L 62.835488,42.713515 L 66.689294,41.039961 L 74.098204,33.721094 C 74.098202,33.721083 77.673646,35.026359 80.599694,34.186571 C 82.225583,33.719938 83.580926,32.610808 84.667277,31.412722 C 85.512224,30.480878 86.189446,29.487608 86.6983,28.728426 C 87.861391,26.993158 88.63281,19.922148 87.57227,18.034267 C 86.508811,16.141174 81.937822,19.110248 81.937822,19.110248 L 81.261503,21.973044 L 75.3463,19.456707 L 74.563081,11.258161 L 78.770215,6.4107335 C 78.770215,6.4107335 79.817185,5.430761 78.566581,3.7439664 C 78.098884,3.1131642 77.040718,2.6941244 75.820073,2.4783151 z"
       id="path3257"
       style="fill:url(#linearGradient12288);fill-opacity:1;fill-rule:evenodd;stroke:none;stroke-width:0.74479431;stroke-linecap:butt;stroke-linejoin:miter;stroke-miterlimit:4;stroke-dasharray:none;stroke-opacity:1" />
    <path
       d="M 74.748914,2.2313869 C 72.444377,2.188614 67.60647,4.6682986 66.783342,5.3278848 C 65.278193,6.5339845 66.154468,6.2773302 65.043127,9.8592145 C 63.918103,13.485201 64.279761,18.283983 64.27975,18.28398 L 63.843537,36.49969 L 79.879149,21.312456 L 75.57924,19.333413 L 75.01854,11.747406 L 79.27517,6.4949724 C 79.477847,6.1231066 80.132254,5.4418304 78.881647,3.7550358 C 78.413953,3.1242335 76.841987,2.5041205 75.621344,2.2883108 C 75.36704,2.2433501 75.078133,2.2374972 74.748914,2.2313869 z"
       id="path6213"
       style="fill:url(#linearGradient12290);fill-opacity:1;fill-rule:evenodd;stroke:none;stroke-width:0.74479431;stroke-linecap:butt;stroke-linejoin:miter;stroke-miterlimit:4;stroke-dasharray:none;stroke-opacity:1" />
    <path
       d="M 74.748914,2.2313869 C 72.444377,2.188614 67.201114,4.5753322 66.377985,5.2349183 C 65.04972,6.2992771 66.177893,6.0459974 65.370289,8.7776573 L 79.55552,5.5690264 C 79.645966,5.1149713 79.383392,4.4754981 78.780307,3.6620693 C 78.312614,3.0312671 76.841987,2.5041205 75.621344,2.2883108 C 75.36704,2.2433501 75.078133,2.2374972 74.748914,2.2313869 z"
       id="path4254"
       style="fill:url(#linearGradient12292);fill-opacity:1;fill-rule:evenodd;stroke:none;stroke-width:0.74479431;stroke-linecap:butt;stroke-linejoin:miter;stroke-miterlimit:4;stroke-dasharray:none;stroke-opacity:1" />
    <path
       d="M 71.948388,4.3581556 C 69.913976,3.9984705 67.422288,4.2300006 66.481565,4.983813 C 64.976419,6.1899132 62.476468,8.3347943 61.365128,11.91668 C 60.240101,15.542664 60.607381,20.335663 60.607372,20.33566 L 52.449189,29.287338 L 62.817607,42.919802 L 70.226518,35.600935 C 70.226516,35.600925 73.80196,36.906199 76.728009,36.066411 C 78.353897,35.599781 79.709239,34.490649 80.795595,33.292564 C 81.640539,32.360719 82.317762,31.367449 82.826616,30.608266 C 83.989706,28.872999 84.761126,21.801988 83.700589,19.914108 C 82.637126,18.021015 81.744243,19.231582 81.744243,19.231582 L 77.389819,23.852885 L 71.474615,21.336547 L 70.691395,13.138002 L 74.898532,8.290574 C 74.898532,8.290574 75.945502,7.3106016 74.694893,5.623807 C 74.227202,4.9930048 73.169033,4.573965 71.948388,4.3581556 z"
       id="path3334"
       style="fill:url(#radialGradient12294);fill-opacity:1;fill-rule:evenodd;stroke:none;stroke-width:0.74479431;stroke-linecap:butt;stroke-linejoin:miter;stroke-miterlimit:4;stroke-dasharray:none;stroke-opacity:1" />
    <path
       d="M 19.612738,12.639282 L 19.245015,12.870413 L 19.21873,12.870519 L 14.101121,19.751803 L 19.079724,28.974783 L 25.443197,31.101939 L 25.443164,31.073233 L 25.521919,30.986799 L 27.018764,29.775118 L 30.194382,25.571288 L 28.50454,19.033305 L 19.612738,12.639282 z"
       id="path8649"
       style="fill:none;fill-opacity:1;fill-rule:evenodd;stroke:url(#linearGradient12296);stroke-width:3.51597238;stroke-linecap:butt;stroke-linejoin:round;stroke-miterlimit:4;stroke-dasharray:none;stroke-opacity:1" />
    <path
       d="M 19.217876,12.875493 L 25.431937,31.076803 L 27.014824,29.784626 L 30.1904,25.563839 L 28.503355,19.045857 L 19.616614,12.637915 L 19.217876,12.875493 z"
       id="path2737"
       style="fill:url(#linearGradient12298);fill-opacity:1;fill-rule:evenodd;stroke:none;stroke-width:0.91203362px;stroke-linecap:butt;stroke-linejoin:miter;stroke-opacity:1" />
    <path
       d="M 50.560284,43.831609 C 49.22485,43.786825 47.958735,44.416241 47.958735,44.416241 L 47.301877,44.648542 C 45.917937,44.645269 44.569136,45.434643 44.569136,45.434643 L 40.947473,50.329205 C 40.947472,50.329205 39.609466,54.570755 41.270195,56.614371 L 44.876376,61.020405 C 45.255262,61.486644 45.634472,60.069072 46.348203,60.899629 C 47.085869,61.758037 45.587444,64.056118 46.221345,64.832775 L 61.59373,83.6587 C 62.090641,84.267514 63.03236,84.489693 63.723482,84.22419 C 65.011857,84.301827 67.567302,83.32828 68.058742,82.685267 L 74.094858,74.537231 C 74.678365,73.72428 74.487007,71.859957 73.854225,71.036152 L 58.927986,51.605609 C 58.312415,50.804205 56.113685,52.553852 55.43208,51.619753 C 54.772591,50.715962 56.666467,49.942285 56.296985,49.463352 L 52.795777,44.913367 C 52.18846,44.126144 51.361545,43.858478 50.560284,43.831609 z"
       id="path5699"
       style="fill:none;fill-opacity:1;fill-rule:evenodd;stroke:url(#linearGradient12300);stroke-width:3.51597238;stroke-linecap:butt;stroke-linejoin:miter;stroke-miterlimit:4;stroke-dasharray:none;stroke-opacity:1" />
    <path
       d="M 44.477419,45.70434 C 44.477419,45.70434 43.008093,53.83252 44.668822,55.876136 L 48.263296,60.298656 C 48.642181,60.764893 49.018908,59.331001 49.732639,60.161557 C 50.470305,61.019968 49.365166,62.886503 49.999067,63.66316 L 63.062162,84.027147 C 63.713784,84.825515 67.454513,83.468613 68.057262,82.67996 L 74.083556,74.543642 C 74.667065,73.730688 74.480925,71.865942 73.848143,71.042136 L 58.926356,51.610104 C 58.310784,50.808701 56.112708,52.552805 55.431103,51.618706 C 54.771614,50.714915 56.662852,49.935894 56.293371,49.456962 L 52.788617,44.913306 C 51.169103,42.814044 47.960414,44.41057 47.960414,44.41057 L 44.477419,45.70434 z"
       id="path2731"
       style="fill:url(#linearGradient12302);fill-opacity:1;fill-rule:evenodd;stroke:none;stroke-width:0.91203362px;stroke-linecap:butt;stroke-linejoin:miter;stroke-opacity:1" />
    <path
       d="M 14.106918,19.760416 L 19.083637,28.983094 L 25.433045,31.087832 L 29.00394,26.433177 L 26.921073,19.916796 L 19.221044,12.85565 L 14.106918,19.760416 z"
       id="path2656"
       style="fill:url(#linearGradient12304);fill-opacity:1;fill-rule:evenodd;stroke:none;stroke-width:0.91203362px;stroke-linecap:butt;stroke-linejoin:miter;stroke-opacity:1" />
    <path
       d="M 14.106918,19.760416 L 19.083637,28.983094 L 25.433045,31.087832 L 29.00394,26.433177 L 26.921073,19.916796 L 19.221044,12.85565 L 14.106918,19.760416 z"
       id="path6687"
       style="fill:url(#radialGradient12306);fill-opacity:1;fill-rule:evenodd;stroke:none;stroke-width:0.91203362px;stroke-linecap:butt;stroke-linejoin:miter;stroke-opacity:1" />
    <path
       d="M 25.433097,31.366073 L 42.033396,51.995141 L 46.595732,46.207839 L 30.18396,25.339624 C 27.690231,27.370027 26.775491,28.427501 25.433097,31.366073 z"
       id="path2735"
       style="fill:url(#linearGradient12308);fill-opacity:1;fill-rule:evenodd;stroke:url(#linearGradient12310);stroke-width:1.75798619;stroke-linecap:butt;stroke-linejoin:miter;stroke-miterlimit:4;stroke-dasharray:none;stroke-opacity:1" />
    <path
       d="M 40.953613,50.33171 C 40.953613,50.33171 39.619705,54.562174 41.280433,56.605791 L 44.874907,61.02831 C 45.253792,61.494548 45.63052,60.060655 46.344251,60.891212 C 47.081916,61.749622 45.581459,64.050026 46.21536,64.826682 L 61.585755,83.653033 C 62.237377,84.451401 63.670805,84.632136 64.273554,83.843482 L 70.299848,75.707165 C 70.883357,74.894211 70.697217,73.029464 70.064436,72.205658 L 55.142649,52.773626 C 54.527076,51.972224 53.713621,53.062322 53.032016,52.128224 C 52.372527,51.224433 53.274464,50.665549 52.904982,50.186616 L 49.400228,45.642961 C 47.780714,43.543699 44.572381,45.445883 44.572381,45.445883 L 40.953613,50.33171 z"
       id="path2723"
       style="fill:url(#radialGradient12312);fill-opacity:1;fill-rule:evenodd;stroke:none;stroke-width:0.91203362px;stroke-linecap:butt;stroke-linejoin:miter;stroke-opacity:1" />
    <path
       d="M 40.953613,50.33171 C 40.953613,50.33171 39.619705,54.562174 41.280433,56.605791 L 44.874907,61.02831 C 45.253792,61.494548 45.63052,60.060655 46.344251,60.891212 C 47.081916,61.749622 45.581459,64.050026 46.21536,64.826682 L 61.585755,83.653033 C 62.237377,84.451401 63.670805,84.632136 64.273554,83.843482 L 70.299848,75.707165 C 70.883357,74.894211 70.697217,73.029464 70.064436,72.205658 L 55.142649,52.773626 C 54.527076,51.972224 53.713621,53.062322 53.032016,52.128224 C 52.372527,51.224433 53.274464,50.665549 52.904982,50.186616 L 49.400228,45.642961 C 47.780714,43.543699 44.572381,45.445883 44.572381,45.445883 L 40.953613,50.33171 z"
       id="path5683"
       style="fill:url(#linearGradient12314);fill-opacity:1;fill-rule:evenodd;stroke:none;stroke-width:0.91203362px;stroke-linecap:butt;stroke-linejoin:miter;stroke-opacity:1" />
  </g>
</svg>
