<svg xmlns="http://www.w3.org/2000/svg" viewBox="0 0 48 48" xmlns:xlink="http://www.w3.org/1999/xlink">
<defs>
<linearGradient gradientTransform="translate(-5.66929 -0)" xlink:href="#linearGradient2974" id="linearGradient2556" y1="19.812" x1="46" y2="22.625" gradientUnits="userSpaceOnUse" x2="47.688"/>
<linearGradient gradientTransform="translate(-5.66929 -0)" xlink:href="#linearGradient2966" id="linearGradient2554" y1="17.376" x1="48.906" y2="22.251" gradientUnits="userSpaceOnUse" x2="50.988"/>
<linearGradient gradientTransform="translate(-5.82554 .125)" xlink:href="#linearGradient2994" id="linearGradient2560" y1="31.047" x1="25.719" y2="30.703" gradientUnits="userSpaceOnUse" x2="25.515"/>
<linearGradient id="linearGradient4440">
<stop offset="0" stop-color="#7d7d7d"/>
<stop offset=".5" stop-color="#b1b1b1"/>
<stop offset="1" stop-color="#686868"/>
</linearGradient>
<linearGradient id="linearGradient2966">
<stop offset="0" stop-color="#ffd1d1"/>
<stop offset=".5" stop-color="#ff1d1d"/>
<stop offset="1" stop-color="#6f0000"/>
</linearGradient>
<linearGradient id="linearGradient2974">
<stop offset="0" stop-color="#c1c1c1"/>
<stop offset="1" stop-color="#acacac"/>
</linearGradient>
<linearGradient id="linearGradient2366">
<stop offset="0" stop-color="#fff"/>
<stop offset=".5" stop-color="#fff" stop-opacity=".219"/>
<stop offset="1" stop-color="#fff"/>
</linearGradient>
<linearGradient id="linearGradient2994">
<stop offset="0"/>
<stop offset="1" stop-color="#c9c9c9"/>
</linearGradient>
<linearGradient id="linearGradient2846">
<stop offset="0" stop-color="#8a8a8a"/>
<stop offset="1" stop-color="#484848"/>
</linearGradient>
<linearGradient id="linearGradient5060">
<stop offset="0"/>
<stop offset="1" stop-opacity="0"/>
</linearGradient>
<linearGradient id="linearGradient5048">
<stop offset="0" stop-opacity="0"/>
<stop offset=".5"/>
<stop offset="1" stop-opacity="0"/>
</linearGradient>
<linearGradient gradientTransform="matrix(-1 0 0 1 48.18409 -0)" xlink:href="#linearGradient2846" id="linearGradient2730" y1="26.58" x1="27.366" y2="30.558" gradientUnits="userSpaceOnUse" x2="31.336"/>
<linearGradient gradientTransform="matrix(-1.33459 0 0 1.29129 55.15793 -7.46066)" xlink:href="#linearGradient4440" id="linearGradient2732" y1="34" x1="30.656" y2="31.062" gradientUnits="userSpaceOnUse" x2="33.219"/>
<linearGradient gradientTransform="matrix(2.77439 0 0 1.96971 -1892.179 -872.8854)" xlink:href="#linearGradient5048" id="linearGradient5027" y1="366.648" y2="609.505" gradientUnits="userSpaceOnUse" x2="0"/>
<linearGradient gradientTransform="matrix(-1 0 0 1 44.17827 -0)" xlink:href="#linearGradient2366" id="linearGradient2734" y1="13.602" x1="18.293" y2="25.743" gradientUnits="userSpaceOnUse" x2="17.501"/>
<radialGradient cx="18.241" cy="21.818" gradientTransform="matrix(-1 0 0 1 43.352 0)" id="radialGradient2736" r="8.309" gradientUnits="userSpaceOnUse">
<stop offset="0" stop-color="#729fcf" stop-opacity=".208"/>
<stop offset="1" stop-color="#729fcf" stop-opacity=".676"/>
</radialGradient>
<radialGradient cx="23.562" cy="40.438" gradientTransform="matrix(1 0 0 .34824 -0 26.35543)" id="radialGradient2552" r="19.562" gradientUnits="userSpaceOnUse">
<stop offset="0"/>
<stop offset="1" stop-opacity="0"/>
</radialGradient>
<radialGradient cx="29.053" cy="27.641" gradientTransform="matrix(2.92356 -0 0 2.02972 -61.55532 -27.88417)" id="radialGradient2558" r="3.241" gradientUnits="userSpaceOnUse">
<stop offset="0" stop-color="#e7e2b8"/>
<stop offset="1" stop-color="#e7e2b8" stop-opacity="0"/>
</radialGradient>
<radialGradient cx="605.714" cy="486.648" gradientTransform="matrix(-2.77439 0 0 1.96971 112.7623 -872.8854)" xlink:href="#linearGradient5060" id="radialGradient5031" r="117.143" gradientUnits="userSpaceOnUse"/>
<radialGradient cx="24.13" cy="37.968" gradientTransform="matrix(1 0 0 .23797 -0 28.93278)" id="radialGradient2504" r="16.529" gradientUnits="userSpaceOnUse">
<stop offset="0"/>
<stop offset="1" stop-opacity="0"/>
</radialGradient>
<radialGradient cx="20.892" cy="114.568" id="aigrd2" r="5.256" gradientUnits="userSpaceOnUse">
<stop offset="0" stop-color="#f0f0f0"/>
<stop offset="1" stop-color="#9a9a9a"/>
</radialGradient>
<radialGradient cx="605.714" cy="486.648" gradientTransform="matrix(2.77439 0 0 1.96971 -1891.633 -872.8854)" xlink:href="#linearGradient5060" id="radialGradient5029" r="117.143" gradientUnits="userSpaceOnUse"/>
<radialGradient cx="20.892" cy="64.568" id="aigrd3" r="5.257" gradientUnits="userSpaceOnUse">
<stop offset="0" stop-color="#f0f0f0"/>
<stop offset="1" stop-color="#9a9a9a"/>
</radialGradient>
<radialGradient cx="8.824" cy="3.756" gradientTransform="matrix(.96827 0 0 1.03277 3.35355 .64645)" id="radialGradient15656" r="37.752" gradientUnits="userSpaceOnUse">
<stop offset="0" stop-color="#a3a3a3"/>
<stop offset="1" stop-color="#4c4c4c"/>
</radialGradient>
<radialGradient cx="15.414" cy="13.078" gradientTransform="matrix(2.59296 -0 -0 2.2521 -25.05976 -18.941)" id="radialGradient2738" r="6.656" gradientUnits="userSpaceOnUse">
<stop offset="0" stop-color="#fff"/>
<stop offset="1" stop-color="#fff" stop-opacity=".248"/>
</radialGradient>
<radialGradient cx="33.967" cy="35.737" gradientTransform="scale(.96049 1.04113)" id="radialGradient15658" r="86.708" gradientUnits="userSpaceOnUse">
<stop offset="0" stop-color="#fafafa"/>
<stop offset="1" stop-color="#bbb"/>
</radialGradient>
<radialGradient cx="20.892" cy="64.568" gradientTransform="matrix(.2297 0 0 .2297 4.61353 3.97981)" r="5.257" id="radialGradient2285" xlink:href="#aigrd3" gradientUnits="userSpaceOnUse"/>
<radialGradient cx="8.144" cy="7.268" gradientTransform="matrix(.96827 0 0 1.03277 3.35355 .64645)" id="radialGradient15668" r="38.159" gradientUnits="userSpaceOnUse">
<stop offset="0" stop-color="#fff"/>
<stop offset="1" stop-color="#f8f8f8"/>
</radialGradient>
<radialGradient cx="20.892" cy="114.568" gradientTransform="matrix(.2297 0 0 .2297 4.61353 3.97981)" r="5.256" id="radialGradient2283" xlink:href="#aigrd2" gradientUnits="userSpaceOnUse"/>
</defs>
<g color="#000" transform="matrix(.02165 0 0 .01486 43.0076 42.68539)">
<path opacity=".402" fill="url(#linearGradient5027)" d="m-1559.25-150.697h1339.631v478.357h-1339.631z"/>
<path opacity=".402" fill="url(#radialGradient5029)" d="m-219.6188-150.6804c0,0 0,478.3308 0,478.3308 142.8742,.9004 345.4002-107.1697 345.4001-239.1962-0-132.0265-159.4368-239.1346-345.4001-239.1346z"/>
<path opacity=".402" fill="url(#radialGradient5031)" d="m-1559.2523-150.6804c0,0 0,478.3308 0,478.3308-142.8742,.9004-345.4002-107.1697-345.4002-239.1962 0-132.0265 159.4368-239.1346 345.4002-239.1346z"/>
</g>
<path stroke-opacity=".018" fill="none" fill-rule="evenodd" stroke="#000" fill-opacity=".75" stroke-width=".989" d="m11.5057,5.4943v37.9066"/>
<g display="block" stroke-linejoin="round" stroke-linecap="round" color="#000" stroke-width=".997">
<path fill="url(#radialGradient15658)" stroke="url(#radialGradient15656)" d="m7.7485,3.6465h32.5851a1.1449,1.1468 0 0,1 1.145,1.1468v38.6268a1.1449,1.1468 0 0,1 -1.145,1.1468h-32.5851a1.1449,1.1468 0 0,1 -1.1449-1.1468v-38.6268a1.1449,1.1468 0 0,1 1.1449-1.1468" transform="matrix(1.00358 0 0 1.00194 -.12722 -.15353)"/>
<path fill="none" stroke="url(#radialGradient15668)" d="m7.8146,4.5839h32.4788a.1485,.1488 0 0,1 .1485,.1488v38.6489a.1485,.1488 0 0,1 -.1485,.1487h-32.4788a.1485,.1488 0 0,1 -.1485-.1487v-38.6489a.1485,.1488 0 0,1 .1485-.1488" transform="matrix(1.00358 0 0 1.00194 -.12722 -.15353)"/>
</g>
<g fill="#fff" stroke="none" transform="matrix(.2297 0 0 .2297 5.61353 4.20698)">
<path d="m23.428,113.07c0,1.973-1.6,3.572-3.573,3.572-1.974,0-3.573-1.6-3.573-3.572 0-1.974 1.6-3.573 3.573-3.573 1.973,0 3.573,1.6 3.573,3.573z"/>
<path d="m23.428,63.07c0,1.973-1.6,3.573-3.573,3.573-1.974,0-3.573-1.6-3.573-3.573 0-1.974 1.6-3.573 3.573-3.573 1.973,0 3.573,1.6 3.573,3.573z"/>
</g>
<g transform="translate(.64645 -.03799)">
<path fill="url(#radialGradient2283)" d="m9.995,29.9523c0,.4532-.3675,.8205-.8207,.8205-.4534,0-.8207-.3675-.8207-.8205 0-.4534 .3675-.8207 .8207-.8207 .4532,0 .8207,.3675 .8207,.8207z"/>
<path fill="url(#radialGradient2285)" d="m9.995,18.4672c0,.4532-.3675,.8207-.8207,.8207-.4534,0-.8207-.3675-.8207-.8207 0-.4534 .3675-.8207 .8207-.8207 .4532,0 .8207,.3675 .8207,.8207z"/>
</g>
<path stroke-opacity=".205" fill="none" fill-rule="evenodd" stroke="#fff" fill-opacity=".75" d="m12.5,5.0205v38.0177"/>
<g color="#000">
<g fill="#9b9b9b" display="block" fill-opacity=".55" transform="matrix(.90909 0 0 1 2.36363 0)">
<path d="m15.1516,9h21.6968a.1516,.0654 0 0,1 .1516,.0654v.8692a.1516,.0654 0 0,1 -.1516,.0654h-21.6968a.1516,.0654 0 0,1 -.1516-.0654v-.8692a.1516,.0654 0 0,1 .1516-.0654"/>
<path d="m15.1516,11h21.6968a.1516,.0654 0 0,1 .1516,.0654v.8692a.1516,.0654 0 0,1 -.1516,.0654h-21.6968a.1516,.0654 0 0,1 -.1516-.0654v-.8692a.1516,.0654 0 0,1 .1516-.0654"/>
<path d="m15.1516,13h21.6968a.1516,.0654 0 0,1 .1516,.0654v.8692a.1516,.0654 0 0,1 -.1516,.0654h-21.6968a.1516,.0654 0 0,1 -.1516-.0654v-.8692a.1516,.0654 0 0,1 .1516-.0654"/>
<path d="m15.1516,15h21.6968a.1516,.0654 0 0,1 .1516,.0654v.8692a.1516,.0654 0 0,1 -.1516,.0654h-21.6968a.1516,.0654 0 0,1 -.1516-.0654v-.8692a.1516,.0654 0 0,1 .1516-.0654"/>
<path d="m15.1516,17h21.6968a.1516,.0654 0 0,1 .1516,.0654v.8692a.1516,.0654 0 0,1 -.1516,.0654h-21.6968a.1516,.0654 0 0,1 -.1516-.0654v-.8692a.1516,.0654 0 0,1 .1516-.0654"/>
<path d="m15.1516,19h21.6968a.1516,.0654 0 0,1 .1516,.0654v.8692a.1516,.0654 0 0,1 -.1516,.0654h-21.6968a.1516,.0654 0 0,1 -.1516-.0654v-.8692a.1516,.0654 0 0,1 .1516-.0654"/>
<path d="m15.1516,21h21.6968a.1516,.0654 0 0,1 .1516,.0654v.8692a.1516,.0654 0 0,1 -.1516,.0654h-21.6968a.1516,.0654 0 0,1 -.1516-.0654v-.8692a.1516,.0654 0 0,1 .1516-.0654"/>
<path d="m15.1516,23h21.6968a.1516,.0654 0 0,1 .1516,.0654v.8692a.1516,.0654 0 0,1 -.1516,.0654h-21.6968a.1516,.0654 0 0,1 -.1516-.0654v-.8692a.1516,.0654 0 0,1 .1516-.0654"/>
<path d="m15.0682,25h9.7636a.0682,.0654 0 0,1 .0682,.0654v.8692a.0682,.0654 0 0,1 -.0682,.0654h-9.7636a.0682,.0654 0 0,1 -.0682-.0654v-.8692a.0682,.0654 0 0,1 .0682-.0654"/>
<path d="m15.1516,29h21.6968a.1516,.0654 0 0,1 .1516,.0654v.8692a.1516,.0654 0 0,1 -.1516,.0654h-21.6968a.1516,.0654 0 0,1 -.1516-.0654v-.8692a.1516,.0654 0 0,1 .1516-.0654"/>
<path d="m15.1516,31h21.6968a.1516,.0654 0 0,1 .1516,.0654v.8692a.1516,.0654 0 0,1 -.1516,.0654h-21.6968a.1516,.0654 0 0,1 -.1516-.0654v-.8692a.1516,.0654 0 0,1 .1516-.0654"/>
<path d="m15.1516,33h21.6968a.1516,.0654 0 0,1 .1516,.0654v.8692a.1516,.0654 0 0,1 -.1516,.0654h-21.6968a.1516,.0654 0 0,1 -.1516-.0654v-.8692a.1516,.0654 0 0,1 .1516-.0654"/>
<path d="m15.1516,35h21.6968a.1516,.0654 0 0,1 .1516,.0654v.8692a.1516,.0654 0 0,1 -.1516,.0654h-21.6968a.1516,.0654 0 0,1 -.1516-.0654v-.8692a.1516,.0654 0 0,1 .1516-.0654"/>
<path d="m15.1061,37h15.1878a.1061,.0654 0 0,1 .1061,.0654v.8692a.1061,.0654 0 0,1 -.1061,.0654h-15.1878a.1061,.0654 0 0,1 -.1061-.0654v-.8692a.1061,.0654 0 0,1 .1061-.0654"/>
</g>
<g fill-rule="evenodd">
<path opacity=".171" fill="url(#radialGradient2504)" d="m40.6586,37.9679a16.5286,3.9333 0 1,1 -33.0572,0 16.5286,3.9333 0 1,1 33.0572,0z" transform="matrix(.96242 0 0 1.01137 -7.13077 -7.90321)"/>
<g transform="translate(-1.00032 -.85088)">
<g fill="#dcdcdc">
<path stroke="url(#linearGradient2730)" stroke-linecap="round" stroke-width="3.109" d="m18.6276,3.1436c-8.1391,0-14.7448,6.6057-14.7448,14.7448-0,8.1391 6.6057,14.7448 14.7448,14.7448 3.4796,0 6.551-1.3844 9.0737-3.4026-.2054,1.0069-.078,2.0354 .7561,2.7599l10.9641,9.5274c1.2334,1.0713 3.0875,.931 4.1588-.3025 1.0713-1.2334 .931-3.0875-.3025-4.1588l-10.9641-9.5274c-.6715-.5833-1.4929-.756-2.3062-.6427 1.9867-2.5124 3.3648-5.5488 3.3648-8.9981 0-8.1391-6.6057-14.7448-14.7448-14.7448zm-.0756,1.2262c7.6395,0 13.2918,4.789 13.2918,13.2918 0,8.6751-5.8167,13.2918-13.2918,13.2918-7.3029,0-13.2918-5.4781-13.2918-13.2918 0-7.9841 5.8246-13.2918 13.2918-13.2918z" transform="matrix(-.64328 0 0 .64328 31.49802 4.8287)" stroke-miterlimit="10"/>
<path d="m18.6029,3.0804c-8.1654,0-14.7925,6.627-14.7925,14.7925-0,8.1654 6.627,14.7925 14.7925,14.7925 3.4908,0 6.5722-1.3889 9.1031-3.4136-.206,1.0101-.0783,2.0419 .7586,2.7688l10.9995,9.5582c1.2374,1.0748 3.0974,.934 4.1722-.3034 1.0748-1.2374 .934-3.0974-.3034-4.1722l-10.9995-9.5582c-.6737-.5852-1.4977-.7584-2.3137-.6448 1.9931-2.5205 3.3757-5.5667 3.3757-9.0272 0-8.1654-6.627-14.7925-14.7925-14.7925zm-.0759,3.1861c6.2811,0 11.3788,5.0977 11.3788,11.3788 0,6.2811-5.0977,11.3788-11.3788,11.3788-6.2811,0-11.3788-5.0977-11.3788-11.3788 0-6.2811 5.0977-11.3788 11.3788-11.3788z" transform="matrix(-.64328 0 0 .64328 31.49802 4.8287)"/>
</g>
<path fill="url(#linearGradient2732)" d="m39.507,41.5777c-.4787-2.2732 1.3973-4.8114 3.5841-4.7884 0,0-10.7604-9.2581-10.7604-9.2581-2.9448-.0567-4.2695,2.2726-3.7768,4.5999l10.9531,9.4466z" transform="matrix(-.64328 0 0 .64328 31.49802 4.8287)"/>
<g stroke-linecap="round" stroke-miterlimit="10">
<g fill="none">
<path stroke="url(#linearGradient2734)" stroke-width="1.248" d="m28.5494,18.9202a11.0485,11.0485 0 1,1 -22.0971,0 11.0485,11.0485 0 1,1 22.0971,0z" transform="matrix(-.80136 0 0 .80136 33.70147 .85516)"/>
<path opacity=".433" stroke="#fff" stroke-width="1.555" d="m43.6949,.1409h12.4053a3.3215,2.2202 0 0,1 3.3216,2.2202v.0001a3.3215,2.2202 0 0,1 -3.3216,2.2202h-12.4053a3.3215,2.2202 0 0,1 -3.3216-2.2202v-.0001a3.3215,2.2202 0 0,1 3.3216-2.2202" transform="matrix(-.48438 .4233 .41742 .48945 31.49802 4.8287)"/>
</g>
<path fill="url(#radialGradient2736)" stroke="#3063a3" stroke-width="1.111" d="m25.8978,18.4783a8.3085,8.3085 0 1,1 -16.617,0 8.3085,8.3085 0 1,1 16.617,0z" transform="matrix(-.8997 0 0 .8997 35.502 -.50983)"/>
</g>
<path opacity=".834" fill="url(#radialGradient2738)" d="m18.1569,7.3967c-5.2076,0-9.4245,4.217-9.4245,9.4245 0,1.504 .4203,2.8878 1.0472,4.1499 1.2524,.4616 2.5828,.7757 3.9948,.7757 6.171,0 11.0993-4.8616 11.4801-10.9371-1.731-2.0455-4.21-3.413-7.0975-3.413z" transform="matrix(.64328 0 0 .64328 7.85593 4.8287)"/>
</g>
<path opacity=".2" fill="url(#radialGradient2552)" d="m43.125,40.4375a19.5625,6.8125 0 1,1 -39.125,0 19.5625,6.8125 0 1,1 39.125,0z" transform="matrix(.61661 0 0 .29358 12.73816 29.12848)"/>
<g transform="matrix(1.0337 -.27698 .27698 1.0337 16.06828 -14.54823)">
<path fill="#cb9022" stroke="#5c410c" stroke-width=".934" d="m17.3412,32.5l5.625-5.625 20.0937-9.75c3.25-1.25 5.1875,3.375 2.3125,5l-20.0312,9.375-8,1z" transform="translate(-29.75546 19)"/>
<path fill="url(#linearGradient2554)" d="m38.3307,20c0,0 1.4375,.0938 2,1.3438 .5795,1.2878 0,2.6562 0,2.6562l5.0312-2.4688c0,0 1.452-.8814 .6562-2.8438-.7849-1.9356-2.6875-1.1562-2.6875-1.1562l-5,2.4688z" transform="translate(-29.75546 19)"/>
<path fill="url(#linearGradient2556)" d="m38.3307,20c0,0 1.4375,.0938 2,1.3438 .5795,1.2878 0,2.6562 0,2.6562l2-1c0,0 .827-1.3189 .2188-2.6875-.625-1.4062-2.2188-1.3125-2.2188-1.3125l-2,1z" transform="translate(-29.75546 19)"/>
<path fill="url(#radialGradient2558)" d="m18.7682,31.7812l4.5-4.5c1.5,.8125 2.2812,2.1562 1.875,3.7188l-6.375,.7812z" transform="translate(-29.75546 19)"/>
<path fill="url(#linearGradient2560)" d="m20.112,30.375l-1.625,1.5938 2.3438-.3125c.2188-.7188-.1875-1.0625-.7188-1.2812z" transform="translate(-29.75546 19)"/>
<g fill-opacity=".364">
<path fill="#fff" d="m23.2682,27.25l1.5625,1.25 15.3873-7.3187c-.4444-.856-1.2418-1.0846-1.9034-1.1623l-15.0465,7.2309z" transform="translate(-29.75546 19)"/>
<path d="m25.1432,31.0625l.1875-.75 15.2311-7.1296c0,0-.1102,.6136-.2159,.7493l-15.2027,7.1303z" transform="translate(-29.75546 19)"/>
</g>
</g>
</g>
</g>
</svg>
