<?xml version="1.0" encoding="UTF-8" standalone="no"?>
<!-- Created with Inkscape (http://www.inkscape.org/) -->
<svg
   xmlns:svg="http://www.w3.org/2000/svg"
   xmlns="http://www.w3.org/2000/svg"
   version="1.0"
   width="32pt"
   height="32pt"
   viewBox="0 0 32 32"
   id="svg2">
  <defs
     id="defs42" />
  <g
     id="#919293ff">
    <path
       d="M 1.05,4.06 C 5.75,3.76 10.47,4.11 15.14,4.67 C 15.08,7.4 15.02,10.14 14.97,12.87 L 13.97,12.83 C 13.95,11.39 13.91,8.49 13.9,7.04 C 9.94,6.89 5.98,6.89 2.02,7.05 C 1.89,9.69 1.9,12.33 2.06,14.97 C 5.27,15.04 8.5,15.07 11.7,14.8 C 12.06,15.08 12.76,15.63 13.12,15.91 C 13.06,18.6 13.05,21.29 13.1,23.98 L 13.12,24.89 L 12.28,24.64 L 11.67,20.07 C 9.26,20.05 4.44,20.03 2.03,20.01 C 3.41,22.61 -1.31,32.14 7.01,28.05 C 9.61,27.64 15.12,29.67 14.08,25.17 L 15.08,25.15 C 15.04,26.41 14.96,27.66 14.85,28.9 C 10.51,29.05 6.17,29.07 1.83,29.2 L 0.98,29.1 C 0.93,20.75 0.94,12.41 1.05,4.06 M 1.98,5 C 3.45,8.09 10.9,4.82 14.02,6 C 12.55,2.91 5.1,6.18 1.98,5 M 2,16.01 C 4.5,16.25 9.5,16.75 12,16.99 C 9.5,16.75 4.5,16.25 2,16.01 M 2,18.01 C 4.5,18.25 9.5,18.75 12,18.99 C 9.5,18.75 4.5,18.25 2,18.01 z"
       id="path5"
       style="opacity:1;fill:#919293" />
    <path
       d="M 15.86,4.56 C 20.5,3.41 25.37,4.21 30.1,3.95 L 30.33,4.78 C 30.23,7.55 30.01,13.09 29.91,15.86 C 28.62,15.96 27.33,16.03 26.03,16.06 L 26.23,15.11 C 31.06,15.97 28.7,10.07 28.95,7.03 C 24.99,6.88 21.04,6.89 17.08,7.06 C 17.05,8.53 16.99,11.47 16.96,12.94 L 15.98,12.9 C 15.96,10.12 15.92,7.34 15.86,4.56 M 16.98,5 C 18.45,8.09 25.9,4.82 29.02,6 C 27.55,2.91 20.1,6.18 16.98,5 z"
       id="path7"
       style="opacity:1;fill:#919293" />
  </g>
  <g
     id="#1818182f">
    <path
       d="M 30.1,3.95 C 30.57,3.95 31.52,3.95 32,3.95 L 32,17.86 C 30.7,17.92 29.41,18.02 28.12,18.15 C 27.88,21.06 28.03,23.98 27.89,26.9 C 25.24,26.96 19.94,27.08 17.29,27.14 C 17.11,28.39 16.93,29.65 16.76,30.91 C 11.53,31.1 6.31,31.12 1.08,30.96 C 1.05,30.5 1,29.56 0.98,29.1 L 1.83,29.2 C 6.42,29.92 11.11,30.3 15.75,29.89 C 15.93,28.64 16.11,27.39 16.3,26.14 C 18.94,26.08 24.24,25.96 26.88,25.9 C 27.03,23.01 26.87,20.12 27.15,17.25 C 28.41,17.07 29.68,16.89 30.94,16.71 C 30.75,12.77 31.67,8.6 30.33,4.78 L 30.1,3.95 z"
       id="path10"
       style="opacity:0.18000004;fill:#181818" />
  </g>
  <g
     id="#c0c0c0ff">
    <path
       d="M 1.98,5 C 5.1,6.18 12.55,2.91 14.02,6 C 10.9,4.82 3.45,8.09 1.98,5 z"
       id="path13"
       style="opacity:1;fill:#c0c0c0" />
    <path
       d="M 16.98,5 C 20.1,6.18 27.55,2.91 29.02,6 C 25.9,4.82 18.45,8.09 16.98,5 z"
       id="path15"
       style="opacity:1;fill:#c0c0c0" />
    <path
       d="M 2,18.01 C 4.5,18.25 9.5,18.75 12,18.99 C 9.5,18.75 4.5,18.25 2,18.01 z"
       id="path17"
       style="opacity:1;fill:#c0c0c0" />
  </g>
  <g
     id="#4b4b4b8d">
    <path
       d="M 15.14,4.67 L 15.86,4.56 C 15.92,7.34 15.96,10.12 15.98,12.9 L 14.97,12.87 C 15.02,10.14 15.08,7.4 15.14,4.67 z"
       id="path20"
       style="opacity:0.55;fill:#4b4b4b" />
    <path
       d="M 30.33,4.78 C 31.67,8.6 30.75,12.77 30.94,16.71 C 29.68,16.89 28.41,17.07 27.15,17.25 C 26.87,20.12 27.03,23.01 26.88,25.9 C 24.24,25.96 18.94,26.08 16.3,26.14 C 16.11,27.39 15.93,28.64 15.75,29.89 C 11.11,30.3 6.42,29.92 1.83,29.2 C 6.17,29.07 10.51,29.05 14.85,28.9 C 14.96,27.66 15.04,26.41 15.08,25.15 C 17.79,25.09 23.2,24.96 25.9,24.89 C 25.99,21.95 26.03,19.01 26.03,16.06 C 27.33,16.03 28.62,15.96 29.91,15.86 C 30.01,13.09 30.23,7.55 30.33,4.78 z"
       id="path22"
       style="opacity:0.55;fill:#4b4b4b" />
    <path
       d="M 2,16.01 C 4.5,16.25 9.5,16.75 12,16.99 C 9.5,16.75 4.5,16.25 2,16.01 z"
       id="path24"
       style="opacity:0.55;fill:#4b4b4b" />
  </g>
  <g
     id="#f3f4f6ff">
    <path
       d="M 2.02,7.05 C 5.98,6.89 9.94,6.89 13.9,7.04 C 13.91,8.49 13.95,11.39 13.97,12.83 C 12.94,13.18 12.19,13.84 11.7,14.8 C 8.5,15.07 5.27,15.04 2.06,14.97 C 1.9,12.33 1.89,9.69 2.02,7.05 z"
       id="path27"
       style="opacity:1;fill:#f3f4f6" />
    <path
       d="M 17.08,7.06 C 21.04,6.89 24.99,6.88 28.95,7.03 C 28.7,10.07 31.06,15.97 26.23,15.11 C 26.09,10.63 19.86,13.88 16.96,12.94 C 16.99,11.47 17.05,8.53 17.08,7.06 z"
       id="path29"
       style="opacity:1;fill:#f3f4f6" />
    <path
       d="M 13.12,15.91 C 17.09,15.97 21.07,16.02 25.04,16.07 C 25.09,18.7 25.05,21.33 24.92,23.95 C 20.98,24.02 17.04,24.03 13.1,23.98 C 13.05,21.29 13.06,18.6 13.12,15.91 z"
       id="path31"
       style="opacity:1;fill:#f3f4f6" />
    <path
       d="M 2.03,20.01 C 4.44,20.03 9.26,20.05 11.67,20.07 L 12.28,24.64 L 13.12,24.89 L 14.08,25.17 C 15.12,29.67 9.61,27.64 7.01,28.05 C -1.31,32.14 3.41,22.61 2.03,20.01 z"
       id="path33"
       style="opacity:1;fill:#f3f4f6" />
  </g>
  <g
     id="#5784ddff">
    <path
       d="M 11.7,14.8 C 12.19,13.84 12.94,13.18 13.97,12.83 L 14.97,12.87 L 15.98,12.9 L 16.96,12.94 C 19.86,13.88 26.09,10.63 26.23,15.11 L 26.03,16.06 L 25.04,16.07 C 21.07,16.02 17.09,15.97 13.12,15.91 C 12.76,15.63 12.06,15.08 11.7,14.8 z"
       id="path36"
       style="opacity:1;fill:#5784dd" />
  </g>
  <g
     id="#4e6378ff">
    <path
       d="M 25.04,16.07 L 26.03,16.06 C 26.03,19.01 25.99,21.95 25.9,24.89 C 23.2,24.96 17.79,25.09 15.08,25.15 L 14.08,25.17 L 13.12,24.89 L 13.1,23.98 C 17.04,24.03 20.98,24.02 24.92,23.95 C 25.05,21.33 25.09,18.7 25.04,16.07 z"
       id="path39"
       style="opacity:1;fill:#4e6378" />
  </g>
</svg>
