<svg width="40" xmlns="http://www.w3.org/2000/svg" height="40" viewBox="0 0 32 32">
<g fill="#919293">
<path d="m1.05,4.06c4.7-.3 9.42,.05 14.09,.61-.06,2.73-.12,5.47-.17,8.2l-1-.04c-.02-1.44-.06-4.34-.07-5.79-3.96-.15-7.92-.15-11.88,.01-.13,2.64-.12,5.28 .04,7.92 3.21,.07 6.44,.1 9.64-.17 .36,.28 1.06,.83 1.42,1.11-.06,2.69-.07,5.38-.02,8.07l.02,.91-.84-.25-.61-4.57c-2.41-.02-7.23-.04-9.64-.06 1.38,2.6-3.34,12.13 4.98,8.04 2.6-.41 8.11,1.62 7.07-2.88l1-.02c-.04,1.26-.12,2.51-.23,3.75-4.34,.15-8.68,.17-13.02,.3l-.85-.1c-.05-8.35-.04-16.69 .07-25.04m.93,.94c1.47,3.09 8.92-.18 12.04,1-1.47-3.09-8.92,.18-12.04-1m.02,11.01c2.5,.24 7.5,.74 10,.98-2.5-.24-7.5-.74-10-.98m0,2c2.5,.24 7.5,.74 10,.98-2.5-.24-7.5-.74-10-.98z"/>
<path d="m15.86,4.56c4.64-1.15 9.51-.35 14.24-.61l.23,.83c-.1,2.77-.32,8.31-.42,11.08-1.29,.1-2.58,.17-3.88,.2l.2-.95c4.83,.86 2.47-5.04 2.72-8.08-3.96-.15-7.91-.14-11.87,.03-.03,1.47-.09,4.41-.12,5.88l-.98-.04c-.02-2.78-.06-5.56-.12-8.34m1.12,.44c1.47,3.09 8.92-.18 12.04,1-1.47-3.09-8.92,.18-12.04-1z"/>
</g>
<path opacity=".18" fill="#181818" d="m30.1,3.95c.47,0 1.42,0 1.9,0v13.91c-1.3,.06-2.59,.16-3.88,.29-.24,2.91-.09,5.83-.23,8.75-2.65,.06-7.95,.18-10.6,.24-.18,1.25-.36,2.51-.53,3.77-5.23,.19-10.45,.21-15.68,.05-.03-.46-.08-1.4-.1-1.86l.85,.1c4.59,.72 9.28,1.1 13.92,.69 .18-1.25 .36-2.5 .55-3.75 2.64-.06 7.94-.18 10.58-.24 .15-2.89-.01-5.78 .27-8.65 1.26-.18 2.53-.36 3.79-.54-.19-3.94 .73-8.11-.61-11.93l-.23-.83z"/>
<g fill="#c0c0c0">
<path d="m1.98,5c3.12,1.18 10.57-2.09 12.04,1-3.12-1.18-10.57,2.09-12.04-1z"/>
<path d="m16.98,5c3.12,1.18 10.57-2.09 12.04,1-3.12-1.18-10.57,2.09-12.04-1z"/>
<path d="m2,18.01c2.5,.24 7.5,.74 10,.98-2.5-.24-7.5-.74-10-.98z"/>
</g>
<g fill="#4b4b4b">
<path opacity=".55" d="m15.14,4.67l.72-.11c.06,2.78 .1,5.56 .12,8.34l-1.01-.03c.05-2.73 .11-5.47 .17-8.2z"/>
<path opacity=".55" d="m30.33,4.78c1.34,3.82 .42,7.99 .61,11.93-1.26,.18-2.53,.36-3.79,.54-.28,2.87-.12,5.76-.27,8.65-2.64,.06-7.94,.18-10.58,.24-.19,1.25-.37,2.5-.55,3.75-4.64,.41-9.33,.03-13.92-.69 4.34-.13 8.68-.15 13.02-.3 .11-1.24 .19-2.49 .23-3.75 2.71-.06 8.12-.19 10.82-.26 .09-2.94 .13-5.88 .13-8.83 1.3-.03 2.59-.1 3.88-.2 .1-2.77 .32-8.31 .42-11.08z"/>
<path opacity=".55" d="m2,16.01c2.5,.24 7.5,.74 10,.98-2.5-.24-7.5-.74-10-.98z"/>
</g>
<g fill="#f3f4f6">
<path d="m2.02,7.05c3.96-.16 7.92-.16 11.88-.01 .01,1.45 .05,4.35 .07,5.79-1.03,.35-1.78,1.01-2.27,1.97-3.2,.27-6.43,.24-9.64,.17-.16-2.64-.17-5.28-.04-7.92z"/>
<path d="m17.08,7.06c3.96-.17 7.91-.18 11.87-.03-.25,3.04 2.11,8.94-2.72,8.08-.14-4.48-6.37-1.23-9.27-2.17 .03-1.47 .09-4.41 .12-5.88z"/>
<path d="m13.12,15.91c3.97,.06 7.95,.11 11.92,.16 .05,2.63 .01,5.26-.12,7.88-3.94,.07-7.88,.08-11.82,.03-.05-2.69-.04-5.38 .02-8.07z"/>
<path d="m2.03,20.01c2.41,.02 7.23,.04 9.64,.06l.61,4.57 .84,.25 .96,.28c1.04,4.5-4.47,2.47-7.07,2.88-8.32,4.09-3.6-5.44-4.98-8.04z"/>
</g>
<path fill="#5784dd" d="m11.7,14.8c.49-.96 1.24-1.62 2.27-1.97l1,.04 1.01,.03 .98,.04c2.9,.94 9.13-2.31 9.27,2.17l-.2,.95-.99,.01c-3.97-.05-7.95-.1-11.92-.16-.36-.28-1.06-.83-1.42-1.11z"/>
<path fill="#4e6378" d="m25.04,16.07l.99-.01c0,2.95-.04,5.89-.13,8.83-2.7,.07-8.11,.2-10.82,.26l-1,.02-.96-.28-.02-.91c3.94,.05 7.88,.04 11.82-.03 .13-2.62 .17-5.25 .12-7.88z"/>
</svg>
