<?xml version="1.0" encoding="UTF-8" standalone="no"?>
<!-- Created with Inkscape (http://www.inkscape.org/) -->
<svg
   xmlns:svg="http://www.w3.org/2000/svg"
   xmlns="http://www.w3.org/2000/svg"
   version="1.0"
   width="128pt"
   height="128pt"
   viewBox="0 0 128 128"
   id="svg2">
  <defs
     id="defs220" />
  <g
     id="#2e3b5a65">
    <path
       d="M 27.09,0 L 32.66,0 C 32.24,2.16 32.74,5 30.51,6.3 C 25.76,9.59 22.38,14.39 17.75,17.83 C 14.82,19.52 16.79,23.05 17.02,25.61 C 16.81,27.48 16.6,29.36 16.38,31.24 C 14.38,32.23 12.23,33.05 10.5,34.51 C 8.97,36.21 8.16,38.39 7.15,40.41 C 4.76,40.55 2.38,40.66 0,40.76 L 0,36.64 C 1.16,37.01 2.33,37.4 3.55,37.58 C 6.92,34.21 9.9,30.4 13.94,27.76 C 13.86,24.23 13.09,20.58 14.08,17.12 C 16.63,14.95 19.82,13.54 21.91,10.84 C 24.01,8.12 26.74,6.05 29.23,3.73 C 30.12,1.96 28.09,1.06 27.09,0 z"
       id="path5"
       style="opacity:0.4;fill:#2e3b5a" />
  </g>
  <g
     id="#7e8ba1ae">
    <path
       d="M 32.66,0 L 34.5,0 C 34.14,2.37 34.23,4.92 33.16,7.12 C 31.89,8.16 30.41,8.91 29.03,9.8 C 27.83,10.81 26.7,11.89 25.61,13.01 C 24.21,14.5 22.88,16.04 21.32,17.36 C 20.36,18.11 19.39,18.84 18.41,19.57 C 18.08,20.91 17.74,22.25 17.43,23.6 L 17.22,24.62 L 17.02,25.61 C 16.79,23.05 14.82,19.52 17.75,17.83 C 22.38,14.39 25.76,9.59 30.51,6.3 C 32.74,5 32.24,2.16 32.66,0 z"
       id="path8"
       style="opacity:0.68000004;fill:#7e8ba1" />
  </g>
  <g
     id="#92ace1fe">
    <path
       d="M 34.5,0 L 41.84,0 C 41.59,1.42 41.43,2.87 40.97,4.24 C 38.54,6.73 34.99,8.13 33.4,11.41 C 31.57,14.84 28.84,17.62 25.81,20 C 28.06,22.23 30.9,24.14 32.23,27.11 C 32.94,30.46 29.34,31.47 26.8,31.79 C 28.23,30.57 29.66,29.36 31.12,28.18 C 28.38,24.11 25.42,20.16 21.32,17.36 C 22.88,16.04 24.21,14.5 25.61,13.01 C 25.86,13.78 26.38,15.33 26.63,16.1 C 29.38,15.29 31.25,13.37 32.11,10.65 C 31.34,10.43 29.8,10.01 29.03,9.8 C 30.41,8.91 31.89,8.16 33.16,7.12 C 34.23,4.92 34.14,2.37 34.5,0 z"
       id="path11"
       style="opacity:1;fill:#92ace1" />
  </g>
  <g
     id="#638de2fe">
    <path
       d="M 41.84,0 L 45.41,0 C 45.34,1.97 45.27,3.94 45.21,5.91 C 40.44,7.91 35.84,10.99 33.9,16.02 C 31.35,20.17 33.59,24.93 33.29,29.38 C 32.09,32.79 27.74,33.33 24.73,32.28 C 21.02,31.27 18.94,27.76 17.22,24.62 L 17.43,23.6 C 20.81,26.02 23.94,28.78 26.8,31.79 C 29.34,31.47 32.94,30.46 32.23,27.11 C 30.9,24.14 28.06,22.23 25.81,20 C 28.84,17.62 31.57,14.84 33.4,11.41 C 34.99,8.13 38.54,6.73 40.97,4.24 C 41.43,2.87 41.59,1.42 41.84,0 z"
       id="path14"
       style="opacity:1;fill:#638de2" />
  </g>
  <g
     id="#3a5284c0">
    <path
       d="M 45.41,0 L 47.4,0 C 47.92,10.25 46.34,20.48 47.04,30.72 C 47.8,30.82 49.32,31.02 50.08,31.12 C 51.37,31.28 52.67,31.42 53.97,31.55 C 51.98,32.28 49.93,32.84 47.89,33.44 L 47.03,33.7 C 43.74,26.1 45.85,17.67 45.16,9.68 C 45.16,8.42 45.18,7.16 45.21,5.91 C 45.27,3.94 45.34,1.97 45.41,0 z"
       id="path17"
       style="opacity:0.75;fill:#3a5284" />
  </g>
  <g
     id="#1f2b4a6b">
    <path
       d="M 47.4,0 L 50.28,0 C 49.98,9.62 49.45,19.24 49.21,28.86 C 50.34,28.89 51.48,28.92 52.62,28.95 C 51.79,29.7 50.93,30.41 50.08,31.12 C 49.32,31.02 47.8,30.82 47.04,30.72 C 46.34,20.48 47.92,10.25 47.4,0 z"
       id="path20"
       style="opacity:0.41999996;fill:#1f2b4a" />
  </g>
  <g
     id="#4a71c8fe">
    <path
       d="M 33.9,16.02 C 35.84,10.99 40.44,7.91 45.21,5.91 C 45.18,7.16 45.16,8.42 45.16,9.68 C 37.44,14.93 38.08,25.25 33.39,32.43 C 30.24,34.91 25.81,34.66 22.04,35.51 C 22.53,36.89 23.04,38.25 23.54,39.62 C 21.18,39.46 18.83,39.21 16.48,38.99 C 15.47,41.77 14.49,44.55 13.53,47.34 C 9.83,47.57 7.67,44.5 5.73,41.86 C 3.82,41.82 1.91,41.78 0,41.77 L 0,40.76 C 2.38,40.66 4.76,40.55 7.15,40.41 C 8.16,38.39 8.97,36.21 10.5,34.51 C 12.23,33.05 14.38,32.23 16.38,31.24 C 16.6,29.36 16.81,27.48 17.02,25.61 L 17.22,24.62 C 18.94,27.76 21.02,31.27 24.73,32.28 C 27.74,33.33 32.09,32.79 33.29,29.38 C 33.59,24.93 31.35,20.17 33.9,16.02 z"
       id="path23"
       style="opacity:1;fill:#4a71c8" />
  </g>
  <g
     id="#b7cbebfd">
    <path
       d="M 25.61,13.01 C 26.7,11.89 27.83,10.81 29.03,9.8 C 29.8,10.01 31.34,10.43 32.11,10.65 C 31.25,13.37 29.38,15.29 26.63,16.1 C 26.38,15.33 25.86,13.78 25.61,13.01 z"
       id="path26"
       style="opacity:1;fill:#b7cbeb" />
  </g>
  <g
     id="#3558a1ff">
    <path
       d="M 33.39,32.43 C 38.08,25.25 37.44,14.93 45.16,9.68 C 45.85,17.67 43.74,26.1 47.03,33.7 C 45.43,36.06 44.99,39.94 41.71,40.51 C 39.64,41.05 37.52,41.33 35.42,41.65 C 35.01,46.53 34.35,51.39 33.92,56.26 C 33.37,50.53 34.28,44.65 32.98,39.01 C 30.41,36.92 26.73,37.08 24.19,39.09 L 23.54,39.62 C 23.04,38.25 22.53,36.89 22.04,35.51 C 25.81,34.66 30.24,34.91 33.39,32.43 z"
       id="path29"
       style="opacity:1;fill:#3558a1" />
  </g>
  <g
     id="#231e3046">
    <path
       d="M 65.07,14.09 C 68.26,12.78 71.88,13.24 75.23,13.58 C 77.65,14.03 81.08,14.46 81.65,17.4 C 82.72,21.51 82.3,25.8 82.28,30 C 81.97,40 82.5,50.01 81.89,60 C 81.82,62.54 81.63,65.14 82.24,67.63 C 84.6,69.46 87.5,70.41 89.9,72.18 C 91.74,75.17 90.58,79.78 87.2,81.15 C 83.43,82.38 79.31,81.35 75.5,82.43 C 75.09,83.15 74.25,84.57 73.84,85.28 C 79.79,86.88 85.99,86.59 92.07,86.26 C 86.08,88.03 79.77,87.74 73.68,86.65 C 73.4,84.99 73.13,83.34 72.79,81.7 C 77.02,81.09 81.32,81.18 85.52,80.43 C 88.47,79.77 89.67,76.09 88.64,73.47 C 86.54,71.14 83.39,70.16 80.4,69.6 C 79.12,60.11 79.96,50.53 79.73,41 C 79.53,34.86 80.15,28.75 80.5,22.63 C 80.56,20.29 80.7,17.14 78.13,16.02 C 74.38,14.69 70.29,15.43 66.41,15.5 C 65.97,16.4 65.54,17.3 65.1,18.2 C 63.85,21.61 60.93,23.78 58.04,25.74 C 56.16,27.25 55.28,29.59 53.97,31.55 C 52.67,31.42 51.37,31.28 50.08,31.12 C 50.93,30.41 51.79,29.7 52.62,28.95 C 57.01,24.2 60.99,19.09 65.07,14.09 z"
       id="path32"
       style="opacity:0.27000002;fill:#231e30" />
  </g>
  <g
     id="#392362b9">
    <path
       d="M 66.41,15.5 C 70.29,15.43 74.38,14.69 78.13,16.02 C 80.7,17.14 80.56,20.29 80.5,22.63 C 80.15,28.75 79.53,34.86 79.73,41 C 79.96,50.53 79.12,60.11 80.4,69.6 C 79.92,69.52 78.97,69.36 78.5,69.29 L 77.55,69.12 C 77.42,67.82 77.32,66.51 77.26,65.2 C 77.49,52.11 77.09,39 77.56,25.91 C 77.8,23.27 77.75,20.62 77.9,17.98 C 76.44,17.84 74.99,17.72 73.54,17.63 C 70.71,17.47 67.88,17.71 65.1,18.2 C 65.54,17.3 65.97,16.4 66.41,15.5 z"
       id="path35"
       style="opacity:0.73000004;fill:#392362" />
  </g>
  <g
     id="#a3c1f1ff">
    <path
       d="M 18.41,19.57 C 19.39,18.84 20.36,18.11 21.32,17.36 C 25.42,20.16 28.38,24.11 31.12,28.18 C 29.66,29.36 28.23,30.57 26.8,31.79 C 23.94,28.78 20.81,26.02 17.43,23.6 C 17.74,22.25 18.08,20.91 18.41,19.57 z"
       id="path38"
       style="opacity:1;fill:#a3c1f1" />
  </g>
  <g
     id="#9879c5fa">
    <path
       d="M 58.04,25.74 C 60.93,23.78 63.85,21.61 65.1,18.2 C 67.88,17.71 70.71,17.47 73.54,17.63 C 72.56,22.31 68.65,25.28 65.89,28.88 C 63.84,31.51 61.28,33.67 58.55,35.57 C 61.02,37.71 64.11,39.45 65.82,42.26 C 65.93,44.95 64.29,47.34 63.34,49.76 L 62.3,49.72 C 55.46,49.21 50.58,44.05 46.71,38.91 C 47.14,37.29 47.6,35.68 47.98,34.04 C 48.11,34.39 48.36,35.1 48.49,35.45 C 50.39,39.86 53.23,44.01 57.18,46.84 C 59.1,48.38 62.36,47.65 63.5,45.5 C 63.78,44.23 63.86,42.92 63.99,41.62 C 60.27,39.79 56.93,37.24 54.49,33.86 C 55.58,33.16 56.64,32.41 57.71,31.67 C 59.21,31.22 60.75,30.87 62.18,30.21 C 63.04,29.02 63.68,27.69 64.41,26.42 C 62.57,26.16 60.72,25.9 58.87,25.73 L 58.04,25.74 z"
       id="path41"
       style="opacity:0.98000004;fill:#9879c5" />
  </g>
  <g
     id="#794bc5ff">
    <path
       d="M 73.54,17.63 C 74.99,17.72 76.44,17.84 77.9,17.98 C 76.41,22.14 72.8,24.75 70.12,28.04 C 67.41,35.09 70.27,44.66 63.34,49.76 C 64.29,47.34 65.93,44.95 65.82,42.26 C 64.11,39.45 61.02,37.71 58.55,35.57 C 61.28,33.67 63.84,31.51 65.89,28.88 C 68.65,25.28 72.56,22.31 73.54,17.63 z"
       id="path44"
       style="opacity:1;fill:#794bc5" />
  </g>
  <g
     id="#643da8ff">
    <path
       d="M 77.9,17.98 C 77.75,20.62 77.8,23.27 77.56,25.91 C 76.13,27.23 74.05,28.31 73.74,30.43 C 72.52,36.77 72.32,43.8 68.09,49.05 C 65.18,50.86 61.72,51.53 58.52,52.69 C 61.72,53.38 65.03,53.77 68.08,55.03 C 71,57.46 72.56,61.06 74.93,63.98 C 70.48,62.05 67.65,57.8 63.32,55.75 C 59.22,54.37 54.7,53.37 50.4,54.21 C 47.72,55.85 46,58.62 43.43,60.38 C 41.51,60.68 39.55,60.51 37.62,60.43 C 40.37,56.03 43.46,51.72 44.8,46.62 C 50.58,47.91 56.32,49.67 62.3,49.72 L 63.34,49.76 C 70.27,44.66 67.41,35.09 70.12,28.04 C 72.8,24.75 76.41,22.14 77.9,17.98 z"
       id="path47"
       style="opacity:1;fill:#643da8" />
  </g>
  <g
     id="#8a80a2b6">
    <path
       d="M 53.97,31.55 C 55.28,29.59 56.16,27.25 58.04,25.74 L 58.87,25.73 C 58.47,27.71 58.08,29.69 57.71,31.67 C 56.64,32.41 55.58,33.16 54.49,33.86 C 52.51,34.48 50.5,34.95 48.49,35.45 C 48.36,35.1 48.11,34.39 47.98,34.04 L 47.89,33.44 C 49.93,32.84 51.98,32.28 53.97,31.55 z"
       id="path50"
       style="opacity:0.70999995;fill:#8a80a2" />
  </g>
  <g
     id="#bba5defd">
    <path
       d="M 58.87,25.73 C 60.72,25.9 62.57,26.16 64.41,26.42 C 63.68,27.69 63.04,29.02 62.18,30.21 C 60.75,30.87 59.21,31.22 57.71,31.67 C 58.08,29.69 58.47,27.71 58.87,25.73 z"
       id="path53"
       style="opacity:1;fill:#bba5de" />
  </g>
  <g
     id="#543289ff">
    <path
       d="M 73.74,30.43 C 74.05,28.31 76.13,27.23 77.56,25.91 C 77.09,39 77.49,52.11 77.26,65.2 C 76.67,64.9 75.51,64.28 74.93,63.98 C 72.56,61.06 71,57.46 68.08,55.03 C 65.03,53.77 61.72,53.38 58.52,52.69 C 61.72,51.53 65.18,50.86 68.09,49.05 C 72.32,43.8 72.52,36.77 73.74,30.43 z"
       id="path56"
       style="opacity:1;fill:#543289" />
  </g>
  <g
     id="#4963c1ff">
    <path
       d="M 47.03,33.7 L 47.89,33.44 L 47.98,34.04 C 47.6,35.68 47.14,37.29 46.71,38.91 C 46.03,41.47 45.48,44.06 44.8,46.62 C 43.46,51.72 40.37,56.03 37.62,60.43 C 36.87,60.38 35.38,60.28 34.63,60.24 C 34.48,59.88 34.18,59.15 34.03,58.79 C 34.01,58.16 33.95,56.9 33.92,56.26 C 34.35,51.39 35.01,46.53 35.42,41.65 C 37.52,41.33 39.64,41.05 41.71,40.51 C 44.99,39.94 45.43,36.06 47.03,33.7 z"
       id="path59"
       style="opacity:1;fill:#4963c1" />
  </g>
  <g
     id="#bca4e1ff">
    <path
       d="M 48.49,35.45 C 50.5,34.95 52.51,34.48 54.49,33.86 C 56.93,37.24 60.27,39.79 63.99,41.62 C 63.86,42.92 63.78,44.23 63.5,45.5 C 62.36,47.65 59.1,48.38 57.18,46.84 C 53.23,44.01 50.39,39.86 48.49,35.45 M 56.03,41.95 C 56.45,43.31 56.89,44.65 57.31,46.01 C 59.17,45.79 61.03,45.64 62.91,45.68 C 62.38,44.38 62.59,42.61 61.22,41.79 C 59.69,40.6 57.71,41.8 56.03,41.95 z"
       id="path62"
       style="opacity:1;fill:#bca4e1" />
  </g>
  <g
     id="#1c2f5c99">
    <path
       d="M 24.19,39.09 C 26.73,37.08 30.41,36.92 32.98,39.01 C 34.28,44.65 33.37,50.53 33.92,56.26 C 33.95,56.9 34.01,58.16 34.03,58.79 C 33.46,60.13 32.83,61.45 32.11,62.72 L 31.31,62.97 C 32.04,56.22 32.41,49.39 31.56,42.62 C 31.22,48.75 31.64,54.94 30.52,61.01 C 30.36,55.66 30.77,50.3 30.55,44.96 C 30.6,43.15 29.45,40.42 27.27,41.7 C 26.4,43.02 25.73,44.46 25.01,45.85 C 24.86,44.01 24.58,42.18 24.34,40.34 L 24.19,39.09 z"
       id="path65"
       style="opacity:0.6;fill:#1c2f5c" />
  </g>
  <g
     id="#83a0d1fe">
    <path
       d="M 16.48,38.99 C 18.83,39.21 21.18,39.46 23.54,39.62 C 23.26,39.96 22.69,40.64 22.41,40.98 C 20.65,41.35 18.88,41.64 17.11,41.95 C 17.63,43.49 18.17,45.03 18.7,46.57 C 17.28,47.27 15.82,47.91 14.37,48.56 C 14.13,51.31 13.88,54.07 13.82,56.84 C 11.04,55.98 8.8,54.16 7.3,51.67 C 5.77,48.96 2.66,48.19 0,47.07 L 0,41.77 C 1.91,41.78 3.82,41.82 5.73,41.86 C 7.67,44.5 9.83,47.57 13.53,47.34 C 14.49,44.55 15.47,41.77 16.48,38.99 z"
       id="path68"
       style="opacity:1;fill:#83a0d1" />
  </g>
  <g
     id="#7454c1ff">
    <path
       d="M 46.71,38.91 C 50.58,44.05 55.46,49.21 62.3,49.72 C 56.32,49.67 50.58,47.91 44.8,46.62 C 45.48,44.06 46.03,41.47 46.71,38.91 z"
       id="path71"
       style="opacity:1;fill:#7454c1" />
  </g>
  <g
     id="#738494b3">
    <path
       d="M 23.54,39.62 L 24.19,39.09 L 24.34,40.34 C 24.02,41.93 23.76,43.56 23.04,45.02 C 21.25,47.26 18.52,48.46 16.59,50.54 C 15.03,53.48 14.72,56.9 14.08,60.13 C 14.06,59.75 14.01,59 13.99,58.62 C 13.95,58.18 13.86,57.29 13.82,56.84 C 13.88,54.07 14.13,51.31 14.37,48.56 C 15.82,47.91 17.28,47.27 18.7,46.57 C 21.19,45.74 21.61,43.14 22.41,40.98 C 22.69,40.64 23.26,39.96 23.54,39.62 z"
       id="path74"
       style="opacity:0.7;fill:#738494" />
  </g>
  <g
     id="#b2c4d9fd">
    <path
       d="M 17.11,41.95 C 18.88,41.64 20.65,41.35 22.41,40.98 C 21.61,43.14 21.19,45.74 18.7,46.57 C 18.17,45.03 17.63,43.49 17.11,41.95 z"
       id="path77"
       style="opacity:1;fill:#b2c4d9" />
  </g>
  <g
     id="#3b495d7e">
    <path
       d="M 24.34,40.34 C 24.58,42.18 24.86,44.01 25.01,45.85 C 23.79,48.84 20.39,49.71 17.78,51.06 C 17.42,55.09 17.88,59.45 15.8,63.09 C 10.67,64.56 5.25,63.76 0,63.63 L 0,62.35 C 4.63,62.55 9.27,62.5 13.87,61.95 C 13.93,61.5 14.03,60.59 14.08,60.13 C 14.72,56.9 15.03,53.48 16.59,50.54 C 18.52,48.46 21.25,47.26 23.04,45.02 C 23.76,43.56 24.02,41.93 24.34,40.34 z"
       id="path80"
       style="opacity:0.48999999;fill:#3b495d" />
  </g>
  <g
     id="#d4d0e9ff">
    <path
       d="M 56.03,41.95 C 57.71,41.8 59.69,40.6 61.22,41.79 C 62.59,42.61 62.38,44.38 62.91,45.68 C 61.03,45.64 59.17,45.79 57.31,46.01 C 56.89,44.65 56.45,43.31 56.03,41.95 z"
       id="path83"
       style="opacity:1;fill:#d4d0e9" />
  </g>
  <g
     id="#35394f5d">
    <path
       d="M 31.56,42.62 C 32.41,49.39 32.04,56.22 31.31,62.97 C 29.09,63.78 26.41,63.92 24.66,65.66 C 23.62,67.7 23.56,70.05 23.33,72.28 L 23.3,73.3 C 21.63,70.24 22.39,66.79 23.32,63.64 C 25.69,62.69 28.11,61.85 30.52,61.01 C 31.64,54.94 31.22,48.75 31.56,42.62 z"
       id="path86"
       style="opacity:0.36000001;fill:#35394f" />
  </g>
  <g
     id="#577dc8ff">
    <path
       d="M 0,47.07 C 2.66,48.19 5.77,48.96 7.3,51.67 C 8.8,54.16 11.04,55.98 13.82,56.84 C 13.86,57.29 13.95,58.18 13.99,58.62 C 8.92,59.44 6.09,54.84 3.12,51.63 C 2.06,52.81 1,53.98 0,55.2 L 0,47.07 z"
       id="path89"
       style="opacity:1;fill:#577dc8" />
  </g>
  <g
     id="#365da5ff">
    <path
       d="M 0,55.2 C 1,53.98 2.06,52.81 3.12,51.63 C 6.09,54.84 8.92,59.44 13.99,58.62 C 14.01,59 14.06,59.75 14.08,60.13 C 14.03,60.59 13.93,61.5 13.87,61.95 C 9.27,62.5 4.63,62.55 0,62.35 L 0,55.2 z"
       id="path92"
       style="opacity:1;fill:#365da5" />
  </g>
  <g
     id="#7656b1ff">
    <path
       d="M 50.4,54.21 C 54.7,53.37 59.22,54.37 63.32,55.75 C 67.65,57.8 70.48,62.05 74.93,63.98 C 75.51,64.28 76.67,64.9 77.26,65.2 C 77.32,66.51 77.42,67.82 77.55,69.12 L 77.69,70.16 C 74.94,68.35 72.1,66.6 69.78,64.24 C 66.69,61.28 63.92,57.45 59.51,56.43 C 56.22,55.73 52.13,54.83 49.42,57.43 C 46.25,60.31 42.62,62.83 40.1,66.34 C 39.25,71.06 43.54,74.85 46.81,77.61 C 45.46,77.5 44.11,77.4 42.76,77.31 C 39.3,72 37.24,65.98 34.63,60.24 C 35.38,60.28 36.87,60.38 37.62,60.43 C 39.55,60.51 41.51,60.68 43.43,60.38 C 46,58.62 47.72,55.85 50.4,54.21 z"
       id="path95"
       style="opacity:1;fill:#7656b1" />
  </g>
  <g
     id="#957fbbff">
    <path
       d="M 49.42,57.43 C 52.13,54.83 56.22,55.73 59.51,56.43 C 63.92,57.45 66.69,61.28 69.78,64.24 C 72.1,66.6 74.94,68.35 77.69,70.16 C 78.03,70.69 78.72,71.76 79.06,72.29 C 76.9,72.04 74.62,72.26 72.55,71.48 C 67.74,67.96 65.42,61.89 60.29,58.72 C 57.2,57.05 52.83,56.34 50.13,59.11 C 47.17,61.95 43.25,64.32 41.38,67.99 C 42.89,71.51 45.35,74.51 47.71,77.48 L 46.81,77.61 C 43.54,74.85 39.25,71.06 40.1,66.34 C 42.62,62.83 46.25,60.31 49.42,57.43 z"
       id="path98"
       style="opacity:1;fill:#957fbb" />
  </g>
  <g
     id="#b1a1d0fe">
    <path
       d="M 50.13,59.11 C 52.83,56.34 57.2,57.05 60.29,58.72 C 65.42,61.89 67.74,67.96 72.55,71.48 C 74.62,72.26 76.9,72.04 79.06,72.29 C 81.84,72.44 84.13,74.07 86.38,75.52 C 85.98,76.2 85.17,77.56 84.77,78.25 C 81.01,78.16 77.26,77.9 73.52,77.67 C 72.97,76.17 72.51,74.62 71.71,73.24 C 70.01,72.48 68.19,72.03 66.44,71.41 C 65.63,70.85 64.85,70.24 64.09,69.61 C 61.98,65.63 60.57,59.34 55.02,59.26 C 50,60.09 46.7,64.52 43.16,67.77 C 45.76,71.16 47.92,74.89 49.05,79.04 C 48.71,78.65 48.04,77.87 47.71,77.48 C 45.35,74.51 42.89,71.51 41.38,67.99 C 43.25,64.32 47.17,61.95 50.13,59.11 z"
       id="path101"
       style="opacity:1;fill:#b1a1d0" />
  </g>
  <g
     id="#6c4395ff">
    <path
       d="M 34.03,58.79 C 34.18,59.15 34.48,59.88 34.63,60.24 C 37.24,65.98 39.3,72 42.76,77.31 C 37.9,77.05 33.04,77.32 28.18,77.17 C 27.03,75.89 25.88,74.61 24.65,73.4 L 25.5,73.59 C 27.85,73.34 30.75,73.41 32.31,71.3 C 33.85,69.28 32.68,66.63 32.46,64.38 C 32.37,63.96 32.2,63.14 32.11,62.72 C 32.83,61.45 33.46,60.13 34.03,58.79 z"
       id="path104"
       style="opacity:1;fill:#6c4395" />
  </g>
  <g
     id="#c8c0dcff">
    <path
       d="M 43.16,67.77 C 46.7,64.52 50,60.09 55.02,59.26 C 60.57,59.34 61.98,65.63 64.09,69.61 C 62.1,71.35 60.11,73.13 58.42,75.18 C 58.1,70.96 57.26,66.79 55.77,62.83 C 52.61,63.45 48.68,63.92 47.27,67.33 C 47.59,72.63 50.24,77.41 52.58,82.06 C 51.88,82.52 51.18,82.97 50.47,83.41 C 50.03,81.94 49.56,80.48 49.05,79.04 C 47.92,74.89 45.76,71.16 43.16,67.77 z"
       id="path107"
       style="opacity:1;fill:#c8c0dc" />
  </g>
  <g
     id="#837c92a8">
    <path
       d="M 24.66,65.66 C 26.41,63.92 29.09,63.78 31.31,62.97 L 32.11,62.72 C 32.2,63.14 32.37,63.96 32.46,64.38 C 31.25,64.7 30.05,65.03 28.85,65.38 C 26.35,66.57 25.89,69.1 25.8,71.63 C 25.72,72.12 25.57,73.1 25.5,73.59 L 24.65,73.4 C 24.32,73.12 23.66,72.56 23.33,72.28 C 23.56,70.05 23.62,67.7 24.66,65.66 z"
       id="path110"
       style="opacity:0.66000001;fill:#837c92" />
  </g>
  <g
     id="#e3e8edff">
    <path
       d="M 47.27,67.33 C 48.68,63.92 52.61,63.45 55.77,62.83 C 57.26,66.79 58.1,70.96 58.42,75.18 C 56.5,77.5 54.75,79.96 52.58,82.06 C 50.24,77.41 47.59,72.63 47.27,67.33 z"
       id="path113"
       style="opacity:1;fill:#e3e8ed" />
  </g>
  <g
     id="#2334526c">
    <path
       d="M 105.74,70.86 C 109.09,68.91 111.39,65.8 113.12,62.4 C 115.9,62.67 119.7,61.78 121.38,64.68 C 122.84,67.92 122.27,71.59 122.12,75.02 C 121.38,81.73 122.51,88.47 121.69,95.18 C 118.86,96.45 116.05,97.76 113.21,99.03 C 112.64,99.28 111.5,99.79 110.93,100.05 C 111.24,99.17 111.55,98.29 111.86,97.41 C 114.79,95.6 119.72,94.36 119.37,90.05 C 119.39,83.27 119.17,76.49 119.91,69.73 C 119.79,68.18 120.23,66.18 118.74,65.14 C 117.28,63.82 114.83,63.86 113.71,65.6 C 110.1,69.82 105.93,73.49 102.01,77.41 C 102.97,75.09 103.3,72.16 105.74,70.86 z"
       id="path116"
       style="opacity:0.41999996;fill:#233452" />
  </g>
  <g
     id="#1d11355b">
    <path
       d="M 21.77,76.44 C 21.02,72.2 20.45,67.25 23.32,63.64 C 22.39,66.79 21.63,70.24 23.3,73.3 C 24.43,75.77 25.94,78.92 29.02,79.17 C 34.37,79.69 39.81,79.49 45.11,78.63 C 45.62,81.04 46.28,83.41 46.93,85.79 C 40.57,88.63 33.47,87.47 26.73,87.82 C 23.82,87.88 20.49,87.26 17.97,89.04 C 15.83,90.66 16.24,94.23 18.63,95.37 C 21.83,96.63 25.39,96.43 28.73,95.98 C 29.49,98.2 30.35,100.39 31.44,102.47 C 30.06,101.2 28.8,99.79 27.26,98.71 C 23.73,97.78 19.91,98.91 16.45,97.6 C 11.42,94.84 13.17,85.44 19.27,85.54 C 27.74,85.31 36.19,87.16 44.67,85.92 C 44.94,85.05 45.49,83.29 45.76,82.42 C 39.53,80.09 32.91,82.52 26.55,81.27 C 24.08,80.9 22.16,78.87 21.77,76.44 z"
       id="path119"
       style="opacity:0.36000001;fill:#1d1135" />
  </g>
  <g
     id="#727e96a9">
    <path
       d="M 113.71,65.6 C 114.83,63.86 117.28,63.82 118.74,65.14 C 120.23,66.18 119.79,68.18 119.91,69.73 C 119.31,70.42 118.73,71.12 118.16,71.83 C 118.11,70.19 118.05,68.55 118,66.91 C 117.31,66.87 115.93,66.78 115.24,66.73 C 113.39,69 111.54,71.27 109.37,73.24 C 108.04,74.46 106.67,75.66 105.42,76.96 C 104.67,78.01 103.98,79.1 103.29,80.19 C 101.29,81.54 98.66,82.49 97.68,84.89 C 96.97,86.35 96.34,87.85 95.69,89.34 C 95.26,89.47 94.42,89.72 93.99,89.85 C 94.21,88.21 94.43,86.57 94.72,84.94 C 95.64,81.2 99.52,79.88 102.01,77.41 C 105.93,73.49 110.1,69.82 113.71,65.6 z"
       id="path122"
       style="opacity:0.66000001;fill:#727e96" />
  </g>
  <g
     id="#997db7f9">
    <path
       d="M 28.85,65.38 C 30.05,65.03 31.25,64.7 32.46,64.38 C 32.68,66.63 33.85,69.28 32.31,71.3 C 30.75,73.41 27.85,73.34 25.5,73.59 C 25.57,73.1 25.72,72.12 25.8,71.63 C 27.89,70.61 29.76,69.23 31.39,67.58 C 30.76,67.03 29.49,65.93 28.85,65.38 z"
       id="path125"
       style="opacity:0.98000004;fill:#997db7" />
  </g>
  <g
     id="#c7bcdafc">
    <path
       d="M 25.8,71.63 C 25.89,69.1 26.35,66.57 28.85,65.38 C 29.49,65.93 30.76,67.03 31.39,67.58 C 29.76,69.23 27.89,70.61 25.8,71.63 z"
       id="path128"
       style="opacity:1;fill:#c7bcda" />
  </g>
  <g
     id="#87a4d2fd">
    <path
       d="M 109.37,73.24 C 111.54,71.27 113.39,69 115.24,66.73 C 115.93,66.78 117.31,66.87 118,66.91 C 118.05,68.55 118.11,70.19 118.16,71.83 C 116.13,72.8 114.27,74.14 113.17,76.15 C 110.88,80.14 106.68,82.76 105.09,87.19 C 104.2,88.83 103.74,91.28 101.57,91.67 C 99.3,92.39 97.5,90.34 95.69,89.34 C 96.34,87.85 96.97,86.35 97.68,84.89 C 97.85,86.35 98.06,87.81 98.29,89.27 C 100.08,88.54 102.8,88.69 103.38,86.37 C 103.8,84.33 103.44,82.24 103.29,80.19 C 103.98,79.1 104.67,78.01 105.42,76.96 C 105.7,77.76 106.27,79.37 106.56,80.17 C 108.03,79.22 110.55,79.06 110.76,76.91 C 110.56,75.6 109.88,74.44 109.37,73.24 z"
       id="path131"
       style="opacity:1;fill:#87a4d2" />
  </g>
  <g
     id="#827a96b8">
    <path
       d="M 77.55,69.12 L 78.5,69.29 C 81.45,70.68 84.51,72.11 86.82,74.46 C 88.13,76.39 86.57,79.09 84.37,79.28 C 80.28,79.67 76.15,79.5 72.06,79.94 L 71.62,79.06 L 71.67,78.14 L 72.5,77.66 L 73.52,77.67 C 77.26,77.9 81.01,78.16 84.77,78.25 C 85.17,77.56 85.98,76.2 86.38,75.52 C 84.13,74.07 81.84,72.44 79.06,72.29 C 78.72,71.76 78.03,70.69 77.69,70.16 L 77.55,69.12 z"
       id="path134"
       style="opacity:0.72000002;fill:#827a96" />
  </g>
  <g
     id="#564f5f75">
    <path
       d="M 78.5,69.29 C 78.97,69.36 79.92,69.52 80.4,69.6 C 83.39,70.16 86.54,71.14 88.64,73.47 C 89.67,76.09 88.47,79.77 85.52,80.43 C 81.32,81.18 77.02,81.09 72.79,81.7 C 72.61,81.26 72.25,80.38 72.06,79.94 C 76.15,79.5 80.28,79.67 84.37,79.28 C 86.57,79.09 88.13,76.39 86.82,74.46 C 84.51,72.11 81.45,70.68 78.5,69.29 z"
       id="path137"
       style="opacity:0.46000001;fill:#564f5f" />
  </g>
  <g
     id="#adc0ebfe">
    <path
       d="M 58.42,75.18 C 60.11,73.13 62.1,71.35 64.09,69.61 C 64.85,70.24 65.63,70.85 66.44,71.41 C 61.97,76.35 57.1,80.98 53.55,86.67 C 53,86.69 51.89,86.73 51.34,86.75 C 51.12,85.9 50.9,85.06 50.68,84.21 L 50.47,83.41 C 51.18,82.97 51.88,82.52 52.58,82.06 C 54.75,79.96 56.5,77.5 58.42,75.18 z"
       id="path140"
       style="opacity:1;fill:#adc0eb" />
  </g>
  <g
     id="#466499c6">
    <path
       d="M 118.16,71.83 C 118.73,71.12 119.31,70.42 119.91,69.73 C 119.17,76.49 119.39,83.27 119.37,90.05 C 119.72,94.36 114.79,95.6 111.86,97.41 C 111.71,96.71 111.4,95.3 111.24,94.59 C 113.6,94.3 115.78,93.32 117.93,92.36 C 117.51,85.77 116.8,79.13 117.71,72.55 L 118.16,71.83 z"
       id="path143"
       style="opacity:0.77999998;fill:#466499" />
  </g>
  <g
     id="#4a3272c3">
    <path
       d="M 23.33,72.28 C 23.66,72.56 24.32,73.12 24.65,73.4 C 25.88,74.61 27.03,75.89 28.18,77.17 C 33.04,77.32 37.9,77.05 42.76,77.31 C 44.11,77.4 45.46,77.5 46.81,77.61 L 46.01,78.09 L 45.11,78.63 C 39.81,79.49 34.37,79.69 29.02,79.17 C 25.94,78.92 24.43,75.77 23.3,73.3 L 23.33,72.28 z"
       id="path146"
       style="opacity:0.76000001;fill:#4a3272" />
  </g>
  <g
     id="#8ea3e3fe">
    <path
       d="M 53.55,86.67 C 57.1,80.98 61.97,76.35 66.44,71.41 C 68.19,72.03 70.01,72.48 71.71,73.24 C 72.51,74.62 72.97,76.17 73.52,77.67 L 72.5,77.66 C 67.43,77.07 62.35,78.76 58.76,82.41 C 56.29,88.28 49.69,90.22 46.18,95.21 C 45.09,96.67 44.01,98.13 42.99,99.64 C 44.78,101.61 46.56,103.6 48.07,105.8 L 48.55,106.51 C 49.31,110.55 52.52,113.07 55.76,115.18 C 55.43,116.41 55.11,117.64 54.78,118.86 C 51.3,116.85 49.02,113.49 46.26,110.68 C 46.17,108.94 46.48,107.08 45.73,105.45 C 44.16,104.73 42.48,104.34 40.82,103.91 C 40.29,103.78 39.24,103.5 38.71,103.37 C 40.2,98.9 42.74,94.89 46.17,91.65 C 44.74,91.32 43.31,90.99 41.88,90.71 C 44.21,90.29 46.64,89.93 48.71,88.7 C 49.58,87.31 50.14,85.75 50.68,84.21 C 50.9,85.06 51.12,85.9 51.34,86.75 C 51.89,86.73 53,86.69 53.55,86.67 z"
       id="path149"
       style="opacity:1;fill:#8ea3e3" />
  </g>
  <g
     id="#658addff">
    <path
       d="M 113.17,76.15 C 114.27,74.14 116.13,72.8 118.16,71.83 L 117.71,72.55 C 114.88,76.94 112.29,81.48 109.79,86.07 C 111.95,87.09 114.13,88.01 116.38,88.78 C 116.85,89.99 117.36,91.19 117.93,92.36 C 115.78,93.32 113.6,94.3 111.24,94.59 C 108.66,94.68 105.69,93.7 103.5,95.52 C 101.23,97.06 99.34,99.06 97.29,100.86 C 96.55,98.52 96.89,94.93 93.97,94.12 C 92.69,93.59 91.34,93.27 89.99,92.99 C 90.26,92.4 90.81,91.24 91.08,90.66 C 92.06,90.41 93.03,90.14 93.99,89.85 C 94.42,89.72 95.26,89.47 95.69,89.34 C 97.5,90.34 99.3,92.39 101.57,91.67 C 103.74,91.28 104.2,88.83 105.09,87.19 C 106.68,82.76 110.88,80.14 113.17,76.15 z"
       id="path152"
       style="opacity:1;fill:#658add" />
  </g>
  <g
     id="#527bc5fe">
    <path
       d="M 109.79,86.07 C 112.29,81.48 114.88,76.94 117.71,72.55 C 116.8,79.13 117.51,85.77 117.93,92.36 C 117.36,91.19 116.85,89.99 116.38,88.78 C 114.13,88.01 111.95,87.09 109.79,86.07 z"
       id="path155"
       style="opacity:1;fill:#527bc5" />
  </g>
  <g
     id="#b2c2e9fd">
    <path
       d="M 105.42,76.96 C 106.67,75.66 108.04,74.46 109.37,73.24 C 109.88,74.44 110.56,75.6 110.76,76.91 C 110.55,79.06 108.03,79.22 106.56,80.17 C 106.27,79.37 105.7,77.76 105.42,76.96 z"
       id="path158"
       style="opacity:1;fill:#b2c2e9" />
  </g>
  <g
     id="#5d8decff">
    <path
       d="M 58.76,82.41 C 62.35,78.76 67.43,77.07 72.5,77.66 L 71.67,78.14 C 71.25,78.39 70.4,78.88 69.98,79.13 C 67.49,80.39 64.86,81.35 62.25,82.34 C 62.15,83 61.96,84.3 61.86,84.96 C 66.61,88.49 71.5,92.24 77.39,93.6 C 81.57,94.56 85.82,93.48 89.99,92.99 C 91.34,93.27 92.69,93.59 93.97,94.12 C 96.89,94.93 96.55,98.52 97.29,100.86 C 94.86,102.48 91.98,103.24 89.07,103.21 C 84.55,103.21 79.91,103.46 75.49,102.34 C 72.85,101.04 70.86,98.72 68.23,97.4 C 64.79,99.53 61.97,102.81 57.86,103.7 C 54.93,104.35 52.17,105.59 50.23,107.96 C 49.81,107.6 48.97,106.87 48.55,106.51 L 48.07,105.8 C 53.41,100.99 61.84,100.1 65.51,93.44 C 66.98,90.81 63.65,89.33 62.1,87.86 C 60.1,86.68 59.29,84.55 58.76,82.41 z"
       id="path161"
       style="opacity:1;fill:#5d8dec" />
  </g>
  <g
     id="#8587a6bc">
    <path
       d="M 46.81,77.61 L 47.71,77.48 C 48.04,77.87 48.71,78.65 49.05,79.04 C 49.56,80.48 50.03,81.94 50.47,83.41 L 50.68,84.21 C 50.14,85.75 49.58,87.31 48.71,88.7 C 46.64,89.93 44.21,90.29 41.88,90.71 C 38.83,90.72 35.78,90.8 32.73,90.83 L 32.86,89.82 L 32.95,88.8 C 37.34,88.83 41.85,89.14 46.14,88.06 C 49.53,85.71 47.34,81.04 46.01,78.09 L 46.81,77.61 z"
       id="path164"
       style="opacity:0.73999999;fill:#8587a6" />
  </g>
  <g
     id="#454d5963">
    <path
       d="M 45.11,78.63 L 46.01,78.09 C 47.34,81.04 49.53,85.71 46.14,88.06 C 41.85,89.14 37.34,88.83 32.95,88.8 C 30.87,88.49 28.8,88.12 26.73,87.82 C 33.47,87.47 40.57,88.63 46.93,85.79 C 46.28,83.41 45.62,81.04 45.11,78.63 z"
       id="path167"
       style="opacity:0.38999999;fill:#454d59" />
    <path
       d="M 28.73,95.98 L 29.52,95.63 C 31.02,98.31 32.6,101.02 34.99,103.02 C 41.63,108.74 47.31,115.5 54.26,120.88 C 56.56,122.5 56.56,125.58 57.44,128 L 54.81,128 C 54.26,126.3 53.77,124.59 53.27,122.88 C 48.25,120.32 46.02,114.74 41.19,111.91 C 38.28,108.4 35.24,105.07 31.44,102.47 C 30.35,100.39 29.49,98.2 28.73,95.98 z"
       id="path169"
       style="opacity:0.38999999;fill:#454d59" />
  </g>
  <g
     id="#4a80d7fe">
    <path
       d="M 62.25,82.34 C 64.86,81.35 67.49,80.39 69.98,79.13 C 69.47,82.02 68.62,85.24 70.01,88.01 C 71.14,90.18 73.8,90.48 75.97,90.62 C 81,90.84 86.05,90.89 91.08,90.66 C 90.81,91.24 90.26,92.4 89.99,92.99 C 85.82,93.48 81.57,94.56 77.39,93.6 C 71.5,92.24 66.61,88.49 61.86,84.96 C 61.96,84.3 62.15,83 62.25,82.34 z"
       id="path172"
       style="opacity:1;fill:#4a80d7" />
  </g>
  <g
     id="#3e64a8c3">
    <path
       d="M 69.98,79.13 C 70.4,78.88 71.25,78.39 71.67,78.14 L 71.62,79.06 C 71.78,82.2 69.86,87.7 74.25,88.63 C 79.4,89.73 84.78,89.55 89.97,88.86 C 91.95,88.74 93.3,87.22 94.37,85.72 L 94.72,84.94 C 94.43,86.57 94.21,88.21 93.99,89.85 C 93.03,90.14 92.06,90.41 91.08,90.66 C 86.05,90.89 81,90.84 75.97,90.62 C 73.8,90.48 71.14,90.18 70.01,88.01 C 68.62,85.24 69.47,82.02 69.98,79.13 z"
       id="path175"
       style="opacity:0.76000001;fill:#3e64a8" />
  </g>
  <g
     id="#213a6576">
    <path
       d="M 71.62,79.06 L 72.06,79.94 C 72.25,80.38 72.61,81.26 72.79,81.7 C 73.13,83.34 73.4,84.99 73.68,86.65 C 79.77,87.74 86.08,88.03 92.07,86.26 C 92.65,86.12 93.8,85.86 94.37,85.72 C 93.3,87.22 91.95,88.74 89.97,88.86 C 84.78,89.55 79.4,89.73 74.25,88.63 C 69.86,87.7 71.78,82.2 71.62,79.06 z"
       id="path178"
       style="opacity:0.46000001;fill:#213a65" />
  </g>
  <g
     id="#aabdeafe">
    <path
       d="M 97.68,84.89 C 98.66,82.49 101.29,81.54 103.29,80.19 C 103.44,82.24 103.8,84.33 103.38,86.37 C 102.8,88.69 100.08,88.54 98.29,89.27 C 98.06,87.81 97.85,86.35 97.68,84.89 z"
       id="path181"
       style="opacity:1;fill:#aabdea" />
  </g>
  <g
     id="#7aa3f8fe">
    <path
       d="M 46.18,95.21 C 49.69,90.22 56.29,88.28 58.76,82.41 C 59.29,84.55 60.1,86.68 62.1,87.86 C 63.65,89.33 66.98,90.81 65.51,93.44 C 61.84,100.1 53.41,100.99 48.07,105.8 C 46.56,103.6 44.78,101.61 42.99,99.64 C 44.01,98.13 45.09,96.67 46.18,95.21 z"
       id="path184"
       style="opacity:1;fill:#7aa3f8" />
  </g>
  <g
     id="#523483bd">
    <path
       d="M 17.97,89.04 C 20.49,87.26 23.82,87.88 26.73,87.82 C 28.8,88.12 30.87,88.49 32.95,88.8 L 32.86,89.82 C 28.36,89.56 23.83,89.72 19.36,90.3 C 19.36,91.36 19.37,92.42 19.38,93.48 C 23.05,93.99 26.71,94.63 30.36,95.31 L 29.52,95.63 L 28.73,95.98 C 25.39,96.43 21.83,96.63 18.63,95.37 C 16.24,94.23 15.83,90.66 17.97,89.04 z"
       id="path187"
       style="opacity:0.73999999;fill:#523483" />
  </g>
  <g
     id="#7953adfa">
    <path
       d="M 19.36,90.3 C 23.83,89.72 28.36,89.56 32.86,89.82 L 32.73,90.83 C 32.46,92.22 32.13,93.59 31.79,94.96 C 31.43,95.05 30.72,95.23 30.36,95.31 C 26.71,94.63 23.05,93.99 19.38,93.48 C 19.37,92.42 19.36,91.36 19.36,90.3 z"
       id="path190"
       style="opacity:0.98000004;fill:#7953ad" />
  </g>
  <g
     id="#b7b9e4fe">
    <path
       d="M 32.73,90.83 C 35.78,90.8 38.83,90.72 41.88,90.71 C 43.31,90.99 44.74,91.32 46.17,91.65 C 42.74,94.89 40.2,98.9 38.71,103.37 C 34.81,102.22 32.95,98.54 31.79,94.96 C 32.13,93.59 32.46,92.22 32.73,90.83 z"
       id="path193"
       style="opacity:1;fill:#b7b9e4" />
  </g>
  <g
     id="#3c72d6ff">
    <path
       d="M 103.5,95.52 C 105.69,93.7 108.66,94.68 111.24,94.59 C 108.36,95.66 104.86,96.19 103.08,99 C 100.36,102.77 97.39,107.85 92.05,107.63 C 84.36,106.98 76.89,104.06 69.09,104.65 C 65.24,105.21 61.49,107.23 59.1,110.33 C 58.74,113 59.8,115.59 60.89,117.97 C 57.61,114.36 54.02,111.03 50.23,107.96 C 52.17,105.59 54.93,104.35 57.86,103.7 C 61.97,102.81 64.79,99.53 68.23,97.4 C 70.86,98.72 72.85,101.04 75.49,102.34 C 79.91,103.46 84.55,103.21 89.07,103.21 C 91.98,103.24 94.86,102.48 97.29,100.86 C 99.34,99.06 101.23,97.06 103.5,95.52 z"
       id="path196"
       style="opacity:1;fill:#3c72d6" />
  </g>
  <g
     id="#828da3b7">
    <path
       d="M 30.36,95.31 C 30.72,95.23 31.43,95.05 31.79,94.96 C 32.95,98.54 34.81,102.22 38.71,103.37 C 39.24,103.5 40.29,103.78 40.82,103.91 C 41.23,107.16 43.2,109.56 46.26,110.68 C 49.02,113.49 51.3,116.85 54.78,118.86 C 55.92,119.55 57.09,120.17 58.27,120.79 C 58.26,123.19 58.25,125.6 58.27,128 L 57.44,128 C 56.56,125.58 56.56,122.5 54.26,120.88 C 47.31,115.5 41.63,108.74 34.99,103.02 C 32.6,101.02 31.02,98.31 29.52,95.63 L 30.36,95.31 z"
       id="path199"
       style="opacity:0.72000002;fill:#828da3" />
  </g>
  <g
     id="#2f60bbfe">
    <path
       d="M 103.08,99 C 104.86,96.19 108.36,95.66 111.24,94.59 C 111.4,95.3 111.71,96.71 111.86,97.41 C 111.55,98.29 111.24,99.17 110.93,100.05 C 106.61,101.83 103.24,105.36 101.99,109.92 C 93.13,109.7 84.25,109.94 75.4,109.59 C 77,109.04 78.62,108.53 80.23,108 C 74.33,107.43 67.81,109.23 64.57,114.54 C 64.17,117.02 64.56,119.53 64.76,122.01 C 63.46,120.67 62.15,119.34 60.89,117.97 C 59.8,115.59 58.74,113 59.1,110.33 C 61.49,107.23 65.24,105.21 69.09,104.65 C 76.89,104.06 84.36,106.98 92.05,107.63 C 97.39,107.85 100.36,102.77 103.08,99 z"
       id="path202"
       style="opacity:1;fill:#2f60bb" />
  </g>
  <g
     id="#1026518c">
    <path
       d="M 110.93,100.05 C 111.5,99.79 112.64,99.28 113.21,99.03 C 112.49,101.13 111.82,103.5 109.72,104.66 C 106.49,106.53 104.78,109.88 102.53,112.69 C 100.51,113.64 98.2,113.47 96.02,113.58 C 88.79,113.53 81.56,113.27 74.33,113.5 C 73.34,118.27 73.32,123.16 73.64,128 L 69.78,128 C 69.61,122.5 70.17,117.02 70.67,111.55 C 80.98,109.02 91.66,112.13 101.99,109.92 C 103.24,105.36 106.61,101.83 110.93,100.05 z"
       id="path205"
       style="opacity:0.55;fill:#102651" />
  </g>
  <g
     id="#b4c9e5fc">
    <path
       d="M 40.82,103.91 C 42.48,104.34 44.16,104.73 45.73,105.45 C 46.48,107.08 46.17,108.94 46.26,110.68 C 43.2,109.56 41.23,107.16 40.82,103.91 z"
       id="path208"
       style="opacity:1;fill:#b4c9e5" />
  </g>
  <g
     id="#6a8dc6f9">
    <path
       d="M 48.55,106.51 C 48.97,106.87 49.81,107.6 50.23,107.96 C 54.02,111.03 57.61,114.36 60.89,117.97 C 62.15,119.34 63.46,120.67 64.76,122.01 C 64.98,124.01 65.21,126 65.43,128 L 63.5,128 C 62.81,126.19 62.21,124.35 61.61,122.51 C 60.5,121.93 59.38,121.37 58.27,120.79 C 57.09,120.17 55.92,119.55 54.78,118.86 C 55.11,117.64 55.43,116.41 55.76,115.18 C 52.52,113.07 49.31,110.55 48.55,106.51 z"
       id="path211"
       style="opacity:0.98000004;fill:#6a8dc6" />
  </g>
  <g
     id="#30569efd">
    <path
       d="M 64.57,114.54 C 67.81,109.23 74.33,107.43 80.23,108 C 78.62,108.53 77,109.04 75.4,109.59 C 84.25,109.94 93.13,109.7 101.99,109.92 C 91.66,112.13 80.98,109.02 70.67,111.55 C 70.17,117.02 69.61,122.5 69.78,128 L 65.43,128 C 65.21,126 64.98,124.01 64.76,122.01 C 64.56,119.53 64.17,117.02 64.57,114.54 z"
       id="path214"
       style="opacity:1;fill:#30569e" />
  </g>
  <g
     id="#9ab1d7fc">
    <path
       d="M 58.27,120.79 C 59.38,121.37 60.5,121.93 61.61,122.51 C 62.21,124.35 62.81,126.19 63.5,128 L 58.27,128 C 58.25,125.6 58.26,123.19 58.27,120.79 z"
       id="path217"
       style="opacity:1;fill:#9ab1d7" />
  </g>
</svg>
