<svg width="160" xmlns="http://www.w3.org/2000/svg" height="160" viewBox="0 0 128 128">
<path opacity=".36" fill="#222" d="m36.54,0h5.6c-.55,.57-1.65,1.7-2.2,2.27-3.93,1.78-8.08,3.39-11.29,6.39-5.38,4.87-7.44,12.33-8.01,19.34-.04,2.53-.39,5.75 1.94,7.44 5.08,3.8 10.78,6.93 16.9,8.67 1.25-6.4 .78-13.94 5.7-18.9 4.1-4.25 10.54-4.9 16.01-3.46 5.86,1.54 11.78,3.66 16.53,7.51 2.58,2.01 3.12,5.62 2.39,8.65-.82,3.88-3.96,6.61-6.68,9.25-.34,.1-1.02,.3-1.36,.4l.44-.74c2.47-3.14 4.92-6.34 6.63-9.96 .68-2.97-1.2-5.83-3.63-7.37-5.98-3.98-13.19-6.27-20.39-6.19-3.73,.21-8.22,1.09-10.14,4.68-2.73,5.27-3.32,11.28-4.55,17.01-5.99-.18-11.21-3.29-16.16-6.32-2.1-1.38-4.74-2.93-4.86-5.75-.73-6.25-.32-12.95 3.01-18.45 2.98-5.82 8.35-9.84 14.13-12.62-.01-.46-.01-1.39-.01-1.85z"/>
<path opacity=".66" fill="#434243" d="m42.14,0h5.19c-5.61,4.68-13.95,4.67-18.51,10.82-5.12,4.93-6.01,12.51-6,19.25-.11,5.16 5.42,7.26 9.22,9.29 2.18,1.19 4.41,2.31 6.8,3.05 .59-4.19 .96-8.42 .94-12.65 3.02-4.03 6.75-7.45 10.92-10.26 9.24,.13 18.76,1.84 26.38,7.39 3.7,2.37 6.37,7.31 4.45,11.61-1.09,3.27-3.17,6.04-4.97,8.94-1.04-.12-2.08-.22-3.13-.28 2.72-2.64 5.86-5.37 6.68-9.25 .73-3.03 .19-6.64-2.39-8.65-4.75-3.85-10.67-5.97-16.53-7.51-5.47-1.44-11.91-.79-16.01,3.46-4.92,4.96-4.45,12.5-5.7,18.9-6.12-1.74-11.82-4.87-16.9-8.67-2.33-1.69-1.98-4.91-1.94-7.44 .57-7.01 2.63-14.47 8.01-19.34 3.21-3 7.36-4.61 11.29-6.39 .55-.57 1.65-1.7 2.2-2.27z"/>
<path opacity=".91" fill="#676867" d="m47.33,0h13.37c-1.01,1.04-1.98,2.13-2.95,3.21-10.16-.64-20.5,1.81-28.93,7.61 4.56-6.15 12.9-6.14 18.51-10.82z"/>
<path opacity=".54" fill="#3a3a3b" d="m60.7,0h6.86c-.09,.55-.27,1.65-.36,2.2 12.19,2.55 24.92,6.63 33.67,15.95 5.44,5.44 5.42,13.86 4.07,20.91-.53,3.32-2.87,5.84-5.01,8.24 .02-.8 .07-2.4 .1-3.2 2.48-5.68 5.17-12.24 2.44-18.35-4.46-10.14-15.35-15.22-25.39-18.2-6.32-1.94-12.69-3.94-19.33-4.34 .97-1.08 1.94-2.17 2.95-3.21z"/>
<path opacity=".98" fill="#8e8a94" d="m28.82,10.82c8.43-5.8 18.77-8.25 28.93-7.61 6.64,.4 13.01,2.4 19.33,4.34 10.04,2.98 20.93,8.06 25.39,18.2 2.73,6.11 .04,12.67-2.44,18.35-1.37,2.09-3.03,3.98-4.7,5.84l-.65-.73 .06-.86c2.42-4.04 5.39-8.04 5.82-12.89 .32-4.33 .58-9.21-2.12-12.89-3.4-4.42-8.31-7.33-13.26-9.72-3.22-1.64-6.54-3.13-10.05-4.04-8.17-2.07-16.4-5.38-24.99-3.98-6.82,1.28-14.23,2.91-19.37,7.92-3.63,4.46-5.8,10.35-5.6,16.12 1.3,4.02 4.58,7.02 6.87,10.49-3.8-2.03-9.33-4.13-9.22-9.29-.01-6.74 .88-14.32 6-19.25z"/>
<path fill="#bab2c7" d="m30.77,12.75c5.14-5.01 12.55-6.64 19.37-7.92-4.06,2.94-8.77,5.28-11.75,9.46-4.21,6.11-8.48,12.8-8.18,20.54 1.47,.32 2.94,1.06 4.47,.84 3.03-3.64 3.63-8.7 6.71-12.32 1.69-2.02 3.91-3.49 6.14-4.86 6.27-1.56 12.99-2.81 19.28-.6 6.95,2.26 15.39,4.35 18.99,11.42 3.02,5.72-.38,11.89-2.71,17.18 .57,.19 1.71,.57 2.28,.75 .46,.15 1.37,.44 1.82,.58-1.79-.02-3.58,.03-5.38,.01-.6-.35-1.81-1.05-2.42-1.41 4.84-3.98 7.01-11.2 4.07-16.94-2.61-4.72-8.09-6.55-12.83-8.39-6.32-2.48-13.29-2.99-19.93-1.59-5.43,.81-9.87,4.82-10.92,10.26-.83,2.94-1.49,5.93-2.18,8.91-1.85,.24-3.71,.47-5.56,.69-2.29-3.47-5.57-6.47-6.87-10.49-.2-5.77 1.97-11.66 5.6-16.12z"/>
<path fill="#d4ceda" d="m50.14,4.83c8.59-1.4 16.82,1.91 24.99,3.98 3.51,.91 6.83,2.4 10.05,4.04-10.57-1.92-20.88-5.12-31.53-6.62-2.18,6.2-9.82,6.18-13.85,10.57-4.77,5.02-6.57,11.95-9.59,18.03-.3-7.74 3.97-14.43 8.18-20.54 2.98-4.18 7.69-6.52 11.75-9.46z"/>
<path fill="#f1eef3" d="m53.65,6.23c10.65,1.5 20.96,4.7 31.53,6.62 4.95,2.39 9.86,5.3 13.26,9.72 2.7,3.68 2.44,8.56 2.12,12.89-.43,4.85-3.4,8.85-5.82,12.89-2.52-.11-5.04-.27-7.55-.53-.45-.14-1.36-.43-1.82-.58 2.44-3.44 5.49-6.79 6.02-11.16 .42-4.35 .38-9.34-2.61-12.86-2.46-3.15-6.26-4.86-9.93-6.19-3.61-1.08-7.05-2.82-10.84-3.19-7.07-.87-14.67,.3-20.48,4.65-2.23,1.37-4.45,2.84-6.14,4.86-3.08,3.62-3.68,8.68-6.71,12.32-1.53,.22-3-.52-4.47-.84 3.02-6.08 4.82-13.01 9.59-18.03 4.03-4.39 11.67-4.37 13.85-10.57z"/>
<path fill="#d8d2dd" d="m47.53,18.49c5.81-4.35 13.41-5.52 20.48-4.65 3.79,.37 7.23,2.11 10.84,3.19 3.67,1.33 7.47,3.04 9.93,6.19 2.99,3.52 3.03,8.51 2.61,12.86-.53,4.37-3.58,7.72-6.02,11.16-.57-.18-1.71-.56-2.28-.75 2.33-5.29 5.73-11.46 2.71-17.18-3.6-7.07-12.04-9.16-18.99-11.42-6.29-2.21-13.01-.96-19.28,.6z"/>
<path opacity=".96" fill="#838089" d="m50.7,19.5c6.64-1.4 13.61-.89 19.93,1.59 4.74,1.84 10.22,3.67 12.83,8.39 2.94,5.74 .77,12.96-4.07,16.94-1.09,.63-2.21,1.2-3.32,1.79l.49-.77c1.8-2.9 3.88-5.67 4.97-8.94 1.92-4.3-.75-9.24-4.45-11.61-7.62-5.55-17.14-7.26-26.38-7.39z"/>
<path opacity=".87" fill="#7d7d7d" d="m39.78,29.76c1.05-5.44 5.49-9.45 10.92-10.26-4.17,2.81-7.9,6.23-10.92,10.26z"/>
<path opacity=".86" fill="#7c7c7d" d="m37.6,38.67c.69-2.98 1.35-5.97 2.18-8.91 .02,4.23-.35,8.46-.94,12.65-2.39-.74-4.62-1.86-6.8-3.05 1.85-.22 3.71-.45 5.56-.69z"/>
<path opacity=".51" fill="#563100" d="m95.33,49.94c1.67-1.86 3.33-3.75 4.7-5.84-.03,.8-.08,2.4-.1,3.2-.01,1.37 .03,2.73 .07,4.1 2.59,.38 5.17,.79 7.76,1.16 .99,4.94 .84,10.07-.59,14.92-1.65,5.69-2.62,11.59-2.67,17.53-.06,8.91-.27,17.83 .24,26.73-.32,2.69-.24,5.82-2.17,7.93-3.02,2.32-6.96,2.8-10.59,3.5 3.68-1.54 7.35-3.11 11.06-4.58-.07-.6-.21-1.81-.28-2.41-1.44-9.3-1.78-18.72-1.16-28.11 .86-10.34 3.7-20.48 4.17-30.84-3.05-3-7.45-4.17-10.44-7.29z"/>
<path opacity=".33" fill="#361b00" d="m51.09,48.25c7.05-1.46 14.29-.77 21.42-1.43l-.44,.74c-6.32,1.77-12.99,1.6-19.39,2.99-8.64,.82-17,3.09-25.2,5.87-3.48,.91-7.38,1.7-9.79,4.62 1.43,7.3 4.49,14.2 5.95,21.5 1.52,7.77 3.28,15.52 3.79,23.44 .22,5.51 .12,11.03 .23,16.55 1.12,.28 2.23,.58 3.34,.87 2.6,1.41 5.15,2.93 7.6,4.6h-4.57c-2.59-1.38-5.27-2.71-7.44-4.72-2.07-1.79-1.93-4.76-2.13-7.25-.16-7.36-.87-14.69-1.15-22.05-.3-7.16-2.86-13.92-4.61-20.81-1.02-4.02-3.17-7.76-3.43-11.95 .01-2.08 1.67-3.61 3.47-4.33 10.39-4.22 21.46-6.2 32.35-8.64z"/>
<path opacity=".71" fill="#794b13" d="m72.07,47.56c.34-.1 1.02-.3 1.36-.4 1.05,.06 2.09,.16 3.13,.28l-.49,.77c-1.7,1.01-3.41,1.99-5.16,2.91-.43,.02-1.3,.06-1.74,.08-5.5-.16-10.99-.59-16.49-.65 6.4-1.39 13.07-1.22 19.39-2.99z"/>
<path fill="#ad7d4d" d="m76.07,48.21c1.11-.59 2.23-1.16 3.32-1.79 .61,.36 1.82,1.06 2.42,1.41 .96,.84 1.9,1.69 2.83,2.55-4.55,.66-9.15,.7-13.73,.74 1.75-.92 3.46-1.9 5.16-2.91z"/>
<path fill="#d7b37f" d="m81.81,47.83c1.8,.02 3.59-.03 5.38-.01 2.51,.26 5.03,.42 7.55,.53l-.06,.86c-.01,1.35-.13,2.71 .04,4.05 2.95,1.57 6.22,2.45 9.11,4.14 .74,6.77-1.36,13.4-2.39,20.03-2.34,11.91-.8,24.09-1.83,36.11-.23-.56-.7-1.69-.94-2.25 .53-4.9 .49-9.83 .26-14.75 .43-8.1 .19-16.27 1.44-24.31 .69-4.89 3.13-9.66 2.19-14.69-4.95-1.57-10.23-1.6-15.19-3.12-9.93-3.2-20.43-1.23-30.64-1.79 4.14-.51 8.26-1.24 12.44-1.43 .44-.02 1.31-.06 1.74-.08 4.58-.04 9.18-.08 13.73-.74-.93-.86-1.87-1.71-2.83-2.55z"/>
<path opacity=".87" fill="#ae8346" d="m94.68,49.21l.65,.73c2.99,3.12 7.39,4.29 10.44,7.29-.47,10.36-3.31,20.5-4.17,30.84-.62,9.39-.28,18.81 1.16,28.11-.26,.11-.78,.32-1.04,.43-.35-.27-1.05-.81-1.4-1.08-.17-.5-.53-1.49-.71-1.99 1.03-12.02-.51-24.2 1.83-36.11 1.03-6.63 3.13-13.26 2.39-20.03-2.89-1.69-6.16-2.57-9.11-4.14-.17-1.34-.05-2.7-.04-4.05z"/>
<path opacity=".75" fill="#966f3b" d="m27.48,56.42c8.2-2.78 16.56-5.05 25.2-5.87 5.5,.06 10.99,.49 16.49,.65-4.18,.19-8.3,.92-12.44,1.43-6.01,.56-12,1.44-17.82,3.09-2.57,.57-5.16,1.09-7.8,1.28-.91-.14-2.72-.43-3.63-.58z"/>
<path fill="#fcf9dd" d="m38.91,55.72c5.82-1.65 11.81-2.53 17.82-3.09 10.21,.56 20.71-1.41 30.64,1.79 4.96,1.52 10.24,1.55 15.19,3.12 .94,5.03-1.5,9.8-2.19,14.69-1.25,8.04-1.01,16.21-1.44,24.31-1.4-1.89-3.03-3.83-3.11-6.3-.63-6.48-.03-13 .18-19.48 .24-3.4 .3-6.81-.12-10.19-10-1.11-19.75-4.2-29.88-4.03-9.05,.24-18.07-2.35-27.09-.82z"/>
<path fill="#fcdb6c" d="m31.11,57c2.64-.19 5.23-.71 7.8-1.28 9.02-1.53 18.04,1.06 27.09,.82 10.13-.17 19.88,2.92 29.88,4.03 .42,3.38 .36,6.79 .12,10.19-.97,6.55-2.19,13.18-1.27,19.83 .99,6.94 .83,14.25 3.94,20.7 .24,.56 .71,1.69 .94,2.25 .18,.5 .54,1.49 .71,1.99-.7,.24-2.09,.72-2.79,.96-2.61-6.36-2.53-13.35-4.16-19.96-1.43-5.78-1.91-11.83-.75-17.7 .75-5.33 2.99-10.68 1.78-16.1-3.44-2.21-7.77-1.85-11.68-2.21-10.74-.58-21.5-1.95-32.26-.86-6.83,.79-13.8,.91-20.5-.85 .29-.45 .86-1.36 1.15-1.81z"/>
<path opacity=".89" fill="#b06900" d="m17.69,61.04c2.41-2.92 6.31-3.71 9.79-4.62 .91,.15 2.72,.44 3.63,.58-.29,.45-.86,1.36-1.15,1.81-3.12,1.07-6.25,2.18-9.13,3.81 2.26,7.26 4.61,14.49 6.34,21.89 2.42,11.58 2.53,23.48 4.21,35.14 3.34,2.44 7.44,3.31 11.47,3.76 9.03,.55 18.08,1.5 27.11,.49 10.9-.56 22.12-1.76 31.76-7.29 .26-.11 .78-.32 1.04-.43 .07,.6 .21,1.81 .28,2.41-3.71,1.47-7.38,3.04-11.06,4.58-7.78,1.2-16.65-.45-23.23,4.83h-16.54c-6.22-4.42-14.02-3.76-21.21-4.6-1.11-.29-2.22-.59-3.34-.87-.11-5.52-.01-11.04-.23-16.55-.51-7.92-2.27-15.67-3.79-23.44-1.46-7.3-4.52-14.2-5.95-21.5z"/>
<path fill="#f4a000" d="m20.83,62.62c2.88-1.63 6.01-2.74 9.13-3.81-1.84,1.48-3.85,2.82-5.32,4.69-.95,4.96 1.69,9.7 4.15,13.81 7.49-2.49 15.25-5.19 23.26-4.46 5.32,.36 10.41,3.68 12.7,8.52 1.42,4.35-.2,8.82-.5,13.2 8.45,1.47 19.14,.75 24.67,8.6 3.18,5.88-2.04,11.43-5.97,15.3 4.94,.7 10.02,.08 14.58-1.98 .7-.24 2.09-.72 2.79-.96 .35,.27 1.05,.81 1.4,1.08-9.64,5.53-20.86,6.73-31.76,7.29-9.03,1.01-18.08,.06-27.11-.49-.71-1.42-1.39-2.85-2.03-4.3 13.94,.94 28.62,1.05 41.38-5.47-7.34-4.46-13.4-10.57-20.17-15.79-2.92-2.77-4.62-6.55-7.48-9.38-3.01-2.99-6.05-5.96-9.26-8.72-3.39-2.89-8.19-1.57-12.24-1.57-.17,6.25 1.07,12.41 2.26,18.51 1.41,7.63-1.17,16.39 4.24,22.88-2.72,.1-5.45,.11-8.17,.08-1.68-11.66-1.79-23.56-4.21-35.14-1.73-7.4-4.08-14.63-6.34-21.89z"/>
<path fill="#fb0" d="m29.96,58.81c6.7,1.76 13.67,1.64 20.5,.85 10.76-1.09 21.52,.28 32.26,.86 3.91,.36 8.24,0 11.68,2.21 1.21,5.42-1.03,10.77-1.78,16.1-1.16,5.87-.68,11.92 .75,17.7 1.63,6.61 1.55,13.6 4.16,19.96-4.56,2.06-9.64,2.68-14.58,1.98 3.93-3.87 9.15-9.42 5.97-15.3-5.53-7.85-16.22-7.13-24.67-8.6 .3-4.38 1.92-8.85 .5-13.2-2.29-4.84-7.38-8.16-12.7-8.52-8.01-.73-15.77,1.97-23.26,4.46-2.46-4.11-5.1-8.85-4.15-13.81 1.47-1.87 3.48-3.21 5.32-4.69z"/>
<path fill="#f2e3b4" d="m94.73,90.59c-.92-6.65 .3-13.28 1.27-19.83-.21,6.48-.81,13-.18,19.48 .08,2.47 1.71,4.41 3.11,6.3 .23,4.92 .27,9.85-.26,14.75-3.11-6.45-2.95-13.76-3.94-20.7z"/>
<path fill="#ec8d00" d="m33.05,78.18c4.05,0 8.85-1.32 12.24,1.57 3.21,2.76 6.25,5.73 9.26,8.72 2.86,2.83 4.56,6.61 7.48,9.38 6.77,5.22 12.83,11.33 20.17,15.79-12.76,6.52-27.44,6.41-41.38,5.47 .64,1.45 1.32,2.88 2.03,4.3-4.03-.45-8.13-1.32-11.47-3.76 2.72,.03 5.45,.02 8.17-.08-5.41-6.49-2.83-15.25-4.24-22.88-1.19-6.1-2.43-12.26-2.26-18.51z"/>
<path opacity=".46" fill="#4e2a00" d="m102.57,119.67c1.93-2.11 1.85-5.24 2.17-7.93 .02,2.6 .83,5.35-.07,7.87-2.83,3.97-8.13,4.51-12.58,5.2-3.05,.41-5.87,1.66-8.51,3.19h-5.96c4.36-2.68 9.32-4.12 14.36-4.83 3.63-.7 7.57-1.18 10.59-3.5z"/>
<path opacity=".71" fill="#7d4500" d="m68.75,128c6.58-5.28 15.45-3.63 23.23-4.83-5.04,.71-10,2.15-14.36,4.83h-8.87z"/>
<path opacity=".66" fill="#724000" d="m31,123.4c7.19,.84 14.99,.18 21.21,4.6h-13.61c-2.45-1.67-5-3.19-7.6-4.6z"/>
<path opacity=".22" fill="#241300" d="m83.58,128c2.64-1.53 5.46-2.78 8.51-3.19-1.34,1.08-2.68,2.17-4.06,3.19h-4.45z"/>
</svg>
