<?xml version="1.0" encoding="UTF-8" ?>
<!DOCTYPE svg PUBLIC "-//W3C//DTD SVG 1.1//EN" "http://www.w3.org/Graphics/SVG/1.1/DTD/svg11.dtd">
<svg width="32pt" height="32pt" viewBox="0 0 32 32" version="1.1" xmlns="http://www.w3.org/2000/svg">
<g id="#0e5587ce">
<path fill="#0e5587" opacity="0.81" d=" M 3.00 3.00 C 8.33 3.00 13.67 3.00 19.00 3.00 C 19.00 5.00 19.00 7.00 19.00 9.00 C 18.59 9.00 17.77 9.00 17.36 9.00 C 17.36 7.56 17.36 6.12 17.34 4.69 C 13.11 4.61 8.87 4.61 4.64 4.69 C 4.63 7.44 4.63 10.19 4.67 12.93 C 7.11 12.93 9.55 12.93 12.00 12.93 C 12.00 13.44 12.00 14.47 12.00 14.98 C 9.00 15.01 6.00 15.00 3.01 14.90 C 2.97 10.93 3.01 6.96 3.00 3.00 Z" />
</g>
<g id="#bf6414de">
<path fill="#bf6414" opacity="0.87" d=" M 12.00 9.00 C 13.79 9.00 15.57 9.00 17.36 9.00 C 17.77 9.00 18.59 9.00 19.00 9.00 C 22.00 9.00 25.00 9.00 28.00 9.00 C 27.97 12.96 28.08 16.92 27.94 20.87 C 26.60 20.90 25.26 20.93 23.92 20.95 C 23.91 20.46 23.89 19.49 23.88 19.01 C 24.53 18.95 25.81 18.82 26.46 18.76 C 26.44 16.03 26.42 13.30 26.29 10.58 C 23.87 10.59 21.44 10.60 19.02 10.60 C 18.61 10.60 17.79 10.60 17.38 10.60 C 16.46 10.61 14.61 10.62 13.69 10.62 C 13.64 11.39 13.60 12.17 13.58 12.95 C 13.58 13.46 13.59 14.48 13.60 14.99 L 13.60 16.07 C 13.20 16.08 12.40 16.08 12.00 16.08 L 12.00 14.98 C 12.00 14.47 12.00 13.44 12.00 12.93 C 12.00 11.62 12.00 10.31 12.00 9.00 Z" />
</g>
<g id="#0f5a8fd9">
<path fill="#0f5a8f" opacity="0.85" d=" M 17.38 10.60 C 17.79 10.60 18.61 10.60 19.02 10.60 C 19.01 12.02 19.00 13.43 18.98 14.85 C 17.19 14.90 15.39 14.95 13.60 14.99 C 13.59 14.48 13.58 13.46 13.58 12.95 C 14.53 12.94 16.43 12.93 17.38 12.92 C 17.38 12.34 17.38 11.18 17.38 10.60 Z" />
</g>
<g id="#359508db">
<path fill="#359508" opacity="0.86" d=" M 7.20 16.15 C 8.80 16.10 10.40 16.09 12.00 16.08 C 12.40 16.08 13.20 16.08 13.60 16.07 C 17.00 16.06 20.41 16.05 23.81 16.15 C 23.83 16.86 23.86 18.29 23.88 19.01 C 23.89 19.49 23.91 20.46 23.92 20.95 C 23.96 23.29 23.91 25.63 23.86 27.97 C 18.29 28.03 12.72 28.02 7.15 27.98 C 7.04 24.04 7.00 20.09 7.20 16.15 M 9.07 18.09 C 9.07 20.85 9.06 23.61 9.06 26.37 C 13.35 26.42 17.65 26.41 21.94 26.37 C 21.94 24.55 21.93 22.72 21.93 20.89 C 21.95 20.42 21.99 19.47 22.01 18.99 L 21.99 18.01 C 18.90 18.03 15.80 17.86 12.73 18.26 L 11.91 17.99 C 11.20 18.02 9.78 18.07 9.07 18.09 Z" />
</g>
<g id="#ca6810e5">
<path fill="#ca6810" opacity="0.90" d=" M 11.91 17.99 L 12.73 18.26 C 15.67 19.47 18.92 18.87 22.01 18.99 C 21.99 19.47 21.95 20.42 21.93 20.89 C 18.65 20.90 15.36 20.89 12.07 20.84 C 12.03 20.13 11.95 18.70 11.91 17.99 Z" />
</g>
<g id="#1c17022b">
<path fill="#1c1702" opacity="0.17" d=" M 12.73 18.26 C 15.80 17.86 18.90 18.03 21.99 18.01 L 22.01 18.99 C 18.92 18.87 15.67 19.47 12.73 18.26 Z" />
</g>
</svg>
