<?xml version="1.0" encoding="UTF-8" ?>
<!DOCTYPE svg PUBLIC "-//W3C//DTD SVG 1.1//EN" "http://www.w3.org/Graphics/SVG/1.1/DTD/svg11.dtd">
<svg width="128pt" height="128pt" viewBox="0 0 128 128" version="1.1" xmlns="http://www.w3.org/2000/svg">
<g id="#6e53289b">
<path fill="#6e5328" opacity="0.61" d=" M 69.69 18.95 C 72.44 20.18 75.10 21.59 77.75 23.03 C 78.98 21.81 80.14 20.50 81.51 19.42 C 83.21 19.85 84.61 20.97 86.12 21.79 C 88.58 23.43 91.64 23.24 94.45 23.52 C 95.45 24.88 96.37 26.31 97.59 27.48 C 99.57 28.28 101.73 28.42 103.83 28.74 C 103.99 29.82 104.14 30.90 104.28 31.98 C 99.63 30.92 95.36 28.59 92.48 24.72 C 89.43 24.28 86.37 23.91 83.31 23.56 C 82.92 22.64 82.53 21.73 82.14 20.81 C 80.76 22.44 79.45 24.14 77.87 25.58 C 75.27 24.90 73.14 23.21 70.71 22.16 C 69.16 22.94 68.02 24.33 66.47 25.12 C 64.53 25.54 62.52 25.26 60.55 25.28 C 60.54 27.31 60.53 29.35 60.42 31.38 C 58.98 31.54 57.54 31.69 56.10 31.82 C 54.48 31.52 52.88 31.15 51.27 30.85 L 50.32 30.67 C 51.26 29.82 52.25 29.04 53.29 28.33 C 55.10 28.53 56.81 29.19 58.54 29.71 C 59.00 27.14 59.49 24.58 60.00 22.03 C 62.06 22.44 64.11 22.88 66.15 23.35 C 67.33 21.88 68.50 20.41 69.69 18.95 Z" />
</g>
<g id="#fdc719ff">
<path fill="#fdc719" opacity="1.00" d=" M 66.47 25.12 C 68.02 24.33 69.16 22.94 70.71 22.16 C 73.14 23.21 75.27 24.90 77.87 25.58 C 79.45 24.14 80.76 22.44 82.14 20.81 C 82.53 21.73 82.92 22.64 83.31 23.56 C 83.47 23.95 83.80 24.73 83.97 25.12 C 84.18 25.66 84.61 26.72 84.83 27.25 C 87.86 27.81 90.90 28.69 93.28 30.76 C 95.72 33.03 99.16 32.99 102.28 33.27 C 102.63 35.39 102.95 37.52 103.29 39.65 C 104.66 40.40 106.03 41.15 107.39 41.91 C 106.58 45.61 108.25 48.79 111.11 51.05 C 109.69 53.45 107.54 55.68 107.32 58.58 C 108.20 60.50 110.65 60.46 112.41 60.92 C 111.78 62.44 113.68 63.82 115.04 63.10 C 112.59 63.72 110.10 64.20 107.64 64.77 C 107.58 66.07 107.53 67.38 107.47 68.69 L 107.23 68.12 C 106.99 67.46 106.51 66.13 106.27 65.46 C 104.56 65.17 102.86 64.89 101.17 64.55 C 105.04 60.32 104.28 54.19 102.82 49.12 C 100.98 43.57 97.71 37.34 91.24 36.54 C 92.77 38.39 94.59 40.07 95.66 42.26 C 96.14 44.25 96.11 46.31 96.21 48.34 C 96.06 48.00 95.76 47.32 95.61 46.97 C 94.67 44.99 93.69 43.03 92.50 41.19 C 89.43 38.92 85.96 36.89 82.07 36.57 C 76.08 36.04 70.10 37.12 64.11 37.07 C 61.46 36.00 58.79 34.98 56.11 33.99 C 57.56 33.14 59.01 32.29 60.42 31.38 C 60.53 29.35 60.54 27.31 60.55 25.28 C 62.52 25.26 64.53 25.54 66.47 25.12 Z" />
</g>
<g id="#a37a37c5">
<path fill="#a37a37" opacity="0.77" d=" M 83.31 23.56 C 86.37 23.91 89.43 24.28 92.48 24.72 C 95.36 28.59 99.63 30.92 104.28 31.98 C 104.53 34.32 104.65 36.67 104.79 39.02 C 107.21 39.33 109.69 39.57 111.91 40.65 C 111.16 42.80 110.10 44.81 109.13 46.85 C 109.63 47.01 110.64 47.33 111.15 47.49 C 111.88 48.61 112.64 49.73 113.11 50.99 C 111.90 53.91 110.06 56.52 108.61 59.32 C 110.84 59.52 113.07 59.72 115.30 59.90 L 115.39 61.35 C 114.64 61.24 113.15 61.03 112.41 60.92 C 110.65 60.46 108.20 60.50 107.32 58.58 C 107.54 55.68 109.69 53.45 111.11 51.05 C 108.25 48.79 106.58 45.61 107.39 41.91 C 106.03 41.15 104.66 40.40 103.29 39.65 C 102.95 37.52 102.63 35.39 102.28 33.27 C 97.79 32.16 94.03 29.44 91.40 25.67 C 88.92 25.52 86.43 25.44 83.97 25.12 C 83.80 24.73 83.47 23.95 83.31 23.56 Z" />
</g>
<g id="#f0b558fc">
<path fill="#f0b558" opacity="1.00" d=" M 83.97 25.12 C 86.43 25.44 88.92 25.52 91.40 25.67 C 94.03 29.44 97.79 32.16 102.28 33.27 C 99.16 32.99 95.72 33.03 93.28 30.76 C 90.90 28.69 87.86 27.81 84.83 27.25 C 84.61 26.72 84.18 25.66 83.97 25.12 Z" />
</g>
<g id="#32323274">
<path fill="#323232" opacity="0.45" d=" M 36.92 32.05 C 41.07 30.21 45.87 30.51 50.32 30.67 L 51.27 30.85 C 47.35 31.63 43.36 31.89 39.46 32.70 C 36.72 33.15 36.40 36.43 35.69 38.58 C 35.33 41.55 35.07 44.54 34.70 47.51 C 28.94 47.20 23.24 48.05 17.56 48.78 C 13.84 53.20 9.53 57.04 5.38 61.04 C 4.47 63.31 3.94 65.71 3.36 68.08 C 2.24 68.32 1.12 68.56 -0.00 68.79 L 0.00 63.44 C 0.41 63.43 1.22 63.40 1.62 63.39 C 6.01 57.61 11.62 52.94 16.50 47.60 C 18.21 47.31 19.92 47.03 21.63 46.73 C 24.36 44.77 27.46 43.45 30.69 42.57 C 32.71 39.04 34.08 35.03 36.92 32.05 Z" />
</g>
<g id="#928e85d0">
<path fill="#928e85" opacity="0.82" d=" M 39.46 32.70 C 43.36 31.89 47.35 31.63 51.27 30.85 C 52.88 31.15 54.48 31.52 56.10 31.82 C 54.17 32.35 52.27 32.99 50.38 33.65 C 47.65 33.44 44.83 33.27 42.15 33.95 C 39.94 35.01 38.42 37.04 36.64 38.67 L 35.69 38.58 C 36.40 36.43 36.72 33.15 39.46 32.70 Z" />
</g>
<g id="#daba65fb">
<path fill="#daba65" opacity="1.00" d=" M 56.10 31.82 C 57.54 31.69 58.98 31.54 60.42 31.38 C 59.01 32.29 57.56 33.14 56.11 33.99 C 58.79 34.98 61.46 36.00 64.11 37.07 C 65.52 38.00 66.87 39.03 68.23 40.04 C 61.77 39.60 56.03 36.52 50.38 33.65 C 52.27 32.99 54.17 32.35 56.10 31.82 Z" />
</g>
<g id="#cbcbcbff">
<path fill="#cbcbcb" opacity="1.00" d=" M 36.64 38.67 C 38.42 37.04 39.94 35.01 42.15 33.95 C 44.83 33.27 47.65 33.44 50.38 33.65 C 56.03 36.52 61.77 39.60 68.23 40.04 C 69.02 40.62 69.82 41.21 70.62 41.79 C 72.67 45.27 75.41 48.42 76.74 52.28 C 77.76 56.26 74.65 59.61 72.78 62.77 C 82.00 65.30 91.46 67.00 100.35 70.65 C 106.29 74.11 111.67 78.81 115.21 84.75 C 116.30 86.83 117.48 89.69 115.85 91.80 C 114.02 94.13 110.72 93.95 108.06 94.17 C 80.04 94.19 52.00 94.21 23.98 94.34 C 20.75 94.23 17.30 94.18 14.42 92.52 C 11.30 90.65 9.16 87.54 7.63 84.32 C 7.35 79.53 7.11 74.69 7.84 69.93 C 8.52 65.39 11.60 61.80 14.32 58.31 C 16.42 55.80 18.39 53.08 21.13 51.22 C 26.07 48.72 32.38 51.07 37.02 47.81 C 37.71 44.79 37.20 41.66 36.64 38.67 M 41.21 39.19 C 37.75 41.89 38.96 46.61 38.28 50.37 C 34.63 52.64 29.93 51.41 26.06 53.15 C 20.90 55.50 15.84 58.92 13.17 64.08 C 10.98 66.60 9.08 69.55 8.91 72.98 C 8.52 77.87 8.60 83.84 12.79 87.20 C 15.67 89.98 19.91 88.84 23.48 88.70 C 23.41 87.45 23.34 86.20 23.27 84.95 C 27.11 84.02 31.07 83.82 35.01 83.95 C 40.86 84.10 46.62 83.00 52.41 82.38 C 66.10 81.52 79.83 81.10 93.44 79.35 C 97.82 78.90 102.08 80.24 106.36 80.90 C 104.18 75.74 98.91 73.16 94.22 70.75 C 86.95 67.25 78.73 66.93 71.10 64.69 C 71.01 62.56 71.90 60.58 72.60 58.63 C 75.98 56.83 75.21 52.40 73.02 49.96 C 68.22 44.23 61.07 41.17 54.14 38.84 C 50.02 37.63 44.79 35.78 41.21 39.19 Z" />
</g>
<g id="#dcdcdcff">
<path fill="#dcdcdc" opacity="1.00" d=" M 41.21 39.19 C 44.79 35.78 50.02 37.63 54.14 38.84 C 61.07 41.17 68.22 44.23 73.02 49.96 C 75.21 52.40 75.98 56.83 72.60 58.63 C 68.71 61.08 67.99 65.69 67.49 69.89 C 59.83 69.97 52.08 69.61 44.54 71.29 C 34.66 73.38 24.46 72.40 14.55 74.32 C 13.32 76.35 12.05 78.36 10.74 80.34 C 9.55 74.78 10.85 69.15 13.17 64.08 C 15.84 58.92 20.90 55.50 26.06 53.15 C 29.93 51.41 34.63 52.64 38.28 50.37 C 38.96 46.61 37.75 41.89 41.21 39.19 M 46.11 39.68 C 44.22 39.83 42.21 40.47 40.98 42.00 C 39.61 45.60 42.56 50.48 39.29 53.30 C 34.89 54.52 30.10 53.94 25.83 55.79 C 21.91 57.41 17.44 60.18 16.95 64.82 C 27.68 59.59 39.94 62.57 51.12 59.29 C 56.71 57.92 62.44 60.39 68.02 59.10 C 70.38 58.42 73.70 56.26 72.62 53.40 C 71.42 48.99 67.29 46.43 63.43 44.55 C 58.06 41.85 52.25 39.37 46.11 39.68 Z" />
</g>
<g id="#fbec78ff">
<path fill="#fbec78" opacity="1.00" d=" M 64.11 37.07 C 70.10 37.12 76.08 36.04 82.07 36.57 C 85.96 36.89 89.43 38.92 92.50 41.19 C 88.86 44.78 83.46 43.95 78.81 44.40 C 78.54 44.87 78.01 45.80 77.74 46.27 L 77.22 46.96 C 75.14 45.08 72.88 43.43 70.62 41.79 C 69.82 41.21 69.02 40.62 68.23 40.04 C 66.87 39.03 65.52 38.00 64.11 37.07 Z" />
</g>
<g id="#feb308ff">
<path fill="#feb308" opacity="1.00" d=" M 91.24 36.54 C 97.71 37.34 100.98 43.57 102.82 49.12 C 104.28 54.19 105.04 60.32 101.17 64.55 C 99.14 64.10 97.13 63.55 95.13 62.98 C 94.84 62.82 94.26 62.50 93.97 62.34 C 95.46 57.83 96.48 53.12 96.21 48.34 C 96.11 46.31 96.14 44.25 95.66 42.26 C 94.59 40.07 92.77 38.39 91.24 36.54 Z" />
</g>
<g id="#abababf6">
<path fill="#ababab" opacity="0.96" d=" M 34.70 47.51 C 35.07 44.54 35.33 41.55 35.69 38.58 L 36.64 38.67 C 37.20 41.66 37.71 44.79 37.02 47.81 C 32.38 51.07 26.07 48.72 21.13 51.22 C 18.39 53.08 16.42 55.80 14.32 58.31 C 11.60 61.80 8.52 65.39 7.84 69.93 C 7.11 74.69 7.35 79.53 7.63 84.32 C 3.27 77.20 6.35 68.79 5.38 61.04 C 9.53 57.04 13.84 53.20 17.56 48.78 C 23.24 48.05 28.94 47.20 34.70 47.51 Z" />
</g>
<g id="#e4e4e4ff">
<path fill="#e4e4e4" opacity="1.00" d=" M 46.11 39.68 C 52.25 39.37 58.06 41.85 63.43 44.55 C 67.29 46.43 71.42 48.99 72.62 53.40 C 73.70 56.26 70.38 58.42 68.02 59.10 C 62.44 60.39 56.71 57.92 51.12 59.29 C 39.94 62.57 27.68 59.59 16.95 64.82 C 17.44 60.18 21.91 57.41 25.83 55.79 C 30.10 53.94 34.89 54.52 39.29 53.30 C 42.56 50.48 39.61 45.60 40.98 42.00 C 42.21 40.47 44.22 39.83 46.11 39.68 Z" />
</g>
<g id="#fae02eff">
<path fill="#fae02e" opacity="1.00" d=" M 78.81 44.40 C 83.46 43.95 88.86 44.78 92.50 41.19 C 93.69 43.03 94.67 44.99 95.61 46.97 C 91.97 47.57 88.28 47.61 84.61 47.29 C 84.90 51.10 84.20 54.89 82.47 58.30 C 86.37 59.42 90.37 60.40 93.97 62.34 C 94.26 62.50 94.84 62.82 95.13 62.98 C 90.09 62.11 85.08 61.00 80.25 59.29 C 80.80 56.77 81.74 54.21 81.41 51.59 C 80.79 49.48 79.10 47.92 77.74 46.27 C 78.01 45.80 78.54 44.87 78.81 44.40 Z" />
</g>
<g id="#b3b4aeff">
<path fill="#b3b4ae" opacity="1.00" d=" M 76.74 52.28 C 75.41 48.42 72.67 45.27 70.62 41.79 C 72.88 43.43 75.14 45.08 77.22 46.96 C 78.34 48.79 79.69 50.72 79.74 52.94 C 79.21 56.11 77.62 58.96 76.80 62.05 C 81.50 64.56 87.14 63.37 92.21 64.56 C 94.84 66.70 97.50 68.81 100.35 70.65 C 91.46 67.00 82.00 65.30 72.78 62.77 C 74.65 59.61 77.76 56.26 76.74 52.28 Z" />
</g>
<g id="#cfbb5cff">
<path fill="#cfbb5c" opacity="1.00" d=" M 77.22 46.96 L 77.74 46.27 C 79.10 47.92 80.79 49.48 81.41 51.59 C 81.74 54.21 80.80 56.77 80.25 59.29 C 85.08 61.00 90.09 62.11 95.13 62.98 C 97.13 63.55 99.14 64.10 101.17 64.55 C 102.86 64.89 104.56 65.17 106.27 65.46 C 106.51 66.13 106.99 67.46 107.23 68.12 C 101.96 68.22 97.29 65.45 92.21 64.56 C 87.14 63.37 81.50 64.56 76.80 62.05 C 77.62 58.96 79.21 56.11 79.74 52.94 C 79.69 50.72 78.34 48.79 77.22 46.96 Z" />
</g>
<g id="#fcd50eff">
<path fill="#fcd50e" opacity="1.00" d=" M 84.61 47.29 C 88.28 47.61 91.97 47.57 95.61 46.97 C 95.76 47.32 96.06 48.00 96.21 48.34 C 96.48 53.12 95.46 57.83 93.97 62.34 C 90.37 60.40 86.37 59.42 82.47 58.30 C 84.20 54.89 84.90 51.10 84.61 47.29 Z" />
</g>
<g id="#5f493191">
<path fill="#5f4931" opacity="0.57" d=" M 111.15 47.49 C 112.55 47.94 113.97 48.37 115.30 49.02 C 115.57 50.68 115.63 52.37 115.74 54.05 C 114.30 54.86 112.86 55.69 111.43 56.51 C 111.41 56.98 111.37 57.91 111.35 58.37 C 112.66 58.88 113.98 59.38 115.30 59.90 C 113.07 59.72 110.84 59.52 108.61 59.32 C 110.06 56.52 111.90 53.91 113.11 50.99 C 112.64 49.73 111.88 48.61 111.15 47.49 Z" />
</g>
<g id="#d3d3d3ff">
<path fill="#d3d3d3" opacity="1.00" d=" M 67.49 69.89 C 67.99 65.69 68.71 61.08 72.60 58.63 C 71.90 60.58 71.01 62.56 71.10 64.69 C 78.73 66.93 86.95 67.25 94.22 70.75 C 98.91 73.16 104.18 75.74 106.36 80.90 C 102.08 80.24 97.82 78.90 93.44 79.35 C 79.83 81.10 66.10 81.52 52.41 82.38 C 46.62 83.00 40.86 84.10 35.01 83.95 C 31.07 83.82 27.11 84.02 23.27 84.95 C 23.34 86.20 23.41 87.45 23.48 88.70 C 19.91 88.84 15.67 89.98 12.79 87.20 C 8.60 83.84 8.52 77.87 8.91 72.98 C 9.08 69.55 10.98 66.60 13.17 64.08 C 10.85 69.15 9.55 74.78 10.74 80.34 C 12.05 78.36 13.32 76.35 14.55 74.32 C 24.46 72.40 34.66 73.38 44.54 71.29 C 52.08 69.61 59.83 69.97 67.49 69.89 Z" />
<path fill="#d3d3d3" opacity="1.00" d=" M 112.41 60.92 C 113.15 61.03 114.64 61.24 115.39 61.35 C 115.30 61.79 115.13 62.66 115.04 63.10 C 113.68 63.82 111.78 62.44 112.41 60.92 Z" />
</g>
<g id="#40322564">
<path fill="#403225" opacity="0.39" d=" M 115.30 59.90 C 115.80 60.10 116.81 60.50 117.31 60.70 C 117.68 64.47 114.10 65.53 111.24 66.57 C 111.35 67.73 111.47 68.89 111.60 70.05 C 110.11 68.42 108.89 66.57 107.64 64.77 C 110.10 64.20 112.59 63.72 115.04 63.10 C 115.13 62.66 115.30 61.79 115.39 61.35 L 115.30 59.90 Z" />
</g>
<g id="#999999f8">
<path fill="#999999" opacity="0.97" d=" M 3.36 68.08 C 3.94 65.71 4.47 63.31 5.38 61.04 C 6.35 68.79 3.27 77.20 7.63 84.32 C 9.16 87.54 11.30 90.65 14.42 92.52 C 17.30 94.18 20.75 94.23 23.98 94.34 C 52.00 94.21 80.04 94.19 108.06 94.17 C 110.72 93.95 114.02 94.13 115.85 91.80 C 117.48 89.69 116.30 86.83 115.21 84.75 C 111.67 78.81 106.29 74.11 100.35 70.65 C 97.50 68.81 94.84 66.70 92.21 64.56 C 97.29 65.45 101.96 68.22 107.23 68.12 L 107.47 68.69 C 111.09 72.31 116.39 73.71 119.59 77.84 C 118.41 79.26 117.22 80.68 116.05 82.11 C 117.26 84.64 118.77 87.13 119.19 89.94 C 118.71 92.22 116.54 93.68 115.12 95.42 C 82.74 95.44 50.35 95.48 17.97 95.44 C 14.18 95.11 9.45 95.56 6.87 92.17 C 4.87 89.78 2.55 87.70 0.00 85.92 L 0.00 68.79 C 1.12 68.56 2.24 68.32 3.36 68.08 Z" />
</g>
<g id="#54514f96">
<path fill="#54514f" opacity="0.59" d=" M 107.47 68.69 C 107.53 67.38 107.58 66.07 107.64 64.77 C 108.89 66.57 110.11 68.42 111.60 70.05 C 112.63 70.50 113.67 70.95 114.71 71.40 C 119.61 75.50 125.07 80.34 124.94 87.32 C 124.44 86.42 123.96 85.51 123.49 84.60 C 122.35 82.26 121.08 79.98 119.59 77.84 C 116.39 73.71 111.09 72.31 107.47 68.69 Z" />
</g>
<g id="#1a1a1a4b">
<path fill="#1a1a1a" opacity="0.29" d=" M 114.71 71.40 C 121.47 73.43 124.56 80.22 128.00 85.73 L 128.00 87.33 C 127.23 87.33 125.70 87.32 124.94 87.32 C 125.07 80.34 119.61 75.50 114.71 71.40 Z" />
</g>
<g id="#898989fe">
<path fill="#898989" opacity="1.00" d=" M 119.59 77.84 C 121.08 79.98 122.35 82.26 123.49 84.60 C 123.43 87.74 123.24 90.87 123.10 94.00 C 122.51 94.41 121.34 95.21 120.76 95.61 C 118.88 95.50 117.00 95.44 115.12 95.42 C 116.54 93.68 118.71 92.22 119.19 89.94 C 118.77 87.13 117.26 84.64 116.05 82.11 C 117.22 80.68 118.41 79.26 119.59 77.84 Z" />
</g>
<g id="#454545d9">
<path fill="#454545" opacity="0.85" d=" M 123.49 84.60 C 123.96 85.51 124.44 86.42 124.94 87.32 C 124.91 89.95 124.92 92.58 124.95 95.21 C 125.71 95.17 127.24 95.09 128.00 95.04 L 128.00 96.17 C 125.58 95.98 123.17 95.77 120.76 95.61 C 121.34 95.21 122.51 94.41 123.10 94.00 C 123.24 90.87 123.43 87.74 123.49 84.60 Z" />
</g>
<g id="#595959a7">
<path fill="#595959" opacity="0.65" d=" M 0.00 85.92 C 2.55 87.70 4.87 89.78 6.87 92.17 C 9.45 95.56 14.18 95.11 17.97 95.44 C 50.35 95.48 82.74 95.44 115.12 95.42 C 117.00 95.44 118.88 95.50 120.76 95.61 C 123.17 95.77 125.58 95.98 128.00 96.17 L 128.00 96.33 C 119.09 98.00 110.01 97.34 101.00 97.44 C 73.33 97.47 45.66 97.39 17.99 97.49 C 13.73 97.54 9.51 96.83 5.34 96.03 C 3.67 93.79 1.84 91.70 0.00 89.61 L 0.00 85.92 Z" />
</g>
<g id="#1a1a1aeb">
<path fill="#1a1a1a" opacity="0.92" d=" M 124.94 87.32 C 125.70 87.32 127.23 87.33 128.00 87.33 L 128.00 95.04 C 127.24 95.09 125.71 95.17 124.95 95.21 C 124.92 92.58 124.91 89.95 124.94 87.32 Z" />
</g>
<g id="#0909092f">
<path fill="#090909" opacity="0.18" d=" M 0.00 89.61 C 1.84 91.70 3.67 93.79 5.34 96.03 C 9.51 96.83 13.73 97.54 17.99 97.49 C 45.66 97.39 73.33 97.47 101.00 97.44 C 110.01 97.34 119.09 98.00 128.00 96.33 L 128.00 98.68 C 124.56 100.21 120.80 100.88 117.05 100.84 C 89.37 100.60 61.68 100.80 34.00 100.72 C 25.74 100.57 17.36 101.55 9.23 99.62 C 6.08 98.76 2.86 99.55 0.00 100.97 L 0.00 89.61 Z" />
</g>
</svg>
