<?xml version="1.0" encoding="UTF-8" ?>
<!DOCTYPE svg PUBLIC "-//W3C//DTD SVG 1.1//EN" "http://www.w3.org/Graphics/SVG/1.1/DTD/svg11.dtd">
<svg width="32pt" height="32pt" viewBox="0 0 32 32" version="1.1" xmlns="http://www.w3.org/2000/svg">
<g id="#575975ff">
<path fill="#575975" opacity="1.00" d=" M 13.70 2.67 C 15.15 0.81 17.59 1.31 19.61 1.58 C 18.32 2.96 14.02 4.74 16.91 6.56 C 18.99 6.75 21.08 6.58 23.16 6.48 C 22.88 5.35 22.60 4.22 22.33 3.09 C 24.43 5.26 23.18 8.13 23.62 10.76 C 20.50 10.44 17.30 10.27 14.33 11.49 C 14.01 13.35 13.69 15.21 13.36 17.07 C 17.12 16.65 20.90 16.34 24.58 15.43 C 23.70 16.03 22.81 16.61 21.92 17.19 C 23.63 19.28 25.25 21.45 26.69 23.73 C 26.32 23.62 25.56 23.41 25.19 23.31 C 23.68 20.91 20.98 23.55 22.95 25.35 L 23.34 25.92 C 20.74 27.91 18.34 25.17 16.92 23.18 C 14.60 26.50 11.53 29.41 7.65 30.78 C 3.81 31.00 3.45 26.48 2.09 23.91 C 5.22 22.63 9.17 20.78 9.47 16.93 C 9.72 14.07 10.92 11.47 12.81 9.33 C 12.18 7.12 11.77 4.39 13.70 2.67 M 6.00 25.10 C 5.88 26.92 6.55 28.46 8.05 29.53 C 8.26 28.24 8.44 26.95 8.63 25.66 C 7.97 25.52 6.65 25.24 6.00 25.10 Z" />
</g>
<g id="#77778aff">
<path fill="#77778a" opacity="1.00" d=" M 16.91 6.56 C 14.02 4.74 18.32 2.96 19.61 1.58 C 20.29 1.95 21.65 2.71 22.33 3.09 C 22.60 4.22 22.88 5.35 23.16 6.48 C 21.08 6.58 18.99 6.75 16.91 6.56 Z" />
<path fill="#77778a" opacity="1.00" d=" M 14.33 11.49 C 17.30 10.27 20.50 10.44 23.62 10.76 L 24.52 10.81 C 24.88 11.87 25.60 13.99 25.96 15.05 C 25.62 15.15 24.93 15.33 24.58 15.43 C 20.90 16.34 17.12 16.65 13.36 17.07 C 13.69 15.21 14.01 13.35 14.33 11.49 Z" />
<path fill="#77778a" opacity="1.00" d=" M 22.95 25.35 C 20.98 23.55 23.68 20.91 25.19 23.31 C 24.63 23.82 23.51 24.84 22.95 25.35 Z" />
<path fill="#77778a" opacity="1.00" d=" M 6.00 25.10 C 6.65 25.24 7.97 25.52 8.63 25.66 C 8.44 26.95 8.26 28.24 8.05 29.53 C 6.55 28.46 5.88 26.92 6.00 25.10 Z" />
</g>
</svg>
