<?xml version="1.0" encoding="UTF-8" ?>
<!DOCTYPE svg PUBLIC "-//W3C//DTD SVG 1.1//EN" "http://www.w3.org/Graphics/SVG/1.1/DTD/svg11.dtd">
<svg width="32pt" height="32pt" viewBox="0 0 32 32" version="1.1" xmlns="http://www.w3.org/2000/svg">
<g id="#72899fdc">
<path fill="#72899f" opacity="0.86" d=" M 0.61 11.59 C 1.26 10.09 2.36 8.68 4.05 8.37 C 6.21 9.57 7.94 11.39 9.98 12.78 C 12.00 11.23 13.98 9.64 16.01 8.11 C 18.13 9.58 20.11 11.23 22.20 12.74 C 24.41 11.46 26.41 9.87 28.17 8.02 C 29.46 8.96 30.79 9.93 31.42 11.48 C 30.26 11.02 29.12 10.53 27.99 10.01 C 26.11 11.54 24.47 14.04 21.81 14.05 C 19.72 12.90 17.96 11.25 16.04 9.84 C 14.06 11.28 12.35 13.36 9.94 14.05 C 7.57 13.49 5.95 11.43 4.09 9.99 C 2.95 10.56 1.79 11.09 0.61 11.59 Z" />
<path fill="#72899f" opacity="0.86" d=" M 0.49 19.21 C 1.30 17.81 2.60 16.88 3.97 16.08 C 5.76 17.22 7.30 18.69 9.03 19.92 C 12.23 20.83 13.49 16.07 16.58 16.52 C 18.40 17.25 19.63 18.92 21.31 19.91 C 24.39 20.83 25.62 16.69 28.43 16.44 C 30.00 16.56 30.63 18.14 31.47 19.22 C 30.33 18.80 29.18 18.41 28.02 18.06 C 26.04 19.43 24.28 21.11 22.12 22.24 C 20.02 20.94 18.37 18.79 16.00 18.02 C 13.75 19.05 12.02 20.93 9.94 22.25 C 8.10 20.99 6.43 19.50 4.58 18.26 C 3.14 17.97 1.83 18.88 0.49 19.21 Z" />
<path fill="#72899f" opacity="0.86" d=" M 0.52 27.25 C 1.28 25.79 2.60 24.86 3.98 24.06 C 5.76 25.24 7.32 26.72 9.08 27.92 C 12.01 28.35 13.62 25.15 16.05 24.06 C 17.88 25.15 19.47 26.58 21.19 27.82 C 24.18 28.75 25.98 25.30 28.20 23.96 C 29.48 24.83 30.79 25.75 31.48 27.20 C 30.20 26.81 28.95 26.37 27.69 25.94 C 26.05 27.45 24.52 29.75 22.02 29.66 C 19.59 29.29 18.46 26.35 16.07 26.05 C 13.68 26.54 12.43 29.29 9.96 29.75 C 7.83 29.27 6.48 27.40 4.71 26.26 C 3.24 25.77 1.90 26.97 0.52 27.25 Z" />
</g>
</svg>
