<?xml version="1.0" encoding="UTF-8" ?>
<!DOCTYPE svg PUBLIC "-//W3C//DTD SVG 1.1//EN" "http://www.w3.org/Graphics/SVG/1.1/DTD/svg11.dtd">
<svg width="32pt" height="32pt" viewBox="0 0 32 32" version="1.1" xmlns="http://www.w3.org/2000/svg">
<g id="#eb3430ff">
<path fill="#eb3430" opacity="1.00" d=" M 16.53 0.00 L 16.90 0.00 C 19.56 1.41 22.39 2.47 24.98 4.01 C 25.67 5.13 26.99 6.31 25.86 7.62 C 24.47 7.70 23.08 7.74 21.69 7.71 C 20.10 10.65 18.88 13.77 17.86 16.96 C 19.04 16.74 20.23 16.53 21.41 16.32 L 22.08 17.66 C 22.09 18.46 22.11 20.06 22.12 20.85 C 18.96 21.43 15.68 22.19 12.50 21.26 C 10.25 19.94 8.45 18.04 6.84 16.01 C 7.83 13.66 10.10 12.60 12.47 12.13 C 13.53 9.18 16.40 6.07 14.59 2.88 C 15.23 1.92 15.88 0.96 16.53 0.00 Z" />
</g>
<g id="#68333eca">
<path fill="#68333e" opacity="0.79" d=" M 24.98 4.01 C 26.25 4.95 27.18 6.24 27.39 7.83 C 23.45 8.74 22.86 13.18 21.41 16.32 C 20.23 16.53 19.04 16.74 17.86 16.96 C 18.88 13.77 20.10 10.65 21.69 7.71 C 23.08 7.74 24.47 7.70 25.86 7.62 C 26.99 6.31 25.67 5.13 24.98 4.01 Z" />
<path fill="#68333e" opacity="0.79" d=" M 22.08 17.66 C 22.42 18.25 23.08 19.44 23.42 20.03 C 23.10 20.61 22.46 21.75 22.14 22.33 C 19.66 23.46 17.02 23.04 14.48 22.34 C 12.99 25.48 11.44 28.64 9.21 31.35 C 9.92 27.87 11.22 24.56 12.50 21.26 C 15.68 22.19 18.96 21.43 22.12 20.85 C 22.11 20.06 22.09 18.46 22.08 17.66 Z" />
</g>
</svg>
