<?xml version="1.0" encoding="UTF-8" ?>
<!DOCTYPE svg PUBLIC "-//W3C//DTD SVG 1.1//EN" "http://www.w3.org/Graphics/SVG/1.1/DTD/svg11.dtd">
<svg width="128pt" height="128pt" viewBox="0 0 128 128" version="1.1" xmlns="http://www.w3.org/2000/svg">
<g id="#44444457">
<path fill="#444444" opacity="0.34" d=" M 55.56 20.54 C 60.09 18.33 65.17 19.41 70.00 19.24 C 73.29 19.30 76.65 18.80 79.89 19.58 C 81.74 20.72 81.26 23.12 81.43 24.95 C 81.38 30.98 81.32 37.01 81.44 43.05 C 81.37 44.97 81.72 47.45 79.62 48.45 C 79.42 39.16 79.65 29.87 79.57 20.58 C 78.33 20.55 77.10 20.53 75.86 20.53 C 75.41 20.54 74.52 20.56 74.08 20.56 C 70.76 20.59 67.45 20.57 64.13 20.55 C 62.71 20.55 61.28 20.54 59.86 20.54 C 58.43 20.54 56.99 20.54 55.56 20.54 Z" />
</g>
<g id="#96959bfc">
<path fill="#96959b" opacity="1.00" d=" M 55.56 20.54 C 56.99 20.54 58.43 20.54 59.86 20.54 C 59.56 28.25 59.29 36.00 60.16 43.69 C 61.43 43.73 62.70 43.78 63.96 43.81 C 67.69 43.97 71.68 43.63 75.04 45.56 C 69.04 43.62 62.14 43.59 56.74 47.21 C 56.36 46.45 55.59 44.93 55.21 44.17 C 54.45 45.54 53.64 46.88 52.82 48.21 L 52.34 48.96 C 52.10 47.60 51.79 46.26 51.50 44.91 C 53.15 44.01 54.79 43.10 56.42 42.19 C 56.05 34.98 57.07 27.66 55.56 20.54 Z" />
</g>
<g id="#dadcdbff">
<path fill="#dadcdb" opacity="1.00" d=" M 59.86 20.54 C 61.28 20.54 62.71 20.55 64.13 20.55 C 64.30 28.06 64.54 35.59 64.15 43.09 L 63.96 43.81 C 62.70 43.78 61.43 43.73 60.16 43.69 C 59.29 36.00 59.56 28.25 59.86 20.54 Z" />
</g>
<g id="#848485ff">
<path fill="#848485" opacity="1.00" d=" M 64.13 20.55 C 67.45 20.57 70.76 20.59 74.08 20.56 C 72.43 21.11 70.81 21.73 69.19 22.33 C 68.75 29.14 68.87 35.97 68.84 42.79 C 67.27 42.89 65.71 42.97 64.15 43.09 C 64.54 35.59 64.30 28.06 64.13 20.55 Z" />
</g>
<g id="#969699ff">
<path fill="#969699" opacity="1.00" d=" M 74.08 20.56 C 74.52 20.56 75.41 20.54 75.86 20.53 C 75.49 29.11 75.17 37.74 76.23 46.29 C 75.94 46.11 75.34 45.74 75.04 45.56 C 71.68 43.63 67.69 43.97 63.96 43.81 L 64.15 43.09 C 65.71 42.97 67.27 42.89 68.84 42.79 C 68.87 35.97 68.75 29.14 69.19 22.33 C 70.81 21.73 72.43 21.11 74.08 20.56 Z" />
</g>
<g id="#dadad9f7">
<path fill="#dadad9" opacity="0.97" d=" M 75.86 20.53 C 77.10 20.53 78.33 20.55 79.57 20.58 C 79.65 29.87 79.42 39.16 79.62 48.45 L 79.64 49.30 C 78.51 48.28 77.39 47.27 76.23 46.29 C 75.17 37.74 75.49 29.11 75.86 20.53 Z" />
</g>
<g id="#6f360d7f">
<path fill="#6f360d" opacity="0.50" d=" M 51.15 67.15 C 51.62 59.74 50.98 52.31 51.50 44.91 C 51.79 46.26 52.10 47.60 52.34 48.96 C 53.14 55.46 52.76 62.02 52.53 68.54 C 45.70 68.85 38.86 68.72 32.03 68.81 L 32.58 67.83 L 33.36 67.46 C 39.28 66.97 45.23 67.60 51.15 67.15 Z" />
</g>
<g id="#e8d0bcfd">
<path fill="#e8d0bc" opacity="1.00" d=" M 52.82 48.21 C 53.64 46.88 54.45 45.54 55.21 44.17 C 55.59 44.93 56.36 46.45 56.74 47.21 C 55.43 47.54 54.12 47.86 52.82 48.21 Z" />
</g>
<g id="#e27b21ff">
<path fill="#e27b21" opacity="1.00" d=" M 56.74 47.21 C 62.14 43.59 69.04 43.62 75.04 45.56 C 75.34 45.74 75.94 46.11 76.23 46.29 C 77.39 47.27 78.51 48.28 79.64 49.30 C 79.68 54.53 79.54 59.76 79.65 64.99 C 79.56 66.79 81.22 68.41 83.01 68.34 C 87.24 68.35 91.60 68.82 95.72 67.57 L 95.28 68.77 C 94.85 69.97 94.43 71.17 94.02 72.37 C 88.33 72.57 82.17 73.80 76.82 71.26 C 75.61 66.15 77.01 60.73 75.41 55.70 C 74.19 54.06 71.88 55.13 70.16 55.00 C 71.44 52.95 72.62 50.83 73.80 48.71 C 68.17 47.43 62.28 49.02 56.74 47.21 Z" />
</g>
<g id="#f2a342ff">
<path fill="#f2a342" opacity="1.00" d=" M 52.82 48.21 C 54.12 47.86 55.43 47.54 56.74 47.21 C 62.28 49.02 68.17 47.43 73.80 48.71 C 72.62 50.83 71.44 52.95 70.16 55.00 C 71.88 55.13 74.19 54.06 75.41 55.70 C 77.01 60.73 75.61 66.15 76.82 71.26 C 82.17 73.80 88.33 72.57 94.02 72.37 C 94.43 71.17 94.85 69.97 95.28 68.77 L 95.76 69.27 C 96.89 70.53 98.01 71.80 99.15 73.05 C 99.49 75.78 99.70 78.52 100.04 81.25 C 99.28 78.79 98.40 76.38 97.54 73.96 C 95.62 81.53 94.53 89.47 96.44 97.17 C 96.17 97.73 95.64 98.83 95.38 99.39 C 95.10 97.97 94.82 96.56 94.55 95.15 C 76.99 95.35 59.30 97.05 41.84 94.47 C 39.10 94.19 36.35 94.09 33.60 93.98 C 31.24 87.76 32.26 80.96 30.41 74.63 C 29.77 76.29 29.15 77.96 28.53 79.62 L 28.00 80.24 C 28.28 77.92 28.61 75.60 28.78 73.27 C 29.97 71.87 31.11 70.41 32.03 68.81 C 33.44 70.55 34.96 72.74 37.51 72.48 C 43.28 72.43 49.17 73.06 54.85 71.91 C 57.29 64.71 55.90 56.95 56.53 49.51 C 55.13 49.33 53.73 49.15 52.34 48.96 L 52.82 48.21 M 58.08 53.20 C 58.59 59.37 57.90 65.59 56.21 71.53 C 55.84 73.09 54.54 74.68 52.79 74.54 C 49.33 74.64 45.76 72.95 42.37 74.13 C 39.50 76.94 37.03 80.37 32.89 81.40 C 32.78 83.83 32.29 86.36 33.08 88.73 C 34.58 91.18 37.73 89.86 40.03 89.82 C 40.40 87.81 40.66 85.73 41.52 83.86 C 53.68 84.32 65.88 84.49 78.06 84.33 C 81.87 84.39 84.68 81.52 88.02 80.18 C 90.56 80.98 92.37 83.14 94.46 84.68 C 95.30 81.49 95.44 78.18 94.99 74.91 C 89.00 74.73 83.04 74.25 77.10 73.47 C 73.17 72.93 69.65 75.09 66.21 76.63 C 65.64 76.37 64.51 75.86 63.95 75.60 C 64.86 71.69 66.31 67.94 67.26 64.06 C 68.07 60.64 67.31 57.09 67.93 53.66 C 68.77 52.13 69.98 50.85 71.05 49.47 C 66.29 48.02 62.05 51.05 58.08 53.20 Z" />
</g>
<g id="#e57c24ff">
<path fill="#e57c24" opacity="1.00" d=" M 52.34 48.96 C 53.73 49.15 55.13 49.33 56.53 49.51 C 55.90 56.95 57.29 64.71 54.85 71.91 C 49.17 73.06 43.28 72.43 37.51 72.48 C 34.96 72.74 33.44 70.55 32.03 68.81 C 38.86 68.72 45.70 68.85 52.53 68.54 C 52.76 62.02 53.14 55.46 52.34 48.96 Z" />
</g>
<g id="#efc769ff">
<path fill="#efc769" opacity="1.00" d=" M 58.08 53.20 C 62.05 51.05 66.29 48.02 71.05 49.47 C 69.98 50.85 68.77 52.13 67.93 53.66 C 67.31 57.09 68.07 60.64 67.26 64.06 C 66.31 67.94 64.86 71.69 63.95 75.60 C 64.51 75.86 65.64 76.37 66.21 76.63 C 69.65 75.09 73.17 72.93 77.10 73.47 C 83.04 74.25 89.00 74.73 94.99 74.91 C 95.44 78.18 95.30 81.49 94.46 84.68 C 92.37 83.14 90.56 80.98 88.02 80.18 C 84.68 81.52 81.87 84.39 78.06 84.33 C 65.88 84.49 53.68 84.32 41.52 83.86 C 40.66 85.73 40.40 87.81 40.03 89.82 C 37.73 89.86 34.58 91.18 33.08 88.73 C 32.29 86.36 32.78 83.83 32.89 81.40 C 37.03 80.37 39.50 76.94 42.37 74.13 C 45.76 72.95 49.33 74.64 52.79 74.54 C 54.54 74.68 55.84 73.09 56.21 71.53 C 57.90 65.59 58.59 59.37 58.08 53.20 M 60.77 53.59 C 58.96 60.54 61.07 69.14 55.85 74.83 C 51.25 77.27 45.50 75.00 40.62 77.01 C 42.16 79.41 43.70 82.77 47.07 82.68 C 54.70 83.03 62.36 82.59 70.00 82.87 C 73.79 82.84 77.66 83.14 81.38 82.26 C 83.76 81.67 84.22 78.84 85.33 77.01 C 80.27 75.32 74.84 75.50 69.75 76.97 C 67.29 77.63 63.52 78.86 62.55 75.45 C 62.46 68.99 67.11 62.97 65.56 56.44 C 64.69 54.86 62.76 52.34 60.77 53.59 Z" />
</g>
<g id="#f4df87ff">
<path fill="#f4df87" opacity="1.00" d=" M 60.77 53.59 C 62.76 52.34 64.69 54.86 65.56 56.44 C 67.11 62.97 62.46 68.99 62.55 75.45 C 63.52 78.86 67.29 77.63 69.75 76.97 C 74.84 75.50 80.27 75.32 85.33 77.01 C 84.22 78.84 83.76 81.67 81.38 82.26 C 77.66 83.14 73.79 82.84 70.00 82.87 C 62.36 82.59 54.70 83.03 47.07 82.68 C 43.70 82.77 42.16 79.41 40.62 77.01 C 45.50 75.00 51.25 77.27 55.85 74.83 C 61.07 69.14 58.96 60.54 60.77 53.59 Z" />
</g>
<g id="#4f4f4f78">
<path fill="#4f4f4f" opacity="0.47" d=" M 24.86 71.21 C 26.58 70.17 27.73 68.45 29.31 67.24 C 30.67 67.21 32.02 67.28 33.36 67.46 L 32.58 67.83 C 31.05 68.58 29.60 69.48 28.28 70.55 C 26.98 71.51 25.71 72.81 23.96 72.70 C 18.92 72.95 13.88 72.63 8.84 72.81 C 8.80 73.61 8.71 75.20 8.67 75.99 C 8.65 76.82 8.61 78.47 8.60 79.30 C 8.60 79.77 8.61 80.72 8.61 81.20 C 8.70 86.10 8.75 91.00 8.68 95.90 C 8.65 96.75 8.60 98.44 8.57 99.28 C 8.27 99.62 7.67 100.29 7.37 100.63 C 7.42 90.92 6.87 81.19 7.49 71.50 C 13.27 71.04 19.08 71.61 24.86 71.21 Z" />
</g>
<g id="#4e4e4e78">
<path fill="#4e4e4e" opacity="0.47" d=" M 94.97 67.10 C 98.66 66.13 100.61 69.28 103.14 71.20 C 108.92 71.61 114.73 71.03 120.51 71.50 C 121.18 81.16 120.51 90.86 120.67 100.54 C 120.35 100.22 119.71 99.58 119.40 99.26 C 119.37 98.43 119.33 96.77 119.31 95.94 C 119.25 91.01 119.31 86.08 119.40 81.16 C 119.40 80.69 119.40 79.76 119.41 79.29 C 119.39 78.47 119.35 76.81 119.33 75.99 C 119.29 75.19 119.20 73.59 119.16 72.80 C 114.42 72.66 109.67 72.88 104.94 72.74 C 101.11 72.83 98.89 69.14 95.72 67.57 L 94.97 67.10 Z" />
</g>
<g id="#f6ece6f8">
<path fill="#f6ece6" opacity="0.97" d=" M 28.28 70.55 C 29.60 69.48 31.05 68.58 32.58 67.83 L 32.03 68.81 C 31.11 70.41 29.97 71.87 28.78 73.27 C 28.65 72.59 28.40 71.23 28.28 70.55 Z" />
</g>
<g id="#a5a5a5ff">
<path fill="#a5a5a5" opacity="1.00" d=" M 95.72 67.57 C 98.89 69.14 101.11 72.83 104.94 72.74 C 109.67 72.88 114.42 72.66 119.16 72.80 C 119.20 73.59 119.29 75.19 119.33 75.99 C 113.11 75.61 106.86 75.68 100.65 76.34 C 100.93 78.04 101.22 79.74 101.51 81.44 C 107.44 80.49 113.45 80.10 119.41 79.29 C 119.40 79.76 119.40 80.69 119.40 81.16 C 112.94 80.93 106.35 81.43 100.41 84.15 C 100.31 83.42 100.13 81.97 100.04 81.25 C 99.70 78.52 99.49 75.78 99.15 73.05 C 99.11 71.93 98.92 70.84 98.59 69.78 C 97.88 69.65 96.47 69.40 95.76 69.27 L 95.28 68.77 L 95.72 67.57 Z" />
<path fill="#a5a5a5" opacity="1.00" d=" M 23.96 72.70 C 25.71 72.81 26.98 71.51 28.28 70.55 C 28.40 71.23 28.65 72.59 28.78 73.27 C 28.61 75.60 28.28 77.92 28.00 80.24 C 21.69 82.05 15.07 81.43 8.61 81.20 C 8.61 80.72 8.60 79.77 8.60 79.30 C 14.82 80.51 21.24 80.79 27.47 79.42 C 27.36 78.58 27.15 76.90 27.04 76.05 C 20.92 75.71 14.79 75.65 8.67 75.99 C 8.71 75.20 8.80 73.61 8.84 72.81 C 13.88 72.63 18.92 72.95 23.96 72.70 Z" />
</g>
<g id="#f3dabefd">
<path fill="#f3dabe" opacity="1.00" d=" M 95.76 69.27 C 96.47 69.40 97.88 69.65 98.59 69.78 C 98.92 70.84 99.11 71.93 99.15 73.05 C 98.01 71.80 96.89 70.53 95.76 69.27 Z" />
</g>
<g id="#dd7b2bff">
<path fill="#dd7b2b" opacity="1.00" d=" M 97.54 73.96 C 98.40 76.38 99.28 78.79 100.04 81.25 C 100.13 81.97 100.31 83.42 100.41 84.15 C 100.15 88.18 98.85 92.04 97.13 95.67 C 96.96 96.04 96.61 96.80 96.44 97.17 C 94.53 89.47 95.62 81.53 97.54 73.96 Z" />
</g>
<g id="#de7729ff">
<path fill="#de7729" opacity="1.00" d=" M 30.41 74.63 C 32.26 80.96 31.24 87.76 33.60 93.98 C 33.33 94.61 32.78 95.87 32.51 96.51 L 32.09 95.73 C 29.27 90.87 26.53 85.35 28.53 79.62 C 29.15 77.96 29.77 76.29 30.41 74.63 Z" />
</g>
<g id="#e1e1e1ff">
<path fill="#e1e1e1" opacity="1.00" d=" M 8.67 75.99 C 14.79 75.65 20.92 75.71 27.04 76.05 C 27.15 76.90 27.36 78.58 27.47 79.42 C 21.24 80.79 14.82 80.51 8.60 79.30 C 8.61 78.47 8.65 76.82 8.67 75.99 Z" />
</g>
<g id="#e0e1e0ff">
<path fill="#e0e1e0" opacity="1.00" d=" M 100.65 76.34 C 106.86 75.68 113.11 75.61 119.33 75.99 C 119.35 76.81 119.39 78.47 119.41 79.29 C 113.45 80.10 107.44 80.49 101.51 81.44 C 101.22 79.74 100.93 78.04 100.65 76.34 Z" />
</g>
<g id="#8e8e8fff">
<path fill="#8e8e8f" opacity="1.00" d=" M 8.61 81.20 C 15.07 81.43 21.69 82.05 28.00 80.24 L 28.53 79.62 C 26.53 85.35 29.27 90.87 32.09 95.73 L 31.14 95.68 C 23.65 95.71 16.16 95.70 8.68 95.90 C 8.75 91.00 8.70 86.10 8.61 81.20 Z" />
</g>
<g id="#8e8d8eff">
<path fill="#8e8d8e" opacity="1.00" d=" M 100.41 84.15 C 106.35 81.43 112.94 80.93 119.40 81.16 C 119.31 86.08 119.25 91.01 119.31 95.94 C 111.91 95.76 104.52 95.75 97.13 95.67 C 98.85 92.04 100.15 88.18 100.41 84.15 Z" />
</g>
<g id="#e5781aff">
<path fill="#e5781a" opacity="1.00" d=" M 33.60 93.98 C 36.35 94.09 39.10 94.19 41.84 94.47 C 59.30 97.05 76.99 95.35 94.55 95.15 C 94.82 96.56 95.10 97.97 95.38 99.39 C 82.58 99.23 69.79 99.38 57.00 99.32 C 49.23 99.30 41.44 99.63 33.69 98.82 C 33.40 98.24 32.80 97.09 32.51 96.51 C 32.78 95.87 33.33 94.61 33.60 93.98 Z" />
</g>
<g id="#d4d3d3f9">
<path fill="#d4d3d3" opacity="0.98" d=" M 8.68 95.90 C 16.16 95.70 23.65 95.71 31.14 95.68 C 31.06 96.60 30.91 98.43 30.84 99.34 C 23.41 99.33 15.99 99.38 8.57 99.28 C 8.60 98.44 8.65 96.75 8.68 95.90 Z" />
</g>
<g id="#e1a77efe">
<path fill="#e1a77e" opacity="1.00" d=" M 31.14 95.68 L 32.09 95.73 L 32.51 96.51 C 32.80 97.09 33.40 98.24 33.69 98.82 C 41.44 99.63 49.23 99.30 57.00 99.32 C 69.79 99.38 82.58 99.23 95.38 99.39 C 92.47 100.82 89.18 100.86 86.02 100.80 C 72.68 100.51 59.34 100.86 46.00 100.58 C 41.51 100.47 36.99 100.70 32.58 101.60 C 31.99 100.85 31.42 100.09 30.84 99.34 C 30.91 98.43 31.06 96.60 31.14 95.68 Z" />
</g>
<g id="#d1d1d0fa">
<path fill="#d1d1d0" opacity="0.98" d=" M 97.13 95.67 C 104.52 95.75 111.91 95.76 119.31 95.94 C 119.33 96.77 119.37 98.43 119.40 99.26 C 114.57 99.31 109.74 99.20 104.92 99.32 C 100.68 98.94 98.40 104.07 94.10 103.45 C 74.03 103.14 53.94 103.66 33.88 103.21 C 33.55 102.81 32.90 102.00 32.58 101.60 C 36.99 100.70 41.51 100.47 46.00 100.58 C 59.34 100.86 72.68 100.51 86.02 100.80 C 89.18 100.86 92.47 100.82 95.38 99.39 C 95.64 98.83 96.17 97.73 96.44 97.17 C 96.61 96.80 96.96 96.04 97.13 95.67 Z" />
</g>
<g id="#6f71737d">
<path fill="#6f7173" opacity="0.49" d=" M 8.57 99.28 C 15.99 99.38 23.41 99.33 30.84 99.34 C 31.42 100.09 31.99 100.85 32.58 101.60 C 32.90 102.00 33.55 102.81 33.88 103.21 C 53.94 103.66 74.03 103.14 94.10 103.45 C 98.40 104.07 100.68 98.94 104.92 99.32 C 109.74 99.20 114.57 99.31 119.40 99.26 C 119.71 99.58 120.35 100.22 120.67 100.54 C 114.42 100.80 108.17 100.69 101.93 100.61 C 101.10 101.96 100.28 103.31 99.46 104.67 C 78.62 104.83 57.77 104.57 36.92 104.79 C 35.50 104.75 34.05 104.82 32.68 104.39 C 31.62 103.26 30.77 101.95 29.86 100.71 C 22.36 100.62 14.87 100.81 7.37 100.63 C 7.67 100.29 8.27 99.62 8.57 99.28 Z" />
</g>
</svg>
