<?xml version="1.0" encoding="UTF-8" ?>
<!DOCTYPE svg PUBLIC "-//W3C//DTD SVG 1.1//EN" "http://www.w3.org/Graphics/SVG/1.1/DTD/svg11.dtd">
<svg width="32pt" height="32pt" viewBox="0 0 32 32" version="1.1" xmlns="http://www.w3.org/2000/svg">
<g id="#b0bdd1ff">
<path fill="#b0bdd1" opacity="1.00" d=" M 6.00 2.00 C 9.00 2.00 12.00 2.00 15.00 2.00 L 14.99 3.00 C 12.33 3.00 9.66 3.00 7.00 3.00 C 6.99 7.33 7.01 11.67 7.00 16.00 L 7.00 17.00 L 6.00 17.00 C 6.00 12.00 6.00 7.00 6.00 2.00 Z" />
</g>
<g id="#a1afc4ff">
<path fill="#a1afc4" opacity="1.00" d=" M 15.00 2.00 C 16.53 2.01 19.57 2.05 21.10 2.06 L 21.19 3.23 L 21.24 4.05 C 20.95 5.35 20.94 6.66 21.20 7.98 L 21.00 8.72 L 20.19 9.17 C 20.14 8.38 20.05 6.78 20.01 5.98 C 20.00 5.24 19.99 3.75 19.98 3.00 C 18.32 3.00 16.66 3.00 14.99 3.00 L 15.00 2.00 Z" />
</g>
<g id="#fbfcfeff">
<path fill="#fbfcfe" opacity="1.00" d=" M 7.00 3.00 C 9.66 3.00 12.33 3.00 14.99 3.00 C 16.66 3.00 18.32 3.00 19.98 3.00 C 19.99 3.75 20.00 5.24 20.01 5.98 L 19.01 6.01 C 19.00 6.50 18.99 7.48 18.99 7.96 C 18.29 8.00 16.89 8.07 16.19 8.10 C 15.18 11.26 12.38 13.06 10.13 15.25 L 9.99 16.00 C 9.24 16.00 7.75 16.00 7.00 16.00 C 7.01 11.67 6.99 7.33 7.00 3.00 Z" />
</g>
<g id="#73869cff">
<path fill="#73869c" opacity="1.00" d=" M 21.19 3.23 C 21.38 3.44 21.76 3.86 21.95 4.06 L 21.24 4.05 L 21.19 3.23 Z" />
</g>
<g id="#d8e4f6ff">
<path fill="#d8e4f6" opacity="1.00" d=" M 21.24 4.05 L 21.95 4.06 C 22.22 4.32 22.75 4.84 23.02 5.10 L 23.18 5.93 C 22.87 6.46 22.24 7.52 21.92 8.05 L 21.20 7.98 C 20.94 6.66 20.95 5.35 21.24 4.05 Z" />
</g>
<g id="#5a6d84ff">
<path fill="#5a6d84" opacity="1.00" d=" M 21.95 4.06 C 22.22 4.32 22.75 4.84 23.02 5.10 C 22.75 4.84 22.22 4.32 21.95 4.06 Z" />
</g>
<g id="#375369ff">
<path fill="#375369" opacity="1.00" d=" M 23.02 5.10 C 23.25 5.32 23.71 5.78 23.94 6.01 L 23.18 5.93 L 23.02 5.10 Z" />
</g>
<g id="#f3f6fbff">
<path fill="#f3f6fb" opacity="1.00" d=" M 19.01 6.01 L 20.01 5.98 C 20.05 6.78 20.14 8.38 20.19 9.17 L 20.22 9.82 C 21.50 9.99 22.79 10.08 24.09 10.09 L 23.94 10.84 C 21.19 13.16 17.97 14.99 15.78 17.90 C 15.35 17.94 14.49 18.01 14.06 18.05 C 14.01 18.48 13.92 19.32 13.87 19.74 C 13.17 20.46 12.46 21.17 11.74 21.87 C 11.32 21.91 10.47 21.99 10.05 22.03 L 10.00 23.00 C 9.25 23.00 7.75 23.00 7.00 23.00 C 6.98 21.00 7.01 19.00 7.00 17.00 L 7.00 16.00 C 7.75 16.00 9.24 16.00 9.99 16.00 L 10.13 15.25 C 12.38 13.06 15.18 11.26 16.19 8.10 C 16.89 8.07 18.29 8.00 18.99 7.96 C 18.99 7.48 19.00 6.50 19.01 6.01 Z" />
</g>
<g id="#b6c9e7ff">
<path fill="#b6c9e7" opacity="1.00" d=" M 23.18 5.93 L 23.94 6.01 C 24.15 6.24 24.56 6.71 24.77 6.95 L 24.78 7.69 C 24.06 7.78 22.64 7.96 21.92 8.05 C 22.24 7.52 22.87 6.46 23.18 5.93 Z" />
</g>
<g id="#324d64ff">
<path fill="#324d64" opacity="1.00" d=" M 23.94 6.01 C 24.15 6.24 24.56 6.71 24.77 6.95 C 24.56 6.71 24.15 6.24 23.94 6.01 Z" />
</g>
<g id="#314a63ff">
<path fill="#314a63" opacity="1.00" d=" M 24.77 6.95 C 25.08 7.21 25.70 7.73 26.00 7.99 L 27.10 8.07 L 27.13 9.14 L 27.13 9.89 C 27.00 16.26 26.96 22.63 27.01 29.00 C 20.60 28.96 14.19 29.13 7.78 28.89 L 7.81 28.15 C 9.53 28.04 11.27 28.00 13.00 27.98 C 17.33 28.00 21.67 28.00 26.00 28.00 C 25.99 24.66 26.00 21.33 26.01 18.00 C 26.02 15.27 25.98 12.55 25.89 9.83 L 25.88 9.25 C 24.53 9.03 23.17 8.85 21.82 8.72 L 21.92 8.05 C 22.64 7.96 24.06 7.78 24.78 7.69 L 24.77 6.95 Z" />
</g>
<g id="#63758cff">
<path fill="#63758c" opacity="1.00" d=" M 21.20 7.98 L 21.92 8.05 L 21.82 8.72 L 21.00 8.72 L 21.20 7.98 Z" />
</g>
<g id="#d2d8e3ff">
<path fill="#d2d8e3" opacity="1.00" d=" M 20.19 9.17 L 21.00 8.72 L 21.82 8.72 C 23.17 8.85 24.53 9.03 25.88 9.25 L 25.89 9.83 C 25.44 9.89 24.54 10.02 24.09 10.09 C 22.79 10.08 21.50 9.99 20.22 9.82 L 20.19 9.17 Z" />
</g>
<g id="#1f1f1f3b">
<path fill="#1f1f1f" opacity="0.23" d=" M 27.13 9.14 C 27.30 9.32 27.66 9.68 27.83 9.86 L 27.13 9.89 L 27.13 9.14 Z" />
</g>
<g id="#eaf0f8ff">
<path fill="#eaf0f8" opacity="1.00" d=" M 24.09 10.09 C 24.54 10.02 25.44 9.89 25.89 9.83 C 25.98 12.55 26.02 15.27 26.01 18.00 L 25.02 18.01 L 24.95 18.98 C 24.51 19.00 23.62 19.06 23.17 19.08 C 22.41 20.04 21.59 20.96 20.83 21.92 C 20.38 21.94 19.49 22.00 19.05 22.02 L 19.00 23.00 C 18.25 23.00 16.75 23.00 16.00 23.00 L 15.85 23.72 C 15.17 24.46 14.46 25.17 13.72 25.85 L 13.00 26.01 C 13.00 26.50 13.00 27.49 13.00 27.98 C 11.27 28.00 9.53 28.04 7.81 28.15 L 7.04 28.19 C 7.03 26.46 7.02 24.73 7.00 23.00 C 7.75 23.00 9.25 23.00 10.00 23.00 L 10.05 22.03 C 10.47 21.99 11.32 21.91 11.74 21.87 C 12.46 21.17 13.17 20.46 13.87 19.74 C 13.92 19.32 14.01 18.48 14.06 18.05 C 14.49 18.01 15.35 17.94 15.78 17.90 C 17.97 14.99 21.19 13.16 23.94 10.84 L 24.09 10.09 Z" />
</g>
<g id="#4b4b4b8d">
<path fill="#4b4b4b" opacity="0.55" d=" M 27.13 9.89 L 27.83 9.86 C 28.10 16.90 27.98 23.95 28.00 31.00 C 20.97 30.87 13.92 31.25 6.89 30.86 C 6.93 30.39 7.01 29.46 7.05 28.99 L 7.78 28.89 L 8.01 30.00 C 14.34 30.00 20.67 30.00 27.00 30.00 L 27.01 29.00 C 26.96 22.63 27.00 16.26 27.13 9.89 Z" />
</g>
<g id="#1919192f">
<path fill="#191919" opacity="0.18" d=" M 27.83 9.86 L 29.00 10.00 C 29.00 17.00 29.00 24.00 29.00 31.00 L 28.00 31.00 C 27.98 23.95 28.10 16.90 27.83 9.86 Z" />
</g>
<g id="#9cacc2ff">
<path fill="#9cacc2" opacity="1.00" d=" M 6.00 17.00 L 7.00 17.00 C 7.01 19.00 6.98 21.00 7.00 23.00 C 7.02 24.73 7.03 26.46 7.04 28.19 L 7.05 28.99 L 6.21 29.09 C 6.00 25.06 5.93 21.03 6.00 17.00 Z" />
</g>
<g id="#e1eaf6ff">
<path fill="#e1eaf6" opacity="1.00" d=" M 25.02 18.01 L 26.01 18.00 C 26.00 21.33 25.99 24.66 26.00 28.00 C 21.67 28.00 17.33 28.00 13.00 27.98 C 13.00 27.49 13.00 26.50 13.00 26.01 L 13.72 25.85 C 14.46 25.17 15.17 24.46 15.85 23.72 L 16.00 23.00 C 16.75 23.00 18.25 23.00 19.00 23.00 L 19.05 22.02 C 19.49 22.00 20.38 21.94 20.83 21.92 C 21.59 20.96 22.41 20.04 23.17 19.08 C 23.62 19.06 24.51 19.00 24.95 18.98 L 25.02 18.01 Z" />
</g>
<g id="#6b7d94ff">
<path fill="#6b7d94" opacity="1.00" d=" M 7.04 28.19 L 7.81 28.15 L 7.78 28.89 L 7.05 28.99 L 7.04 28.19 Z" />
</g>
<g id="#1616162a">
<path fill="#161616" opacity="0.16" d=" M 6.21 29.09 L 7.05 28.99 C 7.01 29.46 6.93 30.39 6.89 30.86 C 6.72 30.42 6.38 29.53 6.21 29.09 Z" />
</g>
<g id="#666666bf">
<path fill="#666666" opacity="0.75" d=" M 7.78 28.89 C 14.19 29.13 20.60 28.96 27.01 29.00 L 27.00 30.00 C 20.67 30.00 14.34 30.00 8.01 30.00 L 7.78 28.89 Z" />
</g>
</svg>
