<?xml version="1.0" encoding="UTF-8" ?>
<!DOCTYPE svg PUBLIC "-//W3C//DTD SVG 1.1//EN" "http://www.w3.org/Graphics/SVG/1.1/DTD/svg11.dtd">
<svg width="148pt" height="148pt" viewBox="0 0 148 148" version="1.1" xmlns="http://www.w3.org/2000/svg">
<g id="#100c0845">
<path fill="#100c08" opacity="0.27" d=" M 8.70 28.31 C 7.20 21.29 5.95 5.41 18.00 8.05 C 56.34 7.90 94.69 8.08 133.03 7.96 C 135.23 7.76 137.25 8.85 138.90 10.20 C 139.48 50.44 138.06 90.76 139.98 130.93 C 138.12 134.79 134.88 140.06 129.88 139.00 L 130.11 138.10 C 142.07 133.69 138.80 118.49 136.80 108.22 C 137.48 75.77 139.25 43.01 137.27 10.76 C 134.07 7.72 128.88 9.72 125.02 8.97 C 88.39 9.13 51.75 8.80 15.12 9.12 C 11.02 9.52 9.14 14.35 10.05 18.01 C 10.24 43.02 8.85 68.13 11.90 93.03 C 13.35 107.60 7.86 122.26 10.23 136.70 C 18.97 139.88 30.09 137.02 39.78 138.18 C 69.44 140.07 99.25 138.46 128.98 139.02 L 128.98 139.98 C 95.66 139.58 62.27 141.05 29.01 138.94 C 22.42 137.83 15.56 141.79 9.27 138.71 C 7.31 133.09 7.97 126.95 8.28 121.13 C 11.16 90.26 6.39 59.09 8.70 28.31 Z" />
</g>
<g id="#221c158b">
<path fill="#221c15" opacity="0.55" d=" M 10.05 18.01 C 9.14 14.35 11.02 9.52 15.12 9.12 C 51.75 8.80 88.39 9.13 125.02 8.97 C 128.88 9.72 134.07 7.72 137.27 10.76 C 137.62 43.29 135.28 75.83 136.80 108.22 C 138.80 118.49 142.07 133.69 130.11 138.10 C 100.00 138.00 69.88 137.81 39.78 138.18 C 30.09 137.02 18.97 139.88 10.23 136.70 C 7.86 122.26 13.35 107.60 11.90 93.03 C 8.85 68.13 10.24 43.02 10.05 18.01 M 15.23 10.16 C 13.34 12.01 10.59 13.96 10.97 16.97 C 11.28 35.51 10.44 54.09 11.42 72.60 C 12.04 73.63 11.55 76.72 13.50 75.82 C 11.79 88.64 14.10 101.73 12.55 114.59 C 9.24 121.12 11.57 128.77 11.14 135.76 C 14.93 138.02 19.52 136.45 23.65 136.56 C 30.36 132.46 38.10 137.91 45.29 136.65 C 55.00 137.68 64.95 136.94 74.69 136.65 C 89.42 137.64 104.25 136.64 119.01 137.03 C 123.60 136.74 129.60 137.90 133.06 134.07 C 137.44 133.92 137.89 128.22 137.08 125.00 C 132.24 87.77 136.81 49.80 135.89 12.23 C 135.43 11.91 134.52 11.25 134.06 10.93 C 133.55 10.69 132.53 10.21 132.02 9.97 C 93.09 10.15 54.15 9.76 15.23 10.16 Z" />
</g>
<g id="#2c2922c1">
<path fill="#2c2922" opacity="0.76" d=" M 15.23 10.16 C 54.15 9.76 93.09 10.15 132.02 9.97 C 132.53 10.21 133.55 10.69 134.06 10.93 C 109.42 10.65 84.83 11.97 60.23 11.24 C 46.48 10.90 32.73 10.95 18.97 10.96 C 15.11 10.46 11.44 15.10 13.34 18.84 C 16.22 34.28 10.73 50.18 13.93 65.41 L 14.07 65.94 C 12.97 69.12 13.59 72.52 13.50 75.82 C 11.55 76.72 12.04 73.63 11.42 72.60 C 10.44 54.09 11.28 35.51 10.97 16.97 C 10.59 13.96 13.34 12.01 15.23 10.16 Z" />
</g>
<g id="#2b3432f1">
<path fill="#2b3432" opacity="0.95" d=" M 13.34 18.84 C 11.44 15.10 15.11 10.46 18.97 10.96 C 32.73 10.95 46.48 10.90 60.23 11.24 C 47.50 14.15 30.70 9.12 19.95 18.07 C 15.90 23.93 18.84 32.00 17.84 38.79 C 14.78 47.37 16.59 56.85 13.93 65.41 C 10.73 50.18 16.22 34.28 13.34 18.84 Z" />
</g>
<g id="#374c50f6">
<path fill="#374c50" opacity="0.96" d=" M 60.23 11.24 C 84.83 11.97 109.42 10.65 134.06 10.93 C 134.15 11.38 134.33 12.28 134.42 12.73 C 133.97 13.87 133.52 15.00 133.07 16.13 C 131.43 14.92 129.75 13.72 127.81 13.04 C 91.92 14.12 55.21 9.62 19.95 18.07 C 30.70 9.12 47.50 14.15 60.23 11.24 Z" />
</g>
<g id="#292823b9">
<path fill="#292823" opacity="0.73" d=" M 134.06 10.93 C 134.52 11.25 135.43 11.91 135.89 12.23 C 136.81 49.80 132.24 87.77 137.08 125.00 C 137.89 128.22 137.44 133.92 133.06 134.07 C 137.32 126.99 134.31 117.86 134.23 109.97 C 133.84 77.60 133.75 44.99 134.42 12.73 C 134.33 12.28 134.15 11.38 134.06 10.93 Z" />
</g>
<g id="#1b11096b">
<path fill="#1b1109" opacity="0.42" d=" M 137.27 10.76 C 139.25 43.01 137.48 75.77 136.80 108.22 C 135.28 75.83 137.62 43.29 137.27 10.76 Z" />
</g>
<g id="#2c6981ff">
<path fill="#2c6981" opacity="1.00" d=" M 19.95 18.07 C 55.21 9.62 91.92 14.12 127.81 13.04 L 128.08 13.88 C 93.60 14.52 58.84 11.80 24.82 18.66 C 21.46 18.95 18.10 22.09 20.05 26.00 C 20.91 38.64 17.21 52.09 19.68 64.34 C 27.63 65.82 36.96 62.85 45.34 63.64 C 45.83 63.67 46.82 63.72 47.31 63.74 C 49.81 64.22 52.29 64.81 54.75 65.45 C 55.77 65.85 56.76 66.32 57.81 66.62 C 63.12 62.71 68.92 59.47 74.84 56.64 C 74.25 57.77 73.66 58.91 73.02 60.02 C 66.10 63.27 61.75 71.66 52.94 70.22 C 46.96 61.19 32.89 65.37 24.00 66.01 C 21.61 67.42 18.52 67.43 17.16 64.65 C 16.64 56.01 18.66 47.45 17.84 38.79 C 18.84 32.00 15.90 23.93 19.95 18.07 Z" />
</g>
<g id="#2d5e70fe">
<path fill="#2d5e70" opacity="1.00" d=" M 127.81 13.04 C 129.75 13.72 131.43 14.92 133.07 16.13 C 132.97 20.34 132.94 24.56 132.82 28.78 C 131.26 42.08 130.81 55.44 130.93 68.82 C 123.79 69.59 108.62 77.11 105.98 65.91 C 111.16 72.28 119.97 68.87 126.90 68.92 C 128.25 69.01 129.09 67.55 129.23 66.37 C 130.14 51.27 130.14 36.11 130.02 20.98 C 131.58 17.93 129.83 15.75 128.08 13.88 L 127.81 13.04 Z" />
</g>
<g id="#2d3a37e6">
<path fill="#2d3a37" opacity="0.90" d=" M 134.42 12.73 C 133.75 44.99 133.84 77.60 134.23 109.97 C 134.31 117.86 137.32 126.99 133.06 134.07 C 118.29 134.75 103.52 135.93 88.77 135.39 C 89.37 135.09 90.59 134.51 91.19 134.22 C 101.88 132.54 113.31 134.15 123.75 129.85 C 127.23 130.11 133.39 130.11 131.30 124.16 C 132.61 106.68 134.88 88.53 131.53 71.34 C 134.49 57.40 132.59 42.93 132.82 28.78 C 132.94 24.56 132.97 20.34 133.07 16.13 C 133.52 15.00 133.97 13.87 134.42 12.73 Z" />
</g>
<g id="#2a7ea1ff">
<path fill="#2a7ea1" opacity="1.00" d=" M 24.82 18.66 C 58.84 11.80 93.60 14.52 128.08 13.88 C 129.83 15.75 131.58 17.93 130.02 20.98 C 130.14 36.11 130.14 51.27 129.23 66.37 C 129.09 67.55 128.25 69.01 126.90 68.92 C 119.97 68.87 111.16 72.28 105.98 65.91 C 104.82 63.16 102.79 60.90 100.18 59.46 C 98.58 58.18 97.06 56.81 95.61 55.36 C 99.67 55.63 104.08 57.00 105.66 61.15 C 107.09 65.23 111.09 70.56 115.97 68.19 C 119.52 67.73 123.34 68.17 126.74 66.79 C 129.87 56.82 127.41 46.23 128.99 36.02 C 127.97 29.33 131.66 20.77 126.72 15.13 C 116.71 14.88 106.68 14.82 96.67 15.16 C 93.86 15.10 91.07 15.02 88.27 15.09 C 72.72 14.12 57.24 15.28 42.12 19.01 C 36.72 19.02 31.30 19.20 25.91 18.76 L 24.82 18.66 Z" />
</g>
<g id="#2d9fd2ff">
<path fill="#2d9fd2" opacity="1.00" d=" M 42.12 19.01 C 57.24 15.28 72.72 14.12 88.27 15.09 C 79.24 22.90 58.05 12.79 53.64 27.96 C 51.96 24.29 49.18 20.50 44.28 22.13 C 39.70 26.66 35.45 31.69 32.29 37.33 C 30.80 41.40 36.47 45.25 34.18 49.16 C 32.03 51.98 29.70 59.02 35.09 58.64 C 39.85 57.57 43.85 60.92 47.31 63.74 C 46.82 63.72 45.83 63.67 45.34 63.64 C 40.13 61.26 34.34 63.13 28.86 62.40 C 25.89 55.51 32.60 49.52 30.28 42.70 C 26.29 32.92 37.94 26.48 42.12 19.01 Z" />
</g>
<g id="#4cabd9ff">
<path fill="#4cabd9" opacity="1.00" d=" M 88.27 15.09 C 91.07 15.02 93.86 15.10 96.67 15.16 C 102.25 18.29 109.53 17.47 115.77 17.20 C 119.08 22.99 126.92 27.22 124.96 34.93 C 123.54 38.57 122.27 42.77 124.78 46.21 C 123.66 53.97 120.20 61.45 115.97 68.19 C 111.09 70.56 107.09 65.23 105.66 61.15 C 106.14 60.80 107.09 60.11 107.56 59.77 C 108.03 62.52 109.34 66.66 113.66 63.84 C 116.93 59.53 122.77 54.64 119.98 48.68 C 119.68 46.38 119.37 44.09 119.04 41.80 C 119.32 41.37 119.88 40.51 120.16 40.08 C 123.90 34.63 122.32 27.62 115.33 25.74 C 111.80 16.61 100.87 20.13 93.35 17.57 C 88.77 15.48 86.87 23.40 82.18 21.79 C 74.17 19.12 64.55 18.99 58.09 25.23 C 57.87 29.35 59.96 33.15 61.04 37.04 C 60.01 37.45 58.99 37.85 57.96 38.25 C 54.44 33.95 51.15 29.48 47.75 25.09 C 41.27 25.83 40.05 34.13 36.16 38.23 C 33.98 46.37 44.43 47.48 49.35 50.69 C 52.19 55.01 45.34 54.48 42.94 56.16 C 43.67 60.88 51.82 64.83 54.30 59.18 C 56.07 60.30 57.92 61.29 59.67 62.44 C 60.94 65.22 56.42 64.99 54.75 65.45 C 52.29 64.81 49.81 64.22 47.31 63.74 C 43.85 60.92 39.85 57.57 35.09 58.64 C 29.70 59.02 32.03 51.98 34.18 49.16 C 36.47 45.25 30.80 41.40 32.29 37.33 C 35.45 31.69 39.70 26.66 44.28 22.13 C 49.18 20.50 51.96 24.29 53.64 27.96 C 58.05 12.79 79.24 22.90 88.27 15.09 Z" />
</g>
<g id="#279fd2ff">
<path fill="#279fd2" opacity="1.00" d=" M 96.67 15.16 C 106.68 14.82 116.71 14.88 126.72 15.13 C 131.66 20.77 127.97 29.33 128.99 36.02 C 127.41 46.23 129.87 56.82 126.74 66.79 C 123.34 68.17 119.52 67.73 115.97 68.19 C 120.20 61.45 123.66 53.97 124.78 46.21 C 122.27 42.77 123.54 38.57 124.96 34.93 C 126.92 27.22 119.08 22.99 115.77 17.20 C 109.53 17.47 102.25 18.29 96.67 15.16 Z" />
</g>
<g id="#6eb7deff">
<path fill="#6eb7de" opacity="1.00" d=" M 82.18 21.79 C 86.87 23.40 88.77 15.48 93.35 17.57 C 100.87 20.13 111.80 16.61 115.33 25.74 C 122.32 27.62 123.90 34.63 120.16 40.08 C 124.01 31.26 114.98 32.85 111.13 28.85 C 109.11 26.63 107.18 29.38 106.06 31.00 C 106.40 27.95 106.22 24.95 102.38 25.95 C 103.35 21.65 97.95 18.66 96.70 23.71 C 95.54 27.92 92.87 24.33 91.66 22.24 C 85.29 21.75 89.88 30.88 86.24 34.27 C 88.58 29.38 83.58 20.71 79.18 27.01 C 78.61 25.08 77.14 21.99 74.73 23.71 C 71.17 26.40 66.72 22.45 63.32 25.30 C 59.10 27.57 61.19 33.20 61.88 36.99 L 61.04 37.04 C 59.96 33.15 57.87 29.35 58.09 25.23 C 64.55 18.99 74.17 19.12 82.18 21.79 Z" />
</g>
<g id="#1689baff">
<path fill="#1689ba" opacity="1.00" d=" M 20.05 26.00 C 18.10 22.09 21.46 18.95 24.82 18.66 L 25.91 18.76 C 24.07 20.73 21.14 22.39 23.08 26.01 C 23.89 37.69 20.92 49.11 20.41 60.71 C 20.67 65.02 25.95 62.63 28.86 62.40 C 34.34 63.13 40.13 61.26 45.34 63.64 C 36.96 62.85 27.63 65.82 19.68 64.34 C 17.21 52.09 20.91 38.64 20.05 26.00 Z" />
</g>
<g id="#0f98d3ff">
<path fill="#0f98d3" opacity="1.00" d=" M 25.91 18.76 C 31.30 19.20 36.72 19.02 42.12 19.01 C 37.94 26.48 26.29 32.92 30.28 42.70 C 32.60 49.52 25.89 55.51 28.86 62.40 C 25.95 62.63 20.67 65.02 20.41 60.71 C 20.92 49.11 23.89 37.69 23.08 26.01 C 21.14 22.39 24.07 20.73 25.91 18.76 Z" />
</g>
<g id="#8fc0daff">
<path fill="#8fc0da" opacity="1.00" d=" M 96.70 23.71 C 97.95 18.66 103.35 21.65 102.38 25.95 C 97.84 31.84 97.25 39.15 93.51 45.43 C 93.46 48.81 93.69 55.90 88.20 53.96 C 85.87 48.00 86.79 40.79 86.24 34.27 C 89.88 30.88 85.29 21.75 91.66 22.24 C 92.87 24.33 95.54 27.92 96.70 23.71 M 92.26 29.16 C 87.54 33.08 87.97 40.43 87.95 46.00 C 86.51 47.81 87.92 52.82 90.80 51.92 C 93.60 48.94 90.62 43.76 93.83 40.83 C 97.55 37.91 98.82 28.16 92.26 29.16 Z" />
</g>
<g id="#8ec2deff">
<path fill="#8ec2de" opacity="1.00" d=" M 74.73 23.71 C 77.14 21.99 78.61 25.08 79.18 27.01 C 79.63 35.29 77.12 44.35 81.02 52.03 C 80.24 57.31 71.91 54.72 70.54 50.56 C 68.45 45.57 65.11 41.28 61.88 36.99 C 61.19 33.20 59.10 27.57 63.32 25.30 C 66.72 22.45 71.17 26.40 74.73 23.71 M 74.36 27.33 C 69.88 29.96 66.82 35.65 67.34 40.64 C 71.79 43.94 70.38 53.44 77.92 52.00 C 78.23 44.09 78.03 36.16 77.86 28.26 C 77.20 26.98 75.57 26.56 74.36 27.33 Z" />
</g>
<g id="#68b3dbff">
<path fill="#68b3db" opacity="1.00" d=" M 36.16 38.23 C 40.05 34.13 41.27 25.83 47.75 25.09 C 51.15 29.48 54.44 33.95 57.96 38.25 C 58.22 39.61 58.45 40.96 58.66 42.32 C 55.33 37.75 52.63 30.57 46.19 29.97 C 45.59 34.22 40.83 38.66 41.66 42.23 C 50.34 39.92 50.72 48.46 55.01 52.85 C 50.23 51.87 51.95 57.33 54.30 59.18 C 51.82 64.83 43.67 60.88 42.94 56.16 C 45.34 54.48 52.19 55.01 49.35 50.69 C 44.43 47.48 33.98 46.37 36.16 38.23 Z" />
</g>
<g id="#6997acff">
<path fill="#6997ac" opacity="1.00" d=" M 79.18 27.01 C 83.58 20.71 88.58 29.38 86.24 34.27 C 86.79 40.79 85.87 48.00 88.20 53.96 C 93.69 55.90 93.46 48.81 93.51 45.43 C 97.25 39.15 97.84 31.84 102.38 25.95 C 106.22 24.95 106.40 27.95 106.06 31.00 C 100.75 35.66 102.80 43.43 99.07 49.04 C 94.47 55.32 106.73 58.79 107.11 51.30 C 109.90 49.05 112.24 46.30 114.93 43.94 C 116.27 43.17 117.64 42.46 119.04 41.80 C 119.37 44.09 119.68 46.38 119.98 48.68 C 115.00 51.31 112.47 56.89 107.56 59.77 C 107.09 60.11 106.14 60.80 105.66 61.15 C 104.08 57.00 99.67 55.63 95.61 55.36 C 88.74 55.97 81.58 55.03 74.84 56.64 C 68.92 59.47 63.12 62.71 57.81 66.62 C 56.76 66.32 55.77 65.85 54.75 65.45 C 56.42 64.99 60.94 65.22 59.67 62.44 C 57.92 61.29 56.07 60.30 54.30 59.18 C 51.95 57.33 50.23 51.87 55.01 52.85 C 59.08 54.81 62.38 58.85 67.09 59.07 C 66.11 52.74 60.45 48.39 58.66 42.32 C 58.45 40.96 58.22 39.61 57.96 38.25 C 58.99 37.85 60.01 37.45 61.04 37.04 L 61.88 36.99 C 65.11 41.28 68.45 45.57 70.54 50.56 C 71.91 54.72 80.24 57.31 81.02 52.03 C 77.12 44.35 79.63 35.29 79.18 27.01 Z" />
</g>
<g id="#aad5eeff">
<path fill="#aad5ee" opacity="1.00" d=" M 74.36 27.33 C 75.57 26.56 77.20 26.98 77.86 28.26 C 78.03 36.16 78.23 44.09 77.92 52.00 C 70.38 53.44 71.79 43.94 67.34 40.64 C 66.82 35.65 69.88 29.96 74.36 27.33 Z" />
</g>
<g id="#8cc1ddff">
<path fill="#8cc1dd" opacity="1.00" d=" M 106.06 31.00 C 107.18 29.38 109.11 26.63 111.13 28.85 C 114.98 32.85 124.01 31.26 120.16 40.08 C 119.88 40.51 119.32 41.37 119.04 41.80 C 117.64 42.46 116.27 43.17 114.93 43.94 C 115.60 41.49 120.75 38.64 117.87 36.17 C 113.16 33.69 105.13 30.36 103.28 38.18 C 103.71 42.55 98.90 52.52 107.11 51.30 C 106.73 58.79 94.47 55.32 99.07 49.04 C 102.80 43.43 100.75 35.66 106.06 31.00 Z" />
</g>
<g id="#b6dbf0ff">
<path fill="#b6dbf0" opacity="1.00" d=" M 92.26 29.16 C 98.82 28.16 97.55 37.91 93.83 40.83 C 90.62 43.76 93.60 48.94 90.80 51.92 C 87.92 52.82 86.51 47.81 87.95 46.00 C 87.97 40.43 87.54 33.08 92.26 29.16 Z" />
</g>
<g id="#3b514dfe">
<path fill="#3b514d" opacity="1.00" d=" M 130.93 68.82 C 130.81 55.44 131.26 42.08 132.82 28.78 C 132.59 42.93 134.49 57.40 131.53 71.34 C 134.88 88.53 132.61 106.68 131.30 124.16 C 133.39 130.11 127.23 130.11 123.75 129.85 C 125.36 129.09 127.72 129.24 128.72 127.62 C 129.06 116.04 132.18 104.53 130.16 92.96 C 129.81 87.83 133.19 82.51 130.38 77.64 C 128.15 71.52 120.22 74.13 115.13 74.18 C 108.25 77.89 101.05 80.99 93.77 83.85 C 91.02 84.84 92.74 87.90 92.79 89.97 C 90.44 89.78 88.10 89.55 85.76 89.28 C 74.43 83.49 64.41 75.64 52.94 70.22 C 61.75 71.66 66.10 63.27 73.02 60.02 C 73.27 60.50 73.76 61.46 74.00 61.94 C 70.82 64.76 66.61 67.77 67.98 72.85 C 73.08 76.17 78.09 79.69 83.39 82.68 C 91.64 82.24 99.76 78.18 105.98 72.81 C 106.35 68.70 102.11 65.71 98.94 63.88 C 98.64 63.64 98.04 63.15 97.74 62.91 C 98.00 61.35 98.36 59.77 100.18 59.46 C 102.79 60.90 104.82 63.16 105.98 65.91 C 108.62 77.11 123.79 69.59 130.93 68.82 Z" />
</g>
<g id="#89c2e2ff">
<path fill="#89c2e2" opacity="1.00" d=" M 46.19 29.97 C 52.63 30.57 55.33 37.75 58.66 42.32 C 60.45 48.39 66.11 52.74 67.09 59.07 C 62.38 58.85 59.08 54.81 55.01 52.85 C 50.72 48.46 50.34 39.92 41.66 42.23 C 40.83 38.66 45.59 34.22 46.19 29.97 Z" />
</g>
<g id="#badbefff">
<path fill="#badbef" opacity="1.00" d=" M 103.28 38.18 C 105.13 30.36 113.16 33.69 117.87 36.17 C 120.75 38.64 115.60 41.49 114.93 43.94 C 112.24 46.30 109.90 49.05 107.11 51.30 C 98.90 52.52 103.71 42.55 103.28 38.18 Z" />
</g>
<g id="#2f5257fe">
<path fill="#2f5257" opacity="1.00" d=" M 13.93 65.41 C 16.59 56.85 14.78 47.37 17.84 38.79 C 18.66 47.45 16.64 56.01 17.16 64.65 C 18.52 67.43 21.61 67.42 24.00 66.01 C 32.89 65.37 46.96 61.19 52.94 70.22 C 47.05 69.52 41.13 68.90 35.25 70.14 C 27.65 68.67 20.75 71.39 14.98 76.07 C 17.54 72.71 16.18 69.12 14.07 65.94 L 13.93 65.41 Z" />
</g>
<g id="#86c1e1ff">
<path fill="#86c1e1" opacity="1.00" d=" M 107.56 59.77 C 112.47 56.89 115.00 51.31 119.98 48.68 C 122.77 54.64 116.93 59.53 113.66 63.84 C 109.34 66.66 108.03 62.52 107.56 59.77 Z" />
</g>
<g id="#596f72ff">
<path fill="#596f72" opacity="1.00" d=" M 74.84 56.64 C 81.58 55.03 88.74 55.97 95.61 55.36 C 97.06 56.81 98.58 58.18 100.18 59.46 C 98.36 59.77 98.00 61.35 97.74 62.91 C 92.18 58.66 83.55 58.44 77.03 60.91 C 76.02 61.24 75.01 61.59 74.00 61.94 C 73.76 61.46 73.27 60.50 73.02 60.02 C 73.66 58.91 74.25 57.77 74.84 56.64 Z" />
</g>
<g id="#ac8b6cff">
<path fill="#ac8b6c" opacity="1.00" d=" M 77.03 60.91 C 83.55 58.44 92.18 58.66 97.74 62.91 C 98.04 63.15 98.64 63.64 98.94 63.88 C 99.24 64.40 99.82 65.42 100.12 65.94 L 99.14 65.96 C 93.37 62.16 85.17 58.89 78.77 62.71 C 77.49 63.17 76.20 63.59 74.91 63.99 C 75.63 62.97 76.32 61.94 77.03 60.91 Z" />
</g>
<g id="#89684cff">
<path fill="#89684c" opacity="1.00" d=" M 74.00 61.94 C 75.01 61.59 76.02 61.24 77.03 60.91 C 76.32 61.94 75.63 62.97 74.91 63.99 C 71.23 65.24 66.93 71.96 72.37 73.60 C 77.98 75.19 82.51 83.24 88.72 79.80 C 94.17 77.96 99.46 75.57 103.93 71.88 C 103.02 69.69 101.55 67.80 100.12 65.94 C 99.82 65.42 99.24 64.40 98.94 63.88 C 102.11 65.71 106.35 68.70 105.98 72.81 C 99.76 78.18 91.64 82.24 83.39 82.68 C 78.09 79.69 73.08 76.17 67.98 72.85 C 66.61 67.77 70.82 64.76 74.00 61.94 Z" />
</g>
<g id="#f2b683ff">
<path fill="#f2b683" opacity="1.00" d=" M 78.77 62.71 C 85.17 58.89 93.37 62.16 99.14 65.96 C 105.59 74.48 91.97 76.83 85.98 79.02 C 80.00 77.63 74.61 68.20 78.77 62.71 M 89.31 64.29 C 87.16 65.40 85.12 66.74 83.19 68.22 C 83.91 71.58 82.76 78.34 87.89 76.89 C 91.28 75.36 95.30 74.65 97.87 71.76 C 98.61 67.78 93.02 63.60 89.31 64.29 Z" />
</g>
<g id="#db9059ff">
<path fill="#db9059" opacity="1.00" d=" M 74.91 63.99 C 76.20 63.59 77.49 63.17 78.77 62.71 C 74.61 68.20 80.00 77.63 85.98 79.02 C 91.97 76.83 105.59 74.48 99.14 65.96 L 100.12 65.94 C 101.55 67.80 103.02 69.69 103.93 71.88 C 99.46 75.57 94.17 77.96 88.72 79.80 C 82.51 83.24 77.98 75.19 72.37 73.60 C 66.93 71.96 71.23 65.24 74.91 63.99 Z" />
</g>
<g id="#fdd6afff">
<path fill="#fdd6af" opacity="1.00" d=" M 89.31 64.29 C 93.02 63.60 98.61 67.78 97.87 71.76 C 95.30 74.65 91.28 75.36 87.89 76.89 C 82.76 78.34 83.91 71.58 83.19 68.22 C 85.12 66.74 87.16 65.40 89.31 64.29 Z" />
</g>
<g id="#333b36e4">
<path fill="#333b36" opacity="0.89" d=" M 14.07 65.94 C 16.18 69.12 17.54 72.71 14.98 76.07 C 14.74 83.29 15.01 90.51 15.23 97.73 C 15.03 108.70 14.60 120.25 18.25 130.75 C 39.92 134.99 62.43 133.98 84.45 134.91 C 81.19 135.45 77.93 135.97 74.69 136.65 C 64.95 136.94 55.00 137.68 45.29 136.65 C 35.40 132.47 24.63 134.19 14.27 134.82 C 10.17 132.58 13.15 127.98 13.45 124.55 C 14.24 108.37 14.56 91.99 13.50 75.82 C 13.59 72.52 12.97 69.12 14.07 65.94 Z" />
</g>
<g id="#57916aff">
<path fill="#57916a" opacity="1.00" d=" M 35.25 70.14 C 41.13 68.90 47.05 69.52 52.94 70.22 C 64.41 75.64 74.43 83.49 85.76 89.28 C 90.57 91.72 93.88 97.98 100.02 97.03 C 102.80 98.03 109.80 97.58 107.02 93.12 C 109.84 92.36 111.56 96.89 108.61 97.61 C 102.01 97.59 93.96 101.77 89.33 94.66 C 82.09 87.63 71.90 85.11 64.19 78.71 C 61.70 73.36 54.94 76.13 50.62 73.46 C 42.18 69.29 30.92 72.21 26.88 80.89 C 25.88 84.69 21.74 85.84 19.09 88.29 C 19.33 101.42 26.31 113.63 25.41 126.60 C 25.92 127.44 26.47 128.26 27.05 129.06 C 24.53 129.17 21.96 128.57 20.09 126.80 C 22.05 109.91 15.91 93.16 18.15 76.22 C 23.12 72.77 30.05 73.54 35.25 70.14 Z" />
</g>
<g id="#4b735dfe">
<path fill="#4b735d" opacity="1.00" d=" M 14.98 76.07 C 20.75 71.39 27.65 68.67 35.25 70.14 C 30.05 73.54 23.12 72.77 18.15 76.22 C 15.91 93.16 22.05 109.91 20.09 126.80 C 21.96 128.57 24.53 129.17 27.05 129.06 C 27.79 129.06 29.29 129.07 30.04 129.08 C 38.28 129.08 46.54 128.78 54.78 129.19 C 75.11 129.87 95.35 133.63 115.55 129.15 C 118.69 128.41 123.35 129.53 125.73 126.67 C 127.92 114.33 129.99 101.86 128.75 89.27 C 128.77 85.29 131.38 79.69 127.28 76.71 C 115.99 74.15 105.34 81.35 94.96 85.20 C 96.28 89.56 101.19 93.46 106.03 93.01 L 107.02 93.12 C 109.80 97.58 102.80 98.03 100.02 97.03 C 93.88 97.98 90.57 91.72 85.76 89.28 C 88.10 89.55 90.44 89.78 92.79 89.97 C 92.74 87.90 91.02 84.84 93.77 83.85 C 101.05 80.99 108.25 77.89 115.13 74.18 C 120.22 74.13 128.15 71.52 130.38 77.64 C 133.19 82.51 129.81 87.83 130.16 92.96 C 132.18 104.53 129.06 116.04 128.72 127.62 C 127.72 129.24 125.36 129.09 123.75 129.85 C 113.31 134.15 101.88 132.54 91.19 134.22 C 72.65 130.80 53.67 132.58 34.97 130.23 C 30.22 128.59 22.54 132.70 19.33 127.62 C 18.12 117.62 18.79 107.32 15.23 97.73 C 15.01 90.51 14.74 83.29 14.98 76.07 Z" />
</g>
<g id="#6aa47aff">
<path fill="#6aa47a" opacity="1.00" d=" M 26.88 80.89 C 30.92 72.21 42.18 69.29 50.62 73.46 C 54.94 76.13 61.70 73.36 64.19 78.71 C 61.62 77.82 59.79 79.64 57.86 80.99 C 54.19 80.20 51.69 76.67 48.26 75.17 C 44.67 78.13 41.52 83.61 36.16 83.05 C 42.28 73.24 25.78 77.42 28.38 83.44 C 31.68 89.12 24.94 89.20 22.00 91.20 C 22.03 95.39 24.16 99.25 24.41 103.43 C 24.29 111.31 32.45 118.45 28.61 126.25 C 28.24 127.34 29.66 128.14 30.04 129.08 C 29.29 129.07 27.79 129.06 27.05 129.06 C 26.47 128.26 25.92 127.44 25.41 126.60 C 26.31 113.63 19.33 101.42 19.09 88.29 C 21.74 85.84 25.88 84.69 26.88 80.89 Z" />
</g>
<g id="#7bac88ff">
<path fill="#7bac88" opacity="1.00" d=" M 48.26 75.17 C 51.69 76.67 54.19 80.20 57.86 80.99 C 59.79 79.64 61.62 77.82 64.19 78.71 C 71.90 85.11 82.09 87.63 89.33 94.66 C 93.96 101.77 102.01 97.59 108.61 97.61 C 111.56 96.89 109.84 92.36 107.02 93.12 L 106.03 93.01 L 106.08 92.04 C 106.61 91.98 107.68 91.85 108.21 91.79 C 109.17 92.14 110.11 92.55 111.02 93.01 C 115.36 102.02 101.27 100.46 96.13 101.88 C 88.54 99.30 81.49 95.28 74.38 91.63 C 69.89 81.84 56.97 84.10 48.02 81.97 C 38.67 87.06 22.25 91.53 26.97 105.99 C 29.66 112.40 32.54 118.91 33.37 125.98 C 38.02 127.41 41.65 121.31 46.01 123.99 C 48.96 126.25 53.21 120.50 55.01 124.98 C 56.79 129.82 62.36 127.09 66.05 127.20 C 75.26 125.00 84.17 128.16 93.22 129.36 C 87.38 131.07 81.74 128.88 76.00 128.26 C 68.94 128.68 61.86 129.13 54.78 129.19 C 46.54 128.78 38.28 129.08 30.04 129.08 C 29.66 128.14 28.24 127.34 28.61 126.25 C 32.45 118.45 24.29 111.31 24.41 103.43 C 24.16 99.25 22.03 95.39 22.00 91.20 C 24.94 89.20 31.68 89.12 28.38 83.44 C 25.78 77.42 42.28 73.24 36.16 83.05 C 41.52 83.61 44.67 78.13 48.26 75.17 Z" />
</g>
<g id="#2a2b25be">
<path fill="#2a2b25" opacity="0.75" d=" M 13.50 75.82 C 14.56 91.99 14.24 108.37 13.45 124.55 C 13.15 127.98 10.17 132.58 14.27 134.82 C 24.63 134.19 35.40 132.47 45.29 136.65 C 38.10 137.91 30.36 132.46 23.65 136.56 C 19.52 136.45 14.93 138.02 11.14 135.76 C 11.57 128.77 9.24 121.12 12.55 114.59 C 14.10 101.73 11.79 88.64 13.50 75.82 Z" />
</g>
<g id="#619772ff">
<path fill="#619772" opacity="1.00" d=" M 94.96 85.20 C 105.34 81.35 115.99 74.15 127.28 76.71 C 131.38 79.69 128.77 85.29 128.75 89.27 C 126.47 86.57 127.75 83.29 127.98 80.18 C 124.20 78.31 118.86 77.99 114.74 78.64 C 110.54 81.10 105.76 82.99 101.98 86.03 C 99.20 88.87 102.78 92.72 106.08 92.04 L 106.03 93.01 C 101.19 93.46 96.28 89.56 94.96 85.20 Z" />
</g>
<g id="#75a984ff">
<path fill="#75a984" opacity="1.00" d=" M 114.74 78.64 C 118.86 77.99 124.20 78.31 127.98 80.18 C 127.75 83.29 126.47 86.57 128.75 89.27 C 129.99 101.86 127.92 114.33 125.73 126.67 C 123.35 129.53 118.69 128.41 115.55 129.15 C 109.02 126.67 102.45 130.07 95.81 129.30 C 102.12 128.33 107.65 125.24 113.13 122.16 C 116.11 122.32 118.72 126.73 121.70 123.74 C 127.87 115.78 125.15 104.86 126.40 95.52 C 128.04 87.63 124.19 77.79 114.74 78.64 Z" />
</g>
<g id="#93bb9dff">
<path fill="#93bb9d" opacity="1.00" d=" M 101.98 86.03 C 105.76 82.99 110.54 81.10 114.74 78.64 C 124.19 77.79 128.04 87.63 126.40 95.52 C 125.15 104.86 127.87 115.78 121.70 123.74 C 118.72 126.73 116.11 122.32 113.13 122.16 C 107.65 125.24 102.12 128.33 95.81 129.30 C 95.16 129.31 93.86 129.34 93.22 129.36 C 84.17 128.16 75.26 125.00 66.05 127.20 C 62.36 127.09 56.79 129.82 55.01 124.98 C 53.21 120.50 48.96 126.25 46.01 123.99 C 41.65 121.31 38.02 127.41 33.37 125.98 C 32.54 118.91 29.66 112.40 26.97 105.99 C 22.25 91.53 38.67 87.06 48.02 81.97 C 56.97 84.10 69.89 81.84 74.38 91.63 C 81.49 95.28 88.54 99.30 96.13 101.88 C 101.27 100.46 115.36 102.02 111.02 93.01 C 115.43 94.32 114.74 100.64 110.29 101.22 C 105.49 101.03 101.91 103.88 98.24 106.43 C 87.63 102.25 75.70 99.14 68.72 89.30 C 65.24 86.77 59.58 89.36 56.20 85.80 C 51.66 82.31 45.35 85.45 40.85 87.74 C 39.39 88.62 37.98 89.60 36.74 90.78 C 31.21 94.85 28.06 104.22 35.78 107.35 C 35.11 111.78 34.85 115.88 39.73 118.23 C 45.05 119.83 53.18 116.02 56.61 122.40 C 58.42 125.86 60.71 122.53 61.42 120.24 C 65.37 120.18 65.16 128.67 71.03 125.01 C 80.43 122.19 89.42 130.01 98.86 125.79 C 105.77 124.79 110.81 114.27 117.92 119.11 C 120.41 120.61 123.23 118.10 123.60 115.59 C 124.89 104.10 125.29 91.64 119.77 81.10 C 113.89 80.87 107.85 83.63 104.26 88.31 C 103.07 90.72 106.82 90.80 108.21 91.79 C 107.68 91.85 106.61 91.98 106.08 92.04 C 102.78 92.72 99.20 88.87 101.98 86.03 Z" />
</g>
<g id="#acc9b3ff">
<path fill="#acc9b3" opacity="1.00" d=" M 104.26 88.31 C 107.85 83.63 113.89 80.87 119.77 81.10 C 125.29 91.64 124.89 104.10 123.60 115.59 C 123.23 118.10 120.41 120.61 117.92 119.11 C 110.81 114.27 105.77 124.79 98.86 125.79 C 89.42 130.01 80.43 122.19 71.03 125.01 C 65.16 128.67 65.37 120.18 61.42 120.24 C 60.71 122.53 58.42 125.86 56.61 122.40 C 53.18 116.02 45.05 119.83 39.73 118.23 C 34.85 115.88 35.11 111.78 35.78 107.35 C 28.06 104.22 31.21 94.85 36.74 90.78 C 32.74 99.19 43.62 99.52 46.63 105.19 C 44.77 110.49 49.94 113.60 53.40 116.74 C 57.19 116.49 60.87 115.48 64.66 115.27 C 68.93 115.79 66.64 123.87 71.64 122.56 C 79.69 118.35 87.97 127.41 95.95 121.78 C 93.21 110.93 83.94 101.69 72.96 99.01 C 69.16 87.06 56.95 91.01 49.45 96.48 C 41.04 99.89 46.16 93.20 48.78 91.66 C 50.45 86.91 43.98 88.01 40.85 87.74 C 45.35 85.45 51.66 82.31 56.20 85.80 C 59.58 89.36 65.24 86.77 68.72 89.30 C 75.70 99.14 87.63 102.25 98.24 106.43 C 101.91 103.88 105.49 101.03 110.29 101.22 C 114.74 100.64 115.43 94.32 111.02 93.01 C 110.11 92.55 109.17 92.14 108.21 91.79 C 106.82 90.80 103.07 90.72 104.26 88.31 M 119.29 101.33 C 114.07 103.36 105.53 101.70 103.29 108.28 C 102.38 112.12 101.90 121.03 107.98 116.95 C 112.33 113.43 118.79 116.86 122.90 113.77 C 122.28 109.85 122.98 101.94 119.29 101.33 Z" />
</g>
<g id="#bad2c0ff">
<path fill="#bad2c0" opacity="1.00" d=" M 36.74 90.78 C 37.98 89.60 39.39 88.62 40.85 87.74 C 43.98 88.01 50.45 86.91 48.78 91.66 C 46.16 93.20 41.04 99.89 49.45 96.48 C 56.95 91.01 69.16 87.06 72.96 99.01 C 83.94 101.69 93.21 110.93 95.95 121.78 C 87.97 127.41 79.69 118.35 71.64 122.56 C 66.64 123.87 68.93 115.79 64.66 115.27 C 60.87 115.48 57.19 116.49 53.40 116.74 C 49.94 113.60 44.77 110.49 46.63 105.19 C 43.62 99.52 32.74 99.19 36.74 90.78 M 62.32 93.30 C 58.66 94.40 55.47 96.57 52.04 98.19 C 50.30 102.14 58.79 102.46 55.25 106.19 C 51.22 106.88 50.11 114.60 54.90 113.90 C 58.32 111.79 62.36 112.13 66.05 111.06 C 72.12 106.86 71.09 92.35 62.32 93.30 Z" />
</g>
<g id="#c8dbcdff">
<path fill="#c8dbcd" opacity="1.00" d=" M 62.32 93.30 C 71.09 92.35 72.12 106.86 66.05 111.06 C 62.36 112.13 58.32 111.79 54.90 113.90 C 50.11 114.60 51.22 106.88 55.25 106.19 C 58.79 102.46 50.30 102.14 52.04 98.19 C 55.47 96.57 58.66 94.40 62.32 93.30 Z" />
</g>
<g id="#3e544bf9">
<path fill="#3e544b" opacity="0.98" d=" M 15.23 97.73 C 18.79 107.32 18.12 117.62 19.33 127.62 C 22.54 132.70 30.22 128.59 34.97 130.23 C 53.67 132.58 72.65 130.80 91.19 134.22 C 90.59 134.51 89.37 135.09 88.77 135.39 C 87.32 135.24 85.89 135.04 84.45 134.91 C 62.43 133.98 39.92 134.99 18.25 130.75 C 14.60 120.25 15.03 108.70 15.23 97.73 Z" />
</g>
<g id="#bfd5c5ff">
<path fill="#bfd5c5" opacity="1.00" d=" M 119.29 101.33 C 122.98 101.94 122.28 109.85 122.90 113.77 C 118.79 116.86 112.33 113.43 107.98 116.95 C 101.90 121.03 102.38 112.12 103.29 108.28 C 105.53 101.70 114.07 103.36 119.29 101.33 Z" />
</g>
<g id="#638d75ff">
<path fill="#638d75" opacity="1.00" d=" M 54.78 129.19 C 61.86 129.13 68.94 128.68 76.00 128.26 C 81.74 128.88 87.38 131.07 93.22 129.36 C 93.86 129.34 95.16 129.31 95.81 129.30 C 102.45 130.07 109.02 126.67 115.55 129.15 C 95.35 133.63 75.11 129.87 54.78 129.19 Z" />
</g>
<g id="#302d25c5">
<path fill="#302d25" opacity="0.77" d=" M 88.77 135.39 C 103.52 135.93 118.29 134.75 133.06 134.07 C 129.60 137.90 123.60 136.74 119.01 137.03 C 104.25 136.64 89.42 137.64 74.69 136.65 C 77.93 135.97 81.19 135.45 84.45 134.91 C 85.89 135.04 87.32 135.24 88.77 135.39 Z" />
</g>
<g id="#1b151068">
<path fill="#1b1510" opacity="0.41" d=" M 39.78 138.18 C 69.88 137.81 100.00 138.00 130.11 138.10 L 129.88 139.00 L 128.98 139.02 C 99.25 138.46 69.44 140.07 39.78 138.18 Z" />
</g>
</svg>
