<?xml version="1.0" encoding="UTF-8" ?>
<!DOCTYPE svg PUBLIC "-//W3C//DTD SVG 1.1//EN" "http://www.w3.org/Graphics/SVG/1.1/DTD/svg11.dtd">
<svg width="148pt" height="148pt" viewBox="0 0 148 148" version="1.1" xmlns="http://www.w3.org/2000/svg">
<g id="#2d221e2f">
<path fill="#2d221e" opacity="0.18" d=" M 82.69 0.00 L 90.23 0.00 C 91.61 2.51 92.81 5.11 94.06 7.68 C 96.61 8.17 99.23 8.48 101.67 9.43 C 102.88 11.76 102.60 14.49 102.72 17.03 C 101.26 18.41 99.52 19.63 98.54 21.44 C 97.57 25.26 97.82 29.27 97.58 33.18 C 93.61 32.83 89.78 31.71 86.17 30.03 C 83.34 31.30 80.16 33.89 76.99 32.08 C 73.79 30.92 74.71 27.05 74.22 24.41 C 74.22 20.01 70.49 16.65 70.35 12.36 C 71.40 7.77 77.29 8.83 80.79 7.85 C 78.31 8.92 75.67 9.91 73.74 11.86 C 71.74 14.17 73.82 16.97 74.79 19.22 C 76.79 23.00 77.25 27.33 78.90 31.24 C 80.34 30.74 81.72 30.11 83.13 29.53 C 87.45 27.34 91.94 29.78 96.07 31.16 C 96.59 27.30 97.02 23.44 97.44 19.57 C 98.68 18.61 99.92 17.65 101.13 16.65 C 101.06 14.41 100.99 11.54 98.39 10.76 C 93.54 8.53 89.50 5.02 85.75 1.29 C 84.83 3.21 83.95 5.14 82.97 7.02 L 82.24 7.32 C 82.37 4.88 82.53 2.44 82.69 0.00 Z" />
</g>
<g id="#694e3b6d">
<path fill="#694e3b" opacity="0.43" d=" M 82.97 7.02 C 83.95 5.14 84.83 3.21 85.75 1.29 C 89.50 5.02 93.54 8.53 98.39 10.76 C 100.99 11.54 101.06 14.41 101.13 16.65 C 99.65 14.95 98.14 13.24 96.43 11.75 C 92.65 9.52 89.13 6.88 85.89 3.90 C 84.92 4.94 83.95 5.99 82.97 7.02 Z" />
</g>
<g id="#ab805bb2">
<path fill="#ab805b" opacity="0.70" d=" M 82.97 7.02 C 83.95 5.99 84.92 4.94 85.89 3.90 C 89.13 6.88 92.65 9.52 96.43 11.75 C 96.61 12.26 96.96 13.28 97.13 13.80 C 95.77 13.76 94.41 13.72 93.05 13.71 C 90.96 10.74 88.43 8.13 85.69 5.77 C 84.30 8.34 82.93 10.92 81.60 13.52 C 79.68 13.46 77.77 13.42 75.86 13.38 C 76.15 13.07 76.72 12.44 77.01 12.13 C 79.04 10.47 81.18 8.94 82.97 7.02 Z" />
</g>
<g id="#f8d39efa">
<path fill="#f8d39e" opacity="0.98" d=" M 85.69 5.77 C 88.43 8.13 90.96 10.74 93.05 13.71 C 89.23 13.73 85.41 13.69 81.60 13.52 C 82.93 10.92 84.30 8.34 85.69 5.77 Z" />
</g>
<g id="#5f3f2969">
<path fill="#5f3f29" opacity="0.41" d=" M 82.24 7.32 L 82.97 7.02 C 81.18 8.94 79.04 10.47 77.01 12.13 C 75.75 13.13 74.50 14.14 73.28 15.19 C 76.56 18.46 78.04 22.81 79.05 27.21 C 79.14 29.38 81.61 29.07 83.13 29.53 C 81.72 30.11 80.34 30.74 78.90 31.24 C 77.25 27.33 76.79 23.00 74.79 19.22 C 73.82 16.97 71.74 14.17 73.74 11.86 C 75.67 9.91 78.31 8.92 80.79 7.85 C 81.15 7.72 81.87 7.45 82.24 7.32 Z" />
</g>
<g id="#5d3d2963">
<path fill="#5d3d29" opacity="0.39" d=" M 49.94 13.93 C 51.82 11.91 54.92 12.37 56.61 14.38 C 61.91 19.91 63.62 27.80 68.21 33.82 C 69.82 35.86 72.63 35.94 74.98 36.33 C 81.13 37.07 87.76 37.43 93.04 41.04 C 95.50 42.42 94.62 45.69 93.64 47.75 C 90.18 53.82 83.59 57.32 79.95 63.24 C 78.93 66.34 79.58 69.68 79.74 72.87 C 78.83 71.75 77.99 70.58 77.28 69.32 C 77.12 58.66 89.25 54.72 92.87 45.81 C 93.39 44.12 92.98 41.50 90.87 41.24 C 84.14 39.03 77.08 38.09 70.12 36.86 C 68.74 36.39 67.57 35.45 66.69 34.29 C 62.25 28.45 60.28 21.05 55.41 15.51 C 54.28 13.96 51.76 14.02 50.65 15.57 C 45.83 21.16 43.94 28.62 39.41 34.42 C 37.22 37.08 33.48 37.21 30.37 37.94 C 25.73 38.69 21.27 40.20 16.83 41.68 C 16.17 41.69 14.85 41.71 14.20 41.73 L 14.22 41.96 C 14.44 43.93 14.66 45.90 15.08 47.84 C 19.04 52.31 23.67 56.15 27.48 60.75 L 27.49 61.96 C 22.15 59.81 19.02 54.78 14.84 51.11 C 12.50 48.71 9.09 46.32 9.34 42.56 C 15.44 38.57 22.80 36.83 30.01 36.39 C 32.70 36.03 35.94 36.16 37.87 33.91 C 42.82 27.84 44.11 19.35 49.94 13.93 Z" />
</g>
<g id="#7c492a94">
<path fill="#7c492a" opacity="0.58" d=" M 73.28 15.19 C 74.50 14.14 75.75 13.13 77.01 12.13 C 76.72 12.44 76.15 13.07 75.86 13.38 C 76.22 15.56 77.30 17.49 78.64 19.20 C 79.18 21.68 79.48 24.22 80.32 26.62 C 84.77 26.92 89.45 27.22 93.77 25.92 C 94.44 24.10 94.61 22.14 94.91 20.23 C 96.02 18.24 97.26 16.17 97.13 13.80 C 96.96 13.28 96.61 12.26 96.43 11.75 C 98.14 13.24 99.65 14.95 101.13 16.65 C 99.92 17.65 98.68 18.61 97.44 19.57 C 97.02 23.44 96.59 27.30 96.07 31.16 C 91.94 29.78 87.45 27.34 83.13 29.53 C 81.61 29.07 79.14 29.38 79.05 27.21 C 78.04 22.81 76.56 18.46 73.28 15.19 Z" />
</g>
<g id="#ce861dfe">
<path fill="#ce861d" opacity="1.00" d=" M 75.86 13.38 C 77.77 13.42 79.68 13.46 81.60 13.52 C 85.41 13.69 89.23 13.73 93.05 13.71 C 94.41 13.72 95.77 13.76 97.13 13.80 C 97.26 16.17 96.02 18.24 94.91 20.23 C 89.64 18.61 84.07 18.24 78.64 19.20 C 77.30 17.49 76.22 15.56 75.86 13.38 Z" />
</g>
<g id="#a4653caa">
<path fill="#a4653c" opacity="0.67" d=" M 50.65 15.57 C 51.76 14.02 54.28 13.96 55.41 15.51 C 60.28 21.05 62.25 28.45 66.69 34.29 C 67.57 35.45 68.74 36.39 70.12 36.86 C 77.35 39.52 84.99 40.77 92.45 42.58 C 91.05 52.00 80.12 55.24 77.01 63.82 C 75.84 64.53 74.68 65.25 73.52 65.99 L 73.99 64.97 C 77.16 58.10 83.64 53.66 88.47 48.03 C 89.37 47.04 90.39 46.13 91.09 44.98 C 90.36 42.53 86.87 43.21 84.84 42.49 C 77.55 41.51 70.31 39.76 63.78 36.29 C 62.46 31.29 59.97 26.72 57.56 22.18 C 57.26 21.67 56.67 20.63 56.37 20.11 C 55.52 18.68 54.68 17.25 53.84 15.82 C 52.26 17.13 50.70 18.47 49.23 19.90 L 48.91 20.53 C 46.14 26.15 42.82 31.52 40.97 37.55 C 33.26 40.35 25.05 41.83 16.83 41.68 C 21.27 40.20 25.73 38.69 30.37 37.94 C 33.48 37.21 37.22 37.08 39.41 34.42 C 43.94 28.62 45.83 21.16 50.65 15.57 Z" />
</g>
<g id="#f3bc7efa">
<path fill="#f3bc7e" opacity="0.98" d=" M 49.23 19.90 C 50.70 18.47 52.26 17.13 53.84 15.82 C 54.68 17.25 55.52 18.68 56.37 20.11 C 55.71 22.35 55.04 24.59 54.33 26.81 C 52.09 24.96 50.39 22.56 49.23 19.90 Z" />
</g>
<g id="#a54f03fe">
<path fill="#a54f03" opacity="1.00" d=" M 78.64 19.20 C 84.07 18.24 89.64 18.61 94.91 20.23 C 94.61 22.14 94.44 24.10 93.77 25.92 C 89.45 27.22 84.77 26.92 80.32 26.62 C 79.48 24.22 79.18 21.68 78.64 19.20 Z" />
</g>
<g id="#eb970cfe">
<path fill="#eb970c" opacity="1.00" d=" M 40.97 37.55 C 42.82 31.52 46.14 26.15 48.91 20.53 C 49.36 23.07 49.29 27.02 52.20 27.95 C 55.70 28.89 56.16 24.34 57.56 22.18 C 59.97 26.72 62.46 31.29 63.78 36.29 C 61.05 40.25 64.91 45.18 69.01 45.92 C 73.64 46.82 78.39 46.48 83.08 46.48 C 76.94 47.74 70.09 48.38 64.29 45.59 C 59.43 41.81 57.00 35.85 53.01 31.27 C 49.05 35.89 46.59 41.84 41.72 45.62 C 35.82 48.60 28.92 47.04 22.59 46.90 C 23.06 46.84 24.00 46.73 24.47 46.67 C 29.40 46.29 34.59 47.07 39.30 45.30 C 40.80 43.84 41.77 41.95 42.94 40.24 C 42.45 39.57 41.46 38.22 40.97 37.55 Z" />
</g>
<g id="#eca63ff6">
<path fill="#eca63f" opacity="0.96" d=" M 48.91 20.53 L 49.23 19.90 C 50.39 22.56 52.09 24.96 54.33 26.81 C 55.04 24.59 55.71 22.35 56.37 20.11 C 56.67 20.63 57.26 21.67 57.56 22.18 C 56.16 24.34 55.70 28.89 52.20 27.95 C 49.29 27.02 49.36 23.07 48.91 20.53 Z" />
</g>
<g id="#c77701ff">
<path fill="#c77701" opacity="1.00" d=" M 41.72 45.62 C 46.59 41.84 49.05 35.89 53.01 31.27 C 57.00 35.85 59.43 41.81 64.29 45.59 C 70.09 48.38 76.94 47.74 83.08 46.48 C 83.69 45.16 84.28 43.83 84.84 42.49 C 86.87 43.21 90.36 42.53 91.09 44.98 C 90.39 46.13 89.37 47.04 88.47 48.03 C 80.36 47.05 73.10 52.09 68.41 58.27 C 64.42 54.07 60.70 49.49 55.98 46.06 C 53.80 44.37 50.83 45.34 48.93 46.97 C 45.02 50.19 41.76 54.14 37.67 57.16 C 33.60 52.04 27.38 49.71 21.65 47.01 L 22.59 46.90 C 28.92 47.04 35.82 48.60 41.72 45.62 Z" />
</g>
<g id="#f6c485fd">
<path fill="#f6c485" opacity="1.00" d=" M 69.01 45.92 C 64.91 45.18 61.05 40.25 63.78 36.29 C 70.31 39.76 77.55 41.51 84.84 42.49 C 84.28 43.83 83.69 45.16 83.08 46.48 C 78.39 46.48 73.64 46.82 69.01 45.92 Z" />
</g>
<g id="#70300b88">
<path fill="#70300b" opacity="0.53" d=" M 70.12 36.86 C 77.08 38.09 84.14 39.03 90.87 41.24 C 92.98 41.50 93.39 44.12 92.87 45.81 C 89.25 54.72 77.12 58.66 77.28 69.32 L 76.90 68.59 C 76.88 67.00 76.91 65.41 77.01 63.82 C 80.12 55.24 91.05 52.00 92.45 42.58 C 84.99 40.77 77.35 39.52 70.12 36.86 Z" />
<path fill="#70300b" opacity="0.53" d=" M 27.48 60.75 L 27.97 61.42 C 30.55 65.10 29.65 69.80 29.41 73.97 C 28.76 79.56 28.42 85.19 28.99 90.80 C 30.09 90.60 31.20 90.40 32.31 90.21 C 32.31 89.77 32.30 88.91 32.29 88.47 C 40.42 87.15 47.05 79.92 55.74 81.98 C 58.02 82.54 60.27 83.25 62.50 83.99 C 62.84 84.53 63.53 85.60 63.88 86.14 C 58.94 84.68 53.52 82.30 48.41 84.37 C 42.83 86.54 37.87 90.00 32.34 92.28 C 30.28 92.99 26.90 93.31 26.64 90.37 C 25.48 80.91 28.11 71.46 27.49 61.96 L 27.48 60.75 Z" />
</g>
<g id="#f6c181fc">
<path fill="#f6c181" opacity="1.00" d=" M 16.83 41.68 C 25.05 41.83 33.26 40.35 40.97 37.55 C 41.46 38.22 42.45 39.57 42.94 40.24 C 41.77 41.95 40.80 43.84 39.30 45.30 C 34.59 47.07 29.40 46.29 24.47 46.67 C 22.93 45.85 21.42 44.98 19.90 44.12 C 20.94 43.37 21.97 42.63 23.01 41.88 C 20.08 41.80 17.15 41.79 14.22 41.96 L 14.20 41.73 C 14.85 41.71 16.17 41.69 16.83 41.68 Z" />
</g>
<g id="#e07623fc">
<path fill="#e07623" opacity="1.00" d=" M 14.22 41.96 C 17.15 41.79 20.08 41.80 23.01 41.88 C 21.97 42.63 20.94 43.37 19.90 44.12 C 21.42 44.98 22.93 45.85 24.47 46.67 C 24.00 46.73 23.06 46.84 22.59 46.90 L 21.65 47.01 C 19.46 47.29 17.27 47.59 15.08 47.84 C 14.66 45.90 14.44 43.93 14.22 41.96 Z" />
</g>
<g id="#9b713cff">
<path fill="#9b713c" opacity="1.00" d=" M 48.93 46.97 C 50.83 45.34 53.80 44.37 55.98 46.06 C 60.70 49.49 64.42 54.07 68.41 58.27 C 70.33 60.46 72.24 62.65 73.99 64.97 L 73.52 65.99 L 72.67 66.56 C 72.36 66.41 71.74 66.10 71.43 65.94 C 65.33 59.82 59.51 53.41 53.06 47.65 C 49.36 51.15 45.12 54.24 42.35 58.59 C 40.91 60.35 42.53 62.42 43.19 64.16 C 43.87 65.10 44.58 66.01 45.32 66.90 C 48.04 70.16 51.05 73.18 54.15 76.07 C 54.30 77.20 54.44 78.33 54.59 79.46 C 52.22 77.75 50.12 75.71 48.08 73.64 C 45.07 70.41 41.67 67.53 38.96 64.02 C 37.38 62.10 37.74 59.47 37.67 57.16 C 41.76 54.14 45.02 50.19 48.93 46.97 Z" />
</g>
<g id="#b45b04fc">
<path fill="#b45b04" opacity="1.00" d=" M 15.08 47.84 C 17.27 47.59 19.46 47.29 21.65 47.01 C 27.38 49.71 33.60 52.04 37.67 57.16 C 37.74 59.47 37.38 62.10 38.96 64.02 C 41.67 67.53 45.07 70.41 48.08 73.64 C 43.75 75.55 39.17 76.92 34.99 79.16 C 31.62 80.91 32.66 85.36 32.29 88.47 C 32.30 88.91 32.31 89.77 32.31 90.21 C 31.20 90.40 30.09 90.60 28.99 90.80 C 28.42 85.19 28.76 79.56 29.41 73.97 C 29.65 69.80 30.55 65.10 27.97 61.42 L 27.48 60.75 C 23.67 56.15 19.04 52.31 15.08 47.84 Z" />
</g>
<g id="#a85a01fe">
<path fill="#a85a01" opacity="1.00" d=" M 68.41 58.27 C 73.10 52.09 80.36 47.05 88.47 48.03 C 83.64 53.66 77.16 58.10 73.99 64.97 C 72.24 62.65 70.33 60.46 68.41 58.27 Z" />
</g>
<g id="#5e6978ff">
<path fill="#5e6978" opacity="1.00" d=" M 42.35 58.59 C 45.12 54.24 49.36 51.15 53.06 47.65 C 59.51 53.41 65.33 59.82 71.43 65.94 C 71.90 67.05 72.35 68.17 72.79 69.30 C 65.24 64.09 60.30 55.31 51.09 52.62 C 50.08 57.42 46.93 61.17 43.19 64.16 C 42.53 62.42 40.91 60.35 42.35 58.59 Z" />
</g>
<g id="#76828eff">
<path fill="#76828e" opacity="1.00" d=" M 51.09 52.62 C 60.30 55.31 65.24 64.09 72.79 69.30 C 73.21 70.36 73.62 71.41 74.04 72.47 C 72.01 72.98 69.98 73.46 67.98 74.05 C 69.11 73.08 70.23 72.08 71.34 71.08 C 66.31 66.32 62.34 59.97 55.94 56.96 C 50.84 57.82 47.99 62.95 45.32 66.90 C 44.58 66.01 43.87 65.10 43.19 64.16 C 46.93 61.17 50.08 57.42 51.09 52.62 Z" />
</g>
<g id="#949dadff">
<path fill="#949dad" opacity="1.00" d=" M 45.32 66.90 C 47.99 62.95 50.84 57.82 55.94 56.96 C 62.34 59.97 66.31 66.32 71.34 71.08 C 70.23 72.08 69.11 73.08 67.98 74.05 C 64.98 76.52 62.15 79.18 59.32 81.83 C 57.70 81.12 56.12 80.34 54.59 79.46 C 54.44 78.33 54.30 77.20 54.15 76.07 C 51.05 73.18 48.04 70.16 45.32 66.90 M 48.24 66.04 C 50.95 70.71 55.04 74.54 59.35 77.73 C 63.71 78.73 65.09 73.06 67.06 70.27 C 64.02 67.58 61.47 64.16 57.77 62.32 C 54.32 62.31 50.63 63.44 48.24 66.04 Z" />
</g>
<g id="#a4b6cdff">
<path fill="#a4b6cd" opacity="1.00" d=" M 48.24 66.04 C 50.63 63.44 54.32 62.31 57.77 62.32 C 61.47 64.16 64.02 67.58 67.06 70.27 C 65.09 73.06 63.71 78.73 59.35 77.73 C 55.04 74.54 50.95 70.71 48.24 66.04 Z" />
</g>
<g id="#7a5d4eae">
<path fill="#7a5d4e" opacity="0.68" d=" M 73.52 65.99 C 74.68 65.25 75.84 64.53 77.01 63.82 C 76.91 65.41 76.88 67.00 76.90 68.59 C 76.90 69.48 76.90 71.25 76.90 72.14 C 75.55 70.24 74.23 68.31 72.67 66.56 L 73.52 65.99 Z" />
</g>
<g id="#666666f9">
<path fill="#666666" opacity="0.98" d=" M 71.43 65.94 C 71.74 66.10 72.36 66.41 72.67 66.56 C 74.23 68.31 75.55 70.24 76.90 72.14 C 78.55 74.44 80.47 76.54 82.48 78.53 C 94.94 90.73 107.19 103.15 119.60 115.42 C 122.97 118.64 125.79 123.01 130.60 124.16 C 130.01 125.78 129.43 127.41 128.85 129.04 C 121.53 126.76 117.20 120.14 111.92 115.09 C 100.42 103.93 89.02 92.68 77.87 81.17 C 75.74 79.16 73.89 76.42 70.99 75.56 C 66.80 76.73 64.27 80.93 60.12 82.16 L 59.32 81.83 C 62.15 79.18 64.98 76.52 67.98 74.05 C 69.98 73.46 72.01 72.98 74.04 72.47 C 73.62 71.41 73.21 70.36 72.79 69.30 C 72.35 68.17 71.90 67.05 71.43 65.94 Z" />
</g>
<g id="#4040408c">
<path fill="#404040" opacity="0.55" d=" M 76.90 68.59 L 77.28 69.32 C 77.99 70.58 78.83 71.75 79.74 72.87 C 91.82 83.56 102.47 95.74 114.28 106.73 C 119.47 112.78 126.23 117.40 130.60 124.16 C 125.79 123.01 122.97 118.64 119.60 115.42 C 107.19 103.15 94.94 90.73 82.48 78.53 C 80.47 76.54 78.55 74.44 76.90 72.14 C 76.90 71.25 76.90 69.48 76.90 68.59 Z" />
</g>
<g id="#a84b02fc">
<path fill="#a84b02" opacity="1.00" d=" M 34.99 79.16 C 39.17 76.92 43.75 75.55 48.08 73.64 C 50.12 75.71 52.22 77.75 54.59 79.46 C 56.12 80.34 57.70 81.12 59.32 81.83 L 60.12 82.16 C 58.66 82.16 57.20 82.10 55.74 81.98 C 47.05 79.92 40.42 87.15 32.29 88.47 C 32.66 85.36 31.62 80.91 34.99 79.16 Z" />
</g>
<g id="#2d2c2bf5">
<path fill="#2d2c2b" opacity="0.96" d=" M 60.12 82.16 C 64.27 80.93 66.80 76.73 70.99 75.56 C 73.89 76.42 75.74 79.16 77.87 81.17 C 89.02 92.68 100.42 103.93 111.92 115.09 C 117.20 120.14 121.53 126.76 128.85 129.04 C 129.43 127.41 130.01 125.78 130.60 124.16 C 131.52 125.14 132.50 126.06 133.47 126.99 C 133.50 127.71 133.56 129.14 133.59 129.85 C 132.78 130.03 131.15 130.37 130.34 130.55 C 130.16 131.90 129.98 133.26 129.82 134.62 C 126.54 136.81 123.47 140.96 119.13 140.31 C 114.02 137.28 110.57 132.15 106.16 128.23 L 105.84 127.39 C 111.81 128.73 114.15 135.23 119.35 137.73 C 123.30 138.67 125.89 134.54 128.61 132.41 C 125.08 129.97 121.44 127.65 118.32 124.69 C 102.49 108.83 86.70 92.90 70.73 77.17 C 69.06 78.31 67.25 79.29 65.86 80.78 C 65.19 82.77 65.12 84.89 64.89 86.96 C 64.64 86.75 64.13 86.34 63.88 86.14 C 63.53 85.60 62.84 84.53 62.50 83.99 C 60.27 83.25 58.02 82.54 55.74 81.98 C 57.20 82.10 58.66 82.16 60.12 82.16 Z" />
</g>
<g id="#010101fe">
<path fill="#010101" opacity="1.00" d=" M 65.86 80.78 C 67.25 79.29 69.06 78.31 70.73 77.17 C 86.70 92.90 102.49 108.83 118.32 124.69 C 121.44 127.65 125.08 129.97 128.61 132.41 C 125.89 134.54 123.30 138.67 119.35 137.73 C 114.15 135.23 111.81 128.73 105.84 127.39 L 105.04 127.19 C 98.07 119.42 90.93 111.80 83.26 104.71 C 76.99 98.95 71.78 92.06 64.89 86.96 C 65.12 84.89 65.19 82.77 65.86 80.78 Z" />
</g>
<g id="#422e1e4b">
<path fill="#422e1e" opacity="0.29" d=" M 37.53 94.31 C 39.94 93.79 42.52 92.20 44.98 93.04 C 46.55 94.97 47.32 97.39 48.68 99.46 C 51.77 100.65 55.17 100.70 58.28 101.84 C 59.42 106.38 56.14 110.30 54.03 113.99 C 54.49 117.57 55.37 122.40 51.46 124.44 C 47.97 125.31 45.30 121.97 42.01 121.47 C 39.04 122.11 36.59 124.65 33.49 124.55 C 29.92 122.14 31.76 116.88 31.10 113.21 C 28.30 111.06 25.58 108.07 26.42 104.22 C 26.50 99.71 32.08 100.67 35.12 100.16 C 35.95 98.21 36.75 96.26 37.53 94.31 M 36.43 102.38 C 34.07 102.54 31.70 102.70 29.35 102.90 C 29.57 106.12 30.85 109.10 32.53 111.83 L 32.56 111.26 C 33.16 114.03 33.45 116.87 33.61 119.70 C 39.25 119.38 44.91 119.35 50.54 119.74 C 50.48 116.05 49.90 111.89 53.07 109.22 L 53.81 109.94 C 54.04 107.92 54.80 105.93 54.54 103.89 C 52.61 102.04 49.77 102.59 47.34 102.37 C 46.56 100.72 45.83 99.05 45.15 97.35 C 41.19 96.57 38.64 99.57 36.43 102.38 Z" />
</g>
<g id="#f6cc91f8">
<path fill="#f6cc91" opacity="0.97" d=" M 36.43 102.38 C 38.64 99.57 41.19 96.57 45.15 97.35 C 45.83 99.05 46.56 100.72 47.34 102.37 C 47.42 103.54 47.49 104.71 47.57 105.88 C 43.90 105.95 40.23 105.96 36.56 105.93 C 36.52 104.75 36.47 103.56 36.43 102.38 Z" />
</g>
<g id="#c88647de">
<path fill="#c88647" opacity="0.87" d=" M 29.35 102.90 C 31.70 102.70 34.07 102.54 36.43 102.38 C 36.47 103.56 36.52 104.75 36.56 105.93 C 40.23 105.96 43.90 105.95 47.57 105.88 C 47.49 104.71 47.42 103.54 47.34 102.37 C 49.77 102.59 52.61 102.04 54.54 103.89 C 54.80 105.93 54.04 107.92 53.81 109.94 L 53.07 109.22 C 52.88 108.74 52.52 107.79 52.34 107.31 C 45.63 107.69 38.90 107.43 32.18 107.20 C 32.28 108.56 32.42 109.91 32.56 111.26 L 32.53 111.83 C 30.85 109.10 29.57 106.12 29.35 102.90 Z" />
</g>
<g id="#c0700bfe">
<path fill="#c0700b" opacity="1.00" d=" M 32.18 107.20 C 38.90 107.43 45.63 107.69 52.34 107.31 C 52.52 107.79 52.88 108.74 53.07 109.22 C 49.90 111.89 50.48 116.05 50.54 119.74 C 44.91 119.35 39.25 119.38 33.61 119.70 C 33.45 116.87 33.16 114.03 32.56 111.26 C 32.42 109.91 32.28 108.56 32.18 107.20 M 33.95 111.27 C 33.87 113.89 33.85 116.50 33.81 119.12 C 39.30 119.41 44.80 119.45 50.29 119.19 C 50.24 116.44 50.24 113.70 50.18 110.95 C 44.76 110.81 39.35 110.99 33.95 111.27 Z" />
</g>
<g id="#a4520cf9">
<path fill="#a4520c" opacity="0.98" d=" M 33.95 111.27 C 39.35 110.99 44.76 110.81 50.18 110.95 C 50.24 113.70 50.24 116.44 50.29 119.19 C 44.80 119.45 39.30 119.41 33.81 119.12 C 33.85 116.50 33.87 113.89 33.95 111.27 Z" />
</g>
<g id="#888888a1">
<path fill="#888888" opacity="0.63" d=" M 95.98 134.05 C 98.38 131.04 101.65 128.92 105.04 127.19 L 105.84 127.39 L 106.16 128.23 C 106.31 128.64 106.61 129.46 106.76 129.87 C 104.23 131.22 101.50 132.36 99.45 134.43 C 97.65 136.07 97.83 138.93 99.01 140.88 C 104.73 143.17 111.11 143.43 117.21 143.09 C 118.41 142.99 119.62 142.89 120.82 142.79 C 119.68 144.52 118.55 146.26 117.42 148.00 L 112.08 148.00 C 108.42 144.08 103.13 143.35 98.08 142.89 C 95.76 140.82 92.89 136.65 95.98 134.05 Z" />
</g>
<g id="#949494f6">
<path fill="#949494" opacity="0.96" d=" M 106.16 128.23 C 110.57 132.15 114.02 137.28 119.13 140.31 C 123.47 140.96 126.54 136.81 129.82 134.62 C 129.54 137.14 129.33 139.66 129.07 142.18 C 126.32 142.40 123.57 142.57 120.82 142.79 C 119.62 142.89 118.41 142.99 117.21 143.09 C 114.08 138.40 109.72 134.67 106.76 129.87 C 106.61 129.46 106.31 128.64 106.16 128.23 Z" />
</g>
<g id="#5c5c5c72">
<path fill="#5c5c5c" opacity="0.45" d=" M 130.34 130.55 C 131.15 130.37 132.78 130.03 133.59 129.85 C 133.70 133.99 134.23 138.71 131.24 142.07 C 129.46 144.53 126.12 144.36 123.44 144.88 C 123.55 145.92 123.65 146.96 123.77 148.00 L 117.42 148.00 C 118.55 146.26 119.68 144.52 120.82 142.79 C 123.57 142.57 126.32 142.40 129.07 142.18 C 129.33 139.66 129.54 137.14 129.82 134.62 C 129.98 133.26 130.16 131.90 130.34 130.55 Z" />
</g>
<g id="#a9a9a9fe">
<path fill="#a9a9a9" opacity="1.00" d=" M 99.45 134.43 C 101.50 132.36 104.23 131.22 106.76 129.87 C 109.72 134.67 114.08 138.40 117.21 143.09 C 111.11 143.43 104.73 143.17 99.01 140.88 C 97.83 138.93 97.65 136.07 99.45 134.43 Z" />
</g>
<g id="#48484851">
<path fill="#484848" opacity="0.32" d=" M 98.08 142.89 C 103.13 143.35 108.42 144.08 112.08 148.00 L 104.23 148.00 C 102.12 146.37 100.06 144.67 98.08 142.89 Z" />
</g>
</svg>
