<?xml version="1.0" encoding="UTF-8" ?>
<!DOCTYPE svg PUBLIC "-//W3C//DTD SVG 1.1//EN" "http://www.w3.org/Graphics/SVG/1.1/DTD/svg11.dtd">
<svg width="32pt" height="32pt" viewBox="0 0 32 32" version="1.1" xmlns="http://www.w3.org/2000/svg">
<g id="#0e80d7f1">
<path fill="#0e80d7" opacity="0.95" d=" M 7.33 4.22 C 14.92 4.16 22.52 4.11 30.11 4.26 C 29.11 11.81 27.47 19.26 26.29 26.79 C 17.54 26.75 8.76 27.07 0.02 26.61 C 2.99 19.34 4.95 11.70 7.33 4.22 M 8.77 6.04 C 8.18 7.65 7.65 9.28 7.16 10.92 C 8.97 10.93 10.77 10.93 12.57 10.93 C 13.01 9.34 13.45 7.74 13.90 6.14 C 12.19 6.12 10.48 6.09 8.77 6.04 M 15.65 6.19 C 15.27 7.78 14.88 9.36 14.48 10.95 C 16.27 10.94 18.07 10.93 19.86 10.93 C 20.24 9.32 20.62 7.71 21.00 6.10 C 19.21 6.10 17.43 6.13 15.65 6.19 M 22.83 6.10 C 22.48 7.71 22.13 9.31 21.78 10.92 C 23.59 10.93 25.39 10.94 27.19 10.94 C 27.48 9.34 27.77 7.73 28.06 6.13 C 26.32 6.12 24.57 6.11 22.83 6.10 M 5.05 17.89 C 6.93 17.91 8.80 17.92 10.68 17.93 C 11.16 16.18 11.64 14.44 12.11 12.69 C 10.30 12.68 8.50 12.68 6.70 12.66 C 6.14 14.40 5.59 16.15 5.05 17.89 M 14.03 12.68 C 13.57 14.43 13.11 16.18 12.65 17.93 C 14.53 17.92 16.41 17.91 18.29 17.89 C 18.69 16.16 19.09 14.42 19.49 12.68 C 17.67 12.68 15.85 12.69 14.03 12.68 M 21.37 12.69 C 21.00 14.43 20.62 16.17 20.24 17.91 C 22.11 17.91 23.98 17.91 25.84 17.90 C 26.19 16.17 26.53 14.42 26.87 12.68 C 25.04 12.68 23.20 12.69 21.37 12.69 M 2.95 24.91 C 4.89 24.93 6.84 24.93 8.78 24.93 C 9.25 23.23 9.70 21.52 10.14 19.82 C 8.31 19.80 6.48 19.77 4.66 19.73 C 4.01 21.43 3.44 23.16 2.95 24.91 M 12.21 19.81 C 11.73 21.51 11.27 23.20 10.82 24.91 C 12.77 24.92 14.72 24.93 16.67 24.94 C 17.12 23.22 17.48 21.48 17.70 19.73 C 15.87 19.77 14.04 19.79 12.21 19.81 M 19.85 19.80 C 19.46 21.51 19.08 23.22 18.70 24.93 C 20.65 24.93 22.59 24.93 24.54 24.92 C 24.87 23.21 25.20 21.51 25.54 19.80 C 23.64 19.80 21.74 19.80 19.85 19.80 Z" />
</g>
</svg>
