<?xml version="1.0" encoding="UTF-8" standalone="no"?>
<!-- Created with Inkscape (http://www.inkscape.org/) -->

<svg
   xmlns:dc="http://purl.org/dc/elements/1.1/"
   xmlns:cc="http://creativecommons.org/ns#"
   xmlns:rdf="http://www.w3.org/1999/02/22-rdf-syntax-ns#"
   xmlns:svg="http://www.w3.org/2000/svg"
   xmlns="http://www.w3.org/2000/svg"
   xmlns:xlink="http://www.w3.org/1999/xlink"
   xmlns:sodipodi="http://sodipodi.sourceforge.net/DTD/sodipodi-0.dtd"
   xmlns:inkscape="http://www.inkscape.org/namespaces/inkscape"
   version="1.1"
   width="32pt"
   height="32pt"
   viewBox="0 0 32 32"
   id="svg2"
   inkscape:version="0.47pre1"
   sodipodi:docname="portal.svg"
   inkscape:output_extension="org.inkscape.output.svg.inkscape">
  <metadata
     id="metadata19">
    <rdf:RDF>
      <cc:Work
         rdf:about="">
        <dc:format>image/svg+xml</dc:format>
        <dc:type
           rdf:resource="http://purl.org/dc/dcmitype/StillImage" />
        <dc:title />
      </cc:Work>
    </rdf:RDF>
  </metadata>
  <sodipodi:namedview
     pagecolor="#ffffff"
     bordercolor="#666666"
     borderopacity="1"
     objecttolerance="10"
     gridtolerance="10"
     guidetolerance="10"
     inkscape:pageopacity="0"
     inkscape:pageshadow="2"
     inkscape:window-width="1280"
     inkscape:window-height="750"
     id="namedview17"
     showgrid="false"
     inkscape:zoom="6.925"
     inkscape:cx="-2.5270758"
     inkscape:cy="20"
     inkscape:window-x="-8"
     inkscape:window-y="-8"
     inkscape:window-maximized="1"
     inkscape:current-layer="svg2" />
  <defs
     id="defs24">
    <linearGradient
       inkscape:collect="always"
       id="linearGradient3671">
      <stop
         style="stop-color:#000000;stop-opacity:1;"
         offset="0"
         id="stop3673" />
      <stop
         style="stop-color:#000000;stop-opacity:0;"
         offset="1"
         id="stop3675" />
    </linearGradient>
    <inkscape:perspective
       sodipodi:type="inkscape:persp3d"
       inkscape:vp_x="0 : 20 : 1"
       inkscape:vp_y="0 : 1000 : 0"
       inkscape:vp_z="40 : 20 : 1"
       inkscape:persp3d-origin="20 : 13.333333 : 1"
       id="perspective21" />
    <linearGradient
       id="linearGradient3700">
      <stop
         id="stop3702"
         style="stop-color:#ffff00;stop-opacity:1"
         offset="0" />
      <stop
         id="stop3710"
         style="stop-color:#ff8b00;stop-opacity:0.49803922"
         offset="1" />
      <stop
         id="stop3704"
         style="stop-color:#ffff00;stop-opacity:0"
         offset="1" />
    </linearGradient>
    <linearGradient
       id="linearGradient3672">
      <stop
         id="stop3674"
         style="stop-color:#999999;stop-opacity:1"
         offset="0" />
      <stop
         id="stop3676"
         style="stop-color:#999999;stop-opacity:0"
         offset="1" />
    </linearGradient>
    <radialGradient
       cx="16.538782"
       cy="15.271996"
       r="14.536601"
       fx="16.538782"
       fy="15.271996"
       id="radialGradient3698"
       xlink:href="#linearGradient3672"
       gradientUnits="userSpaceOnUse"
       gradientTransform="matrix(1,0,0,0.99070253,0,0.14199092)" />
    <linearGradient
       x1="3.5359542"
       y1="16.130959"
       x2="27.693766"
       y2="16.130959"
       id="linearGradient3708"
       xlink:href="#linearGradient3700"
       gradientUnits="userSpaceOnUse" />
    <radialGradient
       inkscape:collect="always"
       xlink:href="#linearGradient3671"
       id="radialGradient3679"
       cx="19.783394"
       cy="20.361012"
       fx="19.783394"
       fy="20.361012"
       r="10.480686"
       gradientTransform="matrix(0.656821,0,0,0.82797404,3.9300394,-1.2627199)"
       gradientUnits="userSpaceOnUse"
       spreadMethod="reflect" />
    <filter
       inkscape:collect="always"
       id="filter3737"
       x="-0.14363533"
       width="1.2872707"
       y="-0.11010784"
       height="1.2202157">
      <feGaussianBlur
         inkscape:collect="always"
         stdDeviation="0.74929226"
         id="feGaussianBlur3739" />
    </filter>
    <filter
       inkscape:collect="always"
       id="filter3753">
      <feGaussianBlur
         inkscape:collect="always"
         stdDeviation="0.63463314"
         id="feGaussianBlur3755" />
    </filter>
  </defs>
  <path
     d="m 14.367792,23.292525 c 0.03359,-0.133052 0.102404,-0.26194 0.100779,-0.39916 -0.0061,-0.515196 -0.10057,-0.160053 -0.328139,-0.348153 -0.479316,-0.396184 -0.764142,-1.385356 -1.373695,-1.262265 -3.0881301,0.623604 -6.0771082,1.82471 -8.8467862,3.326148 -0.4776777,0.258948 -0.1719653,1.073009 -0.2579479,1.609514 -0.058516,0.160593 -0.032929,0.387578 -0.1755486,0.481779 -0.090218,0.05959 -0.158739,-0.155724 -0.2597608,-0.194256 -0.072918,-0.02782 -0.1626083,0.03731 -0.2340513,0.0059 C 2.8847847,26.464621 2.8162583,26.355417 2.7222649,26.284376 2.3410629,25.996261 2.5666658,26.322017 2.3284253,25.66918 2.1382258,25.028405 2.1376467,25.205047 2.1597507,24.497989 c 0.00509,-0.162808 0.041218,-0.323835 0.043733,-0.486703 0.00219,-0.142014 -0.022641,-0.283203 -0.029658,-0.425061 -0.011121,-0.224824 0.00525,-0.303856 0.025026,-0.551096 0.142354,0.734591 -0.2843482,-0.449181 -0.1800662,-0.382921 0.1704741,0.108319 0.09908,0.67218 0.2584178,0.54806 0.049667,-0.03869 -2.578e-4,-0.125915 -3.866e-4,-0.188874 -0.012537,-0.0529 -0.2767704,-0.608033 -0.0019,-0.722041 3.4381424,-1.426078 6.9315206,-2.716988 10.3645743,-4.155271 0.140123,-0.0587 0.192278,-0.243787 0.322472,-0.322081 0.422969,-0.254359 0.522578,0.0099 0.895424,0.268026 0.389242,0.488093 0.370349,0.498995 0.806636,0.917711 0.05768,0.05536 0.132585,0.09216 0.185349,0.152219 0.03759,0.04279 0.136561,0.161763 0.0807,0.150633 -0.548651,-0.109302 0.154317,-0.307549 -0.4096,-0.08918 -0.05163,0.02178 -0.101982,0.08376 -0.154894,0.06532 C 11.67603,18.339287 14.310736,16.883817 7.6988225,18.68638 5.6425777,19.24696 5.2850145,21.272109 4.5458168,22.784715 4.4496117,22.981577 4.3006631,23.147952 4.1780862,23.32957 4.032747,23.078738 4.0324146,23.504873 3.9849665,23.446469 3.9346825,23.384576 3.9469329,23.29094 3.9164121,23.217266 3.8782386,23.125119 3.8305169,23.036929 3.7797416,22.951079 3.3617177,22.244294 3.6601766,22.859465 3.34913,22.164551 3.1598597,22.024323 3.1551324,21.764394 3.0139245,21.595501 c -0.079056,-0.09456 -0.2413078,-0.106362 -0.3016504,-0.21383 -0.069394,-0.12359 -0.032727,-0.281672 -0.055152,-0.421626 -0.1604547,-1.001402 0.051395,0.666683 -0.1382394,-0.95469 -0.069886,-0.927402 -0.043146,-0.340039 -0.03879,-1.386462 8.88e-4,-0.212564 -0.012114,-0.425385 -0.00171,-0.637697 0.00572,-0.116763 0.048633,-0.230236 0.049949,-0.347131 0.016134,-1.433644 -0.1258761,0.333046 0.012707,-1.08466 0.061259,0.03135 0.153987,0.03202 0.183777,0.09405 0.099904,0.20803 0.1091781,0.449002 0.1821537,0.667936 0.047502,0.14251 0.117257,0.276629 0.1784231,0.413831 0.1101368,0.247048 0.1791331,0.518138 0.3354643,0.738871 2.0499245,2.894424 2.5842956,1.294598 7.8718172,1.625208 0.79701,-1.69206 1.763561,-3.314197 2.39103,-5.076176 0.148343,-0.41656 -0.141978,-0.880556 -0.112624,-1.321765 0.0128,-0.192367 0.111796,-0.380469 0.235705,-0.52817 0.337589,-0.402409 0.698246,-0.205264 1.121253,-0.04622 0.244737,0.09202 0.469385,0.230507 0.704078,0.345761 0.651594,0.304847 0.995012,0.444502 1.617975,0.824813 0.246177,0.150288 0.505146,0.289269 0.715456,0.486649 0.211405,0.198408 0.356197,0.457553 0.534332,0.686302 0.111896,0.14369 0.265313,0.26307 0.335763,0.431012 0.06987,0.16657 0.04695,0.3582 0.07043,0.5373 -0.08541,0.138436 -0.137987,0.303602 -0.25623,0.415307 -0.242576,0.229164 -0.734725,0.440667 -1.079091,0.375095 -0.551596,-0.10503 -1.081428,-0.685698 -1.609877,-0.495882 -7.6657227,2.75349 -6.8574171,1.31692 -7.7532251,5.582568 -0.069416,-0.01486 -0.15346,5.63e-4 -0.2082392,-0.04458 -0.063152,-0.05205 -0.084538,-0.141487 -0.1113464,-0.218807 -0.040344,-0.116347 -0.076248,-0.236087 -0.088852,-0.358583 -0.028744,-0.279356 0.1062677,-0.633709 -0.1000259,-0.889973 -0.053915,-0.06697 -0.1673739,0.03944 -0.2510608,0.05916 C 7.1158625,20.391201 6.6564121,20.02699 6.3155786,19.574538 6.1653321,19.375088 6.0400997,19.156905 5.9248352,18.93539 5.8039329,18.703041 5.6724271,18.470079 5.6086823,18.216032 5.5556913,18.004843 5.5899523,17.780965 5.5805863,17.563431 5.5226003,17.369527 5.4386523,17.181557 5.406629,16.981718 5.346503,16.606508 5.360554,16.006423 5.68265,15.718997 c 0.08711,-0.07774 0.2004363,-0.153928 0.3170744,-0.148798 0.1250179,0.0055 0.2206076,0.118199 0.3309114,0.177299 0.1568011,0.291415 0.5129476,0.223319 0.7360862,0.388077 0.2866705,0.211669 0.5070029,0.503716 0.7901246,0.720109 0.030254,0.02312 -0.034837,-0.121069 0.00262,-0.114207 1.731578,0.317203 3.6057514,1.863613 5.1732214,1.062354 2.109835,-1.078504 2.735718,-3.869643 4.103577,-5.804466 0.02826,-0.555826 -0.07878,-1.135502 0.08476,-1.667479 0.174373,-0.5672471 1.003277,-0.4640287 1.364927,-0.4501863 0.311506,0.01192 0.628165,0.01092 0.93155,0.082586 0.845972,0.1998313 1.130175,0.4595103 1.843644,0.9094223 0.234775,0.25404 0.519423,0.469773 0.704325,0.762121 0.33896,0.535924 0.343442,0.923252 0.126142,1.486709 -0.07842,0.203322 -0.183135,0.406431 -0.33836,0.55938 -0.157479,0.15517 -0.350873,0.354075 -0.57129,0.336932 -0.561555,-0.04368 -1.074653,-0.337831 -1.611979,-0.506746 -2.743921,1.519274 -5.724304,2.673692 -8.231762,4.557824 -0.492002,0.369696 -0.10288,1.233517 -0.265448,1.827076 -0.01998,0.07298 -0.166649,0.0042 -0.221952,-0.0475 -0.07973,-0.07444 -0.107936,-0.190938 -0.143788,-0.293958 -0.06246,-0.179465 -0.103145,-0.365824 -0.149921,-0.549998 -0.0679,-0.267313 -0.129364,-0.536216 -0.194045,-0.804323 -0.254219,-1.444217 -0.141586,-0.381735 -0.123567,-1.260973 0.003,-0.150135 0.0029,-0.300961 -0.0127,-0.450319 -0.0041,-0.03949 -0.01986,-0.14018 -0.04565,-0.109999 -0.4237232,0.495915 -0.0269,0.618848 -0.5753608,0.223705 -0.436712,-0.189562 -1.35064,-0.499448 -1.6503168,-0.87943 C 7.5478247,15.080525 7.6921111,14.349881 7.7921061,13.619149 8.0334814,12.747315 7.901543,12.898053 8.3909246,12.228208 8.4852866,12.09905 8.6436014,12.011413 8.7012918,11.862222 8.8023662,11.600842 8.5797542,11.100519 8.8522686,11.035165 19.180564,8.5582561 17.418009,6.3715424 19.766514,9.4548433 c 0.0055,-0.3472672 -0.08308,-1.1017528 0.235739,-1.4294352 0.09762,-0.1003352 0.273877,-0.058264 0.411504,-0.083863 0.247086,-0.04596 0.491599,-0.1446196 0.742542,-0.1307842 0.640304,0.035302 0.936644,0.325137 1.444584,0.6560562 0.805142,0.693416 0.576253,0.4332192 1.304771,1.3642488 0.151792,0.1939881 0.304404,0.3884191 0.435812,0.5967551 0.150025,0.237853 0.273161,0.491654 0.406773,0.739099 0.08498,0.157382 0.191816,0.305839 0.248971,0.475321 0.07818,0.231844 0.102261,0.478541 0.153393,0.71781 0.05965,0.816655 0.123072,0.31228 -0.09826,0.821523 -0.14121,0.324897 -0.04476,0.550898 -0.588682,0.333507 -0.454444,-0.18163 -0.805536,-0.744194 -1.292582,-0.696284 -2.521785,0.248062 -4.960697,1.036928 -7.441045,1.555392 -3.505048,-1.882476 -0.380305,3.020618 -1.541058,3.65152 -0.105715,0.05746 -0.203011,-0.12953 -0.308451,-0.187492 -0.462764,-0.254392 0.661967,0.548911 -0.466422,-0.37679 -0.121821,-0.09994 -0.257341,-0.181901 -0.386011,-0.272851 -0.985401,-0.429688 0.146145,0.09121 -1.176154,-0.654254 C 11.602906,16.393921 11.325875,16.304559 11.084656,16.151124 10.423016,15.730269 9.7456874,15.181621 9.3608546,14.476989 9.1791746,14.144332 9.1403578,13.751693 9.0301098,13.389045 8.852889,12.426965 8.7197354,12.255161 8.9234722,11.299449 8.9921602,10.977225 9.1404154,10.677225 9.2435978,10.364334 9.3301186,10.101965 9.4070474,9.8365101 9.4925386,9.5738037 9.5892938,9.2764813 9.7078882,8.9859245 9.790313,8.6843149 9.872461,8.3837205 9.9204194,8.0748125 9.985473,7.7700618 10.042889,7.4998593 10.100311,7.2296569 10.15773,6.9594545 10.221762,6.8517577 10.308141,6.7545214 10.349824,6.6363643 11.849383,2.3856981 1.2920641,5.896849 21.606901,4.9923059 c 2.598446,-0.115699 -1.129993,1.1288981 1.056219,0.29647 0.860647,0.2113858 1.682022,0.4676839 2.458108,0.9074038 0.268108,0.1519064 0.550165,0.2966164 0.768015,0.5145592 0.191103,0.1911847 0.278101,0.4640929 0.432211,0.6861788 0.150713,0.2171925 0.320889,0.4202136 0.481333,0.6303204 0.102091,0.3386288 0.386704,1.1675736 0.349767,1.5273304 -0.0357,0.3476696 -0.343164,0.7791675 -0.644155,0.9634085 -0.242967,0.148724 -0.500611,0.103814 -0.763484,0.09759 -0.115868,0.03879 -0.226,0.128312 -0.347603,0.11637 -0.206677,-0.0203 -0.389061,-0.145991 -0.587205,-0.208174 -0.114947,-0.03607 -0.432648,-0.17482 -0.350981,-0.08625 0.293545,0.318353 0.691403,0.522836 1.016897,0.808443 3.003143,2.635121 -5.815521,1.709683 -8.645035,2.269783 -0.106199,0.127784 -0.378778,0.797697 -0.637905,0.849979 -0.267552,0.05398 -0.05606,-0.07075 -0.318509,-0.147051 -0.07238,-0.02104 -0.149871,0.01626 -0.224806,0.0244 -0.101393,0.0581 -0.190537,0.20152 -0.304178,0.174291 -0.138661,-0.03322 -0.194262,-0.208833 -0.288084,-0.316203 -0.39827,-0.455775 -0.646983,-0.693165 -0.884488,-1.261596 -0.22336,-0.534576 -0.186081,-0.764288 -0.209492,-1.319632 0.07558,-0.283934 0.219005,-0.882024 0.355987,-1.128739 0.07472,-0.134582 0.205942,-0.228847 0.308914,-0.34327 0.09676,-0.1271691 0.214551,-0.2408011 0.290295,-0.3815067 0.21298,-0.3956376 0.293306,-0.935228 0.386949,-1.3529512 0.535456,-3.0486413 0.185994,-1.113509 0.140934,-0.834894 -0.01881,0.1163082 -0.03216,0.233466 -0.05154,0.3496795 -0.01021,0.061193 0.0054,0.1372017 -0.03721,0.1823593 -0.05533,0.058728 -0.133898,-0.099918 -0.170482,-0.1718326 -0.191957,-1.0472829 0.560458,-3.0215466 1.038286,-3.5991302 0.80158,-0.9689243 1.678111,-2.2308273 2.926693,-2.3804555 2.038548,-0.2442965 4.012547,0.8722922 6.018821,1.3084383 0.782862,0.7298532 0.619642,0.5590316 1.203446,1.1520258 0.07984,0.0811 0.143802,0.1806478 0.23742,0.2453611 0.03087,0.021339 0.31684,0.084774 0.357973,0.028162 0.02921,-0.0402 -0.04584,-0.088179 -0.06876,-0.1322691 -1.870961,-1.6369125 -3.521785,-2.0733283 -6.548283,-1.3670145 -1.095627,0.2556939 -1.86888,1.300442 -2.590596,2.1635203 -0.379837,0.4542348 -0.912172,2.0819772 -1.182903,2.8684212 -0.05475,0.1671192 -0.1095,0.3342384 -0.164249,0.5013568 -0.06997,-0.034752 -0.151624,-0.1562856 -0.209914,-0.1042656 -0.0715,0.063808 0.0078,0.1916864 0.0046,0.287468 -0.0011,0.033384 -0.04157,-0.086374 -0.0109,-0.099617 0.04276,-0.018464 0.0931,0.02104 0.131358,0.0476 0.0937,0.065064 0.172757,0.1490192 0.259136,0.2235288 0.07562,0.013896 0.159585,0.07892 0.226845,0.04168 0.06645,-0.036792 0.09445,-0.1377192 0.08192,-0.212632 C 16.850759,8.5269421 16.723049,8.2622749 16.642678,7.9857613 16.589798,7.8038163 16.539561,7.620893 16.498625,7.4358931 16.210841,6.1353315 16.278491,6.5319201 16.211686,5.3234509 c -0.02425,-0.7702904 -0.03396,-0.2862371 0.130393,-1.4340281 0.05784,-0.4039342 0.01955,-0.4211822 0.34271,-0.8325717 0.567707,-0.7227145 0.859928,-1.9937203 1.771193,-2.11289865 2.576062,-0.33690619 5.163656,0.57885015 7.745484,0.86827525 2.526931,3.4619171 0.413205,1.2094352 1.725746,1.9830351 0.146371,0.08627 0.255107,0.2317069 0.408395,0.3049873 0.04408,0.021071 0.09248,-0.032242 0.140198,-0.042727 0.220619,-0.048478 0.153928,-0.011686 0.404774,0.1471874 0.110388,0.2656938 0.311674,0.4776045 0.44572,0.7288677 0.101753,0.1907298 0.173281,0.396208 0.26699,0.5910158 0.09433,0.1961054 0.194582,0.3893665 0.296974,0.5813868 0.09751,0.1828556 0.215391,0.355084 0.302623,0.5430575 0.09319,0.2008171 0.158181,0.4135561 0.23727,0.6203342 0.07583,0.1693531 0.177184,0.329455 0.2275,0.5080592 0.131353,0.4662598 0.152674,0.9720302 0.05206,1.4467702 -0.03356,0.158352 -0.06414,0.3478424 -0.193229,0.445504 -0.125344,0.09483 -0.312157,0.037056 -0.468304,0.054984 -3.627726,0.4166251 -7.255543,0.8324581 -10.883314,1.2486881 -0.133537,0.128141 -0.218752,0.350074 -0.40061,0.384425 -0.224259,0.04236 -0.601645,-0.612088 -0.651122,-0.678346 -0.06935,-0.09287 -0.150312,-0.176581 -0.221276,-0.268222 -0.109157,-0.140962 -0.191942,-0.279223 -0.287748,-0.4297715 -0.01353,-0.6027768 -0.109575,-0.2345848 0.171611,-0.5389432 0.07018,-0.07596 0.09831,-0.1919536 0.184087,-0.249724 0.07003,-0.047168 0.342176,0.059808 0.390468,-0.0784 0.05259,-0.1505168 -0.002,-0.3188744 -0.003,-0.4783112 -0.03124,-0.5237224 -0.100861,-1.3509762 -0.02986,-1.8475459 0.0183,-0.1279593 0.05235,0.2531659 0.07853,0.3797488 -0.02736,-0.7680359 10.834306,-1.1547453 10.86165,-0.3867097 l 0,0 c 0.02774,0.1633794 0.04594,0.6516105 0.0832,0.4901382 0.03725,-0.1614049 -1.22e-4,-1.2216251 -0.0077,-1.4916768 0.02485,-0.076626 -0.0059,-0.2333164 0.07456,-0.22988 0.193907,0.00828 0.627548,0.6420684 0.674715,0.6941022 0.109308,0.1205876 0.253908,0.2077088 0.354891,0.3353499 0.375314,0.4743965 0.373508,0.5748575 0.565981,1.0889478 0.04103,0.6024699 0.170343,1.3919747 -0.06694,1.9708779 -0.114299,0.2788592 -1.106044,1.0344715 -0.874991,1.3661565 -3.627911,0.455948 -7.248051,0.978691 -10.883733,1.367845 -0.181356,0.01941 -0.349234,-0.106573 -0.527215,-0.146445 -0.104847,-0.02349 -0.212319,-0.05174 -0.319426,-0.04322 -0.08801,0.007 -0.16138,0.09097 -0.249627,0.08849 -0.224464,-0.0063 -0.256732,-0.318533 -0.303693,-0.444917 -0.263021,-0.443801 0.0018,0.03669 -0.225488,-0.504455 -0.158373,-0.377194 -0.05234,-0.06233 -0.282374,-0.39763 C 17.087337,10.659358 16.988522,10.340529 16.75999,10.10308 16.604302,9.6406737 16.424293,9.1862433 16.283142,8.7191945 16.207722,8.4696537 16.10047,8.2215905 16.091128,7.9610705 c -0.0048,-0.1331679 0.09158,-0.2509268 0.151564,-0.3699148 0.477559,-0.9472746 0.391035,-0.1060091 1.394053,1.141158 2.54451,0.2538304 5.10064,1.1128144 7.63353,0.7614912 0.870283,-0.120712 1.117514,-1.3564088 1.656741,-2.0500924 0.08313,-0.1069427 0.160536,-0.2221884 0.208164,-0.3489916 0.0109,-0.029033 -0.04786,-0.049354 -0.0469,-0.080353 C 27.12611,5.7955455 27.214388,6.5865878 27.12562,5.9423346 27.04086,4.8068665 27.11622,5.3303529 26.843633,4.0670676 26.811603,3.9186599 26.778543,3.7704246 26.741294,3.6232415 26.682774,3.3920272 26.54078,3.170034 26.556362,2.9320386 c 0.01635,-0.2497676 1.136536,0.4681253 0.681192,0.3159725 0.443285,0.527106 0.965028,1.0688424 1.197036,1.7359486 0.108223,0.3111826 0.210812,0.6282409 0.256569,0.9545126 0.07648,0.5453635 -0.311277,1.1053893 -0.08726,1.6497951 -0.240719,1.1703092 -0.474972,2.7245796 -1.214968,3.6632126 -0.748457,0.949365 -1.576273,2.071252 -2.748711,2.365993 -3.286981,0.826319 -4.695236,0.282685 -6.824086,-1.178591 -0.248441,-0.170534 -0.464696,-0.383767 -0.697045,-0.575651 -0.149468,-0.174291 -0.323627,-0.330132 -0.448403,-0.522873 -0.06212,-0.09596 -0.24924,-0.636786 -0.290842,-0.786345 -0.0082,-0.02952 -0.03886,-0.09504 -0.0084,-0.09153 0.06966,0.008 0.124098,0.06706 0.178598,0.11119 0.198952,0.161101 0.386776,0.335479 0.580164,0.503219 1.942937,0.388433 3.86634,1.438401 5.828813,1.165299 2.205053,-0.306859 3.050053,-2.8718866 3.6047,-4.5270165 0.07005,-0.2090445 0.05598,-0.43772 0.09888,-0.6539769 0.01536,-0.077462 0.01304,0.3538489 -0.0083,0.2367646 -0.04221,0.1312941 -0.113492,0.2540624 -0.139541,0.3894909 -0.02423,0.1259781 -0.01817,0.2559545 -0.03027,0.3836705 -0.01674,0.1766928 -0.0327,0.3535576 -0.05624,0.5294736 -0.01089,0.081397 -0.386724,2.4018518 0.08521,-0.5187544 0.06278,-0.1999618 0.08237,-0.419059 0.188328,-0.5998852 0.172912,-0.295088 0.466204,-0.1558188 0.680734,-0.022702 0.181695,0.1127432 0.330473,0.2715184 0.492286,0.4113083 0.604801,0.522489 0.3698,0.2837738 0.851948,1.0601162 0.202345,0.5628432 0.36341,0.8557296 0.361692,1.4680829 -0.0026,0.914845 -0.15419,0.54622 -0.363168,1.391589 -0.142908,0.578105 -0.02047,1.204168 -0.23184,1.771414 -0.05961,0.250722 -0.107625,0.504489 -0.178829,0.752168 -0.09287,0.323027 -0.238219,0.628797 -0.344399,0.947695 -0.05102,0.153239 -0.08328,0.312786 -0.141856,0.4633 -0.122288,0.314226 -0.508122,1.08589 -0.639013,1.353976 -3.046357,0.641714 -6.132877,1.115893 -9.139071,1.925141 -0.186949,0.05033 0.246296,0.300775 0.390545,0.429906 0.301031,0.269482 0.710271,0.431842 0.941894,0.762888 0.09801,0.14008 -0.334123,-0.07477 -0.496935,-0.12693 C 18.61682,19.98374 18.36373,19.847008 18.088822,19.7823 17.876823,19.7324 17.654686,19.7468 17.437618,19.72904 16.825426,19.502617 16.22114,19.255375 15.608361,19.030809 15.260229,18.903228 13.620185,18.363781 13.319595,18.218006 12.425254,17.784288 12.062309,17.353149 11.317064,16.682623 11.210106,16.520062 9.8347445,14.446981 9.7542717,14.256237 9.2529461,13.067945 9.4149829,12.673836 9.4231101,11.458425 c 0.011392,-1.7042348 -0.156368,-0.795979 0.301972,-2.2835084 0.06588,-0.356828 0.035936,-0.7456504 0.1976472,-1.070484 0.059792,-0.120112 0.2551347,-0.08924 0.3882097,-0.1063624 3.664554,-0.4715173 7.333775,-0.906027 11.000662,-1.3590405 0.04605,-0.177645 0.05495,-0.3693616 0.138153,-0.5329352 0.03698,-0.072706 0.135115,-0.091428 0.202674,-0.137142 0.06825,-0.1647257 0.1365,-0.3294514 0.20475,-0.4941771 0.101882,-0.1455696 0.162679,-0.3312056 0.305646,-0.4367089 0.467599,-0.3450677 0.737297,-0.1565016 1.229475,0.021558 0.307594,0.1112816 0.628478,0.1996846 0.911286,0.3640524 0.834193,0.4848312 0.984588,0.8132926 1.577396,1.5515467 0.216139,0.3434889 0.503978,0.6512069 0.648416,1.0304668 0.282877,0.742768 0.218478,1.8107704 0.214348,2.5712646 -0.0025,0.452782 0.01945,0.906895 -0.01634,1.358267 -0.02714,0.34225 -0.114571,0.677022 -0.171856,1.015534 -0.01446,0.32883 -0.02893,0.657661 -0.04339,0.986492 -0.03209,0.242828 -0.05152,0.487667 -0.09626,0.728486 -0.03194,0.171932 -0.121352,0.33293 -0.133342,0.507393 -0.01466,0.213376 0.0796,0.426912 0.05454,0.639317 -0.01916,0.162357 -0.143352,0.296331 -0.18365,0.45477 -0.904844,3.55753 1.771236,-4.36378 -1.447387,4.446913 -2.513316,0.555148 -4.978173,1.415926 -7.539947,1.665444 -0.566631,0.05519 -1.000766,-0.544836 -1.517767,-0.783219 -2.475092,-1.141237 0.532263,0.34492 -1.424449,-0.443669 -0.266777,-0.107515 -0.504357,-0.277246 -0.763531,-0.401977 -0.221671,-0.106682 -0.451939,-0.194489 -0.677909,-0.291734 -0.230277,-0.10156 -0.485515,-0.15912 -0.69083,-0.304681 -0.276683,-0.196159 -0.48707,-0.472137 -0.733528,-0.705139 -0.194184,-0.183581 -0.405976,-0.34923 -0.588341,-0.544557 C 10.191291,18.285019 9.7363437,17.584738 9.3573541,16.829397 9.2523949,16.5592 9.1129285,16.299982 9.0424765,16.018808 8.8367741,15.19784 8.9531973,14.888527 8.9752045,14.035569 9.0000605,13.07239 8.9049485,12.108387 8.8190349,11.150826 12.427814,12.165698 10.158233,11.54718 19.679915,9.2994348 c 0.230774,-0.05448 0.02668,-0.5058496 0.177444,-0.6888616 0.09035,-0.109676 0.282322,-0.035024 0.424272,-0.041544 0.523234,-0.02404 0.631852,-6.616e-4 1.152213,0.03724 0.523042,0.348552 0.810246,0.464224 1.16065,1.0330008 0.567744,0.921566 0.601386,2.07061 0.44031,3.106533 -0.04792,0.308169 -0.148919,0.605706 -0.223377,0.908559 -0.119393,0.870027 -0.116501,0.732442 -0.163198,1.833482 -0.0067,0.157705 -0.001,0.31577 0.0045,0.47352 0.0037,0.10395 0.11082,0.40023 0.09376,0.297624 -0.01523,-0.09163 -0.0607,-0.175582 -0.09106,-0.263372 -0.0236,-0.0782 -0.05658,-0.154172 -0.0708,-0.234612 -0.0017,-0.0095 0.02498,-0.01361 0.0285,-0.0046 0.03185,0.08132 0.06207,0.165761 0.0687,0.252847 0.01216,0.159949 -0.0057,0.320813 -0.0129,0.48106 -0.0341,0.753169 0.466409,1.774515 -0.111185,2.259091 -2.43038,2.038986 -5.497269,3.168102 -8.245905,4.752154 -0.619014,-0.193017 -1.222312,-0.446568 -1.857043,-0.579052 -0.352254,-0.07353 -0.720229,-0.0061 -1.079009,-0.03377 C 10.17968,22.796429 8.9216429,22.582819 7.9471629,21.819223 7.6578234,21.592498 7.450406,21.277265 7.2020273,21.006286 7.0053541,20.658185 6.7670168,20.330529 6.6120074,19.961983 6.3357136,19.305073 6.1821405,18.344735 6.1355546,17.643881 6.0782202,16.781321 6.2124066,16.318676 6.1757922,15.439565 6.1463642,14.732992 6.0632594,14.029677 6.006993,13.324733 7.3647334,11.31868 7.9393404,8.4398733 10.080214,7.3065724 c 1.590767,-0.8420946 3.528123,0.7150217 5.294846,1.0590449 0.82616,0.1608736 -1.080721,-0.91443 1.233236,0.8919824 1.37763,1.0754583 -0.133188,-0.34616 1.330536,1.1183493 0.226608,0.264153 0.453217,0.528307 0.679826,0.79246 0.220498,0.222278 0.457213,0.429566 0.661492,0.666836 0.497852,0.578252 0.705799,0.9537 1.019606,1.65486 0.120856,0.270036 0.242135,0.54278 0.317012,0.828996 0.07816,0.298776 0.09299,0.610622 0.13948,0.915932 0.08092,0.275168 0.210898,0.54046 0.242769,0.825504 0.03599,0.321862 -0.115037,1.294011 -0.217188,1.603421 -0.07864,0.238201 -0.235121,0.444611 -0.324361,0.679047 -0.137996,0.362516 -0.164488,0.761696 -0.337288,1.113724 -0.05354,0.24914 -0.08519,0.504014 -0.16062,0.747421 -0.0088,0.02826 -0.07847,0.0052 -0.08175,0.03463 -0.0049,0.0439 0.05812,0.07182 0.06505,0.115442 0.0087,0.055 -0.0133,0.110588 -0.02038,0.165829 -0.05297,0.413906 -0.0085,0.198446 -0.178596,0.682782 -0.11788,0.732025 0.229372,1.737978 -0.353641,2.196073 -2.200995,1.729407 -4.797977,2.958197 -7.42748,3.917854 -0.60526,0.220895 -1.232464,-0.379335 -1.859246,-0.528592 C 8.9845741,26.521713 7.7920217,26.616769 6.7311722,26.094735 6.3814828,25.910566 6.0001795,25.776811 5.6821039,25.542229 5.3446352,25.293345 5.0773825,24.960921 4.7855429,24.659825 4.5547795,24.421744 4.3023901,24.198693 4.1148454,23.925266 3.5610189,23.11783 3.3508441,22.16269 3.196681,21.216202 2.9668003,19.474447 3.200461,21.607224 3.162089,19.897173 3.155659,19.610631 3.098625,19.327393 3.074817,19.041769 3.047874,18.718536 3.048599,18.392909 3.009857,18.070876 2.946345,17.54294 2.6098918,17.001635 2.7683159,16.494041 c 0.5701002,-1.826614 1.5773883,-3.486828 2.3660825,-5.230243 2.3020231,0.131819 4.6488349,-0.07526 6.9060696,0.395456 0.567196,0.118283 0.823072,0.821895 1.167088,1.28811 0.0936,0.126844 0.640457,1.269455 0.736977,1.550309 0.485184,1.411789 0.02051,0.484132 0.485962,1.340852 0.23929,-0.301644 -0.03546,-0.106685 0.257521,-0.005 0.142004,0.04928 0.289615,-0.436276 0.527124,-0.06515 0.449649,0.345094 0.179548,0.08485 0.593132,0.778635 0.109316,0.183378 0.272168,0.34126 0.336901,0.544698 0.08405,0.264142 0.05292,0.552332 0.09914,0.825643 0.07404,0.437845 0.24998,0.85536 0.272405,1.304036 0.181946,1.377492 -0.0033,-0.300148 0.03035,0.96381 0.01125,0.422282 0.101505,0.590246 0.168963,1.004945 0.152234,0.935866 0.120306,0.669601 0.05336,1.575277 -0.229506,0.821986 -0.753058,2.814851 -1.108077,3.322547 -0.712426,1.018809 -1.39947,2.326493 -2.590385,2.683211 C 8.9029965,30.019602 7.9399533,29.036659 5.1558172,27.846779 4.9051366,27.729188 4.6291467,27.654866 4.4037756,27.494005 4.0990625,27.276513 3.8488177,26.990883 3.5848088,26.725455 3.1717265,26.310152 2.9303593,26.022574 2.6586991,25.502396 2.5942253,25.378941 2.5721925,25.23744 2.5211301,25.107861 c -0.032741,-0.08309 -0.075686,-0.16178 -0.1135296,-0.242669 0.00269,-0.111656 0.016018,-0.223563 0.00807,-0.334969 -0.00749,-0.10493 -0.1986906,-1.359804 -0.064715,-1.427286 3.3123637,-1.668411 6.8144932,-2.929864 10.2199335,-4.398988 0.05796,-0.025 0.148911,-0.02384 0.170059,-0.08331 0.03496,-0.09833 -0.01974,-0.207784 -0.02961,-0.311676 0.258028,0.119582 0.207412,0.06642 0.409903,0.475064 0.126171,0.254629 0.202654,0.531575 0.323708,0.788677 0.0069,0.01454 0.04134,-0.01336 0.04818,0.0012 0.117485,0.249367 -0.104395,0.612099 0.193847,0.803932 0.04437,0.01512 0.100629,0.01155 0.133098,0.04536 0.189036,0.196813 0.03795,0.226907 0.248664,0.291268 0.07186,0.02195 0.14637,0.03621 0.221121,0.04388 0.07534,0.0078 0.160157,-0.03304 0.227223,0.0022 0.07474,0.03923 0.104246,0.132796 0.156369,0.199194 0.06021,0.09664 0.142015,0.182814 0.180631,0.289932 0.161013,0.446649 0.24427,1.297779 0.226567,1.772097 -0.0044,0.117187 -0.04586,0.23001 -0.06879,0.345015 -0.0079,0.305729 -0.01592,0.611458 -0.02388,0.917188 -0.06575,0.635601 0.352388,1.580899 -0.197247,1.906802 -2.731467,1.619587 -5.7636725,2.820321 -8.8718989,3.470676 C 5.2796957,29.795137 4.9582503,28.776193 4.4619236,28.351876 4.3506723,28.256765 4.1900648,28.219553 4.0986157,28.105273 3.7142671,27.624969 3.7846501,27.398421 3.7333259,26.812254 3.4844435,26.060284 14.118909,22.540556 14.367792,23.292525 z"
     id="path3646"
     style="fill:url(#radialGradient3698);fill-opacity:1;fill-rule:nonzero;stroke:none" />
  <text
     x="5.3140793"
     y="26.108301"
     id="text3634"
     xml:space="preserve"
     style="font-size:28.79999924px;font-style:italic;font-variant:normal;font-weight:bold;font-stretch:normal;text-align:start;line-height:125%;writing-mode:lr-tb;text-anchor:start;fill:#000000;stroke:url(#linearGradient3708);stroke-width:0.80000001px;stroke-linecap:butt;stroke-linejoin:miter;stroke-opacity:1;filter:url(#filter3753);font-family:Georgia;-inkscape-font-specification:Georgia Bold Italic"
     sodipodi:linespacing="125%"
     transform="matrix(0.35333952,0,0,0.43847428,10.097513,9.0579476)"><tspan
       x="5.3140793"
       y="26.108301"
       id="tspan3636"
       style="font-size:28.79999924px;font-style:italic;font-variant:normal;font-weight:bold;font-stretch:normal;text-align:start;line-height:125%;writing-mode:lr-tb;text-anchor:start;fill:#000000;stroke:url(#linearGradient3708);stroke-width:0.80000001;font-family:Georgia;-inkscape-font-specification:Georgia Bold Italic">Z</tspan><tspan
       x="5.3140793"
       y="62.108299"
       id="tspan3638"
       style="font-size:28.79999924px;font-style:italic;font-variant:normal;font-weight:bold;font-stretch:normal;text-align:start;line-height:125%;writing-mode:lr-tb;text-anchor:start;fill:#000000;stroke:url(#linearGradient3708);stroke-width:0.80000001;font-family:Georgia;-inkscape-font-specification:Georgia Bold Italic" /></text>
  <rect
     style="fill:url(#radialGradient3679);fill-opacity:1;stroke:#00ff00;stroke-width:1.13005471;stroke-miterlimit:4;stroke-opacity:1;stroke-dasharray:none;stroke-dashoffset:0;filter:url(#filter3737)"
     id="rect3653"
     width="12.51991"
     height="16.332184"
     x="10.664232"
     y="7.4295764"
     ry="0.062217847"
     transform="matrix(1.3030745,0,0,1.2030909,-5.7069065,-3.3406239)" />
</svg>
