<?xml version="1.0" encoding="UTF-8" ?>
<!DOCTYPE svg PUBLIC "-//W3C//DTD SVG 1.1//EN" "http://www.w3.org/Graphics/SVG/1.1/DTD/svg11.dtd">
<svg width="128pt" height="128pt" viewBox="0 0 128 128" version="1.1" xmlns="http://www.w3.org/2000/svg">
<g id="#1d100872">
<path fill="#1d1008" opacity="0.45" d=" M 46.13 0.00 L 49.23 0.00 C 49.12 2.76 48.67 5.55 46.91 7.78 C 45.15 8.59 43.00 9.06 41.97 10.89 C 36.49 18.73 31.28 29.80 19.35 26.32 C 16.23 31.39 9.81 33.01 7.70 38.74 C 6.15 41.54 2.81 41.03 0.00 41.13 L 0.00 39.05 C 6.44 42.27 7.92 32.80 12.87 30.86 C 16.88 28.70 18.04 22.02 23.99 23.95 C 34.25 24.80 36.49 11.64 44.17 7.29 C 45.72 6.83 45.98 5.33 45.96 3.90 C 46.05 2.60 46.10 1.30 46.13 0.00 Z" />
</g>
<g id="#4c4745dc">
<path fill="#4c4745" opacity="0.86" d=" M 49.23 0.00 L 52.25 0.00 C 52.21 7.45 45.49 12.69 45.11 20.18 C 44.60 20.12 43.60 20.00 43.09 19.93 C 43.42 15.61 44.28 11.32 46.91 7.78 C 48.67 5.55 49.12 2.76 49.23 0.00 Z" />
</g>
<g id="#7d7978f5">
<path fill="#7d7978" opacity="0.96" d=" M 52.25 0.00 L 55.21 0.00 C 55.68 4.48 52.67 7.78 50.14 11.10 C 47.47 14.62 48.72 20.17 45.16 23.08 L 45.09 21.97 C 45.09 21.53 45.10 20.63 45.11 20.18 C 45.49 12.69 52.21 7.45 52.25 0.00 Z" />
</g>
<g id="#b9ac97f0">
<path fill="#b9ac97" opacity="0.94" d=" M 55.21 0.00 L 56.17 0.00 C 57.89 6.60 52.29 10.65 50.11 16.03 C 48.61 23.81 42.39 29.96 35.98 34.15 C 26.50 29.34 26.02 40.58 18.71 41.82 L 17.90 42.02 C 20.10 39.80 23.08 38.39 24.47 35.43 C 26.98 30.35 33.75 33.66 37.62 30.58 C 40.13 28.07 42.64 25.57 45.16 23.08 C 48.72 20.17 47.47 14.62 50.14 11.10 C 52.67 7.78 55.68 4.48 55.21 0.00 Z" />
</g>
<g id="#dcd6cafe">
<path fill="#dcd6ca" opacity="1.00" d=" M 56.17 0.00 L 58.15 0.00 C 59.59 7.52 54.12 12.84 50.95 18.80 C 49.00 26.02 42.92 30.92 39.39 37.26 C 41.83 52.68 31.01 66.37 33.92 82.01 C 34.65 86.69 29.47 96.38 35.93 96.98 C 46.04 91.77 51.50 78.72 63.67 76.64 C 73.19 72.75 78.71 83.31 81.44 90.63 C 81.96 93.53 85.67 95.04 86.77 91.64 C 86.26 77.29 85.38 62.77 81.05 48.99 C 77.58 43.64 84.60 37.56 79.22 32.89 C 78.02 27.33 70.70 25.91 70.95 19.87 C 76.32 23.97 78.02 32.36 84.95 34.22 C 84.90 35.82 84.81 39.01 84.76 40.60 C 81.53 46.50 86.85 52.75 86.20 58.94 C 86.86 70.42 87.43 81.90 89.37 93.26 C 88.42 95.86 84.72 100.09 82.22 96.80 C 78.11 90.32 75.97 80.81 67.93 78.11 C 57.68 79.14 50.44 87.96 44.09 95.11 C 40.13 97.64 32.67 105.85 28.14 99.69 C 29.46 88.52 32.57 77.58 32.19 66.22 C 32.06 55.24 39.01 45.15 35.98 34.15 C 42.39 29.96 48.61 23.81 50.11 16.03 C 52.29 10.65 57.89 6.60 56.17 0.00 Z" />
</g>
<g id="#fafbfbff">
<path fill="#fafbfb" opacity="1.00" d=" M 58.15 0.00 L 61.86 0.00 C 60.94 8.34 67.85 14.02 69.44 21.63 C 70.72 27.33 75.84 31.14 76.96 36.97 C 79.43 49.20 77.94 61.79 78.99 74.12 C 73.08 71.79 66.95 68.20 60.25 70.30 C 56.13 61.88 47.88 67.40 41.13 68.97 C 39.30 59.22 42.16 49.08 43.42 39.36 C 46.92 32.90 51.19 26.50 50.95 18.80 C 54.12 12.84 59.59 7.52 58.15 0.00 Z" />
</g>
<g id="#eaeceeff">
<path fill="#eaecee" opacity="1.00" d=" M 61.86 0.00 L 64.80 0.00 C 62.21 7.36 71.50 12.27 70.95 19.87 C 70.70 25.91 78.02 27.33 79.22 32.89 C 84.60 37.56 77.58 43.64 81.05 48.99 C 85.38 62.77 86.26 77.29 86.77 91.64 C 85.67 95.04 81.96 93.53 81.44 90.63 C 78.71 83.31 73.19 72.75 63.67 76.64 C 51.50 78.72 46.04 91.77 35.93 96.98 C 29.47 96.38 34.65 86.69 33.92 82.01 C 31.01 66.37 41.83 52.68 39.39 37.26 C 42.92 30.92 49.00 26.02 50.95 18.80 C 51.19 26.50 46.92 32.90 43.42 39.36 C 42.16 49.08 39.30 59.22 41.13 68.97 C 47.88 67.40 56.13 61.88 60.25 70.30 C 66.95 68.20 73.08 71.79 78.99 74.12 C 77.94 61.79 79.43 49.20 76.96 36.97 C 75.84 31.14 70.72 27.33 69.44 21.63 C 67.85 14.02 60.94 8.34 61.86 0.00 Z" />
</g>
<g id="#bebab3f7">
<path fill="#bebab3" opacity="0.97" d=" M 64.80 0.00 L 67.78 0.00 C 69.87 9.87 72.58 20.62 79.93 27.90 C 80.97 33.91 87.84 32.33 92.26 33.66 C 90.43 33.80 86.78 34.08 84.95 34.22 C 78.02 32.36 76.32 23.97 70.95 19.87 C 71.50 12.27 62.21 7.36 64.80 0.00 Z" />
</g>
<g id="#888380e6">
<path fill="#888380" opacity="0.90" d=" M 67.78 0.00 L 70.81 0.00 C 71.20 2.60 71.46 5.23 72.13 7.78 C 73.32 13.74 75.73 19.49 79.97 23.92 C 80.66 25.64 81.38 27.34 82.06 29.07 C 81.53 28.78 80.46 28.19 79.93 27.90 C 72.58 20.62 69.87 9.87 67.78 0.00 Z" />
</g>
<g id="#3b3b3b78">
<path fill="#3b3b3b" opacity="0.47" d=" M 70.81 0.00 L 73.82 0.00 C 74.09 1.47 74.62 4.42 74.89 5.90 L 75.04 6.79 C 75.01 7.33 74.95 8.42 74.93 8.97 C 74.00 8.57 73.06 8.18 72.13 7.78 C 71.46 5.23 71.20 2.60 70.81 0.00 Z" />
</g>
<g id="#0d06013a">
<path fill="#0d0601" opacity="0.23" d=" M 30.50 19.44 C 36.63 14.93 38.70 7.00 45.96 3.90 C 45.98 5.33 45.72 6.83 44.17 7.29 C 36.49 11.64 34.25 24.80 23.99 23.95 C 18.04 22.02 16.88 28.70 12.87 30.86 C 7.92 32.80 6.44 42.27 0.00 39.05 L 0.00 35.89 C 1.48 36.99 3.36 39.28 4.69 36.74 C 7.16 31.26 13.65 29.53 16.13 24.07 C 19.40 19.16 27.65 24.89 30.50 19.44 Z" />
</g>
<g id="#0d07033f">
<path fill="#0d0703" opacity="0.25" d=" M 74.89 5.90 C 86.01 7.94 87.57 26.99 101.63 22.37 C 107.71 28.88 113.81 36.32 121.83 41.24 C 122.17 56.38 122.14 71.56 121.83 86.71 C 113.25 92.00 107.64 100.78 99.32 106.36 C 99.06 107.53 98.86 108.71 98.73 109.90 L 97.75 110.14 C 97.05 108.41 97.09 106.43 97.87 104.20 C 103.51 103.58 105.76 97.07 110.60 94.58 C 112.70 88.34 123.22 87.54 120.52 79.41 C 117.88 67.10 121.70 54.48 119.72 42.29 C 113.44 37.36 106.83 32.30 102.45 25.50 C 99.39 22.20 94.15 25.99 90.67 23.39 C 85.35 18.05 81.35 10.89 75.04 6.79 L 74.89 5.90 Z" />
</g>
<g id="#1d0f067d">
<path fill="#1d0f06" opacity="0.49" d=" M 75.04 6.79 C 81.35 10.89 85.35 18.05 90.67 23.39 C 94.15 25.99 99.39 22.20 102.45 25.50 C 106.83 32.30 113.44 37.36 119.72 42.29 C 121.70 54.48 117.88 67.10 120.52 79.41 C 123.22 87.54 112.70 88.34 110.60 94.58 C 105.76 97.07 103.51 103.58 97.87 104.20 L 98.01 103.28 C 102.19 102.46 102.40 97.53 105.46 95.56 C 110.65 94.15 111.20 87.54 116.55 86.45 C 120.84 85.11 118.47 80.04 117.97 76.78 C 117.98 69.30 118.04 61.82 117.86 54.35 C 118.56 51.04 118.85 47.63 118.85 44.26 C 112.30 38.77 105.69 33.27 100.57 26.36 C 98.03 24.57 95.22 26.10 92.71 27.06 C 84.16 24.92 82.03 15.09 76.13 9.81 C 75.83 9.60 75.23 9.18 74.93 8.97 C 74.95 8.42 75.01 7.33 75.04 6.79 Z" />
</g>
<g id="#3c281bc4">
<path fill="#3c281b" opacity="0.77" d=" M 41.97 10.89 C 43.00 9.06 45.15 8.59 46.91 7.78 C 44.28 11.32 43.42 15.61 43.09 19.93 C 39.68 22.26 36.67 25.15 33.10 27.23 C 36.29 21.78 42.36 17.89 41.97 10.89 Z" />
</g>
<g id="#564d4beb">
<path fill="#564d4b" opacity="0.92" d=" M 72.13 7.78 C 73.06 8.18 74.00 8.57 74.93 8.97 C 75.23 9.18 75.83 9.60 76.13 9.81 C 77.52 14.77 79.93 19.33 82.01 24.01 L 81.92 25.06 C 81.43 24.78 80.46 24.21 79.97 23.92 C 75.73 19.49 73.32 13.74 72.13 7.78 Z" />
</g>
<g id="#482e16c3">
<path fill="#482e16" opacity="0.76" d=" M 76.13 9.81 C 82.03 15.09 84.16 24.92 92.71 27.06 C 103.66 27.31 106.77 40.18 115.74 44.27 C 118.18 46.88 116.34 51.20 117.86 54.35 C 118.04 61.82 117.98 69.30 117.97 76.78 C 112.43 82.64 107.59 89.38 100.73 93.75 C 98.11 96.05 97.55 99.74 96.97 103.00 C 96.40 103.22 95.26 103.66 94.69 103.88 C 94.98 101.61 95.45 99.37 96.08 97.17 C 99.69 88.65 109.42 84.94 114.33 77.33 C 116.36 67.80 117.04 57.47 113.87 48.10 C 108.76 41.57 102.72 36.02 96.63 30.39 C 91.45 28.96 85.92 28.06 82.01 24.01 C 79.93 19.33 77.52 14.77 76.13 9.81 Z" />
</g>
<g id="#301807a3">
<path fill="#301807" opacity="0.64" d=" M 19.35 26.32 C 31.28 29.80 36.49 18.73 41.97 10.89 C 42.36 17.89 36.29 21.78 33.10 27.23 C 27.50 27.79 19.85 26.13 18.09 33.10 C 15.08 34.58 10.43 34.77 10.27 39.16 C 10.27 44.71 3.67 42.30 0.00 43.79 L 0.00 41.13 C 2.81 41.03 6.15 41.54 7.70 38.74 C 9.81 33.01 16.23 31.39 19.35 26.32 Z" />
</g>
<g id="#6c4e30c7">
<path fill="#6c4e30" opacity="0.78" d=" M 33.10 27.23 C 36.67 25.15 39.68 22.26 43.09 19.93 C 43.60 20.00 44.60 20.12 45.11 20.18 C 45.10 20.63 45.09 21.53 45.09 21.97 C 38.89 23.15 37.51 31.66 30.15 30.28 C 20.67 31.87 16.72 42.34 9.99 47.98 C 9.48 47.98 8.47 47.97 7.97 47.97 C 8.04 47.53 8.19 46.67 8.27 46.23 C 15.51 38.43 21.75 28.48 33.10 27.23 Z" />
</g>
<g id="#9c815ad6">
<path fill="#9c815a" opacity="0.84" d=" M 30.15 30.28 C 37.51 31.66 38.89 23.15 45.09 21.97 L 45.16 23.08 C 42.64 25.57 40.13 28.07 37.62 30.58 C 33.75 33.66 26.98 30.35 24.47 35.43 C 23.08 38.39 20.10 39.80 17.90 42.02 C 16.16 43.94 15.58 46.82 13.28 48.23 C 12.03 48.37 10.79 48.50 9.54 48.65 L 9.99 47.98 C 16.72 42.34 20.67 31.87 30.15 30.28 Z" />
</g>
<g id="#907550d4">
<path fill="#907550" opacity="0.83" d=" M 79.97 23.92 C 80.46 24.21 81.43 24.78 81.92 25.06 C 85.16 31.87 94.91 28.04 98.25 34.77 C 103.28 39.41 108.11 44.40 112.31 49.75 L 111.36 49.80 C 105.42 46.49 102.14 40.30 97.17 35.85 C 94.11 29.81 86.54 32.83 82.06 29.07 C 81.38 27.34 80.66 25.64 79.97 23.92 Z" />
</g>
<g id="#745125cc">
<path fill="#745125" opacity="0.80" d=" M 82.01 24.01 C 85.92 28.06 91.45 28.96 96.63 30.39 C 102.72 36.02 108.76 41.57 113.87 48.10 C 117.04 57.47 116.36 67.80 114.33 77.33 C 109.42 84.94 99.69 88.65 96.08 97.17 C 95.95 95.64 95.81 94.11 95.65 92.58 C 99.14 88.16 104.42 85.46 108.08 81.09 C 115.34 77.38 112.82 68.59 113.90 61.97 C 114.39 57.84 113.92 53.58 112.31 49.75 C 108.11 44.40 103.28 39.41 98.25 34.77 C 94.91 28.04 85.16 31.87 81.92 25.06 L 82.01 24.01 Z" />
</g>
<g id="#321a07ae">
<path fill="#321a07" opacity="0.68" d=" M 92.71 27.06 C 95.22 26.10 98.03 24.57 100.57 26.36 C 105.69 33.27 112.30 38.77 118.85 44.26 C 118.85 47.63 118.56 51.04 117.86 54.35 C 116.34 51.20 118.18 46.88 115.74 44.27 C 106.77 40.18 103.66 27.31 92.71 27.06 Z" />
</g>
<g id="#41260eca">
<path fill="#41260e" opacity="0.79" d=" M 18.09 33.10 C 19.85 26.13 27.50 27.79 33.10 27.23 C 21.75 28.48 15.51 38.43 8.27 46.23 C 5.56 47.09 2.81 47.81 0.00 48.27 L 0.00 43.79 C 3.67 42.30 10.27 44.71 10.27 39.16 C 10.43 34.77 15.08 34.58 18.09 33.10 Z" />
</g>
<g id="#bea675e3">
<path fill="#bea675" opacity="0.89" d=" M 79.93 27.90 C 80.46 28.19 81.53 28.78 82.06 29.07 C 86.54 32.83 94.11 29.81 97.17 35.85 C 102.14 40.30 105.42 46.49 111.36 49.80 C 111.29 50.38 111.15 51.54 111.08 52.12 L 110.25 51.73 C 107.44 49.27 104.14 47.20 102.29 43.86 C 98.60 40.82 95.19 37.33 92.26 33.66 C 87.84 32.33 80.97 33.91 79.93 27.90 Z" />
</g>
<g id="#f2dda3fd">
<path fill="#f2dda3" opacity="1.00" d=" M 18.71 41.82 C 26.02 40.58 26.50 29.34 35.98 34.15 C 39.01 45.15 32.06 55.24 32.19 66.22 C 32.10 64.07 31.94 61.93 31.86 59.79 C 32.07 55.20 32.66 49.97 29.81 45.97 C 26.01 45.85 23.12 49.82 19.25 48.87 C 16.71 47.38 18.70 44.20 18.71 41.82 Z" />
</g>
<g id="#f7e4a4fd">
<path fill="#f7e4a4" opacity="1.00" d=" M 84.95 34.22 C 86.78 34.08 90.43 33.80 92.26 33.66 C 95.19 37.33 98.60 40.82 102.29 43.86 C 102.73 53.47 94.45 45.98 89.94 44.93 C 88.14 43.57 86.46 42.08 84.76 40.60 C 84.81 39.01 84.90 35.82 84.95 34.22 Z" />
</g>
<g id="#e1cda3ff">
<path fill="#e1cda3" opacity="1.00" d=" M 86.20 58.94 C 86.85 52.75 81.53 46.50 84.76 40.60 C 86.46 42.08 88.14 43.57 89.94 44.93 C 88.73 52.56 88.93 60.31 88.96 68.00 C 88.51 76.41 89.58 84.95 89.37 93.26 C 87.43 81.90 86.86 70.42 86.20 58.94 Z" />
</g>
<g id="#f5cf76fc">
<path fill="#f5cf76" opacity="1.00" d=" M 13.28 48.23 C 15.58 46.82 16.16 43.94 17.90 42.02 L 18.71 41.82 C 18.70 44.20 16.71 47.38 19.25 48.87 C 23.12 49.82 26.01 45.85 29.81 45.97 C 32.66 49.97 32.07 55.20 31.86 59.79 C 31.36 61.94 30.86 64.10 30.36 66.26 C 30.32 62.64 30.33 58.88 28.41 55.69 C 24.92 50.40 19.70 60.19 15.04 59.08 C 10.04 58.98 10.90 53.25 11.54 49.66 C 11.97 49.30 12.84 48.59 13.28 48.23 Z" />
</g>
<g id="#f7d176fd">
<path fill="#f7d176" opacity="1.00" d=" M 102.29 43.86 C 104.14 47.20 107.44 49.27 110.25 51.73 C 111.08 55.76 107.47 62.19 102.91 59.09 C 99.29 56.05 91.98 50.54 90.92 58.52 C 90.21 61.62 90.05 64.83 89.92 67.99 L 88.96 68.00 C 88.93 60.31 88.73 52.56 89.94 44.93 C 94.45 45.98 102.73 53.47 102.29 43.86 Z" />
</g>
<g id="#674318f9">
<path fill="#674318" opacity="0.98" d=" M 0.00 48.27 C 2.81 47.81 5.56 47.09 8.27 46.23 C 8.19 46.67 8.04 47.53 7.97 47.97 C 6.33 51.18 3.78 57.96 0.00 52.87 L 0.00 48.27 Z" />
</g>
<g id="#9d6c26fe">
<path fill="#9d6c26" opacity="1.00" d=" M 7.97 47.97 C 8.47 47.97 9.48 47.98 9.99 47.98 L 9.54 48.65 C 3.09 57.99 5.87 69.12 8.95 78.98 C 6.57 76.10 3.77 68.99 0.00 74.13 L 0.00 52.87 C 3.78 57.96 6.33 51.18 7.97 47.97 Z" />
</g>
<g id="#c08830f1">
<path fill="#c08830" opacity="0.95" d=" M 9.54 48.65 C 10.79 48.50 12.03 48.37 13.28 48.23 C 12.84 48.59 11.97 49.30 11.54 49.66 C 9.87 50.85 8.82 52.74 8.65 54.78 C 7.53 61.72 7.84 68.86 9.25 75.73 C 14.39 78.46 17.44 84.29 22.82 86.28 C 23.17 86.70 23.86 87.53 24.21 87.95 C 23.94 88.45 23.41 89.43 23.14 89.92 C 16.73 88.11 15.26 80.69 8.95 78.98 C 5.87 69.12 3.09 57.99 9.54 48.65 Z" />
</g>
<g id="#f6c351ff">
<path fill="#f6c351" opacity="1.00" d=" M 8.65 54.78 C 8.82 52.74 9.87 50.85 11.54 49.66 C 10.90 53.25 10.04 58.98 15.04 59.08 C 19.70 60.19 24.92 50.40 28.41 55.69 C 27.18 59.40 26.07 63.15 24.96 66.89 C 19.51 64.62 16.82 70.90 12.29 70.86 C 9.46 66.02 9.33 60.20 8.65 54.78 Z" />
</g>
<g id="#b2802fe1">
<path fill="#b2802f" opacity="0.88" d=" M 111.36 49.80 L 112.31 49.75 C 113.92 53.58 114.39 57.84 113.90 61.97 C 112.82 68.59 115.34 77.38 108.08 81.09 C 104.42 85.46 99.14 88.16 95.65 92.58 L 95.17 93.29 C 95.07 92.41 94.88 90.65 94.78 89.77 C 95.20 88.90 95.63 88.04 96.06 87.18 C 102.40 87.16 103.43 79.80 108.71 77.69 C 113.40 74.50 110.17 67.66 110.90 62.80 C 110.96 59.24 110.98 55.68 111.08 52.12 C 111.15 51.54 111.29 50.38 111.36 49.80 Z" />
</g>
<g id="#f5c150fe">
<path fill="#f5c150" opacity="1.00" d=" M 110.25 51.73 L 111.08 52.12 C 110.98 55.68 110.96 59.24 110.90 62.80 C 109.56 65.85 108.47 69.01 106.95 71.97 C 103.19 69.83 99.50 67.35 95.07 66.86 C 93.90 63.98 92.61 61.14 90.92 58.52 C 91.98 50.54 99.29 56.05 102.91 59.09 C 107.47 62.19 111.08 55.76 110.25 51.73 Z" />
</g>
<g id="#efae33fd">
<path fill="#efae33" opacity="1.00" d=" M 9.25 75.73 C 7.84 68.86 7.53 61.72 8.65 54.78 C 9.33 60.20 9.46 66.02 12.29 70.86 C 16.82 70.90 19.51 64.62 24.96 66.89 C 24.98 73.40 24.79 80.02 22.82 86.28 C 17.44 84.29 14.39 78.46 9.25 75.73 Z" />
</g>
<g id="#dbb161fe">
<path fill="#dbb161" opacity="1.00" d=" M 28.41 55.69 C 30.33 58.88 30.32 62.64 30.36 66.26 C 29.64 73.66 29.26 81.27 25.99 88.09 C 25.54 88.05 24.66 87.99 24.21 87.95 C 23.86 87.53 23.17 86.70 22.82 86.28 C 24.79 80.02 24.98 73.40 24.96 66.89 C 26.07 63.15 27.18 59.40 28.41 55.69 Z" />
</g>
<g id="#daad5bfe">
<path fill="#daad5b" opacity="1.00" d=" M 89.92 67.99 C 90.05 64.83 90.21 61.62 90.92 58.52 C 92.61 61.14 93.90 63.98 95.07 66.86 C 95.34 73.60 94.02 80.62 96.06 87.18 C 95.63 88.04 95.20 88.90 94.78 89.77 C 94.21 90.60 93.64 91.43 93.07 92.25 C 89.51 84.62 89.93 76.19 89.92 67.99 Z" />
</g>
<g id="#cbb79dfe">
<path fill="#cbb79d" opacity="1.00" d=" M 30.36 66.26 C 30.86 64.10 31.36 61.94 31.86 59.79 C 31.94 61.93 32.10 64.07 32.19 66.22 C 32.57 77.58 29.46 88.52 28.14 99.69 C 32.67 105.85 40.13 97.64 44.09 95.11 C 50.44 87.96 57.68 79.14 67.93 78.11 C 75.97 80.81 78.11 90.32 82.22 96.80 C 84.72 100.09 88.42 95.86 89.37 93.26 C 89.58 84.95 88.51 76.41 88.96 68.00 L 89.92 67.99 C 89.93 76.19 89.51 84.62 93.07 92.25 C 90.81 97.37 86.67 102.67 80.10 101.04 C 78.19 93.32 75.61 84.85 68.67 80.23 C 56.45 79.61 51.54 93.13 43.10 98.91 C 38.07 101.34 32.95 104.92 27.24 104.93 C 24.05 100.35 27.01 93.39 25.99 88.09 C 29.26 81.27 29.64 73.66 30.36 66.26 Z" />
</g>
<g id="#efad31fc">
<path fill="#efad31" opacity="1.00" d=" M 106.95 71.97 C 108.47 69.01 109.56 65.85 110.90 62.80 C 110.17 67.66 113.40 74.50 108.71 77.69 C 103.43 79.80 102.40 87.16 96.06 87.18 C 94.02 80.62 95.34 73.60 95.07 66.86 C 99.50 67.35 103.19 69.83 106.95 71.97 Z" />
</g>
<g id="#654116fb">
<path fill="#654116" opacity="1.00" d=" M 0.00 74.13 C 3.77 68.99 6.57 76.10 8.95 78.98 C 8.64 79.90 8.33 80.83 8.03 81.76 C 5.59 80.19 2.92 78.97 0.00 78.67 L 0.00 74.13 Z" />
</g>
<g id="#211109c8">
<path fill="#211109" opacity="0.78" d=" M 100.73 93.75 C 107.59 89.38 112.43 82.64 117.97 76.78 C 118.47 80.04 120.84 85.11 116.55 86.45 C 111.20 87.54 110.65 94.15 105.46 95.56 C 102.40 97.53 102.19 102.46 98.01 103.28 L 96.97 103.00 C 97.55 99.74 98.11 96.05 100.73 93.75 Z" />
</g>
<g id="#29180adc">
<path fill="#29180a" opacity="0.86" d=" M 0.00 78.67 C 2.92 78.97 5.59 80.19 8.03 81.76 C 12.12 84.61 15.25 88.59 19.02 91.83 C 16.55 92.38 13.32 95.46 11.18 92.84 C 8.17 90.66 12.60 86.30 9.82 84.14 C 6.51 84.43 2.64 87.23 0.00 83.93 L 0.00 78.67 Z" />
</g>
<g id="#70481ac5">
<path fill="#70481a" opacity="0.77" d=" M 8.95 78.98 C 15.26 80.69 16.73 88.11 23.14 89.92 C 23.09 91.63 23.01 93.34 22.95 95.06 C 22.52 95.01 21.66 94.93 21.23 94.89 C 20.52 93.85 19.85 92.78 19.02 91.83 C 15.25 88.59 12.12 84.61 8.03 81.76 C 8.33 80.83 8.64 79.90 8.95 78.98 Z" />
</g>
<g id="#daa470fe">
<path fill="#daa470" opacity="1.00" d=" M 43.10 98.91 C 51.54 93.13 56.45 79.61 68.67 80.23 C 75.61 84.85 78.19 93.32 80.10 101.04 C 67.80 101.62 54.54 104.42 43.10 98.91 M 65.60 81.53 C 61.03 84.75 48.37 88.52 52.28 95.72 C 59.49 98.07 67.32 96.76 74.76 96.87 C 77.44 91.25 71.73 81.72 65.60 81.53 Z" />
</g>
<g id="#d79949ff">
<path fill="#d79949" opacity="1.00" d=" M 65.60 81.53 C 71.73 81.72 77.44 91.25 74.76 96.87 C 67.32 96.76 59.49 98.07 52.28 95.72 C 48.37 88.52 61.03 84.75 65.60 81.53 M 64.43 84.35 C 61.47 87.06 55.22 88.45 55.17 92.75 C 59.03 97.28 67.41 96.00 71.93 92.81 C 72.19 88.85 69.88 81.27 64.43 84.35 Z" />
</g>
<g id="#180d0aaa">
<path fill="#180d0a" opacity="0.67" d=" M 0.00 83.93 C 2.64 87.23 6.51 84.43 9.82 84.14 C 12.60 86.30 8.17 90.66 11.18 92.84 C 13.32 95.46 16.55 92.38 19.02 91.83 C 19.85 92.78 20.52 93.85 21.23 94.89 C 21.26 95.33 21.32 96.20 21.34 96.64 C 18.29 103.13 13.02 120.78 25.99 118.06 C 28.79 118.31 29.66 115.02 31.13 113.24 C 31.69 112.45 32.28 111.68 32.89 110.92 C 38.35 109.27 43.88 107.22 49.68 108.31 C 61.67 110.68 74.21 105.95 85.89 110.15 C 89.36 114.10 92.26 119.07 98.06 119.34 L 97.97 120.20 C 88.18 123.38 88.71 108.92 79.41 110.51 C 68.29 109.76 57.05 112.09 45.95 110.12 C 41.06 110.21 34.58 110.01 32.11 115.10 C 30.17 120.76 22.82 121.48 18.30 118.71 C 11.32 113.20 21.62 100.64 13.86 96.21 C 7.38 95.43 7.98 83.44 0.00 87.86 L 0.00 83.93 Z" />
</g>
<g id="#da8a1cff">
<path fill="#da8a1c" opacity="1.00" d=" M 64.43 84.35 C 69.88 81.27 72.19 88.85 71.93 92.81 C 67.41 96.00 59.03 97.28 55.17 92.75 C 55.22 88.45 61.47 87.06 64.43 84.35 Z" />
</g>
<g id="#0c060666">
<path fill="#0c0606" opacity="0.40" d=" M 0.00 87.86 C 7.98 83.44 7.38 95.43 13.86 96.21 C 21.62 100.64 11.32 113.20 18.30 118.71 C 22.82 121.48 30.17 120.76 32.11 115.10 C 34.58 110.01 41.06 110.21 45.95 110.12 C 57.05 112.09 68.29 109.76 79.41 110.51 C 88.71 108.92 88.18 123.38 97.97 120.20 C 100.57 120.51 104.29 119.23 103.98 116.07 C 103.32 112.99 99.76 112.16 97.75 110.14 L 98.73 109.90 C 100.79 110.48 102.84 111.18 104.65 112.35 C 109.21 118.96 100.40 124.35 94.30 122.51 C 89.04 121.48 87.80 115.57 83.91 113.07 C 68.91 111.37 53.43 114.22 38.32 112.33 C 31.62 112.45 33.05 123.99 24.98 121.07 C 9.91 124.78 17.22 106.41 14.21 98.76 C 7.96 97.58 7.12 86.10 0.00 89.81 L 0.00 87.86 Z" />
</g>
<g id="#a28774f6">
<path fill="#a28774" opacity="0.96" d=" M 24.21 87.95 C 24.66 87.99 25.54 88.05 25.99 88.09 C 27.01 93.39 24.05 100.35 27.24 104.93 C 32.95 104.92 38.07 101.34 43.10 98.91 C 54.54 104.42 67.80 101.62 80.10 101.04 C 86.67 102.67 90.81 97.37 93.07 92.25 C 93.64 91.43 94.21 90.60 94.78 89.77 C 94.88 90.65 95.07 92.41 95.17 93.29 C 92.95 97.38 91.78 105.23 85.00 102.96 C 71.96 102.70 58.72 105.77 45.88 102.30 C 38.24 100.99 32.46 106.85 26.17 109.00 C 24.09 102.85 26.22 95.88 23.14 89.92 C 23.41 89.43 23.94 88.45 24.21 87.95 Z" />
</g>
<g id="#0402022d">
<path fill="#040202" opacity="0.18" d=" M 0.00 89.81 C 7.12 86.10 7.96 97.58 14.21 98.76 C 17.22 106.41 9.91 124.78 24.98 121.07 C 33.05 123.99 31.62 112.45 38.32 112.33 C 53.43 114.22 68.91 111.37 83.91 113.07 C 87.80 115.57 89.04 121.48 94.30 122.51 C 85.63 125.51 86.71 110.00 77.43 114.45 C 64.08 115.56 50.68 114.97 37.33 114.34 C 32.94 115.68 33.51 123.55 28.05 122.81 C 23.79 121.29 18.63 124.67 15.22 120.80 C 10.35 114.51 16.58 104.60 12.15 98.91 C 6.18 98.21 6.52 88.19 0.00 91.72 L 0.00 89.81 Z" />
</g>
<g id="#74645bf2">
<path fill="#74645b" opacity="0.95" d=" M 23.14 89.92 C 26.22 95.88 24.09 102.85 26.17 109.00 C 32.46 106.85 38.24 100.99 45.88 102.30 C 58.72 105.77 71.96 102.70 85.00 102.96 C 91.78 105.23 92.95 97.38 95.17 93.29 L 95.65 92.58 C 95.81 94.11 95.95 95.64 96.08 97.17 C 95.45 99.37 94.98 101.61 94.69 103.88 C 94.40 106.77 95.05 111.22 91.14 109.95 C 81.37 98.69 63.79 107.51 51.04 104.85 C 43.39 103.01 34.71 104.21 29.55 110.67 C 20.20 113.20 23.64 100.46 22.95 95.06 C 23.01 93.34 23.09 91.63 23.14 89.92 Z" />
</g>
<g id="#514038ea">
<path fill="#514038" opacity="0.92" d=" M 21.23 94.89 C 21.66 94.93 22.52 95.01 22.95 95.06 C 23.64 100.46 20.20 113.20 29.55 110.67 C 34.71 104.21 43.39 103.01 51.04 104.85 C 63.79 107.51 81.37 98.69 91.14 109.95 C 95.05 111.22 94.40 106.77 94.69 103.88 C 94.96 106.58 95.04 109.35 95.93 111.95 C 88.49 116.76 87.37 103.38 79.81 105.99 C 68.10 106.25 56.24 108.27 44.67 105.51 C 40.34 105.87 35.33 106.88 32.89 110.92 C 32.28 111.68 31.69 112.45 31.13 113.24 C 19.29 115.85 21.21 103.61 21.34 96.64 C 21.32 96.20 21.26 95.33 21.23 94.89 Z" />
</g>
<g id="#232223f3">
<path fill="#232223" opacity="0.95" d=" M 21.34 96.64 C 21.21 103.61 19.29 115.85 31.13 113.24 C 29.66 115.02 28.79 118.31 25.99 118.06 C 13.02 120.78 18.29 103.13 21.34 96.64 Z" />
</g>
<g id="#29292a97">
<path fill="#29292a" opacity="0.59" d=" M 94.69 103.88 C 95.26 103.66 96.40 103.22 96.97 103.00 L 98.01 103.28 L 97.87 104.20 C 97.09 106.43 97.05 108.41 97.75 110.14 C 99.76 112.16 103.32 112.99 103.98 116.07 C 104.29 119.23 100.57 120.51 97.97 120.20 L 98.06 119.34 C 105.22 118.85 101.18 111.65 95.93 111.95 C 95.04 109.35 94.96 106.58 94.69 103.88 Z" />
</g>
<g id="#321911c8">
<path fill="#321911" opacity="0.78" d=" M 32.89 110.92 C 35.33 106.88 40.34 105.87 44.67 105.51 C 56.24 108.27 68.10 106.25 79.81 105.99 C 82.03 107.07 84.24 108.28 85.89 110.15 C 74.21 105.95 61.67 110.68 49.68 108.31 C 43.88 107.22 38.35 109.27 32.89 110.92 Z" />
</g>
<g id="#2b2a2be9">
<path fill="#2b2a2b" opacity="0.91" d=" M 79.81 105.99 C 87.37 103.38 88.49 116.76 95.93 111.95 C 101.18 111.65 105.22 118.85 98.06 119.34 C 92.26 119.07 89.36 114.10 85.89 110.15 C 84.24 108.28 82.03 107.07 79.81 105.99 Z" />
</g>
</svg>
