<?xml version="1.0" encoding="UTF-8" ?>
<!DOCTYPE svg PUBLIC "-//W3C//DTD SVG 1.1//EN" "http://www.w3.org/Graphics/SVG/1.1/DTD/svg11.dtd">
<svg width="164pt" height="164pt" viewBox="0 0 164 164" version="1.1" xmlns="http://www.w3.org/2000/svg">
<g id="#0806050d">
<path fill="#080605" opacity="0.05" d=" M 0.00 0.00 L 69.54 0.00 C 73.36 2.32 82.89 -1.69 84.02 2.93 C 55.94 3.83 27.75 3.05 0.00 8.14 L 0.00 0.00 Z" />
</g>
<g id="#312b2542">
<path fill="#312b25" opacity="0.26" d=" M 69.54 0.00 L 89.54 0.00 C 93.99 3.02 105.74 -2.56 107.01 2.93 C 100.93 3.31 94.71 2.35 88.72 3.68 C 79.44 3.79 70.22 4.93 60.95 5.09 C 42.79 3.93 24.66 6.58 6.77 8.84 C 4.57 9.56 2.40 11.24 0.00 10.28 L 0.00 8.14 C 27.75 3.05 55.94 3.83 84.02 2.93 C 82.89 -1.69 73.36 2.32 69.54 0.00 Z" />
</g>
<g id="#4d453e6c">
<path fill="#4d453e" opacity="0.42" d=" M 89.54 0.00 L 110.55 0.00 C 112.69 1.91 119.89 -1.07 120.04 2.86 C 109.60 3.24 99.18 4.69 88.72 3.68 C 94.71 2.35 100.93 3.31 107.01 2.93 C 105.74 -2.56 93.99 3.02 89.54 0.00 Z" />
</g>
<g id="#6b67628f">
<path fill="#6b6762" opacity="0.56" d=" M 110.55 0.00 L 130.19 0.00 C 130.72 2.61 133.31 7.45 126.03 3.98 C 110.25 4.77 94.43 4.62 78.70 5.86 C 72.85 5.98 67.00 5.99 61.15 6.09 L 60.95 5.09 C 70.22 4.93 79.44 3.79 88.72 3.68 C 99.18 4.69 109.60 3.24 120.04 2.86 C 119.89 -1.07 112.69 1.91 110.55 0.00 Z" />
</g>
<g id="#8a8e91bd">
<path fill="#8a8e91" opacity="0.74" d=" M 130.19 0.00 L 142.73 0.00 C 143.04 2.62 143.63 5.18 144.28 7.73 C 144.17 11.50 144.01 15.26 143.95 19.03 L 142.99 18.98 C 141.90 14.30 145.50 7.38 140.69 4.14 C 137.60 4.04 134.65 4.86 131.72 5.71 C 129.31 5.80 126.91 5.86 124.51 5.90 C 109.28 5.50 93.96 6.49 78.70 5.86 C 94.43 4.62 110.25 4.77 126.03 3.98 C 133.31 7.45 130.72 2.61 130.19 0.00 Z" />
</g>
<g id="#3a332d92">
<path fill="#3a332d" opacity="0.57" d=" M 142.73 0.00 L 144.86 0.00 C 144.94 0.70 145.09 2.10 145.16 2.80 C 145.70 13.68 147.10 24.48 148.86 35.22 L 148.92 36.15 C 150.36 59.03 148.19 82.58 153.90 104.94 C 153.57 106.36 152.93 107.83 151.67 108.67 C 140.52 115.05 126.49 112.23 115.03 115.21 C 116.94 121.09 125.45 123.09 127.29 129.64 C 127.10 130.01 126.72 130.75 126.53 131.12 C 125.84 129.97 125.11 128.85 124.33 127.76 C 123.36 126.37 122.36 124.98 121.06 123.89 C 118.44 120.74 112.74 118.90 113.00 114.17 C 121.10 111.71 130.02 114.33 138.07 111.16 C 142.27 109.66 152.14 110.23 151.49 103.36 C 147.65 81.47 150.27 59.00 147.06 37.00 C 145.42 27.32 145.53 17.43 144.28 7.73 C 143.63 5.18 143.04 2.62 142.73 0.00 Z" />
</g>
<g id="#0504032d">
<path fill="#050403" opacity="0.18" d=" M 144.86 0.00 L 148.97 0.00 C 150.31 11.94 150.14 23.97 149.93 35.96 L 148.92 36.15 L 148.86 35.22 C 147.38 24.78 150.87 12.11 145.16 2.80 C 145.09 2.10 144.94 0.70 144.86 0.00 Z" />
</g>
<g id="#130f0b62">
<path fill="#130f0b" opacity="0.38" d=" M 145.16 2.80 C 150.87 12.11 147.38 24.78 148.86 35.22 C 147.10 24.48 145.70 13.68 145.16 2.80 Z" />
</g>
<g id="#b8bcbdf6">
<path fill="#b8bcbd" opacity="0.96" d=" M 131.72 5.71 C 134.65 4.86 137.60 4.04 140.69 4.14 C 145.50 7.38 141.90 14.30 142.99 18.98 C 141.65 38.94 147.69 58.37 146.85 78.24 C 145.89 76.45 144.98 74.64 144.15 72.79 C 143.56 62.53 142.97 52.27 142.57 41.99 C 141.47 30.71 142.34 19.37 141.95 8.08 C 141.47 4.86 137.20 6.27 134.73 6.02 C 133.98 5.94 132.48 5.79 131.72 5.71 Z" />
</g>
<g id="#564c416b">
<path fill="#564c41" opacity="0.42" d=" M 6.77 8.84 C 24.66 6.58 42.79 3.93 60.95 5.09 L 61.15 6.09 L 60.23 6.15 C 42.31 5.09 24.64 9.24 6.77 8.84 Z" />
</g>
<g id="#a3b8c9de">
<path fill="#a3b8c9" opacity="0.87" d=" M 78.70 5.86 C 93.96 6.49 109.28 5.50 124.51 5.90 C 123.11 6.43 121.70 6.91 120.29 7.37 C 106.56 6.67 92.82 7.22 79.09 6.89 L 78.70 5.86 Z" />
</g>
<g id="#71696296">
<path fill="#716962" opacity="0.59" d=" M 6.77 8.84 C 24.64 9.24 42.31 5.09 60.23 6.15 C 42.17 8.32 23.74 8.98 5.81 10.78 C 1.80 17.93 6.31 28.33 6.32 36.73 C 6.19 38.52 6.04 40.30 5.93 42.09 L 4.99 41.94 C 4.99 34.25 3.87 26.62 2.88 19.01 C 0.38 18.96 -0.58 20.76 0.00 24.40 L 0.00 10.28 C 2.40 11.24 4.57 9.56 6.77 8.84 Z" />
</g>
<g id="#959390bd">
<path fill="#959390" opacity="0.74" d=" M 60.23 6.15 L 61.15 6.09 C 67.00 5.99 72.85 5.98 78.70 5.86 L 79.09 6.89 C 78.62 6.95 77.68 7.05 77.22 7.10 C 59.42 7.10 41.84 10.45 24.06 11.00 C 17.98 11.04 11.89 10.92 5.81 10.78 C 23.74 8.98 42.17 8.32 60.23 6.15 Z" />
</g>
<g id="#74bcf8fe">
<path fill="#74bcf8" opacity="1.00" d=" M 124.51 5.90 C 126.91 5.86 129.31 5.80 131.72 5.71 C 132.48 5.79 133.98 5.94 134.73 6.02 C 142.70 15.37 137.63 28.70 139.01 39.87 C 140.08 58.05 143.74 76.06 143.73 94.30 C 145.88 99.49 142.47 103.19 139.85 107.00 C 139.44 107.06 138.63 107.17 138.22 107.23 C 127.87 106.64 117.24 107.02 107.32 110.28 C 102.40 112.27 96.18 110.38 92.01 114.10 C 90.47 112.96 88.77 112.05 86.91 111.57 C 89.13 110.11 91.92 106.18 88.03 104.91 C 81.32 102.18 80.99 114.51 73.90 112.94 C 79.68 110.29 79.88 100.09 88.02 102.92 C 92.08 102.01 92.49 107.50 95.86 108.20 C 100.96 109.84 106.24 108.32 111.28 107.34 C 121.75 105.97 132.22 103.49 142.51 101.28 C 142.03 71.95 135.42 42.85 137.60 13.36 C 137.50 8.36 127.68 8.15 128.20 12.72 C 136.56 17.14 132.25 27.89 132.88 35.79 C 132.41 38.96 132.04 42.15 131.35 45.28 C 131.67 37.16 129.66 28.87 130.89 20.85 C 133.29 18.30 129.93 16.05 127.62 15.31 C 117.45 15.52 107.30 16.19 97.12 16.09 L 95.98 15.97 C 104.90 13.01 115.76 17.94 123.89 12.87 C 122.45 8.99 117.01 10.83 113.68 10.05 C 115.88 9.14 118.09 8.28 120.29 7.37 C 121.70 6.91 123.11 6.43 124.51 5.90 Z" />
</g>
<g id="#c6e3f6fd">
<path fill="#c6e3f6" opacity="1.00" d=" M 134.73 6.02 C 137.20 6.27 141.47 4.86 141.95 8.08 C 142.34 19.37 141.47 30.71 142.57 41.99 C 140.83 43.70 140.04 40.92 139.01 39.87 C 137.63 28.70 142.70 15.37 134.73 6.02 Z" />
</g>
<g id="#9eb1bee3">
<path fill="#9eb1be" opacity="0.89" d=" M 24.06 11.00 C 41.84 10.45 59.42 7.10 77.22 7.10 C 75.01 7.89 72.83 8.76 70.73 9.79 C 55.10 9.79 39.53 11.31 23.93 12.01 L 24.06 11.00 Z" />
</g>
<g id="#a9cdecfd">
<path fill="#a9cdec" opacity="1.00" d=" M 77.22 7.10 C 77.68 7.05 78.62 6.95 79.09 6.89 C 92.82 7.22 106.56 6.67 120.29 7.37 C 118.09 8.28 115.88 9.14 113.68 10.05 C 106.19 9.94 98.70 9.92 91.22 10.23 C 84.39 10.08 77.56 10.06 70.73 9.79 C 72.83 8.76 75.01 7.89 77.22 7.10 Z" />
</g>
<g id="#6c6259c1">
<path fill="#6c6259" opacity="0.76" d=" M 144.28 7.73 C 145.53 17.43 145.42 27.32 147.06 37.00 C 150.27 59.00 147.65 81.47 151.49 103.36 C 152.14 110.23 142.27 109.66 138.07 111.16 C 130.02 114.33 121.10 111.71 113.00 114.17 C 112.74 118.90 118.44 120.74 121.06 123.89 L 120.12 123.91 C 119.59 123.91 118.55 123.93 118.03 123.93 C 117.37 123.27 116.71 122.62 116.04 121.97 C 112.72 119.28 108.50 114.62 113.90 111.81 C 125.83 112.29 139.27 111.24 149.83 105.76 C 148.58 76.78 146.60 47.91 143.95 19.03 C 144.01 15.26 144.17 11.50 144.28 7.73 Z" />
</g>
<g id="#83bef1fd">
<path fill="#83bef1" opacity="1.00" d=" M 23.93 12.01 C 39.53 11.31 55.10 9.79 70.73 9.79 C 77.56 10.06 84.39 10.08 91.22 10.23 C 65.86 10.35 41.10 16.42 15.73 15.57 C 9.83 17.27 12.25 24.63 12.95 29.01 C 16.54 44.76 14.91 61.18 16.86 77.01 C 16.72 87.80 20.29 98.20 19.92 108.99 C 19.88 113.31 19.65 118.60 23.10 121.86 C 32.17 115.52 43.79 118.50 54.17 118.16 C 44.94 122.49 34.41 120.42 25.12 124.08 C 23.45 123.38 21.62 122.94 20.22 121.73 C 13.07 90.84 16.79 58.71 10.20 27.78 C 7.00 18.85 12.00 13.38 20.33 12.27 C 21.53 12.17 22.73 12.08 23.93 12.01 Z" />
</g>
<g id="#5cb2feff">
<path fill="#5cb2fe" opacity="1.00" d=" M 91.22 10.23 C 98.70 9.92 106.19 9.94 113.68 10.05 C 117.01 10.83 122.45 8.99 123.89 12.87 C 115.76 17.94 104.90 13.01 95.98 15.97 C 71.03 13.81 46.88 22.49 21.93 19.93 C 26.92 17.52 17.90 14.17 15.73 15.57 C 41.10 16.42 65.86 10.35 91.22 10.23 Z" />
</g>
<g id="#3fa4fcff">
<path fill="#3fa4fc" opacity="1.00" d=" M 128.20 12.72 C 127.68 8.15 137.50 8.36 137.60 13.36 C 135.42 42.85 142.03 71.95 142.51 101.28 C 141.94 98.48 142.20 94.33 138.85 93.31 C 125.32 99.10 109.68 98.97 95.66 101.70 C 91.93 110.35 106.00 106.07 111.28 107.34 C 106.24 108.32 100.96 109.84 95.86 108.20 C 92.49 107.50 92.08 102.01 88.02 102.92 C 79.88 100.09 79.68 110.29 73.90 112.94 C 67.51 112.96 61.66 115.65 55.81 117.86 C 55.40 117.94 54.58 118.08 54.17 118.16 C 43.79 118.50 32.17 115.52 23.10 121.86 C 19.65 118.60 19.88 113.31 19.92 108.99 C 20.29 98.20 16.72 87.80 16.86 77.01 C 27.89 88.87 15.75 106.08 23.14 118.88 C 29.50 116.34 36.67 118.29 43.02 115.82 C 42.80 114.37 41.84 113.23 41.05 112.06 C 47.52 115.76 51.52 110.15 57.13 108.93 C 56.17 110.74 53.79 114.33 57.67 113.68 C 63.72 111.63 77.85 115.36 76.04 104.95 C 70.71 104.80 66.06 107.99 60.77 107.90 C 66.15 104.26 73.09 103.54 77.94 99.05 C 80.61 98.52 83.29 97.92 85.84 96.94 C 93.35 92.14 102.58 92.61 110.82 89.40 C 116.53 94.00 124.96 94.29 131.74 92.75 C 133.83 86.31 134.37 79.54 133.47 72.83 C 133.18 60.48 132.95 48.14 132.88 35.79 C 132.25 27.89 136.56 17.14 128.20 12.72 Z" />
</g>
<g id="#b6b0a9db">
<path fill="#b6b0a9" opacity="0.86" d=" M 6.32 36.73 C 6.31 28.33 1.80 17.93 5.81 10.78 C 11.89 10.92 17.98 11.04 24.06 11.00 L 23.93 12.01 C 22.73 12.08 21.53 12.17 20.33 12.27 C 15.95 13.30 9.61 9.76 6.08 13.29 C 6.06 19.57 6.66 25.83 7.04 32.09 C 12.98 57.55 9.55 84.07 15.50 109.44 C 16.26 115.00 15.84 120.60 15.87 126.19 C 14.22 115.70 12.78 105.17 11.06 94.69 C 11.25 75.28 9.97 55.81 6.32 36.73 Z" />
</g>
<g id="#d9e4eafb">
<path fill="#d9e4ea" opacity="1.00" d=" M 6.08 13.29 C 9.61 9.76 15.95 13.30 20.33 12.27 C 12.00 13.38 7.00 18.85 10.20 27.78 C 10.15 30.47 10.66 34.57 7.04 32.09 C 6.66 25.83 6.06 19.57 6.08 13.29 Z" />
</g>
<g id="#c3e0fbff">
<path fill="#c3e0fb" opacity="1.00" d=" M 97.12 16.09 C 107.30 16.19 117.45 15.52 127.62 15.31 C 129.93 16.05 133.29 18.30 130.89 20.85 C 129.99 21.21 129.10 21.58 128.21 21.95 C 128.23 18.88 127.02 14.20 122.16 17.26 C 102.83 19.54 83.31 19.53 63.98 21.96 C 60.38 22.11 55.80 23.39 56.83 28.00 C 48.76 26.67 40.41 30.35 32.09 29.13 C 26.10 29.15 28.24 43.12 21.98 36.96 C 22.37 31.80 18.96 25.20 22.31 21.15 C 47.30 21.27 72.54 20.86 97.12 16.09 Z" />
</g>
<g id="#3c9ffeff">
<path fill="#3c9ffe" opacity="1.00" d=" M 12.95 29.01 C 12.25 24.63 9.83 17.27 15.73 15.57 C 17.90 14.17 26.92 17.52 21.93 19.93 C 19.94 21.48 17.10 23.20 19.42 26.58 C 19.71 34.35 20.63 42.06 21.20 49.81 C 21.16 51.16 21.11 52.51 21.05 53.86 C 17.86 51.78 15.52 57.80 17.03 60.00 C 16.92 65.67 16.89 71.34 16.86 77.01 C 14.91 61.18 16.54 44.76 12.95 29.01 Z" />
</g>
<g id="#85c6fbff">
<path fill="#85c6fb" opacity="1.00" d=" M 21.93 19.93 C 46.88 22.49 71.03 13.81 95.98 15.97 L 97.12 16.09 C 72.54 20.86 47.30 21.27 22.31 21.15 C 18.96 25.20 22.37 31.80 21.98 36.96 C 21.15 43.25 23.18 50.81 27.88 55.00 C 29.63 52.13 30.41 48.79 32.15 45.92 C 36.47 49.02 36.04 55.56 39.92 59.22 C 40.52 62.69 41.30 66.23 40.87 69.76 C 37.60 72.34 30.45 71.80 29.87 76.98 C 28.39 81.50 32.31 85.34 33.85 89.29 L 33.86 90.30 C 23.64 79.33 27.31 62.82 21.20 49.81 C 20.63 42.06 19.71 34.35 19.42 26.58 C 17.10 23.20 19.94 21.48 21.93 19.93 Z" />
</g>
<g id="#d9e6dfff">
<path fill="#d9e6df" opacity="1.00" d=" M 63.98 21.96 C 83.31 19.53 102.83 19.54 122.16 17.26 C 127.02 14.20 128.23 18.88 128.21 21.95 C 127.97 22.23 127.48 22.78 127.23 23.05 C 126.63 20.04 122.45 19.26 119.98 20.13 C 105.32 21.36 90.52 20.47 75.96 22.97 C 70.17 24.16 62.86 22.43 58.85 27.69 C 58.34 27.77 57.33 27.92 56.83 28.00 C 55.80 23.39 60.38 22.11 63.98 21.96 Z" />
</g>
<g id="#332e2950">
<path fill="#332e29" opacity="0.31" d=" M 0.00 24.40 C -0.58 20.76 0.38 18.96 2.88 19.01 C 3.87 26.62 4.99 34.25 4.99 41.94 C 4.54 60.23 9.01 78.10 9.69 96.32 C 12.18 106.83 7.12 119.87 14.03 129.07 C 12.55 128.59 11.17 127.86 9.80 127.13 C 8.04 115.65 9.82 103.79 7.75 92.27 C 8.79 79.95 4.01 68.10 4.25 55.77 C 3.95 47.54 3.65 39.29 2.85 31.09 C -1.07 30.01 1.45 36.34 0.00 38.59 L 0.00 24.40 Z" />
</g>
<g id="#9c968fe5">
<path fill="#9c968f" opacity="0.90" d=" M 142.99 18.98 L 143.95 19.03 C 146.60 47.91 148.58 76.78 149.83 105.76 C 139.27 111.24 125.83 112.29 113.90 111.81 C 122.34 112.09 130.39 110.08 138.22 107.23 C 138.63 107.17 139.44 107.06 139.85 107.00 C 142.56 106.67 146.05 108.12 147.93 105.71 C 147.70 96.55 146.91 87.41 146.85 78.24 C 147.69 58.37 141.65 38.94 142.99 18.98 Z" />
</g>
<g id="#e7e9c0ff">
<path fill="#e7e9c0" opacity="1.00" d=" M 75.96 22.97 C 90.52 20.47 105.32 21.36 119.98 20.13 C 122.45 19.26 126.63 20.04 127.23 23.05 C 126.46 22.97 124.92 22.80 124.15 22.72 C 122.02 22.43 119.93 22.51 117.87 22.94 C 100.23 27.51 81.72 23.33 63.87 25.48 C 59.43 27.96 61.92 32.95 62.10 36.87 C 61.85 38.00 61.61 39.12 61.35 40.24 C 60.89 36.01 60.29 31.72 58.85 27.69 C 62.86 22.43 70.17 24.16 75.96 22.97 Z" />
</g>
<g id="#95bdd7ff">
<path fill="#95bdd7" opacity="1.00" d=" M 128.21 21.95 C 129.10 21.58 129.99 21.21 130.89 20.85 C 129.66 28.87 131.67 37.16 131.35 45.28 C 131.05 46.76 130.47 49.72 130.18 51.21 C 129.44 45.39 129.22 39.52 128.40 33.71 C 128.08 30.15 127.56 26.61 127.23 23.05 C 127.48 22.78 127.97 22.23 128.21 21.95 Z" />
</g>
<g id="#fdeea5ff">
<path fill="#fdeea5" opacity="1.00" d=" M 117.87 22.94 C 119.93 22.51 122.02 22.43 124.15 22.72 L 123.86 23.64 C 121.70 28.74 123.37 35.63 117.71 38.71 C 101.98 40.79 85.39 38.67 70.20 43.88 C 67.43 41.65 66.60 34.28 62.10 36.87 C 61.92 32.95 59.43 27.96 63.87 25.48 C 70.31 26.95 63.21 34.50 68.43 37.72 C 84.27 37.43 100.02 35.34 115.85 34.80 C 122.47 33.14 121.56 26.75 117.87 22.94 Z" />
</g>
<g id="#fdf4c1ff">
<path fill="#fdf4c1" opacity="1.00" d=" M 63.87 25.48 C 81.72 23.33 100.23 27.51 117.87 22.94 C 121.56 26.75 122.47 33.14 115.85 34.80 C 100.02 35.34 84.27 37.43 68.43 37.72 C 63.21 34.50 70.31 26.95 63.87 25.48 Z" />
</g>
<g id="#cfc881ff">
<path fill="#cfc881" opacity="1.00" d=" M 124.15 22.72 C 124.92 22.80 126.46 22.97 127.23 23.05 C 127.56 26.61 128.08 30.15 128.40 33.71 C 127.28 43.91 128.46 54.06 128.98 64.23 C 128.46 61.04 127.98 57.86 127.31 54.71 C 127.27 54.25 127.18 53.33 127.14 52.87 C 127.07 51.10 126.93 47.57 126.86 45.81 C 126.53 43.03 125.65 40.35 124.98 37.64 C 124.64 36.01 124.20 34.39 123.81 32.77 C 123.83 29.72 123.85 26.68 123.86 23.64 L 124.15 22.72 Z" />
</g>
<g id="#fde88eff">
<path fill="#fde88e" opacity="1.00" d=" M 117.71 38.71 C 123.37 35.63 121.70 28.74 123.86 23.64 C 123.85 26.68 123.83 29.72 123.81 32.77 C 122.20 36.95 121.93 43.65 116.37 44.39 C 101.23 45.34 86.07 46.35 70.96 47.89 C 66.68 48.64 67.22 40.89 63.16 40.98 C 62.26 42.63 61.72 44.44 61.10 46.21 C 61.08 44.81 61.07 43.40 61.06 42.00 C 61.13 41.56 61.28 40.68 61.35 40.24 C 61.61 39.12 61.85 38.00 62.10 36.87 C 66.60 34.28 67.43 41.65 70.20 43.88 C 85.39 38.67 101.98 40.79 117.71 38.71 Z" />
</g>
<g id="#a4d3fbff">
<path fill="#a4d3fb" opacity="1.00" d=" M 32.09 29.13 C 40.41 30.35 48.76 26.67 56.83 28.00 C 55.54 32.73 62.05 38.87 55.66 41.67 C 50.78 44.69 44.08 43.87 39.73 47.74 C 36.31 51.08 39.56 55.39 39.92 59.22 C 36.04 55.56 36.47 49.02 32.15 45.92 C 30.41 48.79 29.63 52.13 27.88 55.00 C 23.18 50.81 21.15 43.25 21.98 36.96 C 28.24 43.12 26.10 29.15 32.09 29.13 Z" />
</g>
<g id="#c1ced9fa">
<path fill="#c1ced9" opacity="0.98" d=" M 10.20 27.78 C 16.79 58.71 13.07 90.84 20.22 121.73 C 21.62 122.94 23.45 123.38 25.12 124.08 C 24.06 125.09 22.98 126.08 21.88 127.06 C 20.38 126.84 17.38 126.40 15.87 126.19 C 15.84 120.60 16.26 115.00 15.50 109.44 C 9.55 84.07 12.98 57.55 7.04 32.09 C 10.66 34.57 10.15 30.47 10.20 27.78 Z" />
</g>
<g id="#bdc4c8ff">
<path fill="#bdc4c8" opacity="1.00" d=" M 56.83 28.00 C 57.33 27.92 58.34 27.77 58.85 27.69 C 60.29 31.72 60.89 36.01 61.35 40.24 C 61.28 40.68 61.13 41.56 61.06 42.00 C 55.96 46.85 48.67 44.79 42.79 47.68 C 38.02 55.09 43.93 63.71 44.37 71.56 C 40.65 71.98 36.87 72.92 34.00 75.46 C 28.87 78.03 31.98 83.14 35.12 85.87 C 35.05 86.64 34.93 88.19 34.87 88.96 L 33.85 89.29 C 32.31 85.34 28.39 81.50 29.87 76.98 C 30.45 71.80 37.60 72.34 40.87 69.76 C 41.30 66.23 40.52 62.69 39.92 59.22 C 39.56 55.39 36.31 51.08 39.73 47.74 C 44.08 43.87 50.78 44.69 55.66 41.67 C 62.05 38.87 55.54 32.73 56.83 28.00 Z" />
</g>
<g id="#fee276ff">
<path fill="#fee276" opacity="1.00" d=" M 116.37 44.39 C 121.93 43.65 122.20 36.95 123.81 32.77 C 124.20 34.39 124.64 36.01 124.98 37.64 C 122.52 41.69 121.87 46.88 117.75 49.75 C 103.02 50.46 88.15 51.19 73.61 53.37 C 69.45 54.27 67.08 47.80 63.33 50.24 C 62.80 52.56 62.30 54.88 61.83 57.21 C 61.61 56.85 61.16 56.14 60.94 55.78 C 60.98 52.59 61.00 49.40 61.10 46.21 C 61.72 44.44 62.26 42.63 63.16 40.98 C 67.22 40.89 66.68 48.64 70.96 47.89 C 86.07 46.35 101.23 45.34 116.37 44.39 Z" />
</g>
<g id="#a9baa2ff">
<path fill="#a9baa2" opacity="1.00" d=" M 128.40 33.71 C 129.22 39.52 129.44 45.39 130.18 51.21 C 130.13 54.06 130.08 56.93 130.17 59.79 C 130.13 61.52 130.08 63.25 130.01 64.98 L 129.07 65.18 L 128.98 64.23 C 128.46 54.06 127.28 43.91 128.40 33.71 Z" />
</g>
<g id="#5ea5dcff">
<path fill="#5ea5dc" opacity="1.00" d=" M 131.35 45.28 C 132.04 42.15 132.41 38.96 132.88 35.79 C 132.95 48.14 133.18 60.48 133.47 72.83 C 129.64 80.08 119.97 77.49 113.22 78.05 C 112.89 77.89 112.23 77.57 111.90 77.40 C 118.08 76.08 125.31 76.84 130.30 72.32 C 134.29 69.41 130.57 63.43 130.17 59.79 C 130.08 56.93 130.13 54.06 130.18 51.21 C 130.47 49.72 131.05 46.76 131.35 45.28 Z" />
</g>
<g id="#0e0c0a58">
<path fill="#0e0c0a" opacity="0.35" d=" M 148.92 36.15 L 149.93 35.96 C 149.96 42.57 150.21 49.20 151.27 55.73 C 150.59 73.20 153.55 90.50 154.96 107.90 C 152.96 113.52 145.35 112.14 140.73 113.73 C 134.80 115.79 123.51 113.00 121.01 119.84 C 130.10 124.95 132.78 138.34 124.53 145.47 C 118.48 154.86 104.78 153.98 99.41 164.00 L 91.55 164.00 C 99.75 155.04 113.76 154.19 121.99 144.94 C 125.34 140.92 130.33 135.31 127.29 129.64 C 125.45 123.09 116.94 121.09 115.03 115.21 C 126.49 112.23 140.52 115.05 151.67 108.67 C 152.93 107.83 153.57 106.36 153.90 104.94 C 148.19 82.58 150.36 59.03 148.92 36.15 Z" />
</g>
<g id="#8f8377b2">
<path fill="#8f8377" opacity="0.70" d=" M 6.32 36.73 C 9.97 55.81 11.25 75.28 11.06 94.69 L 10.01 95.27 C 10.54 77.43 7.58 59.79 5.93 42.09 C 6.04 40.30 6.19 38.52 6.32 36.73 Z" />
</g>
<g id="#fdde5dff">
<path fill="#fdde5d" opacity="1.00" d=" M 117.75 49.75 C 121.87 46.88 122.52 41.69 124.98 37.64 C 125.65 40.35 126.53 43.03 126.86 45.81 C 121.19 45.88 122.29 55.48 116.17 55.27 C 102.15 56.11 88.06 56.85 74.14 58.77 C 69.85 57.02 62.52 53.20 62.79 60.95 L 61.94 60.93 C 61.92 59.69 61.88 58.45 61.83 57.21 C 62.30 54.88 62.80 52.56 63.33 50.24 C 67.08 47.80 69.45 54.27 73.61 53.37 C 88.15 51.19 103.02 50.46 117.75 49.75 Z" />
</g>
<g id="#9eccedff">
<path fill="#9ecced" opacity="1.00" d=" M 139.01 39.87 C 140.04 40.92 140.83 43.70 142.57 41.99 C 142.97 52.27 143.56 62.53 144.15 72.79 C 144.03 79.96 144.17 87.14 143.73 94.30 C 143.74 76.06 140.08 58.05 139.01 39.87 Z" />
</g>
<g id="#5d544c81">
<path fill="#5d544c" opacity="0.51" d=" M 4.99 41.94 L 5.93 42.09 C 7.58 59.79 10.54 77.43 10.01 95.27 L 9.69 96.32 C 9.01 78.10 4.54 60.23 4.99 41.94 Z" />
</g>
<g id="#f9b5b3ff">
<path fill="#f9b5b3" opacity="1.00" d=" M 42.79 47.68 C 48.67 44.79 55.96 46.85 61.06 42.00 C 61.07 43.40 61.08 44.81 61.10 46.21 C 61.00 49.40 60.98 52.59 60.94 55.78 C 58.07 58.71 53.94 63.10 50.14 58.89 C 44.91 56.74 45.87 51.45 49.28 48.14 C 47.65 48.02 44.41 47.79 42.79 47.68 Z" />
</g>
<g id="#fed943ff">
<path fill="#fed943" opacity="1.00" d=" M 116.17 55.27 C 122.29 55.48 121.19 45.88 126.86 45.81 C 126.93 47.57 127.07 51.10 127.14 52.87 C 121.99 50.05 122.41 58.72 118.70 60.80 C 104.24 62.85 89.48 62.04 75.09 64.73 C 71.24 63.00 67.04 60.47 64.12 65.06 C 63.70 63.68 63.23 62.32 62.79 60.95 C 62.52 53.20 69.85 57.02 74.14 58.77 C 88.06 56.85 102.15 56.11 116.17 55.27 Z" />
</g>
<g id="#f79791ff">
<path fill="#f79791" opacity="1.00" d=" M 44.37 71.56 C 43.93 63.71 38.02 55.09 42.79 47.68 C 44.41 47.79 47.65 48.02 49.28 48.14 C 45.87 51.45 44.91 56.74 50.14 58.89 C 53.94 63.10 58.07 58.71 60.94 55.78 C 61.16 56.14 61.61 56.85 61.83 57.21 C 61.88 58.45 61.92 59.69 61.94 60.93 C 61.93 61.38 61.91 62.27 61.90 62.72 C 59.09 63.39 56.71 65.05 54.05 66.07 C 50.70 63.70 48.04 60.14 44.02 58.83 C 44.78 64.98 46.10 71.06 46.81 77.22 C 48.14 83.55 49.76 89.81 50.96 96.17 L 51.11 97.02 C 50.79 96.83 50.13 96.43 49.80 96.23 C 48.96 92.62 47.76 89.12 46.27 85.73 C 45.88 80.98 45.40 76.22 44.37 71.56 Z" />
</g>
<g id="#62b4fbff">
<path fill="#62b4fb" opacity="1.00" d=" M 21.20 49.81 C 27.31 62.82 23.64 79.33 33.86 90.30 C 34.25 92.22 34.64 94.15 34.97 96.08 C 23.87 86.41 24.94 69.47 20.99 56.44 C 21.01 55.79 21.04 54.50 21.05 53.86 C 21.11 52.51 21.16 51.16 21.20 49.81 Z" />
</g>
<g id="#fed729ff">
<path fill="#fed729" opacity="1.00" d=" M 118.70 60.80 C 122.41 58.72 121.99 50.05 127.14 52.87 C 127.18 53.33 127.27 54.25 127.31 54.71 C 127.21 56.49 127.09 58.27 127.02 60.06 C 122.65 54.86 122.62 64.99 118.15 65.18 C 104.37 67.46 90.31 67.79 76.63 70.62 C 73.44 71.54 71.34 67.72 68.20 68.02 C 66.14 70.29 65.89 73.43 65.65 76.34 L 64.99 75.84 C 65.06 72.22 65.05 68.57 64.12 65.06 C 67.04 60.47 71.24 63.00 75.09 64.73 C 89.48 62.04 104.24 62.85 118.70 60.80 Z" />
</g>
<g id="#2495feff">
<path fill="#2495fe" opacity="1.00" d=" M 17.03 60.00 C 15.52 57.80 17.86 51.78 21.05 53.86 C 21.04 54.50 21.01 55.79 20.99 56.44 C 18.81 66.17 22.77 76.09 24.50 85.63 C 26.47 93.51 25.50 101.79 27.27 109.71 C 29.32 113.27 32.51 108.56 34.98 108.04 C 37.31 108.83 39.15 110.55 41.05 112.06 C 41.84 113.23 42.80 114.37 43.02 115.82 C 36.67 118.29 29.50 116.34 23.14 118.88 C 15.75 106.08 27.89 88.87 16.86 77.01 C 16.89 71.34 16.92 65.67 17.03 60.00 Z" />
</g>
<g id="#c4b33bff">
<path fill="#c4b33b" opacity="1.00" d=" M 127.31 54.71 C 127.98 57.86 128.46 61.04 128.98 64.23 L 129.07 65.18 C 129.02 67.55 129.38 70.60 126.61 71.59 C 120.24 72.44 113.39 72.55 107.85 76.23 L 107.21 75.53 L 106.61 74.78 C 108.63 73.24 110.87 72.06 113.19 71.06 C 117.66 70.43 122.70 72.11 126.84 69.76 C 126.99 66.53 127.04 63.30 127.02 60.06 C 127.09 58.27 127.21 56.49 127.31 54.71 Z" />
</g>
<g id="#1412112a">
<path fill="#141211" opacity="0.16" d=" M 4.25 55.77 C 4.01 68.10 8.79 79.95 7.75 92.27 C 3.21 80.66 3.76 67.99 4.25 55.77 Z" />
</g>
<g id="#01010028">
<path fill="#010100" opacity="0.16" d=" M 151.27 55.73 C 157.30 71.69 152.62 89.12 157.67 105.17 C 160.51 115.34 146.51 114.66 140.73 113.73 C 145.35 112.14 152.96 113.52 154.96 107.90 C 153.55 90.50 150.59 73.20 151.27 55.73 Z" />
</g>
<g id="#3ea4fdff">
<path fill="#3ea4fd" opacity="1.00" d=" M 24.50 85.63 C 22.77 76.09 18.81 66.17 20.99 56.44 C 24.94 69.47 23.87 86.41 34.97 96.08 C 36.61 101.58 40.52 106.14 41.05 112.06 C 39.15 110.55 37.31 108.83 34.98 108.04 C 32.51 108.56 29.32 113.27 27.27 109.71 C 25.50 101.79 26.47 93.51 24.50 85.63 Z" />
</g>
<g id="#f9dd0bff">
<path fill="#f9dd0b" opacity="1.00" d=" M 118.15 65.18 C 122.62 64.99 122.65 54.86 127.02 60.06 C 127.04 63.30 126.99 66.53 126.84 69.76 C 122.70 72.11 117.66 70.43 113.19 71.06 C 100.50 73.00 87.97 76.15 75.01 77.11 C 71.84 77.37 68.08 79.18 65.65 76.34 C 65.89 73.43 66.14 70.29 68.20 68.02 C 71.34 67.72 73.44 71.54 76.63 70.62 C 90.31 67.79 104.37 67.46 118.15 65.18 Z" />
</g>
<g id="#fa7879ff">
<path fill="#fa7879" opacity="1.00" d=" M 44.02 58.83 C 48.04 60.14 50.70 63.70 54.05 66.07 C 56.71 65.05 59.09 63.39 61.90 62.72 C 61.91 64.55 61.93 68.20 61.94 70.02 C 55.79 73.35 52.63 68.40 48.17 65.90 C 46.03 69.16 47.29 73.51 46.81 77.22 C 46.10 71.06 44.78 64.98 44.02 58.83 Z" />
</g>
<g id="#73a0a9ff">
<path fill="#73a0a9" opacity="1.00" d=" M 130.17 59.79 C 130.57 63.43 134.29 69.41 130.30 72.32 C 125.31 76.84 118.08 76.08 111.90 77.40 C 110.98 77.55 110.06 77.72 109.15 77.91 L 109.11 76.94 C 116.14 73.04 132.34 77.35 130.01 64.98 C 130.08 63.25 130.13 61.52 130.17 59.79 Z" />
</g>
<g id="#fda237ff">
<path fill="#fda237" opacity="1.00" d=" M 61.94 60.93 L 62.79 60.95 C 63.23 62.32 63.70 63.68 64.12 65.06 C 65.05 68.57 65.06 72.22 64.99 75.84 C 64.91 76.69 64.75 78.39 64.67 79.24 C 64.19 79.22 63.22 79.19 62.74 79.18 C 62.44 76.13 62.17 73.08 61.94 70.02 C 61.93 68.20 61.91 64.55 61.90 62.72 C 61.91 62.27 61.93 61.38 61.94 60.93 Z" />
</g>
<g id="#93a370ff">
<path fill="#93a370" opacity="1.00" d=" M 129.07 65.18 L 130.01 64.98 C 132.34 77.35 116.14 73.04 109.11 76.94 L 108.28 77.14 L 107.85 76.23 C 113.39 72.55 120.24 72.44 126.61 71.59 C 129.38 70.60 129.02 67.55 129.07 65.18 Z" />
</g>
<g id="#fd5759ff">
<path fill="#fd5759" opacity="1.00" d=" M 48.17 65.90 C 52.63 68.40 55.79 73.35 61.94 70.02 C 62.17 73.08 62.44 76.13 62.74 79.18 C 60.47 75.44 55.50 77.11 52.64 74.38 C 50.89 71.82 44.22 69.34 48.06 76.96 C 50.37 83.14 50.47 89.88 52.93 96.02 C 52.44 96.06 51.45 96.13 50.96 96.17 C 49.76 89.81 48.14 83.55 46.81 77.22 C 47.29 73.51 46.03 69.16 48.17 65.90 Z" />
</g>
<g id="#e3a407ff">
<path fill="#e3a407" opacity="1.00" d=" M 75.01 77.11 C 87.97 76.15 100.50 73.00 113.19 71.06 C 110.87 72.06 108.63 73.24 106.61 74.78 C 94.79 75.92 83.13 77.95 71.54 80.51 C 68.73 82.57 66.54 80.82 64.67 79.24 C 64.75 78.39 64.91 76.69 64.99 75.84 L 65.65 76.34 C 68.08 79.18 71.84 77.37 75.01 77.11 Z" />
</g>
<g id="#f9ecbcff">
<path fill="#f9ecbc" opacity="1.00" d=" M 34.00 75.46 C 36.87 72.92 40.65 71.98 44.37 71.56 C 45.40 76.22 45.88 80.98 46.27 85.73 C 40.32 91.63 39.03 77.82 34.00 75.46 Z" />
</g>
<g id="#f73434ff">
<path fill="#f73434" opacity="1.00" d=" M 48.06 76.96 C 44.22 69.34 50.89 71.82 52.64 74.38 C 55.50 77.11 60.47 75.44 62.74 79.18 C 63.63 80.63 64.76 81.91 66.04 83.03 C 61.66 85.58 57.31 85.19 54.15 81.08 C 50.07 84.53 52.33 90.89 54.12 95.07 C 64.67 90.63 75.94 87.98 87.24 86.20 C 86.73 86.44 85.72 86.90 85.21 87.14 C 74.58 90.68 63.64 93.46 52.93 96.02 C 50.47 89.88 50.37 83.14 48.06 76.96 Z" />
</g>
<g id="#50adfdff">
<path fill="#50adfd" opacity="1.00" d=" M 133.47 72.83 C 134.37 79.54 133.83 86.31 131.74 92.75 C 124.96 94.29 116.53 94.00 110.82 89.40 C 102.58 92.61 93.35 92.14 85.84 96.94 C 92.11 89.17 103.22 89.78 111.71 85.71 C 113.05 83.38 112.88 80.63 113.22 78.05 C 119.97 77.49 129.64 80.08 133.47 72.83 Z" />
</g>
<g id="#c8d8e5fc">
<path fill="#c8d8e5" opacity="1.00" d=" M 144.15 72.79 C 144.98 74.64 145.89 76.45 146.85 78.24 C 146.91 87.41 147.70 96.55 147.93 105.71 C 146.05 108.12 142.56 106.67 139.85 107.00 C 142.47 103.19 145.88 99.49 143.73 94.30 C 144.17 87.14 144.03 79.96 144.15 72.79 Z" />
</g>
<g id="#e05809ff">
<path fill="#e05809" opacity="1.00" d=" M 71.54 80.51 C 83.13 77.95 94.79 75.92 106.61 74.78 L 107.21 75.53 C 107.00 75.95 106.58 76.79 106.37 77.22 C 92.50 76.12 79.88 83.29 66.04 83.03 C 64.76 81.91 63.63 80.63 62.74 79.18 C 63.22 79.19 64.19 79.22 64.67 79.24 C 66.54 80.82 68.73 82.57 71.54 80.51 Z" />
</g>
<g id="#f8d687ff">
<path fill="#f8d687" opacity="1.00" d=" M 35.12 85.87 C 31.98 83.14 28.87 78.03 34.00 75.46 C 39.03 77.82 40.32 91.63 46.27 85.73 C 47.76 89.12 48.96 92.62 49.80 96.23 C 43.11 95.76 42.19 84.78 36.02 86.81 C 35.80 86.57 35.34 86.10 35.12 85.87 Z" />
</g>
<g id="#cd5562ff">
<path fill="#cd5562" opacity="1.00" d=" M 107.21 75.53 L 107.85 76.23 L 108.28 77.14 C 105.24 85.19 94.09 85.53 86.99 87.85 C 86.51 87.90 85.55 88.00 85.07 88.05 L 85.21 87.14 C 85.72 86.90 86.73 86.44 87.24 86.20 C 93.36 84.58 99.00 81.48 105.25 80.25 C 105.68 79.26 106.05 78.25 106.37 77.22 C 106.58 76.79 107.00 75.95 107.21 75.53 Z" />
</g>
<g id="#ee0c0eff">
<path fill="#ee0c0e" opacity="1.00" d=" M 66.04 83.03 C 79.88 83.29 92.50 76.12 106.37 77.22 C 106.05 78.25 105.68 79.26 105.25 80.25 C 99.00 81.48 93.36 84.58 87.24 86.20 C 75.94 87.98 64.67 90.63 54.12 95.07 C 52.33 90.89 50.07 84.53 54.15 81.08 C 57.31 85.19 61.66 85.58 66.04 83.03 Z" />
</g>
<g id="#aca3b1ff">
<path fill="#aca3b1" opacity="1.00" d=" M 108.28 77.14 L 109.11 76.94 L 109.15 77.91 C 107.05 90.72 88.76 84.01 82.95 94.08 C 83.92 91.78 85.45 89.79 86.99 87.85 C 94.09 85.53 105.24 85.19 108.28 77.14 Z" />
</g>
<g id="#78cdf0ff">
<path fill="#78cdf0" opacity="1.00" d=" M 109.15 77.91 C 110.06 77.72 110.98 77.55 111.90 77.40 C 112.23 77.57 112.89 77.89 113.22 78.05 C 112.88 80.63 113.05 83.38 111.71 85.71 C 103.22 89.78 92.11 89.17 85.84 96.94 C 83.29 97.92 80.61 98.52 77.94 99.05 C 78.61 98.32 79.29 97.58 79.96 96.85 C 80.99 95.96 82.00 95.05 82.95 94.08 C 88.76 84.01 107.05 90.72 109.15 77.91 Z" />
</g>
<g id="#c0b380ff">
<path fill="#c0b380" opacity="1.00" d=" M 35.12 85.87 C 35.34 86.10 35.80 86.57 36.02 86.81 C 36.53 92.80 40.22 97.62 41.75 103.26 C 42.83 111.34 51.56 108.25 56.31 105.60 C 64.22 102.74 71.12 97.91 78.92 94.92 C 80.38 94.03 80.93 92.22 81.94 90.91 C 82.96 89.92 84.01 88.98 85.07 88.05 C 85.55 88.00 86.51 87.90 86.99 87.85 C 85.45 89.79 83.92 91.78 82.95 94.08 C 82.00 95.05 80.99 95.96 79.96 96.85 C 67.69 101.38 56.32 109.70 43.16 110.99 C 41.08 103.36 36.13 96.85 34.87 88.96 C 34.93 88.19 35.05 86.64 35.12 85.87 Z" />
</g>
<g id="#f2be4fff">
<path fill="#f2be4f" opacity="1.00" d=" M 36.02 86.81 C 42.19 84.78 43.11 95.76 49.80 96.23 C 50.13 96.43 50.79 96.83 51.11 97.02 C 54.09 98.56 58.23 98.58 61.32 97.30 C 67.19 92.69 75.15 93.44 81.94 90.91 C 80.93 92.22 80.38 94.03 78.92 94.92 C 71.12 97.91 64.22 102.74 56.31 105.60 C 52.62 102.13 46.93 101.54 44.64 96.23 C 40.04 94.58 41.96 100.78 41.75 103.26 C 40.22 97.62 36.53 92.80 36.02 86.81 Z" />
</g>
<g id="#e97745ff">
<path fill="#e97745" opacity="1.00" d=" M 52.93 96.02 C 63.64 93.46 74.58 90.68 85.21 87.14 L 85.07 88.05 C 84.01 88.98 82.96 89.92 81.94 90.91 C 75.15 93.44 67.19 92.69 61.32 97.30 C 58.23 98.58 54.09 98.56 51.11 97.02 L 50.96 96.17 C 51.45 96.13 52.44 96.06 52.93 96.02 Z" />
</g>
<g id="#7fadbdff">
<path fill="#7fadbd" opacity="1.00" d=" M 33.85 89.29 L 34.87 88.96 C 36.13 96.85 41.08 103.36 43.16 110.99 C 56.32 109.70 67.69 101.38 79.96 96.85 C 79.29 97.58 78.61 98.32 77.94 99.05 C 73.09 103.54 66.15 104.26 60.77 107.90 C 59.55 108.25 58.35 108.61 57.13 108.93 C 51.52 110.15 47.52 115.76 41.05 112.06 C 40.52 106.14 36.61 101.58 34.97 96.08 C 34.64 94.15 34.25 92.22 33.86 90.30 L 33.85 89.29 Z" />
</g>
<g id="#2b99feff">
<path fill="#2b99fe" opacity="1.00" d=" M 95.66 101.70 C 109.68 98.97 125.32 99.10 138.85 93.31 C 142.20 94.33 141.94 98.48 142.51 101.28 C 132.22 103.49 121.75 105.97 111.28 107.34 C 106.00 106.07 91.93 110.35 95.66 101.70 Z" />
</g>
<g id="#5d564f93">
<path fill="#5d564f" opacity="0.58" d=" M 10.01 95.27 L 11.06 94.69 C 10.36 105.11 12.15 115.40 13.32 125.70 C 18.09 131.27 27.19 127.54 33.14 125.22 C 37.20 124.17 35.74 129.88 35.86 132.57 C 33.97 136.87 36.12 140.82 36.87 144.94 L 35.78 145.26 C 31.47 140.38 32.11 133.88 34.07 128.07 C 27.41 128.13 20.66 130.31 14.03 129.07 C 7.12 119.87 12.18 106.83 9.69 96.32 L 10.01 95.27 Z" />
</g>
<g id="#8d8278c7">
<path fill="#8d8278" opacity="0.78" d=" M 11.06 94.69 C 12.78 105.17 14.22 115.70 15.87 126.19 C 17.38 126.40 20.38 126.84 21.88 127.06 C 27.54 127.49 33.41 121.47 38.75 125.02 C 38.23 126.65 37.51 128.22 37.04 129.87 C 36.95 130.68 36.76 132.29 36.67 133.10 L 35.86 132.57 C 35.74 129.88 37.20 124.17 33.14 125.22 C 27.19 127.54 18.09 131.27 13.32 125.70 C 12.15 115.40 10.36 105.11 11.06 94.69 Z" />
</g>
<g id="#f8a31cff">
<path fill="#f8a31c" opacity="1.00" d=" M 41.75 103.26 C 41.96 100.78 40.04 94.58 44.64 96.23 C 46.93 101.54 52.62 102.13 56.31 105.60 C 51.56 108.25 42.83 111.34 41.75 103.26 Z" />
</g>
<g id="#90beebff">
<path fill="#90beeb" opacity="1.00" d=" M 73.90 112.94 C 80.99 114.51 81.32 102.18 88.03 104.91 C 91.92 106.18 89.13 110.11 86.91 111.57 C 84.26 112.19 81.67 113.36 80.84 116.18 C 72.54 117.29 64.19 118.30 55.81 117.86 C 61.66 115.65 67.51 112.96 73.90 112.94 Z" />
</g>
<g id="#1898fcff">
<path fill="#1898fc" opacity="1.00" d=" M 60.77 107.90 C 66.06 107.99 70.71 104.80 76.04 104.95 C 77.85 115.36 63.72 111.63 57.67 113.68 C 53.79 114.33 56.17 110.74 57.13 108.93 C 58.35 108.61 59.55 108.25 60.77 107.90 Z" />
</g>
<g id="#a1b5c6fd">
<path fill="#a1b5c6" opacity="1.00" d=" M 107.32 110.28 C 117.24 107.02 127.87 106.64 138.22 107.23 C 130.39 110.08 122.34 112.09 113.90 111.81 C 106.58 112.59 99.03 112.87 92.40 116.38 C 92.30 115.81 92.11 114.67 92.01 114.10 C 96.18 110.38 102.40 112.27 107.32 110.28 Z" />
</g>
<g id="#4186cbff">
<path fill="#4186cb" opacity="1.00" d=" M 80.84 116.18 C 81.67 113.36 84.26 112.19 86.91 111.57 C 88.77 112.05 90.47 112.96 92.01 114.10 C 92.11 114.67 92.30 115.81 92.40 116.38 C 89.11 118.98 84.72 119.83 81.19 117.18 L 80.84 116.18 Z" />
</g>
<g id="#918d89fe">
<path fill="#918d89" opacity="1.00" d=" M 92.40 116.38 C 99.03 112.87 106.58 112.59 113.90 111.81 C 108.50 114.62 112.72 119.28 116.04 121.97 C 111.89 119.20 107.63 115.66 102.21 117.12 C 101.27 120.29 96.82 124.74 100.41 127.60 C 103.29 130.15 104.78 133.89 104.00 137.83 C 99.52 141.27 93.49 137.75 88.66 140.62 C 79.97 141.57 69.46 146.23 61.82 140.07 C 60.67 136.21 61.87 132.09 61.08 128.16 C 58.57 116.29 74.59 120.70 81.19 117.18 C 84.72 119.83 89.11 118.98 92.40 116.38 M 62.15 124.23 C 62.01 128.46 63.96 132.61 62.96 136.96 C 64.36 141.17 70.12 143.73 74.32 141.32 C 83.18 138.55 92.49 137.87 101.73 137.80 C 104.29 136.44 102.20 133.32 101.65 131.32 C 98.90 125.97 93.02 132.71 88.89 131.77 C 83.52 129.48 72.36 138.78 71.64 128.85 C 76.51 121.63 66.08 118.58 62.15 124.23 Z" />
</g>
<g id="#a5a29ffd">
<path fill="#a5a29f" opacity="1.00" d=" M 55.81 117.86 C 64.19 118.30 72.54 117.29 80.84 116.18 L 81.19 117.18 C 74.59 120.70 58.57 116.29 61.08 128.16 L 60.35 127.61 C 59.54 126.01 58.45 124.16 56.47 125.55 C 50.41 128.87 43.64 129.49 37.04 129.87 C 37.51 128.22 38.23 126.65 38.75 125.02 C 33.41 121.47 27.54 127.49 21.88 127.06 C 22.98 126.08 24.06 125.09 25.12 124.08 C 34.41 120.42 44.94 122.49 54.17 118.16 C 54.58 118.08 55.40 117.94 55.81 117.86 Z" />
</g>
<g id="#aeacabfd">
<path fill="#aeacab" opacity="1.00" d=" M 102.21 117.12 C 107.63 115.66 111.89 119.20 116.04 121.97 C 116.71 122.62 117.37 123.27 118.03 123.93 C 117.55 123.95 116.61 123.98 116.13 124.00 C 111.54 118.59 98.77 116.23 102.82 127.15 C 104.90 130.67 110.34 137.90 104.59 140.60 C 93.10 142.39 81.51 143.36 69.99 144.85 C 66.93 144.39 62.56 143.68 61.82 140.07 C 69.46 146.23 79.97 141.57 88.66 140.62 C 93.49 137.75 99.52 141.27 104.00 137.83 C 104.78 133.89 103.29 130.15 100.41 127.60 C 96.82 124.74 101.27 120.29 102.21 117.12 Z" />
</g>
<g id="#ddddddfe">
<path fill="#dddddd" opacity="1.00" d=" M 102.82 127.15 C 98.77 116.23 111.54 118.59 116.13 124.00 C 118.08 127.00 115.54 130.25 112.86 131.69 C 109.33 130.63 105.97 129.04 102.82 127.15 Z" />
</g>
<g id="#52504eff">
<path fill="#52504e" opacity="1.00" d=" M 62.15 124.23 C 66.08 118.58 76.51 121.63 71.64 128.85 C 70.14 132.13 74.54 139.39 69.02 139.87 C 66.89 139.15 64.93 138.02 62.96 136.96 C 63.96 132.61 62.01 128.46 62.15 124.23 M 66.31 123.29 C 61.00 123.83 65.55 132.65 69.30 129.33 C 72.97 127.22 70.56 120.90 66.31 123.29 Z" />
</g>
<g id="#292827ff">
<path fill="#292827" opacity="1.00" d=" M 66.31 123.29 C 70.56 120.90 72.97 127.22 69.30 129.33 C 65.55 132.65 61.00 123.83 66.31 123.29 Z" />
</g>
<g id="#c6c6c6ff">
<path fill="#c6c6c6" opacity="1.00" d=" M 116.13 124.00 C 116.61 123.98 117.55 123.95 118.03 123.93 C 118.37 128.03 123.29 132.82 119.23 136.24 C 117.66 137.83 116.64 139.83 115.92 141.93 C 98.04 152.97 75.78 155.67 55.41 151.49 C 47.50 149.65 44.02 142.88 37.22 139.72 C 37.09 138.07 36.81 134.76 36.67 133.10 C 36.76 132.29 36.95 130.68 37.04 129.87 C 43.64 129.49 50.41 128.87 56.47 125.55 C 58.45 124.16 59.54 126.01 60.35 127.61 C 56.06 127.23 52.01 129.01 47.96 130.12 C 45.17 137.51 53.51 135.94 57.78 136.72 C 60.96 134.81 59.82 130.77 60.35 127.61 L 61.08 128.16 C 61.87 132.09 60.67 136.21 61.82 140.07 C 62.56 143.68 66.93 144.39 69.99 144.85 C 81.51 143.36 93.10 142.39 104.59 140.60 C 110.34 137.90 104.90 130.67 102.82 127.15 C 105.97 129.04 109.33 130.63 112.86 131.69 C 115.54 130.25 118.08 127.00 116.13 124.00 Z" />
</g>
<g id="#a3a3a3fd">
<path fill="#a3a3a3" opacity="1.00" d=" M 118.03 123.93 C 118.55 123.93 119.59 123.91 120.12 123.91 C 123.84 130.40 122.39 138.14 115.92 141.93 C 116.64 139.83 117.66 137.83 119.23 136.24 C 123.29 132.82 118.37 128.03 118.03 123.93 Z" />
</g>
<g id="#737373ed">
<path fill="#737373" opacity="0.93" d=" M 120.12 123.91 L 121.06 123.89 C 122.36 124.98 123.36 126.37 124.33 127.76 C 126.37 140.11 113.10 146.07 105.10 152.24 C 88.93 158.06 71.30 162.29 54.88 154.96 C 48.73 152.79 41.59 150.84 37.66 145.26 C 50.84 152.52 65.58 157.98 80.91 156.87 C 92.80 152.88 107.52 152.59 115.92 141.93 C 122.39 138.14 123.84 130.40 120.12 123.91 Z" />
</g>
<g id="#19181750">
<path fill="#191817" opacity="0.31" d=" M 9.80 127.13 C 11.17 127.86 12.55 128.59 14.03 129.07 C 20.66 130.31 27.41 128.13 34.07 128.07 C 32.11 133.88 31.47 140.38 35.78 145.26 C 39.14 150.99 46.28 153.09 51.89 156.06 C 55.29 158.48 59.64 160.04 61.60 164.00 L 55.57 164.00 C 49.40 153.68 33.41 152.76 30.30 139.68 C 29.98 135.63 34.99 126.44 25.57 130.64 C 20.51 134.12 11.99 133.68 9.80 127.13 Z" />
</g>
<g id="#e7e7e7ff">
<path fill="#e7e7e7" opacity="1.00" d=" M 47.96 130.12 C 52.01 129.01 56.06 127.23 60.35 127.61 C 59.82 130.77 60.96 134.81 57.78 136.72 C 53.51 135.94 45.17 137.51 47.96 130.12 Z" />
</g>
<g id="#3f3f3fe7">
<path fill="#3f3f3f" opacity="0.91" d=" M 124.33 127.76 C 125.11 128.85 125.84 129.97 126.53 131.12 C 125.12 141.87 114.99 149.75 105.27 153.26 L 105.10 152.24 C 113.10 146.07 126.37 140.11 124.33 127.76 Z" />
</g>
<g id="#6b6b6bff">
<path fill="#6b6b6b" opacity="1.00" d=" M 69.02 139.87 C 74.54 139.39 70.14 132.13 71.64 128.85 C 72.36 138.78 83.52 129.48 88.89 131.77 C 93.02 132.71 98.90 125.97 101.65 131.32 C 102.20 133.32 104.29 136.44 101.73 137.80 C 92.49 137.87 83.18 138.55 74.32 141.32 C 70.12 143.73 64.36 141.17 62.96 136.96 C 64.93 138.02 66.89 139.15 69.02 139.87 Z" />
</g>
<g id="#1d1d1da4">
<path fill="#1d1d1d" opacity="0.64" d=" M 127.29 129.64 C 130.33 135.31 125.34 140.92 121.99 144.94 C 113.76 154.19 99.75 155.04 91.55 164.00 L 86.57 164.00 C 87.99 162.26 89.53 160.62 91.20 159.11 C 96.06 157.61 100.43 154.86 105.27 153.26 C 114.99 149.75 125.12 141.87 126.53 131.12 C 126.72 130.75 127.10 130.01 127.29 129.64 Z" />
</g>
<g id="#9d9d9ef9">
<path fill="#9d9d9e" opacity="0.98" d=" M 36.87 144.94 C 36.12 140.82 33.97 136.87 35.86 132.57 L 36.67 133.10 C 36.81 134.76 37.09 138.07 37.22 139.72 C 44.02 142.88 47.50 149.65 55.41 151.49 C 75.78 155.67 98.04 152.97 115.92 141.93 C 107.52 152.59 92.80 152.88 80.91 156.87 C 65.58 157.98 50.84 152.52 37.66 145.26 L 36.87 144.94 Z" />
</g>
<g id="#414141a7">
<path fill="#414141" opacity="0.65" d=" M 35.78 145.26 L 36.87 144.94 L 37.66 145.26 C 41.59 150.84 48.73 152.79 54.88 154.96 C 65.60 162.28 79.06 160.78 91.20 159.11 C 89.53 160.62 87.99 162.26 86.57 164.00 L 66.58 164.00 C 63.85 158.58 56.90 158.28 51.89 156.06 C 46.28 153.09 39.14 150.99 35.78 145.26 Z" />
</g>
<g id="#505050cb">
<path fill="#505050" opacity="0.80" d=" M 54.88 154.96 C 71.30 162.29 88.93 158.06 105.10 152.24 L 105.27 153.26 C 100.43 154.86 96.06 157.61 91.20 159.11 C 79.06 160.78 65.60 162.28 54.88 154.96 Z" />
</g>
<g id="#28282886">
<path fill="#282828" opacity="0.53" d=" M 51.89 156.06 C 56.90 158.28 63.85 158.58 66.58 164.00 L 61.60 164.00 C 59.64 160.04 55.29 158.48 51.89 156.06 Z" />
</g>
</svg>
